<svg width="639" height="677" viewBox="0 0 639 677" fill="none" xmlns="http://www.w3.org/2000/svg">
<g clip-path="url(#clip0)">
<path d="M385.421 259.077L367.324 412.454L261.053 323.31L385.421 259.077Z" fill="#A9E8E5"/>
<path d="M367.499 412.862L385.655 258.77L385.324 258.933L260.702 323.319L260.965 323.518L367.499 412.862ZM385.2 259.461L367.185 412.002L261.449 323.333L385.2 259.461Z" fill="white"/>
<path d="M261.053 323.31L267.783 189.014L385.421 259.077L261.053 323.31Z" fill="#96DBD9"/>
<path d="M260.831 323.694L261.162 323.53L385.861 259.134L385.522 258.945L267.577 188.65L267.586 189.002L260.831 323.694ZM384.993 259.097L261.286 323.003L267.946 189.344L384.993 259.097Z" fill="white"/>
<path d="M267.784 189.014L346.28 142.291L385.422 259.077L267.784 189.014Z" fill="#A9E8E5"/>
<path d="M267.388 188.99L267.684 189.145L385.804 259.573L385.653 259.045L346.436 141.995L346.215 142.104L267.388 188.99ZM385.051 258.657L268.179 189.037L346.168 142.621L385.051 258.657Z" fill="white"/>
<path d="M385.421 259.077L346.28 142.291L445.025 229.183L385.421 259.077Z" fill="#AEE9E7"/>
<path d="M385.31 259.406L385.531 259.297L445.388 229.25L445.125 229.051L345.801 141.651L385.31 259.406ZM444.63 229.159L385.545 258.824L346.727 142.975L444.63 229.159Z" fill="white"/>
<path d="M346.281 142.29L383.906 161.286L445.026 229.182L346.281 142.29Z" fill="#F7F7F8"/>
<path d="M444.849 229.325L445.125 229.051L384.005 161.155L383.961 161.122L344.857 141.35L444.849 229.325ZM383.772 161.462L442.447 226.675L347.582 143.209L383.772 161.462Z" fill="white"/>
<path d="M268.353 189.445L212.323 152.28L346.28 142.291L268.353 189.445Z" fill="#86DAD7"/>
<path d="M211.675 152.135L268.34 189.643L268.451 189.589L347.106 142.02L211.675 152.135ZM268.354 189.17L212.893 152.437L345.421 142.607L268.354 189.17Z" fill="white"/>
<path d="M212.498 152.413L277.6 121.991L346.28 142.291L212.498 152.413Z" fill="#96DBD9"/>
<path d="M211.363 152.727L347.4 142.45L277.579 121.837L277.502 121.848L211.363 152.727ZM345.127 142.176L213.598 152.143L277.632 122.222L345.127 142.176Z" fill="white"/>
<path d="M212.323 152.28L199.764 132.672L277.601 121.991L212.323 152.28Z" fill="#5FC6C2"/>
<path d="M212.2 152.533L278.922 121.612L199.468 132.517L212.2 152.533ZM276.246 122.415L212.368 152.038L200.136 132.817L276.246 122.415Z" fill="#76CBC8"/>
<path d="M168.577 144.809L199.763 132.672L212.322 152.28L168.577 144.809Z" fill="#4ABAB6"/>
<path d="M167.841 144.872L212.716 152.579L199.886 132.42L167.841 144.872ZM211.852 151.992L169.348 144.702L199.718 132.914L211.852 151.992Z" fill="white"/>
<path d="M267.783 189.014L133.782 240.14L261.053 323.31L267.783 189.014Z" fill="#76CBC8"/>
<path d="M133.343 240.083L133.683 240.272L261.26 323.673L261.252 323.321L267.973 188.674L267.675 188.793L133.343 240.083ZM260.891 322.979L134.255 240.153L267.584 189.277L260.891 322.979Z" fill="white"/>
<path d="M133.782 240.14L125.316 396.538L261.053 323.31L133.782 240.14Z" fill="#5FC6C2"/>
<path d="M125.051 396.888L125.382 396.725L261.493 323.366L133.576 239.776L133.585 240.128L125.051 396.888ZM260.658 323.286L125.496 396.12L133.945 240.471L260.658 323.286Z" fill="white"/>
<path d="M260.953 323.441L238.784 458.741L367.325 412.454L260.953 323.441Z" fill="#96DBD9"/>
<path d="M238.552 459.048L238.85 458.928L367.764 412.511L367.458 412.278L260.824 323.067L260.756 323.429L238.552 459.048ZM366.963 412.386L239.061 458.467L261.094 323.893L366.963 412.386Z" fill="white"/>
<path d="M367.325 412.454L238.785 458.741L303.571 513.804L367.325 412.454Z" fill="#A9E8E5"/>
<path d="M303.613 514.113L303.746 513.937L367.856 412.027L367.294 412.223L238.423 458.673L238.685 458.873L303.613 514.113ZM366.828 412.837L303.529 513.496L239.224 458.798L366.828 412.837Z" fill="white"/>
<path d="M303.571 513.805L238.785 458.741L169.535 499.903L303.571 513.805Z" fill="#76CBC8"/>
<path d="M168.886 500.032L304.239 514.104L303.748 513.662L238.864 458.455L238.753 458.51L168.886 500.032ZM302.946 513.538L170.218 499.73L238.816 458.972L302.946 513.538Z" fill="white"/>
<path d="M232.233 522.367L303.571 513.805L169.535 499.903L232.233 522.367Z" fill="#5FC6C2"/>
<path d="M167.834 499.511L232.22 522.565L305.374 513.79L167.834 499.511ZM232.245 522.169L171.193 500.262L301.691 513.83L232.245 522.169Z" fill="white"/>
<path d="M340.96 504.575L418.346 451.138L303.572 513.805L340.96 504.575Z" fill="#96DBD9"/>
<path d="M302.083 514.403L341.101 504.752L418.519 451.271L418.313 450.907L302.083 514.403ZM340.894 504.388L305.103 513.239L415.012 453.171L340.894 504.388Z" fill="white"/>
<path d="M139.766 483.271L169.536 499.903L78.4511 418.267L139.766 483.271Z" fill="#229B97"/>
<path d="M139.633 483.447L171.056 500.987L78.5945 418.169L78.318 418.443L139.633 483.447ZM168.015 498.819L139.909 483.173L81.9794 421.703L168.015 498.819Z" fill="white"/>
<path d="M238.784 458.741L125.316 396.538L169.535 499.903L238.784 458.741Z" fill="#5FC6C2"/>
<path d="M169.457 500.189L239.214 458.721L238.874 458.532L124.815 396.019L125.042 396.536L169.457 500.189ZM238.356 458.761L169.614 499.617L125.699 397.034L238.356 458.761Z" fill="white"/>
<path d="M125.317 396.538L78.4509 418.267L169.535 499.903L125.317 396.538Z" fill="#2FAAA6"/>
<path d="M170.069 500.653L169.679 499.804L125.319 396.263L125.131 396.328L78.0115 418.211L78.274 418.41L170.069 500.653ZM125.161 396.834L168.958 499.12L78.8131 418.335L125.161 396.834Z" fill="white"/>
<path d="M62.2112 314.082L78.4495 418.268L125.15 396.757L62.2112 314.082Z" fill="#38ABA7"/>
<path d="M78.2616 418.608L78.4821 418.499L125.436 396.835L125.25 396.625L61.7992 313.354L61.9479 314.157L78.2616 418.608ZM124.822 396.646L78.6064 417.971L62.515 314.864L124.822 396.646Z" fill="white"/>
<path d="M418.343 451.138L367.324 412.454L303.57 513.805L418.343 451.138Z" fill="#AEE9E7"/>
<path d="M302.985 514.396L418.74 451.162L367.283 412.146L367.15 412.321L302.985 514.396ZM417.982 451.071L304.157 513.213L367.4 412.718L417.982 451.071Z" fill="white"/>
<path d="M452.132 346.684L445.026 229.183L385.422 259.077L452.132 346.684Z" fill="#CAF8F7"/>
<path d="M452.381 347.356L452.33 346.696L445.181 228.886L444.884 229.006L385.104 259.042L452.381 347.356ZM444.836 229.523L451.884 346.012L385.751 259.188L444.836 229.523Z" fill="white"/>
<path d="M418.344 451.138L452.132 346.684L367.325 412.454L418.344 451.138Z" fill="#CAF8F7"/>
<path d="M367.007 412.42L418.463 451.436L418.542 451.15L452.521 346.081L367.007 412.42ZM418.258 450.797L367.677 412.444L451.7 347.254L418.258 450.797Z" fill="white"/>
<path d="M418.344 451.138L454.202 368.493L452.132 346.684L418.344 451.138Z" fill="#F7F7F8"/>
<path d="M418.18 451.083L418.553 451.227L454.41 368.582L454.4 368.505L452.227 345.651L418.18 451.083ZM454.004 368.481L419.876 447.119L451.994 347.685L454.004 368.481Z" fill="white"/>
<path d="M452.132 346.684L454.202 368.493L459.282 344.162L445.026 229.183L452.132 346.684Z" fill="#F7F7F8"/>
<path d="M454.116 369.879L459.47 344.096L445.213 229.117L444.784 229.138L451.935 346.672L454.116 369.879ZM459.085 344.15L454.255 367.152L452.286 346.663L445.522 235.707L459.085 344.15Z" fill="white"/>
<path d="M452.132 346.684L385.422 259.077L367.325 412.454L452.132 346.684Z" fill="#AEE9E7"/>
<path d="M367.114 412.915L367.5 412.587L452.451 346.719L452.309 346.542L385.272 258.548L385.225 259.065L367.114 412.915ZM451.847 346.606L367.614 411.982L385.573 259.605L451.847 346.606Z" fill="white"/>
<path d="M260.954 323.441L125.317 396.538L238.785 458.741L260.954 323.441Z" fill="#76CBC8"/>
<path d="M124.845 396.525L125.184 396.713L238.948 459.072L239.026 458.786L261.253 323.047L260.889 323.254L124.845 396.525ZM238.666 458.443L125.713 396.561L260.655 323.836L238.666 458.443Z" fill="white"/>
<path d="M133.483 240.535L62.2128 314.082L125.317 396.538L133.483 240.535Z" fill="#4ABAB6"/>
<path d="M125.435 397.11L125.438 396.56L133.685 239.997L133.308 240.402L61.938 314.081L62.036 314.224L125.435 397.11ZM133.238 241.04L125.123 395.976L62.4981 314.16L133.238 241.04Z" fill="white"/>
<path d="M133.784 240.14L91.0788 207.759L62.2142 314.082L133.784 240.14Z" fill="#38ABA7"/>
<path d="M61.8014 314.806L134.091 240.098L90.9479 207.385L90.8691 207.671L61.8014 314.806ZM133.508 240.139L62.6679 313.391L91.2402 208.09L133.508 240.139Z" fill="white"/>
<path d="M267.783 189.014L212.322 152.28L133.482 240.535L267.783 189.014Z" fill="#5FC6C2"/>
<path d="M132.766 241.027L133.548 240.722L268.223 189.071L212.247 152.016L212.148 152.147L132.766 241.027ZM267.345 188.957L134.201 240.043L212.321 152.555L267.345 188.957Z" fill="white"/>
<path d="M133.782 240.14L91.0767 207.759L212.322 152.28L133.782 240.14Z" fill="#4ABAB6"/>
<path d="M90.7145 207.692L133.857 240.404L213.106 151.7L90.7145 207.692ZM133.74 239.832L91.4723 207.783L211.461 152.871L133.74 239.832Z" fill="white"/>
<path d="M91.0757 207.76L168.577 144.809L212.321 152.28L91.0757 207.76Z" fill="#38ABA7"/>
<path d="M89.6978 208.579L91.175 207.903L212.982 152.228L168.513 144.621L168.447 144.709L89.6978 208.579ZM211.586 152.343L92.4458 206.863L168.643 144.996L211.586 152.343Z" fill="white"/>
<path d="M240.088 169.465L15.7458 155.062L15.7266 154.633L239.871 169.024L189.903 67.5159L190.091 67.4506L190.103 67.2527L342.137 59.7793L342.125 59.9773L342.269 59.8789L445.126 229.051L522.381 307.385L522.204 307.527L522.38 307.66L408.323 433.454L429.463 553.169L429.232 553.201L429.297 553.389L250.994 606.775L250.93 606.588L250.753 606.73L4.91562 316.85L5.09241 316.708L4.89461 316.696L17.7393 156.159L17.9371 156.17L18.1244 156.105L100.218 314.853L309.805 311.091L240.088 169.465ZM310.278 311.104L386.054 309.775L362.665 177.303L240.561 169.478L310.278 311.104ZM310.451 311.512L383.619 460.038L407.873 433.321L386.107 310.16L310.451 311.512ZM363.008 176.941L444.392 228.564L342.547 61.0569L363.008 176.941ZM341.959 60.1966L190.738 67.5963L362.527 176.576L341.959 60.1966ZM363.115 177.437L386.483 309.755L521.788 307.35L444.849 229.325L445.026 229.183L444.916 229.237L444.849 229.325L363.115 177.437ZM362.173 176.861L190.637 68.0028L240.388 169.07L362.173 176.861ZM521.763 307.746L386.502 310.184L408.216 432.959L521.763 307.746ZM383.792 460.445L428.812 551.847L407.98 433.816L383.792 460.445ZM383.526 460.796L251.624 606.217L428.947 553.123L383.526 460.796ZM249.906 605.121L99.9626 315.281L5.51945 316.962L249.906 605.121ZM18.0859 156.974L5.34618 316.555L99.7456 314.84L18.0859 156.974ZM100.468 315.25L251.042 606.259L383.353 460.388L310.055 311.488L100.468 315.25Z" fill="white"/>
<path d="M188.428 66.1899C187.53 67.3742 187.794 69.0252 188.932 69.8878C190.114 70.7835 191.764 70.5153 192.629 69.3749C193.527 68.1907 193.262 66.5397 192.125 65.6771C190.987 64.8145 189.326 65.0057 188.428 66.1899Z" fill="white"/>
<path d="M340.025 58.3848C339.127 59.569 339.391 61.22 340.529 62.0826C341.71 62.9784 343.361 62.7102 344.225 61.5698C345.09 60.4294 344.859 58.7346 343.722 57.872C342.584 57.0094 340.89 57.2444 340.025 58.3848Z" fill="white"/>
<path d="M520.685 309.622C519.525 308.742 519.3 307.087 520.181 305.924C521.063 304.761 522.718 304.532 523.878 305.411C525.038 306.291 525.263 307.946 524.382 309.109C523.5 310.272 521.845 310.501 520.685 309.622Z" fill="white"/>
<path d="M427.176 551.642C426.278 552.826 426.542 554.477 427.68 555.34C428.861 556.236 430.512 555.967 431.376 554.827C432.274 553.643 432.01 551.992 430.872 551.129C429.691 550.233 428.04 550.502 427.176 551.642Z" fill="white"/>
<path d="M248.829 604.996C247.931 606.18 248.195 607.831 249.333 608.693C250.514 609.589 252.165 609.321 253.03 608.181C253.928 606.996 253.663 605.346 252.526 604.483C251.388 603.62 249.694 603.855 248.829 604.996Z" fill="white"/>
<path d="M3.03608 315.148C2.13814 316.333 2.40237 317.984 3.54003 318.846C4.72144 319.742 6.37197 319.474 7.23665 318.333C8.13459 317.149 7.87038 315.498 6.73272 314.635C5.5513 313.74 3.90076 314.008 3.03608 315.148Z" fill="white"/>
<path d="M15.8032 154.622C14.9053 155.806 15.1695 157.457 16.3072 158.32C17.4448 159.182 19.1391 158.947 20.0038 157.807C20.9017 156.622 20.6375 154.971 19.4999 154.109C18.3622 153.246 16.7012 153.437 15.8032 154.622Z" fill="white"/>
</g>
<defs>
<clipPath id="clip0">
<rect width="573" height="496" fill="white" transform="matrix(-0.79684 -0.604191 -0.604191 0.79684 638.634 281.484)"/>
</clipPath>
</defs>
</svg>
