<svg width="401" height="426" viewBox="0 0 401 426" fill="none" xmlns="http://www.w3.org/2000/svg">
<path d="M288.213 167.874L278.243 277.919L200.482 215.79L288.213 167.874Z" fill="#A9E8E5"/>
<path d="M278.376 278.209L288.374 167.652L288.14 167.774L200.232 215.803L200.423 215.942L278.376 278.209ZM288.062 168.154L278.135 277.599L200.766 215.802L288.062 168.154Z" fill="white"/>
<path d="M201.583 214.998L203.79 118.748L289.272 167.063L201.583 214.998Z" fill="#96DBD9"/>
<path d="M201.431 215.275L201.664 215.152L289.586 167.095L289.339 166.966L203.634 118.489L203.647 118.741L201.431 215.275ZM288.964 167.082L201.743 214.773L203.912 118.981L288.964 167.082Z" fill="white"/>
<path d="M205.379 119.792L260.32 84.9424L290.413 168.317L205.379 119.792Z" fill="#A9E8E5"/>
<path d="M205.096 119.783L205.31 119.889L290.693 168.67L290.576 168.292L260.424 84.728L260.269 84.81L205.096 119.783ZM290.14 168.023L205.66 119.804L260.246 85.1824L290.14 168.023Z" fill="white"/>
<path d="M290.197 168.779L260.165 85.2498L331.943 146.286L290.197 168.779Z" fill="#AEE9E7"/>
<path d="M290.126 169.016L290.28 168.934L332.203 146.326L332.013 146.187L259.814 84.7935L290.126 169.016ZM331.664 146.273L290.281 168.593L260.497 85.7325L331.664 146.273Z" fill="white"/>
<path d="M261.156 85.4311L287.943 98.6652L332.145 147.216L261.156 85.4311Z" fill="#F7F7F8"/>
<path d="M332.026 147.319L332.215 147.114L288.011 98.5661L287.98 98.5426L260.139 84.7676L332.026 147.319ZM287.853 98.7943L330.29 145.425L262.088 86.079L287.853 98.7943Z" fill="white"/>
<path d="M206.586 119.183L165.826 93.4407L261.359 84.1829L206.586 119.183Z" fill="#86DAD7"/>
<path d="M165.364 93.3485L206.584 119.327L206.662 119.287L261.948 83.9775L165.364 93.3485ZM206.585 118.988L166.24 93.5457L260.755 84.4245L206.585 118.988Z" fill="white"/>
<path d="M165.951 93.534L211.885 70.7212L261.359 84.1842L165.951 93.534Z" fill="#96DBD9"/>
<path d="M165.142 93.7765L262.158 84.2797L211.862 70.6107L211.807 70.6195L165.142 93.7765ZM260.528 84.1197L166.728 93.3225L211.907 70.8857L260.528 84.1197Z" fill="white"/>
<path d="M166.153 92.7716L156.764 78.9629L212.379 70.1174L166.153 92.7716Z" fill="#5FC6C2"/>
<path d="M166.071 92.9606L213.321 69.8326L156.55 78.8635L166.071 92.9606ZM211.418 70.448L166.182 92.605L157.035 79.0671L211.418 70.448Z" fill="#76CBC8"/>
<path d="M134.628 87.4258L156.62 78.2202L165.951 92.0999L134.628 87.4258Z" fill="#4ABAB6"/>
<path d="M134.104 87.4812L166.237 92.3065L156.703 78.0355L134.104 87.4812ZM165.609 91.899L135.175 87.3354L156.592 78.3931L165.609 91.899Z" fill="white"/>
<path d="M204.459 117.8L109.813 156.571L202.255 214.21L204.459 117.8Z" fill="#76CBC8"/>
<path d="M109.501 156.539L109.747 156.668L202.412 214.469L202.399 214.217L204.59 117.555L204.38 117.645L109.501 156.539ZM202.135 213.977L110.153 156.574L204.324 117.993L202.135 213.977Z" fill="white"/>
<path d="M107.957 155.156L104.938 267.259L200.578 212.704L107.957 155.156Z" fill="#5FC6C2"/>
<path d="M104.754 267.514L104.988 267.391L200.892 212.737L107.801 154.897L107.814 155.149L104.754 267.514ZM200.294 212.693L105.057 266.957L108.079 155.389L200.294 212.693Z" fill="white"/>
<path d="M198.734 214.439L185.517 311.715L276.464 276.537L198.734 214.439Z" fill="#96DBD9"/>
<path d="M185.356 311.938L185.566 311.847L276.778 276.57L276.555 276.409L198.634 214.172L198.592 214.433L185.356 311.938ZM276.203 276.494L185.708 311.514L198.842 214.759L276.203 276.494Z" fill="white"/>
<path d="M276.193 276.97L184.641 311.967L232.314 350.198L276.193 276.97Z" fill="#A9E8E5"/>
<path d="M232.354 350.418L232.446 350.29L276.571 276.66L276.17 276.808L184.383 311.926L184.575 312.063L232.354 350.418ZM275.847 277.253L232.282 349.98L184.962 312.002L275.847 277.253Z" fill="white"/>
<path d="M230.977 349.209L183.805 310.651L135.311 341.339L230.977 349.209Z" fill="#76CBC8"/>
<path d="M134.848 341.442L231.455 349.414L231.097 349.104L183.853 310.444L183.775 310.485L134.848 341.442ZM230.524 349.028L135.79 341.203L183.829 310.816L230.524 349.028Z" fill="white"/>
<path d="M180.332 356.471L230.9 349.178L135.312 341.304L180.332 356.471Z" fill="#5FC6C2"/>
<path d="M134.098 341.051L180.331 356.615L232.186 349.14L134.098 341.051ZM180.341 356.33L136.501 341.538L229.567 349.228L180.341 356.33Z" fill="white"/>
<path d="M257.785 343.85L312.754 304.719L230.902 350.987L257.785 343.85Z" fill="#96DBD9"/>
<path d="M229.839 351.427L257.89 343.965L312.878 304.8L312.722 304.545L229.839 351.427ZM257.734 343.71L232.002 350.553L310.377 306.203L257.734 343.71Z" fill="white"/>
<path d="M114.309 328.522L135.526 340.168L70.0393 282.065L114.309 328.522Z" fill="#229B97"/>
<path d="M114.216 328.654L136.612 340.935L70.1335 281.994L69.9444 282.199L114.216 328.654ZM134.435 339.403L114.405 328.449L72.5765 284.519L134.435 339.403Z" fill="white"/>
<path d="M184.697 309.818L102.846 266.851L136.264 340.547L184.697 309.818Z" fill="#5FC6C2"/>
<path d="M136.216 340.752L185.003 309.795L184.758 309.665L102.481 266.483L102.653 266.852L136.216 340.752ZM184.395 309.838L136.317 340.339L103.129 267.2L184.395 309.838Z" fill="white"/>
<path d="M102.982 266.385L70.1755 282.823L136.303 340.284L102.982 266.385Z" fill="#2FAAA6"/>
<path d="M136.693 340.819L136.4 340.213L102.976 266.187L102.845 266.237L69.8612 282.79L70.0511 282.929L136.693 340.819ZM102.875 266.602L135.876 339.73L70.4318 282.867L102.875 266.602Z" fill="white"/>
<path d="M57.6304 207.764L71.2182 282.3L104.092 266.122L57.6304 207.764Z" fill="#38ABA7"/>
<path d="M71.0935 282.545L71.2485 282.463L104.3 266.171L104.163 266.023L57.3253 207.245L57.4469 207.819L71.0935 282.545ZM103.858 266.044L71.327 282.082L57.8647 208.317L103.858 266.044Z" fill="white"/>
<path d="M312.752 304.612L275.155 277.919L231.098 350.947L312.752 304.612Z" fill="#AEE9E7"/>
<path d="M230.682 351.375L313.034 304.622L275.114 277.699L275.021 277.826L230.682 351.375ZM312.485 304.569L231.505 350.516L275.21 278.104L312.485 304.569Z" fill="white"/>
<path d="M338.173 231.015L330.822 146.912L288.835 169.274L338.173 231.015Z" fill="#CAF8F7"/>
<path d="M338.361 231.494L338.312 231.021L330.925 146.698L330.715 146.789L288.605 169.255L338.361 231.494ZM330.691 147.16L337.98 230.538L289.07 169.35L330.691 147.16Z" fill="white"/>
<path d="M313.892 305.507L336.203 230.642L276.367 278.774L313.892 305.507Z" fill="#CAF8F7"/>
<path d="M276.14 278.757L313.987 305.719L314.038 305.515L336.474 230.209L276.14 278.757ZM313.827 305.268L276.623 278.765L335.906 231.057L313.827 305.268Z" fill="white"/>
<path d="M313.554 305.507L337.976 246.423L336.046 231.014L313.554 305.507Z" fill="#F7F7F8"/>
<path d="M313.441 305.473L313.715 305.569L338.133 246.481L338.124 246.426L336.1 230.277L313.441 305.473ZM337.836 246.416L314.595 302.639L335.97 231.721L337.836 246.416Z" fill="white"/>
<path d="M337.79 231.025L339.699 246.568L342.869 229.111L330.405 147.218L337.79 231.025Z" fill="#F7F7F8"/>
<path d="M339.654 247.556L342.992 229.059L330.528 147.167L330.22 147.188L337.637 231.017L339.654 247.556ZM342.717 229.103L339.7 245.606L337.889 231.004L330.878 151.869L342.717 229.103Z" fill="white"/>
<path d="M337.217 230.005L287.604 168.537L277.597 278.259L337.217 230.005Z" fill="#AEE9E7"/>
<path d="M277.455 278.59L277.726 278.35L337.447 230.023L337.342 229.899L287.487 168.16L287.463 168.529L277.455 278.59ZM337.011 229.952L277.796 277.917L287.723 168.909L337.011 229.952Z" fill="white"/>
<path d="M199.571 213.697L103.777 268.052L186.314 310.728L199.571 213.697Z" fill="#76CBC8"/>
<path d="M103.44 268.052L103.687 268.181L186.439 310.963L186.49 310.757L199.78 213.412L199.523 213.566L103.44 268.052ZM186.225 310.518L104.063 268.064L199.367 213.985L186.225 310.518Z" fill="white"/>
<path d="M108.2 155.161L58.4326 208.736L105.375 266.568L108.2 155.161Z" fill="#4ABAB6"/>
<path d="M105.469 266.976L105.461 266.584L108.334 154.776L108.071 155.071L58.2341 208.742L58.3073 208.843L105.469 266.976ZM108.033 155.527L105.224 266.172L58.638 208.79L108.033 155.527Z" fill="white"/>
<path d="M109.816 154.277L78.3354 131.939L59.5637 207.937L109.816 154.277Z" fill="#38ABA7"/>
<path d="M59.2769 208.455L110.034 154.239L78.2307 131.672L78.1794 131.876L59.2769 208.455ZM109.613 154.278L59.8751 207.436L78.4556 132.168L109.613 154.278Z" fill="white"/>
<path d="M205.377 117.558L164.692 92.2818L109.6 156.326L205.377 117.558Z" fill="#5FC6C2"/>
<path d="M109.089 156.685L109.647 156.456L205.691 117.59L164.629 92.0933L164.559 92.1885L109.089 156.685ZM205.056 117.523L110.104 155.962L164.692 92.4759L205.056 117.523Z" fill="white"/>
<path d="M110.828 155.164L79.3579 132.82L165.825 91.492L110.828 155.164Z" fill="#4ABAB6"/>
<path d="M79.0999 132.781L110.893 155.354L166.385 91.0707L79.0999 132.781ZM110.797 154.949L79.6489 132.834L165.22 91.9281L110.797 154.949Z" fill="white"/>
<path d="M79.3569 132.82L134.09 86.8674L165.824 91.4921L79.3569 132.82Z" fill="#38ABA7"/>
<path d="M78.3744 133.42L79.4279 132.916L166.296 91.4399L134.037 86.7305L133.99 86.7939L78.3744 133.42ZM165.29 91.5437L80.3252 132.158L134.137 86.9947L165.29 91.5437Z" fill="white"/>
</svg>
