<svg width="751" height="662" viewBox="0 0 751 662" fill="none" xmlns="http://www.w3.org/2000/svg">
<path d="M287.829 180.36L183.224 358.073L368.429 348.964L287.829 180.36Z" fill="#A9E8E5"/>
<path d="M182.709 358.366L287.828 179.844L288.048 180.285L368.796 349.256H368.355L182.709 358.366ZM287.755 180.946L183.737 357.705L367.988 348.669L287.755 180.946Z" fill="white"/>
<path d="M368.429 348.963L469.731 200.709L287.829 180.359L368.429 348.963Z" fill="#96DBD9"/>
<path d="M368.355 349.55L368.135 349.109L287.314 180.065L287.828 180.138L470.244 200.488L469.95 200.855L368.355 349.55ZM288.268 180.726L368.429 348.448L469.289 200.929L288.268 180.726Z" fill="white"/>
<path d="M469.73 200.708L423.851 87.7181L287.828 180.358L469.73 200.708Z" fill="#A9E8E5"/>
<path d="M470.171 201.002L469.73 200.929L287.021 180.579L287.608 180.138L423.924 87.2773L424.071 87.5712L470.171 201.002ZM288.562 180.212L469.29 200.415L423.704 88.1589L288.562 180.212Z" fill="white"/>
<path d="M287.829 180.359L423.852 87.7188L248.483 100.502L287.829 180.359Z" fill="#AEE9E7"/>
<path d="M287.681 180.799L287.534 180.505L248.042 100.281H248.482L424.878 87.4243L287.681 180.799ZM248.922 100.795L287.901 179.991L422.823 88.0855L248.922 100.795Z" fill="white"/>
<path d="M423.851 87.7179L368.429 77.5797L248.482 100.501L423.851 87.7179Z" fill="#F7F7F8"/>
<path d="M248.555 100.795L248.482 100.281L368.429 77.3595H368.502L426.126 87.8651L248.555 100.795ZM368.429 77.8737L253.253 99.9134L421.722 87.6447L368.429 77.8737Z" fill="white"/>
<path d="M468.776 200.708L558.479 206.365L423.851 87.7181L468.776 200.708Z" fill="#86DAD7"/>
<path d="M559.286 206.733L468.629 200.929L468.555 200.782L423.19 86.7631L559.286 206.733ZM468.996 200.415L557.745 206.071L424.511 88.7467L468.996 200.415Z" fill="white"/>
<path d="M558.185 206.365L513.407 121.512L423.851 87.7181L558.185 206.365Z" fill="#96DBD9"/>
<path d="M559.139 207.614L422.529 86.9835L513.554 121.365L513.627 121.439L559.139 207.614ZM425.172 88.5262L557.231 205.19L513.187 121.733L425.172 88.5262Z" fill="white"/>
<path d="M558.479 206.365L587.695 195.639L513.407 121.512L558.479 206.365Z" fill="#5FC6C2"/>
<path d="M558.406 206.733L512.306 120.043L588.135 195.713L558.406 206.733ZM514.508 123.055L558.626 206.071L587.181 195.492L514.508 123.055Z" fill="#76CBC8"/>
<path d="M611.112 233.695L587.695 195.64L558.479 206.366L611.112 233.695Z" fill="#4ABAB6"/>
<path d="M611.845 234.356L557.818 206.365L587.768 195.272L611.845 234.356ZM559.213 206.439L610.377 232.96L587.548 195.933L559.213 206.439Z" fill="white"/>
<path d="M469.731 200.71L571.179 363.142L368.43 348.963L469.731 200.71Z" fill="#76CBC8"/>
<path d="M571.692 363.435L571.178 363.362L367.915 349.183L368.209 348.815L469.804 200.194L470.024 200.562L571.692 363.435ZM368.869 348.742L570.665 362.774L469.73 201.149L368.869 348.742Z" fill="white"/>
<path d="M571.179 363.142L453.875 536.301L368.43 348.963L571.179 363.142Z" fill="#5FC6C2"/>
<path d="M453.874 536.888L453.654 536.447L367.915 348.669L571.692 362.921L571.399 363.288L453.874 536.888ZM368.869 349.256L454.021 535.712L570.738 363.362L368.869 349.256Z" fill="white"/>
<path d="M368.429 349.183L282.764 510.955L183.224 358.073L368.429 349.183Z" fill="#96DBD9"/>
<path d="M282.763 511.469L282.543 511.101L182.709 357.778H183.223L368.869 348.889L368.649 349.33L282.763 511.469ZM183.664 358.293L282.69 510.44L367.915 349.55L183.664 358.293Z" fill="white"/>
<path d="M183.224 358.072L282.763 510.954L169.276 517.273L183.224 358.072Z" fill="#A9E8E5"/>
<path d="M168.982 517.566V517.273L183.003 357.191L183.444 357.852L283.203 511.175H282.763L168.982 517.566ZM183.444 358.88L169.57 516.979L282.249 510.661L183.444 358.88Z" fill="white"/>
<path d="M169.276 517.273L282.763 510.954L323.284 610.574L169.276 517.273Z" fill="#76CBC8"/>
<path d="M323.871 611.235L168.322 517.052L169.203 516.979L282.91 510.587L282.983 510.734L323.871 611.235ZM170.157 517.493L322.696 609.839L282.543 511.175L170.157 517.493Z" fill="white"/>
<path d="M238.351 583.906L169.275 517.273L323.283 610.574L238.351 583.906Z" fill="#5FC6C2"/>
<path d="M325.412 611.529L238.205 584.126L167.367 515.803L325.412 611.529ZM238.498 583.686L321.228 609.619L171.258 518.815L238.498 583.686Z" fill="white"/>
<path d="M136.903 477.307L97.6309 358.072L169.276 517.272L136.903 477.307Z" fill="#96DBD9"/>
<path d="M170.377 519.109L136.61 477.381L97.3374 358.072L97.8512 357.852L170.377 519.109ZM137.124 477.16L168.102 515.436L99.5396 362.921L137.124 477.16Z" fill="white"/>
<path d="M368.428 616.892L323.283 610.574L486.246 597.203L368.428 616.892Z" fill="#229B97"/>
<path d="M368.429 617.186L320.788 610.501L486.173 596.983L486.247 597.497L368.429 617.186ZM325.779 610.648L368.355 616.672L479.713 598.011L325.779 610.648Z" fill="white"/>
<path d="M282.764 510.955L453.875 536.301L323.284 610.575L282.764 510.955Z" fill="#5FC6C2"/>
<path d="M323.136 610.941L282.322 510.587L282.836 510.66L454.828 536.153L454.168 536.52L323.136 610.941ZM283.203 511.322L323.43 610.207L453.066 536.52L283.203 511.322Z" fill="white"/>
<path d="M453.874 536.3L486.246 597.203L323.283 610.574L453.874 536.3Z" fill="#2FAAA6"/>
<path d="M322.109 610.941L323.21 610.354L454.094 536.006L454.241 536.227L486.76 597.497H486.32L322.109 610.941ZM453.801 536.741L324.531 610.207L485.806 596.983L453.801 536.741Z" fill="white"/>
<path d="M587.695 499.495L486.247 597.204L453.875 536.668L587.695 499.495Z" fill="#38ABA7"/>
<path d="M486.173 597.717L486.026 597.424L453.507 536.521L453.874 536.447L588.722 499.053L587.915 499.788L486.173 597.717ZM454.314 536.814L486.32 596.762L586.74 500.082L454.314 536.814Z" fill="white"/>
<path d="M97.6318 358.073H183.224L169.277 517.273L97.6318 358.073Z" fill="#AEE9E7"/>
<path d="M169.423 518.375L97.1904 357.778H183.517V358.072L169.423 518.375ZM98.0713 358.293L169.129 516.171L182.93 358.293H98.0713Z" fill="white"/>
<path d="M146.006 219.736L248.482 100.501L287.828 180.358L146.006 219.736Z" fill="#CAF8F7"/>
<path d="M145.199 220.25L145.786 219.589L248.556 100.06L248.776 100.428L288.195 180.579L145.199 220.25ZM248.409 101.015L146.814 219.222L287.388 180.212L248.409 101.015Z" fill="white"/>
<path d="M97.6309 358.072L146.006 219.736L183.223 358.072H97.6309Z" fill="#CAF8F7"/>
<path d="M183.59 358.293H97.2637L97.4105 357.925L146.079 218.781L183.59 358.293ZM97.9977 357.778H182.856L146.006 220.691L97.9977 357.778Z" fill="white"/>
<path d="M97.6313 358.072L126.187 241.262L146.006 219.736L97.6313 358.072Z" fill="#F7F7F8"/>
<path d="M97.8512 358.146L97.3374 357.999L125.893 241.188L125.966 241.115L146.74 218.561L97.8512 358.146ZM126.406 241.409L99.246 352.562L145.345 220.912L126.406 241.409Z" fill="white"/>
<path d="M146.006 219.736L126.186 241.262L140.427 211.288L248.482 100.501L146.006 219.736Z" fill="#F7F7F8"/>
<path d="M125.158 242.804L140.28 211.067L248.335 100.281L248.775 100.648L146.226 219.883L125.158 242.804ZM140.647 211.434L127.214 239.792L145.859 219.589L242.682 107.04L140.647 211.434Z" fill="white"/>
<path d="M146.006 219.737L287.828 180.359L183.224 358.073L146.006 219.737Z" fill="#AEE9E7"/>
<path d="M183.076 358.733L182.929 358.072L145.639 219.516L145.932 219.442L288.415 179.918L288.048 180.505L183.076 358.733ZM146.373 219.883L183.296 357.337L287.24 180.799L146.373 219.883Z" fill="white"/>
<path d="M368.428 349.183L453.874 536.3L282.763 510.954L368.428 349.183Z" fill="#76CBC8"/>
<path d="M454.388 536.667L453.874 536.594L282.322 511.175L282.469 510.807L368.428 348.522L368.649 349.036L454.388 536.667ZM283.13 510.734L453.434 536.006L368.428 349.844L283.13 510.734Z" fill="white"/>
<path d="M571.178 363.803L587.695 499.494L453.874 536.3L571.178 363.803Z" fill="#4ABAB6"/>
<path d="M453.287 536.814L453.727 536.227L571.398 363.068L571.472 363.802L587.988 499.714L587.768 499.788L453.287 536.814ZM571.031 364.537L454.535 535.859L587.327 499.347L571.031 364.537Z" fill="white"/>
<path d="M571.178 363.141H642.823L587.694 499.493L571.178 363.141Z" fill="#38ABA7"/>
<path d="M587.548 500.596L570.884 362.847H643.263L643.116 363.215L587.548 500.596ZM571.472 363.362L587.768 498.392L642.382 363.362H571.472Z" fill="white"/>
<path d="M469.731 200.709L558.48 206.366L571.179 363.803L469.731 200.709Z" fill="#5FC6C2"/>
<path d="M571.545 364.904L570.958 363.949L469.216 200.415L558.773 206.145V206.365L571.545 364.904ZM470.244 201.002L570.811 362.7L558.259 206.659L470.244 201.002Z" fill="white"/>
<path d="M571.178 363.141H642.823L558.479 206.365L571.178 363.141Z" fill="#4ABAB6"/>
<path d="M643.264 363.362H570.885L558.112 205.116L643.264 363.362ZM571.472 362.847H642.383L558.919 207.688L571.472 362.847Z" fill="white"/>
<path d="M642.824 363.142L611.112 233.696L558.479 206.367L642.824 363.142Z" fill="#38ABA7"/>
<path d="M643.63 365.125L642.603 363.215L557.818 205.778L611.331 233.548V233.695L643.63 365.125ZM559.213 207.027L642.089 361.084L610.891 233.842L559.213 207.027Z" fill="white"/>
<path d="M515.022 202.251L765.633 367.843L766 367.402L515.609 201.957L650.824 134.295L650.678 134.075L650.824 133.855L494.908 3.30595L494.762 3.52635L494.688 3.30595L248.482 100.281L102.916 121.292L102.989 121.586H102.696L122.589 347.346L3.37646 457.618L3.59669 457.839L3.37646 457.986L150.19 658.547L150.41 658.4L150.484 658.694L646.493 548.642L646.42 548.348L646.64 548.495L762.623 367.402L762.403 367.255L762.256 367.035L546.587 469.667L326.366 296.655L515.022 202.251ZM325.853 296.287L246.206 233.768L378.118 111.741L514.508 201.884L325.853 296.287ZM325.339 296.581L127.434 395.54L123.176 347.567L245.839 234.135L325.339 296.581ZM378.045 111.08L249.656 100.354L493.44 4.33447L378.045 111.08ZM494.762 3.89368L649.87 133.708L378.852 111.08L494.762 3.89368ZM377.531 111.521L245.766 233.401L103.577 121.733L248.555 100.795L248.482 100.501L248.555 100.648V100.795L377.531 111.521ZM378.999 111.668L649.65 134.222L515.022 201.59L378.999 111.668ZM103.283 122.174L245.399 233.842L123.103 346.905L103.283 122.174ZM126.92 395.834L5.13823 456.737L122.663 348.007L126.92 395.834ZM126.92 396.421L149.97 657.445L3.96372 457.986L126.92 396.421ZM152.686 657.666L546.513 470.328L645.759 548.275L152.686 657.666ZM761.595 367.99L646.273 547.981L547.101 470.034L761.595 367.99ZM546 469.887L150.557 657.959L127.434 396.127L325.779 296.875L546 469.887Z" fill="white"/>
<path d="M653.467 134.075C653.467 136.059 651.852 137.601 649.944 137.601C647.962 137.601 646.42 135.985 646.42 134.075C646.42 132.091 648.035 130.549 649.944 130.549C651.852 130.549 653.467 132.091 653.467 134.075Z" fill="white"/>
<path d="M498.285 3.52636C498.285 5.50993 496.67 7.05271 494.762 7.05271C492.78 7.05271 491.238 5.43647 491.238 3.52636C491.238 1.61625 492.853 0 494.762 0C496.67 0 498.285 1.61625 498.285 3.52636Z" fill="white"/>
<path d="M102.917 125.039C104.863 125.039 106.44 123.46 106.44 121.512C106.44 119.565 104.863 117.986 102.917 117.986C100.971 117.986 99.3931 119.565 99.3931 121.512C99.3931 123.46 100.971 125.039 102.917 125.039Z" fill="white"/>
<path d="M7.04705 457.839C7.04705 459.822 5.4321 461.365 3.52353 461.365C1.54154 461.365 0 459.749 0 457.839C0 455.855 1.61495 454.312 3.52353 454.312C5.50551 454.312 7.04705 455.929 7.04705 457.839Z" fill="white"/>
<path d="M153.934 658.4C153.934 660.384 152.319 661.927 150.411 661.927C148.429 661.927 146.887 660.31 146.887 658.4C146.887 656.417 148.502 654.874 150.411 654.874C152.319 654.874 153.934 656.49 153.934 658.4Z" fill="white"/>
<path d="M649.87 548.348C649.87 550.332 648.255 551.875 646.347 551.875C644.365 551.875 642.823 550.259 642.823 548.348C642.823 546.365 644.438 544.822 646.347 544.822C648.329 544.822 649.87 546.438 649.87 548.348Z" fill="white"/>
</svg>
