<svg width="715" height="529" viewBox="0 0 715 529" fill="none" xmlns="http://www.w3.org/2000/svg">
<path d="M371.707 44.7071C372.098 44.3166 372.098 43.6834 371.707 43.2929L365.343 36.9289C364.953 36.5384 364.319 36.5384 363.929 36.9289C363.538 37.3195 363.538 37.9526 363.929 38.3432L369.586 44L363.929 49.6569C363.538 50.0474 363.538 50.6805 363.929 51.0711C364.319 51.4616 364.953 51.4616 365.343 51.0711L371.707 44.7071ZM299 45H371V43H299V45Z" fill="#70F1C9"/>
<path opacity="0.5" d="M294 1H5C2.79086 1 1 2.79086 1 5V84C1 86.2091 2.79086 88 5 88H294C296.209 88 298 86.2091 298 84V5C298 2.79086 296.209 1 294 1Z" fill="white" stroke="#70F1C9" stroke-width="2"/>
<path opacity="0.5" d="M665 1H376C373.791 1 372 2.79086 372 5V84C372 86.2091 373.791 88 376 88H665C667.209 88 669 86.2091 669 84V5C669 2.79086 667.209 1 665 1Z" fill="white" stroke="#70F1C9" stroke-width="2"/>
<path opacity="0.5" d="M481 152H192C189.791 152 188 153.791 188 156V237C188 239.209 189.791 241 192 241H481C483.209 241 485 239.209 485 237V156C485 153.791 483.209 152 481 152Z" fill="white" stroke="#70F1C9" stroke-width="2"/>
<path d="M670 45H700" stroke="#70F1C9" stroke-width="2"/>
<path d="M486 195H700" stroke="#70F1C9" stroke-width="2"/>
<path d="M699 44V196" stroke="#70F1C9" stroke-width="2"/>
<path d="M63.5845 33.6069H58.2134V49H55.2471V33.6069H49.876V31.2266H63.5845V33.6069ZM68.8823 41.627V49H65.916V31.2266H72.4834C74.4691 31.2266 76.0031 31.6742 77.0854 32.5693C78.1678 33.4645 78.709 34.7422 78.709 36.4023C78.709 37.3219 78.4689 38.1154 77.9888 38.7827C77.5168 39.4419 76.825 39.9709 75.9136 40.3696C76.9146 40.687 77.6348 41.2078 78.0742 41.9321C78.5137 42.6483 78.7334 43.5312 78.7334 44.5811V46.0581C78.7334 46.5789 78.7985 47.0876 78.9287 47.584C79.0589 48.0804 79.2786 48.4588 79.5879 48.7192V49H76.5361C76.2106 48.7314 75.999 48.3083 75.9014 47.7305C75.8118 47.1527 75.7671 46.5871 75.7671 46.0337V44.6055C75.7671 43.694 75.5067 42.9697 74.9858 42.4326C74.465 41.8955 73.7489 41.627 72.8374 41.627H68.8823ZM68.8823 39.2466H72.3247C73.5129 39.2466 74.3796 39.0187 74.9248 38.563C75.4701 38.1073 75.7427 37.4115 75.7427 36.4756C75.7427 35.5804 75.4741 34.8805 74.937 34.376C74.3999 33.8633 73.582 33.6069 72.4834 33.6069H68.8823V39.2466ZM93.2109 41.0044H85.4351V46.6318H94.4561V49H82.4688V31.2266H94.3706V33.6069H85.4351V38.624H93.2109V41.0044ZM99.937 42.2617V49H96.9707V31.2266H103.917C105.878 31.2266 107.412 31.7352 108.519 32.7524C109.633 33.7616 110.191 35.0921 110.191 36.7441C110.191 38.4124 109.633 39.7511 108.519 40.7603C107.412 41.7612 105.878 42.2617 103.917 42.2617H99.937ZM99.937 39.8813H103.917C105.015 39.8813 105.841 39.5884 106.395 39.0024C106.948 38.4165 107.225 37.6719 107.225 36.7686C107.225 35.8652 106.948 35.1125 106.395 34.5103C105.841 33.908 105.015 33.6069 103.917 33.6069H99.937V39.8813ZM120.164 50.5259H117.442L124.437 31.2266H127.159L120.164 50.5259ZM138.804 41.627V49H135.838V31.2266H142.405C144.391 31.2266 145.925 31.6742 147.007 32.5693C148.09 33.4645 148.631 34.7422 148.631 36.4023C148.631 37.3219 148.391 38.1154 147.911 38.7827C147.439 39.4419 146.747 39.9709 145.835 40.3696C146.836 40.687 147.557 41.2078 147.996 41.9321C148.436 42.6483 148.655 43.5312 148.655 44.5811V46.0581C148.655 46.5789 148.72 47.0876 148.851 47.584C148.981 48.0804 149.201 48.4588 149.51 48.7192V49H146.458C146.132 48.7314 145.921 48.3083 145.823 47.7305C145.734 47.1527 145.689 46.5871 145.689 46.0337V44.6055C145.689 43.694 145.429 42.9697 144.908 42.4326C144.387 41.8955 143.671 41.627 142.759 41.627H138.804ZM138.804 39.2466H142.247C143.435 39.2466 144.301 39.0187 144.847 38.563C145.392 38.1073 145.665 37.4115 145.665 36.4756C145.665 35.5804 145.396 34.8805 144.859 34.376C144.322 33.8633 143.504 33.6069 142.405 33.6069H138.804V39.2466ZM156.236 31.2266L161.351 44.8984H161.424L166.551 31.2266H170.396V49H167.43V42.9453L167.723 35.2427L167.649 35.2305L162.376 49H160.386L155.137 35.2671L155.064 35.2793L155.357 42.9453V49H152.391V31.2266H156.236ZM174.29 49V31.2266H180.052C182.306 31.2266 184.137 31.9305 185.545 33.3384C186.961 34.7463 187.669 36.557 187.669 38.7705V41.4683C187.669 43.6899 186.961 45.5007 185.545 46.9004C184.137 48.3001 182.306 49 180.052 49H174.29ZM177.256 33.6069V46.6318H179.966C181.439 46.6318 182.595 46.1517 183.433 45.1914C184.279 44.2311 184.703 42.9901 184.703 41.4683V38.7461C184.703 37.2406 184.279 36.0076 183.433 35.0474C182.595 34.0871 181.439 33.6069 179.966 33.6069H177.256ZM200.352 44.4346C200.352 43.694 200.075 43.0877 199.522 42.6157C198.977 42.1437 198.008 41.7205 196.617 41.3462C194.631 40.8254 193.101 40.1377 192.027 39.2832C190.961 38.4206 190.428 37.2935 190.428 35.9019C190.428 34.4696 191.018 33.2896 192.198 32.3618C193.386 31.4341 194.916 30.9702 196.788 30.9702C198.741 30.9702 200.307 31.4951 201.487 32.5449C202.675 33.5947 203.249 34.8561 203.208 36.3291L203.184 36.4023H200.34C200.34 35.4909 200.031 34.7544 199.412 34.1929C198.794 33.6232 197.911 33.3384 196.763 33.3384C195.681 33.3384 194.847 33.5744 194.261 34.0464C193.683 34.5184 193.394 35.1287 193.394 35.8774C193.394 36.5529 193.707 37.1144 194.334 37.562C194.969 38.0096 196.014 38.4328 197.471 38.8315C199.384 39.3442 200.836 40.0522 201.829 40.9556C202.822 41.8589 203.318 43.0104 203.318 44.4102C203.318 45.8913 202.724 47.0713 201.536 47.9502C200.356 48.821 198.802 49.2563 196.873 49.2563C195.018 49.2563 193.39 48.7681 191.99 47.7915C190.59 46.8068 189.911 45.46 189.952 43.751L189.976 43.6777H192.833C192.833 44.7601 193.207 45.5698 193.956 46.1069C194.704 46.6359 195.677 46.9004 196.873 46.9004C197.972 46.9004 198.826 46.6807 199.437 46.2412C200.047 45.7936 200.352 45.1914 200.352 44.4346Z" fill="#00516B"/>
<path d="M426.066 31.104L426.091 31.1772C426.123 32.9757 425.537 34.4406 424.333 35.5718C423.137 36.6948 421.513 37.2563 419.462 37.2563C417.387 37.2563 415.699 36.5605 414.396 35.1689C413.103 33.7692 412.456 31.9829 412.456 29.8101V26.4287C412.456 24.264 413.094 22.4818 414.372 21.082C415.658 19.6742 417.326 18.9702 419.377 18.9702C421.477 18.9702 423.129 19.5236 424.333 20.6304C425.546 21.729 426.136 23.2101 426.103 25.0737L426.079 25.147H423.21C423.21 23.9507 422.884 23.0189 422.233 22.3516C421.59 21.6842 420.638 21.3506 419.377 21.3506C418.164 21.3506 417.2 21.8307 416.484 22.791C415.776 23.7513 415.422 24.9557 415.422 26.4043V29.8101C415.422 31.2749 415.784 32.4875 416.508 33.4478C417.241 34.408 418.225 34.8882 419.462 34.8882C420.691 34.8882 421.623 34.5586 422.258 33.8994C422.893 33.2402 423.21 32.3084 423.21 31.104H426.066ZM435.197 26.4653L433.928 26.4165C433.35 26.4165 432.866 26.5386 432.475 26.7827C432.093 27.0269 431.796 27.3727 431.584 27.8203V37H428.618V23.792H431.328L431.523 25.7085C431.857 25.033 432.284 24.5041 432.805 24.1216C433.334 23.7391 433.94 23.5479 434.624 23.5479C434.803 23.5479 434.969 23.5641 435.124 23.5967C435.279 23.6211 435.421 23.6536 435.551 23.6943L435.197 26.4653ZM436.735 30.2739C436.735 28.3127 437.272 26.7013 438.347 25.4399C439.437 24.1785 440.914 23.5479 442.778 23.5479C444.674 23.5479 446.159 24.1785 447.233 25.4399C448.316 26.6932 448.857 28.3045 448.857 30.2739V30.5303C448.857 32.516 448.316 34.1354 447.233 35.3887C446.159 36.6338 444.682 37.2563 442.802 37.2563C440.914 37.2563 439.429 36.6297 438.347 35.3765C437.272 34.1232 436.735 32.5078 436.735 30.5303V30.2739ZM439.702 30.5303C439.702 31.8161 439.954 32.8659 440.458 33.6797C440.955 34.4854 441.736 34.8882 442.802 34.8882C443.836 34.8882 444.609 34.4854 445.122 33.6797C445.642 32.8659 445.903 31.8161 445.903 30.5303V30.2739C445.903 29.0125 445.642 27.9749 445.122 27.1611C444.609 26.3392 443.828 25.9282 442.778 25.9282C441.744 25.9282 440.971 26.3392 440.458 27.1611C439.954 27.9831 439.702 29.0207 439.702 30.2739V30.5303ZM458.867 33.4111C458.867 32.9554 458.671 32.577 458.281 32.2759C457.89 31.9748 457.162 31.7103 456.096 31.4824C454.517 31.1488 453.321 30.6768 452.507 30.0664C451.701 29.4479 451.298 28.6097 451.298 27.5518C451.298 26.445 451.766 25.501 452.702 24.7197C453.638 23.9385 454.871 23.5479 456.401 23.5479C458.012 23.5479 459.29 23.9466 460.234 24.7441C461.186 25.5335 461.642 26.5142 461.601 27.686L461.577 27.7593H458.732C458.732 27.214 458.525 26.7461 458.11 26.3555C457.695 25.9648 457.125 25.7695 456.401 25.7695C455.685 25.7695 455.139 25.9323 454.765 26.2578C454.391 26.5752 454.204 26.9658 454.204 27.4297C454.204 27.8936 454.379 28.2638 454.729 28.5405C455.087 28.8091 455.807 29.0492 456.889 29.2607C458.549 29.6025 459.778 30.0868 460.576 30.7134C461.381 31.3319 461.784 32.1782 461.784 33.2524C461.784 34.4406 461.292 35.4049 460.307 36.1455C459.331 36.8861 458.041 37.2563 456.438 37.2563C454.72 37.2563 453.365 36.8169 452.373 35.938C451.38 35.0591 450.908 34.05 450.957 32.9106L450.981 32.8374H453.74C453.772 33.6024 454.049 34.1598 454.57 34.5098C455.091 34.8597 455.725 35.0347 456.474 35.0347C457.239 35.0347 457.829 34.8882 458.244 34.5952C458.659 34.3022 458.867 33.9076 458.867 33.4111ZM471.879 33.4111C471.879 32.9554 471.684 32.577 471.293 32.2759C470.903 31.9748 470.174 31.7103 469.108 31.4824C467.53 31.1488 466.333 30.6768 465.52 30.0664C464.714 29.4479 464.311 28.6097 464.311 27.5518C464.311 26.445 464.779 25.501 465.715 24.7197C466.651 23.9385 467.884 23.5479 469.414 23.5479C471.025 23.5479 472.303 23.9466 473.247 24.7441C474.199 25.5335 474.654 26.5142 474.614 27.686L474.589 27.7593H471.745C471.745 27.214 471.538 26.7461 471.123 26.3555C470.708 25.9648 470.138 25.7695 469.414 25.7695C468.697 25.7695 468.152 25.9323 467.778 26.2578C467.403 26.5752 467.216 26.9658 467.216 27.4297C467.216 27.8936 467.391 28.2638 467.741 28.5405C468.099 28.8091 468.819 29.0492 469.902 29.2607C471.562 29.6025 472.791 30.0868 473.588 30.7134C474.394 31.3319 474.797 32.1782 474.797 33.2524C474.797 34.4406 474.305 35.4049 473.32 36.1455C472.343 36.8861 471.053 37.2563 469.45 37.2563C467.733 37.2563 466.378 36.8169 465.385 35.938C464.392 35.0591 463.92 34.05 463.969 32.9106L463.994 32.8374H466.752C466.785 33.6024 467.062 34.1598 467.583 34.5098C468.103 34.8597 468.738 35.0347 469.487 35.0347C470.252 35.0347 470.842 34.8882 471.257 34.5952C471.672 34.3022 471.879 33.9076 471.879 33.4111ZM491.643 37C491.537 36.6663 491.447 36.3408 491.374 36.0234C491.309 35.7061 491.264 35.3887 491.24 35.0713C490.833 35.6898 490.296 36.2106 489.628 36.6338C488.969 37.0488 488.229 37.2563 487.407 37.2563C486.031 37.2563 484.973 36.9023 484.233 36.1943C483.5 35.4863 483.134 34.5138 483.134 33.2769C483.134 31.9992 483.639 31.0063 484.648 30.2983C485.657 29.5822 487.077 29.2241 488.908 29.2241H491.215V28.0645C491.215 27.3727 491.012 26.8315 490.605 26.4409C490.198 26.0503 489.616 25.855 488.859 25.855C488.184 25.855 487.647 26.0177 487.248 26.3433C486.849 26.6688 486.65 27.0879 486.65 27.6006H483.793L483.781 27.5273C483.724 26.4857 484.188 25.562 485.173 24.7563C486.166 23.9507 487.456 23.5479 489.042 23.5479C490.581 23.5479 491.822 23.9385 492.766 24.7197C493.71 25.501 494.182 26.624 494.182 28.0889V33.9604C494.182 34.5057 494.218 35.0306 494.292 35.5352C494.365 36.0316 494.483 36.5199 494.646 37H491.643ZM488.005 34.876C488.754 34.876 489.425 34.6888 490.019 34.3145C490.621 33.9401 491.02 33.5129 491.215 33.0327V31.0796H488.859C487.997 31.0796 487.321 31.2952 486.833 31.7266C486.345 32.1497 486.101 32.6502 486.101 33.228C486.101 33.7326 486.263 34.1354 486.589 34.4365C486.923 34.7295 487.395 34.876 488.005 34.876ZM504.716 33.4111C504.716 32.9554 504.521 32.577 504.13 32.2759C503.74 31.9748 503.011 31.7103 501.945 31.4824C500.367 31.1488 499.17 30.6768 498.356 30.0664C497.551 29.4479 497.148 28.6097 497.148 27.5518C497.148 26.445 497.616 25.501 498.552 24.7197C499.488 23.9385 500.721 23.5479 502.25 23.5479C503.862 23.5479 505.139 23.9466 506.083 24.7441C507.036 25.5335 507.491 26.5142 507.451 27.686L507.426 27.7593H504.582C504.582 27.214 504.375 26.7461 503.959 26.3555C503.544 25.9648 502.975 25.7695 502.25 25.7695C501.534 25.7695 500.989 25.9323 500.615 26.2578C500.24 26.5752 500.053 26.9658 500.053 27.4297C500.053 27.8936 500.228 28.2638 500.578 28.5405C500.936 28.8091 501.656 29.0492 502.739 29.2607C504.399 29.6025 505.628 30.0868 506.425 30.7134C507.231 31.3319 507.634 32.1782 507.634 33.2524C507.634 34.4406 507.141 35.4049 506.157 36.1455C505.18 36.8861 503.89 37.2563 502.287 37.2563C500.57 37.2563 499.215 36.8169 498.222 35.938C497.229 35.0591 496.757 34.05 496.806 32.9106L496.831 32.8374H499.589C499.622 33.6024 499.899 34.1598 500.419 34.5098C500.94 34.8597 501.575 35.0347 502.324 35.0347C503.089 35.0347 503.679 34.8882 504.094 34.5952C504.509 34.3022 504.716 33.9076 504.716 33.4111ZM517.729 33.4111C517.729 32.9554 517.534 32.577 517.143 32.2759C516.752 31.9748 516.024 31.7103 514.958 31.4824C513.379 31.1488 512.183 30.6768 511.369 30.0664C510.563 29.4479 510.161 28.6097 510.161 27.5518C510.161 26.445 510.629 25.501 511.564 24.7197C512.5 23.9385 513.733 23.5479 515.263 23.5479C516.875 23.5479 518.152 23.9466 519.096 24.7441C520.048 25.5335 520.504 26.5142 520.463 27.686L520.439 27.7593H517.595C517.595 27.214 517.387 26.7461 516.972 26.3555C516.557 25.9648 515.987 25.7695 515.263 25.7695C514.547 25.7695 514.002 25.9323 513.627 26.2578C513.253 26.5752 513.066 26.9658 513.066 27.4297C513.066 27.8936 513.241 28.2638 513.591 28.5405C513.949 28.8091 514.669 29.0492 515.751 29.2607C517.412 29.6025 518.64 30.0868 519.438 30.7134C520.244 31.3319 520.646 32.1782 520.646 33.2524C520.646 34.4406 520.154 35.4049 519.169 36.1455C518.193 36.8861 516.903 37.2563 515.3 37.2563C513.583 37.2563 512.228 36.8169 511.235 35.938C510.242 35.0591 509.77 34.05 509.819 32.9106L509.843 32.8374H512.602C512.635 33.6024 512.911 34.1598 513.432 34.5098C513.953 34.8597 514.588 35.0347 515.336 35.0347C516.101 35.0347 516.691 34.8882 517.106 34.5952C517.521 34.3022 517.729 33.9076 517.729 33.4111ZM528.984 37.2563C527.112 37.2563 525.619 36.646 524.504 35.4253C523.397 34.1965 522.844 32.6217 522.844 30.7012V30.2129C522.844 28.2923 523.393 26.7013 524.492 25.4399C525.598 24.1704 526.982 23.5397 528.642 23.5479C530.424 23.5479 531.787 24.089 532.731 25.1714C533.684 26.2456 534.16 27.6901 534.16 29.5049V31.2505H525.92L525.896 31.3115C525.944 32.3613 526.25 33.2199 526.811 33.8872C527.381 34.5545 528.166 34.8882 529.167 34.8882C529.965 34.8882 530.648 34.7905 531.218 34.5952C531.787 34.3999 532.337 34.1191 532.866 33.7529L533.818 35.6938C533.321 36.1333 532.662 36.5036 531.84 36.8047C531.018 37.1058 530.066 37.2563 528.984 37.2563ZM528.642 25.9282C527.91 25.9282 527.307 26.2212 526.835 26.8071C526.363 27.3849 526.07 28.1214 525.957 29.0166L525.981 29.0776H531.218V28.7725C531.218 27.9342 531.002 27.2507 530.571 26.7217C530.148 26.1927 529.505 25.9282 528.642 25.9282ZM540.239 20.5815V23.792H542.607V25.9893H540.239V33.2891C540.239 33.8343 540.357 34.2249 540.593 34.4609C540.829 34.6888 541.142 34.8027 541.533 34.8027C541.695 34.8027 541.854 34.7905 542.009 34.7661C542.163 34.7336 542.31 34.6929 542.448 34.644L542.766 36.8169C542.513 36.9552 542.212 37.061 541.862 37.1343C541.512 37.2157 541.15 37.2563 540.776 37.2563C539.685 37.2563 538.831 36.939 538.212 36.3042C537.594 35.6613 537.285 34.6562 537.285 33.2891V25.9893H535.271V23.792H537.285V20.5815H540.239ZM555.156 20.5815V23.792H557.524V25.9893H555.156V33.2891C555.156 33.8343 555.274 34.2249 555.51 34.4609C555.746 34.6888 556.059 34.8027 556.45 34.8027C556.612 34.8027 556.771 34.7905 556.926 34.7661C557.08 34.7336 557.227 34.6929 557.365 34.644L557.683 36.8169C557.43 36.9552 557.129 37.061 556.779 37.1343C556.429 37.2157 556.067 37.2563 555.693 37.2563C554.602 37.2563 553.748 36.939 553.129 36.3042C552.511 35.6613 552.202 34.6562 552.202 33.2891V25.9893H550.188V23.792H552.202V20.5815H555.156ZM566.74 26.4653L565.471 26.4165C564.893 26.4165 564.409 26.5386 564.018 26.7827C563.636 27.0269 563.339 27.3727 563.127 27.8203V37H560.161V23.792H562.871L563.066 25.7085C563.4 25.033 563.827 24.5041 564.348 24.1216C564.877 23.7391 565.483 23.5479 566.167 23.5479C566.346 23.5479 566.512 23.5641 566.667 23.5967C566.822 23.6211 566.964 23.6536 567.094 23.6943L566.74 26.4653ZM576.774 37C576.669 36.6663 576.579 36.3408 576.506 36.0234C576.441 35.7061 576.396 35.3887 576.372 35.0713C575.965 35.6898 575.428 36.2106 574.76 36.6338C574.101 37.0488 573.361 37.2563 572.539 37.2563C571.163 37.2563 570.105 36.9023 569.365 36.1943C568.632 35.4863 568.266 34.5138 568.266 33.2769C568.266 31.9992 568.771 31.0063 569.78 30.2983C570.789 29.5822 572.209 29.2241 574.04 29.2241H576.347V28.0645C576.347 27.3727 576.144 26.8315 575.737 26.4409C575.33 26.0503 574.748 25.855 573.991 25.855C573.316 25.855 572.779 26.0177 572.38 26.3433C571.981 26.6688 571.782 27.0879 571.782 27.6006H568.925L568.913 27.5273C568.856 26.4857 569.32 25.562 570.305 24.7563C571.298 23.9507 572.587 23.5479 574.174 23.5479C575.712 23.5479 576.953 23.9385 577.897 24.7197C578.841 25.501 579.313 26.624 579.313 28.0889V33.9604C579.313 34.5057 579.35 35.0306 579.423 35.5352C579.497 36.0316 579.615 36.5199 579.777 37H576.774ZM573.137 34.876C573.885 34.876 574.557 34.6888 575.151 34.3145C575.753 33.9401 576.152 33.5129 576.347 33.0327V31.0796H573.991C573.129 31.0796 572.453 31.2952 571.965 31.7266C571.477 32.1497 571.232 32.6502 571.232 33.228C571.232 33.7326 571.395 34.1354 571.721 34.4365C572.054 34.7295 572.526 34.876 573.137 34.876ZM581.877 30.5791C581.877 28.4714 582.329 26.7746 583.232 25.4888C584.135 24.1948 585.405 23.5479 587.041 23.5479C587.757 23.5479 588.396 23.6943 588.957 23.9873C589.527 24.2721 590.019 24.6831 590.434 25.2202V17.957H593.4V37H590.91L590.617 35.3643C590.194 35.9827 589.685 36.4548 589.091 36.7803C588.497 37.0977 587.806 37.2563 587.016 37.2563C585.397 37.2563 584.135 36.6663 583.232 35.4863C582.329 34.3063 581.877 32.756 581.877 30.8354V30.5791ZM584.843 30.8354C584.843 32.0562 585.075 33.0286 585.539 33.7529C586.011 34.4772 586.756 34.8394 587.773 34.8394C588.4 34.8394 588.929 34.7051 589.36 34.4365C589.799 34.168 590.157 33.7855 590.434 33.2891V27.5273C590.157 27.0391 589.799 26.6606 589.36 26.3921C588.92 26.1154 588.4 25.9771 587.797 25.9771C586.788 25.9771 586.044 26.4043 585.563 27.2588C585.083 28.1051 584.843 29.2119 584.843 30.5791V30.8354ZM599.748 37H596.782V23.792H599.748V37ZM599.748 20.5571H596.782V17.957H599.748V20.5571ZM605.766 23.792L605.937 25.6963C606.368 25.0208 606.91 24.4959 607.561 24.1216C608.22 23.7391 608.96 23.5479 609.782 23.5479C611.158 23.5479 612.228 23.967 612.993 24.8052C613.766 25.6353 614.152 26.9333 614.152 28.6992V37H611.186V28.7236C611.186 27.7308 610.979 27.0269 610.563 26.6118C610.157 26.1886 609.534 25.9771 608.696 25.9771C608.118 25.9771 607.601 26.1073 607.146 26.3677C606.69 26.62 606.315 26.9699 606.022 27.4175V37H603.056V23.792H605.766ZM616.704 30.5791C616.704 28.4795 617.163 26.7827 618.083 25.4888C619.003 24.1948 620.28 23.5479 621.916 23.5479C622.705 23.5479 623.397 23.7188 623.991 24.0605C624.593 24.3942 625.102 24.8784 625.517 25.5132L625.81 23.792H628.276V37C628.276 38.7008 627.751 40.0151 626.701 40.9429C625.651 41.8706 624.162 42.3345 622.233 42.3345C621.59 42.3345 620.895 42.2409 620.146 42.0537C619.405 41.8747 618.734 41.6346 618.132 41.3335L618.767 39.002C619.255 39.2542 619.792 39.4495 620.378 39.5879C620.972 39.7344 621.582 39.8076 622.209 39.8076C623.283 39.8076 624.069 39.5757 624.565 39.1118C625.061 38.6561 625.31 37.9521 625.31 37V35.645C624.895 36.174 624.402 36.5768 623.833 36.8535C623.271 37.1221 622.624 37.2563 621.892 37.2563C620.272 37.2563 619.003 36.6663 618.083 35.4863C617.163 34.3063 616.704 32.756 616.704 30.8354V30.5791ZM619.67 30.8354C619.67 32.048 619.91 33.0205 620.39 33.7529C620.878 34.4772 621.631 34.8394 622.648 34.8394C623.283 34.8394 623.816 34.7091 624.248 34.4487C624.687 34.1802 625.041 33.7977 625.31 33.3013V27.5151C625.033 27.035 624.675 26.6606 624.235 26.3921C623.804 26.1154 623.283 25.9771 622.673 25.9771C621.656 25.9771 620.899 26.4043 620.402 27.2588C619.914 28.1133 619.67 29.2201 619.67 30.5791V30.8354ZM439.055 63.4111C439.055 62.9554 438.859 62.577 438.469 62.2759C438.078 61.9748 437.35 61.7103 436.284 61.4824C434.705 61.1488 433.509 60.6768 432.695 60.0664C431.889 59.4479 431.486 58.6097 431.486 57.5518C431.486 56.445 431.954 55.501 432.89 54.7197C433.826 53.9385 435.059 53.5479 436.589 53.5479C438.2 53.5479 439.478 53.9466 440.422 54.7441C441.374 55.5335 441.83 56.5142 441.789 57.686L441.765 57.7593H438.92C438.92 57.214 438.713 56.7461 438.298 56.3555C437.883 55.9648 437.313 55.7695 436.589 55.7695C435.873 55.7695 435.327 55.9323 434.953 56.2578C434.579 56.5752 434.392 56.9658 434.392 57.4297C434.392 57.8936 434.567 58.2638 434.917 58.5405C435.275 58.8091 435.995 59.0492 437.077 59.2607C438.737 59.6025 439.966 60.0868 440.764 60.7134C441.569 61.3319 441.972 62.1782 441.972 63.2524C441.972 64.4406 441.48 65.4049 440.495 66.1455C439.519 66.8861 438.229 67.2563 436.625 67.2563C434.908 67.2563 433.553 66.8169 432.561 65.938C431.568 65.0591 431.096 64.05 431.145 62.9106L431.169 62.8374H433.928C433.96 63.6024 434.237 64.1598 434.758 64.5098C435.279 64.8597 435.913 65.0347 436.662 65.0347C437.427 65.0347 438.017 64.8882 438.432 64.5952C438.847 64.3022 439.055 63.9076 439.055 63.4111ZM452.873 65.0713C452.458 65.7712 451.933 66.3123 451.298 66.6948C450.664 67.0692 449.931 67.2563 449.101 67.2563C447.685 67.2563 446.578 66.8047 445.781 65.9014C444.983 64.998 444.584 63.5942 444.584 61.6899V53.792H447.539V61.7144C447.539 62.87 447.726 63.6797 448.1 64.1436C448.474 64.6074 449.04 64.8394 449.797 64.8394C450.513 64.8394 451.111 64.7132 451.591 64.4609C452.08 64.2005 452.462 63.8262 452.739 63.3379V53.792H455.705V67H453.117L452.873 65.0713ZM470.378 60.8354C470.378 62.756 469.926 64.3063 469.023 65.4863C468.12 66.6663 466.862 67.2563 465.251 67.2563C464.502 67.2563 463.839 67.1221 463.261 66.8535C462.683 66.585 462.187 66.1903 461.772 65.6694V72.0781H458.806V53.792H461.308L461.601 55.4521C462.024 54.8337 462.533 54.3617 463.127 54.0361C463.729 53.7106 464.425 53.5479 465.214 53.5479C466.842 53.5479 468.107 54.1948 469.011 55.4888C469.922 56.7746 470.378 58.4714 470.378 60.5791V60.8354ZM467.424 60.5791C467.424 59.2282 467.167 58.1255 466.655 57.271C466.15 56.4084 465.393 55.9771 464.384 55.9771C463.766 55.9771 463.241 56.1113 462.81 56.3799C462.378 56.6403 462.032 57.0065 461.772 57.4785V63.4478C462.032 63.9116 462.378 64.2697 462.81 64.522C463.241 64.7661 463.774 64.8882 464.409 64.8882C465.418 64.8882 466.171 64.5179 466.667 63.7773C467.172 63.0286 467.424 62.048 467.424 60.8354V60.5791ZM484.538 60.8354C484.538 62.756 484.086 64.3063 483.183 65.4863C482.28 66.6663 481.022 67.2563 479.411 67.2563C478.662 67.2563 477.999 67.1221 477.421 66.8535C476.844 66.585 476.347 66.1903 475.932 65.6694V72.0781H472.966V53.792H475.468L475.761 55.4521C476.184 54.8337 476.693 54.3617 477.287 54.0361C477.889 53.7106 478.585 53.5479 479.375 53.5479C481.002 53.5479 482.268 54.1948 483.171 55.4888C484.082 56.7746 484.538 58.4714 484.538 60.5791V60.8354ZM481.584 60.5791C481.584 59.2282 481.328 58.1255 480.815 57.271C480.31 56.4084 479.554 55.9771 478.544 55.9771C477.926 55.9771 477.401 56.1113 476.97 56.3799C476.538 56.6403 476.193 57.0065 475.932 57.4785V63.4478C476.193 63.9116 476.538 64.2697 476.97 64.522C477.401 64.7661 477.934 64.8882 478.569 64.8882C479.578 64.8882 480.331 64.5179 480.827 63.7773C481.332 63.0286 481.584 62.048 481.584 60.8354V60.5791ZM486.577 60.2739C486.577 58.3127 487.114 56.7013 488.188 55.4399C489.278 54.1785 490.756 53.5479 492.619 53.5479C494.515 53.5479 496 54.1785 497.075 55.4399C498.157 56.6932 498.698 58.3045 498.698 60.2739V60.5303C498.698 62.516 498.157 64.1354 497.075 65.3887C496 66.6338 494.523 67.2563 492.644 67.2563C490.756 67.2563 489.27 66.6297 488.188 65.3765C487.114 64.1232 486.577 62.5078 486.577 60.5303V60.2739ZM489.543 60.5303C489.543 61.8161 489.795 62.8659 490.3 63.6797C490.796 64.4854 491.577 64.8882 492.644 64.8882C493.677 64.8882 494.45 64.4854 494.963 63.6797C495.484 62.8659 495.744 61.8161 495.744 60.5303V60.2739C495.744 59.0125 495.484 57.9749 494.963 57.1611C494.45 56.3392 493.669 55.9282 492.619 55.9282C491.586 55.9282 490.812 56.3392 490.3 57.1611C489.795 57.9831 489.543 59.0207 489.543 60.2739V60.5303ZM507.866 56.4653L506.596 56.4165C506.018 56.4165 505.534 56.5386 505.144 56.7827C504.761 57.0269 504.464 57.3727 504.252 57.8203V67H501.286V53.792H503.996L504.191 55.7085C504.525 55.033 504.952 54.5041 505.473 54.1216C506.002 53.7391 506.608 53.5479 507.292 53.5479C507.471 53.5479 507.638 53.5641 507.792 53.5967C507.947 53.6211 508.09 53.6536 508.22 53.6943L507.866 56.4653ZM513.908 50.5815V53.792H516.276V55.9893H513.908V63.2891C513.908 63.8343 514.026 64.2249 514.262 64.4609C514.498 64.6888 514.812 64.8027 515.202 64.8027C515.365 64.8027 515.524 64.7905 515.678 64.7661C515.833 64.7336 515.979 64.6929 516.118 64.644L516.435 66.8169C516.183 66.9552 515.882 67.061 515.532 67.1343C515.182 67.2157 514.82 67.2563 514.445 67.2563C513.355 67.2563 512.5 66.939 511.882 66.3042C511.263 65.6613 510.954 64.6562 510.954 63.2891V55.9893H508.94V53.792H510.954V50.5815H513.908ZM536.271 59.4194H528.483V67H525.517V49.2266H537.517V51.6069H528.483V57.0391H536.271V59.4194ZM553.874 59.7124C553.874 61.8853 553.19 63.6878 551.823 65.1201C550.464 66.5443 548.698 67.2563 546.525 67.2563C544.393 67.2563 542.66 66.5443 541.325 65.1201C539.999 63.6878 539.335 61.8853 539.335 59.7124V56.5142C539.335 54.3494 539.999 52.5509 541.325 51.1187C542.66 49.6864 544.389 48.9702 546.513 48.9702C548.686 48.9702 550.456 49.6864 551.823 51.1187C553.19 52.5509 553.874 54.3494 553.874 56.5142V59.7124ZM550.92 56.4897C550.92 55.0086 550.521 53.792 549.724 52.8398C548.934 51.8877 547.864 51.4116 546.513 51.4116C545.211 51.4116 544.182 51.8877 543.425 52.8398C542.668 53.792 542.29 55.0086 542.29 56.4897V59.7124C542.29 61.2098 542.668 62.4386 543.425 63.3989C544.182 64.3511 545.215 64.8271 546.525 64.8271C547.884 64.8271 548.955 64.3511 549.736 63.3989C550.525 62.4468 550.92 61.2179 550.92 59.7124V56.4897ZM564.116 68.5259H561.394L568.388 49.2266H571.11L564.116 68.5259ZM579.79 67V49.2266H585.698C587.667 49.2266 589.205 49.6335 590.312 50.4473C591.419 51.2529 591.972 52.4614 591.972 54.0728C591.972 54.8784 591.74 55.5986 591.276 56.2334C590.812 56.8682 590.17 57.3402 589.348 57.6494C590.406 57.8854 591.219 58.394 591.789 59.1753C592.359 59.9565 592.644 60.8639 592.644 61.8975C592.644 63.5658 592.098 64.8353 591.008 65.7061C589.917 66.5687 588.412 67 586.491 67H579.79ZM582.756 58.9189V64.6318H586.491C587.517 64.6318 588.306 64.3999 588.859 63.936C589.413 63.464 589.689 62.7845 589.689 61.8975C589.689 60.9535 589.458 60.221 588.994 59.7002C588.53 59.1794 587.806 58.9189 586.821 58.9189H582.756ZM582.756 56.7095H586.027C586.947 56.7095 587.671 56.4938 588.2 56.0625C588.737 55.623 589.006 55.0046 589.006 54.207C589.006 53.3281 588.725 52.6771 588.164 52.2539C587.602 51.8226 586.78 51.6069 585.698 51.6069H582.756V56.7095ZM609.66 59.7124C609.66 61.8853 608.977 63.6878 607.609 65.1201C606.25 66.5443 604.484 67.2563 602.312 67.2563C600.179 67.2563 598.446 66.5443 597.111 65.1201C595.785 63.6878 595.122 61.8853 595.122 59.7124V56.5142C595.122 54.3494 595.785 52.5509 597.111 51.1187C598.446 49.6864 600.175 48.9702 602.299 48.9702C604.472 48.9702 606.242 49.6864 607.609 51.1187C608.977 52.5509 609.66 54.3494 609.66 56.5142V59.7124ZM606.706 56.4897C606.706 55.0086 606.307 53.792 605.51 52.8398C604.72 51.8877 603.65 51.4116 602.299 51.4116C600.997 51.4116 599.968 51.8877 599.211 52.8398C598.454 53.792 598.076 55.0086 598.076 56.4897V59.7124C598.076 61.2098 598.454 62.4386 599.211 63.3989C599.968 64.3511 601.001 64.8271 602.312 64.8271C603.671 64.8271 604.741 64.3511 605.522 63.3989C606.311 62.4468 606.706 61.2179 606.706 59.7124V56.4897Z" fill="#00516B"/>
<path d="M259.339 206H256.373V188.227H259.339V206ZM275.55 190.607H270.179V206H267.212V190.607H261.841V188.227H275.55V190.607ZM297.962 198.712C297.962 199.811 297.775 200.832 297.4 201.776C297.026 202.72 296.497 203.534 295.813 204.218L298.768 207.086L296.79 208.856L293.519 205.731C293.079 205.91 292.615 206.041 292.127 206.122C291.639 206.212 291.134 206.256 290.613 206.256C288.481 206.256 286.748 205.544 285.413 204.12C284.087 202.688 283.423 200.885 283.423 198.712V195.514C283.423 193.349 284.087 191.551 285.413 190.119C286.748 188.686 288.477 187.97 290.601 187.97C292.774 187.97 294.544 188.686 295.911 190.119C297.278 191.551 297.962 193.349 297.962 195.514V198.712ZM295.008 195.49C295.008 194.009 294.609 192.792 293.812 191.84C293.022 190.888 291.952 190.412 290.601 190.412C289.299 190.412 288.27 190.888 287.513 191.84C286.756 192.792 286.377 194.009 286.377 195.49V198.712C286.377 200.21 286.756 201.439 287.513 202.399C288.27 203.351 289.303 203.827 290.613 203.827C291.972 203.827 293.042 203.351 293.824 202.399C294.613 201.447 295.008 200.218 295.008 198.712V195.49ZM309.217 204.071C308.802 204.771 308.277 205.312 307.642 205.695C307.007 206.069 306.275 206.256 305.445 206.256C304.029 206.256 302.922 205.805 302.125 204.901C301.327 203.998 300.928 202.594 300.928 200.69V192.792H303.882V200.714C303.882 201.87 304.069 202.68 304.444 203.144C304.818 203.607 305.384 203.839 306.141 203.839C306.857 203.839 307.455 203.713 307.935 203.461C308.423 203.201 308.806 202.826 309.083 202.338V192.792H312.049V206H309.461L309.217 204.071ZM323.096 206C322.99 205.666 322.901 205.341 322.828 205.023C322.763 204.706 322.718 204.389 322.693 204.071C322.286 204.69 321.749 205.211 321.082 205.634C320.423 206.049 319.682 206.256 318.86 206.256C317.485 206.256 316.427 205.902 315.687 205.194C314.954 204.486 314.588 203.514 314.588 202.277C314.588 200.999 315.092 200.006 316.102 199.298C317.111 198.582 318.531 198.224 320.362 198.224H322.669V197.064C322.669 196.373 322.465 195.832 322.059 195.441C321.652 195.05 321.07 194.855 320.313 194.855C319.638 194.855 319.1 195.018 318.702 195.343C318.303 195.669 318.104 196.088 318.104 196.601H315.247L315.235 196.527C315.178 195.486 315.642 194.562 316.626 193.756C317.619 192.951 318.909 192.548 320.496 192.548C322.034 192.548 323.275 192.938 324.219 193.72C325.163 194.501 325.635 195.624 325.635 197.089V202.96C325.635 203.506 325.672 204.031 325.745 204.535C325.818 205.032 325.936 205.52 326.099 206H323.096ZM319.458 203.876C320.207 203.876 320.879 203.689 321.473 203.314C322.075 202.94 322.474 202.513 322.669 202.033V200.08H320.313C319.45 200.08 318.775 200.295 318.287 200.727C317.798 201.15 317.554 201.65 317.554 202.228C317.554 202.733 317.717 203.135 318.042 203.437C318.376 203.729 318.848 203.876 319.458 203.876ZM331.434 192.792L331.604 194.696C332.036 194.021 332.577 193.496 333.228 193.122C333.887 192.739 334.628 192.548 335.45 192.548C336.825 192.548 337.895 192.967 338.66 193.805C339.433 194.635 339.82 195.933 339.82 197.699V206H336.854V197.724C336.854 196.731 336.646 196.027 336.231 195.612C335.824 195.189 335.201 194.977 334.363 194.977C333.785 194.977 333.269 195.107 332.813 195.368C332.357 195.62 331.983 195.97 331.69 196.417V206H328.724V192.792H331.434ZM346.595 189.582V192.792H348.963V194.989H346.595V202.289C346.595 202.834 346.713 203.225 346.949 203.461C347.185 203.689 347.498 203.803 347.889 203.803C348.051 203.803 348.21 203.791 348.365 203.766C348.519 203.734 348.666 203.693 348.804 203.644L349.122 205.817C348.869 205.955 348.568 206.061 348.218 206.134C347.868 206.216 347.506 206.256 347.132 206.256C346.041 206.256 345.187 205.939 344.568 205.304C343.95 204.661 343.641 203.656 343.641 202.289V194.989H341.626V192.792H343.641V189.582H346.595ZM354.761 206H351.795V192.792H354.761V206ZM354.761 189.557H351.795V186.957H354.761V189.557ZM361.78 189.582V192.792H364.148V194.989H361.78V202.289C361.78 202.834 361.898 203.225 362.134 203.461C362.37 203.689 362.684 203.803 363.074 203.803C363.237 203.803 363.396 203.791 363.55 203.766C363.705 203.734 363.851 203.693 363.99 203.644L364.307 205.817C364.055 205.955 363.754 206.061 363.404 206.134C363.054 206.216 362.692 206.256 362.317 206.256C361.227 206.256 360.372 205.939 359.754 205.304C359.135 204.661 358.826 203.656 358.826 202.289V194.989H356.812V192.792H358.826V189.582H361.78ZM374.732 206C374.626 205.666 374.537 205.341 374.463 205.023C374.398 204.706 374.354 204.389 374.329 204.071C373.922 204.69 373.385 205.211 372.718 205.634C372.059 206.049 371.318 206.256 370.496 206.256C369.121 206.256 368.063 205.902 367.322 205.194C366.59 204.486 366.224 203.514 366.224 202.277C366.224 200.999 366.728 200.006 367.737 199.298C368.746 198.582 370.167 198.224 371.998 198.224H374.305V197.064C374.305 196.373 374.101 195.832 373.694 195.441C373.287 195.05 372.706 194.855 371.949 194.855C371.273 194.855 370.736 195.018 370.337 195.343C369.939 195.669 369.739 196.088 369.739 196.601H366.883L366.871 196.527C366.814 195.486 367.278 194.562 368.262 193.756C369.255 192.951 370.545 192.548 372.132 192.548C373.67 192.548 374.911 192.938 375.855 193.72C376.799 194.501 377.271 195.624 377.271 197.089V202.96C377.271 203.506 377.308 204.031 377.381 204.535C377.454 205.032 377.572 205.52 377.735 206H374.732ZM371.094 203.876C371.843 203.876 372.514 203.689 373.108 203.314C373.711 202.94 374.109 202.513 374.305 202.033V200.08H371.949C371.086 200.08 370.411 200.295 369.922 200.727C369.434 201.15 369.19 201.65 369.19 202.228C369.19 202.733 369.353 203.135 369.678 203.437C370.012 203.729 370.484 203.876 371.094 203.876ZM384.07 189.582V192.792H386.438V194.989H384.07V202.289C384.07 202.834 384.188 203.225 384.424 203.461C384.66 203.689 384.974 203.803 385.364 203.803C385.527 203.803 385.686 203.791 385.84 203.766C385.995 203.734 386.141 203.693 386.28 203.644L386.597 205.817C386.345 205.955 386.044 206.061 385.694 206.134C385.344 206.216 384.982 206.256 384.607 206.256C383.517 206.256 382.662 205.939 382.044 205.304C381.425 204.661 381.116 203.656 381.116 202.289V194.989H379.102V192.792H381.116V189.582H384.07ZM392.237 206H389.271V192.792H392.237V206ZM392.237 189.557H389.271V186.957H392.237V189.557ZM400.159 201.532L400.379 202.606H400.452L400.684 201.532L403.309 192.792H406.373L401.685 206H399.109L394.397 192.792H397.461L400.159 201.532ZM413.733 206.256C411.862 206.256 410.368 205.646 409.253 204.425C408.147 203.196 407.593 201.622 407.593 199.701V199.213C407.593 197.292 408.143 195.701 409.241 194.44C410.348 193.17 411.731 192.54 413.392 192.548C415.174 192.548 416.537 193.089 417.481 194.171C418.433 195.246 418.909 196.69 418.909 198.505V200.25H410.669L410.645 200.312C410.694 201.361 410.999 202.22 411.561 202.887C412.13 203.555 412.916 203.888 413.917 203.888C414.714 203.888 415.398 203.791 415.967 203.595C416.537 203.4 417.086 203.119 417.615 202.753L418.567 204.694C418.071 205.133 417.412 205.504 416.59 205.805C415.768 206.106 414.816 206.256 413.733 206.256ZM413.392 194.928C412.659 194.928 412.057 195.221 411.585 195.807C411.113 196.385 410.82 197.121 410.706 198.017L410.73 198.078H415.967V197.772C415.967 196.934 415.752 196.251 415.32 195.722C414.897 195.193 414.254 194.928 413.392 194.928Z" fill="#00516B"/>
<path d="M74.7861 397.227L79.9009 410.898H79.9741L85.1011 397.227H88.9463V415H85.98V408.945L86.2729 401.243L86.1997 401.23L80.9263 415H78.9365L73.6875 401.267L73.6143 401.279L73.9072 408.945V415H70.9409V397.227H74.7861ZM100.409 415C100.303 414.666 100.213 414.341 100.14 414.023C100.075 413.706 100.03 413.389 100.006 413.071C99.599 413.69 99.0618 414.211 98.3945 414.634C97.7354 415.049 96.9948 415.256 96.1729 415.256C94.7975 415.256 93.7396 414.902 92.999 414.194C92.2666 413.486 91.9004 412.514 91.9004 411.277C91.9004 409.999 92.4049 409.006 93.4141 408.298C94.4232 407.582 95.8433 407.224 97.6743 407.224H99.9814V406.064C99.9814 405.373 99.778 404.832 99.3711 404.441C98.9642 404.05 98.3823 403.855 97.6255 403.855C96.95 403.855 96.4129 404.018 96.0142 404.343C95.6154 404.669 95.416 405.088 95.416 405.601H92.5596L92.5474 405.527C92.4904 404.486 92.9543 403.562 93.939 402.756C94.9318 401.951 96.2217 401.548 97.8086 401.548C99.3467 401.548 100.588 401.938 101.532 402.72C102.476 403.501 102.948 404.624 102.948 406.089V411.96C102.948 412.506 102.984 413.031 103.058 413.535C103.131 414.032 103.249 414.52 103.412 415H100.409ZM96.771 412.876C97.5197 412.876 98.1911 412.689 98.7852 412.314C99.3874 411.94 99.7861 411.513 99.9814 411.033V409.08H97.6255C96.7629 409.08 96.0874 409.295 95.5991 409.727C95.1108 410.15 94.8667 410.65 94.8667 411.228C94.8667 411.733 95.0295 412.135 95.355 412.437C95.6886 412.729 96.1607 412.876 96.771 412.876ZM112.64 404.465L111.371 404.417C110.793 404.417 110.309 404.539 109.918 404.783C109.535 405.027 109.238 405.373 109.027 405.82V415H106.061V401.792H108.771L108.966 403.708C109.299 403.033 109.727 402.504 110.248 402.122C110.777 401.739 111.383 401.548 112.066 401.548C112.245 401.548 112.412 401.564 112.567 401.597C112.722 401.621 112.864 401.654 112.994 401.694L112.64 404.465ZM119.024 409.226H117.694V415H114.74V395.957H117.694V406.846H118.927L122.259 401.792H125.75L121.393 407.798L126.397 415H122.955L119.024 409.226ZM133.209 415.256C131.337 415.256 129.844 414.646 128.729 413.425C127.622 412.196 127.069 410.622 127.069 408.701V408.213C127.069 406.292 127.618 404.701 128.717 403.44C129.824 402.17 131.207 401.54 132.867 401.548C134.649 401.548 136.013 402.089 136.957 403.171C137.909 404.246 138.385 405.69 138.385 407.505V409.25H130.145L130.121 409.312C130.169 410.361 130.475 411.22 131.036 411.887C131.606 412.555 132.391 412.888 133.392 412.888C134.19 412.888 134.873 412.791 135.443 412.595C136.013 412.4 136.562 412.119 137.091 411.753L138.043 413.694C137.547 414.133 136.887 414.504 136.065 414.805C135.243 415.106 134.291 415.256 133.209 415.256ZM132.867 403.928C132.135 403.928 131.533 404.221 131.061 404.807C130.589 405.385 130.296 406.121 130.182 407.017L130.206 407.078H135.443V406.772C135.443 405.934 135.227 405.251 134.796 404.722C134.373 404.193 133.73 403.928 132.867 403.928ZM144.464 398.582V401.792H146.832V403.989H144.464V411.289C144.464 411.834 144.582 412.225 144.818 412.461C145.054 412.689 145.367 412.803 145.758 412.803C145.921 412.803 146.079 412.791 146.234 412.766C146.389 412.734 146.535 412.693 146.673 412.644L146.991 414.817C146.738 414.955 146.437 415.061 146.087 415.134C145.737 415.216 145.375 415.256 145.001 415.256C143.91 415.256 143.056 414.939 142.438 414.304C141.819 413.661 141.51 412.656 141.51 411.289V403.989H139.496V401.792H141.51V398.582H144.464ZM83.9048 442.104L83.9292 442.177C83.9618 443.976 83.3758 445.441 82.1714 446.572C80.9751 447.695 79.3516 448.256 77.3008 448.256C75.2256 448.256 73.5369 447.561 72.2349 446.169C70.9409 444.769 70.2939 442.983 70.2939 440.81V437.429C70.2939 435.264 70.9328 433.482 72.2104 432.082C73.4963 430.674 75.1646 429.97 77.2153 429.97C79.3149 429.97 80.967 430.524 82.1714 431.63C83.384 432.729 83.974 434.21 83.9414 436.074L83.917 436.147H81.0483C81.0483 434.951 80.7228 434.019 80.0718 433.352C79.4289 432.684 78.4767 432.351 77.2153 432.351C76.0028 432.351 75.0384 432.831 74.3223 433.791C73.6143 434.751 73.2603 435.956 73.2603 437.404V440.81C73.2603 442.275 73.6224 443.487 74.3467 444.448C75.0791 445.408 76.0638 445.888 77.3008 445.888C78.5296 445.888 79.4614 445.559 80.0962 444.899C80.731 444.24 81.0483 443.308 81.0483 442.104H83.9048ZM93.0356 437.465L91.7661 437.417C91.1883 437.417 90.7041 437.539 90.3135 437.783C89.931 438.027 89.634 438.373 89.4224 438.82V448H86.4561V434.792H89.166L89.3613 436.708C89.695 436.033 90.1222 435.504 90.6431 435.122C91.172 434.739 91.7783 434.548 92.4619 434.548C92.641 434.548 92.8078 434.564 92.9624 434.597C93.117 434.621 93.2594 434.654 93.3896 434.694L93.0356 437.465ZM100.787 448.256C98.9154 448.256 97.422 447.646 96.3071 446.425C95.2004 445.196 94.647 443.622 94.647 441.701V441.213C94.647 439.292 95.1963 437.701 96.2949 436.44C97.4017 435.17 98.7852 434.54 100.445 434.548C102.228 434.548 103.591 435.089 104.535 436.171C105.487 437.246 105.963 438.69 105.963 440.505V442.25H97.7231L97.6987 442.312C97.7476 443.361 98.0527 444.22 98.6143 444.887C99.1839 445.555 99.9692 445.888 100.97 445.888C101.768 445.888 102.451 445.791 103.021 445.595C103.591 445.4 104.14 445.119 104.669 444.753L105.621 446.694C105.125 447.133 104.465 447.504 103.644 447.805C102.822 448.106 101.869 448.256 100.787 448.256ZM100.445 436.928C99.7129 436.928 99.1107 437.221 98.6387 437.807C98.1667 438.385 97.8737 439.121 97.7598 440.017L97.7842 440.078H103.021V439.772C103.021 438.934 102.805 438.251 102.374 437.722C101.951 437.193 101.308 436.928 100.445 436.928ZM107.806 441.579C107.806 439.471 108.258 437.775 109.161 436.489C110.064 435.195 111.334 434.548 112.97 434.548C113.686 434.548 114.325 434.694 114.886 434.987C115.456 435.272 115.948 435.683 116.363 436.22V428.957H119.33V448H116.839L116.546 446.364C116.123 446.983 115.615 447.455 115.021 447.78C114.426 448.098 113.735 448.256 112.945 448.256C111.326 448.256 110.064 447.666 109.161 446.486C108.258 445.306 107.806 443.756 107.806 441.835V441.579ZM110.772 441.835C110.772 443.056 111.004 444.029 111.468 444.753C111.94 445.477 112.685 445.839 113.702 445.839C114.329 445.839 114.858 445.705 115.289 445.437C115.729 445.168 116.087 444.785 116.363 444.289V438.527C116.087 438.039 115.729 437.661 115.289 437.392C114.85 437.115 114.329 436.977 113.727 436.977C112.717 436.977 111.973 437.404 111.493 438.259C111.013 439.105 110.772 440.212 110.772 441.579V441.835ZM125.677 448H122.711V434.792H125.677V448ZM125.677 431.557H122.711V428.957H125.677V431.557ZM132.696 431.582V434.792H135.064V436.989H132.696V444.289C132.696 444.834 132.814 445.225 133.05 445.461C133.286 445.689 133.6 445.803 133.99 445.803C134.153 445.803 134.312 445.791 134.466 445.766C134.621 445.734 134.767 445.693 134.906 445.644L135.223 447.817C134.971 447.955 134.67 448.061 134.32 448.134C133.97 448.216 133.608 448.256 133.233 448.256C132.143 448.256 131.288 447.939 130.67 447.304C130.051 446.661 129.742 445.656 129.742 444.289V436.989H127.728V434.792H129.742V431.582H132.696ZM73.7241 481H70.7578V461.957H73.7241V481ZM80.2183 481H77.252V467.792H80.2183V481ZM80.2183 464.557H77.252V461.957H80.2183V464.557ZM83.0015 474.579C83.0015 472.471 83.4531 470.775 84.3564 469.489C85.2598 468.195 86.5293 467.548 88.165 467.548C88.93 467.548 89.6055 467.707 90.1914 468.024C90.7773 468.341 91.2778 468.797 91.6929 469.391L92.0347 467.792H94.4395V486.078H91.4731V479.755C91.0662 480.251 90.5861 480.626 90.0327 480.878C89.4793 481.13 88.8486 481.256 88.1406 481.256C86.5212 481.256 85.2598 480.666 84.3564 479.486C83.4531 478.306 83.0015 476.756 83.0015 474.835V474.579ZM85.9678 474.835C85.9678 476.056 86.1997 477.037 86.6636 477.777C87.1356 478.518 87.8802 478.888 88.8975 478.888C89.4997 478.888 90.0083 478.77 90.4233 478.534C90.8465 478.29 91.1965 477.94 91.4731 477.484V471.332C91.1965 470.893 90.8465 470.551 90.4233 470.307C90.0002 470.054 89.4997 469.928 88.9219 469.928C87.9128 469.928 87.1681 470.364 86.688 471.234C86.2078 472.097 85.9678 473.212 85.9678 474.579V474.835ZM105.938 479.071C105.523 479.771 104.999 480.312 104.364 480.695C103.729 481.069 102.997 481.256 102.167 481.256C100.75 481.256 99.6437 480.805 98.8462 479.901C98.0487 478.998 97.6499 477.594 97.6499 475.69V467.792H100.604V475.714C100.604 476.87 100.791 477.68 101.166 478.144C101.54 478.607 102.105 478.839 102.862 478.839C103.578 478.839 104.177 478.713 104.657 478.461C105.145 478.201 105.528 477.826 105.804 477.338V467.792H108.771V481H106.183L105.938 479.071ZM115.033 481H112.066V467.792H115.033V481ZM115.033 464.557H112.066V461.957H115.033V464.557ZM117.816 474.579C117.816 472.471 118.268 470.775 119.171 469.489C120.074 468.195 121.344 467.548 122.979 467.548C123.696 467.548 124.334 467.694 124.896 467.987C125.466 468.272 125.958 468.683 126.373 469.22V461.957H129.339V481H126.849L126.556 479.364C126.133 479.983 125.624 480.455 125.03 480.78C124.436 481.098 123.744 481.256 122.955 481.256C121.336 481.256 120.074 480.666 119.171 479.486C118.268 478.306 117.816 476.756 117.816 474.835V474.579ZM120.782 474.835C120.782 476.056 121.014 477.029 121.478 477.753C121.95 478.477 122.695 478.839 123.712 478.839C124.339 478.839 124.868 478.705 125.299 478.437C125.738 478.168 126.096 477.785 126.373 477.289V471.527C126.096 471.039 125.738 470.661 125.299 470.392C124.859 470.115 124.339 469.977 123.736 469.977C122.727 469.977 121.983 470.404 121.502 471.259C121.022 472.105 120.782 473.212 120.782 474.579V474.835ZM135.687 481H132.721V467.792H135.687V481ZM135.687 464.557H132.721V461.957H135.687V464.557ZM142.706 464.582V467.792H145.074V469.989H142.706V477.289C142.706 477.834 142.824 478.225 143.06 478.461C143.296 478.689 143.609 478.803 144 478.803C144.163 478.803 144.321 478.791 144.476 478.766C144.631 478.734 144.777 478.693 144.916 478.644L145.233 480.817C144.981 480.955 144.68 481.061 144.33 481.134C143.98 481.216 143.618 481.256 143.243 481.256C142.153 481.256 141.298 480.939 140.68 480.304C140.061 479.661 139.752 478.656 139.752 477.289V469.989H137.738V467.792H139.752V464.582H142.706ZM152.093 475.702L152.386 477.021H152.459L155.353 467.792H158.6L153.131 483.002C152.781 483.922 152.289 484.707 151.654 485.358C151.019 486.009 150.12 486.334 148.956 486.334C148.712 486.334 148.447 486.31 148.163 486.261C147.886 486.212 147.617 486.155 147.357 486.09L147.687 483.795C147.792 483.804 147.943 483.816 148.138 483.832C148.333 483.848 148.48 483.856 148.578 483.856C149.115 483.856 149.542 483.673 149.859 483.307C150.185 482.941 150.449 482.518 150.653 482.038L151.141 480.841L146.344 467.792H149.579L152.093 475.702ZM77.1421 503.465L75.8726 503.417C75.2948 503.417 74.8105 503.539 74.4199 503.783C74.0374 504.027 73.7404 504.373 73.5288 504.82V514H70.5625V500.792H73.2725L73.4678 502.708C73.8014 502.033 74.2287 501.504 74.7495 501.122C75.2785 500.739 75.8848 500.548 76.5684 500.548C76.7474 500.548 76.9142 500.564 77.0688 500.597C77.2235 500.621 77.3659 500.654 77.4961 500.694L77.1421 503.465ZM82.3911 514H79.4248V500.792H82.3911V514ZM82.3911 497.557H79.4248V494.957H82.3911V497.557ZM93.1455 510.411C93.1455 509.955 92.9502 509.577 92.5596 509.276C92.1689 508.975 91.4406 508.71 90.3745 508.482C88.7957 508.149 87.5994 507.677 86.7856 507.066C85.98 506.448 85.5771 505.61 85.5771 504.552C85.5771 503.445 86.0451 502.501 86.981 501.72C87.9168 500.938 89.1497 500.548 90.6797 500.548C92.291 500.548 93.5687 500.947 94.5127 501.744C95.4648 502.534 95.9206 503.514 95.8799 504.686L95.8555 504.759H93.0112C93.0112 504.214 92.8037 503.746 92.3887 503.355C91.9736 502.965 91.404 502.77 90.6797 502.77C89.9635 502.77 89.4183 502.932 89.0439 503.258C88.6696 503.575 88.4824 503.966 88.4824 504.43C88.4824 504.894 88.6574 505.264 89.0073 505.541C89.3654 505.809 90.0856 506.049 91.168 506.261C92.8281 506.603 94.057 507.087 94.8545 507.713C95.6602 508.332 96.063 509.178 96.063 510.252C96.063 511.441 95.5706 512.405 94.5859 513.146C93.6094 513.886 92.3195 514.256 90.7163 514.256C88.9992 514.256 87.6442 513.817 86.6514 512.938C85.6585 512.059 85.1865 511.05 85.2354 509.911L85.2598 509.837H88.0186C88.0511 510.602 88.3278 511.16 88.8486 511.51C89.3695 511.86 90.0042 512.035 90.7529 512.035C91.5179 512.035 92.1079 511.888 92.5229 511.595C92.938 511.302 93.1455 510.908 93.1455 510.411ZM103.033 508.226H101.703V514H98.7485V494.957H101.703V505.846H102.936L106.268 500.792H109.759L105.401 506.798L110.406 514H106.964L103.033 508.226ZM119.244 510.411C119.244 509.955 119.049 509.577 118.658 509.276C118.268 508.975 117.539 508.71 116.473 508.482C114.894 508.149 113.698 507.677 112.884 507.066C112.079 506.448 111.676 505.61 111.676 504.552C111.676 503.445 112.144 502.501 113.08 501.72C114.015 500.938 115.248 500.548 116.778 500.548C118.39 500.548 119.667 500.947 120.611 501.744C121.563 502.534 122.019 503.514 121.979 504.686L121.954 504.759H119.11C119.11 504.214 118.902 503.746 118.487 503.355C118.072 502.965 117.503 502.77 116.778 502.77C116.062 502.77 115.517 502.932 115.143 503.258C114.768 503.575 114.581 503.966 114.581 504.43C114.581 504.894 114.756 505.264 115.106 505.541C115.464 505.809 116.184 506.049 117.267 506.261C118.927 506.603 120.156 507.087 120.953 507.713C121.759 508.332 122.162 509.178 122.162 510.252C122.162 511.441 121.669 512.405 120.685 513.146C119.708 513.886 118.418 514.256 116.815 514.256C115.098 514.256 113.743 513.817 112.75 512.938C111.757 512.059 111.285 511.05 111.334 509.911L111.358 509.837H114.117C114.15 510.602 114.426 511.16 114.947 511.51C115.468 511.86 116.103 512.035 116.852 512.035C117.617 512.035 118.207 511.888 118.622 511.595C119.037 511.302 119.244 510.908 119.244 510.411Z" fill="#00516B"/>
<path d="M500.078 415H497.112V397.227H500.078V415ZM506.45 401.792L506.621 403.696C507.052 403.021 507.594 402.496 508.245 402.122C508.904 401.739 509.644 401.548 510.466 401.548C511.842 401.548 512.912 401.967 513.677 402.805C514.45 403.635 514.836 404.933 514.836 406.699V415H511.87V406.724C511.87 405.731 511.663 405.027 511.248 404.612C510.841 404.189 510.218 403.977 509.38 403.977C508.802 403.977 508.285 404.107 507.83 404.368C507.374 404.62 507 404.97 506.707 405.417V415H503.74V401.792H506.45ZM521.611 398.582V401.792H523.979V403.989H521.611V411.289C521.611 411.834 521.729 412.225 521.965 412.461C522.201 412.689 522.515 412.803 522.905 412.803C523.068 412.803 523.227 412.791 523.381 412.766C523.536 412.734 523.682 412.693 523.821 412.644L524.138 414.817C523.886 414.955 523.585 415.061 523.235 415.134C522.885 415.216 522.523 415.256 522.148 415.256C521.058 415.256 520.203 414.939 519.585 414.304C518.966 413.661 518.657 412.656 518.657 411.289V403.989H516.643V401.792H518.657V398.582H521.611ZM532.28 415.256C530.409 415.256 528.915 414.646 527.8 413.425C526.694 412.196 526.14 410.622 526.14 408.701V408.213C526.14 406.292 526.689 404.701 527.788 403.44C528.895 402.17 530.278 401.54 531.938 401.548C533.721 401.548 535.084 402.089 536.028 403.171C536.98 404.246 537.456 405.69 537.456 407.505V409.25H529.216L529.192 409.312C529.241 410.361 529.546 411.22 530.107 411.887C530.677 412.555 531.462 412.888 532.463 412.888C533.261 412.888 533.944 412.791 534.514 412.595C535.084 412.4 535.633 412.119 536.162 411.753L537.114 413.694C536.618 414.133 535.959 414.504 535.137 414.805C534.315 415.106 533.363 415.256 532.28 415.256ZM531.938 403.928C531.206 403.928 530.604 404.221 530.132 404.807C529.66 405.385 529.367 406.121 529.253 407.017L529.277 407.078H534.514V406.772C534.514 405.934 534.299 405.251 533.867 404.722C533.444 404.193 532.801 403.928 531.938 403.928ZM539.312 408.579C539.312 406.479 539.771 404.783 540.691 403.489C541.611 402.195 542.888 401.548 544.524 401.548C545.313 401.548 546.005 401.719 546.599 402.061C547.201 402.394 547.71 402.878 548.125 403.513L548.418 401.792H550.884V415C550.884 416.701 550.359 418.015 549.309 418.943C548.259 419.871 546.77 420.334 544.841 420.334C544.198 420.334 543.503 420.241 542.754 420.054C542.013 419.875 541.342 419.635 540.74 419.333L541.375 417.002C541.863 417.254 542.4 417.45 542.986 417.588C543.58 417.734 544.19 417.808 544.817 417.808C545.891 417.808 546.676 417.576 547.173 417.112C547.669 416.656 547.917 415.952 547.917 415V413.645C547.502 414.174 547.01 414.577 546.44 414.854C545.879 415.122 545.232 415.256 544.5 415.256C542.88 415.256 541.611 414.666 540.691 413.486C539.771 412.306 539.312 410.756 539.312 408.835V408.579ZM542.278 408.835C542.278 410.048 542.518 411.021 542.998 411.753C543.486 412.477 544.239 412.839 545.256 412.839C545.891 412.839 546.424 412.709 546.855 412.449C547.295 412.18 547.649 411.798 547.917 411.301V405.515C547.641 405.035 547.283 404.661 546.843 404.392C546.412 404.115 545.891 403.977 545.281 403.977C544.264 403.977 543.507 404.404 543.01 405.259C542.522 406.113 542.278 407.22 542.278 408.579V408.835ZM560.588 404.465L559.319 404.417C558.741 404.417 558.257 404.539 557.866 404.783C557.484 405.027 557.187 405.373 556.975 405.82V415H554.009V401.792H556.719L556.914 403.708C557.248 403.033 557.675 402.504 558.196 402.122C558.725 401.739 559.331 401.548 560.015 401.548C560.194 401.548 560.361 401.564 560.515 401.597C560.67 401.621 560.812 401.654 560.942 401.694L560.588 404.465ZM570.623 415C570.517 414.666 570.427 414.341 570.354 414.023C570.289 413.706 570.244 413.389 570.22 413.071C569.813 413.69 569.276 414.211 568.608 414.634C567.949 415.049 567.209 415.256 566.387 415.256C565.011 415.256 563.953 414.902 563.213 414.194C562.48 413.486 562.114 412.514 562.114 411.277C562.114 409.999 562.619 409.006 563.628 408.298C564.637 407.582 566.057 407.224 567.888 407.224H570.195V406.064C570.195 405.373 569.992 404.832 569.585 404.441C569.178 404.05 568.596 403.855 567.839 403.855C567.164 403.855 566.627 404.018 566.228 404.343C565.829 404.669 565.63 405.088 565.63 405.601H562.773L562.761 405.527C562.704 404.486 563.168 403.562 564.153 402.756C565.146 401.951 566.436 401.548 568.022 401.548C569.561 401.548 570.802 401.938 571.746 402.72C572.69 403.501 573.162 404.624 573.162 406.089V411.96C573.162 412.506 573.198 413.031 573.271 413.535C573.345 414.032 573.463 414.52 573.625 415H570.623ZM566.985 412.876C567.734 412.876 568.405 412.689 568.999 412.314C569.601 411.94 570 411.513 570.195 411.033V409.08H567.839C566.977 409.08 566.301 409.295 565.813 409.727C565.325 410.15 565.081 410.65 565.081 411.228C565.081 411.733 565.243 412.135 565.569 412.437C565.903 412.729 566.375 412.876 566.985 412.876ZM579.961 398.582V401.792H582.329V403.989H579.961V411.289C579.961 411.834 580.079 412.225 580.315 412.461C580.551 412.689 580.864 412.803 581.255 412.803C581.418 412.803 581.576 412.791 581.731 412.766C581.886 412.734 582.032 412.693 582.17 412.644L582.488 414.817C582.236 414.955 581.934 415.061 581.584 415.134C581.235 415.216 580.872 415.256 580.498 415.256C579.408 415.256 578.553 414.939 577.935 414.304C577.316 413.661 577.007 412.656 577.007 411.289V403.989H574.993V401.792H577.007V398.582H579.961ZM588.127 415H585.161V401.792H588.127V415ZM588.127 398.557H585.161V395.957H588.127V398.557ZM590.911 408.274C590.911 406.313 591.448 404.701 592.522 403.44C593.612 402.179 595.09 401.548 596.953 401.548C598.849 401.548 600.334 402.179 601.409 403.44C602.491 404.693 603.032 406.305 603.032 408.274V408.53C603.032 410.516 602.491 412.135 601.409 413.389C600.334 414.634 598.857 415.256 596.978 415.256C595.09 415.256 593.604 414.63 592.522 413.376C591.448 412.123 590.911 410.508 590.911 408.53V408.274ZM593.877 408.53C593.877 409.816 594.129 410.866 594.634 411.68C595.13 412.485 595.911 412.888 596.978 412.888C598.011 412.888 598.784 412.485 599.297 411.68C599.818 410.866 600.078 409.816 600.078 408.53V408.274C600.078 407.013 599.818 405.975 599.297 405.161C598.784 404.339 598.003 403.928 596.953 403.928C595.92 403.928 595.146 404.339 594.634 405.161C594.129 405.983 593.877 407.021 593.877 408.274V408.53ZM608.306 401.792L608.477 403.696C608.908 403.021 609.449 402.496 610.1 402.122C610.759 401.739 611.5 401.548 612.322 401.548C613.697 401.548 614.767 401.967 615.532 402.805C616.305 403.635 616.692 404.933 616.692 406.699V415H613.726V406.724C613.726 405.731 613.518 405.027 613.103 404.612C612.696 404.189 612.074 403.977 611.235 403.977C610.658 403.977 610.141 404.107 609.685 404.368C609.229 404.62 608.855 404.97 608.562 405.417V415H605.596V401.792H608.306ZM496.013 441.274C496.013 439.313 496.55 437.701 497.625 436.44C498.715 435.179 500.192 434.548 502.056 434.548C503.952 434.548 505.437 435.179 506.511 436.44C507.594 437.693 508.135 439.305 508.135 441.274V441.53C508.135 443.516 507.594 445.135 506.511 446.389C505.437 447.634 503.96 448.256 502.08 448.256C500.192 448.256 498.707 447.63 497.625 446.376C496.55 445.123 496.013 443.508 496.013 441.53V441.274ZM498.979 441.53C498.979 442.816 499.232 443.866 499.736 444.68C500.233 445.485 501.014 445.888 502.08 445.888C503.114 445.888 503.887 445.485 504.399 444.68C504.92 443.866 505.181 442.816 505.181 441.53V441.274C505.181 440.013 504.92 438.975 504.399 438.161C503.887 437.339 503.105 436.928 502.056 436.928C501.022 436.928 500.249 437.339 499.736 438.161C499.232 438.983 498.979 440.021 498.979 441.274V441.53ZM511.687 448V436.989H509.673V434.792H511.687V433.254C511.687 431.797 512.082 430.674 512.871 429.885C513.669 429.095 514.784 428.701 516.216 428.701C516.501 428.701 516.79 428.725 517.083 428.774C517.375 428.815 517.705 428.876 518.071 428.957L517.766 431.252C517.603 431.219 517.42 431.191 517.217 431.167C517.021 431.142 516.81 431.13 516.582 431.13C515.939 431.13 515.455 431.313 515.129 431.679C514.812 432.045 514.653 432.57 514.653 433.254V434.792H517.339V436.989H514.653V448H511.687ZM537.31 441.835C537.31 443.756 536.858 445.306 535.955 446.486C535.051 447.666 533.794 448.256 532.183 448.256C531.434 448.256 530.771 448.122 530.193 447.854C529.615 447.585 529.119 447.19 528.704 446.669V453.078H525.737V434.792H528.24L528.533 436.452C528.956 435.834 529.465 435.362 530.059 435.036C530.661 434.711 531.357 434.548 532.146 434.548C533.774 434.548 535.039 435.195 535.942 436.489C536.854 437.775 537.31 439.471 537.31 441.579V441.835ZM534.355 441.579C534.355 440.228 534.099 439.125 533.586 438.271C533.082 437.408 532.325 436.977 531.316 436.977C530.697 436.977 530.173 437.111 529.741 437.38C529.31 437.64 528.964 438.007 528.704 438.479V444.448C528.964 444.912 529.31 445.27 529.741 445.522C530.173 445.766 530.706 445.888 531.34 445.888C532.349 445.888 533.102 445.518 533.599 444.777C534.103 444.029 534.355 443.048 534.355 441.835V441.579ZM546.477 437.465L545.208 437.417C544.63 437.417 544.146 437.539 543.755 437.783C543.372 438.027 543.075 438.373 542.864 438.82V448H539.897V434.792H542.607L542.803 436.708C543.136 436.033 543.564 435.504 544.084 435.122C544.613 434.739 545.22 434.548 545.903 434.548C546.082 434.548 546.249 434.564 546.404 434.597C546.558 434.621 546.701 434.654 546.831 434.694L546.477 437.465ZM551.726 448H548.76V434.792H551.726V448ZM551.726 431.557H548.76V428.957H551.726V431.557ZM560.515 445.888C561.239 445.888 561.85 445.677 562.346 445.253C562.843 444.822 563.091 444.285 563.091 443.642H565.776L565.801 443.715C565.841 444.952 565.337 446.018 564.287 446.914C563.245 447.809 561.988 448.256 560.515 448.256C558.57 448.256 557.077 447.63 556.035 446.376C555.002 445.123 554.485 443.536 554.485 441.616V441.188C554.485 439.276 555.002 437.693 556.035 436.44C557.077 435.179 558.57 434.548 560.515 434.548C562.102 434.548 563.388 435.012 564.373 435.939C565.365 436.859 565.846 438.031 565.813 439.455L565.789 439.528H563.091C563.091 438.804 562.851 438.19 562.371 437.685C561.899 437.181 561.28 436.928 560.515 436.928C559.4 436.928 558.611 437.335 558.147 438.149C557.683 438.955 557.451 439.968 557.451 441.188V441.616C557.451 442.861 557.683 443.886 558.147 444.692C558.611 445.489 559.4 445.888 560.515 445.888ZM571.355 448H568.389V434.792H571.355V448ZM571.355 431.557H568.389V428.957H571.355V431.557ZM577.373 434.792L577.544 436.696C577.975 436.021 578.516 435.496 579.167 435.122C579.827 434.739 580.567 434.548 581.389 434.548C582.764 434.548 583.835 434.967 584.6 435.805C585.373 436.635 585.759 437.933 585.759 439.699V448H582.793V439.724C582.793 438.731 582.585 438.027 582.17 437.612C581.764 437.189 581.141 436.977 580.303 436.977C579.725 436.977 579.208 437.107 578.752 437.368C578.297 437.62 577.922 437.97 577.629 438.417V448H574.663V434.792H577.373ZM588.311 441.579C588.311 439.479 588.77 437.783 589.69 436.489C590.61 435.195 591.887 434.548 593.523 434.548C594.312 434.548 595.004 434.719 595.598 435.061C596.2 435.394 596.709 435.878 597.124 436.513L597.417 434.792H599.883V448C599.883 449.701 599.358 451.015 598.308 451.943C597.258 452.871 595.769 453.334 593.84 453.334C593.197 453.334 592.502 453.241 591.753 453.054C591.012 452.875 590.341 452.635 589.739 452.333L590.374 450.002C590.862 450.254 591.399 450.45 591.985 450.588C592.579 450.734 593.189 450.808 593.816 450.808C594.89 450.808 595.675 450.576 596.172 450.112C596.668 449.656 596.917 448.952 596.917 448V446.645C596.501 447.174 596.009 447.577 595.439 447.854C594.878 448.122 594.231 448.256 593.499 448.256C591.879 448.256 590.61 447.666 589.69 446.486C588.77 445.306 588.311 443.756 588.311 441.835V441.579ZM591.277 441.835C591.277 443.048 591.517 444.021 591.997 444.753C592.485 445.477 593.238 445.839 594.255 445.839C594.89 445.839 595.423 445.709 595.854 445.449C596.294 445.18 596.648 444.798 596.917 444.301V438.515C596.64 438.035 596.282 437.661 595.842 437.392C595.411 437.115 594.89 436.977 594.28 436.977C593.263 436.977 592.506 437.404 592.009 438.259C591.521 439.113 591.277 440.22 591.277 441.579V441.835ZM496.941 481V463.227H502.849C504.819 463.227 506.357 463.633 507.463 464.447C508.57 465.253 509.124 466.461 509.124 468.073C509.124 468.878 508.892 469.599 508.428 470.233C507.964 470.868 507.321 471.34 506.499 471.649C507.557 471.885 508.371 472.394 508.94 473.175C509.51 473.957 509.795 474.864 509.795 475.897C509.795 477.566 509.25 478.835 508.159 479.706C507.069 480.569 505.563 481 503.643 481H496.941ZM499.907 472.919V478.632H503.643C504.668 478.632 505.457 478.4 506.011 477.936C506.564 477.464 506.841 476.785 506.841 475.897C506.841 474.953 506.609 474.221 506.145 473.7C505.681 473.179 504.957 472.919 503.972 472.919H499.907ZM499.907 470.709H503.179C504.098 470.709 504.823 470.494 505.352 470.062C505.889 469.623 506.157 469.005 506.157 468.207C506.157 467.328 505.876 466.677 505.315 466.254C504.753 465.823 503.931 465.607 502.849 465.607H499.907V470.709ZM512.029 474.274C512.029 472.313 512.566 470.701 513.64 469.44C514.731 468.179 516.208 467.548 518.071 467.548C519.967 467.548 521.453 468.179 522.527 469.44C523.609 470.693 524.15 472.305 524.15 474.274V474.53C524.15 476.516 523.609 478.135 522.527 479.389C521.453 480.634 519.976 481.256 518.096 481.256C516.208 481.256 514.722 480.63 513.64 479.376C512.566 478.123 512.029 476.508 512.029 474.53V474.274ZM514.995 474.53C514.995 475.816 515.247 476.866 515.752 477.68C516.248 478.485 517.03 478.888 518.096 478.888C519.129 478.888 519.902 478.485 520.415 477.68C520.936 476.866 521.196 475.816 521.196 474.53V474.274C521.196 473.013 520.936 471.975 520.415 471.161C519.902 470.339 519.121 469.928 518.071 469.928C517.038 469.928 516.265 470.339 515.752 471.161C515.247 471.983 514.995 473.021 514.995 474.274V474.53ZM526.189 474.274C526.189 472.313 526.726 470.701 527.8 469.44C528.891 468.179 530.368 467.548 532.231 467.548C534.128 467.548 535.613 468.179 536.687 469.44C537.769 470.693 538.311 472.305 538.311 474.274V474.53C538.311 476.516 537.769 478.135 536.687 479.389C535.613 480.634 534.136 481.256 532.256 481.256C530.368 481.256 528.883 480.63 527.8 479.376C526.726 478.123 526.189 476.508 526.189 474.53V474.274ZM529.155 474.53C529.155 475.816 529.408 476.866 529.912 477.68C530.409 478.485 531.19 478.888 532.256 478.888C533.289 478.888 534.062 478.485 534.575 477.68C535.096 476.866 535.356 475.816 535.356 474.53V474.274C535.356 473.013 535.096 471.975 534.575 471.161C534.062 470.339 533.281 469.928 532.231 469.928C531.198 469.928 530.425 470.339 529.912 471.161C529.408 471.983 529.155 473.021 529.155 474.274V474.53ZM545.195 475.226H543.865V481H540.911V461.957H543.865V472.846H545.098L548.43 467.792H551.921L547.563 473.798L552.568 481H549.126L545.195 475.226ZM557.146 481H554.18V467.792H557.146V481ZM557.146 464.557H554.18V461.957H557.146V464.557ZM563.164 467.792L563.335 469.696C563.766 469.021 564.307 468.496 564.958 468.122C565.618 467.739 566.358 467.548 567.18 467.548C568.556 467.548 569.626 467.967 570.391 468.805C571.164 469.635 571.55 470.933 571.55 472.699V481H568.584V472.724C568.584 471.731 568.376 471.027 567.961 470.612C567.555 470.189 566.932 469.977 566.094 469.977C565.516 469.977 564.999 470.107 564.543 470.368C564.088 470.62 563.713 470.97 563.42 471.417V481H560.454V467.792H563.164ZM574.102 474.579C574.102 472.479 574.561 470.783 575.481 469.489C576.401 468.195 577.678 467.548 579.314 467.548C580.103 467.548 580.795 467.719 581.389 468.061C581.991 468.394 582.5 468.878 582.915 469.513L583.208 467.792H585.674V481C585.674 482.701 585.149 484.015 584.099 484.943C583.049 485.871 581.56 486.334 579.631 486.334C578.988 486.334 578.293 486.241 577.544 486.054C576.803 485.875 576.132 485.635 575.53 485.333L576.165 483.002C576.653 483.254 577.19 483.45 577.776 483.588C578.37 483.734 578.98 483.808 579.607 483.808C580.681 483.808 581.466 483.576 581.963 483.112C582.459 482.656 582.708 481.952 582.708 481V479.645C582.292 480.174 581.8 480.577 581.23 480.854C580.669 481.122 580.022 481.256 579.29 481.256C577.67 481.256 576.401 480.666 575.481 479.486C574.561 478.306 574.102 476.756 574.102 474.835V474.579ZM577.068 474.835C577.068 476.048 577.308 477.021 577.788 477.753C578.276 478.477 579.029 478.839 580.046 478.839C580.681 478.839 581.214 478.709 581.646 478.449C582.085 478.18 582.439 477.798 582.708 477.301V471.515C582.431 471.035 582.073 470.661 581.633 470.392C581.202 470.115 580.681 469.977 580.071 469.977C579.054 469.977 578.297 470.404 577.8 471.259C577.312 472.113 577.068 473.22 577.068 474.579V474.835ZM499.907 507.262V514H496.941V496.227H503.887C505.848 496.227 507.382 496.735 508.489 497.752C509.604 498.762 510.161 500.092 510.161 501.744C510.161 503.412 509.604 504.751 508.489 505.76C507.382 506.761 505.848 507.262 503.887 507.262H499.907ZM499.907 504.881H503.887C504.985 504.881 505.811 504.588 506.365 504.002C506.918 503.417 507.195 502.672 507.195 501.769C507.195 500.865 506.918 500.112 506.365 499.51C505.811 498.908 504.985 498.607 503.887 498.607H499.907V504.881ZM515.41 500.792L515.581 502.696C516.012 502.021 516.554 501.496 517.205 501.122C517.864 500.739 518.604 500.548 519.426 500.548C520.802 500.548 521.872 500.967 522.637 501.805C523.41 502.635 523.796 503.933 523.796 505.699V514H520.83V505.724C520.83 504.731 520.623 504.027 520.208 503.612C519.801 503.189 519.178 502.977 518.34 502.977C517.762 502.977 517.245 503.107 516.79 503.368C516.334 503.62 515.959 503.97 515.667 504.417V514H512.7V500.792H515.41ZM530.046 514H527.08V494.957H530.046V514ZM542.766 514H539.8V494.957H542.766V514ZM549.26 514H546.294V500.792H549.26V514ZM549.26 497.557H546.294V494.957H549.26V497.557ZM564.189 507.835C564.189 509.764 563.738 511.319 562.834 512.499C561.939 513.67 560.674 514.256 559.038 514.256C558.216 514.256 557.5 514.09 556.89 513.756C556.287 513.422 555.783 512.934 555.376 512.291L555.083 514H552.593V494.957H555.559V502.293C555.966 501.732 556.454 501.301 557.024 501C557.594 500.698 558.257 500.548 559.014 500.548C560.666 500.548 561.939 501.191 562.834 502.477C563.738 503.762 564.189 505.463 564.189 507.579V507.835ZM561.223 507.579C561.223 506.204 560.987 505.093 560.515 504.247C560.043 503.4 559.294 502.977 558.269 502.977C557.61 502.977 557.056 503.124 556.609 503.417C556.169 503.709 555.819 504.116 555.559 504.637V510.179C555.811 510.708 556.161 511.119 556.609 511.412C557.056 511.697 557.618 511.839 558.293 511.839C559.319 511.839 560.063 511.481 560.527 510.765C560.991 510.041 561.223 509.064 561.223 507.835V507.579ZM573.333 503.465L572.063 503.417C571.485 503.417 571.001 503.539 570.61 503.783C570.228 504.027 569.931 504.373 569.719 504.82V514H566.753V500.792H569.463L569.658 502.708C569.992 502.033 570.419 501.504 570.94 501.122C571.469 500.739 572.075 500.548 572.759 500.548C572.938 500.548 573.105 500.564 573.259 500.597C573.414 500.621 573.556 500.654 573.687 500.694L573.333 503.465ZM583.367 514C583.261 513.666 583.171 513.341 583.098 513.023C583.033 512.706 582.988 512.389 582.964 512.071C582.557 512.69 582.02 513.211 581.353 513.634C580.693 514.049 579.953 514.256 579.131 514.256C577.756 514.256 576.698 513.902 575.957 513.194C575.225 512.486 574.858 511.514 574.858 510.277C574.858 508.999 575.363 508.006 576.372 507.298C577.381 506.582 578.801 506.224 580.632 506.224H582.939V505.064C582.939 504.373 582.736 503.832 582.329 503.441C581.922 503.05 581.34 502.855 580.583 502.855C579.908 502.855 579.371 503.018 578.972 503.343C578.573 503.669 578.374 504.088 578.374 504.601H575.518L575.505 504.527C575.448 503.486 575.912 502.562 576.897 501.756C577.89 500.951 579.18 500.548 580.767 500.548C582.305 500.548 583.546 500.938 584.49 501.72C585.434 502.501 585.906 503.624 585.906 505.089V510.96C585.906 511.506 585.942 512.031 586.016 512.535C586.089 513.032 586.207 513.52 586.37 514H583.367ZM579.729 511.876C580.478 511.876 581.149 511.689 581.743 511.314C582.345 510.94 582.744 510.513 582.939 510.033V508.08H580.583C579.721 508.08 579.045 508.295 578.557 508.727C578.069 509.15 577.825 509.65 577.825 510.228C577.825 510.733 577.987 511.135 578.313 511.437C578.647 511.729 579.119 511.876 579.729 511.876ZM595.598 503.465L594.329 503.417C593.751 503.417 593.267 503.539 592.876 503.783C592.493 504.027 592.196 504.373 591.985 504.82V514H589.019V500.792H591.729L591.924 502.708C592.257 502.033 592.685 501.504 593.206 501.122C593.735 500.739 594.341 500.548 595.024 500.548C595.203 500.548 595.37 500.564 595.525 500.597C595.68 500.621 595.822 500.654 595.952 500.694L595.598 503.465ZM602.336 508.702L602.629 510.021H602.703L605.596 500.792H608.843L603.374 516.002C603.024 516.922 602.532 517.707 601.897 518.358C601.262 519.009 600.363 519.334 599.199 519.334C598.955 519.334 598.691 519.31 598.406 519.261C598.129 519.212 597.861 519.155 597.6 519.09L597.93 516.795C598.035 516.804 598.186 516.816 598.381 516.832C598.577 516.848 598.723 516.856 598.821 516.856C599.358 516.856 599.785 516.673 600.103 516.307C600.428 515.941 600.693 515.518 600.896 515.038L601.384 513.841L596.587 500.792H599.822L602.336 508.702Z" fill="#00516B"/>
<path d="M482 411C484.209 411 486 409.209 486 407C486 404.791 484.209 403 482 403C479.791 403 478 404.791 478 407C478 409.209 479.791 411 482 411Z" fill="#70F1C9"/>
<path d="M264 411C266.209 411 268 409.209 268 407C268 404.791 266.209 403 264 403C261.791 403 260 404.791 260 407C260 409.209 261.791 411 264 411Z" fill="#70F1C9"/>
<path d="M56 411C58.2091 411 60 409.209 60 407C60 404.791 58.2091 403 56 403C53.7909 403 52 404.791 52 407C52 409.209 53.7909 411 56 411Z" fill="#70F1C9"/>
<path d="M482 510C484.209 510 486 508.209 486 506C486 503.791 484.209 502 482 502C479.791 502 478 503.791 478 506C478 508.209 479.791 510 482 510Z" fill="#70F1C9"/>
<path d="M264 445C266.209 445 268 443.209 268 441C268 438.791 266.209 437 264 437C261.791 437 260 438.791 260 441C260 443.209 261.791 445 264 445Z" fill="#70F1C9"/>
<path d="M56 445C58.2091 445 60 443.209 60 441C60 438.791 58.2091 437 56 437C53.7909 437 52 438.791 52 441C52 443.209 53.7909 445 56 445Z" fill="#70F1C9"/>
<path d="M482 476C484.209 476 486 474.209 486 472C486 469.791 484.209 468 482 468C479.791 468 478 469.791 478 472C478 474.209 479.791 476 482 476Z" fill="#70F1C9"/>
<path d="M56 476C58.2091 476 60 474.209 60 472C60 469.791 58.2091 468 56 468C53.7909 468 52 469.791 52 472C52 474.209 53.7909 476 56 476Z" fill="#70F1C9"/>
<path d="M56 507C58.2091 507 60 505.209 60 503C60 500.791 58.2091 499 56 499C53.7909 499 52 500.791 52 503C52 505.209 53.7909 507 56 507Z" fill="#70F1C9"/>
<path d="M281.907 412.632H290.074V415H278.941V397.227H281.907V412.632ZM295.25 415H292.283V401.792H295.25V415ZM295.25 398.557H292.283V395.957H295.25V398.557ZM299.546 415V403.989H297.532V401.792H299.546V400.254C299.546 398.797 299.941 397.674 300.73 396.885C301.528 396.095 302.643 395.701 304.075 395.701C304.36 395.701 304.649 395.725 304.942 395.774C305.235 395.815 305.564 395.876 305.931 395.957L305.625 398.252C305.463 398.219 305.28 398.191 305.076 398.167C304.881 398.142 304.669 398.13 304.441 398.13C303.799 398.13 303.314 398.313 302.989 398.679C302.671 399.045 302.513 399.57 302.513 400.254V401.792H305.198V403.989H302.513V415H299.546ZM313.035 415.256C311.163 415.256 309.67 414.646 308.555 413.425C307.448 412.196 306.895 410.622 306.895 408.701V408.213C306.895 406.292 307.444 404.701 308.543 403.44C309.65 402.17 311.033 401.54 312.693 401.548C314.476 401.548 315.839 402.089 316.783 403.171C317.735 404.246 318.211 405.69 318.211 407.505V409.25H309.971L309.947 409.312C309.996 410.361 310.301 411.22 310.862 411.887C311.432 412.555 312.217 412.888 313.218 412.888C314.016 412.888 314.699 412.791 315.269 412.595C315.839 412.4 316.388 412.119 316.917 411.753L317.869 413.694C317.373 414.133 316.714 414.504 315.892 414.805C315.07 415.106 314.118 415.256 313.035 415.256ZM312.693 403.928C311.961 403.928 311.359 404.221 310.887 404.807C310.415 405.385 310.122 406.121 310.008 407.017L310.032 407.078H315.269V406.772C315.269 405.934 315.053 405.251 314.622 404.722C314.199 404.193 313.556 403.928 312.693 403.928ZM326.06 412.888C326.784 412.888 327.395 412.677 327.891 412.253C328.388 411.822 328.636 411.285 328.636 410.642H331.321L331.346 410.715C331.386 411.952 330.882 413.018 329.832 413.914C328.79 414.809 327.533 415.256 326.06 415.256C324.115 415.256 322.622 414.63 321.58 413.376C320.547 412.123 320.03 410.536 320.03 408.616V408.188C320.03 406.276 320.547 404.693 321.58 403.44C322.622 402.179 324.115 401.548 326.06 401.548C327.647 401.548 328.933 402.012 329.917 402.939C330.91 403.859 331.39 405.031 331.358 406.455L331.333 406.528H328.636C328.636 405.804 328.396 405.19 327.916 404.685C327.444 404.181 326.825 403.928 326.06 403.928C324.945 403.928 324.156 404.335 323.692 405.149C323.228 405.955 322.996 406.968 322.996 408.188V408.616C322.996 409.861 323.228 410.886 323.692 411.692C324.156 412.489 324.945 412.888 326.06 412.888ZM338.121 409.702L338.414 411.021H338.487L341.38 401.792H344.627L339.158 417.002C338.808 417.922 338.316 418.707 337.681 419.358C337.046 420.009 336.147 420.334 334.983 420.334C334.739 420.334 334.475 420.31 334.19 420.261C333.913 420.212 333.645 420.155 333.384 420.09L333.714 417.795C333.82 417.804 333.97 417.816 334.166 417.832C334.361 417.848 334.507 417.856 334.605 417.856C335.142 417.856 335.569 417.673 335.887 417.307C336.212 416.941 336.477 416.518 336.68 416.038L337.168 414.841L332.371 401.792H335.606L338.121 409.702ZM351.695 412.888C352.419 412.888 353.029 412.677 353.526 412.253C354.022 411.822 354.271 411.285 354.271 410.642H356.956L356.98 410.715C357.021 411.952 356.517 413.018 355.467 413.914C354.425 414.809 353.168 415.256 351.695 415.256C349.75 415.256 348.257 414.63 347.215 413.376C346.181 412.123 345.665 410.536 345.665 408.616V408.188C345.665 406.276 346.181 404.693 347.215 403.44C348.257 402.179 349.75 401.548 351.695 401.548C353.282 401.548 354.568 402.012 355.552 402.939C356.545 403.859 357.025 405.031 356.993 406.455L356.968 406.528H354.271C354.271 405.804 354.03 405.19 353.55 404.685C353.078 404.181 352.46 403.928 351.695 403.928C350.58 403.928 349.791 404.335 349.327 405.149C348.863 405.955 348.631 406.968 348.631 408.188V408.616C348.631 409.861 348.863 410.886 349.327 411.692C349.791 412.489 350.58 412.888 351.695 412.888ZM362.535 415H359.568V395.957H362.535V415ZM371.531 415.256C369.66 415.256 368.166 414.646 367.051 413.425C365.944 412.196 365.391 410.622 365.391 408.701V408.213C365.391 406.292 365.94 404.701 367.039 403.44C368.146 402.17 369.529 401.54 371.189 401.548C372.972 401.548 374.335 402.089 375.279 403.171C376.231 404.246 376.707 405.69 376.707 407.505V409.25H368.467L368.443 409.312C368.492 410.361 368.797 411.22 369.358 411.887C369.928 412.555 370.713 412.888 371.714 412.888C372.512 412.888 373.195 412.791 373.765 412.595C374.335 412.4 374.884 412.119 375.413 411.753L376.365 413.694C375.869 414.133 375.21 414.504 374.388 414.805C373.566 415.106 372.614 415.256 371.531 415.256ZM371.189 403.928C370.457 403.928 369.855 404.221 369.383 404.807C368.911 405.385 368.618 406.121 368.504 407.017L368.528 407.078H373.765V406.772C373.765 405.934 373.549 405.251 373.118 404.722C372.695 404.193 372.052 403.928 371.189 403.928ZM288.572 443.435C288.572 442.694 288.296 442.088 287.742 441.616C287.197 441.144 286.229 440.721 284.837 440.346C282.851 439.825 281.321 439.138 280.247 438.283C279.181 437.421 278.648 436.293 278.648 434.902C278.648 433.47 279.238 432.29 280.418 431.362C281.606 430.434 283.136 429.97 285.008 429.97C286.961 429.97 288.528 430.495 289.708 431.545C290.896 432.595 291.469 433.856 291.429 435.329L291.404 435.402H288.56C288.56 434.491 288.251 433.754 287.632 433.193C287.014 432.623 286.131 432.338 284.983 432.338C283.901 432.338 283.067 432.574 282.481 433.046C281.903 433.518 281.614 434.129 281.614 434.877C281.614 435.553 281.928 436.114 282.554 436.562C283.189 437.01 284.235 437.433 285.691 437.832C287.604 438.344 289.056 439.052 290.049 439.956C291.042 440.859 291.539 442.01 291.539 443.41C291.539 444.891 290.944 446.071 289.756 446.95C288.576 447.821 287.022 448.256 285.093 448.256C283.238 448.256 281.61 447.768 280.21 446.792C278.811 445.807 278.131 444.46 278.172 442.751L278.196 442.678H281.053C281.053 443.76 281.427 444.57 282.176 445.107C282.924 445.636 283.897 445.9 285.093 445.9C286.192 445.9 287.046 445.681 287.657 445.241C288.267 444.794 288.572 444.191 288.572 443.435ZM299.949 448.256C298.077 448.256 296.584 447.646 295.469 446.425C294.362 445.196 293.809 443.622 293.809 441.701V441.213C293.809 439.292 294.358 437.701 295.457 436.44C296.564 435.17 297.947 434.54 299.607 434.548C301.39 434.548 302.753 435.089 303.697 436.171C304.649 437.246 305.125 438.69 305.125 440.505V442.25H296.885L296.861 442.312C296.91 443.361 297.215 444.22 297.776 444.887C298.346 445.555 299.131 445.888 300.132 445.888C300.93 445.888 301.613 445.791 302.183 445.595C302.753 445.4 303.302 445.119 303.831 444.753L304.783 446.694C304.287 447.133 303.628 447.504 302.806 447.805C301.984 448.106 301.032 448.256 299.949 448.256ZM299.607 436.928C298.875 436.928 298.273 437.221 297.801 437.807C297.329 438.385 297.036 439.121 296.922 440.017L296.946 440.078H302.183V439.772C302.183 438.934 301.967 438.251 301.536 437.722C301.113 437.193 300.47 436.928 299.607 436.928ZM311.204 431.582V434.792H313.572V436.989H311.204V444.289C311.204 444.834 311.322 445.225 311.558 445.461C311.794 445.689 312.107 445.803 312.498 445.803C312.661 445.803 312.819 445.791 312.974 445.766C313.129 445.734 313.275 445.693 313.414 445.644L313.731 447.817C313.479 447.955 313.178 448.061 312.828 448.134C312.478 448.216 312.116 448.256 311.741 448.256C310.651 448.256 309.796 447.939 309.178 447.304C308.559 446.661 308.25 445.656 308.25 444.289V436.989H306.236V434.792H308.25V431.582H311.204ZM319.896 431.582V434.792H322.264V436.989H319.896V444.289C319.896 444.834 320.014 445.225 320.25 445.461C320.486 445.689 320.799 445.803 321.189 445.803C321.352 445.803 321.511 445.791 321.666 445.766C321.82 445.734 321.967 445.693 322.105 445.644L322.422 447.817C322.17 447.955 321.869 448.061 321.519 448.134C321.169 448.216 320.807 448.256 320.433 448.256C319.342 448.256 318.488 447.939 317.869 447.304C317.251 446.661 316.941 445.656 316.941 444.289V436.989H314.927V434.792H316.941V431.582H319.896ZM328.062 448H325.096V428.957H328.062V448ZM337.059 448.256C335.187 448.256 333.694 447.646 332.579 446.425C331.472 445.196 330.918 443.622 330.918 441.701V441.213C330.918 439.292 331.468 437.701 332.566 436.44C333.673 435.17 335.057 434.54 336.717 434.548C338.499 434.548 339.862 435.089 340.806 436.171C341.758 437.246 342.234 438.69 342.234 440.505V442.25H333.995L333.97 442.312C334.019 443.361 334.324 444.22 334.886 444.887C335.455 445.555 336.241 445.888 337.242 445.888C338.039 445.888 338.723 445.791 339.292 445.595C339.862 445.4 340.411 445.119 340.94 444.753L341.893 446.694C341.396 447.133 340.737 447.504 339.915 447.805C339.093 448.106 338.141 448.256 337.059 448.256ZM336.717 436.928C335.984 436.928 335.382 437.221 334.91 437.807C334.438 438.385 334.145 439.121 334.031 440.017L334.056 440.078H339.292V439.772C339.292 438.934 339.077 438.251 338.646 437.722C338.222 437.193 337.579 436.928 336.717 436.928ZM347.337 434.792L347.496 436.513C347.927 435.887 348.468 435.402 349.119 435.061C349.77 434.719 350.523 434.548 351.377 434.548C352.24 434.548 352.981 434.743 353.599 435.134C354.218 435.524 354.681 436.11 354.991 436.892C355.398 436.159 355.935 435.585 356.602 435.17C357.269 434.755 358.051 434.548 358.946 434.548C360.272 434.548 361.318 435.004 362.083 435.915C362.856 436.818 363.243 438.194 363.243 440.041V448H360.276V440.029C360.276 438.906 360.081 438.116 359.69 437.661C359.308 437.205 358.73 436.977 357.957 436.977C357.322 436.977 356.785 437.148 356.346 437.49C355.906 437.832 355.589 438.291 355.394 438.869C355.394 438.991 355.398 439.097 355.406 439.187C355.414 439.276 355.418 439.361 355.418 439.443V448H352.452V440.029C352.452 438.946 352.252 438.169 351.854 437.697C351.463 437.217 350.885 436.977 350.12 436.977C349.518 436.977 349.005 437.095 348.582 437.331C348.167 437.559 347.837 437.884 347.593 438.308V448H344.627V434.792H347.337ZM372.044 448.256C370.172 448.256 368.679 447.646 367.564 446.425C366.457 445.196 365.904 443.622 365.904 441.701V441.213C365.904 439.292 366.453 437.701 367.552 436.44C368.659 435.17 370.042 434.54 371.702 434.548C373.484 434.548 374.847 435.089 375.792 436.171C376.744 437.246 377.22 438.69 377.22 440.505V442.25H368.98L368.956 442.312C369.004 443.361 369.31 444.22 369.871 444.887C370.441 445.555 371.226 445.888 372.227 445.888C373.025 445.888 373.708 445.791 374.278 445.595C374.847 445.4 375.397 445.119 375.926 444.753L376.878 446.694C376.382 447.133 375.722 447.504 374.9 447.805C374.078 448.106 373.126 448.256 372.044 448.256ZM371.702 436.928C370.97 436.928 370.368 437.221 369.896 437.807C369.424 438.385 369.131 439.121 369.017 440.017L369.041 440.078H374.278V439.772C374.278 438.934 374.062 438.251 373.631 437.722C373.208 437.193 372.565 436.928 371.702 436.928ZM382.298 434.792L382.469 436.696C382.9 436.021 383.441 435.496 384.092 435.122C384.751 434.739 385.492 434.548 386.314 434.548C387.689 434.548 388.759 434.967 389.524 435.805C390.298 436.635 390.684 437.933 390.684 439.699V448H387.718V439.724C387.718 438.731 387.51 438.027 387.095 437.612C386.688 437.189 386.066 436.977 385.228 436.977C384.65 436.977 384.133 437.107 383.677 437.368C383.222 437.62 382.847 437.97 382.554 438.417V448H379.588V434.792H382.298ZM397.459 431.582V434.792H399.827V436.989H397.459V444.289C397.459 444.834 397.577 445.225 397.813 445.461C398.049 445.689 398.362 445.803 398.753 445.803C398.916 445.803 399.074 445.791 399.229 445.766C399.384 445.734 399.53 445.693 399.668 445.644L399.986 447.817C399.734 447.955 399.432 448.061 399.083 448.134C398.733 448.216 398.37 448.256 397.996 448.256C396.906 448.256 396.051 447.939 395.433 447.304C394.814 446.661 394.505 445.656 394.505 444.289V436.989H392.491V434.792H394.505V431.582H397.459ZM407.884 443.203C407.884 442.226 408.16 441.38 408.714 440.664C409.267 439.939 410.097 439.211 411.204 438.479C410.61 437.705 410.167 437.006 409.874 436.379C409.581 435.752 409.434 435.113 409.434 434.462C409.434 433.071 409.853 431.976 410.691 431.179C411.53 430.373 412.661 429.97 414.085 429.97C415.379 429.97 416.429 430.361 417.234 431.142C418.048 431.915 418.455 432.851 418.455 433.95C418.455 434.747 418.243 435.459 417.82 436.086C417.405 436.704 416.815 437.294 416.05 437.856L414.83 438.735L418.553 443.154C418.878 442.641 419.131 442.08 419.31 441.469C419.497 440.859 419.59 440.212 419.59 439.528H421.995C421.995 440.643 421.845 441.669 421.543 442.604C421.25 443.54 420.803 444.375 420.201 445.107L422.593 447.939L422.569 448H419.224L418.235 446.84C417.568 447.304 416.852 447.658 416.087 447.902C415.33 448.138 414.528 448.256 413.682 448.256C411.916 448.256 410.508 447.788 409.458 446.853C408.409 445.917 407.884 444.7 407.884 443.203ZM413.768 445.888C414.272 445.888 414.773 445.815 415.269 445.668C415.765 445.522 416.237 445.306 416.685 445.021L412.681 440.297L412.315 440.566C411.729 441.022 411.338 441.461 411.143 441.884C410.948 442.307 410.85 442.714 410.85 443.105C410.85 443.919 411.106 444.586 411.619 445.107C412.132 445.628 412.848 445.888 413.768 445.888ZM412.217 434.426C412.217 434.816 412.315 435.219 412.51 435.634C412.714 436.049 413.011 436.509 413.401 437.014L414.793 436.086C415.257 435.785 415.566 435.472 415.721 435.146C415.883 434.812 415.965 434.446 415.965 434.047C415.965 433.608 415.79 433.217 415.44 432.875C415.098 432.526 414.646 432.351 414.085 432.351C413.483 432.351 413.019 432.55 412.693 432.949C412.376 433.347 412.217 433.84 412.217 434.426ZM286.509 481C286.403 480.666 286.314 480.341 286.241 480.023C286.176 479.706 286.131 479.389 286.106 479.071C285.7 479.69 285.162 480.211 284.495 480.634C283.836 481.049 283.095 481.256 282.273 481.256C280.898 481.256 279.84 480.902 279.1 480.194C278.367 479.486 278.001 478.514 278.001 477.277C278.001 475.999 278.506 475.006 279.515 474.298C280.524 473.582 281.944 473.224 283.775 473.224H286.082V472.064C286.082 471.373 285.879 470.832 285.472 470.441C285.065 470.05 284.483 469.855 283.726 469.855C283.051 469.855 282.514 470.018 282.115 470.343C281.716 470.669 281.517 471.088 281.517 471.601H278.66L278.648 471.527C278.591 470.486 279.055 469.562 280.04 468.756C281.032 467.951 282.322 467.548 283.909 467.548C285.447 467.548 286.688 467.938 287.632 468.72C288.576 469.501 289.048 470.624 289.048 472.089V477.96C289.048 478.506 289.085 479.031 289.158 479.535C289.231 480.032 289.349 480.52 289.512 481H286.509ZM282.872 478.876C283.62 478.876 284.292 478.689 284.886 478.314C285.488 477.94 285.887 477.513 286.082 477.033V475.08H283.726C282.863 475.08 282.188 475.295 281.7 475.727C281.211 476.15 280.967 476.65 280.967 477.228C280.967 477.733 281.13 478.135 281.456 478.437C281.789 478.729 282.261 478.876 282.872 478.876ZM297.618 478.888C298.342 478.888 298.952 478.677 299.449 478.253C299.945 477.822 300.193 477.285 300.193 476.642H302.879L302.903 476.715C302.944 477.952 302.439 479.018 301.39 479.914C300.348 480.809 299.091 481.256 297.618 481.256C295.673 481.256 294.179 480.63 293.138 479.376C292.104 478.123 291.587 476.536 291.587 474.616V474.188C291.587 472.276 292.104 470.693 293.138 469.44C294.179 468.179 295.673 467.548 297.618 467.548C299.205 467.548 300.49 468.012 301.475 468.939C302.468 469.859 302.948 471.031 302.916 472.455L302.891 472.528H300.193C300.193 471.804 299.953 471.19 299.473 470.685C299.001 470.181 298.383 469.928 297.618 469.928C296.503 469.928 295.713 470.335 295.25 471.149C294.786 471.955 294.554 472.968 294.554 474.188V474.616C294.554 475.861 294.786 476.886 295.25 477.692C295.713 478.489 296.503 478.888 297.618 478.888ZM310.752 478.888C311.477 478.888 312.087 478.677 312.583 478.253C313.08 477.822 313.328 477.285 313.328 476.642H316.014L316.038 476.715C316.079 477.952 315.574 479.018 314.524 479.914C313.483 480.809 312.225 481.256 310.752 481.256C308.807 481.256 307.314 480.63 306.272 479.376C305.239 478.123 304.722 476.536 304.722 474.616V474.188C304.722 472.276 305.239 470.693 306.272 469.44C307.314 468.179 308.807 467.548 310.752 467.548C312.339 467.548 313.625 468.012 314.61 468.939C315.603 469.859 316.083 471.031 316.05 472.455L316.026 472.528H313.328C313.328 471.804 313.088 471.19 312.608 470.685C312.136 470.181 311.517 469.928 310.752 469.928C309.638 469.928 308.848 470.335 308.384 471.149C307.92 471.955 307.688 472.968 307.688 474.188V474.616C307.688 475.861 307.92 476.886 308.384 477.692C308.848 478.489 309.638 478.888 310.752 478.888ZM317.881 474.274C317.881 472.313 318.418 470.701 319.493 469.44C320.583 468.179 322.06 467.548 323.924 467.548C325.82 467.548 327.305 468.179 328.379 469.44C329.462 470.693 330.003 472.305 330.003 474.274V474.53C330.003 476.516 329.462 478.135 328.379 479.389C327.305 480.634 325.828 481.256 323.948 481.256C322.06 481.256 320.575 480.63 319.493 479.376C318.418 478.123 317.881 476.508 317.881 474.53V474.274ZM320.848 474.53C320.848 475.816 321.1 476.866 321.604 477.68C322.101 478.485 322.882 478.888 323.948 478.888C324.982 478.888 325.755 478.485 326.268 477.68C326.788 476.866 327.049 475.816 327.049 474.53V474.274C327.049 473.013 326.788 471.975 326.268 471.161C325.755 470.339 324.974 469.928 323.924 469.928C322.89 469.928 322.117 470.339 321.604 471.161C321.1 471.983 320.848 473.021 320.848 474.274V474.53ZM340.818 479.071C340.403 479.771 339.878 480.312 339.244 480.695C338.609 481.069 337.876 481.256 337.046 481.256C335.63 481.256 334.524 480.805 333.726 479.901C332.929 478.998 332.53 477.594 332.53 475.69V467.792H335.484V475.714C335.484 476.87 335.671 477.68 336.045 478.144C336.42 478.607 336.985 478.839 337.742 478.839C338.458 478.839 339.056 478.713 339.537 478.461C340.025 478.201 340.407 477.826 340.684 477.338V467.792H343.65V481H341.062L340.818 479.071ZM349.437 467.792L349.607 469.696C350.039 469.021 350.58 468.496 351.231 468.122C351.89 467.739 352.631 467.548 353.453 467.548C354.828 467.548 355.898 467.967 356.663 468.805C357.436 469.635 357.823 470.933 357.823 472.699V481H354.856V472.724C354.856 471.731 354.649 471.027 354.234 470.612C353.827 470.189 353.204 469.977 352.366 469.977C351.788 469.977 351.272 470.107 350.816 470.368C350.36 470.62 349.986 470.97 349.693 471.417V481H346.727V467.792H349.437ZM364.598 464.582V467.792H366.966V469.989H364.598V477.289C364.598 477.834 364.716 478.225 364.952 478.461C365.188 478.689 365.501 478.803 365.892 478.803C366.054 478.803 366.213 478.791 366.368 478.766C366.522 478.734 366.669 478.693 366.807 478.644L367.125 480.817C366.872 480.955 366.571 481.061 366.221 481.134C365.871 481.216 365.509 481.256 365.135 481.256C364.044 481.256 363.19 480.939 362.571 480.304C361.953 479.661 361.644 478.656 361.644 477.289V469.989H359.629V467.792H361.644V464.582H364.598ZM372.764 481H369.798V467.792H372.764V481ZM372.764 464.557H369.798V461.957H372.764V464.557ZM378.782 467.792L378.953 469.696C379.384 469.021 379.926 468.496 380.577 468.122C381.236 467.739 381.976 467.548 382.798 467.548C384.174 467.548 385.244 467.967 386.009 468.805C386.782 469.635 387.168 470.933 387.168 472.699V481H384.202V472.724C384.202 471.731 383.995 471.027 383.58 470.612C383.173 470.189 382.55 469.977 381.712 469.977C381.134 469.977 380.617 470.107 380.162 470.368C379.706 470.62 379.332 470.97 379.039 471.417V481H376.072V467.792H378.782ZM389.72 474.579C389.72 472.479 390.18 470.783 391.099 469.489C392.019 468.195 393.296 467.548 394.932 467.548C395.722 467.548 396.413 467.719 397.007 468.061C397.61 468.394 398.118 468.878 398.533 469.513L398.826 467.792H401.292V481C401.292 482.701 400.767 484.015 399.717 484.943C398.667 485.871 397.178 486.334 395.25 486.334C394.607 486.334 393.911 486.241 393.162 486.054C392.422 485.875 391.75 485.635 391.148 485.333L391.783 483.002C392.271 483.254 392.808 483.45 393.394 483.588C393.988 483.734 394.598 483.808 395.225 483.808C396.299 483.808 397.085 483.576 397.581 483.112C398.077 482.656 398.326 481.952 398.326 481V479.645C397.911 480.174 397.418 480.577 396.849 480.854C396.287 481.122 395.64 481.256 394.908 481.256C393.288 481.256 392.019 480.666 391.099 479.486C390.18 478.306 389.72 476.756 389.72 474.835V474.579ZM392.686 474.835C392.686 476.048 392.926 477.021 393.406 477.753C393.895 478.477 394.647 478.839 395.665 478.839C396.299 478.839 396.832 478.709 397.264 478.449C397.703 478.18 398.057 477.798 398.326 477.301V471.515C398.049 471.035 397.691 470.661 397.251 470.392C396.82 470.115 396.299 469.977 395.689 469.977C394.672 469.977 393.915 470.404 393.418 471.259C392.93 472.113 392.686 473.22 392.686 474.579V474.835Z" fill="#00516B"/>
<path d="M56 322H484" stroke="#70F1C9" stroke-width="2"/>
<path d="M483 323V377" stroke="#70F1C9" stroke-width="2"/>
<path d="M265 323V377" stroke="#70F1C9" stroke-width="2"/>
<path d="M338 243V323" stroke="#70F1C9" stroke-width="2"/>
<path d="M57 323V377" stroke="#70F1C9" stroke-width="2"/>
</svg>
