<svg width="597" height="507" viewBox="0 0 597 507" fill="none" xmlns="http://www.w3.org/2000/svg">
<g clip-path="url(#clip0)">
<path d="M530.703 268.621C530.703 399.449 424.465 505.509 293.411 505.509C162.358 505.509 56.1201 399.449 56.1201 268.621C56.1201 137.792 162.358 31.7321 293.411 31.7321C424.465 31.7321 530.703 137.792 530.703 268.621Z" fill="white" stroke="#70F1C9" stroke-width="2"/>
<path d="M417.919 156.026C417.919 223.277 363.875 277.78 297.229 277.78C230.582 277.78 176.539 223.277 176.539 156.026C176.539 88.7746 230.582 34.272 297.229 34.272C363.875 34.272 417.919 88.7746 417.919 156.026Z" fill="white" stroke="#70F1C9" stroke-width="2"/>
<path d="M371.277 409.153C371.277 452.081 336.417 486.884 293.412 486.884C250.407 486.884 215.547 452.081 215.547 409.153C215.547 366.224 250.407 331.42 293.412 331.42C336.417 331.42 371.277 366.224 371.277 409.153Z" fill="white" stroke="#70F1C9" stroke-width="2"/>
<path d="M258.875 159.415H252.282V164.18H259.932V166.184H249.766V151.139H259.859V153.153H252.282V157.401H258.875V159.415ZM264.02 155.003L264.165 156.615C264.531 156.044 264.99 155.599 265.542 155.282C266.101 154.958 266.73 154.797 267.426 154.797C268.592 154.797 269.5 155.151 270.148 155.861C270.804 156.563 271.132 157.662 271.132 159.157V166.184H268.616V159.179C268.616 158.338 268.441 157.742 268.089 157.391C267.743 157.032 267.215 156.853 266.505 156.853C266.015 156.853 265.576 156.963 265.19 157.184C264.804 157.397 264.487 157.693 264.238 158.072V166.184H261.722V155.003H264.02ZM276.877 152.285V155.003H278.886V156.863H276.877V163.043C276.877 163.505 276.977 163.836 277.177 164.035C277.377 164.228 277.643 164.325 277.974 164.325C278.112 164.325 278.247 164.314 278.378 164.294C278.509 164.266 278.634 164.232 278.751 164.19L279.02 166.03C278.806 166.147 278.551 166.236 278.254 166.298C277.957 166.367 277.65 166.401 277.333 166.401C276.408 166.401 275.683 166.133 275.159 165.595C274.634 165.051 274.372 164.2 274.372 163.043V156.863H272.664V155.003H274.372V152.285H276.877ZM286.701 157.266L285.624 157.225C285.135 157.225 284.723 157.329 284.393 157.535C284.068 157.742 283.816 158.035 283.637 158.413V166.184H281.121V155.003H283.419L283.586 156.625C283.867 156.054 284.231 155.606 284.672 155.282C285.12 154.958 285.635 154.797 286.214 154.797C286.366 154.797 286.508 154.81 286.639 154.838C286.77 154.858 286.891 154.886 287.001 154.92L286.701 157.266ZM293.274 166.401C291.687 166.401 290.42 165.885 289.475 164.851C288.537 163.811 288.067 162.478 288.067 160.852V160.439C288.067 158.813 288.534 157.466 289.465 156.398C290.403 155.323 291.576 154.79 292.984 154.797C294.496 154.797 295.652 155.255 296.452 156.17C297.259 157.08 297.663 158.303 297.663 159.84V161.317H290.676L290.655 161.369C290.697 162.258 290.955 162.984 291.432 163.549C291.915 164.115 292.581 164.396 293.43 164.396C294.106 164.396 294.686 164.314 295.168 164.149C295.652 163.983 296.117 163.746 296.566 163.436L297.373 165.079C296.952 165.451 296.394 165.765 295.696 166.02C295 166.275 294.192 166.401 293.274 166.401ZM292.984 156.811C292.363 156.811 291.853 157.06 291.452 157.555C291.052 158.045 290.804 158.668 290.707 159.427L290.727 159.478H295.168V159.219C295.168 158.51 294.986 157.931 294.62 157.483C294.261 157.036 293.716 156.811 292.984 156.811ZM309.506 160.965C309.506 162.592 309.122 163.904 308.356 164.903C307.591 165.902 306.524 166.401 305.158 166.401C304.523 166.401 303.96 166.288 303.471 166.061C302.981 165.833 302.56 165.499 302.207 165.058V170.484H299.693V155.003H301.814L302.062 156.409C302.422 155.885 302.853 155.485 303.357 155.21C303.867 154.935 304.457 154.797 305.127 154.797C306.507 154.797 307.58 155.344 308.346 156.44C309.119 157.528 309.506 158.964 309.506 160.749V160.965ZM307 160.749C307 159.605 306.783 158.672 306.348 157.948C305.92 157.218 305.278 156.853 304.423 156.853C303.899 156.853 303.454 156.966 303.088 157.194C302.722 157.414 302.428 157.725 302.207 158.124V163.178C302.428 163.57 302.722 163.874 303.088 164.087C303.454 164.294 303.906 164.396 304.444 164.396C305.299 164.396 305.938 164.084 306.359 163.456C306.787 162.823 307 161.992 307 160.965V160.749ZM317.28 157.266L316.203 157.225C315.713 157.225 315.303 157.329 314.971 157.535C314.647 157.742 314.395 158.035 314.215 158.413V166.184H311.7V155.003H313.998L314.164 156.625C314.447 156.054 314.809 155.606 315.251 155.282C315.699 154.958 316.213 154.797 316.793 154.797C316.945 154.797 317.087 154.81 317.217 154.838C317.349 154.858 317.47 154.886 317.58 154.92L317.28 157.266ZM321.731 166.184H319.215V155.003H321.731V166.184ZM321.731 152.264H319.215V150.063H321.731V152.264ZM330.851 163.146C330.851 162.76 330.686 162.441 330.354 162.185C330.022 161.93 329.405 161.706 328.501 161.513C327.162 161.232 326.148 160.832 325.458 160.315C324.774 159.791 324.433 159.082 324.433 158.186C324.433 157.249 324.83 156.45 325.623 155.789C326.416 155.127 327.462 154.797 328.76 154.797C330.126 154.797 331.209 155.134 332.01 155.809C332.818 156.478 333.204 157.307 333.169 158.3L333.149 158.361H330.737C330.737 157.9 330.561 157.504 330.209 157.173C329.857 156.843 329.374 156.677 328.76 156.677C328.153 156.677 327.69 156.815 327.372 157.091C327.055 157.359 326.897 157.69 326.897 158.083C326.897 158.476 327.045 158.789 327.342 159.024C327.646 159.251 328.256 159.454 329.174 159.633C330.582 159.922 331.624 160.332 332.3 160.862C332.983 161.386 333.324 162.103 333.324 163.011C333.324 164.019 332.907 164.834 332.072 165.462C331.245 166.088 330.15 166.401 328.791 166.401C327.335 166.401 326.186 166.03 325.344 165.286C324.502 164.541 324.102 163.687 324.143 162.723L324.163 162.66H326.503C326.531 163.308 326.765 163.78 327.207 164.077C327.649 164.373 328.187 164.521 328.821 164.521C329.47 164.521 329.971 164.396 330.322 164.149C330.674 163.901 330.851 163.567 330.851 163.146ZM340.395 166.401C338.808 166.401 337.542 165.885 336.596 164.851C335.658 163.811 335.189 162.478 335.189 160.852V160.439C335.189 158.813 335.654 157.466 336.586 156.398C337.524 155.323 338.697 154.79 340.105 154.797C341.616 154.797 342.772 155.255 343.572 156.17C344.381 157.08 344.785 158.303 344.785 159.84V161.317H337.797L337.776 161.369C337.817 162.258 338.076 162.984 338.552 163.549C339.036 164.115 339.702 164.396 340.55 164.396C341.227 164.396 341.807 164.314 342.29 164.149C342.772 163.983 343.239 163.746 343.687 163.436L344.495 165.079C344.073 165.451 343.514 165.765 342.817 166.02C342.12 166.275 341.313 166.401 340.395 166.401ZM340.105 156.811C339.485 156.811 338.973 157.06 338.573 157.555C338.172 158.045 337.924 158.668 337.827 159.427L337.849 159.478H342.29V159.219C342.29 158.51 342.107 157.931 341.741 157.483C341.382 157.036 340.837 156.811 340.105 156.811Z" fill="#00516B"/>
<path d="M252.333 414.736C251.932 415.308 251.273 415.828 250.355 416.296C249.445 416.758 248.271 416.989 246.836 416.989C245.02 416.989 243.527 416.417 242.353 415.274C241.181 414.123 240.594 412.638 240.594 410.82V407.678C240.594 405.859 241.146 404.378 242.25 403.234C243.361 402.084 244.793 401.508 246.546 401.508C248.319 401.508 249.696 401.946 250.676 402.821C251.662 403.689 252.167 404.822 252.188 406.221L252.167 406.283H249.786C249.731 405.456 249.434 404.791 248.896 404.288C248.364 403.779 247.591 403.524 246.577 403.524C245.535 403.524 244.693 403.912 244.051 404.691C243.416 405.47 243.099 406.458 243.099 407.657V410.82C243.099 412.032 243.444 413.031 244.134 413.817C244.831 414.594 245.732 414.984 246.836 414.984C247.622 414.984 248.261 414.895 248.751 414.716C249.241 414.529 249.596 414.313 249.817 414.065V411.005H246.825V409.125H252.333V414.736ZM254.641 411.078C254.641 409.418 255.096 408.053 256.007 406.986C256.932 405.918 258.185 405.384 259.765 405.384C261.373 405.384 262.633 405.918 263.543 406.986C264.461 408.047 264.919 409.411 264.919 411.078V411.295C264.919 412.976 264.461 414.347 263.543 415.408C262.633 416.462 261.38 416.989 259.786 416.989C258.185 416.989 256.925 416.459 256.007 415.397C255.096 414.336 254.641 412.969 254.641 411.295V411.078ZM257.156 411.295C257.156 412.383 257.37 413.272 257.798 413.961C258.219 414.643 258.882 414.984 259.786 414.984C260.662 414.984 261.317 414.643 261.752 413.961C262.194 413.272 262.415 412.383 262.415 411.295V411.078C262.415 410.01 262.194 409.131 261.752 408.443C261.317 407.746 260.655 407.399 259.765 407.399C258.889 407.399 258.233 407.746 257.798 408.443C257.37 409.138 257.156 410.017 257.156 411.078V411.295ZM270.841 412.989L271.028 413.899H271.09L271.287 412.989L273.512 405.591H276.11L272.136 416.772H269.951L265.955 405.591H268.554L270.841 412.989ZM282.352 416.989C280.765 416.989 279.499 416.473 278.553 415.439C277.615 414.398 277.146 413.066 277.146 411.44V411.027C277.146 409.4 277.611 408.053 278.543 406.986C279.482 405.91 280.654 405.377 282.062 405.384C283.573 405.384 284.73 405.842 285.531 406.758C286.338 407.668 286.742 408.89 286.742 410.427V411.904H279.754L279.733 411.957C279.774 412.845 280.034 413.572 280.509 414.137C280.993 414.702 281.659 414.984 282.507 414.984C283.184 414.984 283.764 414.902 284.247 414.736C284.73 414.571 285.196 414.333 285.644 414.023L286.452 415.667C286.031 416.038 285.471 416.352 284.774 416.607C284.078 416.862 283.27 416.989 282.352 416.989ZM282.062 407.399C281.442 407.399 280.931 407.647 280.531 408.143C280.131 408.632 279.882 409.256 279.785 410.014L279.806 410.065H284.247V409.806C284.247 409.097 284.064 408.519 283.698 408.071C283.339 407.623 282.794 407.399 282.062 407.399ZM294.35 407.854L293.273 407.813C292.784 407.813 292.373 407.916 292.042 408.122C291.717 408.329 291.465 408.622 291.286 409V416.772H288.77V405.591H291.068L291.235 407.213C291.517 406.641 291.88 406.193 292.321 405.87C292.769 405.545 293.284 405.384 293.863 405.384C294.015 405.384 294.157 405.398 294.288 405.425C294.419 405.446 294.54 405.473 294.65 405.507L294.35 407.854ZM298.397 405.591L298.542 407.202C298.908 406.631 299.367 406.187 299.919 405.87C300.478 405.545 301.106 405.384 301.803 405.384C302.969 405.384 303.876 405.738 304.526 406.448C305.182 407.15 305.509 408.25 305.509 409.744V416.772H302.994V409.766C302.994 408.925 302.817 408.329 302.465 407.978C302.121 407.62 301.593 407.44 300.882 407.44C300.392 407.44 299.954 407.55 299.567 407.771C299.181 407.985 298.863 408.281 298.615 408.66V416.772H296.1V405.591H298.397ZM310.426 405.591L310.561 407.048C310.926 406.517 311.386 406.107 311.937 405.818C312.49 405.529 313.128 405.384 313.853 405.384C314.584 405.384 315.212 405.549 315.737 405.88C316.261 406.21 316.654 406.706 316.916 407.368C317.262 406.747 317.717 406.262 318.284 405.91C318.849 405.559 319.511 405.384 320.27 405.384C321.395 405.384 322.282 405.77 322.931 406.541C323.587 407.306 323.914 408.47 323.914 410.034V416.772H321.399V410.024C321.399 409.073 321.233 408.404 320.902 408.019C320.578 407.633 320.088 407.44 319.432 407.44C318.894 407.44 318.439 407.585 318.066 407.874C317.693 408.164 317.423 408.552 317.258 409.042C317.258 409.145 317.262 409.235 317.268 409.311C317.275 409.387 317.279 409.459 317.279 409.528V416.772H314.763V410.024C314.763 409.107 314.595 408.45 314.256 408.05C313.924 407.644 313.435 407.44 312.787 407.44C312.275 407.44 311.841 407.54 311.482 407.74C311.13 407.933 310.851 408.208 310.644 408.567V416.772H308.128V405.591H310.426ZM331.379 416.989C329.791 416.989 328.524 416.473 327.579 415.439C326.64 414.398 326.171 413.066 326.171 411.44V411.027C326.171 409.4 326.637 408.053 327.568 406.986C328.507 405.91 329.681 405.377 331.089 405.384C332.6 405.384 333.755 405.842 334.556 406.758C335.363 407.668 335.767 408.89 335.767 410.427V411.904H328.78L328.759 411.957C328.8 412.845 329.059 413.572 329.536 414.137C330.018 414.702 330.685 414.984 331.534 414.984C332.21 414.984 332.789 414.902 333.272 414.736C333.755 414.571 334.221 414.333 334.669 414.023L335.477 415.667C335.056 416.038 334.497 416.352 333.8 416.607C333.103 416.862 332.296 416.989 331.379 416.989ZM331.089 407.399C330.466 407.399 329.956 407.647 329.556 408.143C329.156 408.632 328.907 409.256 328.81 410.014L328.832 410.065H333.272V409.806C333.272 409.097 333.09 408.519 332.723 408.071C332.365 407.623 331.819 407.399 331.089 407.399ZM340.073 405.591L340.218 407.202C340.585 406.631 341.043 406.187 341.595 405.87C342.154 405.545 342.782 405.384 343.479 405.384C344.646 405.384 345.553 405.738 346.202 406.448C346.857 407.15 347.186 408.25 347.186 409.744V416.772H344.67V409.766C344.67 408.925 344.494 408.329 344.142 407.978C343.797 407.62 343.268 407.44 342.558 407.44C342.067 407.44 341.63 407.55 341.243 407.771C340.857 407.985 340.54 408.281 340.291 408.66V416.772H337.775V405.591H340.073ZM352.931 402.873V405.591H354.938V407.451H352.931V413.631C352.931 414.092 353.031 414.423 353.231 414.623C353.431 414.816 353.696 414.912 354.027 414.912C354.165 414.912 354.3 414.902 354.432 414.881C354.562 414.854 354.687 414.819 354.804 414.777L355.073 416.617C354.859 416.734 354.604 416.824 354.307 416.886C354.01 416.955 353.703 416.989 353.386 416.989C352.461 416.989 351.737 416.72 351.211 416.183C350.688 415.638 350.425 414.787 350.425 413.631V407.451H348.717V405.591H350.425V402.873H352.931Z" fill="#00516B"/>
<path d="M241.531 181.423C241.531 222.013 208.57 254.922 167.906 254.922C127.243 254.922 94.2812 222.013 94.2812 181.423C94.2812 140.832 127.243 107.924 167.906 107.924C208.57 107.924 241.531 140.832 241.531 181.423Z" fill="white" stroke="#70F1C9" stroke-width="2"/>
<path d="M116.904 186.502V171.456H121.914C123.585 171.456 124.889 171.8 125.827 172.489C126.766 173.172 127.235 174.194 127.235 175.559C127.235 176.24 127.039 176.85 126.645 177.387C126.252 177.925 125.707 178.324 125.009 178.586C125.906 178.786 126.597 179.217 127.08 179.878C127.563 180.54 127.805 181.308 127.805 182.182C127.805 183.595 127.342 184.67 126.417 185.407C125.493 186.137 124.216 186.502 122.587 186.502H116.904ZM119.419 179.661V184.498H122.587C123.457 184.498 124.126 184.301 124.596 183.908C125.065 183.509 125.299 182.934 125.299 182.182C125.299 181.383 125.103 180.763 124.709 180.322C124.316 179.881 123.702 179.661 122.866 179.661H119.419ZM119.419 177.79H122.194C122.973 177.79 123.588 177.608 124.037 177.243C124.492 176.871 124.719 176.348 124.719 175.672C124.719 174.928 124.482 174.377 124.006 174.019C123.529 173.654 122.832 173.471 121.914 173.471H119.419V177.79ZM132.846 186.502H130.33V170.381H132.846V186.502ZM135.206 180.808C135.206 179.148 135.661 177.783 136.572 176.716C137.497 175.648 138.75 175.114 140.33 175.114C141.938 175.114 143.197 175.648 144.108 176.716C145.026 177.777 145.486 179.141 145.486 180.808V181.025C145.486 182.706 145.026 184.077 144.108 185.138C143.197 186.192 141.945 186.719 140.351 186.719C138.75 186.719 137.49 186.189 136.572 185.128C135.661 184.067 135.206 182.699 135.206 181.025V180.808ZM137.721 181.025C137.721 182.114 137.936 183.003 138.363 183.692C138.784 184.373 139.447 184.714 140.351 184.714C141.227 184.714 141.883 184.373 142.317 183.692C142.759 183.003 142.98 182.114 142.98 181.025V180.808C142.98 179.741 142.759 178.862 142.317 178.173C141.883 177.477 141.22 177.129 140.33 177.129C139.453 177.129 138.798 177.477 138.363 178.173C137.936 178.869 137.721 179.747 137.721 180.808V181.025ZM152.307 184.714C152.921 184.714 153.439 184.535 153.859 184.177C154.28 183.812 154.491 183.357 154.491 182.813H156.768L156.79 182.875C156.824 183.922 156.396 184.824 155.505 185.583C154.622 186.34 153.556 186.719 152.307 186.719C150.658 186.719 149.392 186.189 148.508 185.128C147.631 184.067 147.193 182.723 147.193 181.098V180.735C147.193 179.117 147.631 177.777 148.508 176.716C149.392 175.648 150.658 175.114 152.307 175.114C153.653 175.114 154.743 175.507 155.577 176.292C156.42 177.071 156.827 178.063 156.8 179.268L156.778 179.33H154.491C154.491 178.717 154.288 178.198 153.88 177.77C153.479 177.343 152.955 177.129 152.307 177.129C151.361 177.129 150.692 177.474 150.299 178.163C149.905 178.845 149.709 179.702 149.709 180.735V181.098C149.709 182.152 149.905 183.019 150.299 183.702C150.692 184.376 151.361 184.714 152.307 184.714ZM162.461 181.614H161.334V186.502H158.828V170.381H161.334V179.6H162.379L165.205 175.32H168.165L164.47 180.406L168.714 186.502H165.796L162.461 181.614ZM174.314 184.714C174.928 184.714 175.447 184.535 175.867 184.177C176.289 183.812 176.499 183.357 176.499 182.813H178.776L178.797 182.875C178.831 183.922 178.403 184.824 177.513 185.583C176.629 186.34 175.563 186.719 174.314 186.719C172.665 186.719 171.399 186.189 170.516 185.128C169.639 184.067 169.201 182.723 169.201 181.098V180.735C169.201 179.117 169.639 177.777 170.516 176.716C171.399 175.648 172.665 175.114 174.314 175.114C175.66 175.114 176.751 175.507 177.586 176.292C178.427 177.071 178.835 178.063 178.807 179.268L178.787 179.33H176.499C176.499 178.717 176.295 178.198 175.889 177.77C175.488 177.343 174.963 177.129 174.314 177.129C173.369 177.129 172.7 177.474 172.307 178.163C171.913 178.845 171.716 179.702 171.716 180.735V181.098C171.716 182.152 171.913 183.019 172.307 183.702C172.7 184.376 173.369 184.714 174.314 184.714ZM183.31 176.768C183.684 176.244 184.136 175.837 184.666 175.549C185.205 175.259 185.798 175.114 186.447 175.114C187.634 175.114 188.559 175.489 189.221 176.24C189.891 176.984 190.225 178.135 190.225 179.692V186.502H187.709V179.671C187.709 178.789 187.534 178.153 187.181 177.76C186.829 177.367 186.302 177.171 185.598 177.171C185.108 177.171 184.666 177.274 184.272 177.48C183.887 177.68 183.566 177.96 183.31 178.317V186.502H180.795V170.381H183.31V176.768ZM199.573 186.502C199.484 186.219 199.407 185.944 199.345 185.675C199.29 185.407 199.252 185.138 199.231 184.87C198.887 185.393 198.43 185.835 197.865 186.192C197.306 186.544 196.678 186.719 195.98 186.719C194.814 186.719 193.917 186.419 193.29 185.82C192.668 185.22 192.357 184.398 192.357 183.35C192.357 182.269 192.786 181.428 193.642 180.829C194.497 180.223 195.701 179.919 197.254 179.919H199.211V178.937C199.211 178.352 199.038 177.894 198.693 177.563C198.348 177.233 197.855 177.067 197.212 177.067C196.64 177.067 196.185 177.205 195.846 177.48C195.508 177.756 195.339 178.111 195.339 178.545H192.917L192.906 178.483C192.858 177.602 193.251 176.819 194.087 176.137C194.928 175.455 196.022 175.114 197.367 175.114C198.672 175.114 199.724 175.445 200.525 176.106C201.326 176.768 201.725 177.718 201.725 178.958V183.929C201.725 184.391 201.757 184.836 201.819 185.262C201.881 185.683 201.981 186.096 202.119 186.502H199.573ZM196.488 184.704C197.123 184.704 197.693 184.546 198.196 184.228C198.706 183.912 199.045 183.55 199.211 183.144V181.49H197.212C196.48 181.49 195.908 181.673 195.494 182.038C195.08 182.397 194.873 182.82 194.873 183.309C194.873 183.736 195.011 184.077 195.288 184.332C195.57 184.58 195.97 184.704 196.488 184.704ZM207.047 186.502H204.531V175.32H207.047V186.502ZM207.047 172.582H204.531V170.381H207.047V172.582ZM212.15 175.32L212.295 176.932C212.661 176.361 213.119 175.916 213.672 175.6C214.23 175.276 214.859 175.114 215.556 175.114C216.722 175.114 217.629 175.469 218.278 176.178C218.934 176.881 219.262 177.98 219.262 179.475V186.502H216.746V179.496C216.746 178.655 216.57 178.059 216.218 177.708C215.873 177.35 215.345 177.171 214.635 177.171C214.145 177.171 213.706 177.281 213.319 177.501C212.934 177.715 212.616 178.011 212.367 178.389V186.502H209.852V175.32H212.15Z" fill="#00516B"/>
<path d="M500.176 181.423C500.176 222.013 467.214 254.922 426.551 254.922C385.887 254.922 352.926 222.013 352.926 181.423C352.926 140.832 385.887 107.924 426.551 107.924C467.214 107.924 500.176 140.832 500.176 181.423Z" fill="white" stroke="#70F1C9" stroke-width="2"/>
<path d="M373.653 182.638C373.653 182.011 373.418 181.497 372.949 181.098C372.487 180.698 371.665 180.34 370.486 180.023C368.802 179.581 367.504 179 366.593 178.276C365.689 177.547 365.237 176.591 365.237 175.414C365.237 174.202 365.737 173.203 366.738 172.417C367.746 171.631 369.043 171.239 370.631 171.239C372.287 171.239 373.615 171.683 374.616 172.572C375.623 173.461 376.11 174.528 376.076 175.775L376.055 175.837H373.643C373.643 175.066 373.381 174.442 372.856 173.967C372.332 173.484 371.583 173.243 370.61 173.243C369.692 173.243 368.985 173.443 368.488 173.843C367.997 174.242 367.753 174.76 367.753 175.393C367.753 175.965 368.018 176.44 368.55 176.819C369.088 177.199 369.975 177.557 371.21 177.894C372.832 178.328 374.063 178.927 374.906 179.692C375.748 180.457 376.168 181.431 376.168 182.617C376.168 183.871 375.665 184.87 374.657 185.613C373.657 186.351 372.338 186.719 370.703 186.719C369.13 186.719 367.749 186.306 366.562 185.48C365.376 184.646 364.799 183.505 364.833 182.059L364.854 181.997H367.277C367.277 182.913 367.594 183.599 368.229 184.053C368.864 184.501 369.689 184.725 370.703 184.725C371.635 184.725 372.359 184.539 372.877 184.166C373.394 183.788 373.653 183.278 373.653 182.638ZM385.474 184.87C385.123 185.462 384.678 185.92 384.14 186.244C383.601 186.561 382.98 186.719 382.276 186.719C381.076 186.719 380.137 186.337 379.46 185.572C378.784 184.807 378.446 183.619 378.446 182.007V175.321H380.951V182.027C380.951 183.006 381.109 183.692 381.428 184.084C381.745 184.477 382.224 184.673 382.866 184.673C383.473 184.673 383.981 184.566 384.388 184.353C384.802 184.133 385.126 183.815 385.361 183.402V175.321H387.877V186.502H385.682L385.474 184.87ZM400.319 181.283C400.319 182.909 399.937 184.222 399.169 185.22C398.404 186.219 397.338 186.719 395.971 186.719C395.337 186.719 394.774 186.605 394.284 186.379C393.794 186.151 393.373 185.816 393.021 185.375V190.801H390.506V175.321H392.628L392.877 176.726C393.235 176.203 393.666 175.803 394.17 175.527C394.681 175.252 395.27 175.114 395.94 175.114C397.32 175.114 398.394 175.662 399.159 176.758C399.933 177.846 400.319 179.282 400.319 181.067V181.283ZM397.814 181.067C397.814 179.923 397.597 178.989 397.162 178.266C396.734 177.535 396.092 177.171 395.237 177.171C394.712 177.171 394.267 177.284 393.901 177.511C393.535 177.732 393.242 178.042 393.021 178.442V183.495C393.242 183.888 393.535 184.191 393.901 184.405C394.267 184.611 394.719 184.714 395.257 184.714C396.113 184.714 396.751 184.401 397.172 183.774C397.6 183.14 397.814 182.31 397.814 181.283V181.067ZM412.327 181.283C412.327 182.909 411.944 184.222 411.178 185.22C410.412 186.219 409.346 186.719 407.979 186.719C407.345 186.719 406.782 186.605 406.292 186.379C405.802 186.151 405.381 185.816 405.03 185.375V190.801H402.514V175.321H404.636L404.885 176.726C405.243 176.203 405.674 175.803 406.178 175.527C406.689 175.252 407.279 175.114 407.948 175.114C409.329 175.114 410.401 175.662 411.167 176.758C411.941 177.846 412.327 179.282 412.327 181.067V181.283ZM409.822 181.067C409.822 179.923 409.605 178.989 409.17 178.266C408.742 177.535 408.1 177.171 407.244 177.171C406.72 177.171 406.274 177.284 405.909 177.511C405.543 177.732 405.25 178.042 405.03 178.442V183.495C405.25 183.888 405.543 184.191 405.909 184.405C406.274 184.611 406.727 184.714 407.265 184.714C408.121 184.714 408.759 184.401 409.18 183.774C409.608 183.14 409.822 182.31 409.822 181.283V181.067ZM417.202 186.502H414.688V170.381H417.202V186.502ZM423.745 182.017L423.994 183.134H424.056L426.509 175.321H429.262L424.624 188.197C424.329 188.976 423.911 189.641 423.372 190.191C422.834 190.743 422.071 191.018 421.085 191.018C420.878 191.018 420.653 190.997 420.412 190.956C420.177 190.915 419.95 190.866 419.729 190.811L420.008 188.868C420.098 188.876 420.226 188.886 420.392 188.9C420.557 188.914 420.682 188.92 420.764 188.92C421.219 188.92 421.582 188.765 421.85 188.455C422.127 188.145 422.351 187.787 422.523 187.381L422.938 186.368L418.869 175.321H421.612L423.745 182.017ZM447.367 181.511L447.388 181.572C447.415 183.096 446.919 184.336 445.897 185.293C444.884 186.244 443.506 186.719 441.767 186.719C440.007 186.719 438.576 186.13 437.471 184.952C436.374 183.767 435.826 182.255 435.826 180.416V177.553C435.826 175.72 436.367 174.212 437.451 173.027C438.541 171.835 439.956 171.239 441.695 171.239C443.475 171.239 444.877 171.708 445.897 172.644C446.926 173.574 447.427 174.828 447.399 176.406L447.378 176.468H444.945C444.945 175.455 444.669 174.666 444.117 174.102C443.572 173.536 442.764 173.254 441.695 173.254C440.666 173.254 439.849 173.66 439.242 174.473C438.641 175.286 438.341 176.306 438.341 177.532V180.416C438.341 181.656 438.648 182.682 439.262 183.495C439.883 184.308 440.718 184.714 441.767 184.714C442.809 184.714 443.6 184.436 444.138 183.877C444.676 183.319 444.945 182.53 444.945 181.511H447.367ZM452.016 176.768C452.388 176.244 452.84 175.837 453.371 175.549C453.909 175.259 454.503 175.114 455.152 175.114C456.34 175.114 457.264 175.489 457.927 176.24C458.596 176.984 458.931 178.135 458.931 179.692V186.502H456.415V179.671C456.415 178.789 456.239 178.153 455.887 177.76C455.535 177.367 455.007 177.171 454.303 177.171C453.813 177.171 453.372 177.274 452.979 177.48C452.592 177.68 452.27 177.96 452.016 178.317V186.502H449.5V170.381H452.016V176.768ZM468.278 186.502C468.189 186.219 468.112 185.944 468.05 185.675C467.995 185.407 467.957 185.138 467.937 184.87C467.592 185.393 467.136 185.835 466.57 186.192C466.011 186.544 465.383 186.719 464.686 186.719C463.519 186.719 462.622 186.419 461.994 185.82C461.373 185.22 461.063 184.398 461.063 183.35C461.063 182.269 461.491 181.428 462.347 180.829C463.202 180.223 464.406 179.919 465.959 179.919H467.915V178.937C467.915 178.352 467.743 177.894 467.398 177.563C467.053 177.233 466.56 177.067 465.917 177.067C465.345 177.067 464.89 177.205 464.551 177.48C464.213 177.756 464.044 178.111 464.044 178.545H461.622L461.611 178.483C461.563 177.602 461.957 176.819 462.792 176.137C463.634 175.455 464.728 175.114 466.073 175.114C467.378 175.114 468.43 175.445 469.231 176.106C470.031 176.768 470.432 177.718 470.432 178.958V183.929C470.432 184.391 470.462 184.836 470.524 185.262C470.587 185.683 470.687 186.096 470.824 186.502H468.278ZM465.193 184.704C465.829 184.704 466.398 184.546 466.901 184.228C467.412 183.912 467.75 183.55 467.915 183.144V181.49H465.917C465.187 181.49 464.613 181.673 464.2 182.038C463.785 182.397 463.579 182.82 463.579 183.309C463.579 183.736 463.716 184.077 463.993 184.332C464.275 184.58 464.675 184.704 465.193 184.704ZM475.752 186.502H473.237V175.321H475.752V186.502ZM475.752 172.582H473.237V170.381H475.752V172.582ZM480.855 175.321L481 176.932C481.366 176.361 481.825 175.916 482.377 175.6C482.936 175.276 483.564 175.114 484.261 175.114C485.427 175.114 486.335 175.469 486.984 176.178C487.64 176.881 487.967 177.98 487.967 179.475V186.502H485.451V179.496C485.451 178.655 485.275 178.059 484.923 177.708C484.579 177.35 484.051 177.171 483.34 177.171C482.85 177.171 482.411 177.281 482.024 177.501C481.639 177.715 481.321 178.011 481.072 178.389V186.502H478.557V175.321H480.855Z" fill="#00516B"/>
<path d="M167.057 1.10163L430.788 1.10159" stroke="#70F1C9" stroke-width="2"/>
<path d="M199.034 416.524C199.366 416.194 199.366 415.657 199.034 415.327L193.638 409.939C193.307 409.608 192.769 409.608 192.439 409.939C192.107 410.27 192.107 410.806 192.439 411.136L197.235 415.926L192.439 420.714C192.107 421.044 192.107 421.581 192.439 421.911C192.769 422.243 193.307 422.243 193.638 421.911L199.034 416.524ZM0 416.772H198.434V415.079H1.48271e-07L0 416.772Z" fill="#70F1C9"/>
<path d="M65.0485 159.163C65.3793 158.834 65.3793 158.297 65.0485 157.966L59.6517 152.579C59.3206 152.248 58.7837 152.248 58.4525 152.579C58.1214 152.909 58.1214 153.446 58.4525 153.776L63.2494 158.565L58.4525 163.354C58.1214 163.685 58.1214 164.221 58.4525 164.551C58.7837 164.882 59.3206 164.882 59.6517 164.551L65.0485 159.163ZM0 159.412H64.449V157.719H1.48271e-07L0 159.412Z" fill="#70F1C9"/>
<path d="M0.848633 416.772L0.848653 157.719" stroke="#70F1C9" stroke-width="2"/>
<path d="M523.471 157.966C523.14 158.297 523.14 158.834 523.471 159.163L528.868 164.551C529.198 164.882 529.736 164.882 530.067 164.551C530.399 164.221 530.399 163.685 530.067 163.354L525.27 158.565L530.067 153.776C530.399 153.446 530.399 152.909 530.067 152.579C529.736 152.248 529.198 152.248 528.868 152.579L523.471 157.966ZM597 157.719H524.071V159.412H597V157.719Z" fill="#70F1C9"/>
<path d="M430.19 94.824C430.521 95.1549 431.058 95.1549 431.389 94.824L436.786 89.4363C437.118 89.106 437.118 88.5695 436.786 88.2393C436.455 87.9084 435.918 87.9084 435.587 88.2393L430.79 93.0285L425.993 88.2393C425.662 87.9084 425.124 87.9084 424.794 88.2393C424.462 88.5695 424.462 89.106 424.794 89.4363L430.19 94.824ZM429.942 0.255188V94.2255H431.638V0.255188H429.942Z" fill="#70F1C9"/>
<path d="M167.307 94.824C167.638 95.1549 168.176 95.1549 168.507 94.824L173.903 89.4363C174.235 89.106 174.235 88.5695 173.903 88.2393C173.573 87.9084 173.035 87.9084 172.704 88.2393L167.907 93.0285L163.11 88.2393C162.779 87.9084 162.241 87.9084 161.911 88.2393C161.579 88.5695 161.579 89.106 161.911 89.4363L167.307 94.824ZM167.059 0.255188V94.2255H168.755V0.255188H167.059Z" fill="#70F1C9"/>
<path d="M390.335 415.327C390.003 415.657 390.003 416.194 390.335 416.524L395.731 421.911C396.062 422.243 396.6 422.243 396.93 421.911C397.262 421.581 397.262 421.044 396.93 420.714L392.133 415.926L396.93 411.136C397.262 410.806 397.262 410.27 396.93 409.939C396.6 409.608 396.062 409.608 395.731 409.939L390.335 415.327ZM597.001 415.079H390.934V416.772H597.001V415.079Z" fill="#70F1C9"/>
<path d="M596.15 157.719V416.772" stroke="#70F1C9" stroke-width="2"/>
<path d="M195.426 294.503V312.351H202.406C205.219 312.351 206.725 311.85 208.207 310.371C210.14 308.441 210.718 305.784 210.718 303.126C210.718 300.269 209.789 297.862 208.081 296.333C206.374 294.804 204.44 294.503 202.231 294.503H195.426ZM198.539 297.16H202.03C205.947 297.16 207.579 299.617 207.579 303.277C207.579 306.937 206.424 309.719 202.231 309.719H198.539V297.16ZM224.597 294.478H221.257L214.352 312.351H217.591L219.348 307.614H226.43L228.137 312.351H231.502L224.597 294.478ZM225.601 305.257H220.152L222.939 297.737L225.601 305.257ZM246.598 294.503H232.059V297.21H237.759V312.351H240.898V297.21H246.598V294.503ZM257.395 294.478H254.055L247.15 312.351H250.389L252.147 307.614H259.228L260.936 312.351H264.301L257.395 294.478ZM258.4 305.257H252.951L255.738 297.737L258.4 305.257ZM291.603 299.767C291.452 295.782 288.565 294.152 284.924 294.152C280.906 294.152 278.32 296.183 278.32 299.366C278.32 303.001 281.258 303.628 285.049 304.605C287.686 305.282 289.218 305.608 289.218 307.463C289.218 309.218 287.786 310.271 285.376 310.271C282.84 310.271 280.755 309.193 280.755 306.435H277.667C277.667 310.747 280.956 312.753 285.2 312.753C288.715 312.753 292.306 311.198 292.306 307.162C292.306 303.327 288.891 302.6 285.853 301.823C282.413 300.92 281.308 300.82 281.308 299.116C281.308 297.561 282.588 296.634 284.723 296.634C286.933 296.634 288.414 297.536 288.615 299.767H291.603ZM313.234 305.558H310.096C309.769 308.19 308.438 310.12 305.526 310.12C301.709 310.12 300.252 306.736 300.252 303.427C300.252 300.143 301.784 296.759 305.551 296.759C307.861 296.759 309.543 298.038 309.97 300.193H313.084C312.481 296.057 309.167 294.102 305.601 294.102C300.177 294.102 297.088 298.364 297.088 303.427C297.088 309.068 300.403 312.778 305.45 312.778C309.92 312.778 312.908 309.895 313.234 305.558ZM322.115 294.503H318.951V312.351H322.115V294.503ZM341.659 294.503H328.778V312.351H341.81V309.669H331.891V304.405H340.956V301.873H331.891V297.135H341.659V294.503ZM361.996 294.503H358.982V307.664L350.746 294.503H347.457V312.351H350.42V299.216L358.757 312.351H361.996V294.503ZM383.834 305.558H380.695C380.368 308.19 379.038 310.12 376.125 310.12C372.308 310.12 370.852 306.736 370.852 303.427C370.852 300.143 372.383 296.759 376.15 296.759C378.46 296.759 380.142 298.038 380.569 300.193H383.683C383.08 296.057 379.766 294.102 376.2 294.102C370.776 294.102 367.688 298.364 367.688 303.427C367.688 309.068 371.002 312.778 376.049 312.778C380.519 312.778 383.507 309.895 383.834 305.558ZM402.382 294.503H389.5V312.351H402.533V309.669H392.614V304.405H401.679V301.873H392.614V297.135H402.382V294.503Z" fill="#00516B"/>
</g>
<defs>
<clipPath id="clip0">
<rect width="597" height="507" fill="white"/>
</clipPath>
</defs>
</svg>
