<svg width="597" height="507" viewBox="0 0 597 507" fill="none" xmlns="http://www.w3.org/2000/svg">
<g clip-path="url(#clip0)">
<path d="M530.703 268.621C530.703 399.449 424.465 505.509 293.411 505.509C162.358 505.509 56.1201 399.449 56.1201 268.621C56.1201 137.792 162.358 31.7322 293.411 31.7322C424.465 31.7322 530.703 137.792 530.703 268.621Z" fill="white" stroke="#70F1C9" stroke-width="2"/>
<path d="M417.919 156.026C417.919 223.277 363.875 277.78 297.229 277.78C230.582 277.78 176.539 223.277 176.539 156.026C176.539 88.7746 230.582 34.272 297.229 34.272C363.875 34.272 417.919 88.7746 417.919 156.026Z" fill="white" stroke="#70F1C9" stroke-width="2"/>
<path d="M371.277 409.153C371.277 452.081 336.417 486.884 293.412 486.884C250.407 486.884 215.547 452.081 215.547 409.153C215.547 366.224 250.407 331.42 293.412 331.42C336.417 331.42 371.277 366.224 371.277 409.153Z" fill="white" stroke="#70F1C9" stroke-width="2"/>
<path d="M258.874 159.415H252.281V164.18H259.931V166.184H249.765V151.139H259.858V153.153H252.281V157.401H258.874V159.415ZM264.019 155.003L264.164 156.615C264.53 156.044 264.989 155.599 265.541 155.282C266.1 154.958 266.729 154.797 267.425 154.797C268.591 154.797 269.499 155.151 270.147 155.861C270.803 156.563 271.131 157.662 271.131 159.157V166.184H268.615V159.179C268.615 158.338 268.44 157.742 268.088 157.391C267.742 157.032 267.215 156.853 266.504 156.853C266.014 156.853 265.575 156.963 265.189 157.184C264.803 157.397 264.486 157.693 264.237 158.072V166.184H261.721V155.003H264.019ZM276.876 152.286V155.003H278.885V156.863H276.876V163.043C276.876 163.505 276.976 163.836 277.176 164.035C277.376 164.229 277.642 164.325 277.973 164.325C278.111 164.325 278.246 164.314 278.377 164.294C278.508 164.266 278.633 164.232 278.75 164.19L279.019 166.03C278.805 166.147 278.55 166.236 278.253 166.298C277.956 166.367 277.649 166.401 277.332 166.401C276.407 166.401 275.682 166.133 275.158 165.595C274.633 165.051 274.371 164.2 274.371 163.043V156.863H272.663V155.003H274.371V152.286H276.876ZM286.7 157.266L285.623 157.225C285.134 157.225 284.722 157.329 284.392 157.535C284.067 157.742 283.815 158.035 283.636 158.413V166.184H281.12V155.003H283.418L283.585 156.625C283.866 156.054 284.23 155.606 284.671 155.282C285.119 154.958 285.634 154.797 286.213 154.797C286.365 154.797 286.507 154.81 286.638 154.838C286.769 154.858 286.89 154.886 287 154.92L286.7 157.266ZM293.273 166.401C291.686 166.401 290.419 165.885 289.474 164.851C288.536 163.811 288.066 162.478 288.066 160.852V160.439C288.066 158.813 288.533 157.466 289.464 156.399C290.402 155.323 291.575 154.79 292.983 154.797C294.495 154.797 295.651 155.255 296.451 156.17C297.258 157.08 297.662 158.303 297.662 159.84V161.317H290.675L290.654 161.37C290.696 162.258 290.955 162.985 291.431 163.549C291.914 164.115 292.58 164.396 293.429 164.396C294.105 164.396 294.685 164.314 295.167 164.149C295.651 163.983 296.116 163.746 296.565 163.436L297.372 165.079C296.952 165.451 296.393 165.765 295.695 166.02C294.999 166.275 294.191 166.401 293.273 166.401ZM292.983 156.812C292.362 156.812 291.852 157.06 291.451 157.555C291.051 158.045 290.803 158.668 290.706 159.427L290.726 159.478H295.167V159.219C295.167 158.51 294.985 157.931 294.619 157.483C294.26 157.036 293.715 156.812 292.983 156.812ZM309.505 160.965C309.505 162.592 309.121 163.904 308.355 164.903C307.59 165.902 306.523 166.401 305.157 166.401C304.522 166.401 303.959 166.288 303.47 166.061C302.98 165.833 302.559 165.499 302.206 165.058V170.484H299.692V155.003H301.813L302.061 156.409C302.421 155.885 302.852 155.485 303.356 155.21C303.866 154.935 304.456 154.797 305.126 154.797C306.506 154.797 307.579 155.344 308.345 156.44C309.118 157.528 309.505 158.964 309.505 160.749V160.965ZM306.999 160.749C306.999 159.605 306.782 158.672 306.347 157.948C305.919 157.218 305.277 156.853 304.422 156.853C303.898 156.853 303.453 156.966 303.087 157.194C302.721 157.414 302.427 157.725 302.206 158.124V163.178C302.427 163.57 302.721 163.874 303.087 164.087C303.453 164.294 303.905 164.396 304.443 164.396C305.298 164.396 305.937 164.084 306.358 163.456C306.786 162.823 306.999 161.992 306.999 160.965V160.749ZM317.279 157.266L316.202 157.225C315.712 157.225 315.302 157.329 314.97 157.535C314.646 157.742 314.394 158.035 314.214 158.413V166.184H311.699V155.003H313.997L314.163 156.625C314.446 156.054 314.808 155.606 315.25 155.282C315.698 154.958 316.212 154.797 316.793 154.797C316.944 154.797 317.086 154.81 317.216 154.838C317.348 154.858 317.469 154.886 317.579 154.92L317.279 157.266ZM321.73 166.184H319.214V155.003H321.73V166.184ZM321.73 152.264H319.214V150.063H321.73V152.264ZM330.85 163.146C330.85 162.76 330.685 162.441 330.353 162.185C330.021 161.93 329.404 161.706 328.5 161.513C327.161 161.232 326.147 160.832 325.457 160.315C324.773 159.791 324.432 159.082 324.432 158.187C324.432 157.249 324.829 156.45 325.622 155.789C326.415 155.127 327.461 154.797 328.759 154.797C330.125 154.797 331.208 155.134 332.009 155.809C332.817 156.478 333.203 157.307 333.168 158.3L333.148 158.361H330.736C330.736 157.9 330.56 157.504 330.208 157.173C329.856 156.843 329.373 156.677 328.759 156.677C328.152 156.677 327.689 156.815 327.372 157.091C327.055 157.359 326.896 157.69 326.896 158.083C326.896 158.476 327.044 158.789 327.341 159.024C327.645 159.251 328.255 159.454 329.173 159.633C330.581 159.922 331.623 160.332 332.299 160.863C332.982 161.386 333.323 162.103 333.323 163.011C333.323 164.019 332.906 164.835 332.071 165.462C331.244 166.088 330.149 166.401 328.79 166.401C327.334 166.401 326.185 166.03 325.343 165.286C324.501 164.541 324.101 163.687 324.142 162.723L324.162 162.661H326.502C326.53 163.308 326.764 163.78 327.206 164.077C327.648 164.373 328.186 164.521 328.82 164.521C329.469 164.521 329.97 164.396 330.321 164.149C330.674 163.901 330.85 163.567 330.85 163.146ZM340.394 166.401C338.807 166.401 337.541 165.885 336.595 164.851C335.657 163.811 335.188 162.478 335.188 160.852V160.439C335.188 158.813 335.653 157.466 336.585 156.399C337.523 155.323 338.696 154.79 340.104 154.797C341.615 154.797 342.771 155.255 343.571 156.17C344.38 157.08 344.784 158.303 344.784 159.84V161.317H337.796L337.775 161.37C337.816 162.258 338.075 162.985 338.551 163.549C339.035 164.115 339.701 164.396 340.549 164.396C341.226 164.396 341.806 164.314 342.289 164.149C342.771 163.983 343.238 163.746 343.686 163.436L344.494 165.079C344.072 165.451 343.513 165.765 342.816 166.02C342.119 166.275 341.312 166.401 340.394 166.401ZM340.104 156.812C339.484 156.812 338.972 157.06 338.572 157.555C338.171 158.045 337.923 158.668 337.826 159.427L337.848 159.478H342.289V159.219C342.289 158.51 342.106 157.931 341.74 157.483C341.381 157.036 340.836 156.812 340.104 156.812Z" fill="#00516B"/>
<path d="M241.531 181.423C241.531 222.014 208.57 254.922 167.906 254.922C127.243 254.922 94.2812 222.014 94.2812 181.423C94.2812 140.832 127.243 107.924 167.906 107.924C208.57 107.924 241.531 140.832 241.531 181.423Z" fill="white" stroke="#70F1C9" stroke-width="2"/>
<path d="M116.903 186.502V171.456H121.913C123.584 171.456 124.888 171.8 125.826 172.489C126.765 173.172 127.234 174.194 127.234 175.559C127.234 176.24 127.038 176.85 126.644 177.387C126.251 177.925 125.706 178.324 125.008 178.586C125.905 178.786 126.596 179.217 127.079 179.878C127.562 180.54 127.804 181.308 127.804 182.182C127.804 183.595 127.341 184.67 126.416 185.407C125.492 186.137 124.215 186.502 122.586 186.502H116.903ZM119.418 179.661V184.498H122.586C123.456 184.498 124.125 184.301 124.595 183.908C125.064 183.509 125.298 182.934 125.298 182.182C125.298 181.383 125.102 180.763 124.708 180.322C124.315 179.881 123.701 179.661 122.865 179.661H119.418ZM119.418 177.79H122.193C122.973 177.79 123.587 177.608 124.036 177.243C124.491 176.871 124.718 176.348 124.718 175.672C124.718 174.928 124.481 174.377 124.005 174.019C123.528 173.654 122.831 173.471 121.913 173.471H119.418V177.79ZM132.845 186.502H130.329V170.381H132.845V186.502ZM135.205 180.809C135.205 179.148 135.66 177.783 136.571 176.716C137.496 175.648 138.749 175.114 140.329 175.114C141.937 175.114 143.196 175.648 144.107 176.716C145.025 177.777 145.485 179.141 145.485 180.809V181.025C145.485 182.706 145.025 184.077 144.107 185.138C143.196 186.192 141.944 186.719 140.35 186.719C138.749 186.719 137.489 186.189 136.571 185.128C135.66 184.067 135.205 182.699 135.205 181.025V180.809ZM137.72 181.025C137.72 182.114 137.935 183.003 138.362 183.692C138.783 184.373 139.446 184.714 140.35 184.714C141.226 184.714 141.882 184.373 142.316 183.692C142.758 183.003 142.979 182.114 142.979 181.025V180.809C142.979 179.741 142.758 178.862 142.316 178.173C141.882 177.477 141.219 177.129 140.329 177.129C139.452 177.129 138.797 177.477 138.362 178.173C137.935 178.869 137.72 179.748 137.72 180.809V181.025ZM152.306 184.714C152.92 184.714 153.438 184.535 153.858 184.177C154.279 183.812 154.49 183.357 154.49 182.813H156.767L156.789 182.875C156.823 183.922 156.395 184.824 155.504 185.583C154.621 186.34 153.555 186.719 152.306 186.719C150.657 186.719 149.391 186.189 148.507 185.128C147.63 184.067 147.192 182.723 147.192 181.098V180.735C147.192 179.117 147.63 177.777 148.507 176.716C149.391 175.648 150.657 175.114 152.306 175.114C153.652 175.114 154.742 175.507 155.576 176.292C156.419 177.071 156.826 178.063 156.799 179.268L156.777 179.33H154.49C154.49 178.717 154.287 178.198 153.879 177.77C153.479 177.343 152.954 177.129 152.306 177.129C151.36 177.129 150.691 177.474 150.298 178.163C149.904 178.845 149.708 179.702 149.708 180.735V181.098C149.708 182.152 149.904 183.02 150.298 183.702C150.691 184.376 151.36 184.714 152.306 184.714ZM162.461 181.614H161.333V186.502H158.827V170.381H161.333V179.6H162.378L165.204 175.321H168.164L164.469 180.406L168.713 186.502H165.795L162.461 181.614ZM174.313 184.714C174.927 184.714 175.446 184.535 175.866 184.177C176.288 183.812 176.498 183.357 176.498 182.813H178.775L178.796 182.875C178.83 183.922 178.402 184.824 177.512 185.583C176.628 186.34 175.562 186.719 174.313 186.719C172.664 186.719 171.398 186.189 170.515 185.128C169.638 184.067 169.2 182.723 169.2 181.098V180.735C169.2 179.117 169.638 177.777 170.515 176.716C171.398 175.648 172.664 175.114 174.313 175.114C175.659 175.114 176.75 175.507 177.585 176.292C178.426 177.071 178.834 178.063 178.806 179.268L178.786 179.33H176.498C176.498 178.717 176.294 178.198 175.888 177.77C175.487 177.343 174.962 177.129 174.313 177.129C173.368 177.129 172.699 177.474 172.306 178.163C171.912 178.845 171.715 179.702 171.715 180.735V181.098C171.715 182.152 171.912 183.02 172.306 183.702C172.699 184.376 173.368 184.714 174.313 184.714ZM183.309 176.768C183.683 176.244 184.135 175.837 184.665 175.549C185.204 175.259 185.798 175.114 186.446 175.114C187.633 175.114 188.558 175.489 189.22 176.24C189.89 176.984 190.224 178.135 190.224 179.692V186.502H187.708V179.671C187.708 178.789 187.533 178.153 187.18 177.76C186.828 177.367 186.301 177.171 185.597 177.171C185.107 177.171 184.665 177.274 184.271 177.48C183.886 177.68 183.565 177.96 183.309 178.317V186.502H180.794V170.381H183.309V176.768ZM199.572 186.502C199.483 186.219 199.406 185.944 199.344 185.675C199.289 185.407 199.251 185.138 199.23 184.87C198.886 185.393 198.429 185.835 197.864 186.192C197.305 186.544 196.677 186.719 195.979 186.719C194.813 186.719 193.916 186.419 193.289 185.82C192.667 185.22 192.356 184.398 192.356 183.35C192.356 182.269 192.785 181.428 193.641 180.829C194.496 180.223 195.7 179.919 197.253 179.919H199.21V178.937C199.21 178.352 199.037 177.894 198.692 177.563C198.347 177.233 197.854 177.067 197.211 177.067C196.639 177.067 196.184 177.205 195.845 177.48C195.507 177.756 195.338 178.111 195.338 178.546H192.916L192.905 178.483C192.857 177.602 193.25 176.819 194.086 176.137C194.927 175.455 196.021 175.114 197.367 175.114C198.671 175.114 199.723 175.445 200.524 176.106C201.325 176.768 201.724 177.718 201.724 178.958V183.929C201.724 184.391 201.756 184.836 201.818 185.262C201.88 185.683 201.98 186.096 202.118 186.502H199.572ZM196.487 184.704C197.122 184.704 197.692 184.546 198.195 184.228C198.706 183.912 199.044 183.55 199.21 183.144V181.49H197.211C196.479 181.49 195.907 181.673 195.493 182.038C195.079 182.397 194.872 182.82 194.872 183.309C194.872 183.736 195.01 184.077 195.287 184.332C195.569 184.58 195.969 184.704 196.487 184.704ZM207.046 186.502H204.53V175.321H207.046V186.502ZM207.046 172.582H204.53V170.381H207.046V172.582ZM212.149 175.321L212.294 176.932C212.66 176.361 213.118 175.916 213.671 175.6C214.229 175.276 214.858 175.114 215.555 175.114C216.721 175.114 217.628 175.469 218.277 176.178C218.933 176.881 219.261 177.98 219.261 179.475V186.502H216.745V179.496C216.745 178.655 216.569 178.059 216.217 177.708C215.872 177.35 215.344 177.171 214.634 177.171C214.144 177.171 213.705 177.281 213.319 177.501C212.933 177.715 212.615 178.011 212.366 178.389V186.502H209.851V175.321H212.149Z" fill="#00516B"/>
<path d="M500.175 181.423C500.175 222.014 467.213 254.922 426.55 254.922C385.886 254.922 352.925 222.014 352.925 181.423C352.925 140.832 385.886 107.924 426.55 107.924C467.213 107.924 500.175 140.832 500.175 181.423Z" fill="white" stroke="#70F1C9" stroke-width="2"/>
<path d="M167.058 1.1016L430.789 1.10156" stroke="#70F1C9" stroke-width="2"/>
<path d="M199.034 416.524C199.366 416.194 199.366 415.657 199.034 415.327L193.638 409.939C193.307 409.608 192.769 409.608 192.439 409.939C192.107 410.27 192.107 410.806 192.439 411.136L197.235 415.926L192.439 420.714C192.107 421.044 192.107 421.582 192.439 421.911C192.769 422.243 193.307 422.243 193.638 421.911L199.034 416.524ZM0 416.772H198.434V415.079H1.48271e-07L0 416.772Z" fill="#70F1C9"/>
<path d="M65.0485 159.163C65.3793 158.834 65.3793 158.297 65.0485 157.966L59.6517 152.579C59.3206 152.248 58.7837 152.248 58.4525 152.579C58.1214 152.909 58.1214 153.446 58.4525 153.776L63.2494 158.565L58.4525 163.354C58.1214 163.684 58.1214 164.221 58.4525 164.551C58.7837 164.882 59.3206 164.882 59.6517 164.551L65.0485 159.163ZM0 159.412H64.449V157.719H1.48271e-07L0 159.412Z" fill="#70F1C9"/>
<path d="M0.848633 416.772L0.848653 157.719" stroke="#70F1C9" stroke-width="2"/>
<path d="M523.471 157.966C523.14 158.297 523.14 158.834 523.471 159.163L528.868 164.551C529.198 164.882 529.736 164.882 530.067 164.551C530.399 164.221 530.399 163.684 530.067 163.354L525.27 158.565L530.067 153.776C530.399 153.446 530.399 152.909 530.067 152.579C529.736 152.248 529.198 152.248 528.868 152.579L523.471 157.966ZM597 157.719H524.071V159.412H597V157.719Z" fill="#70F1C9"/>
<path d="M430.19 94.824C430.521 95.1549 431.058 95.1549 431.389 94.824L436.786 89.4362C437.118 89.1059 437.118 88.5695 436.786 88.2392C436.455 87.9083 435.918 87.9083 435.587 88.2392L430.79 93.0285L425.993 88.2392C425.662 87.9083 425.124 87.9083 424.794 88.2392C424.462 88.5695 424.462 89.1059 424.794 89.4362L430.19 94.824ZM429.942 0.255127V94.2255H431.638V0.255127H429.942Z" fill="#70F1C9"/>
<path d="M167.306 94.824C167.637 95.1549 168.175 95.1549 168.506 94.824L173.902 89.4362C174.234 89.1059 174.234 88.5695 173.902 88.2392C173.572 87.9083 173.034 87.9083 172.703 88.2392L167.906 93.0285L163.109 88.2392C162.778 87.9083 162.24 87.9083 161.91 88.2392C161.578 88.5695 161.578 89.1059 161.91 89.4362L167.306 94.824ZM167.058 0.255127V94.2255H168.754V0.255127H167.058Z" fill="#70F1C9"/>
<path d="M390.335 415.327C390.003 415.657 390.003 416.194 390.335 416.524L395.731 421.911C396.062 422.243 396.6 422.243 396.93 421.911C397.262 421.582 397.262 421.044 396.93 420.714L392.133 415.926L396.93 411.136C397.262 410.806 397.262 410.27 396.93 409.939C396.6 409.608 396.062 409.608 395.731 409.939L390.335 415.327ZM597.001 415.079H390.934V416.772H597.001V415.079Z" fill="#70F1C9"/>
<path d="M596.151 157.719V416.772" stroke="#70F1C9" stroke-width="2"/>
<path d="M396.924 163.283L396.943 163.342C396.969 164.781 396.501 165.952 395.537 166.857C394.58 167.756 393.281 168.205 391.641 168.205C389.98 168.205 388.63 167.648 387.588 166.535C386.553 165.415 386.035 163.986 386.035 162.248V159.543C386.035 157.811 386.546 156.385 387.568 155.266C388.597 154.139 389.932 153.576 391.572 153.576C393.252 153.576 394.574 154.019 395.537 154.904C396.507 155.783 396.979 156.968 396.953 158.459L396.934 158.518H394.639C394.639 157.561 394.378 156.815 393.857 156.281C393.343 155.747 392.581 155.48 391.572 155.48C390.602 155.48 389.831 155.865 389.258 156.633C388.691 157.401 388.408 158.365 388.408 159.523V162.248C388.408 163.42 388.698 164.39 389.277 165.158C389.863 165.926 390.651 166.311 391.641 166.311C392.624 166.311 393.369 166.047 393.877 165.52C394.385 164.992 394.639 164.247 394.639 163.283H396.924ZM401.309 158.801C401.66 158.306 402.087 157.922 402.588 157.648C403.096 157.375 403.656 157.238 404.268 157.238C405.387 157.238 406.26 157.593 406.885 158.303C407.516 159.006 407.832 160.093 407.832 161.564V168H405.459V161.545C405.459 160.712 405.293 160.109 404.961 159.738C404.629 159.367 404.131 159.182 403.467 159.182C403.005 159.182 402.588 159.279 402.217 159.475C401.852 159.663 401.549 159.927 401.309 160.266V168H398.936V152.766H401.309V158.801ZM416.65 168C416.566 167.733 416.494 167.473 416.436 167.219C416.383 166.965 416.348 166.711 416.328 166.457C416.003 166.952 415.573 167.368 415.039 167.707C414.512 168.039 413.919 168.205 413.262 168.205C412.161 168.205 411.315 167.922 410.723 167.355C410.137 166.789 409.844 166.011 409.844 165.021C409.844 163.999 410.247 163.205 411.055 162.639C411.862 162.066 412.998 161.779 414.463 161.779H416.309V160.852C416.309 160.298 416.146 159.865 415.82 159.553C415.495 159.24 415.029 159.084 414.424 159.084C413.883 159.084 413.454 159.214 413.135 159.475C412.816 159.735 412.656 160.07 412.656 160.48H410.371L410.361 160.422C410.316 159.589 410.687 158.85 411.475 158.205C412.269 157.561 413.301 157.238 414.57 157.238C415.801 157.238 416.794 157.551 417.549 158.176C418.304 158.801 418.682 159.699 418.682 160.871V165.568C418.682 166.005 418.711 166.424 418.77 166.828C418.828 167.225 418.923 167.616 419.053 168H416.65ZM413.74 166.301C414.339 166.301 414.876 166.151 415.352 165.852C415.833 165.552 416.152 165.21 416.309 164.826V163.264H414.424C413.734 163.264 413.193 163.436 412.803 163.781C412.412 164.12 412.217 164.52 412.217 164.982C412.217 165.386 412.347 165.708 412.607 165.949C412.874 166.184 413.252 166.301 413.74 166.301ZM423.691 168H421.318V157.434H423.691V168ZM425.83 155.52V155.754H423.926L422.529 154.396L421.143 155.754H419.258V155.5L421.836 153.156H423.232L425.83 155.52ZM428.574 157.434L428.711 158.957C429.056 158.417 429.489 157.997 430.01 157.697C430.537 157.391 431.13 157.238 431.787 157.238C432.887 157.238 433.743 157.574 434.355 158.244C434.974 158.908 435.283 159.947 435.283 161.359V168H432.91V161.379C432.91 160.585 432.744 160.021 432.412 159.689C432.087 159.351 431.589 159.182 430.918 159.182C430.456 159.182 430.042 159.286 429.678 159.494C429.313 159.696 429.014 159.976 428.779 160.334V168H426.406V157.434H428.574ZM442.285 168.205C440.788 168.205 439.593 167.717 438.701 166.74C437.816 165.757 437.373 164.497 437.373 162.961V162.57C437.373 161.034 437.812 159.761 438.691 158.752C439.577 157.736 440.684 157.232 442.012 157.238C443.438 157.238 444.528 157.671 445.283 158.537C446.045 159.396 446.426 160.552 446.426 162.004V163.4H439.834L439.814 163.449C439.854 164.289 440.098 164.976 440.547 165.51C441.003 166.044 441.631 166.311 442.432 166.311C443.07 166.311 443.617 166.232 444.072 166.076C444.528 165.92 444.967 165.695 445.391 165.402L446.152 166.955C445.755 167.307 445.228 167.603 444.57 167.844C443.913 168.085 443.151 168.205 442.285 168.205ZM442.012 159.143C441.426 159.143 440.944 159.377 440.566 159.846C440.189 160.308 439.954 160.897 439.863 161.613L439.883 161.662H444.072V161.418C444.072 160.747 443.9 160.201 443.555 159.777C443.216 159.354 442.702 159.143 442.012 159.143ZM385.811 183.863C385.811 182.177 386.172 180.82 386.895 179.791C387.617 178.756 388.633 178.238 389.941 178.238C390.514 178.238 391.025 178.355 391.475 178.59C391.93 178.818 392.324 179.146 392.656 179.576V173.766H395.029V189H393.037L392.803 187.691C392.464 188.186 392.057 188.564 391.582 188.824C391.107 189.078 390.553 189.205 389.922 189.205C388.626 189.205 387.617 188.733 386.895 187.789C386.172 186.845 385.811 185.605 385.811 184.068V183.863ZM388.184 184.068C388.184 185.045 388.369 185.823 388.74 186.402C389.118 186.982 389.714 187.271 390.527 187.271C391.029 187.271 391.452 187.164 391.797 186.949C392.148 186.734 392.435 186.428 392.656 186.031V181.422C392.435 181.031 392.148 180.729 391.797 180.514C391.445 180.292 391.029 180.182 390.547 180.182C389.74 180.182 389.144 180.523 388.76 181.207C388.376 181.884 388.184 182.77 388.184 183.863V184.068ZM399.062 176.197L398.066 178.961H396.973V173.766H399.062V176.197ZM406.689 189C406.605 188.733 406.533 188.473 406.475 188.219C406.423 187.965 406.387 187.711 406.367 187.457C406.042 187.952 405.612 188.368 405.078 188.707C404.551 189.039 403.958 189.205 403.301 189.205C402.201 189.205 401.354 188.922 400.762 188.355C400.176 187.789 399.883 187.011 399.883 186.021C399.883 184.999 400.286 184.205 401.094 183.639C401.901 183.066 403.037 182.779 404.502 182.779H406.348V181.852C406.348 181.298 406.185 180.865 405.859 180.553C405.534 180.24 405.068 180.084 404.463 180.084C403.923 180.084 403.493 180.214 403.174 180.475C402.855 180.735 402.695 181.07 402.695 181.48H400.41L400.4 181.422C400.355 180.589 400.726 179.85 401.514 179.205C402.308 178.561 403.34 178.238 404.609 178.238C405.84 178.238 406.833 178.551 407.588 179.176C408.343 179.801 408.721 180.699 408.721 181.871V186.568C408.721 187.005 408.75 187.424 408.809 187.828C408.867 188.225 408.962 188.616 409.092 189H406.689ZM403.779 187.301C404.378 187.301 404.915 187.151 405.391 186.852C405.872 186.552 406.191 186.21 406.348 185.826V184.264H404.463C403.773 184.264 403.232 184.436 402.842 184.781C402.451 185.12 402.256 185.52 402.256 185.982C402.256 186.386 402.386 186.708 402.646 186.949C402.913 187.184 403.291 187.301 403.779 187.301ZM420.469 184.068C420.469 185.605 420.107 186.845 419.385 187.789C418.662 188.733 417.656 189.205 416.367 189.205C415.768 189.205 415.238 189.098 414.775 188.883C414.313 188.668 413.916 188.352 413.584 187.936V193.062H411.211V178.434H413.213L413.447 179.762C413.786 179.267 414.193 178.889 414.668 178.629C415.15 178.368 415.706 178.238 416.338 178.238C417.64 178.238 418.652 178.756 419.375 179.791C420.104 180.82 420.469 182.177 420.469 183.863V184.068ZM418.105 183.863C418.105 182.783 417.9 181.9 417.49 181.217C417.087 180.527 416.481 180.182 415.674 180.182C415.179 180.182 414.759 180.289 414.414 180.504C414.069 180.712 413.792 181.005 413.584 181.383V186.158C413.792 186.529 414.069 186.816 414.414 187.018C414.759 187.213 415.186 187.311 415.693 187.311C416.501 187.311 417.103 187.014 417.5 186.422C417.904 185.823 418.105 185.038 418.105 184.068V183.863ZM431.797 184.068C431.797 185.605 431.436 186.845 430.713 187.789C429.99 188.733 428.984 189.205 427.695 189.205C427.096 189.205 426.566 189.098 426.104 188.883C425.641 188.668 425.244 188.352 424.912 187.936V193.062H422.539V178.434H424.541L424.775 179.762C425.114 179.267 425.521 178.889 425.996 178.629C426.478 178.368 427.035 178.238 427.666 178.238C428.968 178.238 429.98 178.756 430.703 179.791C431.432 180.82 431.797 182.177 431.797 183.863V184.068ZM429.434 183.863C429.434 182.783 429.229 181.9 428.818 181.217C428.415 180.527 427.809 180.182 427.002 180.182C426.507 180.182 426.087 180.289 425.742 180.504C425.397 180.712 425.12 181.005 424.912 181.383V186.158C425.12 186.529 425.397 186.816 425.742 187.018C426.087 187.213 426.514 187.311 427.021 187.311C427.829 187.311 428.431 187.014 428.828 186.422C429.232 185.823 429.434 185.038 429.434 184.068V183.863ZM439.131 180.572L438.115 180.533C437.653 180.533 437.266 180.631 436.953 180.826C436.647 181.021 436.41 181.298 436.24 181.656V189H433.867V178.434H436.035L436.191 179.967C436.458 179.426 436.8 179.003 437.217 178.697C437.64 178.391 438.125 178.238 438.672 178.238C438.815 178.238 438.949 178.251 439.072 178.277C439.196 178.297 439.31 178.323 439.414 178.355L439.131 180.572ZM440.361 183.619C440.361 182.05 440.791 180.761 441.65 179.752C442.523 178.743 443.704 178.238 445.195 178.238C446.712 178.238 447.9 178.743 448.76 179.752C449.626 180.755 450.059 182.044 450.059 183.619V183.824C450.059 185.413 449.626 186.708 448.76 187.711C447.9 188.707 446.719 189.205 445.215 189.205C443.704 189.205 442.516 188.704 441.65 187.701C440.791 186.699 440.361 185.406 440.361 183.824V183.619ZM442.734 183.824C442.734 184.853 442.936 185.693 443.34 186.344C443.737 186.988 444.362 187.311 445.215 187.311C446.042 187.311 446.66 186.988 447.07 186.344C447.487 185.693 447.695 184.853 447.695 183.824V183.619C447.695 182.61 447.487 181.78 447.07 181.129C446.66 180.471 446.035 180.143 445.195 180.143C444.368 180.143 443.75 180.471 443.34 181.129C442.936 181.786 442.734 182.617 442.734 183.619V183.824ZM455.645 185.426L455.82 186.285H455.879L456.064 185.426L458.164 178.434H460.615L456.865 189H454.805L451.035 178.434H453.486L455.645 185.426ZM464.639 189H462.266V178.434H464.639V189ZM464.639 175.846H462.266V173.766H464.639V175.846ZM473.242 186.129C473.242 185.764 473.086 185.462 472.773 185.221C472.461 184.98 471.878 184.768 471.025 184.586C469.762 184.319 468.805 183.941 468.154 183.453C467.51 182.958 467.188 182.288 467.188 181.441C467.188 180.556 467.562 179.801 468.311 179.176C469.059 178.551 470.046 178.238 471.27 178.238C472.559 178.238 473.581 178.557 474.336 179.195C475.098 179.827 475.462 180.611 475.43 181.549L475.41 181.607H473.135C473.135 181.171 472.969 180.797 472.637 180.484C472.305 180.172 471.849 180.016 471.27 180.016C470.697 180.016 470.26 180.146 469.961 180.406C469.661 180.66 469.512 180.973 469.512 181.344C469.512 181.715 469.652 182.011 469.932 182.232C470.218 182.447 470.794 182.639 471.66 182.809C472.988 183.082 473.971 183.469 474.609 183.971C475.254 184.465 475.576 185.143 475.576 186.002C475.576 186.952 475.182 187.724 474.395 188.316C473.613 188.909 472.581 189.205 471.299 189.205C469.925 189.205 468.841 188.854 468.047 188.15C467.253 187.447 466.875 186.64 466.914 185.729L466.934 185.67H469.141C469.167 186.282 469.388 186.728 469.805 187.008C470.221 187.288 470.729 187.428 471.328 187.428C471.94 187.428 472.412 187.311 472.744 187.076C473.076 186.842 473.242 186.526 473.242 186.129ZM480.244 189H477.871V178.434H480.244V189ZM480.244 175.846H477.871V173.766H480.244V175.846ZM385.811 204.619C385.811 203.05 386.24 201.761 387.1 200.752C387.972 199.743 389.154 199.238 390.645 199.238C392.161 199.238 393.35 199.743 394.209 200.752C395.075 201.755 395.508 203.044 395.508 204.619V204.824C395.508 206.413 395.075 207.708 394.209 208.711C393.35 209.707 392.168 210.205 390.664 210.205C389.154 210.205 387.965 209.704 387.1 208.701C386.24 207.699 385.811 206.406 385.811 204.824V204.619ZM388.184 204.824C388.184 205.853 388.385 206.693 388.789 207.344C389.186 207.988 389.811 208.311 390.664 208.311C391.491 208.311 392.109 207.988 392.52 207.344C392.936 206.693 393.145 205.853 393.145 204.824V204.619C393.145 203.61 392.936 202.78 392.52 202.129C392.109 201.471 391.484 201.143 390.645 201.143C389.818 201.143 389.199 201.471 388.789 202.129C388.385 202.786 388.184 203.617 388.184 204.619V204.824ZM399.727 199.434L399.863 200.957C400.208 200.417 400.641 199.997 401.162 199.697C401.689 199.391 402.282 199.238 402.939 199.238C404.04 199.238 404.896 199.574 405.508 200.244C406.126 200.908 406.436 201.947 406.436 203.359V210H404.062V203.379C404.062 202.585 403.896 202.021 403.564 201.689C403.239 201.351 402.741 201.182 402.07 201.182C401.608 201.182 401.195 201.286 400.83 201.494C400.465 201.696 400.166 201.976 399.932 202.334V210H397.559V199.434H399.727ZM411.055 199.434L411.191 200.957C411.536 200.417 411.969 199.997 412.49 199.697C413.018 199.391 413.61 199.238 414.268 199.238C415.368 199.238 416.224 199.574 416.836 200.244C417.454 200.908 417.764 201.947 417.764 203.359V210H415.391V203.379C415.391 202.585 415.225 202.021 414.893 201.689C414.567 201.351 414.069 201.182 413.398 201.182C412.936 201.182 412.523 201.286 412.158 201.494C411.794 201.696 411.494 201.976 411.26 202.334V210H408.887V199.434H411.055ZM424.766 210.205C423.268 210.205 422.074 209.717 421.182 208.74C420.296 207.757 419.854 206.497 419.854 204.961V204.57C419.854 203.034 420.293 201.761 421.172 200.752C422.057 199.736 423.164 199.232 424.492 199.238C425.918 199.238 427.008 199.671 427.764 200.537C428.525 201.396 428.906 202.552 428.906 204.004V205.4H422.314L422.295 205.449C422.334 206.289 422.578 206.976 423.027 207.51C423.483 208.044 424.111 208.311 424.912 208.311C425.55 208.311 426.097 208.232 426.553 208.076C427.008 207.92 427.448 207.695 427.871 207.402L428.633 208.955C428.236 209.307 427.708 209.603 427.051 209.844C426.393 210.085 425.632 210.205 424.766 210.205ZM424.492 201.143C423.906 201.143 423.424 201.377 423.047 201.846C422.669 202.308 422.435 202.897 422.344 203.613L422.363 203.662H426.553V203.418C426.553 202.747 426.38 202.201 426.035 201.777C425.697 201.354 425.182 201.143 424.492 201.143ZM432.988 199.434L433.115 200.811C433.46 200.309 433.893 199.922 434.414 199.648C434.935 199.375 435.537 199.238 436.221 199.238C436.911 199.238 437.503 199.395 437.998 199.707C438.493 200.02 438.864 200.488 439.111 201.113C439.437 200.527 439.867 200.068 440.4 199.736C440.934 199.404 441.559 199.238 442.275 199.238C443.337 199.238 444.173 199.603 444.785 200.332C445.404 201.055 445.713 202.155 445.713 203.633V210H443.34V203.623C443.34 202.725 443.184 202.093 442.871 201.729C442.565 201.364 442.103 201.182 441.484 201.182C440.977 201.182 440.547 201.318 440.195 201.592C439.844 201.865 439.59 202.233 439.434 202.695C439.434 202.793 439.437 202.878 439.443 202.949C439.45 203.021 439.453 203.089 439.453 203.154V210H437.08V203.623C437.08 202.757 436.921 202.135 436.602 201.758C436.289 201.374 435.827 201.182 435.215 201.182C434.733 201.182 434.323 201.276 433.984 201.465C433.652 201.647 433.389 201.908 433.193 202.246V210H430.82V199.434H432.988ZM452.754 210.205C451.257 210.205 450.062 209.717 449.17 208.74C448.285 207.757 447.842 206.497 447.842 204.961V204.57C447.842 203.034 448.281 201.761 449.16 200.752C450.046 199.736 451.152 199.232 452.48 199.238C453.906 199.238 454.997 199.671 455.752 200.537C456.514 201.396 456.895 202.552 456.895 204.004V205.4H450.303L450.283 205.449C450.322 206.289 450.566 206.976 451.016 207.51C451.471 208.044 452.1 208.311 452.9 208.311C453.538 208.311 454.085 208.232 454.541 208.076C454.997 207.92 455.436 207.695 455.859 207.402L456.621 208.955C456.224 209.307 455.697 209.603 455.039 209.844C454.382 210.085 453.62 210.205 452.754 210.205ZM452.48 201.143C451.895 201.143 451.413 201.377 451.035 201.846C450.658 202.308 450.423 202.897 450.332 203.613L450.352 203.662H454.541V203.418C454.541 202.747 454.368 202.201 454.023 201.777C453.685 201.354 453.171 201.143 452.48 201.143ZM460.957 199.434L461.094 200.957C461.439 200.417 461.872 199.997 462.393 199.697C462.92 199.391 463.512 199.238 464.17 199.238C465.27 199.238 466.126 199.574 466.738 200.244C467.357 200.908 467.666 201.947 467.666 203.359V210H465.293V203.379C465.293 202.585 465.127 202.021 464.795 201.689C464.469 201.351 463.971 201.182 463.301 201.182C462.839 201.182 462.425 201.286 462.061 201.494C461.696 201.696 461.396 201.976 461.162 202.334V210H458.789V199.434H460.957ZM473.086 196.865V199.434H474.98V201.191H473.086V207.031C473.086 207.467 473.18 207.78 473.369 207.969C473.558 208.151 473.809 208.242 474.121 208.242C474.251 208.242 474.378 208.232 474.502 208.213C474.626 208.187 474.743 208.154 474.854 208.115L475.107 209.854C474.906 209.964 474.665 210.049 474.385 210.107C474.105 210.173 473.815 210.205 473.516 210.205C472.643 210.205 471.96 209.951 471.465 209.443C470.97 208.929 470.723 208.125 470.723 207.031V201.191H469.111V199.434H470.723V196.865H473.086Z" fill="#00516B"/>
<path d="M166.89 315.435C166.89 314.694 166.613 314.088 166.06 313.616C165.514 313.144 164.546 312.721 163.154 312.346C161.169 311.825 159.639 311.138 158.564 310.283C157.498 309.421 156.965 308.293 156.965 306.902C156.965 305.47 157.555 304.29 158.735 303.362C159.924 302.434 161.453 301.97 163.325 301.97C165.278 301.97 166.845 302.495 168.025 303.545C169.213 304.595 169.787 305.856 169.746 307.329L169.722 307.402H166.877C166.877 306.491 166.568 305.754 165.95 305.193C165.331 304.623 164.448 304.338 163.301 304.338C162.218 304.338 161.384 304.574 160.798 305.046C160.221 305.518 159.932 306.129 159.932 306.877C159.932 307.553 160.245 308.114 160.872 308.562C161.506 309.01 162.552 309.433 164.009 309.832C165.921 310.344 167.374 311.052 168.367 311.956C169.36 312.859 169.856 314.01 169.856 315.41C169.856 316.891 169.262 318.071 168.074 318.95C166.894 319.821 165.339 320.256 163.411 320.256C161.555 320.256 159.928 319.768 158.528 318.792C157.128 317.807 156.449 316.46 156.489 314.751L156.514 314.678H159.37C159.37 315.76 159.744 316.57 160.493 317.107C161.242 317.636 162.214 317.9 163.411 317.9C164.509 317.9 165.364 317.681 165.974 317.241C166.584 316.794 166.89 316.191 166.89 315.435ZM185.945 314.104L185.969 314.177C186.002 315.976 185.416 317.441 184.211 318.572C183.015 319.695 181.392 320.256 179.341 320.256C177.266 320.256 175.577 319.561 174.275 318.169C172.981 316.769 172.334 314.983 172.334 312.81V309.429C172.334 307.264 172.973 305.482 174.25 304.082C175.536 302.674 177.205 301.97 179.255 301.97C181.355 301.97 183.007 302.524 184.211 303.63C185.424 304.729 186.014 306.21 185.981 308.074L185.957 308.147H183.088C183.088 306.951 182.763 306.019 182.112 305.352C181.469 304.684 180.517 304.351 179.255 304.351C178.043 304.351 177.078 304.831 176.362 305.791C175.654 306.751 175.3 307.956 175.3 309.404V312.81C175.3 314.275 175.662 315.487 176.387 316.448C177.119 317.408 178.104 317.888 179.341 317.888C180.57 317.888 181.501 317.559 182.136 316.899C182.771 316.24 183.088 315.308 183.088 314.104H185.945ZM192.012 320H189.045V302.227H192.012V320ZM206.819 312.004H199.043V317.632H208.064V320H196.077V302.227H207.979V304.607H199.043V309.624H206.819V312.004ZM224.458 320H221.504L213.618 307.024L213.545 307.048V320H210.579V302.227H213.545L221.431 315.19L221.504 315.166V302.227H224.458V320ZM241.316 314.104L241.34 314.177C241.373 315.976 240.787 317.441 239.583 318.572C238.386 319.695 236.763 320.256 234.712 320.256C232.637 320.256 230.948 319.561 229.646 318.169C228.352 316.769 227.705 314.983 227.705 312.81V309.429C227.705 307.264 228.344 305.482 229.622 304.082C230.907 302.674 232.576 301.97 234.626 301.97C236.726 301.97 238.378 302.524 239.583 303.63C240.795 304.729 241.385 306.21 241.353 308.074L241.328 308.147H238.459C238.459 306.951 238.134 306.019 237.483 305.352C236.84 304.684 235.888 304.351 234.626 304.351C233.414 304.351 232.45 304.831 231.733 305.791C231.025 306.751 230.671 307.956 230.671 309.404V312.81C230.671 314.275 231.034 315.487 231.758 316.448C232.49 317.408 233.475 317.888 234.712 317.888C235.941 317.888 236.873 317.559 237.507 316.899C238.142 316.24 238.459 315.308 238.459 314.104H241.316ZM254.988 312.004H247.212V317.632H256.233V320H244.246V302.227H256.147V304.607H247.212V309.624H254.988V312.004ZM264.973 320V302.227H270.735C272.989 302.227 274.82 302.931 276.228 304.338C277.644 305.746 278.352 307.557 278.352 309.771V312.468C278.352 314.69 277.644 316.501 276.228 317.9C274.82 319.3 272.989 320 270.735 320H264.973ZM267.939 304.607V317.632H270.649C272.122 317.632 273.278 317.152 274.116 316.191C274.963 315.231 275.386 313.99 275.386 312.468V309.746C275.386 308.241 274.963 307.008 274.116 306.047C273.278 305.087 272.122 304.607 270.649 304.607H267.939ZM292.146 312.004H284.37V317.632H293.391V320H281.404V302.227H293.306V304.607H284.37V309.624H292.146V312.004ZM305.537 315.435C305.537 314.694 305.26 314.088 304.707 313.616C304.162 313.144 303.193 312.721 301.802 312.346C299.816 311.825 298.286 311.138 297.212 310.283C296.146 309.421 295.613 308.293 295.613 306.902C295.613 305.47 296.203 304.29 297.383 303.362C298.571 302.434 300.101 301.97 301.973 301.97C303.926 301.97 305.492 302.495 306.672 303.545C307.861 304.595 308.434 305.856 308.394 307.329L308.369 307.402H305.525C305.525 306.491 305.216 305.754 304.597 305.193C303.979 304.623 303.096 304.338 301.948 304.338C300.866 304.338 300.032 304.574 299.446 305.046C298.868 305.518 298.579 306.129 298.579 306.877C298.579 307.553 298.892 308.114 299.519 308.562C300.154 309.01 301.2 309.433 302.656 309.832C304.569 310.344 306.021 311.052 307.014 311.956C308.007 312.859 308.503 314.01 308.503 315.41C308.503 316.891 307.909 318.071 306.721 318.95C305.541 319.821 303.987 320.256 302.058 320.256C300.203 320.256 298.575 319.768 297.175 318.792C295.776 317.807 295.096 316.46 295.137 314.751L295.161 314.678H298.018C298.018 315.76 298.392 316.57 299.141 317.107C299.889 317.636 300.862 317.9 302.058 317.9C303.157 317.9 304.011 317.681 304.622 317.241C305.232 316.794 305.537 316.191 305.537 315.435ZM317.854 320V302.227H323.616C325.87 302.227 327.701 302.931 329.109 304.338C330.525 305.746 331.233 307.557 331.233 309.771V312.468C331.233 314.69 330.525 316.501 329.109 317.9C327.701 319.3 325.87 320 323.616 320H317.854ZM320.82 304.607V317.632H323.53C325.003 317.632 326.159 317.152 326.997 316.191C327.843 315.231 328.267 313.99 328.267 312.468V309.746C328.267 308.241 327.843 307.008 326.997 306.047C326.159 305.087 325.003 304.607 323.53 304.607H320.82ZM348.14 312.712C348.14 314.885 347.456 316.688 346.089 318.12C344.73 319.544 342.964 320.256 340.791 320.256C338.659 320.256 336.925 319.544 335.591 318.12C334.264 316.688 333.601 314.885 333.601 312.712V309.514C333.601 307.349 334.264 305.551 335.591 304.119C336.925 302.686 338.655 301.97 340.779 301.97C342.952 301.97 344.722 302.686 346.089 304.119C347.456 305.551 348.14 307.349 348.14 309.514V312.712ZM345.186 309.49C345.186 308.009 344.787 306.792 343.989 305.84C343.2 304.888 342.13 304.412 340.779 304.412C339.477 304.412 338.447 304.888 337.69 305.84C336.934 306.792 336.555 308.009 336.555 309.49V312.712C336.555 314.21 336.934 315.439 337.69 316.399C338.447 317.351 339.481 317.827 340.791 317.827C342.15 317.827 343.22 317.351 344.001 316.399C344.791 315.447 345.186 314.218 345.186 312.712V309.49ZM365.229 320H362.275L354.39 307.024L354.316 307.048V320H351.35V302.227H354.316L362.202 315.19L362.275 315.166V302.227H365.229V320ZM383.003 320H380.049L372.163 307.024L372.09 307.048V320H369.124V302.227H372.09L379.976 315.19L380.049 315.166V302.227H383.003V320ZM397.639 312.004H389.863V317.632H398.884V320H386.897V302.227H398.799V304.607H389.863V309.624H397.639V312.004ZM393.379 297.722H396.663L396.687 297.795L393.354 300.969H391.047L393.379 297.722ZM412.141 312.004H404.365V317.632H413.386V320H401.399V302.227H413.301V304.607H404.365V309.624H412.141V312.004ZM425.532 315.435C425.532 314.694 425.256 314.088 424.702 313.616C424.157 313.144 423.188 312.721 421.797 312.346C419.811 311.825 418.281 311.138 417.207 310.283C416.141 309.421 415.608 308.293 415.608 306.902C415.608 305.47 416.198 304.29 417.378 303.362C418.566 302.434 420.096 301.97 421.968 301.97C423.921 301.97 425.487 302.495 426.667 303.545C427.856 304.595 428.429 305.856 428.389 307.329L428.364 307.402H425.52C425.52 306.491 425.211 305.754 424.592 305.193C423.974 304.623 423.091 304.338 421.943 304.338C420.861 304.338 420.027 304.574 419.441 305.046C418.863 305.518 418.574 306.129 418.574 306.877C418.574 307.553 418.888 308.114 419.514 308.562C420.149 309.01 421.195 309.433 422.651 309.832C424.564 310.344 426.016 311.052 427.009 311.956C428.002 312.859 428.499 314.01 428.499 315.41C428.499 316.891 427.904 318.071 426.716 318.95C425.536 319.821 423.982 320.256 422.053 320.256C420.198 320.256 418.57 319.768 417.17 318.792C415.771 317.807 415.091 316.46 415.132 314.751L415.156 314.678H418.013C418.013 315.76 418.387 316.57 419.136 317.107C419.884 317.636 420.857 317.9 422.053 317.9C423.152 317.9 424.006 317.681 424.617 317.241C425.227 316.794 425.532 316.191 425.532 315.435Z" fill="#00516B"/>
<path d="M240.148 419.076C239.771 419.617 239.149 420.108 238.283 420.551C237.424 420.987 236.317 421.205 234.963 421.205C233.251 421.205 231.841 420.665 230.734 419.584C229.628 418.497 229.074 417.094 229.074 415.375V412.406C229.074 410.688 229.595 409.288 230.637 408.207C231.685 407.12 233.036 406.576 234.689 406.576C236.363 406.576 237.661 406.99 238.586 407.816C239.517 408.637 239.992 409.708 240.012 411.029L239.992 411.088H237.746C237.694 410.307 237.414 409.678 236.906 409.203C236.405 408.721 235.676 408.48 234.719 408.48C233.736 408.48 232.941 408.848 232.336 409.584C231.737 410.32 231.438 411.254 231.438 412.387V415.375C231.438 416.521 231.763 417.465 232.414 418.207C233.072 418.943 233.921 419.311 234.963 419.311C235.705 419.311 236.307 419.226 236.77 419.057C237.232 418.881 237.567 418.676 237.775 418.441V415.551H234.953V413.773H240.148V419.076ZM242.326 415.619C242.326 414.05 242.756 412.761 243.615 411.752C244.488 410.743 245.669 410.238 247.16 410.238C248.677 410.238 249.865 410.743 250.725 411.752C251.59 412.755 252.023 414.044 252.023 415.619V415.824C252.023 417.413 251.59 418.708 250.725 419.711C249.865 420.707 248.684 421.205 247.18 421.205C245.669 421.205 244.481 420.704 243.615 419.701C242.756 418.699 242.326 417.406 242.326 415.824V415.619ZM244.699 415.824C244.699 416.853 244.901 417.693 245.305 418.344C245.702 418.988 246.327 419.311 247.18 419.311C248.007 419.311 248.625 418.988 249.035 418.344C249.452 417.693 249.66 416.853 249.66 415.824V415.619C249.66 414.61 249.452 413.78 249.035 413.129C248.625 412.471 248 412.143 247.16 412.143C246.333 412.143 245.715 412.471 245.305 413.129C244.901 413.786 244.699 414.617 244.699 415.619V415.824ZM260.676 419.457C260.344 420.017 259.924 420.45 259.416 420.756C258.908 421.055 258.322 421.205 257.658 421.205C256.525 421.205 255.64 420.844 255.002 420.121C254.364 419.398 254.045 418.275 254.045 416.752V410.434H256.408V416.771C256.408 417.696 256.558 418.344 256.857 418.715C257.157 419.086 257.609 419.271 258.215 419.271C258.788 419.271 259.266 419.171 259.65 418.969C260.041 418.76 260.347 418.461 260.568 418.07V410.434H262.941V421H260.871L260.676 419.457ZM269.094 417.426L269.27 418.285H269.328L269.514 417.426L271.613 410.434H274.064L270.314 421H268.254L264.484 410.434H266.936L269.094 417.426ZM279.953 421.205C278.456 421.205 277.261 420.717 276.369 419.74C275.484 418.757 275.041 417.497 275.041 415.961V415.57C275.041 414.034 275.48 412.761 276.359 411.752C277.245 410.736 278.352 410.232 279.68 410.238C281.105 410.238 282.196 410.671 282.951 411.537C283.713 412.396 284.094 413.552 284.094 415.004V416.4H277.502L277.482 416.449C277.521 417.289 277.766 417.976 278.215 418.51C278.671 419.044 279.299 419.311 280.1 419.311C280.738 419.311 281.285 419.232 281.74 419.076C282.196 418.92 282.635 418.695 283.059 418.402L283.82 419.955C283.423 420.307 282.896 420.603 282.238 420.844C281.581 421.085 280.819 421.205 279.953 421.205ZM279.68 412.143C279.094 412.143 278.612 412.377 278.234 412.846C277.857 413.308 277.622 413.897 277.531 414.613L277.551 414.662H281.74V414.418C281.74 413.747 281.568 413.201 281.223 412.777C280.884 412.354 280.37 412.143 279.68 412.143ZM291.271 412.572L290.256 412.533C289.794 412.533 289.406 412.631 289.094 412.826C288.788 413.021 288.55 413.298 288.381 413.656V421H286.008V410.434H288.176L288.332 411.967C288.599 411.426 288.941 411.003 289.357 410.697C289.781 410.391 290.266 410.238 290.812 410.238C290.956 410.238 291.089 410.251 291.213 410.277C291.337 410.297 291.451 410.323 291.555 410.355L291.271 412.572ZM295.09 410.434L295.227 411.957C295.572 411.417 296.005 410.997 296.525 410.697C297.053 410.391 297.645 410.238 298.303 410.238C299.403 410.238 300.259 410.574 300.871 411.244C301.49 411.908 301.799 412.947 301.799 414.359V421H299.426V414.379C299.426 413.585 299.26 413.021 298.928 412.689C298.602 412.351 298.104 412.182 297.434 412.182C296.971 412.182 296.558 412.286 296.193 412.494C295.829 412.696 295.529 412.976 295.295 413.334V421H292.922V410.434H295.09ZM308.801 421.205C307.303 421.205 306.109 420.717 305.217 419.74C304.331 418.757 303.889 417.497 303.889 415.961V415.57C303.889 414.034 304.328 412.761 305.207 411.752C306.092 410.736 307.199 410.232 308.527 410.238C309.953 410.238 311.044 410.671 311.799 411.537C312.561 412.396 312.941 413.552 312.941 415.004V416.4H306.35L306.33 416.449C306.369 417.289 306.613 417.976 307.062 418.51C307.518 419.044 308.146 419.311 308.947 419.311C309.585 419.311 310.132 419.232 310.588 419.076C311.044 418.92 311.483 418.695 311.906 418.402L312.668 419.955C312.271 420.307 311.743 420.603 311.086 420.844C310.428 421.085 309.667 421.205 308.801 421.205ZM308.527 412.143C307.941 412.143 307.46 412.377 307.082 412.846C306.704 413.308 306.47 413.897 306.379 414.613L306.398 414.662H310.588V414.418C310.588 413.747 310.415 413.201 310.07 412.777C309.732 412.354 309.217 412.143 308.527 412.143ZM317.023 410.434L317.15 411.811C317.495 411.309 317.928 410.922 318.449 410.648C318.97 410.375 319.572 410.238 320.256 410.238C320.946 410.238 321.538 410.395 322.033 410.707C322.528 411.02 322.899 411.488 323.146 412.113C323.472 411.527 323.902 411.068 324.436 410.736C324.969 410.404 325.594 410.238 326.311 410.238C327.372 410.238 328.208 410.603 328.82 411.332C329.439 412.055 329.748 413.155 329.748 414.633V421H327.375V414.623C327.375 413.725 327.219 413.093 326.906 412.729C326.6 412.364 326.138 412.182 325.52 412.182C325.012 412.182 324.582 412.318 324.23 412.592C323.879 412.865 323.625 413.233 323.469 413.695C323.469 413.793 323.472 413.878 323.479 413.949C323.485 414.021 323.488 414.089 323.488 414.154V421H321.115V414.623C321.115 413.757 320.956 413.135 320.637 412.758C320.324 412.374 319.862 412.182 319.25 412.182C318.768 412.182 318.358 412.276 318.02 412.465C317.688 412.647 317.424 412.908 317.229 413.246V421H314.855V410.434H317.023ZM336.789 421.205C335.292 421.205 334.097 420.717 333.205 419.74C332.32 418.757 331.877 417.497 331.877 415.961V415.57C331.877 414.034 332.316 412.761 333.195 411.752C334.081 410.736 335.188 410.232 336.516 410.238C337.941 410.238 339.032 410.671 339.787 411.537C340.549 412.396 340.93 413.552 340.93 415.004V416.4H334.338L334.318 416.449C334.357 417.289 334.602 417.976 335.051 418.51C335.507 419.044 336.135 419.311 336.936 419.311C337.574 419.311 338.12 419.232 338.576 419.076C339.032 418.92 339.471 418.695 339.895 418.402L340.656 419.955C340.259 420.307 339.732 420.603 339.074 420.844C338.417 421.085 337.655 421.205 336.789 421.205ZM336.516 412.143C335.93 412.143 335.448 412.377 335.07 412.846C334.693 413.308 334.458 413.897 334.367 414.613L334.387 414.662H338.576V414.418C338.576 413.747 338.404 413.201 338.059 412.777C337.72 412.354 337.206 412.143 336.516 412.143ZM344.992 410.434L345.129 411.957C345.474 411.417 345.907 410.997 346.428 410.697C346.955 410.391 347.548 410.238 348.205 410.238C349.305 410.238 350.161 410.574 350.773 411.244C351.392 411.908 351.701 412.947 351.701 414.359V421H349.328V414.379C349.328 413.585 349.162 413.021 348.83 412.689C348.505 412.351 348.007 412.182 347.336 412.182C346.874 412.182 346.46 412.286 346.096 412.494C345.731 412.696 345.432 412.976 345.197 413.334V421H342.824V410.434H344.992ZM357.121 407.865V410.434H359.016V412.191H357.121V418.031C357.121 418.467 357.215 418.78 357.404 418.969C357.593 419.151 357.844 419.242 358.156 419.242C358.286 419.242 358.413 419.232 358.537 419.213C358.661 419.187 358.778 419.154 358.889 419.115L359.143 420.854C358.941 420.964 358.7 421.049 358.42 421.107C358.14 421.173 357.85 421.205 357.551 421.205C356.678 421.205 355.995 420.951 355.5 420.443C355.005 419.929 354.758 419.125 354.758 418.031V412.191H353.146V410.434H354.758V407.865H357.121Z" fill="#00516B"/>
</g>
<defs>
<clipPath id="clip0">
<rect width="597" height="507" fill="white"/>
</clipPath>
</defs>
</svg>
