<svg width="656" height="685" viewBox="0 0 656 685" fill="none" xmlns="http://www.w3.org/2000/svg">
<g clip-path="url(#clip0)">
<path d="M546.966 364.295L533.336 443.942L428.45 493.203L546.966 364.295Z" fill="#4DD6D4"/>
<path d="M427.095 494.219L428.534 493.542L533.59 444.196V444.027L547.474 363.364L427.095 494.219ZM533.082 443.688L429.804 492.272L546.542 365.311L533.082 443.688Z" fill="white"/>
<path d="M428.45 548.135V493.203L533.337 443.942L428.45 548.135Z" fill="#40C1C0"/>
<path d="M428.111 548.897L428.619 548.389L534.86 442.842L533.167 443.604L428.111 493.034V548.897ZM531.813 444.958L428.788 547.289V493.457L531.813 444.958Z" fill="white"/>
<path d="M428.45 493.203L546.966 364.295L229.597 369.204L428.45 493.203Z" fill="#70EDEC"/>
<path d="M428.534 493.627L428.704 493.457L547.728 363.957H546.966L228.496 368.866L229.427 369.458L428.534 493.627ZM546.288 364.634L428.45 492.78L230.697 369.458L546.288 364.634Z" fill="white"/>
<path d="M147.481 139.404L7.46317 273.475L187.1 211.518L147.481 139.404Z" fill="#0BA9A6"/>
<path d="M6.19403 274.237L187.523 211.603L187.354 211.264L147.567 138.896L147.228 139.15L6.19403 274.237ZM186.592 211.264L8.73366 272.713L147.397 139.996L186.592 211.264Z" fill="white"/>
<path d="M118.785 398.405L187.101 211.518L7.46408 273.475L118.785 398.405Z" fill="#00908A"/>
<path d="M118.869 399.083L119.038 398.575L187.608 211.01L187.016 211.264L6.95605 273.391L7.29469 273.729L118.869 399.083ZM186.593 212.026L118.615 397.813L8.05655 273.645L186.593 212.026Z" fill="white"/>
<path d="M159.249 287.695L187.1 211.518L200.645 261.541L229.597 369.204L118.784 398.405L159.249 287.695Z" fill="#00BDB9"/>
<path d="M118.276 398.913L229.936 369.458L229.851 369.12L200.984 261.372L187.185 210.418L158.995 287.61L118.276 398.913ZM229.174 368.95L119.292 397.982L187.016 212.534L200.307 261.625L229.174 368.95Z" fill="white"/>
<path d="M428.449 548.135L118.784 398.405L229.596 369.204L428.449 493.203V548.135Z" fill="#00908A"/>
<path d="M428.788 548.643V493.119L428.619 493.034L229.596 368.95H229.427L117.768 398.405L118.53 398.744L428.788 548.643ZM428.111 493.373V547.543L119.63 398.49L229.427 369.543L428.111 493.373Z" fill="white"/>
<path d="M428.45 161.918L546.966 364.295L229.597 369.204L187.1 211.518L428.45 161.918Z" fill="#A4F5F4"/>
<path d="M229.343 369.543H229.597L547.559 364.634L547.305 364.126L428.619 161.58L428.365 161.664L186.677 211.264L186.762 211.603L229.343 369.543ZM546.458 364.041L229.851 368.95L187.524 211.772L428.281 162.342L546.458 364.041Z" fill="white"/>
<path d="M428.45 161.918L187.101 211.518L147.482 139.404L428.45 161.918Z" fill="#70EDEC"/>
<path d="M186.931 211.857L187.185 211.772L430.735 161.834L428.534 161.664L146.974 139.065L186.931 211.857ZM426.164 162.088L187.185 211.095L147.99 139.742L426.164 162.088Z" fill="white"/>
<path d="M-110.037 369.374L-112.577 369.881L-110.291 368.866V256.378L129.112 189.511L66.8059 2.45461L67.1445 2.28533L67.2292 2.0314L380.535 119.259L535.198 76.0923L535.706 75.8384L535.622 76.2616L535.791 76.4309H535.876L653.037 221.167L653.461 221.082L653.291 221.506L653.884 222.267L653.037 221.929L417.952 678.991L416.936 680.937L417.698 677.044L293.764 682.292H293.51L293.426 682.122L-110.037 369.374ZM534.944 76.9387L413.973 131.786L500.236 164.034L534.775 77.5312L534.944 76.9387ZM500.829 164.288L516.659 170.213L534.183 80.8322L500.829 164.288ZM500.575 164.881L463.496 257.817L500.998 250.538L516.574 170.806L500.575 164.881ZM499.982 164.627L413.127 132.125L188.031 234.202L224.348 304.031L462.734 257.901L499.982 164.627ZM150.444 251.299L171.439 314.272L223.586 304.2L187.354 234.54L150.444 251.299ZM187.184 233.948L159.926 181.555L130.043 189.935L150.275 250.707L187.184 233.948ZM149.936 251.553L-107.328 368.273L170.846 314.442L149.936 251.553ZM224.602 304.708L348.79 543.396L462.48 258.663L224.602 304.708ZM224.009 304.792L171.693 314.949L293.849 681.022L348.451 544.242L224.009 304.792ZM171.1 315.034L-109.106 369.289L293.172 681.022L171.1 315.034ZM-109.614 256.886V368.612L149.683 250.961L129.365 190.104L-109.614 256.886ZM129.789 189.342L159.587 181.047L68.6683 6.09417L129.789 189.342ZM67.7371 2.96245L160.264 180.793L379.519 119.513L67.7371 2.96245ZM380.535 119.936L160.518 181.386L187.692 233.694L412.28 131.871L380.535 119.936ZM413.127 131.448L531.474 77.7851L381.635 119.682L413.127 131.448ZM535.622 77.1927L535.452 77.7005L517.336 170.467L651.937 220.829L535.622 77.1927ZM517.167 171.06L501.675 250.453L651.767 221.421L517.167 171.06ZM652.36 221.929L501.591 251.13L418.46 676.705L652.36 221.929ZM500.913 251.215L463.242 258.494L349.213 544.157L417.952 676.367L500.913 251.215ZM348.874 544.919L294.272 681.53L417.19 676.367L348.874 544.919Z" fill="white"/>
<path d="M64.013 3.13172C64.013 4.82454 65.3675 6.26344 67.1452 6.26344C68.8383 6.26344 70.2773 4.90918 70.2773 3.13172C70.2773 1.4389 68.9229 0 67.1452 0C65.3675 0 64.013 1.35426 64.013 3.13172Z" fill="white"/>
<path d="M290.717 681.953C290.717 683.646 292.072 685.085 293.849 685.085C295.542 685.085 296.981 683.73 296.981 681.953C296.981 680.26 295.627 678.821 293.849 678.821C292.072 678.821 290.717 680.175 290.717 681.953Z" fill="white"/>
<path d="M414.566 675.689C414.566 677.382 415.92 678.821 417.698 678.821C419.391 678.821 420.83 677.467 420.83 675.689C420.83 673.997 419.476 672.558 417.698 672.558C416.005 672.642 414.566 673.997 414.566 675.689Z" fill="white"/>
<path d="M649.821 221.506C649.821 223.198 651.175 224.637 652.953 224.637C654.646 224.637 656.085 223.283 656.085 221.506C656.085 219.813 654.73 218.374 652.953 218.374C651.175 218.374 649.821 219.813 649.821 221.506Z" fill="white"/>
<path d="M532.489 76.3462C532.489 78.039 533.844 79.4779 535.622 79.4779C537.315 79.4779 538.754 78.1237 538.754 76.3462C538.754 74.6534 537.399 73.2145 535.622 73.2145C533.844 73.2991 532.489 74.6534 532.489 76.3462Z" fill="white"/>
</g>
<defs>
<clipPath id="clip0">
<rect width="769" height="685" fill="white" transform="matrix(-1 0 0 1 656 0)"/>
</clipPath>
</defs>
</svg>
