<svg width="413" height="318" viewBox="0 0 413 318" fill="none" xmlns="http://www.w3.org/2000/svg">
<path d="M76.0684 223.949L109.727 259.786L179.489 249.562L76.0684 223.949Z" fill="#4DD6D4"/>
<path d="M180.518 249.623L179.56 249.762L109.684 260L109.627 259.914L75.498 223.647L180.518 249.623ZM109.771 259.572L178.49 249.544L76.6242 224.322L109.771 259.572Z" fill="white"/>
<path d="M197.934 277.435L179.49 249.562L109.728 259.786L197.934 277.435Z" fill="#40C1C0"/>
<path d="M198.362 277.708L197.934 277.621L108.585 259.739L109.7 259.557L179.605 249.363L198.362 277.708ZM110.842 259.79L197.478 277.119L179.403 249.805L110.842 259.79Z" fill="white"/>
<path d="M179.489 249.562L76.0684 223.949L238.757 119.874L179.489 249.562Z" fill="#70EDEC"/>
<path d="M179.589 249.805L179.446 249.776L75.5684 224.033L75.955 223.777L239.202 119.332L238.929 119.946L179.589 249.805ZM76.526 223.893L179.348 249.348L238.284 120.372L76.526 223.893Z" fill="white"/>
<path d="M203.264 -24.3003L319.33 -3.2873L207.375 25.5938L203.264 -24.3003Z" fill="#0BA9A6"/>
<path d="M320.23 -3.32739L207.189 25.7786L207.161 25.55L203.051 -24.5298L203.308 -24.5146L320.23 -3.32739ZM207.548 25.2942L318.43 -3.24769L203.507 -24.0283L207.548 25.2942Z" fill="white"/>
<path d="M304.792 97.481L207.376 25.5931L319.331 -3.28799L304.792 97.481Z" fill="#00908A"/>
<path d="M304.976 97.854L304.719 97.653L206.947 25.5062L207.333 25.4361L319.56 -3.50131L319.502 -3.21581L304.976 97.854ZM207.804 25.6805L304.678 97.124L319.087 -3.00291L207.804 25.6805Z" fill="white"/>
<path d="M247.085 54.894L207.375 25.5934L217.298 55.5233L238.758 119.874L304.791 97.482L247.085 54.894Z" fill="#00BDB9"/>
<path d="M305.219 97.569L238.67 120.116L238.6 119.916L217.069 55.5512L206.962 25.0637L247.185 54.7659L305.219 97.569ZM238.886 119.603L304.391 97.438L207.759 26.0805L217.498 55.4527L238.886 119.603Z" fill="white"/>
<path d="M197.934 277.435L304.791 97.482L238.757 119.874L179.489 249.563L197.934 277.435Z" fill="#00908A"/>
<path d="M197.933 277.807L179.289 249.633L179.347 249.533L238.672 119.745L238.758 119.688L305.307 97.141L305.034 97.568L197.933 277.807ZM179.718 249.535L197.907 277.021L304.39 97.809L238.957 119.989L179.718 249.535Z" fill="white"/>
<path d="M68.2549 81.467L76.0687 223.949L238.758 119.873L207.375 25.593L68.2549 81.467Z" fill="#A4F5F4"/>
<path d="M239.001 119.96L238.872 120.045L75.8821 224.32L75.8404 223.977L68.0557 81.352L68.213 81.309L207.505 25.3222L207.576 25.5224L239.001 119.96ZM76.2416 223.649L238.544 119.83L207.246 25.8641L68.4833 81.625L76.2416 223.649Z" fill="white"/>
<path d="M68.2549 81.467L207.375 25.5933L203.265 -24.3008L68.2549 81.467Z" fill="#70EDEC"/>
<path d="M207.575 25.7081L207.418 25.7504L67.0664 82.191L68.1264 81.366L203.409 -24.6432L207.575 25.7081ZM69.4712 80.785L207.19 25.4068L203.121 -23.9586L69.4712 80.785Z" fill="white"/>
</svg>
