<svg width="414" height="391" viewBox="0 0 414 391" fill="none" xmlns="http://www.w3.org/2000/svg">
<path d="M350.636 114.805L370.494 159.866L333.755 220.176L350.636 114.805Z" fill="#4DD6D4"/>
<path d="M333.408 221.147L333.912 220.319L370.709 159.91L370.652 159.824L350.581 114.161L333.408 221.147ZM370.28 159.823L334.13 219.247L350.762 115.464L370.28 159.823Z" fill="white"/>
<path d="M352.228 248.093L333.754 220.176L370.494 159.866L352.228 248.093Z" fill="#40C1C0"/>
<path d="M352.312 248.594L352.399 248.165L370.898 158.795L370.294 159.751L333.525 220.204L352.312 248.594ZM370.061 160.895L352.115 247.549L334.012 220.191L370.061 160.895Z" fill="white"/>
<path d="M333.755 220.176L350.636 114.805L190.991 224.035L333.755 220.176Z" fill="#70EDEC"/>
<path d="M333.94 220.362L333.969 220.219L350.909 114.377L350.522 114.633L190.318 224.233L190.991 224.221L333.94 220.362ZM350.405 115.205L333.612 219.961L191.636 223.794L350.405 115.205Z" fill="white"/>
<path d="M71.9771 134.865L45.9043 250.091L116.364 158.19L71.9771 134.865Z" fill="#0BA9A6"/>
<path d="M45.5146 250.905L116.607 158.091L116.408 157.976L71.8489 134.579L71.7621 134.822L45.5146 250.905ZM116.02 158.232L46.293 249.277L72.1329 135.195L116.02 158.232Z" fill="white"/>
<path d="M144.493 276.144L116.363 158.191L45.9033 250.092L144.493 276.144Z" fill="#00908A"/>
<path d="M144.765 276.459L144.68 276.144L116.451 157.762L116.235 158.09L45.6172 250.219L45.9032 250.277L144.765 276.459ZM116.276 158.619L144.209 275.899L46.2619 249.978L116.276 158.619Z" fill="white"/>
<path d="M127.829 206.271L116.365 158.19L140.071 179.057L190.993 224.035L144.495 276.143L127.829 206.271Z" fill="#00BDB9"/>
<path d="M144.407 276.571L191.25 224.05L191.093 223.906L140.186 178.856L116.038 157.602L127.671 206.312L144.407 276.571ZM190.692 224.048L144.611 275.757L116.663 158.734L139.928 179.213L190.692 224.048Z" fill="white"/>
<path d="M352.228 248.092L144.494 276.143L190.991 224.035L333.754 220.176L352.228 248.092Z" fill="#00908A"/>
<path d="M352.571 248.237L333.898 220.019L333.784 220.033L190.906 223.906L190.82 223.963L143.978 276.485L144.479 276.401L352.571 248.237ZM333.64 220.376L351.857 247.905L144.953 275.901L191.019 224.264L333.64 220.376Z" fill="white"/>
<path d="M222.343 51.8146L350.635 114.805L190.991 224.035L116.363 158.19L222.343 51.8146Z" fill="#A4F5F4"/>
<path d="M190.976 224.293L191.105 224.208L351.05 114.779L350.751 114.606L222.316 51.5859L222.215 51.7144L116.063 158.204L116.22 158.347L190.976 224.293ZM350.292 114.848L191.035 223.821L116.664 158.177L222.4 52.087L350.292 114.848Z" fill="white"/>
<path d="M222.344 51.8147L116.364 158.19L71.9775 134.865L222.344 51.8147Z" fill="#70EDEC"/>
<path d="M116.392 158.419L116.493 158.291L223.477 51.0029L222.302 51.6571L71.6055 134.864L116.392 158.419ZM221.239 52.6694L116.265 157.947L72.3495 134.867L221.239 52.6694Z" fill="white"/>
</svg>
