<svg width="723" height="644" viewBox="0 0 723 644" fill="none" xmlns="http://www.w3.org/2000/svg">
<g clip-path="url(#clip0)">
<path d="M102.513 342.491L115.327 417.371L213.939 463.683L102.513 342.491Z" fill="#4DD6D4"/>
<path d="M215.213 464.638L213.86 464.001L115.088 417.609V417.45L102.035 341.615L215.213 464.638ZM115.566 417.132L212.666 462.808L102.911 343.445L115.566 417.132Z" fill="white"/>
<path d="M213.939 515.327V463.683L115.326 417.371L213.939 515.327Z" fill="#40C1C0"/>
<path d="M214.257 516.044L213.78 515.566L113.894 416.336L115.485 417.052L214.257 463.524V516.044ZM116.759 418.325L213.62 514.532V463.922L116.759 418.325Z" fill="white"/>
<path d="M213.938 463.683L102.512 342.491L400.896 347.106L213.938 463.683Z" fill="#70EDEC"/>
<path d="M213.859 464.081L213.7 463.922L101.796 342.172H102.512L401.932 346.788L401.056 347.345L213.859 464.081ZM103.149 342.809L213.939 463.285L399.862 347.345L103.149 342.809Z" fill="white"/>
<path d="M478.099 131.06L609.742 257.107L440.851 198.858L478.099 131.06Z" fill="#0BA9A6"/>
<path d="M610.936 257.823L440.453 198.937L440.612 198.619L478.02 130.582L478.338 130.821L610.936 257.823ZM441.329 198.619L608.548 256.39L478.179 131.617L441.329 198.619Z" fill="white"/>
<path d="M505.081 374.559L440.852 198.858L609.743 257.107L505.081 374.559Z" fill="#00908A"/>
<path d="M505.002 375.196L504.842 374.718L440.374 198.38L440.931 198.619L610.22 257.027L609.902 257.345L505.002 375.196ZM441.329 199.335L505.24 374.002L609.185 257.266L441.329 199.335Z" fill="white"/>
<path d="M467.036 270.475L440.851 198.858L428.116 245.887L400.896 347.106L505.08 374.559L467.036 270.475Z" fill="#00BDB9"/>
<path d="M505.558 375.037L400.578 347.345L400.658 347.026L427.798 245.727L440.771 197.823L467.275 270.396L505.558 375.037ZM401.294 346.867L504.603 374.161L440.931 199.813L428.435 245.966L401.294 346.867Z" fill="white"/>
<path d="M213.938 515.327L505.08 374.559L400.897 347.106L213.938 463.683V515.327Z" fill="#00908A"/>
<path d="M213.62 515.805V463.604L213.779 463.524L400.897 346.867H401.056L506.036 374.559L505.319 374.878L213.62 515.805ZM214.257 463.842V514.77L504.285 374.639L401.056 347.424L214.257 463.842Z" fill="white"/>
<path d="M213.938 152.227L102.512 342.491L400.897 347.106L440.851 198.858L213.938 152.227Z" fill="#A4F5F4"/>
<path d="M401.136 347.424H400.897L101.955 342.809L102.194 342.331L213.78 151.909L214.018 151.988L441.249 198.619L441.17 198.937L401.136 347.424ZM102.99 342.252L400.658 346.867L440.453 199.097L214.098 152.625L102.99 342.252Z" fill="white"/>
<path d="M213.938 152.227L440.851 198.858L478.099 131.06L213.938 152.227Z" fill="#70EDEC"/>
<path d="M441.011 199.176L440.772 199.097L211.79 152.147L213.859 151.988L478.577 130.742L441.011 199.176ZM216.088 152.386L440.772 198.46L477.622 131.378L216.088 152.386Z" fill="white"/>
<path d="M720.214 347.265L722.602 347.743L720.453 346.788V241.033L495.371 178.168L553.949 2.30768L553.631 2.14853L553.551 1.9098L258.987 112.121L113.575 71.5379L113.098 71.2992L113.177 71.697L113.018 71.8562H112.938L2.78516 207.929L2.38721 207.85L2.54639 208.248L1.98926 208.964L2.78516 208.646L223.808 638.35L224.763 640.18L224.047 636.52L340.567 641.454H340.806L340.886 641.295L720.214 347.265ZM113.814 72.3336L227.549 123.898L146.446 154.216L113.973 72.8907L113.814 72.3336ZM145.889 154.455L131.005 160.025L114.53 75.9941L145.889 154.455ZM146.128 155.012L180.988 242.385L145.73 235.542L131.085 160.582L146.128 155.012ZM146.685 154.773L228.345 124.217L439.976 220.184L405.831 285.833L181.705 242.465L146.685 154.773ZM475.314 236.258L455.575 295.462L406.548 285.992L440.612 220.502L475.314 236.258ZM440.772 219.945L466.4 170.688L494.495 178.566L475.473 235.701L440.772 219.945ZM475.791 236.497L717.667 346.231L456.133 295.621L475.791 236.497ZM405.593 286.47L288.833 510.871L181.943 243.181L405.593 286.47ZM406.15 286.549L455.337 296.098L340.488 640.26L289.152 511.667L406.15 286.549ZM455.894 296.178L719.338 347.185L341.124 640.26L455.894 296.178ZM719.816 241.51V346.549L476.03 235.94L495.132 178.725L719.816 241.51ZM494.734 178.009L466.718 170.211L552.198 5.7294L494.734 178.009ZM553.074 2.78513L466.081 169.972L259.942 112.36L553.074 2.78513ZM258.987 112.758L465.843 170.529L440.294 219.706L229.141 123.978L258.987 112.758ZM228.345 123.58L117.077 73.1294L257.952 112.519L228.345 123.58ZM113.177 72.5724L113.336 73.0498L130.369 160.264L3.81984 207.611L113.177 72.5724ZM130.528 160.821L145.093 235.462L3.97902 208.168L130.528 160.821ZM3.42189 208.646L145.173 236.099L223.33 636.202L3.42189 208.646ZM145.809 236.178L181.227 243.022L288.435 511.587L223.808 635.883L145.809 236.178ZM288.754 512.303L340.09 640.737L224.524 635.883L288.754 512.303Z" fill="white"/>
<path d="M556.576 2.94427C556.576 4.53577 555.303 5.88855 553.631 5.88855C552.04 5.88855 550.687 4.61535 550.687 2.94427C550.687 1.35277 551.96 0 553.631 0C555.303 0 556.576 1.2732 556.576 2.94427Z" fill="white"/>
<path d="M722.999 241.271C722.999 242.863 721.726 244.215 720.054 244.215C718.462 244.215 717.109 242.942 717.109 241.271C717.109 239.68 718.383 238.327 720.054 238.327C721.726 238.407 722.999 239.68 722.999 241.271Z" fill="white"/>
<path d="M722.999 346.947C722.999 348.538 721.726 349.891 720.054 349.891C718.462 349.891 717.109 348.618 717.109 346.947C717.109 345.355 718.383 344.002 720.054 344.002C721.726 344.082 722.999 345.355 722.999 346.947Z" fill="white"/>
<path d="M343.433 641.135C343.433 642.727 342.159 644.08 340.488 644.08C338.896 644.08 337.543 642.806 337.543 641.135C337.543 639.544 338.816 638.191 340.488 638.191C342.159 638.191 343.433 639.464 343.433 641.135Z" fill="white"/>
<path d="M226.991 635.247C226.991 636.838 225.718 638.191 224.046 638.191C222.455 638.191 221.102 636.918 221.102 635.247C221.102 633.655 222.375 632.302 224.046 632.302C225.638 632.382 226.991 633.655 226.991 635.247Z" fill="white"/>
<path d="M5.80962 208.248C5.80962 209.839 4.53617 211.192 2.86477 211.192C1.27296 211.192 -0.0800781 209.919 -0.0800781 208.248C-0.0800781 206.656 1.19337 205.303 2.86477 205.303C4.53617 205.303 5.80962 206.656 5.80962 208.248Z" fill="white"/>
<path d="M116.122 71.7766C116.122 73.3681 114.849 74.7209 113.177 74.7209C111.585 74.7209 110.232 73.4477 110.232 71.7766C110.232 70.1851 111.506 68.8323 113.177 68.8323C114.849 68.9119 116.122 70.1851 116.122 71.7766Z" fill="white"/>
</g>
<defs>
<clipPath id="clip0">
<rect width="723" height="644" fill="white"/>
</clipPath>
</defs>
</svg>
