<svg width="237" height="442" viewBox="0 0 237 442" fill="none" xmlns="http://www.w3.org/2000/svg">
<path d="M174.006 377.322L236.515 341.275V60.7319L174.006 96.7793V377.322Z" fill="url(#paint0_linear)"/>
<path d="M112.085 341.275L174.006 377.322V96.7793L112.085 60.7319V341.275Z" fill="url(#paint1_linear)"/>
<path d="M112.085 341.275L174.006 377.322V96.7793L112.085 60.7319V341.275Z" fill="url(#paint2_linear)"/>
<path d="M112.085 60.732L174.006 96.7794L236.516 60.732L174.79 24.6846L112.085 60.732Z" fill="url(#paint3_linear)"/>
<path d="M174.007 88.943L222.408 61.1238V46.6265L174.007 74.4456V88.943Z" fill="url(#paint4_linear)"/>
<path d="M126.39 61.1238L174.006 88.943V74.4456L126.39 46.6265V61.1238Z" fill="url(#paint5_linear)"/>
<path d="M174.007 75.817L222.408 47.9978V46.6265L174.007 74.4457V75.817Z" fill="url(#paint6_linear)"/>
<path d="M126.39 47.9978L174.006 75.817V74.4457L126.39 46.6265V47.9978Z" fill="url(#paint7_linear)"/>
<path d="M126.39 46.6268L174.006 74.446L222.407 46.6268L174.594 18.8076L126.39 46.6268Z" fill="url(#paint8_linear)"/>
<path d="M174.201 66.4133L208.101 47.0182V32.7168L174.201 52.3078V66.4133Z" fill="url(#paint9_linear)"/>
<path d="M140.498 47.0182L174.202 66.4133V52.3078L140.498 32.7168V47.0182Z" fill="url(#paint10_linear)"/>
<path d="M174.201 53.6792L208.101 34.2841V32.7168L174.201 52.3078V53.6792Z" fill="url(#paint11_linear)"/>
<path d="M140.498 34.2841L174.202 53.6792V52.3078L140.498 32.7168V34.2841Z" fill="url(#paint12_linear)"/>
<path d="M140.499 32.7169L174.203 52.3079L208.103 32.7169L174.594 13.126L140.499 32.7169Z" fill="url(#paint13_linear)"/>
<path d="M174.201 44.6674L195.56 32.3251V18.4155L174.201 30.5619V44.6674Z" fill="url(#paint14_linear)"/>
<path d="M153.235 32.3251L174.202 44.6674V30.5619L153.235 18.4155V32.3251Z" fill="url(#paint15_linear)"/>
<path d="M174.201 32.1292L195.56 19.9828V18.4155L174.201 30.5619V32.1292Z" fill="url(#paint16_linear)"/>
<path d="M153.235 19.9828L174.202 32.1292V30.5619L153.235 18.4155V19.9828Z" fill="url(#paint17_linear)"/>
<path d="M153.235 18.4155L174.202 30.5619L195.561 18.4155L174.398 6.07324L153.235 18.4155Z" fill="url(#paint18_linear)"/>
<path d="M116.788 394.562L159.702 369.681V249.001L116.788 273.882V394.562Z" fill="url(#paint19_linear)"/>
<path d="M200.853 376.342L188.9 369.681V106.183L200.853 112.648V376.342Z" fill="url(#paint20_linear)"/>
<path d="M230.834 358.71L200.657 376.342V112.648L230.834 95.0156V358.71Z" fill="url(#paint21_linear)"/>
<path d="M230.834 95.0158L200.657 112.648L188.9 106.183L219.077 88.5508L230.834 95.0158Z" fill="url(#paint22_linear)"/>
<path d="M222.996 106.771L227.111 104.42V360.866L222.996 363.217V106.771Z" fill="url(#paint23_linear)"/>
<path d="M214.374 111.865L218.489 109.514V365.96L214.374 368.31V111.865Z" fill="url(#paint24_linear)"/>
<path d="M205.751 116.958L209.866 114.607V370.857L205.751 373.208V116.958Z" fill="url(#paint25_linear)"/>
<path d="M146.376 275.057L150.492 272.707V374.384L146.376 376.735V275.057Z" fill="url(#paint26_linear)"/>
<path d="M137.754 280.151L141.869 277.8V379.477L137.754 381.828V280.151Z" fill="url(#paint27_linear)"/>
<path d="M129.132 285.244L133.247 282.894V384.375L129.132 386.726V285.244Z" fill="url(#paint28_linear)"/>
<path d="M174.201 0V22.1378L181.06 18.2196L174.201 0Z" fill="url(#paint29_linear)"/>
<path d="M174.203 0V22.1378L167.541 18.2196L174.203 0Z" fill="url(#paint30_linear)"/>
<path d="M160.29 109.318L163.817 111.277V107.359L160.29 105.4V109.318Z" fill="#BB6DF3"/>
<path d="M153.823 105.595L157.35 107.555V103.636L153.823 101.677V105.595Z" fill="#836DF3"/>
<path d="M147.357 101.873L150.688 103.832V99.9142L147.357 97.9551V101.873Z" fill="#836DF3"/>
<path d="M140.89 98.1507L144.221 100.11V96.1916L140.89 94.0366V98.1507Z" fill="#5277F7"/>
<path d="M134.227 94.2327L137.754 96.3877V92.2736L134.227 90.3145V94.2327Z" fill="#5277F7"/>
<path d="M127.762 90.5105L131.289 92.4696V88.5514L127.762 86.5923V90.5105Z" fill="#5277F7"/>
<path d="M121.294 86.7883L124.626 88.7474V84.8292L121.294 82.8701V86.7883Z" fill="#5277F7"/>
<path d="M160.29 117.742L163.817 119.701V115.783L160.29 113.824V117.742Z" fill="#5277F7"/>
<path d="M153.823 114.019L157.35 115.978V112.06L153.823 110.101V114.019Z" fill="#836DF3"/>
<path d="M147.357 110.297L150.688 112.256V108.338L147.357 106.379V110.297Z" fill="#5277F7"/>
<path d="M140.89 106.575L144.221 108.534V104.616L140.89 102.461V106.575Z" fill="#5277F7"/>
<path d="M134.227 102.656L137.754 104.811V100.697L134.227 98.7383V102.656Z" fill="#836DF3"/>
<path d="M127.762 98.9343L131.289 100.893V96.9752L127.762 95.0161V98.9343Z" fill="#836DF3"/>
<path d="M121.294 95.2121L124.626 97.1712V93.253L121.294 91.2939V95.2121Z" fill="#5277F7"/>
<path d="M160.29 126.166L163.817 128.125V124.207L160.29 122.248V126.166Z" fill="#5277F7"/>
<path d="M153.823 122.443L157.35 124.402V120.484L153.823 118.525V122.443Z" fill="#836DF3"/>
<path d="M147.357 118.721L150.688 120.68V116.762L147.357 114.803V118.721Z" fill="#5277F7"/>
<path d="M140.89 114.999L144.221 116.958V113.04L140.89 110.885V114.999Z" fill="#BB6DF3"/>
<path d="M134.227 111.081L137.754 113.236V109.122L134.227 107.163V111.081Z" fill="#5277F7"/>
<path d="M127.762 107.358L131.289 109.317V105.399L127.762 103.44V107.358Z" fill="#836DF3"/>
<path d="M121.294 103.636L124.626 105.595V101.677L121.294 99.7178V103.636Z" fill="#5277F7"/>
<path d="M160.29 134.59L163.817 136.549V132.631L160.29 130.672V134.59Z" fill="#836DF3"/>
<path d="M153.823 130.867L157.35 132.827V128.908L153.823 126.949V130.867Z" fill="#5277F7"/>
<path d="M147.357 127.145L150.688 129.104V125.186L147.357 123.227V127.145Z" fill="#5277F7"/>
<path d="M140.89 123.423L144.221 125.382V121.464L140.89 119.309V123.423Z" fill="#836DF3"/>
<path d="M134.227 119.505L137.754 121.66V117.546L134.227 115.587V119.505Z" fill="#5277F7"/>
<path d="M127.762 115.782L131.289 117.742V113.823L127.762 111.864V115.782Z" fill="#5277F7"/>
<path d="M121.294 112.06L124.626 114.019V110.101L121.294 108.142V112.06Z" fill="#5277F7"/>
<path d="M160.29 143.015L163.817 144.974V141.056L160.29 139.097V143.015Z" fill="#5277F7"/>
<path d="M153.823 139.292L157.35 141.251V137.333L153.823 135.374V139.292Z" fill="#836DF3"/>
<path d="M147.357 135.57L150.688 137.529V133.61L147.357 131.651V135.57Z" fill="#836DF3"/>
<path d="M140.89 131.848L144.221 133.807V129.888L140.89 127.733V131.848Z" fill="#5277F7"/>
<path d="M134.227 127.929L137.754 130.084V125.97L134.227 124.011V127.929Z" fill="#5277F7"/>
<path d="M127.762 124.207L131.289 126.166V122.248L127.762 120.289V124.207Z" fill="#BB6DF3"/>
<path d="M121.294 120.485L124.626 122.444V118.526L121.294 116.567V120.485Z" fill="#836DF3"/>
<path d="M160.29 151.439L163.817 153.398V149.48L160.29 147.521V151.439Z" fill="#5277F7"/>
<path d="M153.823 147.716L157.35 149.675V145.757L153.823 143.798V147.716Z" fill="#5277F7"/>
<path d="M147.357 143.994L150.688 145.953V142.035L147.357 140.076V143.994Z" fill="#5277F7"/>
<path d="M140.89 140.272L144.221 142.231V138.313L140.89 136.158V140.272Z" fill="#836DF3"/>
<path d="M134.227 136.354L137.754 138.509V134.395L134.227 132.436V136.354Z" fill="#5277F7"/>
<path d="M127.762 132.631L131.289 134.59V130.672L127.762 128.713V132.631Z" fill="#836DF3"/>
<path d="M121.294 128.909L124.626 130.868V126.95L121.294 124.991V128.909Z" fill="#5277F7"/>
<path d="M160.29 159.863L163.817 161.822V157.903L160.29 155.944V159.863Z" fill="#5277F7"/>
<path d="M153.823 156.14L157.35 158.099V154.181L153.823 152.222V156.14Z" fill="#BB6DF3"/>
<path d="M147.357 152.418L150.688 154.377V150.459L147.357 148.5V152.418Z" fill="#836DF3"/>
<path d="M140.89 148.696L144.221 150.655V146.737L140.89 144.582V148.696Z" fill="#5277F7"/>
<path d="M134.227 144.778L137.754 146.933V142.818L134.227 140.859V144.778Z" fill="#5277F7"/>
<path d="M127.762 141.055L131.289 143.014V139.096L127.762 137.137V141.055Z" fill="#5277F7"/>
<path d="M121.294 137.333L124.626 139.292V135.374L121.294 133.415V137.333Z" fill="#5277F7"/>
<path d="M160.29 168.287L163.817 170.246V166.328L160.29 164.369V168.287Z" fill="#836DF3"/>
<path d="M153.823 164.564L157.35 166.523V162.605L153.823 160.646V164.564Z" fill="#836DF3"/>
<path d="M147.357 160.842L150.688 162.801V158.883L147.357 156.924V160.842Z" fill="#5277F7"/>
<path d="M140.89 157.12L144.221 159.079V155.161L140.89 153.006V157.12Z" fill="#5277F7"/>
<path d="M134.227 153.202L137.754 155.357V151.243L134.227 149.284V153.202Z" fill="#836DF3"/>
<path d="M127.762 149.479L131.289 151.438V147.52L127.762 145.561V149.479Z" fill="#5277F7"/>
<path d="M121.294 145.757L124.626 147.716V143.798L121.294 141.839V145.757Z" fill="#836DF3"/>
<path d="M160.29 176.711L163.817 178.67V174.752L160.29 172.792V176.711Z" fill="#836DF3"/>
<path d="M153.823 172.988L157.35 174.947V171.029L153.823 169.07V172.988Z" fill="#5277F7"/>
<path d="M147.357 169.266L150.688 171.225V167.307L147.357 165.348V169.266Z" fill="#5277F7"/>
<path d="M140.89 165.544L144.221 167.503V163.585L140.89 161.43V165.544Z" fill="#5277F7"/>
<path d="M134.227 161.626L137.754 163.781V159.667L134.227 157.708V161.626Z" fill="#836DF3"/>
<path d="M127.762 157.903L131.289 159.862V155.944L127.762 153.985V157.903Z" fill="#5277F7"/>
<path d="M121.294 154.181L124.626 156.14V152.222L121.294 150.263V154.181Z" fill="#5277F7"/>
<path d="M160.29 185.135L163.817 187.094V183.176L160.29 181.217V185.135Z" fill="#5277F7"/>
<path d="M153.823 181.412L157.35 183.371V179.453L153.823 177.494V181.412Z" fill="#5277F7"/>
<path d="M147.357 177.69L150.688 179.649V175.731L147.357 173.772V177.69Z" fill="#836DF3"/>
<path d="M140.89 173.968L144.221 175.927V172.009L140.89 169.854V173.968Z" fill="#836DF3"/>
<path d="M134.227 170.05L137.754 172.205V168.091L134.227 166.132V170.05Z" fill="#BB6DF3"/>
<path d="M127.762 166.327L131.289 168.286V164.368L127.762 162.409V166.327Z" fill="#836DF3"/>
<path d="M121.294 162.605L124.626 164.564V160.646L121.294 158.687V162.605Z" fill="#5277F7"/>
<path d="M160.29 193.559L163.817 195.518V191.6L160.29 189.641V193.559Z" fill="#836DF3"/>
<path d="M153.823 189.836L157.35 191.795V187.877L153.823 185.918V189.836Z" fill="#5277F7"/>
<path d="M147.357 186.114L150.688 188.073V184.155L147.357 182.196V186.114Z" fill="#5277F7"/>
<path d="M140.89 182.392L144.221 184.351V180.433L140.89 178.278V182.392Z" fill="#5277F7"/>
<path d="M134.227 178.474L137.754 180.629V176.515L134.227 174.556V178.474Z" fill="#5277F7"/>
<path d="M127.762 174.751L131.289 176.71V172.792L127.762 170.833V174.751Z" fill="#5277F7"/>
<path d="M121.294 171.029L124.626 172.988V169.07L121.294 167.111V171.029Z" fill="#5277F7"/>
<path d="M160.29 201.983L163.817 203.942V200.024L160.29 198.065V201.983Z" fill="#836DF3"/>
<path d="M153.823 198.26L157.35 200.22V196.301L153.823 194.342V198.26Z" fill="#836DF3"/>
<path d="M147.357 194.538L150.688 196.497V192.579L147.357 190.62V194.538Z" fill="#5277F7"/>
<path d="M140.89 190.816L144.221 192.775V188.857L140.89 186.702V190.816Z" fill="#836DF3"/>
<path d="M134.227 186.898L137.754 189.053V184.939L134.227 182.98V186.898Z" fill="#836DF3"/>
<path d="M127.762 183.176L131.289 185.135V181.216L127.762 179.257V183.176Z" fill="#5277F7"/>
<path d="M121.294 179.453L124.626 181.412V177.494L121.294 175.535V179.453Z" fill="#836DF3"/>
<path d="M160.29 210.406L163.817 212.366V208.447L160.29 206.488V210.406Z" fill="#5277F7"/>
<path d="M153.823 206.685L157.35 208.644V204.726L153.823 202.767V206.685Z" fill="#5277F7"/>
<path d="M147.357 202.963L150.688 204.922V201.004L147.357 199.044V202.963Z" fill="#836DF3"/>
<path d="M140.89 199.24L144.221 201.199V197.281L140.89 195.126V199.24Z" fill="#5277F7"/>
<path d="M134.227 195.322L137.754 197.477V193.362L134.227 191.403V195.322Z" fill="#5277F7"/>
<path d="M127.762 191.599L131.289 193.558V189.64L127.762 187.681V191.599Z" fill="#5277F7"/>
<path d="M121.294 187.877L124.626 189.836V185.918L121.294 183.959V187.877Z" fill="#5277F7"/>
<path d="M160.29 218.832L163.817 220.791V216.873L160.29 214.914V218.832Z" fill="#5277F7"/>
<path d="M153.823 215.109L157.35 217.068V213.15L153.823 211.191V215.109Z" fill="#BB6DF3"/>
<path d="M147.357 211.387L150.688 213.346V209.428L147.357 207.469V211.387Z" fill="#5277F7"/>
<path d="M140.89 207.665L144.221 209.624V205.706L140.89 203.551V207.665Z" fill="#5277F7"/>
<path d="M134.227 203.747L137.754 205.902V201.788L134.227 199.829V203.747Z" fill="#836DF3"/>
<path d="M127.762 200.024L131.289 201.983V198.065L127.762 196.106V200.024Z" fill="#836DF3"/>
<path d="M121.294 196.302L124.626 198.261V194.343L121.294 192.384V196.302Z" fill="#5277F7"/>
<path d="M160.29 227.256L163.817 229.215V225.297L160.29 223.337V227.256Z" fill="#836DF3"/>
<path d="M153.823 223.533L157.35 225.492V221.574L153.823 219.615V223.533Z" fill="#5277F7"/>
<path d="M147.357 219.811L150.688 221.77V217.852L147.357 215.893V219.811Z" fill="#5277F7"/>
<path d="M140.89 216.089L144.221 218.048V214.13L140.89 211.975V216.089Z" fill="#836DF3"/>
<path d="M134.227 212.171L137.754 214.326V210.212L134.227 208.252V212.171Z" fill="#5277F7"/>
<path d="M127.762 208.448L131.289 210.407V206.489L127.762 204.53V208.448Z" fill="#5277F7"/>
<path d="M121.294 204.726L124.626 206.685V202.767L121.294 200.808V204.726Z" fill="#5277F7"/>
<path d="M160.29 235.68L163.817 237.639V233.721L160.29 231.762V235.68Z" fill="#5277F7"/>
<path d="M153.823 231.957L157.35 233.916V229.998L153.823 228.039V231.957Z" fill="#836DF3"/>
<path d="M147.357 228.235L150.688 230.194V226.276L147.357 224.317V228.235Z" fill="#5277F7"/>
<path d="M140.89 224.513L144.221 226.472V222.554L140.89 220.399V224.513Z" fill="#836DF3"/>
<path d="M134.227 220.595L137.754 222.75V218.636L134.227 216.677V220.595Z" fill="#836DF3"/>
<path d="M127.762 216.872L131.289 218.831V214.913L127.762 212.954V216.872Z" fill="#5277F7"/>
<path d="M121.294 213.15L124.626 215.109V211.191L121.294 209.232V213.15Z" fill="#836DF3"/>
<path d="M61.7251 441.384L124.43 405.533V126.949L61.7251 162.997V441.384Z" fill="url(#paint31_linear)"/>
<path d="M0 405.533L61.9214 441.384V162.997L0 126.949V405.533Z" fill="url(#paint32_linear)"/>
<path d="M0 405.533L61.9214 441.384V162.997L0 126.949V405.533Z" fill="url(#paint33_linear)"/>
<path d="M0 126.949L61.9214 162.997L124.431 126.949L62.5092 90.9019L0 126.949Z" fill="url(#paint34_linear)"/>
<path d="M61.9224 155.357L110.323 127.537V112.844L61.9224 140.663V155.357Z" fill="url(#paint35_linear)"/>
<path d="M14.3047 127.537L61.9215 155.357V140.663L14.3047 112.844V127.537Z" fill="url(#paint36_linear)"/>
<path d="M61.9224 142.231L110.323 114.412V112.844L61.9224 140.663V142.231Z" fill="url(#paint37_linear)"/>
<path d="M14.3047 114.412L61.9215 142.231V140.663L14.3047 112.844V114.412Z" fill="url(#paint38_linear)"/>
<path d="M14.3047 112.844L61.9214 140.663L110.322 112.844L62.5093 85.0249L14.3047 112.844Z" fill="url(#paint39_linear)"/>
<path d="M61.9209 132.827L96.0168 113.236V99.1304L61.9209 118.525V132.827Z" fill="url(#paint40_linear)"/>
<path d="M28.4131 113.236L62.1171 132.827V118.525L28.4131 99.1304V113.236Z" fill="url(#paint41_linear)"/>
<path d="M61.9209 120.093L96.0168 100.502V99.1304L61.9209 118.525V120.093Z" fill="url(#paint42_linear)"/>
<path d="M28.4131 100.502L62.1171 120.093V118.525L28.4131 99.1304V100.502Z" fill="url(#paint43_linear)"/>
<path d="M28.4131 99.1305L62.1171 118.526L96.0171 99.1305L62.509 79.5396L28.4131 99.1305Z" fill="url(#paint44_linear)"/>
<path d="M62.1172 110.885L83.2802 98.7383V84.6328L62.1172 96.9751V110.885Z" fill="url(#paint45_linear)"/>
<path d="M41.1509 98.7383L62.1179 110.885V96.9751L41.1509 84.6328V98.7383Z" fill="url(#paint46_linear)"/>
<path d="M62.1172 98.3465L83.2802 86.2001V84.6328L62.1172 96.9751V98.3465Z" fill="url(#paint47_linear)"/>
<path d="M41.1509 86.2001L62.1179 98.3465V96.9751L41.1509 84.6328V86.2001Z" fill="url(#paint48_linear)"/>
<path d="M41.1509 84.6327L62.1179 96.975L83.2809 84.6327L62.3139 72.4863L41.1509 84.6327Z" fill="url(#paint49_linear)"/>
<path d="M88.5707 440.405L76.8135 433.94V172.401L88.5707 178.866V440.405Z" fill="url(#paint50_linear)"/>
<path d="M118.748 422.969L88.5708 440.405V178.866L118.748 161.234V422.969Z" fill="url(#paint51_linear)"/>
<path d="M118.748 161.234L88.5712 178.866L76.814 172.401L106.991 154.769L118.748 161.234Z" fill="url(#paint52_linear)"/>
<path d="M110.911 172.988L115.026 170.637V424.928L110.911 427.279V172.988Z" fill="url(#paint53_linear)"/>
<path d="M102.289 178.082L106.404 175.731V430.022L102.289 432.373V178.082Z" fill="url(#paint54_linear)"/>
<path d="M93.6665 183.175L97.7815 180.824V435.115L93.6665 437.466V183.175Z" fill="url(#paint55_linear)"/>
<path d="M62.1167 66.4136V88.5514L68.9751 84.4373L62.1167 66.4136Z" fill="url(#paint56_linear)"/>
<path d="M62.1167 66.4136V88.5514L55.2583 84.4373L62.1167 66.4136Z" fill="url(#paint57_linear)"/>
<path d="M48.0088 175.535L51.536 177.69V173.576L48.0088 171.617V175.535Z" fill="#BB6DF3"/>
<path d="M41.541 171.812L44.8721 173.771V169.853L41.541 167.894V171.812Z" fill="#836DF3"/>
<path d="M34.8804 168.09L38.4075 170.049V166.131L34.8804 164.172V168.09Z" fill="#836DF3"/>
<path d="M28.4136 164.368L31.9409 166.327V162.409L28.4136 160.45V164.368Z" fill="#5277F7"/>
<path d="M21.9463 160.646L25.4735 162.605V158.687L21.9463 156.532V160.646Z" fill="#5277F7"/>
<path d="M15.481 156.727L18.8121 158.882V154.768L15.481 152.809V156.727Z" fill="#5277F7"/>
<path d="M8.81787 153.005L12.3451 154.964V151.046L8.81787 149.087V153.005Z" fill="#5277F7"/>
<path d="M48.0088 183.959L51.536 186.114V182L48.0088 180.041V183.959Z" fill="#5277F7"/>
<path d="M41.541 180.236L44.8721 182.195V178.277L41.541 176.318V180.236Z" fill="#836DF3"/>
<path d="M34.8804 176.514L38.4075 178.473V174.555L34.8804 172.596V176.514Z" fill="#5277F7"/>
<path d="M28.4136 172.792L31.9409 174.751V170.833L28.4136 168.874V172.792Z" fill="#5277F7"/>
<path d="M21.9463 169.07L25.4735 171.029V167.111L21.9463 164.956V169.07Z" fill="#836DF3"/>
<path d="M15.481 165.151L18.8121 167.306V163.192L15.481 161.233V165.151Z" fill="#836DF3"/>
<path d="M8.81787 161.429L12.3451 163.388V159.47L8.81787 157.511V161.429Z" fill="#5277F7"/>
<path d="M48.0088 192.384L51.536 194.539V190.424L48.0088 188.465V192.384Z" fill="#5277F7"/>
<path d="M41.541 188.66L44.8721 190.619V186.701L41.541 184.742V188.66Z" fill="#836DF3"/>
<path d="M34.8804 184.939L38.4075 186.898V182.98L34.8804 181.021V184.939Z" fill="#5277F7"/>
<path d="M28.4136 181.217L31.9409 183.176V179.257L28.4136 177.298V181.217Z" fill="#BB6DF3"/>
<path d="M21.9463 177.494L25.4735 179.453V175.535L21.9463 173.38V177.494Z" fill="#5277F7"/>
<path d="M15.481 173.575L18.8121 175.73V171.616L15.481 169.657V173.575Z" fill="#836DF3"/>
<path d="M8.81787 169.853L12.3451 171.812V167.894L8.81787 165.935V169.853Z" fill="#5277F7"/>
<path d="M48.0088 200.807L51.536 202.962V198.848L48.0088 196.889V200.807Z" fill="#836DF3"/>
<path d="M41.541 197.084L44.8721 199.043V195.125L41.541 193.166V197.084Z" fill="#5277F7"/>
<path d="M34.8804 193.362L38.4075 195.321V191.403L34.8804 189.444V193.362Z" fill="#5277F7"/>
<path d="M28.4136 189.64L31.9409 191.599V187.681L28.4136 185.722V189.64Z" fill="#836DF3"/>
<path d="M21.9463 185.917L25.4735 187.876V183.958L21.9463 181.803V185.917Z" fill="#5277F7"/>
<path d="M15.481 181.999L18.8121 184.154V180.04L15.481 178.081V181.999Z" fill="#5277F7"/>
<path d="M8.81787 178.277L12.3451 180.236V176.318L8.81787 174.359V178.277Z" fill="#5277F7"/>
<path d="M48.0088 209.231L51.536 211.386V207.272L48.0088 205.312V209.231Z" fill="#5277F7"/>
<path d="M41.541 205.509L44.8721 207.468V203.549L41.541 201.59V205.509Z" fill="#836DF3"/>
<path d="M34.8804 201.786L38.4075 203.745V199.827L34.8804 197.868V201.786Z" fill="#836DF3"/>
<path d="M28.4136 198.064L31.9409 200.023V196.105L28.4136 194.146V198.064Z" fill="#5277F7"/>
<path d="M21.9463 194.342L25.4735 196.301V192.383L21.9463 190.228V194.342Z" fill="#5277F7"/>
<path d="M15.481 190.424L18.8121 192.579V188.464L15.481 186.505V190.424Z" fill="#BB6DF3"/>
<path d="M8.81787 186.701L12.3451 188.661V184.742L8.81787 182.783V186.701Z" fill="#836DF3"/>
<path d="M48.0088 217.656L51.536 219.811V215.697L48.0088 213.738V217.656Z" fill="#5277F7"/>
<path d="M41.541 213.933L44.8721 215.892V211.974L41.541 210.015V213.933Z" fill="#5277F7"/>
<path d="M34.8804 210.211L38.4075 212.17V208.252L34.8804 206.293V210.211Z" fill="#5277F7"/>
<path d="M28.4136 206.489L31.9409 208.448V204.53L28.4136 202.571V206.489Z" fill="#836DF3"/>
<path d="M21.9463 202.767L25.4735 204.726V200.808L21.9463 198.653V202.767Z" fill="#5277F7"/>
<path d="M15.481 198.848L18.8121 201.003V196.889L15.481 194.93V198.848Z" fill="#836DF3"/>
<path d="M8.81787 195.126L12.3451 197.085V193.167L8.81787 191.208V195.126Z" fill="#5277F7"/>
<path d="M48.0088 226.08L51.536 228.235V224.121L48.0088 222.162V226.08Z" fill="#5277F7"/>
<path d="M41.541 222.357L44.8721 224.316V220.398L41.541 218.439V222.357Z" fill="#BB6DF3"/>
<path d="M34.8804 218.635L38.4075 220.594V216.676L34.8804 214.717V218.635Z" fill="#836DF3"/>
<path d="M28.4136 214.913L31.9409 216.872V212.954L28.4136 210.995V214.913Z" fill="#5277F7"/>
<path d="M21.9463 211.191L25.4735 213.15V209.232L21.9463 207.077V211.191Z" fill="#5277F7"/>
<path d="M15.481 207.272L18.8121 209.427V205.313L15.481 203.354V207.272Z" fill="#5277F7"/>
<path d="M8.81787 203.55L12.3451 205.509V201.591L8.81787 199.632V203.55Z" fill="#5277F7"/>
<path d="M48.0088 234.503L51.536 236.658V232.544L48.0088 230.585V234.503Z" fill="#836DF3"/>
<path d="M41.541 230.781L44.8721 232.74V228.822L41.541 226.863V230.781Z" fill="#836DF3"/>
<path d="M34.8804 227.059L38.4075 229.018V225.1L34.8804 223.141V227.059Z" fill="#5277F7"/>
<path d="M28.4136 223.337L31.9409 225.296V221.378L28.4136 219.419V223.337Z" fill="#5277F7"/>
<path d="M21.9463 219.615L25.4735 221.574V217.656L21.9463 215.501V219.615Z" fill="#836DF3"/>
<path d="M15.481 215.696L18.8121 217.851V213.737L15.481 211.778V215.696Z" fill="#5277F7"/>
<path d="M8.81787 211.974L12.3451 213.933V210.015L8.81787 208.056V211.974Z" fill="#836DF3"/>
<path d="M48.0088 242.928L51.536 245.083V240.969L48.0088 239.01V242.928Z" fill="#836DF3"/>
<path d="M41.541 239.205L44.8721 241.164V237.246L41.541 235.287V239.205Z" fill="#5277F7"/>
<path d="M34.8804 235.484L38.4075 237.443V233.525L34.8804 231.565V235.484Z" fill="#5277F7"/>
<path d="M28.4136 231.761L31.9409 233.721V229.802L28.4136 227.843V231.761Z" fill="#5277F7"/>
<path d="M21.9463 228.039L25.4735 229.998V226.08L21.9463 223.925V228.039Z" fill="#836DF3"/>
<path d="M15.481 224.12L18.8121 226.275V222.161L15.481 220.202V224.12Z" fill="#5277F7"/>
<path d="M8.81787 220.398L12.3451 222.357V218.439L8.81787 216.48V220.398Z" fill="#5277F7"/>
<path d="M48.0088 251.352L51.536 253.507V249.393L48.0088 247.434V251.352Z" fill="#5277F7"/>
<path d="M41.541 247.629L44.8721 249.588V245.67L41.541 243.711V247.629Z" fill="#5277F7"/>
<path d="M34.8804 243.907L38.4075 245.866V241.948L34.8804 239.989V243.907Z" fill="#836DF3"/>
<path d="M28.4136 240.185L31.9409 242.144V238.226L28.4136 236.267V240.185Z" fill="#836DF3"/>
<path d="M21.9463 236.462L25.4735 238.421V234.503L21.9463 232.348V236.462Z" fill="#BB6DF3"/>
<path d="M15.481 232.544L18.8121 234.699V230.585L15.481 228.626V232.544Z" fill="#836DF3"/>
<path d="M8.81787 228.822L12.3451 230.781V226.863L8.81787 224.904V228.822Z" fill="#5277F7"/>
<path d="M48.0088 259.776L51.536 261.931V257.817L48.0088 255.858V259.776Z" fill="#836DF3"/>
<path d="M41.541 256.053L44.8721 258.013V254.094L41.541 252.135V256.053Z" fill="#5277F7"/>
<path d="M34.8804 252.331L38.4075 254.29V250.372L34.8804 248.413V252.331Z" fill="#5277F7"/>
<path d="M28.4136 248.609L31.9409 250.568V246.65L28.4136 244.691V248.609Z" fill="#5277F7"/>
<path d="M21.9463 244.887L25.4735 246.846V242.928L21.9463 240.773V244.887Z" fill="#5277F7"/>
<path d="M15.481 240.968L18.8121 243.123V239.009L15.481 237.05V240.968Z" fill="#5277F7"/>
<path d="M8.81787 237.246L12.3451 239.205V235.287L8.81787 233.328V237.246Z" fill="#5277F7"/>
<path d="M48.0088 268.2L51.536 270.355V266.241L48.0088 264.282V268.2Z" fill="#836DF3"/>
<path d="M41.541 264.477L44.8721 266.436V262.518L41.541 260.559V264.477Z" fill="#836DF3"/>
<path d="M34.8804 260.755L38.4075 262.714V258.796L34.8804 256.837V260.755Z" fill="#5277F7"/>
<path d="M28.4136 257.033L31.9409 258.992V255.074L28.4136 253.115V257.033Z" fill="#836DF3"/>
<path d="M21.9463 253.311L25.4735 255.27V251.352L21.9463 249.197V253.311Z" fill="#836DF3"/>
<path d="M15.481 249.392L18.8121 251.547V247.433L15.481 245.474V249.392Z" fill="#5277F7"/>
<path d="M8.81787 245.67L12.3451 247.629V243.711L8.81787 241.752V245.67Z" fill="#836DF3"/>
<path d="M48.0088 276.624L51.536 278.779V274.665L48.0088 272.706V276.624Z" fill="#5277F7"/>
<path d="M41.541 272.902L44.8721 274.861V270.943L41.541 268.983V272.902Z" fill="#5277F7"/>
<path d="M34.8804 269.179L38.4075 271.138V267.22L34.8804 265.261V269.179Z" fill="#836DF3"/>
<path d="M28.4136 265.457L31.9409 267.416V263.498L28.4136 261.539V265.457Z" fill="#5277F7"/>
<path d="M21.9463 261.735L25.4735 263.694V259.776L21.9463 257.621V261.735Z" fill="#5277F7"/>
<path d="M15.481 257.817L18.8121 259.972V255.858L15.481 253.898V257.817Z" fill="#5277F7"/>
<path d="M8.81787 254.094L12.3451 256.054V252.135L8.81787 250.176V254.094Z" fill="#5277F7"/>
<path d="M48.0088 285.048L51.536 287.203V283.089L48.0088 281.13V285.048Z" fill="#5277F7"/>
<path d="M41.541 281.325L44.8721 283.285V279.366L41.541 277.407V281.325Z" fill="#BB6DF3"/>
<path d="M34.8804 277.603L38.4075 279.562V275.644L34.8804 273.685V277.603Z" fill="#5277F7"/>
<path d="M28.4136 273.881L31.9409 275.84V271.922L28.4136 269.963V273.881Z" fill="#5277F7"/>
<path d="M21.9463 270.159L25.4735 272.118V268.2L21.9463 266.045V270.159Z" fill="#836DF3"/>
<path d="M15.481 266.24L18.8121 268.396V264.281L15.481 262.322V266.24Z" fill="#836DF3"/>
<path d="M8.81787 262.518L12.3451 264.477V260.559L8.81787 258.6V262.518Z" fill="#5277F7"/>
<path d="M48.0088 293.473L51.536 295.628V291.514L48.0088 289.555V293.473Z" fill="#836DF3"/>
<path d="M41.541 289.75L44.8721 291.709V287.791L41.541 285.832V289.75Z" fill="#5277F7"/>
<path d="M34.8804 286.029L38.4075 287.988V284.069L34.8804 282.11V286.029Z" fill="#5277F7"/>
<path d="M28.4136 282.306L31.9409 284.265V280.347L28.4136 278.388V282.306Z" fill="#836DF3"/>
<path d="M21.9463 278.584L25.4735 280.543V276.625L21.9463 274.47V278.584Z" fill="#5277F7"/>
<path d="M15.481 274.665L18.8121 276.82V272.706L15.481 270.747V274.665Z" fill="#5277F7"/>
<path d="M8.81787 270.943L12.3451 272.902V268.984L8.81787 267.025V270.943Z" fill="#5277F7"/>
<path d="M48.0088 301.897L51.536 304.052V299.938L48.0088 297.979V301.897Z" fill="#5277F7"/>
<path d="M41.541 298.174L44.8721 300.133V296.215L41.541 294.256V298.174Z" fill="#836DF3"/>
<path d="M34.8804 294.452L38.4075 296.411V292.493L34.8804 290.534V294.452Z" fill="#5277F7"/>
<path d="M28.4136 290.73L31.9409 292.689V288.771L28.4136 286.812V290.73Z" fill="#836DF3"/>
<path d="M21.9463 287.008L25.4735 288.967V285.049L21.9463 282.894V287.008Z" fill="#836DF3"/>
<path d="M15.481 283.089L18.8121 285.244V281.13L15.481 279.171V283.089Z" fill="#5277F7"/>
<path d="M8.81787 279.367L12.3451 281.326V277.408L8.81787 275.449V279.367Z" fill="#836DF3"/>
<path d="M48.0088 310.321L51.536 312.476V308.362L48.0088 306.403V310.321Z" fill="#5277F7"/>
<path d="M41.541 306.598L44.8721 308.557V304.639L41.541 302.68V306.598Z" fill="#5277F7"/>
<path d="M34.8804 302.876L38.4075 304.835V300.917L34.8804 298.958V302.876Z" fill="#5277F7"/>
<path d="M28.4136 299.154L31.9409 301.113V297.195L28.4136 295.236V299.154Z" fill="#5277F7"/>
<path d="M21.9463 295.432L25.4735 297.391V293.473L21.9463 291.318V295.432Z" fill="#836DF3"/>
<path d="M15.481 291.513L18.8121 293.668V289.554L15.481 287.595V291.513Z" fill="#836DF3"/>
<path d="M8.81787 287.791L12.3451 289.75V285.832L8.81787 283.873V287.791Z" fill="#5277F7"/>
<path d="M48.0088 318.745L51.536 320.9V316.786L48.0088 314.827V318.745Z" fill="#836DF3"/>
<path d="M41.541 315.022L44.8721 316.981V313.063L41.541 311.104V315.022Z" fill="#836DF3"/>
<path d="M34.8804 311.3L38.4075 313.259V309.341L34.8804 307.382V311.3Z" fill="#5277F7"/>
<path d="M28.4136 307.578L31.9409 309.537V305.619L28.4136 303.66V307.578Z" fill="#836DF3"/>
<path d="M21.9463 303.856L25.4735 305.815V301.897L21.9463 299.742V303.856Z" fill="#5277F7"/>
<path d="M15.481 299.937L18.8121 302.092V297.978L15.481 296.019V299.937Z" fill="#5277F7"/>
<path d="M8.81787 296.215L12.3451 298.174V294.256L8.81787 292.297V296.215Z" fill="#5277F7"/>
<path d="M48.0088 327.169L51.536 329.324V325.21L48.0088 323.251V327.169Z" fill="#5277F7"/>
<path d="M41.541 323.446L44.8721 325.406V321.487L41.541 319.528V323.446Z" fill="#5277F7"/>
<path d="M34.8804 319.724L38.4075 321.683V317.765L34.8804 315.806V319.724Z" fill="#5277F7"/>
<path d="M28.4136 316.002L31.9409 317.961V314.043L28.4136 312.084V316.002Z" fill="#5277F7"/>
<path d="M21.9463 312.28L25.4735 314.239V310.321L21.9463 308.166V312.28Z" fill="#5277F7"/>
<path d="M15.481 308.362L18.8121 310.517V306.402L15.481 304.443V308.362Z" fill="#5277F7"/>
<path d="M8.81787 304.639L12.3451 306.598V302.68L8.81787 300.721V304.639Z" fill="#836DF3"/>
<path d="M48.0088 335.593L51.536 337.748V333.634L48.0088 331.675V335.593Z" fill="#5277F7"/>
<path d="M41.541 331.87L44.8721 333.829V329.911L41.541 327.952V331.87Z" fill="#836DF3"/>
<path d="M34.8804 328.148L38.4075 330.107V326.189L34.8804 324.23V328.148Z" fill="#5277F7"/>
<path d="M28.4136 324.426L31.9409 326.385V322.467L28.4136 320.508V324.426Z" fill="#5277F7"/>
<path d="M21.9463 320.704L25.4735 322.663V318.745L21.9463 316.59V320.704Z" fill="#836DF3"/>
<path d="M15.481 316.785L18.8121 318.94V314.826L15.481 312.867V316.785Z" fill="#5277F7"/>
<path d="M8.81787 313.063L12.3451 315.022V311.104L8.81787 309.145V313.063Z" fill="#5277F7"/>
<path d="M48.0088 344.017L51.536 346.172V342.058L48.0088 340.099V344.017Z" fill="#5277F7"/>
<path d="M41.541 340.295L44.8721 342.254V338.336L41.541 336.376V340.295Z" fill="#836DF3"/>
<path d="M34.8804 336.572L38.4075 338.532V334.613L34.8804 332.654V336.572Z" fill="#5277F7"/>
<path d="M28.4136 332.85L31.9409 334.809V330.891L28.4136 328.932V332.85Z" fill="#836DF3"/>
<path d="M21.9463 329.128L25.4735 331.087V327.169L21.9463 325.014V329.128Z" fill="#5277F7"/>
<path d="M15.481 325.21L18.8121 327.365V323.251L15.481 321.292V325.21Z" fill="#5277F7"/>
<path d="M8.81787 321.488L12.3451 323.447V319.528L8.81787 317.569V321.488Z" fill="#5277F7"/>
<path d="M48.0088 352.441L51.536 354.596V350.482L48.0088 348.523V352.441Z" fill="#5277F7"/>
<path d="M41.541 348.718L44.8721 350.678V346.759L41.541 344.8V348.718Z" fill="#5277F7"/>
<path d="M34.8804 344.996L38.4075 346.955V343.037L34.8804 341.078V344.996Z" fill="#5277F7"/>
<path d="M28.4136 341.274L31.9409 343.233V339.315L28.4136 337.356V341.274Z" fill="#5277F7"/>
<path d="M21.9463 337.552L25.4735 339.511V335.593L21.9463 333.438V337.552Z" fill="#5277F7"/>
<path d="M15.481 333.633L18.8121 335.788V331.674L15.481 329.715V333.633Z" fill="#5277F7"/>
<path d="M8.81787 329.911L12.3451 331.87V327.952L8.81787 325.993V329.911Z" fill="#836DF3"/>
<path d="M48.0088 360.866L51.536 363.021V358.907L48.0088 356.948V360.866Z" fill="#5277F7"/>
<path d="M41.541 357.143L44.8721 359.102V355.184L41.541 353.225V357.143Z" fill="#5277F7"/>
<path d="M34.8804 353.421L38.4075 355.38V351.462L34.8804 349.503V353.421Z" fill="#5277F7"/>
<path d="M28.4136 349.699L31.9409 351.658V347.74L28.4136 345.781V349.699Z" fill="#5277F7"/>
<path d="M21.9463 345.977L25.4735 347.936V344.018L21.9463 341.863V345.977Z" fill="#836DF3"/>
<path d="M15.481 342.058L18.8121 344.213V340.099L15.481 338.14V342.058Z" fill="#5277F7"/>
<path d="M8.81787 338.336L12.3451 340.295V336.377L8.81787 334.418V338.336Z" fill="#5277F7"/>
<path d="M48.0088 369.29L51.536 371.445V367.331L48.0088 365.372V369.29Z" fill="#5277F7"/>
<path d="M41.541 365.567L44.8721 367.526V363.608L41.541 361.649V365.567Z" fill="#5277F7"/>
<path d="M34.8804 361.845L38.4075 363.804V359.886L34.8804 357.927V361.845Z" fill="#836DF3"/>
<path d="M28.4136 358.123L31.9409 360.082V356.164L28.4136 354.205V358.123Z" fill="#5277F7"/>
<path d="M21.9463 354.401L25.4735 356.36V352.442L21.9463 350.287V354.401Z" fill="#5277F7"/>
<path d="M15.481 350.482L18.8121 352.637V348.523L15.481 346.564V350.482Z" fill="#5277F7"/>
<path d="M8.81787 346.76L12.3451 348.719V344.801L8.81787 342.842V346.76Z" fill="#5277F7"/>
<path d="M48.0088 377.714L51.536 379.869V375.755L48.0088 373.796V377.714Z" fill="#5277F7"/>
<path d="M41.541 373.991L44.8721 375.951V372.032L41.541 370.073V373.991Z" fill="#5277F7"/>
<path d="M34.8804 370.269L38.4075 372.228V368.31L34.8804 366.351V370.269Z" fill="#5277F7"/>
<path d="M28.4136 366.547L31.9409 368.506V364.588L28.4136 362.629V366.547Z" fill="#5277F7"/>
<path d="M21.9463 362.825L25.4735 364.784V360.865L21.9463 358.71V362.825Z" fill="#5277F7"/>
<path d="M15.481 358.906L18.8121 361.061V356.947L15.481 354.988V358.906Z" fill="#5277F7"/>
<path d="M8.81787 355.184L12.3451 357.143V353.225L8.81787 351.266V355.184Z" fill="#5277F7"/>
<path d="M48.0088 386.138L51.536 388.293V384.179L48.0088 382.22V386.138Z" fill="#5277F7"/>
<path d="M41.541 382.415L44.8721 384.374V380.456L41.541 378.497V382.415Z" fill="#836DF3"/>
<path d="M34.8804 378.693L38.4075 380.652V376.734L34.8804 374.775V378.693Z" fill="#5277F7"/>
<path d="M28.4136 374.971L31.9409 376.93V373.012L28.4136 371.053V374.971Z" fill="#5277F7"/>
<path d="M21.9463 371.249L25.4735 373.208V369.29L21.9463 367.135V371.249Z" fill="#5277F7"/>
<path d="M15.481 367.33L18.8121 369.485V365.371L15.481 363.412V367.33Z" fill="#5277F7"/>
<path d="M8.81787 363.608L12.3451 365.567V361.649L8.81787 359.69V363.608Z" fill="#5277F7"/>
<path d="M48.0088 394.562L51.536 396.717V392.603L48.0088 390.644V394.562Z" fill="#5277F7"/>
<path d="M41.541 390.84L44.8721 392.799V388.88L41.541 386.921V390.84Z" fill="#5277F7"/>
<path d="M34.8804 387.117L38.4075 389.077V385.158L34.8804 383.199V387.117Z" fill="#5277F7"/>
<path d="M28.4136 383.395L31.9409 385.354V381.436L28.4136 379.477V383.395Z" fill="#5277F7"/>
<path d="M21.9463 379.673L25.4735 381.632V377.714L21.9463 375.559V379.673Z" fill="#5277F7"/>
<path d="M15.481 375.755L18.8121 377.91V373.796L15.481 371.836V375.755Z" fill="#5277F7"/>
<path d="M8.81787 372.032L12.3451 373.992V370.073L8.81787 368.114V372.032Z" fill="#5277F7"/>
<path d="M48.0088 402.986L51.536 405.141V401.027L48.0088 399.068V402.986Z" fill="#5277F7"/>
<path d="M41.541 399.263L44.8721 401.222V397.304L41.541 395.345V399.263Z" fill="#5277F7"/>
<path d="M34.8804 395.541L38.4075 397.5V393.582L34.8804 391.623V395.541Z" fill="#5277F7"/>
<path d="M28.4136 391.819L31.9409 393.778V389.86L28.4136 387.901V391.819Z" fill="#5277F7"/>
<path d="M21.9463 388.096L25.4735 390.055V386.137L21.9463 383.982V388.096Z" fill="#5277F7"/>
<path d="M15.481 384.178L18.8121 386.333V382.219L15.481 380.26V384.178Z" fill="#5277F7"/>
<path d="M8.81787 380.456L12.3451 382.415V378.497L8.81787 376.538V380.456Z" fill="#5277F7"/>
<path d="M48.0088 411.41L51.536 413.565V409.451L48.0088 407.492V411.41Z" fill="#5277F7"/>
<path d="M41.541 407.688L44.8721 409.647V405.729L41.541 403.77V407.688Z" fill="#5277F7"/>
<path d="M34.8804 403.966L38.4075 405.925V402.006L34.8804 400.047V403.966Z" fill="#5277F7"/>
<path d="M28.4136 400.243L31.9409 402.202V398.284L28.4136 396.325V400.243Z" fill="#5277F7"/>
<path d="M21.9463 396.521L25.4735 398.481V394.562L21.9463 392.407V396.521Z" fill="#5277F7"/>
<path d="M15.481 392.602L18.8121 394.757V390.643L15.481 388.684V392.602Z" fill="#5277F7"/>
<path d="M8.81787 388.881L12.3451 390.84V386.921L8.81787 384.962V388.881Z" fill="#5277F7"/>
<path d="M48.0088 419.833L51.536 421.988V417.874L48.0088 415.915V419.833Z" fill="#5277F7"/>
<path d="M41.541 416.112L44.8721 418.071V414.152L41.541 412.193V416.112Z" fill="#5277F7"/>
<path d="M34.8804 412.389L38.4075 414.349V410.43L34.8804 408.471V412.389Z" fill="#5277F7"/>
<path d="M28.4136 408.667L31.9409 410.626V406.708L28.4136 404.749V408.667Z" fill="#5277F7"/>
<path d="M21.9463 404.944L25.4735 406.903V402.985L21.9463 400.83V404.944Z" fill="#5277F7"/>
<path d="M15.481 401.026L18.8121 403.181V399.067L15.481 397.108V401.026Z" fill="#5277F7"/>
<path d="M8.81787 397.304L12.3451 399.263V395.345L8.81787 393.386V397.304Z" fill="#5277F7"/>
<defs>
<linearGradient id="paint0_linear" x1="184.167" y1="225.34" x2="461.505" y2="142.277" gradientUnits="userSpaceOnUse">
<stop stop-color="#AFB6E5"/>
<stop offset="0.1449" stop-color="#B6BCE8"/>
<stop offset="0.3485" stop-color="#C8CDF1"/>
<stop offset="0.5808" stop-color="#E5E9FF"/>
<stop offset="0.9546" stop-color="#F5F4FC"/>
<stop offset="1" stop-color="#F7F6FB"/>
</linearGradient>
<linearGradient id="paint1_linear" x1="-34.8182" y1="258.919" x2="328.834" y2="177.382" gradientUnits="userSpaceOnUse">
<stop stop-color="#AFB6E5"/>
<stop offset="0.1449" stop-color="#B6BCE8"/>
<stop offset="0.3485" stop-color="#C8CDF1"/>
<stop offset="0.5808" stop-color="#E5E9FF"/>
<stop offset="0.9546" stop-color="#F5F4FC"/>
<stop offset="1" stop-color="#F7F6FB"/>
</linearGradient>
<linearGradient id="paint2_linear" x1="65.0618" y1="236.534" x2="221.887" y2="201.371" gradientUnits="userSpaceOnUse">
<stop stop-color="#AFB6E5"/>
<stop offset="0.1449" stop-color="#B6BCE8"/>
<stop offset="0.3485" stop-color="#C8CDF1"/>
<stop offset="0.5808" stop-color="#E5E9FF"/>
<stop offset="0.9546" stop-color="#F5F4FC"/>
<stop offset="1" stop-color="#F7F6FB"/>
</linearGradient>
<linearGradient id="paint3_linear" x1="239.184" y1="-62.732" x2="169.488" y2="70.1234" gradientUnits="userSpaceOnUse">
<stop stop-color="#AFB6E5"/>
<stop offset="0.1449" stop-color="#B6BCE8"/>
<stop offset="0.3485" stop-color="#C8CDF1"/>
<stop offset="0.5808" stop-color="#E5E9FF"/>
<stop offset="0.9546" stop-color="#F5F4FC"/>
<stop offset="1" stop-color="#F7F6FB"/>
</linearGradient>
<linearGradient id="paint4_linear" x1="190.038" y1="70.2387" x2="297.656" y2="38.0067" gradientUnits="userSpaceOnUse">
<stop stop-color="#AFB6E5"/>
<stop offset="0.1449" stop-color="#B6BCE8"/>
<stop offset="0.3485" stop-color="#C8CDF1"/>
<stop offset="0.5808" stop-color="#E5E9FF"/>
<stop offset="0.9546" stop-color="#F5F4FC"/>
<stop offset="1" stop-color="#F7F6FB"/>
</linearGradient>
<linearGradient id="paint5_linear" x1="120.253" y1="74.5175" x2="180.449" y2="61.0205" gradientUnits="userSpaceOnUse">
<stop stop-color="#AFB6E5"/>
<stop offset="0.1449" stop-color="#B6BCE8"/>
<stop offset="0.3485" stop-color="#C8CDF1"/>
<stop offset="0.5808" stop-color="#E5E9FF"/>
<stop offset="0.9546" stop-color="#F5F4FC"/>
<stop offset="1" stop-color="#F7F6FB"/>
</linearGradient>
<linearGradient id="paint6_linear" x1="190.564" y1="63.5243" x2="291.265" y2="33.3642" gradientUnits="userSpaceOnUse">
<stop offset="0.030303" stop-color="#836DF3"/>
<stop offset="0.6691" stop-color="#A76DF3"/>
<stop offset="1" stop-color="#BB6DF3"/>
</linearGradient>
<linearGradient id="paint7_linear" x1="86.4004" y1="75.5476" x2="216.816" y2="46.3061" gradientUnits="userSpaceOnUse">
<stop offset="0.030303" stop-color="#836DF3"/>
<stop offset="0.6691" stop-color="#A76DF3"/>
<stop offset="1" stop-color="#BB6DF3"/>
</linearGradient>
<linearGradient id="paint8_linear" x1="224.426" y1="-48.7922" x2="170.601" y2="53.8103" gradientUnits="userSpaceOnUse">
<stop stop-color="#AFB6E5"/>
<stop offset="0.1449" stop-color="#B6BCE8"/>
<stop offset="0.3485" stop-color="#C8CDF1"/>
<stop offset="0.5808" stop-color="#E5E9FF"/>
<stop offset="0.9546" stop-color="#F5F4FC"/>
<stop offset="1" stop-color="#F7F6FB"/>
</linearGradient>
<linearGradient id="paint9_linear" x1="185.233" y1="51.407" x2="262.954" y2="28.1293" gradientUnits="userSpaceOnUse">
<stop stop-color="#AFB6E5"/>
<stop offset="0.1449" stop-color="#B6BCE8"/>
<stop offset="0.3485" stop-color="#C8CDF1"/>
<stop offset="0.5808" stop-color="#E5E9FF"/>
<stop offset="0.9546" stop-color="#F5F4FC"/>
<stop offset="1" stop-color="#F7F6FB"/>
</linearGradient>
<linearGradient id="paint10_linear" x1="135.733" y1="54.4996" x2="179.231" y2="44.7466" gradientUnits="userSpaceOnUse">
<stop stop-color="#AFB6E5"/>
<stop offset="0.1449" stop-color="#B6BCE8"/>
<stop offset="0.3485" stop-color="#C8CDF1"/>
<stop offset="0.5808" stop-color="#E5E9FF"/>
<stop offset="0.9546" stop-color="#F5F4FC"/>
<stop offset="1" stop-color="#F7F6FB"/>
</linearGradient>
<linearGradient id="paint11_linear" x1="185.743" y1="44.8924" x2="256.753" y2="23.6248" gradientUnits="userSpaceOnUse">
<stop offset="0.030303" stop-color="#836DF3"/>
<stop offset="0.6691" stop-color="#A76DF3"/>
<stop offset="1" stop-color="#BB6DF3"/>
</linearGradient>
<linearGradient id="paint12_linear" x1="112.381" y1="53.3712" x2="204.349" y2="32.7505" gradientUnits="userSpaceOnUse">
<stop offset="0.030303" stop-color="#836DF3"/>
<stop offset="0.6691" stop-color="#A76DF3"/>
<stop offset="1" stop-color="#BB6DF3"/>
</linearGradient>
<linearGradient id="paint13_linear" x1="209.573" y1="-34.2803" x2="171.72" y2="37.8765" gradientUnits="userSpaceOnUse">
<stop stop-color="#AFB6E5"/>
<stop offset="0.1449" stop-color="#B6BCE8"/>
<stop offset="0.3485" stop-color="#C8CDF1"/>
<stop offset="0.5808" stop-color="#E5E9FF"/>
<stop offset="0.9546" stop-color="#F5F4FC"/>
<stop offset="1" stop-color="#F7F6FB"/>
</linearGradient>
<linearGradient id="paint14_linear" x1="180.954" y1="32.6764" x2="232.249" y2="17.3134" gradientUnits="userSpaceOnUse">
<stop stop-color="#AFB6E5"/>
<stop offset="0.1449" stop-color="#B6BCE8"/>
<stop offset="0.3485" stop-color="#C8CDF1"/>
<stop offset="0.5808" stop-color="#E5E9FF"/>
<stop offset="0.9546" stop-color="#F5F4FC"/>
<stop offset="1" stop-color="#F7F6FB"/>
</linearGradient>
<linearGradient id="paint15_linear" x1="149.448" y1="34.7207" x2="178.189" y2="28.2765" gradientUnits="userSpaceOnUse">
<stop stop-color="#AFB6E5"/>
<stop offset="0.1449" stop-color="#B6BCE8"/>
<stop offset="0.3485" stop-color="#C8CDF1"/>
<stop offset="0.5808" stop-color="#E5E9FF"/>
<stop offset="0.9546" stop-color="#F5F4FC"/>
<stop offset="1" stop-color="#F7F6FB"/>
</linearGradient>
<linearGradient id="paint16_linear" x1="181.455" y1="26.2819" x2="226.162" y2="12.8918" gradientUnits="userSpaceOnUse">
<stop offset="0.030303" stop-color="#836DF3"/>
<stop offset="0.6691" stop-color="#A76DF3"/>
<stop offset="1" stop-color="#BB6DF3"/>
</linearGradient>
<linearGradient id="paint17_linear" x1="135.415" y1="31.6212" x2="193.328" y2="18.6363" gradientUnits="userSpaceOnUse">
<stop offset="0.030303" stop-color="#836DF3"/>
<stop offset="0.6691" stop-color="#A76DF3"/>
<stop offset="1" stop-color="#BB6DF3"/>
</linearGradient>
<linearGradient id="paint18_linear" x1="196.375" y1="-23.5185" x2="172.714" y2="21.5836" gradientUnits="userSpaceOnUse">
<stop stop-color="#AFB6E5"/>
<stop offset="0.1449" stop-color="#B6BCE8"/>
<stop offset="0.3485" stop-color="#C8CDF1"/>
<stop offset="0.5808" stop-color="#E5E9FF"/>
<stop offset="0.9546" stop-color="#F5F4FC"/>
<stop offset="1" stop-color="#F7F6FB"/>
</linearGradient>
<linearGradient id="paint19_linear" x1="126.669" y1="325.287" x2="279.276" y2="279.582" gradientUnits="userSpaceOnUse">
<stop stop-color="#AFB6E5"/>
<stop offset="0.1449" stop-color="#B6BCE8"/>
<stop offset="0.3485" stop-color="#C8CDF1"/>
<stop offset="0.5808" stop-color="#E5E9FF"/>
<stop offset="0.9546" stop-color="#F5F4FC"/>
<stop offset="1" stop-color="#F7F6FB"/>
</linearGradient>
<linearGradient id="paint20_linear" x1="40.0691" y1="224.09" x2="272.57" y2="249.775" gradientUnits="userSpaceOnUse">
<stop stop-color="#AFB6E5"/>
<stop offset="0.1449" stop-color="#B6BCE8"/>
<stop offset="0.3485" stop-color="#C8CDF1"/>
<stop offset="0.5808" stop-color="#E5E9FF"/>
<stop offset="0.9546" stop-color="#F5F4FC"/>
<stop offset="1" stop-color="#F7F6FB"/>
</linearGradient>
<linearGradient id="paint21_linear" x1="200.489" y1="240.247" x2="401.831" y2="179.945" gradientUnits="userSpaceOnUse">
<stop stop-color="#AFB6E5"/>
<stop offset="0.1449" stop-color="#B6BCE8"/>
<stop offset="0.3485" stop-color="#C8CDF1"/>
<stop offset="0.5808" stop-color="#E5E9FF"/>
<stop offset="0.9546" stop-color="#F5F4FC"/>
<stop offset="1" stop-color="#F7F6FB"/>
</linearGradient>
<linearGradient id="paint22_linear" x1="196.992" y1="75.9951" x2="210.868" y2="102.444" gradientUnits="userSpaceOnUse">
<stop stop-color="#AFB6E5"/>
<stop offset="0.1449" stop-color="#B6BCE8"/>
<stop offset="0.3485" stop-color="#C8CDF1"/>
<stop offset="0.5808" stop-color="#E5E9FF"/>
<stop offset="0.9546" stop-color="#F5F4FC"/>
<stop offset="1" stop-color="#F7F6FB"/>
</linearGradient>
<linearGradient id="paint23_linear" x1="211.722" y1="255.509" x2="337.614" y2="50.0514" gradientUnits="userSpaceOnUse">
<stop offset="0.040404" stop-color="#5277F7"/>
<stop offset="0.9394" stop-color="#00C7C5"/>
</linearGradient>
<linearGradient id="paint24_linear" x1="209.892" y1="249.513" x2="335.787" y2="44.0598" gradientUnits="userSpaceOnUse">
<stop offset="0.040404" stop-color="#5277F7"/>
<stop offset="0.9394" stop-color="#00C7C5"/>
</linearGradient>
<linearGradient id="paint25_linear" x1="208.062" y1="243.516" x2="333.956" y2="38.063" gradientUnits="userSpaceOnUse">
<stop offset="0.040404" stop-color="#5277F7"/>
<stop offset="0.9394" stop-color="#00C7C5"/>
</linearGradient>
<linearGradient id="paint26_linear" x1="143.001" y1="333.581" x2="194.268" y2="249.915" gradientUnits="userSpaceOnUse">
<stop offset="0.040404" stop-color="#5277F7"/>
<stop offset="0.9394" stop-color="#00C7C5"/>
</linearGradient>
<linearGradient id="paint27_linear" x1="137.151" y1="334.144" x2="188.418" y2="250.478" gradientUnits="userSpaceOnUse">
<stop offset="0.040404" stop-color="#5277F7"/>
<stop offset="0.9394" stop-color="#00C7C5"/>
</linearGradient>
<linearGradient id="paint28_linear" x1="131.3" y1="334.705" x2="182.567" y2="251.04" gradientUnits="userSpaceOnUse">
<stop offset="0.040404" stop-color="#5277F7"/>
<stop offset="0.9394" stop-color="#00C7C5"/>
</linearGradient>
<linearGradient id="paint29_linear" x1="173.833" y1="11.2678" x2="188.056" y2="7.00792" gradientUnits="userSpaceOnUse">
<stop stop-color="#AFB6E5"/>
<stop offset="0.1449" stop-color="#B6BCE8"/>
<stop offset="0.3485" stop-color="#C8CDF1"/>
<stop offset="0.5808" stop-color="#E5E9FF"/>
<stop offset="0.9546" stop-color="#F5F4FC"/>
<stop offset="1" stop-color="#F7F6FB"/>
</linearGradient>
<linearGradient id="paint30_linear" x1="154.858" y1="15.4898" x2="188.773" y2="7.88543" gradientUnits="userSpaceOnUse">
<stop stop-color="#AFB6E5"/>
<stop offset="0.1449" stop-color="#B6BCE8"/>
<stop offset="0.3485" stop-color="#C8CDF1"/>
<stop offset="0.5808" stop-color="#E5E9FF"/>
<stop offset="0.9546" stop-color="#F5F4FC"/>
<stop offset="1" stop-color="#F7F6FB"/>
</linearGradient>
<linearGradient id="paint31_linear" x1="72.133" y1="290.524" x2="348.362" y2="207.793" gradientUnits="userSpaceOnUse">
<stop stop-color="#AFB6E5"/>
<stop offset="0.1449" stop-color="#B6BCE8"/>
<stop offset="0.3485" stop-color="#C8CDF1"/>
<stop offset="0.5808" stop-color="#E5E9FF"/>
<stop offset="0.9546" stop-color="#F5F4FC"/>
<stop offset="1" stop-color="#F7F6FB"/>
</linearGradient>
<linearGradient id="paint32_linear" x1="-146.218" y1="323.967" x2="215.964" y2="242.759" gradientUnits="userSpaceOnUse">
<stop stop-color="#AFB6E5"/>
<stop offset="0.1449" stop-color="#B6BCE8"/>
<stop offset="0.3485" stop-color="#C8CDF1"/>
<stop offset="0.5808" stop-color="#E5E9FF"/>
<stop offset="0.9546" stop-color="#F5F4FC"/>
<stop offset="1" stop-color="#F7F6FB"/>
</linearGradient>
<linearGradient id="paint33_linear" x1="-46.7416" y1="301.673" x2="109.45" y2="266.651" gradientUnits="userSpaceOnUse">
<stop stop-color="#AFB6E5"/>
<stop offset="0.1449" stop-color="#B6BCE8"/>
<stop offset="0.3485" stop-color="#C8CDF1"/>
<stop offset="0.5808" stop-color="#E5E9FF"/>
<stop offset="0.9546" stop-color="#F5F4FC"/>
<stop offset="1" stop-color="#F7F6FB"/>
</linearGradient>
<linearGradient id="paint34_linear" x1="127.066" y1="3.52847" x2="57.3697" y2="136.384" gradientUnits="userSpaceOnUse">
<stop stop-color="#AFB6E5"/>
<stop offset="0.1449" stop-color="#B6BCE8"/>
<stop offset="0.3485" stop-color="#C8CDF1"/>
<stop offset="0.5808" stop-color="#E5E9FF"/>
<stop offset="0.9546" stop-color="#F5F4FC"/>
<stop offset="1" stop-color="#F7F6FB"/>
</linearGradient>
<linearGradient id="paint35_linear" x1="77.9194" y1="136.5" x2="185.538" y2="104.268" gradientUnits="userSpaceOnUse">
<stop stop-color="#AFB6E5"/>
<stop offset="0.1449" stop-color="#B6BCE8"/>
<stop offset="0.3485" stop-color="#C8CDF1"/>
<stop offset="0.5808" stop-color="#E5E9FF"/>
<stop offset="0.9546" stop-color="#F5F4FC"/>
<stop offset="1" stop-color="#F7F6FB"/>
</linearGradient>
<linearGradient id="paint36_linear" x1="8.13469" y1="140.779" x2="68.3304" y2="127.282" gradientUnits="userSpaceOnUse">
<stop stop-color="#AFB6E5"/>
<stop offset="0.1449" stop-color="#B6BCE8"/>
<stop offset="0.3485" stop-color="#C8CDF1"/>
<stop offset="0.5808" stop-color="#E5E9FF"/>
<stop offset="0.9546" stop-color="#F5F4FC"/>
<stop offset="1" stop-color="#F7F6FB"/>
</linearGradient>
<linearGradient id="paint37_linear" x1="78.4452" y1="129.785" x2="179.146" y2="99.6252" gradientUnits="userSpaceOnUse">
<stop offset="0.030303" stop-color="#836DF3"/>
<stop offset="0.6691" stop-color="#A76DF3"/>
<stop offset="1" stop-color="#BB6DF3"/>
</linearGradient>
<linearGradient id="paint38_linear" x1="-25.7181" y1="141.809" x2="104.697" y2="112.567" gradientUnits="userSpaceOnUse">
<stop offset="0.030303" stop-color="#836DF3"/>
<stop offset="0.6691" stop-color="#A76DF3"/>
<stop offset="1" stop-color="#BB6DF3"/>
</linearGradient>
<linearGradient id="paint39_linear" x1="112.307" y1="17.4684" x2="58.482" y2="120.071" gradientUnits="userSpaceOnUse">
<stop stop-color="#AFB6E5"/>
<stop offset="0.1449" stop-color="#B6BCE8"/>
<stop offset="0.3485" stop-color="#C8CDF1"/>
<stop offset="0.5808" stop-color="#E5E9FF"/>
<stop offset="0.9546" stop-color="#F5F4FC"/>
<stop offset="1" stop-color="#F7F6FB"/>
</linearGradient>
<linearGradient id="paint40_linear" x1="73.1149" y1="117.668" x2="150.836" y2="94.3905" gradientUnits="userSpaceOnUse">
<stop stop-color="#AFB6E5"/>
<stop offset="0.1449" stop-color="#B6BCE8"/>
<stop offset="0.3485" stop-color="#C8CDF1"/>
<stop offset="0.5808" stop-color="#E5E9FF"/>
<stop offset="0.9546" stop-color="#F5F4FC"/>
<stop offset="1" stop-color="#F7F6FB"/>
</linearGradient>
<linearGradient id="paint41_linear" x1="23.6142" y1="120.761" x2="67.1122" y2="111.008" gradientUnits="userSpaceOnUse">
<stop stop-color="#AFB6E5"/>
<stop offset="0.1449" stop-color="#B6BCE8"/>
<stop offset="0.3485" stop-color="#C8CDF1"/>
<stop offset="0.5808" stop-color="#E5E9FF"/>
<stop offset="0.9546" stop-color="#F5F4FC"/>
<stop offset="1" stop-color="#F7F6FB"/>
</linearGradient>
<linearGradient id="paint42_linear" x1="73.625" y1="111.153" x2="144.635" y2="89.8859" gradientUnits="userSpaceOnUse">
<stop offset="0.030303" stop-color="#836DF3"/>
<stop offset="0.6691" stop-color="#A76DF3"/>
<stop offset="1" stop-color="#BB6DF3"/>
</linearGradient>
<linearGradient id="paint43_linear" x1="0.262765" y1="119.632" x2="92.2307" y2="99.0113" gradientUnits="userSpaceOnUse">
<stop offset="0.030303" stop-color="#836DF3"/>
<stop offset="0.6691" stop-color="#A76DF3"/>
<stop offset="1" stop-color="#BB6DF3"/>
</linearGradient>
<linearGradient id="paint44_linear" x1="97.4545" y1="31.9805" x2="59.6009" y2="104.138" gradientUnits="userSpaceOnUse">
<stop stop-color="#AFB6E5"/>
<stop offset="0.1449" stop-color="#B6BCE8"/>
<stop offset="0.3485" stop-color="#C8CDF1"/>
<stop offset="0.5808" stop-color="#E5E9FF"/>
<stop offset="0.9546" stop-color="#F5F4FC"/>
<stop offset="1" stop-color="#F7F6FB"/>
</linearGradient>
<linearGradient id="paint45_linear" x1="68.8363" y1="98.9372" x2="120.132" y2="83.574" gradientUnits="userSpaceOnUse">
<stop stop-color="#AFB6E5"/>
<stop offset="0.1449" stop-color="#B6BCE8"/>
<stop offset="0.3485" stop-color="#C8CDF1"/>
<stop offset="0.5808" stop-color="#E5E9FF"/>
<stop offset="0.9546" stop-color="#F5F4FC"/>
<stop offset="1" stop-color="#F7F6FB"/>
</linearGradient>
<linearGradient id="paint46_linear" x1="37.3306" y1="100.981" x2="66.0712" y2="94.5374" gradientUnits="userSpaceOnUse">
<stop stop-color="#AFB6E5"/>
<stop offset="0.1449" stop-color="#B6BCE8"/>
<stop offset="0.3485" stop-color="#C8CDF1"/>
<stop offset="0.5808" stop-color="#E5E9FF"/>
<stop offset="0.9546" stop-color="#F5F4FC"/>
<stop offset="1" stop-color="#F7F6FB"/>
</linearGradient>
<linearGradient id="paint47_linear" x1="69.3371" y1="92.5425" x2="114.045" y2="79.1523" gradientUnits="userSpaceOnUse">
<stop offset="0.030303" stop-color="#836DF3"/>
<stop offset="0.6691" stop-color="#A76DF3"/>
<stop offset="1" stop-color="#BB6DF3"/>
</linearGradient>
<linearGradient id="paint48_linear" x1="23.2974" y1="97.8818" x2="81.2101" y2="84.8966" gradientUnits="userSpaceOnUse">
<stop offset="0.030303" stop-color="#836DF3"/>
<stop offset="0.6691" stop-color="#A76DF3"/>
<stop offset="1" stop-color="#BB6DF3"/>
</linearGradient>
<linearGradient id="paint49_linear" x1="84.257" y1="42.7416" x2="60.5962" y2="87.8443" gradientUnits="userSpaceOnUse">
<stop stop-color="#AFB6E5"/>
<stop offset="0.1449" stop-color="#B6BCE8"/>
<stop offset="0.3485" stop-color="#C8CDF1"/>
<stop offset="0.5808" stop-color="#E5E9FF"/>
<stop offset="0.9546" stop-color="#F5F4FC"/>
<stop offset="1" stop-color="#F7F6FB"/>
</linearGradient>
<linearGradient id="paint50_linear" x1="-71.1881" y1="289.395" x2="160.017" y2="314.937" gradientUnits="userSpaceOnUse">
<stop stop-color="#AFB6E5"/>
<stop offset="0.1449" stop-color="#B6BCE8"/>
<stop offset="0.3485" stop-color="#C8CDF1"/>
<stop offset="0.5808" stop-color="#E5E9FF"/>
<stop offset="0.9546" stop-color="#F5F4FC"/>
<stop offset="1" stop-color="#F7F6FB"/>
</linearGradient>
<linearGradient id="paint51_linear" x1="88.4534" y1="305.433" x2="288.685" y2="245.463" gradientUnits="userSpaceOnUse">
<stop stop-color="#AFB6E5"/>
<stop offset="0.1449" stop-color="#B6BCE8"/>
<stop offset="0.3485" stop-color="#C8CDF1"/>
<stop offset="0.5808" stop-color="#E5E9FF"/>
<stop offset="0.9546" stop-color="#F5F4FC"/>
<stop offset="1" stop-color="#F7F6FB"/>
</linearGradient>
<linearGradient id="paint52_linear" x1="84.8726" y1="142.257" x2="98.7481" y2="168.706" gradientUnits="userSpaceOnUse">
<stop stop-color="#AFB6E5"/>
<stop offset="0.1449" stop-color="#B6BCE8"/>
<stop offset="0.3485" stop-color="#C8CDF1"/>
<stop offset="0.5808" stop-color="#E5E9FF"/>
<stop offset="0.9546" stop-color="#F5F4FC"/>
<stop offset="1" stop-color="#F7F6FB"/>
</linearGradient>
<linearGradient id="paint53_linear" x1="99.7109" y1="320.543" x2="224.594" y2="116.747" gradientUnits="userSpaceOnUse">
<stop offset="0.040404" stop-color="#5277F7"/>
<stop offset="0.9394" stop-color="#00C7C5"/>
</linearGradient>
<linearGradient id="paint54_linear" x1="97.8263" y1="314.636" x2="222.709" y2="110.839" gradientUnits="userSpaceOnUse">
<stop offset="0.040404" stop-color="#5277F7"/>
<stop offset="0.9394" stop-color="#00C7C5"/>
</linearGradient>
<linearGradient id="paint55_linear" x1="95.9413" y1="308.729" x2="220.823" y2="104.929" gradientUnits="userSpaceOnUse">
<stop offset="0.040404" stop-color="#5277F7"/>
<stop offset="0.9394" stop-color="#00C7C5"/>
</linearGradient>
<linearGradient id="paint56_linear" x1="61.7144" y1="77.5287" x2="75.9374" y2="73.2689" gradientUnits="userSpaceOnUse">
<stop stop-color="#AFB6E5"/>
<stop offset="0.1449" stop-color="#B6BCE8"/>
<stop offset="0.3485" stop-color="#C8CDF1"/>
<stop offset="0.5808" stop-color="#E5E9FF"/>
<stop offset="0.9546" stop-color="#F5F4FC"/>
<stop offset="1" stop-color="#F7F6FB"/>
</linearGradient>
<linearGradient id="paint57_linear" x1="42.7377" y1="81.751" x2="76.6534" y2="74.1465" gradientUnits="userSpaceOnUse">
<stop stop-color="#AFB6E5"/>
<stop offset="0.1449" stop-color="#B6BCE8"/>
<stop offset="0.3485" stop-color="#C8CDF1"/>
<stop offset="0.5808" stop-color="#E5E9FF"/>
<stop offset="0.9546" stop-color="#F5F4FC"/>
<stop offset="1" stop-color="#F7F6FB"/>
</linearGradient>
</defs>
</svg>
