<svg width="458" height="392" viewBox="0 0 458 392" fill="none" xmlns="http://www.w3.org/2000/svg">
<g clip-path="url(#clip0)">
<path opacity="0.3" d="M406.336 328.19L371.834 303.82C369.689 302.217 370.226 300.132 373.265 299.01L412.593 284.901C415.632 283.779 419.923 284.26 422.068 285.703L456.57 310.073C458.715 311.676 458.179 313.76 455.14 314.882L415.811 328.991C412.772 330.114 408.482 329.793 406.336 328.19Z" fill="url(#paint0_linear)"/>
<path d="M449.598 212.273L361.823 221.412L368.08 269.67C368.08 270.472 368.795 271.274 370.047 271.755L410.448 287.306C413.129 288.268 417.241 287.787 419.922 286.024L453.888 263.418C455.318 262.456 455.854 261.494 455.854 260.532L449.598 212.273Z" fill="url(#paint1_linear)"/>
<path d="M404.191 239.208L363.789 223.656C361.108 222.695 361.287 220.45 363.789 218.686L397.755 196.08C400.437 194.317 404.727 193.675 407.23 194.798L447.631 210.349C450.312 211.311 450.134 213.556 447.631 215.319L413.665 237.926C410.984 239.529 406.693 240.17 404.191 239.208Z" fill="url(#paint2_linear)"/>
<path d="M447.452 213.716L413.487 236.322C410.805 238.086 406.515 238.727 404.012 237.605L363.611 222.053C362.717 221.733 362.181 221.252 362.002 220.771C361.644 221.893 362.359 222.855 363.789 223.496L404.191 239.048C406.872 240.01 410.984 239.529 413.665 237.765L447.631 215.159C449.419 214.037 449.955 212.594 449.419 211.472C449.061 212.113 448.525 212.915 447.452 213.716Z" fill="white"/>
<g opacity="0.5">
<path opacity="0.5" d="M63.2839 148.623L20.9162 118.642L0.358028 141.89C0.000494365 142.21 -0.178272 142.851 0.179261 143.493L10.0114 165.939C10.7265 167.382 12.6929 168.824 14.8381 168.985L40.4017 172.352C41.4743 172.512 42.1894 172.352 42.7257 171.871L63.2839 148.623Z" fill="url(#paint3_linear)"/>
<path opacity="0.5" d="M30.5691 142.691L20.737 120.245C20.0219 118.802 21.2733 117.84 23.2397 118.161L48.8033 121.528C50.7698 121.849 52.915 123.131 53.63 124.574L63.4622 147.02C64.1772 148.463 62.9259 149.425 60.9594 149.104L35.3958 145.737C33.4294 145.577 31.2842 144.134 30.5691 142.691Z" fill="url(#paint4_linear)"/>
<path opacity="0.5" d="M61.6744 148.463L36.1108 145.096C34.1444 144.776 31.9992 143.493 31.2841 142.05L21.4519 119.604C21.2732 119.123 21.2732 118.803 21.2732 118.482C20.5581 118.803 20.3793 119.604 20.7369 120.406L30.569 142.852C31.2841 144.295 33.2505 145.738 35.3957 145.898L60.9593 149.104C62.3895 149.265 63.2833 148.944 63.4621 148.142C63.1045 148.463 62.3895 148.623 61.6744 148.463Z" fill="white"/>
</g>
<g opacity="0.3">
<path opacity="0.3" d="M146.589 313.921L284.776 385.427C285.669 385.908 285.669 386.87 284.776 387.351L276.731 391.519C275.659 392.16 274.228 392.16 273.156 391.519L134.969 320.013C134.075 319.532 134.075 318.57 134.969 318.089L143.014 313.921C144.086 313.279 145.516 313.279 146.589 313.921Z" fill="url(#paint5_linear)"/>
</g>
<path d="M132.466 8.49739L148.555 0.16038C149.27 -0.160275 150.164 5.23925e-05 151.058 0.320707L290.138 72.3076C292.284 73.4299 293.893 76.3158 293.893 78.7207V362.34C293.893 363.783 293.356 364.584 292.641 365.065L276.552 373.402L276.195 357.69L151.237 292.918C149.092 291.796 147.483 288.91 147.483 286.505V16.0328C147.125 16.9947 146.946 17.636 146.946 17.636C146.589 17.636 132.466 8.49739 132.466 8.49739Z" fill="url(#paint6_linear)"/>
<path d="M293.714 77.7588L251.704 99.5633L245.447 96.3567L290.853 72.949C292.105 73.9109 293.356 75.8349 293.714 77.7588Z" fill="url(#paint7_linear)"/>
<path d="M134.969 301.255L274.049 373.242C276.195 374.364 277.803 373.242 277.803 370.677V87.0577C277.803 84.4925 276.195 81.6066 274.049 80.6446L134.969 8.6577C132.824 7.53541 131.215 8.6577 131.215 11.2229V294.842C131.215 297.247 132.824 300.133 134.969 301.255Z" fill="url(#paint8_linear)"/>
<path d="M275.837 79.843L136.935 7.85605C135.684 7.21474 134.432 7.5354 133.717 8.33703C134.075 8.33703 134.432 8.49736 134.969 8.65769L274.049 80.6446C276.194 81.7669 277.803 84.6528 277.803 87.0577V370.677C277.803 371.639 277.446 372.28 277.088 372.761C278.518 372.921 279.591 371.799 279.591 369.875V86.2561C279.591 83.8512 277.982 80.8049 275.837 79.843Z" fill="white"/>
<path d="M221.313 65.574C221.492 65.4137 221.492 65.093 221.492 64.7724C221.492 63.4898 220.598 62.0468 219.704 61.5658L192.889 47.6174L192.71 47.457C191.817 47.1364 191.102 47.6174 191.102 48.9C191.102 50.1826 191.995 51.6255 192.889 52.1065L219.704 66.055C220.419 66.536 220.956 66.2153 221.313 65.574Z" fill="#0063AD"/>
<path d="M152.309 61.245L150.164 60.1227V54.5112L152.309 55.6335V61.245Z" fill="white"/>
<path d="M156.599 63.4895L154.275 62.3672V56.5955L156.599 57.7178V63.4895Z" fill="white"/>
<path d="M160.711 65.5738L158.387 64.4515V58.8401L160.711 59.9624V65.5738Z" fill="white"/>
<path d="M164.823 67.6581L162.499 66.5358V60.9243L164.823 62.0466V67.6581Z" fill="white"/>
<path d="M218.274 167.061L241.514 179.085V175.398L218.274 163.373V167.061Z" fill="white"/>
<path d="M206.297 160.808L214.699 165.137V161.449L206.297 157.121V160.808Z" fill="white"/>
<path d="M197 155.998L202.721 158.884V155.357L197 152.311V155.998Z" fill="white"/>
<path d="M228.821 180.689L241.514 187.262V183.735L228.821 177.162V180.689Z" fill="white"/>
<path d="M209.693 170.909L225.246 178.925V175.238L209.693 167.221V170.909Z" fill="white"/>
<path d="M200.397 166.099L206.117 168.985V165.458L200.397 162.412V166.099Z" fill="white"/>
<path d="M191.638 161.45L197.358 164.496V160.808L191.638 157.922V161.45Z" fill="white"/>
<path d="M232.218 190.789L241.514 195.599V192.072L232.218 187.262V190.789Z" fill="white"/>
<path d="M225.603 187.422L228.821 189.026V185.338L225.603 183.735V187.422Z" fill="white"/>
<path d="M216.308 182.613L222.028 185.498V181.971L216.308 178.925V182.613Z" fill="white"/>
<path d="M207.548 186.3L241.514 203.936V200.249L207.548 182.773V186.3Z" fill="white"/>
<path d="M195.75 180.208L203.973 184.537V180.849L195.75 176.52V180.208Z" fill="white"/>
<path d="M232.218 207.463L241.514 212.113V208.586L232.218 203.776V207.463Z" fill="white"/>
<path d="M210.766 196.241L228.821 205.54V202.012L210.766 192.713V196.241Z" fill="white"/>
<path d="M201.47 191.431L207.19 194.477V190.789L201.47 187.904V191.431Z" fill="white"/>
<path d="M222.743 210.67L241.514 220.45V216.762L222.743 207.143V210.67Z" fill="white"/>
<path d="M205.582 201.852L219.168 208.906V205.219L205.582 198.164V201.852Z" fill="white"/>
<path d="M192.889 195.279L202.006 200.088V196.401L192.889 191.591V195.279Z" fill="white"/>
<path d="M235.078 225.42L241.514 228.787V225.099L235.078 221.893V225.42Z" fill="white"/>
<path d="M223.279 219.328L231.503 223.657V219.969L223.279 215.64V219.328Z" fill="white"/>
<path d="M206.118 210.51L219.704 217.404V213.876L206.118 206.822V210.51Z" fill="white"/>
<path d="M222.028 227.023L241.513 236.964V233.437L222.028 223.336V227.023Z" fill="white"/>
<path d="M200.219 215.64L218.453 225.1V221.572L200.219 212.113V215.64Z" fill="white"/>
<path d="M191.102 210.83L196.822 213.877V210.189L191.102 207.303V210.83Z" fill="white"/>
<path d="M182.163 206.341L187.884 209.227V205.539L182.163 202.654V206.341Z" fill="white"/>
<path d="M229.894 239.208L241.513 245.301V241.613L229.894 235.681V239.208Z" fill="white"/>
<path d="M181.09 147.822L165.001 139.485V135.797L181.09 144.134V147.822Z" fill="white"/>
<path d="M177.694 154.235L165.001 147.661V144.134L177.694 150.707V154.235Z" fill="white"/>
<path d="M174.119 160.808L165.001 155.998V152.311L174.119 157.121V160.808Z" fill="white"/>
<path d="M178.409 171.23L165.001 164.335V160.648L178.409 167.542V171.23Z" fill="white"/>
<path d="M174.119 177.322L165.001 172.512V168.985L174.119 173.634V177.322Z" fill="white"/>
<path d="M176.621 186.942L165.001 180.849V177.162L176.621 183.254V186.942Z" fill="white"/>
<path d="M171.437 192.393L165.001 189.186V185.499L171.437 188.705V192.393Z" fill="white"/>
<path d="M177.336 203.776L165.001 197.363V193.835L177.336 200.088V203.776Z" fill="white"/>
<path d="M176.621 211.792L165.001 205.7V202.012L176.621 208.105V211.792Z" fill="white"/>
<path d="M221.313 234.879L226.318 237.445V233.757L221.313 231.192V234.879Z" fill="white"/>
<path d="M206.654 227.184L217.737 232.955V229.428L206.654 223.656V227.184Z" fill="white"/>
<path d="M197.358 246.583L216.129 256.363V252.676L197.358 242.896V246.583Z" fill="white"/>
<path d="M184.487 239.849L191.995 243.697V240.17L184.487 236.322V239.849Z" fill="white"/>
</g>
<defs>
<linearGradient id="paint0_linear" x1="384.02" y1="249.815" x2="444.9" y2="393.209" gradientUnits="userSpaceOnUse">
<stop stop-color="#59BDEF"/>
<stop offset="1" stop-color="#7BDAFF"/>
</linearGradient>
<linearGradient id="paint1_linear" x1="366.477" y1="256.857" x2="453.898" y2="245.503" gradientUnits="userSpaceOnUse">
<stop offset="0.4032" stop-color="#FD5A05"/>
<stop offset="0.423" stop-color="#FA5505"/>
<stop offset="0.5505" stop-color="#EC3D03"/>
<stop offset="0.6846" stop-color="#E22C01"/>
<stop offset="0.8286" stop-color="#DC2100"/>
<stop offset="1" stop-color="#DA1E00"/>
</linearGradient>
<linearGradient id="paint2_linear" x1="360.243" y1="168.534" x2="456.639" y2="295.756" gradientUnits="userSpaceOnUse">
<stop offset="0.4032" stop-color="#FC8B04"/>
<stop offset="0.5099" stop-color="#FC7904"/>
<stop offset="0.6558" stop-color="#FD6805"/>
<stop offset="0.813" stop-color="#FD5D05"/>
<stop offset="1" stop-color="#FD5A05"/>
</linearGradient>
<linearGradient id="paint3_linear" x1="5.7871" y1="135.743" x2="44.503" y2="169.9" gradientUnits="userSpaceOnUse">
<stop stop-color="#3A9BD5"/>
<stop offset="0.1172" stop-color="#3490CE"/>
<stop offset="0.367" stop-color="#2C80C3"/>
<stop offset="0.6442" stop-color="#2776BC"/>
<stop offset="1" stop-color="#2573BA"/>
</linearGradient>
<linearGradient id="paint4_linear" x1="45.6708" y1="95.1338" x2="38.6345" y2="188.48" gradientUnits="userSpaceOnUse">
<stop stop-color="#59BDEF"/>
<stop offset="1" stop-color="#7BDAFF"/>
</linearGradient>
<linearGradient id="paint5_linear" x1="134.364" y1="352.716" x2="285.417" y2="352.716" gradientUnits="userSpaceOnUse">
<stop stop-color="#59BDEF"/>
<stop offset="1" stop-color="#7BDAFF"/>
</linearGradient>
<linearGradient id="paint6_linear" x1="315.781" y1="210.383" x2="126.306" y2="156.154" gradientUnits="userSpaceOnUse">
<stop stop-color="#2573BA"/>
<stop offset="0.00753981" stop-color="#2674BB"/>
<stop offset="0.1331" stop-color="#2F86C7"/>
<stop offset="0.2856" stop-color="#3592CF"/>
<stop offset="0.4934" stop-color="#3999D4"/>
<stop offset="1" stop-color="#3A9BD5"/>
</linearGradient>
<linearGradient id="paint7_linear" x1="269.54" y1="99.5567" x2="269.54" y2="72.7997" gradientUnits="userSpaceOnUse">
<stop stop-color="#C0D6FF"/>
<stop offset="0.2978" stop-color="#C5DBFF"/>
<stop offset="0.6488" stop-color="#D3E9FF"/>
<stop offset="1" stop-color="#E9FFFF"/>
</linearGradient>
<linearGradient id="paint8_linear" x1="204.488" y1="337.281" x2="323.973" y2="106.533" gradientUnits="userSpaceOnUse">
<stop stop-color="#59BDEF"/>
<stop offset="1" stop-color="#7BDAFF"/>
</linearGradient>
<clipPath id="clip0">
<rect width="458" height="392" fill="white"/>
</clipPath>
</defs>
</svg>
