<svg width="650" height="754" viewBox="0 0 650 754" fill="none" xmlns="http://www.w3.org/2000/svg">
<path d="M-15.9513 458.318C-15.9513 458.318 -16.7584 456.926 -15.9513 458.318L72.1329 193.473L378.079 217.699C378.079 217.699 378.079 217.699 377.796 218.814L-15.9513 458.318ZM73.223 193.75L-14.2954 456.364L376.706 218.537L73.223 193.75Z" fill="white"/>
<path d="M-15.9509 458.318C-16.758 456.926 -16.758 456.926 -15.9509 458.318L378.079 217.699L401.951 329.377L401.668 330.492L-15.9509 458.318ZM377.796 218.814L-11.8321 455.803L401.951 329.377L377.796 218.814Z" fill="white"/>
<path d="M72.1331 193.473L326.723 63.4442L378.079 217.699L72.1331 193.473ZM326.441 64.5591L74.5961 192.911L378.079 217.699L326.441 64.5591Z" fill="white"/>
<path d="M497.215 552.924L377.796 218.814C377.796 218.814 377.796 218.814 378.079 217.699C378.079 217.699 378.079 217.699 379.169 217.975L598.895 325.945C598.895 325.945 598.895 325.945 598.612 327.06L497.215 552.924C498.305 553.2 498.305 553.2 497.215 552.924C498.305 553.2 498.305 553.2 497.215 552.924ZM379.976 219.367L498.871 550.97L597.805 325.668L379.976 219.367Z" fill="white"/>
<path d="M597.522 326.783L377.796 218.814L326.723 63.4441C326.723 63.4441 326.723 63.4441 327.006 62.3292C327.006 62.3292 327.006 62.3292 328.096 62.6057L597.522 326.783C597.805 325.668 597.805 325.668 597.522 326.783ZM379.169 217.975L594.818 323.724L328.62 65.1123L379.169 217.975Z" fill="white"/>
<path d="M224.619 680.758C224.902 679.643 224.902 679.643 224.619 680.758L401.669 330.492L498.306 553.2L498.023 554.315L224.619 680.758ZM402.476 331.884L226.275 678.804L497.215 552.924L402.476 331.884Z" fill="white"/>
<path d="M224.618 680.757L-15.9515 458.318L402.758 330.768C402.758 330.768 402.758 330.768 403.848 331.045C403.848 331.045 403.848 331.045 403.565 332.16L224.618 680.757C224.901 679.642 225.991 679.919 224.618 680.757ZM-14.5785 457.479L225.184 678.527L401.668 330.492L-14.5785 457.479Z" fill="white"/>
<path d="M497.215 552.924L401.668 330.492L377.796 218.814L378.079 217.699L379.169 217.975L497.215 552.924C498.305 553.2 498.305 553.2 497.215 552.924C498.305 553.2 498.305 553.2 497.215 552.924ZM380.459 226.61L403.041 329.654L490.276 534.548L380.459 226.61Z" fill="white"/>
<path d="M167.697 196.36L48.427 373.779L266.789 295.082L167.697 196.36Z" fill="#00DDDB"/>
<path d="M266.789 295.082L48.427 373.779L261.921 382.853L266.789 295.082Z" fill="#00BDB9"/>
<path d="M381.649 153.333L167.697 196.36L266.789 295.082L381.649 153.333Z" fill="#70EDEC"/>
<path d="M528.543 406.595L266.789 295.082L407.908 552.812L528.543 406.595Z" fill="#70EDEC"/>
<path d="M381.649 153.333L528.543 406.595L266.789 295.082L381.649 153.333Z" fill="#CAF8F7"/>
<path d="M407.908 552.812L181.442 590.289L261.921 382.853L407.908 552.812Z" fill="#00918A"/>
<path d="M261.921 382.853L48.427 373.779L181.442 590.29L261.921 382.853Z" fill="#009C96"/>
<path d="M266.789 295.082L261.921 382.853L407.908 552.812L266.789 295.082Z" fill="#13E7E5"/>
<path d="M-15.9512 458.318C-15.9512 458.318 -16.7583 456.926 -15.9512 458.318L72.133 193.473L230.86 281.218L-15.9512 458.318ZM72.94 194.865L-14.2953 456.364L230.86 281.218L72.94 194.865Z" fill="white"/>
<path d="M-15.9509 458.318C-16.7581 456.926 -16.7581 456.926 -15.9509 458.318L230.86 281.218L254.732 392.896L254.449 394.011L-15.9509 458.318ZM231.667 282.61L-13.2051 456.641L254.732 392.896L231.667 282.61Z" fill="white"/>
<path d="M231.95 281.495L73.223 193.75L326.724 63.4442C326.724 63.4442 326.724 63.4442 327.814 63.7207C327.814 63.7207 327.814 63.7207 327.531 64.8357L231.95 281.495ZM73.223 193.75L230.86 281.218L325.068 65.3975L73.223 193.75Z" fill="white"/>
<path d="M497.215 552.924L230.86 281.218C230.86 281.218 230.86 281.218 231.143 280.103L596.715 325.392L497.215 552.924C498.305 553.2 498.305 553.2 497.215 552.924C498.305 553.2 498.305 553.2 497.215 552.924ZM233.04 281.771L497.498 551.809L596.432 326.507L233.04 281.771Z" fill="white"/>
<path d="M231.95 281.495C230.86 281.218 230.86 281.218 231.95 281.495C230.86 281.218 230.86 281.218 231.95 281.495L326.724 63.4442L597.805 325.668C597.805 325.668 597.805 325.668 597.522 326.783L231.95 281.495ZM327.531 64.8357L231.95 281.495L595.342 326.23L327.531 64.8357Z" fill="white"/>
<path d="M224.618 680.757C224.901 679.642 224.901 679.642 224.618 680.757L254.732 392.896L496.125 552.647L224.618 680.757ZM256.629 394.564L225.184 678.527L496.125 552.647L256.629 394.564Z" fill="white"/>
<path d="M224.618 680.757L-15.9514 458.318L255.538 394.288L224.618 680.757C225.991 679.919 225.991 679.919 224.618 680.757ZM-14.5784 457.479L224.094 678.251L254.731 392.896L-14.5784 457.479Z" fill="white"/>
<path d="M497.215 552.924L254.732 392.896L230.86 281.218C230.86 281.218 230.86 281.218 231.142 280.103C231.142 280.103 231.142 280.103 232.232 280.38L497.215 552.924C498.305 553.2 498.305 553.2 497.215 552.924C498.305 553.2 498.305 553.2 497.215 552.924ZM256.105 392.058L493.421 549.587L232.757 282.886L256.105 392.058Z" fill="white"/>
<path d="M602.448 325.66C602.973 328.166 600.227 329.843 597.764 330.405C595.301 330.967 593.687 328.183 593.163 325.677C592.638 323.17 595.384 321.494 597.847 320.932C600.027 321.485 601.924 323.153 602.448 325.66Z" fill="white"/>
<path d="M331.367 63.4358C331.892 65.9423 329.146 67.6191 326.683 68.1809C324.503 67.6277 322.606 65.9596 323.172 63.7297C322.647 61.2231 324.303 59.2698 326.766 58.708C328.946 59.2611 331.933 61.2058 331.367 63.4358Z" fill="white"/>
<path d="M235.503 281.21C236.028 283.716 233.282 285.393 230.819 285.955C228.356 286.516 226.742 283.733 226.217 281.227C225.693 278.72 228.439 277.044 230.902 276.482C234.455 276.196 236.069 278.98 235.503 281.21Z" fill="white"/>
<path d="M260.465 393.164C260.989 395.671 258.244 397.348 255.781 397.91C253.318 398.471 251.703 395.688 251.179 393.182C250.655 390.675 253.401 388.998 255.864 388.437C258.327 387.875 259.941 390.658 260.465 393.164Z" fill="white"/>
<path d="M229.545 679.634C230.069 682.14 227.323 683.817 224.86 684.379C222.397 684.941 220.783 682.158 220.259 679.651C219.734 677.145 222.48 675.468 224.943 674.906C227.123 675.459 229.02 677.127 229.545 679.634Z" fill="white"/>
<path d="M77.0599 192.35C77.5839 194.856 74.8379 196.533 72.3749 197.095C69.9119 197.657 68.2979 194.874 67.7739 192.367C67.2499 189.861 69.9949 188.184 72.4579 187.622C74.6379 188.175 77.6259 190.12 77.0599 192.35Z" fill="white"/>
<circle cx="115" cy="556" r="78" fill="url(#paint0_linear)"/>
<defs>
<linearGradient id="paint0_linear" x1="115" y1="478" x2="115" y2="634" gradientUnits="userSpaceOnUse">
<stop stop-color="#00FBE3"/>
<stop offset="1" stop-color="#01D6DF"/>
</linearGradient>
</defs>
</svg>
