<svg width="455" height="310" viewBox="0 0 455 310" fill="none" xmlns="http://www.w3.org/2000/svg">
<g clip-path="url(#clip0)">
<path d="M233 93.518L256.43 180.022L366.551 159.565L337.85 77.1523L233 93.518Z" fill="#00BDB9"/>
<path d="M233 93.518L280.446 15.1967L337.85 77.1523L233 93.518Z" fill="#00DDDB"/>
<path d="M366.551 159.565L337.849 77.1524L413.997 57.8643L433.912 139.693L366.551 159.565Z" fill="#13E7E5"/>
<path d="M280.446 15.1967L359.523 0L413.998 57.8643L337.85 77.1524L280.446 15.1967Z" fill="#70EDEC"/>
<path d="M256.43 180.022L355.422 211L366.552 159.565L256.43 180.022Z" fill="#009C96"/>
<path d="M366.551 159.565L355.422 211L432.741 189.374L433.912 139.693L366.551 159.565Z" fill="#00BDB9"/>
<path d="M359.523 0L433.913 44.4211L413.998 57.8643L359.523 0Z" fill="#CAF8F7"/>
<path d="M433.913 139.693L432.742 189.374L455.001 128.587L433.913 139.693Z" fill="#00DDDB"/>
<path d="M433.912 44.4211L454.999 128.587L433.912 139.693L413.997 57.8643L433.912 44.4211Z" fill="#70EDEC"/>
</g>
<g clip-path="url(#clip1)">
<path d="M19.978 243.618C19.3336 243.618 19.3336 243.618 19.978 243.618L1.93359 114.075L58.0003 79.2724L83.778 203.659C83.778 203.659 83.778 203.659 83.778 204.304L19.978 243.618ZM2.57804 114.075L19.978 242.973L83.1336 204.304L58.0003 79.9169L2.57804 114.075Z" fill="white"/>
<path d="M2.5783 114.075C1.93386 114.075 1.93386 113.43 2.5783 114.075L86.3561 9.66739C86.3561 9.66739 86.3561 9.66739 87.0005 9.66739C87.0005 9.66739 87.0005 9.66739 87.0005 10.3119L58.645 79.9169L2.5783 114.075ZM85.0672 11.6009L3.86719 112.786L58.0005 79.2724L85.0672 11.6009Z" fill="white"/>
<path d="M83.1333 204.304L58 79.9169L171.422 65.7381L184.311 188.191C184.311 188.191 184.311 188.191 184.311 188.836L83.1333 204.304ZM58.6444 79.9169L83.7778 203.659L184.311 188.191L171.422 66.3826L58.6444 79.9169Z" fill="white"/>
<path d="M58 79.9168C58 79.9168 58 79.2724 58 79.9168L85.7111 9.66737L203 2.57797L170.778 65.7381L58 79.9168ZM86.3556 9.66737L58.6444 79.2724L171.422 65.0936L203 2.57797L86.3556 9.66737Z" fill="white"/>
<path d="M156.6 308.067L19.3333 243.617L83.1333 204.304H83.7777L156.6 308.067C157.244 307.422 157.244 308.067 156.6 308.067ZM20.6221 242.973L155.955 306.778L83.1333 204.304L20.6221 242.973Z" fill="white"/>
<path d="M156.6 308.067L83.1335 204.304L184.311 188.191L272.6 290.665L156.6 308.067ZM83.778 204.304L156.6 307.422L271.956 290.665L184.311 188.191L83.778 204.304Z" fill="white"/>
<path d="M302.245 81.8503L172.067 65.7381L204.289 2.57797L302.245 81.8503C302.245 81.2058 302.245 81.2058 302.245 81.8503C302.245 81.2058 302.245 81.8503 302.245 81.8503ZM172.067 65.0936L300.956 80.5613L203.645 3.22246L172.067 65.0936Z" fill="white"/>
<path d="M273.245 291.31L184.312 188.191C184.312 188.191 184.312 188.191 184.312 187.547C184.312 187.547 184.312 187.547 184.956 187.547L317.067 206.881L273.245 291.31ZM185.6 188.191L273.245 290.021L315.778 207.526L185.6 188.191Z" fill="white"/>
<path d="M316.423 207.526L184.311 188.191L171.423 65.7381L301.6 81.8503L316.423 207.526C317.067 206.882 317.067 206.882 316.423 207.526C317.067 207.526 317.067 207.526 316.423 207.526ZM184.956 187.547L316.423 206.237L302.245 81.2058L172.711 65.7381L184.956 187.547Z" fill="white"/>
<path d="M19.978 243.617C19.978 243.617 19.3336 243.617 19.978 243.617L1.93359 114.075L156.6 110.852L181.734 235.239L19.978 243.617ZM3.22248 114.075L20.6225 242.973L182.378 234.595L157.245 110.852L3.22248 114.075Z" fill="white"/>
<path d="M2.5783 114.075C1.93386 114.075 1.93386 113.43 2.5783 114.075L86.3561 9.66736L157.245 110.852C157.245 110.852 157.245 110.852 157.245 111.497C157.245 112.141 157.245 111.497 157.245 111.497L2.5783 114.075ZM86.3561 10.3118L3.22275 113.43L156.601 110.208L86.3561 10.3118Z" fill="white"/>
<path d="M182.378 235.239L157.245 110.852L270.667 96.0291L283.556 218.482C283.556 218.482 283.556 218.482 283.556 219.127L182.378 235.239ZM157.889 110.852L183.022 234.595L283.556 218.482L270.667 96.6736L157.889 110.852Z" fill="white"/>
<path d="M157.245 110.852L86.3557 9.66737L203.645 2.57797L270.667 96.6736L157.245 110.852ZM87.0002 9.66737L157.889 110.208L270.667 96.0291L203.645 2.57797L87.0002 9.66737Z" fill="white"/>
<path d="M156.6 308.067L19.3333 243.617C19.3333 243.617 19.3333 243.617 19.3333 242.973L181.733 234.595L156.6 308.067C157.244 308.067 156.6 308.067 156.6 308.067ZM21.2666 243.617L156.6 307.422L182.378 235.239L21.2666 243.617Z" fill="white"/>
<path d="M156.6 308.067C156.6 308.067 156.6 307.422 156.6 308.067L182.378 234.595L283.556 218.482L273.245 290.665L156.6 308.067ZM183.023 235.239L157.245 307.422L272.6 290.665L283.556 219.127L183.023 235.239Z" fill="white"/>
<path d="M270.667 96.6736L203.645 2.57796C203.645 2.57796 203.645 2.57796 203.645 1.93347C203.645 1.93347 203.645 1.93347 204.289 1.93347L302.889 80.5613L270.667 96.6736C271.312 96.6736 271.312 96.6736 270.667 96.6736ZM205.578 4.51143L271.312 96.0291L301.601 81.2058L205.578 4.51143Z" fill="white"/>
<path d="M273.245 291.31C272.6 291.31 272.6 290.665 273.245 291.31L283.556 219.127L316.423 207.526C316.423 207.526 316.423 207.526 317.067 207.526C317.067 207.526 317.067 207.526 317.067 208.17L273.245 291.31ZM284.2 219.127L273.889 288.732L315.778 207.526L284.2 219.127Z" fill="white"/>
<path d="M283.556 219.127L270.667 96.6736L301.6 81.8503L316.422 207.526C316.422 207.526 316.422 207.526 316.422 208.17L283.556 219.127ZM271.311 96.6736L284.2 218.482L316.422 206.881L302.245 81.8503L271.311 96.6736Z" fill="white"/>
<path d="M5.15556 114.075C5.15556 115.364 3.86667 116.653 2.57778 116.008C0.644444 116.008 0 114.719 0 113.43C0 112.141 1.28889 110.852 2.57778 111.497C4.51111 111.497 5.15556 112.786 5.15556 114.075Z" fill="white"/>
<path d="M60.5773 79.9168C60.5773 81.2058 59.2884 82.4948 57.9995 81.8503C56.7106 81.8503 55.4217 80.5613 56.0662 79.2724C56.0662 77.9834 57.3551 76.6944 58.644 77.3389C59.9329 77.3389 61.2217 78.6279 60.5773 79.9168Z" fill="white"/>
<path d="M88.9333 9.66736C88.9333 10.9563 87.6444 12.2453 86.3555 11.6008C85.0666 11.6008 83.7777 10.3118 84.4221 9.02287C84.4221 7.73388 85.711 6.4449 86.9999 7.08939C88.2888 7.08939 88.9333 8.37838 88.9333 9.66736Z" fill="white"/>
<path d="M206.222 2.57797C206.222 3.86695 204.933 5.15593 203.645 4.51144C202.356 4.51144 201.067 3.22246 201.711 1.93348C201.711 0.644499 203 -0.644482 204.289 8.44896e-06C205.578 8.44896e-06 206.222 1.28899 206.222 2.57797Z" fill="white"/>
<path d="M273.244 96.6736C273.244 97.9626 271.955 99.2516 270.666 98.6071C269.377 98.6071 268.088 97.3181 268.733 96.0291C268.733 94.7401 270.022 93.4511 271.311 94.0956C272.6 94.0956 273.888 95.3846 273.244 96.6736Z" fill="white"/>
<path d="M286.133 219.127C286.133 220.416 284.844 221.705 283.555 221.06C282.267 221.06 280.978 219.771 281.622 218.482C281.622 217.193 282.911 215.904 284.2 216.549C285.489 216.549 286.778 217.838 286.133 219.127Z" fill="white"/>
<path d="M275.822 291.31C275.822 292.599 274.533 293.888 273.244 293.243C271.955 293.243 270.666 291.954 271.311 290.665C271.311 289.376 272.6 288.087 273.889 288.732C275.178 288.732 275.822 290.021 275.822 291.31Z" fill="white"/>
<path d="M184.955 235.239C184.955 236.528 183.667 237.817 182.378 237.173C181.089 237.173 179.8 235.884 180.444 234.595C180.444 233.306 181.733 232.017 183.022 232.661C184.311 232.661 184.955 233.95 184.955 235.239Z" fill="white"/>
<path d="M159.178 308.067C159.178 309.356 157.889 310.645 156.6 310C155.311 310 154.022 308.711 154.667 307.422C154.667 306.133 155.956 304.844 157.245 305.489C158.533 305.489 159.178 306.778 159.178 308.067Z" fill="white"/>
<path d="M22.5556 243.617C22.5556 244.906 21.2667 246.195 19.9778 245.551C18.6889 245.551 17.4 244.262 18.0445 242.973C18.0445 241.684 19.3333 240.395 20.6222 241.04C21.2667 241.04 22.5556 242.328 22.5556 243.617Z" fill="white"/>
<path d="M319 207.526C319 208.815 317.711 210.104 316.422 209.459C315.133 209.459 313.845 208.17 314.489 206.881C314.489 205.592 315.778 204.304 317.067 204.948C318.356 204.948 319 206.237 319 207.526Z" fill="white"/>
<path d="M304.822 81.8503C304.822 83.1393 303.533 84.4283 302.244 83.7838C300.956 83.7838 299.667 82.4948 300.311 81.2058C300.311 79.9168 301.6 78.6279 302.889 79.2723C303.533 79.2723 304.822 80.5613 304.822 81.8503Z" fill="white"/>
</g>
<defs>
<clipPath id="clip0">
<rect width="222" height="211" fill="white" transform="translate(233)"/>
</clipPath>
<clipPath id="clip1">
<rect width="319" height="310" fill="white"/>
</clipPath>
</defs>
</svg>
