<svg width="764" height="693" viewBox="0 0 764 693" fill="none" xmlns="http://www.w3.org/2000/svg">
<path d="M512.352 687.746L71.2866 618.262L237.218 330.402L512.352 687.746C512.352 686.328 512.352 687.746 512.352 687.746ZM72.7048 616.844L510.933 686.328L237.218 330.402L72.7048 616.844Z" fill="white"/>
<path d="M71.2866 618.262L85.4688 458.025L237.218 328.984C237.218 328.984 237.218 328.984 238.636 328.984C238.636 328.984 238.636 328.984 238.636 330.402L71.2866 618.262C72.7048 618.262 71.2866 618.262 71.2866 618.262ZM86.887 458.025L72.7048 614.008L234.381 331.82L86.887 458.025Z" fill="white"/>
<path d="M546.389 381.451L6.04883 221.213L512.352 4.25415L546.389 381.451ZM7.46704 221.213L544.971 380.033L510.934 7.09022L7.46704 221.213Z" fill="white"/>
<path d="M85.4694 459.443C85.4694 458.025 85.4694 458.025 85.4694 459.443L4.6311 221.213C4.6311 221.213 4.6311 221.213 4.6311 219.795C4.6311 219.795 4.6311 219.795 6.04932 219.795L237.218 328.984L85.4694 459.443C86.8876 459.443 85.4694 459.443 85.4694 459.443ZM7.46753 222.631L86.8876 458.025L235.8 330.402L7.46753 222.631Z" fill="white"/>
<path d="M757.703 432.5L546.389 381.451L510.934 5.67218C510.934 5.67218 510.934 5.67218 510.934 4.25415C510.934 4.25415 510.934 4.25415 512.352 4.25415L757.703 432.5ZM546.389 380.033L756.285 431.082L512.352 8.50825L546.389 380.033Z" fill="white"/>
<path d="M512.352 687.746C510.934 687.746 510.934 687.746 512.352 687.746L544.971 380.033L756.285 431.082L512.352 687.746ZM546.389 381.451L512.352 684.91L756.285 432.5L546.389 381.451Z" fill="white"/>
<path d="M546.389 381.451L237.218 330.402L6.04883 221.213C6.04883 221.213 6.04883 221.213 6.04883 219.795C6.04883 219.795 6.04883 219.795 7.46704 219.795L546.389 381.451C546.389 380.033 546.389 380.033 546.389 381.451ZM237.218 328.984L535.043 378.615L14.5581 224.049L237.218 328.984Z" fill="white"/>
<path d="M512.353 687.746C512.353 687.746 510.934 687.746 512.353 687.746L237.219 330.402C237.219 330.402 237.219 330.402 237.219 328.984C237.219 328.984 237.219 328.984 238.637 328.984L547.808 380.033C547.808 380.033 547.808 380.033 547.808 381.451L512.353 687.746ZM238.637 330.402L510.934 684.91L544.972 381.451L238.637 330.402Z" fill="white"/>
<path d="M139.362 558.705L483.988 612.59L313.802 418.32L139.362 558.705Z" fill="#009C96"/>
<path d="M150.707 433.918L139.362 558.705L313.802 418.32L150.707 433.918Z" fill="#00918A"/>
<path d="M386.131 259.5L483.988 79.4098L88.3062 248.156L386.131 259.5Z" fill="#70EDEC"/>
<path d="M150.708 433.918L88.3062 248.156L313.802 418.32L150.708 433.918Z" fill="#13E7E5"/>
<path d="M483.988 79.4098L675.447 414.066L386.131 259.5L483.988 79.4098Z" fill="#CAF8F7"/>
<path d="M386.131 259.5L483.988 612.59L675.447 414.066L386.131 259.5Z" fill="#00918A"/>
<path d="M313.802 418.32L386.131 259.5L88.3062 248.156L313.802 418.32Z" fill="#00DDDB"/>
<path d="M313.803 418.32L483.989 612.59L386.132 259.5L313.803 418.32Z" fill="#00BDB9"/>
<path d="M512.352 687.746L71.2866 618.262C71.2866 618.262 71.2866 618.262 71.2866 616.844L293.946 436.754C293.946 436.754 293.946 436.754 295.365 436.754L512.352 687.746C512.352 686.328 512.352 687.746 512.352 687.746ZM72.7048 616.844L509.515 686.328L293.946 438.172L72.7048 616.844Z" fill="white"/>
<path d="M71.2866 618.262L85.4688 458.025L293.946 438.172C293.946 438.172 293.946 438.172 295.365 438.172C295.365 438.172 295.365 438.172 295.365 439.59L71.2866 618.262ZM86.887 459.443L72.7048 616.844L292.528 439.59L86.887 459.443Z" fill="white"/>
<path d="M387.549 236.812L6.04883 222.631C6.04883 222.631 6.04883 222.631 6.04883 221.213L512.352 4.25415C512.352 4.25415 512.352 4.25415 513.77 4.25415C513.77 4.25415 513.77 4.25415 513.77 5.67218L387.549 236.812C388.967 235.394 388.967 236.812 387.549 236.812ZM8.88526 219.795L387.549 233.975L510.934 7.09022L8.88526 219.795Z" fill="white"/>
<path d="M85.4694 459.443C85.4694 459.443 85.4694 458.025 85.4694 459.443L4.6311 221.213C4.6311 221.213 4.6311 221.213 4.6311 219.795C4.6311 219.795 4.6311 219.795 6.04932 219.795L295.365 436.754C295.365 436.754 295.365 436.754 295.365 438.172L85.4694 459.443ZM7.46753 222.631L86.8876 456.607L293.947 436.754L7.46753 222.631Z" fill="white"/>
<path d="M757.704 432.5L387.549 235.393L510.934 5.67212L757.704 432.5ZM388.968 235.393L756.285 431.082L512.352 7.09015L388.968 235.393Z" fill="white"/>
<path d="M512.352 687.746C510.934 687.746 510.934 687.746 512.352 687.746L387.549 235.393C387.549 235.393 387.549 235.393 387.549 233.975C387.549 233.975 387.549 233.975 388.968 233.975L759.122 431.082L512.352 687.746ZM388.968 236.811L512.352 684.91L756.285 432.5L388.968 236.811Z" fill="white"/>
<path d="M295.365 438.172C293.947 438.172 293.947 438.172 295.365 438.172L6.04883 221.213C6.04883 221.213 6.04883 221.213 6.04883 219.795L387.549 233.975L295.365 438.172ZM8.88526 221.213L295.365 436.754L387.549 236.812L8.88526 221.213Z" fill="white"/>
<path d="M512.352 687.746C512.352 687.746 510.934 687.746 512.352 687.746L293.947 438.172C293.947 438.172 293.947 438.172 293.947 436.754L387.549 233.975L512.352 687.746ZM295.365 438.172L510.934 684.91L388.968 238.229L295.365 438.172Z" fill="white"/>
<path d="M518.025 684.91C519.443 687.746 516.607 690.582 513.771 692C510.934 693.418 508.098 690.582 506.679 687.746C505.261 684.91 508.098 682.074 510.934 680.656C513.771 680.656 516.607 682.074 518.025 684.91Z" fill="white"/>
<path d="M76.9605 616.844C78.3787 619.68 75.5423 622.516 72.7059 623.935C69.8694 625.353 67.033 622.517 65.6148 619.68C64.1966 616.844 67.033 614.008 69.8694 612.59C72.7059 611.172 75.5423 612.59 76.9605 616.844Z" fill="white"/>
<path d="M11.7229 216.959C13.1412 219.795 10.3047 222.631 7.4683 224.049C4.63187 225.467 1.79544 222.631 0.377226 219.795C-1.04099 216.959 1.79544 214.123 4.63187 212.705C7.4683 212.705 10.3047 214.123 11.7229 216.959Z" fill="white"/>
<path d="M763.377 431.082C764.796 433.918 761.959 436.754 759.123 438.172C756.286 439.59 753.45 436.754 752.032 433.918C750.613 431.082 753.45 428.246 756.286 426.828C759.123 426.828 761.959 428.246 763.377 431.082Z" fill="white"/>
<path d="M299.621 436.754C301.04 439.59 298.203 442.426 295.367 443.844C292.53 445.262 289.694 442.426 288.276 439.59C286.857 436.754 289.694 433.918 292.53 432.5C296.785 431.082 299.621 433.918 299.621 436.754Z" fill="white"/>
<path d="M393.223 233.975C394.641 236.811 391.805 239.648 388.968 241.066C386.132 241.066 383.295 239.648 383.295 236.811C381.877 233.975 384.714 231.139 387.55 229.721C388.968 229.721 393.223 231.139 393.223 233.975Z" fill="white"/>
<path d="M518.025 4.2541C519.443 7.09016 516.607 9.92623 513.771 11.3443C510.934 12.7623 508.098 9.92623 506.679 7.09016C505.261 4.2541 508.098 1.41803 510.934 0C513.771 0 516.607 1.41803 518.025 4.2541Z" fill="white"/>
</svg>
