<svg width="79" height="79" viewBox="0 0 79 79" fill="none" xmlns="http://www.w3.org/2000/svg">
<circle cx="39.5" cy="39.5" r="38.5" stroke="white" stroke-width="2"/>
<g clip-path="url(#clip0)">
<path d="M55.9002 53.5285C55.7014 53.5285 55.5109 53.4498 55.3699 53.3088L52.1809 50.1198C51.9057 49.8445 51.8869 49.405 52.1367 49.1065C54.6282 46.141 56.0007 42.3745 56.0007 38.5C56.0007 34.6255 54.6282 30.859 52.1367 27.8935C51.8862 27.5958 51.9057 27.1555 52.1809 26.8803L55.3699 23.6913C55.5169 23.5443 55.7149 23.4625 55.9257 23.4723C56.1334 23.4798 56.3292 23.5728 56.4657 23.7295C60.0349 27.8253 62.0007 33.0715 62.0007 38.5C62.0007 43.9285 60.0349 49.1748 56.4657 53.2705C56.3292 53.4273 56.1334 53.5203 55.9257 53.5278C55.9174 53.5285 55.9084 53.5285 55.9002 53.5285ZM53.7184 49.5355L55.8514 51.6693C58.8552 47.9433 60.5007 43.2978 60.5007 38.5C60.5007 33.7023 58.8552 29.0568 55.8514 25.3308L53.7184 27.4645C56.1619 30.6115 57.5007 34.5033 57.5007 38.5C57.5007 42.4968 56.1619 46.3885 53.7184 49.5355Z" fill="white"/>
<path d="M23.1005 53.5284C23.0923 53.5284 23.0833 53.5284 23.075 53.5284C22.8673 53.5209 22.6715 53.4279 22.535 53.2712C18.9658 49.1747 17 43.9284 17 38.4999C17 33.0707 18.9658 27.8252 22.535 23.7287C22.6715 23.5727 22.8673 23.4789 23.075 23.4722C23.2858 23.4639 23.4838 23.5449 23.6308 23.6912L26.8198 26.8802C27.095 27.1554 27.1138 27.5949 26.864 27.8934C24.3725 30.8589 23 34.6254 23 38.4999C23 42.3744 24.3725 46.1409 26.864 49.1064C27.1145 49.4042 27.095 49.8444 26.8198 50.1197L23.6308 53.3087C23.4905 53.4497 23.2993 53.5284 23.1005 53.5284ZM23.1493 25.3307C20.1455 29.0567 18.5 33.7014 18.5 38.4999C18.5 43.2977 20.1455 47.9432 23.1493 51.6692L25.2823 49.5354C22.8388 46.3884 21.5 42.4967 21.5 38.4999C21.5 34.5032 22.8388 30.6114 25.2823 27.4644L23.1493 25.3307Z" fill="white"/>
<path d="M50.5896 26.0403C50.4186 26.0403 50.2476 25.9818 50.1074 25.8648C47.1419 23.3725 43.3754 22 39.5009 22C35.6264 22 31.8599 23.3725 28.8944 25.864C28.5966 26.1145 28.1564 26.095 27.8819 25.8198L24.6929 22.6308C24.5451 22.4845 24.4656 22.2828 24.4731 22.075C24.4806 21.8673 24.5736 21.6715 24.7304 21.535C28.8261 17.9658 34.0716 16 39.5009 16C44.9301 16 50.1756 17.9658 54.2721 21.535C54.4289 21.6715 54.5219 21.8673 54.5294 22.075C54.5369 22.2828 54.4574 22.4838 54.3104 22.6308L51.1214 25.8198C50.9744 25.966 50.7824 26.0403 50.5896 26.0403ZM39.5009 20.5C43.4976 20.5 47.3894 21.8388 50.5364 24.283L52.6694 22.1493C48.9441 19.1455 44.2994 17.5 39.5009 17.5C34.7024 17.5 30.0576 19.1455 26.3316 22.1493L28.4646 24.283C31.6124 21.8388 35.5041 20.5 39.5009 20.5Z" fill="white"/>
<path d="M39.4997 61C34.0704 61 28.8249 59.0343 24.7284 55.465C24.5717 55.3285 24.4787 55.1328 24.4712 54.925C24.4637 54.7173 24.5432 54.5163 24.6902 54.3693L27.8792 51.1803C28.1544 50.9058 28.5939 50.8863 28.8917 51.136C31.8587 53.6275 35.6252 55 39.4997 55C43.3742 55 47.1407 53.6275 50.1062 51.136C50.4039 50.8863 50.8442 50.905 51.1187 51.1803L54.3077 54.3693C54.4547 54.5163 54.5342 54.7173 54.5267 54.925C54.5192 55.1328 54.4262 55.3285 54.2694 55.465C50.1744 59.0343 44.9289 61 39.4997 61ZM26.3304 54.8508C30.0564 57.8545 34.7012 59.5 39.4997 59.5C44.2982 59.5 48.9429 57.8545 52.6689 54.8508L50.5359 52.717C47.3882 55.1613 43.4964 56.5 39.4997 56.5C35.5029 56.5 31.6112 55.1613 28.4642 52.717L26.3304 54.8508Z" fill="white"/>
<path d="M39.5 52C36.887 52 34.5328 50.7722 32.5033 48.3505C30.2623 45.6767 29.0278 42.13 29.0278 38.3642L29 31.003C28.9993 30.8035 29.078 30.6122 29.219 30.4712C29.3593 30.3295 29.5505 30.25 29.75 30.25C36.161 30.25 38.7575 26.2705 38.8648 26.101C39.0028 25.8835 39.242 25.7515 39.4993 25.7515H39.5023C39.7595 25.7522 39.9988 25.8842 40.136 26.1017C40.25 26.2825 42.8488 30.25 49.25 30.25C49.4495 30.25 49.6408 30.3295 49.781 30.4705C49.922 30.6115 50 30.8027 50 31.0022L49.9723 38.3657C49.9723 42.1292 48.7378 45.6752 46.4968 48.3497C44.4673 50.7722 42.113 52 39.5 52ZM30.503 31.7335L30.5278 38.3612C30.5278 41.7782 31.6378 44.983 33.6523 47.3867C35.384 49.453 37.3513 50.5 39.5 50.5C41.6488 50.5 43.616 49.453 45.3478 47.3867C47.363 44.9822 48.4723 41.7782 48.4723 38.3642L48.497 31.7335C43.4885 31.5055 40.6655 29.0447 39.5 27.721C38.3345 29.0447 35.5115 31.5055 30.503 31.7335Z" fill="white"/>
<path d="M38.7507 44.5C38.5227 44.5 38.2977 44.3965 38.15 44.2L35.9 41.2C35.6517 40.8685 35.7185 40.3982 36.05 40.15C36.3815 39.901 36.8517 39.9685 37.1 40.3L39.35 43.3C39.5982 43.6315 39.5315 44.1017 39.2 44.35C39.065 44.4512 38.9067 44.5 38.7507 44.5Z" fill="white"/>
<path d="M38.7494 44.5C38.6114 44.5 38.4726 44.4625 38.3474 44.383C37.9979 44.161 37.8951 43.6967 38.1171 43.3472L43.3671 35.0972C43.5891 34.7485 44.0526 34.6442 44.4029 34.867C44.7524 35.089 44.8551 35.5532 44.6331 35.9027L39.3831 44.1527C39.2399 44.377 38.9976 44.5 38.7494 44.5Z" fill="white"/>
</g>
<defs>
<clipPath id="clip0">
<rect width="45" height="45" fill="white" transform="translate(17 16)"/>
</clipPath>
</defs>
</svg>
