<svg width="79" height="79" viewBox="0 0 79 79" fill="none" xmlns="http://www.w3.org/2000/svg">
<circle cx="39.5" cy="39.5" r="38.5" stroke="white" stroke-width="2"/>
<path d="M32.6094 26.4843H46.3906C46.4912 26.4843 46.5907 26.5041 46.6836 26.5426C46.7765 26.5811 46.8609 26.6375 46.932 26.7086L55.3539 35.1304C55.425 35.2015 55.4814 35.2859 55.5199 35.3788C55.5583 35.4717 55.5781 35.5713 55.5781 35.6718V37.9687H54.0469V35.9889L50.6016 32.5436L49.2289 33.9163L48.1461 32.8336L49.5189 31.4609L47.9219 29.8639L45.625 32.1608V33.3749H44.0938V31.8437C44.0937 31.7431 44.1135 31.6436 44.152 31.5507C44.1905 31.4578 44.2469 31.3734 44.318 31.3023L46.8392 28.7812L46.0736 28.0156H44.4108L41.7969 30.6295V32.0509C42.0888 32.2194 42.3169 32.4796 42.4459 32.791C42.5749 33.1024 42.5976 33.4477 42.5103 33.7733C42.4231 34.0989 42.2308 34.3866 41.9634 34.5918C41.696 34.797 41.3683 34.9082 41.0312 34.9082C40.6942 34.9082 40.3665 34.797 40.0991 34.5918C39.8317 34.3866 39.6394 34.0989 39.5522 33.7733C39.4649 33.4477 39.4876 33.1024 39.6166 32.791C39.7456 32.4796 39.9737 32.2194 40.2656 32.0509V31.0781H37.9688V29.5468H40.7141L42.2453 28.0156H36.4375V29.5468H34.9062V28.0156H32.9054L31.7133 29.0992L33.1508 30.5367L32.068 31.6195L30.579 30.1306L29.756 30.8791L28.7259 29.7462L32.0947 26.6837C32.2355 26.5555 32.419 26.4845 32.6094 26.4843ZM16.5312 22.6562C16.5315 22.1145 16.7231 21.5904 17.0723 21.1763C17.4215 20.7623 17.9058 20.4849 18.4397 20.3933C18.9735 20.3017 19.5226 20.4017 19.9899 20.6757C20.4571 20.9497 20.8125 21.38 20.9933 21.8906H22.6562C22.839 21.8906 23.0158 21.9559 23.1546 22.0749L28.2988 26.4843H29.5469V28.0156H28.0156C27.8328 28.0156 27.6561 27.9502 27.5173 27.8312L22.3731 23.4218H20.9933C20.8125 23.9324 20.4571 24.3627 19.9899 24.6367C19.5226 24.9106 18.9735 25.0107 18.4397 24.9191C17.9058 24.8275 17.4215 24.5501 17.0723 24.1361C16.7231 23.722 16.5315 23.1979 16.5312 22.6562ZM18.0625 22.6562C18.0625 22.8076 18.1074 22.9556 18.1915 23.0816C18.2757 23.2075 18.3952 23.3056 18.5351 23.3635C18.675 23.4215 18.829 23.4366 18.9775 23.4071C19.126 23.3776 19.2624 23.3046 19.3695 23.1976C19.4766 23.0905 19.5495 22.9541 19.579 22.8056C19.6086 22.657 19.5934 22.5031 19.5355 22.3632C19.4775 22.2233 19.3794 22.1037 19.2535 22.0196C19.1276 21.9355 18.9796 21.8906 18.8281 21.8906C18.6251 21.8908 18.4305 21.9715 18.287 22.1151C18.1435 22.2586 18.0627 22.4532 18.0625 22.6562ZM16.5312 44.0937C16.5315 43.552 16.7231 43.0279 17.0723 42.6138C17.4215 42.1998 17.9058 41.9224 18.4397 41.8308C18.9735 41.7392 19.5226 41.8392 19.9899 42.1132C20.4571 42.3872 20.8125 42.8175 20.9933 43.3281H21.8906V44.8593H20.9933C20.8125 45.3699 20.4571 45.8002 19.9899 46.0742C19.5226 46.3481 18.9735 46.4482 18.4397 46.3566C17.9058 46.265 17.4215 45.9876 17.0723 45.5736C16.7231 45.1595 16.5315 44.6354 16.5312 44.0937ZM18.0625 44.0937C18.0625 44.2451 18.1074 44.3931 18.1915 44.519C18.2757 44.645 18.3952 44.7431 18.5351 44.801C18.675 44.859 18.829 44.8741 18.9775 44.8446C19.126 44.8151 19.2624 44.7421 19.3695 44.6351C19.4766 44.528 19.5495 44.3916 19.579 44.2431C19.6086 44.0945 19.5934 43.9406 19.5355 43.8007C19.4775 43.6608 19.3794 43.5412 19.2535 43.4571C19.1276 43.373 18.9796 43.3281 18.8281 43.3281C18.6251 43.3283 18.4305 43.409 18.287 43.5526C18.1435 43.6961 18.0627 43.8907 18.0625 44.0937ZM16.5312 35.6718C16.5315 35.1302 16.7231 34.606 17.0723 34.1919C17.4215 33.7779 17.9058 33.5006 18.4397 33.4089C18.9735 33.3173 19.5226 33.4174 19.9899 33.6913C20.4571 33.9653 20.8125 34.3956 20.9933 34.9062H21.8906V36.4374H20.9933C20.8125 36.948 20.4571 37.3783 19.9899 37.6523C19.5226 37.9263 18.9735 38.0263 18.4397 37.9347C17.9058 37.8431 17.4215 37.5658 17.0723 37.1517C16.7231 36.7376 16.5315 36.2135 16.5312 35.6718ZM18.0625 35.6718C18.0625 35.8232 18.1074 35.9713 18.1915 36.0972C18.2757 36.2231 18.3952 36.3212 18.5351 36.3792C18.675 36.4371 18.829 36.4523 18.9775 36.4227C19.126 36.3932 19.2624 36.3203 19.3695 36.2132C19.4766 36.1061 19.5495 35.9697 19.579 35.8212C19.6086 35.6727 19.5934 35.5187 19.5355 35.3788C19.4775 35.2389 19.3794 35.1194 19.2535 35.0352C19.1276 34.9511 18.9796 34.9062 18.8281 34.9062C18.6251 34.9064 18.4305 34.9872 18.287 35.1307C18.1435 35.2742 18.0627 35.4688 18.0625 35.6718ZM16.5312 56.3437C16.5315 55.802 16.7231 55.2779 17.0723 54.8638C17.4215 54.4498 17.9058 54.1724 18.4397 54.0808C18.9735 53.9892 19.5226 54.0892 19.9899 54.3632C20.4571 54.6372 20.8125 55.0675 20.9933 55.5781H23.1047L29.7711 48.9117L30.8539 49.9945L23.9633 56.8851C23.8922 56.9562 23.8078 57.0126 23.7149 57.051C23.622 57.0895 23.5224 57.1093 23.4219 57.1093H20.9933C20.8125 57.6199 20.4571 58.0502 19.9899 58.3242C19.5226 58.5981 18.9735 58.6982 18.4397 58.6066C17.9058 58.515 17.4215 58.2376 17.0723 57.8236C16.7231 57.4095 16.5315 56.8854 16.5312 56.3437ZM18.0625 56.3437C18.0625 56.4951 18.1074 56.6431 18.1915 56.7691C18.2757 56.895 18.3952 56.9931 18.5351 57.051C18.675 57.109 18.829 57.1241 18.9775 57.0946C19.126 57.0651 19.2624 56.9921 19.3695 56.8851C19.4766 56.778 19.5495 56.6416 19.579 56.4931C19.6086 56.3445 19.5934 56.1906 19.5355 56.0507C19.4775 55.9108 19.3794 55.7912 19.2535 55.7071C19.1276 55.623 18.9796 55.5781 18.8281 55.5781C18.6251 55.5783 18.4305 55.659 18.287 55.8026C18.1435 55.9461 18.0627 56.1407 18.0625 56.3437ZM16.5312 50.2187C16.5315 49.677 16.7231 49.1529 17.0723 48.7388C17.4215 48.3248 17.9058 48.0474 18.4397 47.9558C18.9735 47.8642 19.5226 47.9642 19.9899 48.2382C20.4571 48.5122 20.8125 48.9425 20.9933 49.4531H22.3392L24.4117 47.3804L25.4945 48.4632L23.1976 50.7601C23.1265 50.8312 23.0421 50.8876 22.9492 50.926C22.8564 50.9645 22.7568 50.9843 22.6562 50.9843H20.9933C20.8125 51.4949 20.4571 51.9252 19.9899 52.1992C19.5226 52.4731 18.9735 52.5732 18.4397 52.4816C17.9058 52.39 17.4215 52.1126 17.0723 51.6986C16.7231 51.2845 16.5315 50.7604 16.5312 50.2187ZM18.0625 50.2187C18.0625 50.3701 18.1074 50.5181 18.1915 50.6441C18.2757 50.77 18.3952 50.8681 18.5351 50.926C18.675 50.984 18.829 50.9991 18.9775 50.9696C19.126 50.9401 19.2624 50.8671 19.3695 50.7601C19.4766 50.653 19.5495 50.5166 19.579 50.3681C19.6086 50.2195 19.5934 50.0656 19.5355 49.9257C19.4775 49.7858 19.3794 49.6662 19.2535 49.5821C19.1276 49.498 18.9796 49.4531 18.8281 49.4531C18.6251 49.4533 18.4305 49.534 18.287 49.6776C18.1435 49.8211 18.0627 50.0157 18.0625 50.2187ZM24.5703 28.7812C24.6709 28.7812 24.7704 28.801 24.8633 28.8395C24.9562 28.8779 25.0406 28.9343 25.1117 29.0054L26.2601 30.1539L25.1774 31.2366L24.2532 30.3124H23.2902C23.1096 30.8233 22.7542 31.2538 22.2869 31.528C21.8195 31.8021 21.2703 31.9022 20.7363 31.8106C20.2022 31.719 19.7178 31.4415 19.3686 31.0273C19.0193 30.613 18.8278 30.0886 18.8278 29.5468C18.8278 29.005 19.0193 28.4806 19.3686 28.0664C19.7178 27.6521 20.2022 27.3746 20.7363 27.283C21.2703 27.1914 21.8195 27.2915 22.2869 27.5657C22.7542 27.8398 23.1096 28.2704 23.2902 28.7812H24.5703ZM21.8906 29.5468C21.8906 29.3954 21.8457 29.2474 21.7616 29.1215C21.6775 28.9956 21.5579 28.8974 21.418 28.8395C21.2781 28.7815 21.1242 28.7664 20.9756 28.7959C20.8271 28.8254 20.6907 28.8984 20.5836 29.0054C20.4765 29.1125 20.4036 29.2489 20.3741 29.3975C20.3445 29.546 20.3597 29.6999 20.4177 29.8398C20.4756 29.9797 20.5737 30.0993 20.6996 30.1834C20.8255 30.2675 20.9736 30.3124 21.125 30.3124C21.328 30.3122 21.5226 30.2315 21.6661 30.0879C21.8097 29.9444 21.8904 29.7498 21.8906 29.5468ZM19.5938 40.2656H21.8906V38.7343H19.5938V40.2656ZM62.4688 39.4999C62.4685 40.0416 62.2769 40.5658 61.9277 40.9798C61.5785 41.3939 61.0942 41.6712 60.5603 41.7628C60.0265 41.8544 59.4774 41.7544 59.0101 41.4804C58.5429 41.2065 58.1875 40.7762 58.0067 40.2656H57.1094V38.7343H58.0067C58.1875 38.2237 58.5429 37.7934 59.0101 37.5195C59.4774 37.2455 60.0265 37.1455 60.5603 37.2371C61.0942 37.3287 61.5785 37.606 61.9277 38.0201C62.2769 38.4341 62.4685 38.9583 62.4688 39.4999ZM60.9375 39.4999C60.9375 39.3485 60.8926 39.2005 60.8085 39.0746C60.7243 38.9487 60.6048 38.8505 60.4649 38.7926C60.325 38.7346 60.171 38.7195 60.0225 38.749C59.874 38.7786 59.7376 38.8515 59.6305 38.9586C59.5234 39.0656 59.4505 39.2021 59.421 39.3506C59.3914 39.4991 59.4066 39.653 59.4645 39.7929C59.5225 39.9328 59.6206 40.0524 59.7465 40.1365C59.8724 40.2207 60.0205 40.2656 60.1719 40.2656C60.3749 40.2653 60.5695 40.1846 60.713 40.0411C60.8565 39.8975 60.9373 39.7029 60.9375 39.4999ZM62.4688 22.6562C62.4685 23.1979 62.2769 23.722 61.9277 24.1361C61.5785 24.5501 61.0942 24.8275 60.5603 24.9191C60.0265 25.0107 59.4774 24.9106 59.0101 24.6367C58.5429 24.3627 58.1875 23.9324 58.0067 23.4218H55.1296L50.7601 27.7913L49.6774 26.7086L54.2711 22.1148C54.3422 22.0437 54.4266 21.9873 54.5195 21.9488C54.6124 21.9104 54.712 21.8906 54.8125 21.8906H58.0067C58.1875 21.38 58.5429 20.9497 59.0101 20.6757C59.4774 20.4017 60.0265 20.3017 60.5603 20.3933C61.0942 20.4849 61.5785 20.7623 61.9277 21.1763C62.2769 21.5904 62.4685 22.1145 62.4688 22.6562ZM60.9375 22.6562C60.9375 22.5048 60.8926 22.3567 60.8085 22.2308C60.7243 22.1049 60.6048 22.0068 60.4649 21.9488C60.325 21.8909 60.171 21.8757 60.0225 21.9053C59.874 21.9348 59.7376 22.0077 59.6305 22.1148C59.5234 22.2219 59.4505 22.3583 59.421 22.5068C59.3914 22.6553 59.4066 22.8093 59.4645 22.9492C59.5225 23.0891 59.6206 23.2087 59.7465 23.2928C59.8724 23.3769 60.0205 23.4218 60.1719 23.4218C60.3749 23.4216 60.5695 23.3409 60.713 23.1973C60.8565 23.0538 60.9373 22.8592 60.9375 22.6562ZM62.4688 28.7812C62.4685 29.3229 62.2769 29.847 61.9277 30.2611C61.5785 30.6751 61.0942 30.9525 60.5603 31.0441C60.0265 31.1357 59.4774 31.0356 59.0101 30.7617C58.5429 30.4877 58.1875 30.0574 58.0067 29.5468H55.8952L53.8226 31.6195L52.7399 30.5367L55.0367 28.2398C55.1078 28.1687 55.1922 28.1123 55.2851 28.0738C55.378 28.0354 55.4776 28.0156 55.5781 28.0156H58.0067C58.1875 27.505 58.5429 27.0747 59.0101 26.8007C59.4774 26.5267 60.0265 26.4267 60.5603 26.5183C61.0942 26.6099 61.5785 26.8873 61.9277 27.3013C62.2769 27.7154 62.4685 28.2395 62.4688 28.7812ZM60.9375 28.7812C60.9375 28.6298 60.8926 28.4817 60.8085 28.3558C60.7243 28.2299 60.6048 28.1318 60.4649 28.0738C60.325 28.0159 60.171 28.0007 60.0225 28.0303C59.874 28.0598 59.7376 28.1327 59.6305 28.2398C59.5234 28.3469 59.4505 28.4833 59.421 28.6318C59.3914 28.7803 59.4066 28.9343 59.4645 29.0742C59.5225 29.2141 59.6206 29.3337 59.7465 29.4178C59.8724 29.5019 60.0205 29.5468 60.1719 29.5468C60.3749 29.5466 60.5695 29.4659 60.713 29.3223C60.8565 29.1788 60.9373 28.9842 60.9375 28.7812ZM62.4688 45.6249C62.4685 46.1666 62.2769 46.6908 61.9277 47.1048C61.5785 47.5189 61.0942 47.7962 60.5603 47.8878C60.0265 47.9794 59.4774 47.8794 59.0101 47.6054C58.5429 47.3315 58.1875 46.9012 58.0067 46.3906H56.3438C56.2432 46.3906 56.1436 46.3708 56.0508 46.3323C55.9579 46.2938 55.8735 46.2374 55.8024 46.1663L55.5781 45.942V50.2187C55.5782 50.3335 55.5524 50.4468 55.5027 50.5503C55.453 50.6538 55.3806 50.7448 55.291 50.8166L53.4066 52.3242L56.6605 55.5781H58.0063C58.1869 55.0672 58.5423 54.6367 59.0096 54.3625C59.477 54.0884 60.0262 53.9883 60.5602 54.0799C61.0942 54.1715 61.5787 54.449 61.9279 54.8632C62.2771 55.2775 62.4687 55.8019 62.4687 56.3437C62.4687 56.8855 62.2771 57.4099 61.9279 57.8242C61.5787 58.2384 61.0942 58.5159 60.5602 58.6075C60.0262 58.6991 59.477 58.599 59.0096 58.3248C58.5423 58.0507 58.1869 57.6202 58.0063 57.1093H56.3438C56.2432 57.1093 56.1436 57.0895 56.0508 57.051C55.9579 57.0126 55.8735 56.9562 55.8024 56.8851L52.2039 53.2866L51.4629 53.8791C51.3271 53.9877 51.1583 54.0469 50.9844 54.0468H43.3281C43.1251 54.0468 42.9303 53.9662 42.7867 53.8226C42.6432 53.679 42.5625 53.4842 42.5625 53.2812V47.9218H27.25C27.1495 47.9218 27.0499 47.902 26.957 47.8635C26.8641 47.8251 26.7797 47.7687 26.7086 47.6976L23.6461 44.6351C23.575 44.564 23.5186 44.4796 23.4801 44.3867C23.4417 44.2938 23.4219 44.1942 23.4219 44.0937V34.9062C23.4219 34.7995 23.4442 34.694 23.4874 34.5965C23.5305 34.4989 23.5936 34.4115 23.6725 34.3397L27.5006 30.8596L28.5306 31.9926L27.7029 32.7451L29.0983 34.1406H30.5197C30.6882 33.8486 30.9484 33.6205 31.2598 33.4915C31.5712 33.3625 31.9165 33.3399 32.2421 33.4271C32.5677 33.5144 32.8554 33.7066 33.0606 33.974C33.2658 34.2414 33.377 34.5691 33.377 34.9062C33.377 35.2433 33.2658 35.5709 33.0606 35.8384C32.8554 36.1058 32.5677 36.298 32.2421 36.3853C31.9165 36.4725 31.5712 36.4499 31.2598 36.3209C30.9484 36.1919 30.6882 35.9637 30.5197 35.6718H28.7812C28.6807 35.6718 28.5811 35.652 28.4883 35.6135C28.3954 35.5751 28.311 35.5187 28.2399 35.4476L26.5686 33.7762L24.9531 35.2449V40.2656L26.7906 38.8874C26.9232 38.788 27.0843 38.7343 27.25 38.7343H28.9884C29.157 38.4424 29.4171 38.2142 29.7286 38.0853C30.04 37.9563 30.3853 37.9336 30.7109 38.0209C31.0365 38.1081 31.3242 38.3004 31.5294 38.5678C31.7346 38.8352 31.8458 39.1629 31.8458 39.4999C31.8458 39.837 31.7346 40.1647 31.5294 40.4321C31.3242 40.6995 31.0365 40.8918 30.7109 40.979C30.3853 41.0663 30.04 41.0436 29.7286 40.9146C29.4171 40.7856 29.157 40.5575 28.9884 40.2656H27.505L24.9531 42.1796V43.7765L27.5672 46.3906H32.5849L32.6033 44.0937H30.1054C29.9369 44.3856 29.6767 44.6138 29.3653 44.7428C29.0539 44.8718 28.7086 44.8944 28.383 44.8071C28.0574 44.7199 27.7697 44.5277 27.5645 44.2602C27.3593 43.9928 27.248 43.6651 27.248 43.3281C27.248 42.991 27.3593 42.6633 27.5645 42.3959C27.7697 42.1285 28.0574 41.9362 28.383 41.849C28.7086 41.7618 29.0539 41.7844 29.3653 41.9134C29.6767 42.0424 29.9369 42.2705 30.1054 42.5624H33.0071L35.8399 39.0214C35.9117 38.9318 36.0026 38.8595 36.106 38.8098C36.2095 38.7601 36.3227 38.7343 36.4375 38.7343H37.2031V36.7545L36.0668 35.6183C35.7396 35.707 35.3922 35.685 35.0787 35.5559C34.7652 35.4268 34.5032 35.1978 34.3333 34.9044C34.1633 34.611 34.0951 34.2697 34.1391 33.9335C34.1831 33.5974 34.337 33.2851 34.5767 33.0454C34.8165 32.8057 35.1287 32.6518 35.4648 32.6078C35.801 32.5638 36.1423 32.632 36.4357 32.802C36.7291 32.9719 36.9581 33.2339 37.0872 33.5474C37.2163 33.8609 37.2383 34.2083 37.1496 34.5355L38.5101 35.896C38.5812 35.9671 38.6376 36.0516 38.6761 36.1444C38.7146 36.2373 38.7344 36.3369 38.7344 36.4374V38.7343H42.0893L42.6302 37.6529C42.53 37.3314 42.5379 36.986 42.6527 36.6695C42.7675 36.3531 42.9829 36.0829 43.2659 35.9005C43.5488 35.718 43.8838 35.6334 44.2194 35.6594C44.5551 35.6855 44.873 35.8208 45.1244 36.0447C45.3758 36.2686 45.5469 36.5688 45.6115 36.8992C45.6761 37.2296 45.6306 37.5721 45.4821 37.8742C45.3335 38.1764 45.09 38.4214 44.7888 38.572C44.4877 38.7225 44.1455 38.7703 43.8147 38.7078L43.4589 39.4194L44.6769 41.0433C45.0116 41.0031 45.3502 41.0744 45.6402 41.2462C45.9302 41.418 46.1555 41.6808 46.2809 41.9936C46.4064 42.3065 46.4251 42.6521 46.3342 42.9767C46.2433 43.3013 46.0478 43.5868 45.778 43.789C45.5083 43.9911 45.1794 44.0986 44.8423 44.0948C44.5052 44.091 44.1788 43.976 43.9137 43.7677C43.6487 43.5595 43.4597 43.2696 43.3762 42.943C43.2927 42.6164 43.3193 42.2714 43.4519 41.9614L42.1797 40.2656H36.8055L34.1385 43.5993L34.1161 46.3906H36.7696L38.1618 44.0703C37.9991 43.7766 37.9375 43.4375 37.9865 43.1053C38.0355 42.7731 38.1925 42.4662 38.4331 42.232C38.6737 41.9978 38.9847 41.8492 39.3181 41.8091C39.6515 41.769 39.9888 41.8397 40.278 42.0103C40.5673 42.1808 40.7925 42.4417 40.9188 42.7529C41.0452 43.064 41.0657 43.408 40.9772 43.732C40.8888 44.0559 40.6962 44.3417 40.4293 44.5455C40.1623 44.7492 39.8358 44.8595 39.5 44.8593C39.4915 44.8593 39.4833 44.8582 39.4749 44.8581L38.5554 46.3906H50.2188V45.1764L49.8481 44.8058C49.5208 44.8945 49.1735 44.8725 48.86 44.7434C48.5465 44.6143 48.2844 44.3853 48.1145 44.0919C47.9446 43.7985 47.8763 43.4572 47.9204 43.121C47.9644 42.7849 48.1182 42.4726 48.358 42.2329C48.5977 41.9932 48.9099 41.8393 49.2461 41.7953C49.5822 41.7513 49.9235 41.8195 50.2169 41.9895C50.5103 42.1594 50.7394 42.4214 50.8685 42.7349C50.9976 43.0484 51.0195 43.3958 50.9309 43.723L51.5258 44.3179C51.5969 44.389 51.6533 44.4734 51.6917 44.5663C51.7302 44.6592 51.75 44.7588 51.75 44.8593V46.3906H54.0469V41.3483L51.4329 38.7343H50.7772C50.6086 39.0262 50.3485 39.2544 50.0371 39.3834C49.7256 39.5124 49.3804 39.535 49.0548 39.4478C48.7292 39.3605 48.4415 39.1683 48.2363 38.9009C48.0311 38.6334 47.9198 38.3058 47.9198 37.9687C47.9198 37.6316 48.0311 37.3039 48.2363 37.0365C48.4415 36.7691 48.7292 36.5769 49.0548 36.4896C49.3804 36.4024 49.7256 36.425 50.0371 36.554C50.3485 36.683 50.6086 36.9111 50.7772 37.2031H51.75C51.8505 37.2031 51.9501 37.2229 52.043 37.2613C52.1359 37.2998 52.2203 37.3562 52.2914 37.4273L55.3539 40.4898C55.425 40.5609 55.4814 40.6453 55.5199 40.7382C55.5583 40.8311 55.5781 40.9306 55.5781 41.0312V43.7766L56.6608 44.8593H58.0067C58.1875 44.3487 58.5429 43.9184 59.0101 43.6445C59.4774 43.3705 60.0265 43.2705 60.5603 43.3621C61.0942 43.4537 61.5785 43.731 61.9277 44.1451C62.2769 44.5591 62.4685 45.0833 62.4688 45.6249ZM59.4062 56.3437C59.4062 56.4951 59.4512 56.6431 59.5353 56.7691C59.6194 56.895 59.739 56.9931 59.8789 57.051C60.0188 57.109 60.1727 57.1241 60.3212 57.0946C60.4698 57.0651 60.6062 56.9921 60.7133 56.8851C60.8203 56.778 60.8932 56.6416 60.9228 56.4931C60.9523 56.3445 60.9372 56.1906 60.8792 56.0507C60.8213 55.9108 60.7231 55.7912 60.5972 55.7071C60.4713 55.623 60.3233 55.5781 60.1719 55.5781C59.9689 55.5783 59.7743 55.659 59.6307 55.8026C59.4872 55.9461 59.4065 56.1407 59.4062 56.3437ZM54.0469 47.9218H44.0938V52.5156H50.7158L52.6299 50.9843H45.625V49.4531H54.0469V47.9218ZM60.9375 45.6249C60.9375 45.4735 60.8926 45.3255 60.8085 45.1996C60.7243 45.0737 60.6048 44.9755 60.4649 44.9176C60.325 44.8597 60.171 44.8445 60.0225 44.874C59.874 44.9036 59.7376 44.9765 59.6305 45.0836C59.5234 45.1906 59.4505 45.3271 59.421 45.4756C59.3914 45.6241 59.4066 45.778 59.4645 45.9179C59.5225 46.0578 59.6206 46.1774 59.7465 46.2615C59.8724 46.3457 60.0205 46.3906 60.1719 46.3906C60.3749 46.3903 60.5695 46.3096 60.713 46.1661C60.8565 46.0225 60.9373 45.8279 60.9375 45.6249ZM60.1719 33.3749H57.1094V34.9062H60.1719V33.3749ZM60.9375 51.7499H62.4688V50.2187H60.9375V51.7499ZM57.1094 51.7499H59.4062V50.2187H57.1094V51.7499ZM41.0312 50.9843H35.989L32.0866 54.8866C32.4296 55.3041 32.6147 55.8289 32.6094 56.3692C32.6041 56.9095 32.4087 57.4306 32.0576 57.8412C31.7064 58.2518 31.2219 58.5257 30.689 58.6148C30.1562 58.7039 29.6089 58.6026 29.1433 58.3285C28.6777 58.0545 28.3234 57.6253 28.1426 57.1161C27.9618 56.607 27.966 56.0505 28.1545 55.5442C28.343 55.0378 28.7038 54.614 29.1735 54.3471C29.6433 54.0802 30.192 53.9871 30.7234 54.0843L35.1305 49.6773C35.2016 49.6062 35.286 49.5498 35.3789 49.5113C35.4718 49.4729 35.5713 49.4531 35.6719 49.4531H41.0312V50.9843ZM31.0781 56.3437C31.0781 56.1923 31.0332 56.0442 30.9491 55.9183C30.865 55.7924 30.7454 55.6943 30.6055 55.6363C30.4656 55.5784 30.3117 55.5632 30.1631 55.5928C30.0146 55.6223 29.8782 55.6952 29.7711 55.8023C29.664 55.9094 29.5911 56.0458 29.5616 56.1943C29.532 56.3428 29.5472 56.4968 29.6052 56.6367C29.6631 56.7766 29.7612 56.8962 29.8871 56.9803C30.013 57.0644 30.1611 57.1093 30.3125 57.1093C30.5155 57.1091 30.7101 57.0284 30.8536 56.8848C30.9972 56.7413 31.0779 56.5467 31.0781 56.3437ZM35.1305 55.0367L36.2133 56.1195L38.2858 54.0468H41.0312V52.5156H37.9688C37.8682 52.5156 37.7686 52.5354 37.6758 52.5738C37.5829 52.6123 37.4985 52.6687 37.4274 52.7398L35.1305 55.0367ZM34.3649 25.4945L35.4476 24.4117L32.3851 21.3492C32.314 21.2781 32.2296 21.2217 32.1367 21.1832C32.0439 21.1447 31.9443 21.1249 31.8438 21.1249H27.25V22.6562H31.5267L34.3649 25.4945ZM41.4565 24.8245C41.3306 24.9085 41.1826 24.9532 41.0312 24.9531H37.9688V23.4218H40.7995L42.9034 22.0192C43.0292 21.9353 43.1769 21.8905 43.3281 21.8906H45.7567C45.9373 21.3797 46.2927 20.9492 46.76 20.675C47.2274 20.4009 47.7766 20.3008 48.3106 20.3924C48.8446 20.484 49.3291 20.7615 49.6783 21.1757C50.0275 21.59 50.2191 22.1144 50.2191 22.6562C50.2191 23.198 50.0275 23.7224 49.6783 24.1367C49.3291 24.5509 48.8446 24.8284 48.3106 24.92C47.7766 25.0116 47.2274 24.9115 46.76 24.6373C46.2927 24.3632 45.9373 23.9327 45.7567 23.4218H43.5599L41.4565 24.8245ZM47.1562 22.6562C47.1562 22.8076 47.2012 22.9556 47.2853 23.0816C47.3694 23.2075 47.489 23.3056 47.6289 23.3635C47.7688 23.4215 47.9227 23.4366 48.0712 23.4071C48.2198 23.3776 48.3562 23.3046 48.4633 23.1976C48.5703 23.0905 48.6432 22.9541 48.6728 22.8056C48.7023 22.657 48.6872 22.5031 48.6292 22.3632C48.5713 22.2233 48.4731 22.1037 48.3472 22.0196C48.2213 21.9355 48.0733 21.8906 47.9219 21.8906C47.7189 21.8908 47.5243 21.9715 47.3807 22.1151C47.2372 22.2586 47.1565 22.4532 47.1562 22.6562ZM31.6195 25.1773L30.0883 23.6461L29.0055 24.7288L30.5367 26.2601L31.6195 25.1773Z" fill="white"/>
</svg>
