<svg width="79" height="79" viewBox="0 0 79 79" fill="none" xmlns="http://www.w3.org/2000/svg">
<circle cx="39.5" cy="39.5" r="38.5" stroke="white" stroke-width="2"/>
<path d="M16.5938 47.4687C16.5933 48.1885 16.7879 48.895 17.157 49.5131C17.5262 50.1311 18.0559 50.6375 18.69 50.9783C19.324 51.3192 20.0386 51.4818 20.7577 51.4489C21.4768 51.4159 22.1735 51.1887 22.7737 50.7912L29.2085 57.226C28.8849 57.716 28.6737 58.2716 28.59 58.8528C28.5063 59.434 28.552 60.0266 28.7241 60.588C28.8961 61.1495 29.1902 61.666 29.5852 62.1005C29.9802 62.535 30.4664 62.8768 31.0089 63.1015C31.5515 63.3262 32.137 63.4281 32.7236 63.4C33.3101 63.3719 33.8832 63.2145 34.4018 62.939C34.9204 62.6635 35.3717 62.2768 35.7233 61.8065C36.075 61.3362 36.3183 60.794 36.4359 60.2187H44.5651C44.682 60.7947 44.9249 61.3377 45.2764 61.8088C45.6279 62.2799 46.0793 62.6674 46.5983 62.9435C47.1172 63.2196 47.6907 63.3775 48.2779 63.4058C48.865 63.4341 49.4511 63.3322 49.9941 63.1073C50.5372 62.8824 51.0238 62.5402 51.419 62.1051C51.8143 61.67 52.1083 61.1529 52.2801 60.5908C52.452 60.0286 52.4973 59.4355 52.4129 58.8538C52.3284 58.2721 52.1164 57.7163 51.7918 57.2262L55.2582 53.7598L54.1312 52.6328L50.6648 56.0992C50.1213 55.7392 49.4977 55.5182 48.8488 55.4555C48.1998 55.3929 47.5455 55.4906 46.9431 55.74C46.3407 55.9894 45.8088 56.3828 45.3941 56.8859C44.9794 57.3889 44.6945 57.986 44.5646 58.6249H36.4359C36.2223 57.5875 35.6053 56.6774 34.7208 56.0948L35.1841 54.9364L33.7043 54.3445L33.2415 55.5019C32.2322 55.3176 31.1908 55.5318 30.3362 56.0995L23.9014 49.6647C24.4691 48.8101 24.6833 47.7687 24.499 46.7594L30.4377 44.384L29.8458 42.9043L23.9051 45.2797C23.3225 44.3951 22.4124 43.7781 21.375 43.5645V35.4358C22.4124 35.2222 23.3225 34.6052 23.9051 33.7206L29.8448 36.0965L30.4367 34.6168L24.498 32.2409C24.6822 31.2316 24.468 30.1902 23.9003 29.3356L28.8608 24.375L27.7344 23.2479L22.7738 28.2085C22.2838 27.8849 21.7282 27.6736 21.147 27.5899C20.5657 27.5061 19.9731 27.5518 19.4116 27.7239C18.8502 27.8959 18.3336 28.19 17.8991 28.585C17.4645 28.98 17.1227 29.4662 16.898 30.0088C16.6734 30.5514 16.5714 31.1369 16.5996 31.7235C16.6277 32.3101 16.7851 32.8832 17.0606 33.4018C17.3362 33.9204 17.7229 34.3717 18.1933 34.7233C18.6636 35.075 19.2059 35.3183 19.7813 35.4358V43.565C18.882 43.7498 18.074 44.239 17.4934 44.9501C16.9128 45.6611 16.5951 46.5506 16.5938 47.4687ZM48.4687 57.0312C48.9416 57.0312 49.4038 57.1714 49.7969 57.434C50.19 57.6967 50.4965 58.0701 50.6774 58.5069C50.8583 58.9438 50.9057 59.4244 50.8134 59.8882C50.7212 60.3519 50.4935 60.7779 50.1592 61.1122C49.8248 61.4465 49.3989 61.6742 48.9351 61.7665C48.4714 61.8587 47.9907 61.8114 47.5539 61.6304C47.1171 61.4495 46.7437 61.1431 46.481 60.7499C46.2183 60.3568 46.0781 59.8946 46.0781 59.4218C46.0789 58.788 46.331 58.1803 46.7791 57.7322C47.2273 57.284 47.8349 57.0319 48.4687 57.0312ZM32.5312 57.0312C33.0041 57.0312 33.4663 57.1714 33.8594 57.434C34.2525 57.6967 34.559 58.0701 34.7399 58.5069C34.9208 58.9438 34.9682 59.4244 34.8759 59.8882C34.7837 60.3519 34.556 60.7779 34.2217 61.1122C33.8873 61.4465 33.4614 61.6742 32.9976 61.7665C32.5339 61.8587 32.0532 61.8114 31.6164 61.6304C31.1796 61.4495 30.8062 61.1431 30.5435 60.7499C30.2808 60.3568 30.1406 59.8946 30.1406 59.4218C30.1414 58.788 30.3935 58.1803 30.8416 57.7322C31.2898 57.284 31.8974 57.0319 32.5312 57.0312ZM18.1875 31.5312C18.1875 31.0583 18.3277 30.5961 18.5904 30.203C18.8531 29.8099 19.2264 29.5034 19.6633 29.3225C20.1001 29.1416 20.5808 29.0942 21.0445 29.1865C21.5082 29.2787 21.9342 29.5064 22.2686 29.8407C22.6029 30.1751 22.8306 30.601 22.9228 31.0648C23.0151 31.5285 22.9677 32.0092 22.7868 32.446C22.6058 32.8828 22.2994 33.2562 21.9063 33.5189C21.5131 33.7816 21.0509 33.9218 20.5781 33.9218C19.9443 33.921 19.3367 33.6689 18.8885 33.2208C18.4403 32.7726 18.1882 32.165 18.1875 31.5312ZM20.5781 45.078C21.0509 45.078 21.5131 45.2182 21.9063 45.4809C22.2994 45.7436 22.6058 46.117 22.7868 46.5538C22.9677 46.9906 23.0151 47.4713 22.9228 47.935C22.8306 48.3988 22.6029 48.8247 22.2686 49.1591C21.9342 49.4934 21.5082 49.7211 21.0445 49.8133C20.5808 49.9056 20.1001 49.8582 19.6633 49.6773C19.2264 49.4964 18.8531 49.1899 18.5904 48.7968C18.3277 48.4037 18.1875 47.9415 18.1875 47.4687C18.1882 46.8348 18.4403 46.2272 18.8885 45.779C19.3367 45.3309 19.9443 45.0788 20.5781 45.078ZM64.4062 31.5312C64.4067 30.8113 64.2121 30.1048 63.8429 29.4867C63.4738 28.8687 62.9441 28.3623 62.31 28.0215C61.676 27.6806 60.9614 27.518 60.2423 27.5509C59.5232 27.5839 58.8265 27.8112 58.2263 28.2086L51.7915 21.7738C52.1153 21.2838 52.3267 20.7282 52.4106 20.1469C52.4945 19.5656 52.4488 18.9729 52.2768 18.4114C52.1048 17.8498 51.8108 17.3332 51.4158 16.8985C51.0208 16.4639 50.5345 16.122 49.9919 15.8972C49.4492 15.6725 48.8636 15.5706 48.277 15.5987C47.6903 15.6269 47.1171 15.7844 46.5985 16.06C46.0798 16.3356 45.6285 16.7224 45.2769 17.1929C44.9253 17.6633 44.682 18.2057 44.5646 18.7812H36.4359C36.2799 18.0113 35.8999 17.3047 35.3438 16.7499C34.7877 16.1952 34.0802 15.817 33.31 15.6627C32.5398 15.5085 31.7412 15.5851 31.0143 15.883C30.2875 16.1808 29.6648 16.6867 29.2243 17.3371C28.7838 17.9874 28.5452 18.7534 28.5383 19.5389C28.5314 20.3243 28.7567 21.0943 29.1857 21.7523C29.6147 22.4103 30.2285 22.927 30.95 23.2375C31.6715 23.548 32.4687 23.6386 33.2415 23.4979L33.7043 24.6552L35.1841 24.0633L34.7203 22.905C35.605 22.3225 36.2222 21.4124 36.4359 20.3749H44.5651C44.7787 21.4123 45.3957 22.3224 46.2802 22.905L45.4981 24.8603L46.9778 25.4522L47.7595 23.498C48.7688 23.6822 49.8102 23.468 50.6648 22.9003L57.0996 29.3351C56.5319 30.1897 56.3177 31.2311 56.5019 32.2404L50.5633 34.6158L51.1552 36.0956L57.0949 33.7196C57.3833 34.1578 57.7551 34.5349 58.1893 34.8293C58.6234 35.1238 59.1112 35.3299 59.625 35.4358V43.565C58.5876 43.7786 57.6775 44.3956 57.0949 45.2802L54.7411 44.3386L54.1493 45.8184L56.5019 46.7594C56.3177 47.7687 56.5319 48.8101 57.0996 49.6647L55.5258 51.2386L56.6528 52.3656L58.2266 50.7917C58.7166 51.1154 59.2722 51.3267 59.8535 51.4106C60.4348 51.4944 61.0275 51.4487 61.589 51.2766C62.1506 51.1046 62.6671 50.8105 63.1017 50.4155C63.5363 50.0204 63.8782 49.5342 64.1028 48.9915C64.3275 48.4489 64.4294 47.8633 64.4012 47.2766C64.3731 46.69 64.2155 46.1169 63.9399 45.5982C63.6643 45.0796 63.2774 44.6283 62.807 44.2767C62.3366 43.9251 61.7942 43.6819 61.2187 43.5645V35.4358C62.1181 35.251 62.9263 34.7616 63.5069 34.0503C64.0875 33.3391 64.4052 32.4493 64.4062 31.5312ZM32.5312 21.9687C32.0584 21.9687 31.5962 21.8284 31.2031 21.5658C30.81 21.3031 30.5035 20.9297 30.3226 20.4929C30.1417 20.0561 30.0943 19.5754 30.1866 19.1116C30.2788 18.6479 30.5065 18.2219 30.8408 17.8876C31.1752 17.5533 31.6011 17.3256 32.0649 17.2333C32.5286 17.1411 33.0093 17.1884 33.4461 17.3694C33.8829 17.5503 34.2563 17.8567 34.519 18.2499C34.7817 18.643 34.9219 19.1052 34.9219 19.578C34.9211 20.2118 34.669 20.8195 34.2209 21.2676C33.7727 21.7158 33.1651 21.9679 32.5312 21.9687ZM48.4687 21.9687C47.9959 21.9687 47.5337 21.8284 47.1406 21.5658C46.7475 21.3031 46.441 20.9297 46.2601 20.4929C46.0792 20.0561 46.0318 19.5754 46.1241 19.1116C46.2163 18.6479 46.444 18.2219 46.7783 17.8876C47.1127 17.5533 47.5386 17.3256 48.0024 17.2333C48.4661 17.1411 48.9468 17.1884 49.3836 17.3694C49.8204 17.5503 50.1938 17.8567 50.4565 18.2499C50.7192 18.643 50.8594 19.1052 50.8594 19.578C50.8586 20.2118 50.6065 20.8195 50.1584 21.2676C49.7102 21.7158 49.1026 21.9679 48.4687 21.9687ZM62.8125 47.4687C62.8125 47.9415 62.6723 48.4037 62.4096 48.7968C62.1469 49.1899 61.7736 49.4964 61.3367 49.6773C60.8999 49.8582 60.4192 49.9056 59.9555 49.8133C59.4917 49.7211 59.0658 49.4934 58.7314 49.1591C58.3971 48.8247 58.1694 48.3988 58.0772 47.935C57.9849 47.4713 58.0323 46.9906 58.2132 46.5538C58.3942 46.117 58.7006 45.7436 59.0937 45.4809C59.4868 45.2182 59.9491 45.078 60.4219 45.078C61.0557 45.0788 61.6633 45.3309 62.1115 45.779C62.5597 46.2272 62.8118 46.8348 62.8125 47.4687ZM60.4219 33.9218C59.9491 33.9218 59.4868 33.7816 59.0937 33.5189C58.7006 33.2562 58.3942 32.8828 58.2132 32.446C58.0323 32.0092 57.9849 31.5285 58.0772 31.0648C58.1694 30.601 58.3971 30.1751 58.7314 29.8407C59.0658 29.5064 59.4917 29.2787 59.9555 29.1865C60.4192 29.0942 60.8999 29.1416 61.3367 29.3225C61.7736 29.5034 62.1469 29.8099 62.4096 30.203C62.6723 30.5961 62.8125 31.0583 62.8125 31.5312C62.8118 32.165 62.5597 32.7726 62.1115 33.2208C61.6633 33.6689 61.0557 33.921 60.4219 33.9218ZM33.3281 32.328V50.6562C33.3286 51.0787 33.4967 51.4838 33.7955 51.7826C34.0943 52.0813 34.4993 52.2494 34.9219 52.2499H43.6875V53.8437H34.9219C34.0768 53.8427 33.2666 53.5066 32.669 52.909C32.0715 52.3114 31.7353 51.5012 31.7344 50.6562V32.328H33.3281ZM51.6562 51.453V42.744C51.6574 42.3252 51.5755 41.9104 51.4152 41.5235C51.255 41.1367 51.0196 40.7854 50.7227 40.4901L49.2656 39.0331V44.7479L50.626 46.1083L49.499 47.2353L47.9053 45.6415L45.2128 42.9491C45.1298 42.8661 45.0313 42.8003 44.9229 42.7554C44.8145 42.7105 44.6983 42.6874 44.581 42.6874C44.4636 42.6874 44.3474 42.7105 44.239 42.7555C44.1306 42.8004 44.0321 42.8662 43.9492 42.9492C43.8662 43.0322 43.8004 43.1307 43.7555 43.2391C43.7106 43.3475 43.6875 43.4637 43.6875 43.581C43.6875 43.6984 43.7106 43.8145 43.7556 43.923C43.8005 44.0314 43.8663 44.1299 43.9493 44.2128L46.6416 46.9052C46.7719 47.0354 46.853 47.2068 46.8712 47.3901C46.8893 47.5735 46.8434 47.7574 46.7412 47.9107C46.3359 48.5205 46.0986 49.2263 46.0531 49.957C46.0077 50.6877 46.1557 51.4175 46.4822 52.0728L46.791 52.6904C46.8463 52.801 46.8751 52.9231 46.875 53.0468V53.8437H45.2812V53.2349L45.0565 52.7855C44.6547 51.9791 44.4475 51.0898 44.4516 50.1888C44.4558 49.2879 44.6711 48.4005 45.0803 47.5978L42.8222 45.3397C42.3591 44.8725 42.0998 44.2409 42.1013 43.5831C42.1027 42.9253 42.3647 42.2948 42.8298 41.8296C43.295 41.3645 43.9255 41.1026 44.5833 41.1012C45.2412 41.0998 45.8728 41.359 46.3399 41.8222L47.6719 43.1542V29.1405C47.6714 28.718 47.5033 28.3129 47.2045 28.0141C46.9057 27.7154 46.5007 27.5473 46.0781 27.5468H44.18L43.6033 28.7001C43.5371 28.8324 43.4354 28.9437 43.3095 29.0215C43.1837 29.0993 43.0386 29.1405 42.8906 29.1405H38.1094C37.9614 29.1405 37.8163 29.0993 37.6905 29.0215C37.5646 28.9437 37.4629 28.8324 37.3967 28.7001L36.82 27.5468H34.9219C34.4993 27.5473 34.0943 27.7154 33.7955 28.0141C33.4967 28.3129 33.3286 28.718 33.3281 29.1405V30.7343H31.7344V29.1405C31.7353 28.2954 32.0715 27.4852 32.669 26.8877C33.2666 26.2901 34.0768 25.954 34.9219 25.953H46.0781C46.9232 25.954 47.7334 26.2901 48.331 26.8877C48.9285 27.4852 49.2647 28.2954 49.2656 29.1405V36.7792L51.8496 39.3631C52.295 39.8061 52.6481 40.333 52.8884 40.9133C53.1288 41.4936 53.2517 42.1158 53.25 42.744V51.453H51.6562ZM38.9062 49.0624H42.0937V50.6562H38.9062V49.0624ZM42.3271 39.2665C41.8422 38.7826 41.1851 38.5109 40.5 38.5109C39.8149 38.5109 39.1578 38.7826 38.6729 39.2665L37.5459 38.1395C38.33 37.3572 39.3924 36.9179 40.5 36.9179C41.6076 36.9179 42.67 37.3572 43.4541 38.1395L42.3271 39.2665ZM44.7178 37.2626C44.1639 36.7087 43.5063 36.2693 42.7826 35.9696C42.0589 35.6698 41.2833 35.5155 40.5 35.5155C39.7167 35.5155 38.941 35.6698 38.2174 35.9696C37.4937 36.2693 36.8361 36.7087 36.2822 37.2626L35.1553 36.1357C36.5739 34.7203 38.496 33.9254 40.5 33.9254C42.504 33.9254 44.4261 34.7203 45.8447 36.1357L44.7178 37.2626ZM41.2969 41.8905V43.4843H39.7031V41.8905H41.2969ZM36.5156 41.8905H38.1094V43.4843H36.5156V41.8905Z" fill="white"/>
</svg>
