<svg width="79" height="79" viewBox="0 0 79 79" fill="none" xmlns="http://www.w3.org/2000/svg">
<circle cx="39.5" cy="39.5" r="38.5" stroke="white" stroke-width="2"/>
<g clip-path="url(#clip0)">
<path d="M25.6125 28.5038C27.7923 28.5038 29.5593 26.7367 29.5593 24.5569C29.5593 22.3775 27.7923 20.6105 25.6125 20.6105C23.433 20.6105 21.666 22.3775 21.666 24.5569C21.6686 26.7356 23.4338 28.5011 25.6125 28.5038ZM25.6125 22.1419C26.9465 22.1419 28.0278 23.2232 28.0278 24.5569C28.0278 25.891 26.9465 26.9723 25.6125 26.9723C24.2788 26.9723 23.1975 25.891 23.1975 24.5569C23.199 23.224 24.2795 22.1438 25.6125 22.1419Z" fill="white"/>
<path d="M59.9509 50.0162L59.6551 42.29L61.0961 40.3084L59.3489 37.0966L59.6996 36.0172L63.0008 34.4457V31.2467L59.6996 29.6752L59.3489 28.5958L61.0961 25.384L59.2154 22.7974L55.6212 23.4659L54.7025 22.7982L54.2277 19.174L51.1876 18.1854L48.6724 20.8386H47.5372L45.0221 18.1854L41.9812 19.174L41.8327 20.3043L31.1973 19.6709L30.4806 18.9542L30.2824 17.346L27.4124 16.1533L26.1337 17.1524H25.0969L23.8148 16.1533L20.9433 17.3445L20.7459 18.9527L20.0108 19.6877L18.4027 19.8855L17.2096 22.7585L18.2105 24.0402V25.0793L17.2096 26.3558L18.1585 28.6447L17.1019 42.1921C17.078 42.3648 17.0645 42.5387 17.0611 42.7125V42.7409H17.0566V42.8008C17.0544 44.3543 17.8388 45.8035 19.1407 46.6515C20.4426 47.4995 22.0855 47.6307 23.5056 47.0007L28.0372 45.1125C27.3028 47.1858 28.1512 49.4882 30.0558 50.589L23.0561 52.8443C20.7406 53.3061 19.1523 55.4481 19.3826 57.798C19.613 60.1479 21.5871 61.9404 23.9483 61.9441H23.9886L52.1847 60.4654L52.6166 61.5007L55.0514 62.0002L57.0278 60.0803L57.5311 59.9135L60.2638 60.2657L61.9142 58.4063L61.2393 55.7349L61.3466 55.2148L63.0176 53.0241L62.235 50.6656L59.9509 50.0162ZM43.3732 20.3308L44.5756 19.9405L46.8788 22.3701H49.3293L51.6325 19.9405L52.8357 20.3308L53.2698 23.6506L55.2529 25.0916L58.5454 24.4792L59.2876 25.5014L57.6888 28.4432L58.4467 30.7748L61.4693 32.2143V33.4781L58.4467 34.9176L57.6888 37.2492L59.2876 40.1902L58.5454 41.2125L55.2529 40.6L53.2698 42.041L52.8357 45.3604L51.6325 45.7512L49.3293 43.3216H46.8788L44.5756 45.7512L43.3732 45.3604L42.9383 42.0425L40.9552 40.6008L37.6623 41.2132L36.9198 40.191L38.5185 37.2507L37.7614 34.9183L34.7388 33.4788V32.2151L37.7614 30.7756L38.5185 28.4432L36.9198 25.5029L37.6623 24.4807L40.9552 25.0931L42.9383 23.6499L43.3732 20.3308ZM18.971 22.5204L19.4761 21.2951L20.7238 21.1418L22.2029 19.6649L22.3562 18.4176L23.5815 17.9121L24.5715 18.6853H26.6657L27.6513 17.9144L28.8766 18.4199L29.0295 19.6664L30.5052 21.1459L31.7526 21.2989L32.2588 22.5241L31.4852 23.5142V25.6084L32.2588 26.5984L31.7526 27.8237L30.5052 27.977L29.0257 29.4565L28.8724 30.7038L27.6476 31.2097L26.6575 30.4364H24.5671L23.5766 31.2097L22.3517 30.7038L22.1984 29.4565L20.7204 27.9691L19.4739 27.8162L18.9687 26.5909L19.742 25.6009V23.5104L18.971 22.5204ZM18.5881 42.8146L18.5971 42.6949C18.7515 41.1171 20.1476 39.9573 21.7273 40.0953C23.307 40.2332 24.4811 41.6174 24.3592 43.1986C24.2377 44.7794 22.8658 45.9676 21.2839 45.8626C19.7016 45.7571 18.4991 44.3977 18.5881 42.8146ZM32.3713 43.5665C34.0628 43.5665 35.4343 44.9379 35.4343 46.6294C35.4343 48.3209 34.0628 49.6924 32.3713 49.6924C30.6795 49.6924 29.3084 48.3209 29.3084 46.6294C29.3084 44.9379 30.6795 43.5665 32.3713 43.5665ZM20.8853 57.3497C20.8887 56.16 21.5808 55.0802 22.6602 54.5799L23.4005 54.3417C24.5353 54.1402 25.6869 54.5934 26.3801 55.5139C27.0733 56.4348 27.1899 57.6668 26.6825 58.7013C26.1748 59.7359 25.1286 60.3973 23.9767 60.4127H23.9389C22.2508 60.4074 20.8853 59.0378 20.8853 57.3497ZM27.5272 60.2235C28.3621 59.1897 28.7068 57.844 28.472 56.5361C28.2368 55.2282 27.4449 54.0867 26.3019 53.4085L33.7809 51.0025C35.3965 50.4985 36.6042 49.1465 36.9239 47.4845C37.2436 45.8226 36.6236 44.1195 35.3105 43.0516C33.997 41.9842 32.2031 41.7251 30.6413 42.3771L25.989 44.3161C26.6609 42.4041 25.9979 40.2777 24.3584 39.0861C22.7185 37.8949 20.4916 37.9214 18.8805 39.1512L19.6462 29.3821L20.0175 29.4281L20.7526 30.1631L20.9504 31.7712L23.8226 32.9595L25.1014 31.9642H26.1404L27.4184 32.9595L30.2824 31.7742L30.4806 30.1661L31.2156 29.431L32.8238 29.2325L34.0124 26.3621L33.0167 25.0838V24.0402L34.0124 22.7615L33.4242 21.3404L41.6368 21.8264L41.5097 22.7989L40.5907 23.4659L36.9972 22.7974L35.1165 25.384L36.8629 28.5958L36.513 29.673L33.2119 31.2467V34.4457L36.5122 36.0172L36.8629 37.0966L35.1165 40.3084L36.9972 42.895L40.5907 42.2264L41.5097 42.8935L41.9842 46.5184L45.025 47.507L47.5406 44.8538H48.6754L51.1906 47.507L54.2314 46.5184L54.7063 42.8942L55.6249 42.2264L58.1427 42.6949L58.326 47.4864L58.1304 47.0183L55.6949 46.5176L53.714 48.4365L53.2107 48.6043L50.4779 48.2521L48.8275 50.1111L49.5009 52.783L49.3936 53.3027L47.7227 55.493L48.5075 57.8519L51.1577 58.6056L51.5551 58.9578V58.9631L27.5272 60.2235ZM59.918 54.5638L59.6697 55.7693L60.2309 57.9951L59.6559 58.6423L57.3793 58.3506L56.2123 58.738L54.5653 60.336L53.7177 60.1629L52.8338 58.0452L51.9152 57.2278L49.7073 56.6001L49.4333 55.7775L50.8256 53.9529L51.0728 52.7486L50.5116 50.5224L51.0866 49.8745L53.3633 50.1672L54.5309 49.7795L56.1787 48.1807L57.0263 48.3553L57.9109 50.4742L58.8296 51.2896L61.0374 51.9167L61.3107 52.7392L59.918 54.5638Z" fill="white"/>
<path d="M23.1821 42.8005C23.1821 43.6462 22.4964 44.3319 21.6506 44.3319C20.8049 44.3319 20.1191 43.6462 20.1191 42.8005C20.1191 41.9547 20.8049 41.269 21.6506 41.269C22.4964 41.269 23.1821 41.9547 23.1821 42.8005Z" fill="white"/>
<path d="M33.9028 46.6292C33.9028 47.4749 33.2171 48.1607 32.3713 48.1607C31.5256 48.1607 30.8398 47.4749 30.8398 46.6292C30.8398 45.7834 31.5256 45.0977 32.3713 45.0977C33.2171 45.0977 33.9028 45.7834 33.9028 46.6292Z" fill="white"/>
<path d="M25.479 57.3499C25.479 58.1957 24.7932 58.8814 23.9475 58.8814C23.1017 58.8814 22.416 58.1957 22.416 57.3499C22.416 56.5042 23.1017 55.8185 23.9475 55.8185C24.7932 55.8185 25.479 56.5042 25.479 57.3499Z" fill="white"/>
<path d="M55.3424 50.458C53.2276 50.458 51.5137 52.1723 51.5137 54.2867C51.5137 56.4011 53.2276 58.1154 55.3424 58.1154C57.4567 58.1154 59.171 56.4011 59.171 54.2867C59.1684 52.1731 57.4556 50.4606 55.3424 50.458ZM55.3424 56.5839C54.0737 56.5839 53.0451 55.5553 53.0451 54.2867C53.0451 53.0181 54.0737 51.9895 55.3424 51.9895C56.611 51.9895 57.6396 53.0181 57.6396 54.2867C57.6396 55.5553 56.611 56.5839 55.3424 56.5839Z" fill="white"/>
<path d="M47.6847 40.5037C51.9138 40.5037 55.342 37.0755 55.342 32.8464C55.342 28.6173 51.9138 25.189 47.6847 25.189C43.4556 25.189 40.0273 28.6173 40.0273 32.8464C40.0318 37.0736 43.4574 40.4992 47.6847 40.5037ZM47.6847 26.7205C51.0677 26.7205 53.8106 29.463 53.8106 32.8464C53.8106 36.2297 51.0677 38.9723 47.6847 38.9723C44.3013 38.9723 41.5588 36.2297 41.5588 32.8464C41.5626 29.4649 44.3028 26.7242 47.6847 26.7205Z" fill="white"/>
<path d="M47.6862 37.4411C50.2235 37.4411 52.2806 35.3839 52.2806 32.8467C52.2806 30.3094 50.2235 28.2523 47.6862 28.2523C45.1486 28.2523 43.0918 30.3094 43.0918 32.8467C43.0944 35.3832 45.1497 37.4385 47.6862 37.4411ZM47.6862 29.7837C49.3777 29.7837 50.7492 31.1552 50.7492 32.8467C50.7492 34.5382 49.3777 35.9096 47.6862 35.9096C45.9943 35.9096 44.6233 34.5382 44.6233 32.8467C44.6233 31.1552 45.9943 29.7837 47.6862 29.7837Z" fill="white"/>
<path d="M58.4062 18.2972C58.4062 19.5658 59.4348 20.5944 60.7035 20.5944C61.9721 20.5944 63.0007 19.5658 63.0007 18.2972C63.0007 17.0286 61.9721 16 60.7035 16C59.4348 16 58.4062 17.0286 58.4062 18.2972ZM61.4692 18.2972C61.4692 18.7201 61.1263 19.0629 60.7035 19.0629C60.2806 19.0629 59.9377 18.7201 59.9377 18.2972C59.9377 17.8743 60.2806 17.5315 60.7035 17.5315C61.1263 17.5315 61.4692 17.8743 61.4692 18.2972Z" fill="white"/>
<path d="M38.4965 17.5315C38.4965 18.3772 37.8108 19.0629 36.9651 19.0629C36.1193 19.0629 35.4336 18.3772 35.4336 17.5315C35.4336 16.6857 36.1193 16 36.9651 16C37.8108 16 38.4965 16.6857 38.4965 17.5315Z" fill="white"/>
</g>
<defs>
<clipPath id="clip0">
<rect width="46" height="46" fill="white" transform="translate(17 16)"/>
</clipPath>
</defs>
</svg>
