<svg width="79" height="79" viewBox="0 0 79 79" fill="none" xmlns="http://www.w3.org/2000/svg">
<circle cx="39.5" cy="39.5" r="38.5" stroke="white" stroke-width="2"/>
<g clip-path="url(#clip0)">
<path d="M62.312 38.8109H51.2269V37.2445H54.2177C54.5979 37.2445 54.9061 36.9362 54.9061 36.556C54.9061 36.1758 54.5979 35.8675 54.2177 35.8675H51.2269V34.301H53.3033C54.0769 34.301 54.8042 33.9998 55.3511 33.4528L59.879 28.9249C60.1741 29.0718 60.5011 29.15 60.8404 29.15C61.4175 29.15 61.9599 28.9253 62.3679 28.5174C62.776 28.1093 63.0007 27.5669 63.0007 26.9899C63.0007 26.4128 62.776 25.8704 62.3679 25.4624C61.96 25.0544 61.4175 24.8296 60.8404 24.8296C60.2634 24.8296 59.721 25.0544 59.3129 25.4623C58.9049 25.8703 58.6802 26.4128 58.6802 26.9898C58.6802 27.3291 58.7584 27.6561 58.9054 27.9512L54.3774 32.4791C54.0905 32.766 53.709 32.9241 53.3032 32.9241H51.2268V31.405C51.2268 29.4024 49.5975 27.7732 47.5949 27.7732H46.0759V21.6784C46.9303 21.3902 47.5476 20.5817 47.5476 19.6313C47.5476 18.4401 46.5785 17.4711 45.3874 17.4711C44.1963 17.4711 43.2272 18.4402 43.2272 19.6313C43.2272 20.5817 43.8445 21.3901 44.6989 21.6784V27.7731H43.1325V24.7823C43.1325 24.402 42.8243 24.0938 42.444 24.0938C42.0638 24.0938 41.7556 24.402 41.7556 24.7823V27.7731H40.1891V16.6879C40.1891 16.3077 39.8808 15.9995 39.5006 15.9995C39.1204 15.9995 38.8121 16.3077 38.8121 16.6879V27.7731H37.2457V24.7823C37.2457 24.402 36.9374 24.0938 36.5572 24.0938C36.177 24.0938 35.8687 24.402 35.8687 24.7823V27.7731H34.3023V25.6967C34.3023 24.9232 34.0011 24.1959 33.454 23.6489L28.9245 19.1194C29.3247 18.3115 29.1906 17.3042 28.5187 16.6322C27.6764 15.79 26.3059 15.7901 25.4637 16.6322C24.6215 17.4744 24.6215 18.8449 25.4637 19.6872C25.8849 20.1083 26.438 20.3188 26.9912 20.3188C27.3206 20.3188 27.6494 20.2424 27.9509 20.093L32.4804 24.6226C32.7674 24.9095 32.9254 25.291 32.9254 25.6967V27.7731H31.4063C31.0993 27.7731 30.7939 27.8116 30.4987 27.8876C30.1305 27.9823 29.9088 28.3576 30.0035 28.7259C30.0982 29.0942 30.4737 29.3159 30.8419 29.2211C31.025 29.174 31.2148 29.15 31.4062 29.15H47.5949C48.8383 29.15 49.8498 30.1616 49.8498 31.4049V47.5937C49.8498 47.7849 49.8259 47.9747 49.7789 48.1576C49.6843 48.5259 49.9061 48.9012 50.2743 48.9958C50.3317 49.0106 50.3894 49.0176 50.4462 49.0176C50.7529 49.0176 51.0326 48.8112 51.1125 48.5004C51.1883 48.2055 51.2268 47.9004 51.2268 47.5936V46.0746H57.3215C57.6096 46.929 58.4181 47.5462 59.3686 47.5462C60.5597 47.5462 61.5287 46.5772 61.5287 45.3861C61.5287 44.1949 60.5596 43.2259 59.3686 43.2259C58.4181 43.2259 57.6097 43.8432 57.3215 44.6976H51.2268V43.1311H54.2176C54.5978 43.1311 54.9061 42.8229 54.9061 42.4426C54.9061 42.0624 54.5978 41.7542 54.2176 41.7542H51.2268V40.1878H62.312C62.6922 40.1878 63.0005 39.8796 63.0005 39.4994C63.0005 39.1191 62.6922 38.8109 62.312 38.8109ZM60.2865 26.4361C60.4345 26.2881 60.6311 26.2067 60.8403 26.2067C61.0495 26.2067 61.2462 26.2881 61.3941 26.4361C61.5421 26.584 61.6235 26.7807 61.6235 26.9899C61.6235 27.1991 61.5421 27.3957 61.3941 27.5437C61.2462 27.6917 61.0495 27.7731 60.8403 27.7731C60.6311 27.7731 60.4345 27.6917 60.2865 27.5437C60.1385 27.3957 60.0571 27.1991 60.0571 26.9899C60.0571 26.7807 60.1385 26.584 60.2865 26.4361ZM27.5449 18.7136C27.2396 19.0188 26.7427 19.0189 26.4372 18.7135C26.1318 18.4081 26.1318 17.9112 26.4372 17.6059C26.59 17.4531 26.7904 17.3769 26.9911 17.3769C27.1917 17.3769 27.3923 17.4532 27.5449 17.6059C27.8503 17.9113 27.8503 18.4082 27.5449 18.7136ZM45.3874 20.4145C44.9556 20.4145 44.6042 20.0631 44.6042 19.6313C44.6042 19.1995 44.9555 18.8481 45.3874 18.8481C45.8193 18.8481 46.1706 19.1995 46.1706 19.6313C46.1706 20.0631 45.8192 20.4145 45.3874 20.4145ZM59.3687 44.603C59.8006 44.603 60.1519 44.9544 60.1519 45.3862C60.1519 45.8181 59.8005 46.1694 59.3687 46.1694C58.9368 46.1694 58.5854 45.818 58.5854 45.3862C58.5854 44.9543 58.9367 44.603 59.3687 44.603Z" fill="white"/>
<path d="M53.5369 59.312C52.865 58.64 51.8576 58.5059 51.0497 58.9061L46.5201 54.3765C46.2332 54.0896 46.0752 53.7081 46.0752 53.3023V51.226H47.5942C47.9013 51.226 48.2066 51.1874 48.5017 51.1115C48.8699 51.0168 49.0916 50.6414 48.9969 50.2732C48.9022 49.905 48.527 49.6833 48.1585 49.778C47.9755 49.8251 47.7856 49.849 47.5942 49.849H31.4056C30.1622 49.849 29.1507 48.8374 29.1507 47.5941V31.4054C29.1507 31.214 29.1745 31.0241 29.2216 30.8412C29.3165 30.473 29.0948 30.0976 28.7266 30.0028C28.3583 29.908 27.9829 30.1297 27.8882 30.4979C27.8122 30.7929 27.7737 31.0982 27.7737 31.4054V32.9244H21.6789C21.3907 32.07 20.5823 31.4527 19.6318 31.4527C18.4407 31.4527 17.4717 32.4217 17.4717 33.6129C17.4717 34.804 18.4408 35.7731 19.6318 35.7731C20.5823 35.7731 21.3907 35.1558 21.6789 34.3014H27.7736V35.8679H24.7828C24.4026 35.8679 24.0943 36.1761 24.0943 36.5564C24.0943 36.9366 24.4026 37.2448 24.7828 37.2448H27.7736V38.8112H16.6885C16.3083 38.8112 16 39.1195 16 39.4997C16 39.8799 16.3083 40.1882 16.6885 40.1882H27.7736V41.7546H24.7828C24.4026 41.7546 24.0943 42.0629 24.0943 42.4431C24.0943 42.8233 24.4026 43.1316 24.7828 43.1316H27.7736V44.6981H25.6972C24.9236 44.6981 24.1963 44.9993 23.6494 45.5463L19.1214 50.0742C18.8264 49.9273 18.4993 49.8491 18.1601 49.8491C17.583 49.8491 17.0406 50.0738 16.6326 50.4817C16.2247 50.8898 16 51.4323 16 52.0092C16 52.5862 16.2247 53.1287 16.6328 53.5367C17.0407 53.9447 17.5832 54.1694 18.1602 54.1694C18.7373 54.1694 19.2797 53.9447 19.6877 53.5367C20.0958 53.1287 20.3205 52.5862 20.3205 52.0092C20.3205 51.6699 20.2423 51.3429 20.0953 51.0478L24.6233 46.5199C24.9101 46.233 25.2916 46.0749 25.6975 46.0749H27.7739V47.594C27.7739 49.5966 29.4032 51.2258 31.4057 51.2258H32.9248V57.3206C32.0704 57.6087 31.4531 58.4172 31.4531 59.3676C31.4531 60.5588 32.4222 61.5278 33.6133 61.5278C34.8043 61.5278 35.7734 60.5587 35.7734 59.3676C35.7734 58.4172 35.1562 57.6088 34.3017 57.3206V51.2258H35.8682V54.2166C35.8682 54.5969 36.1764 54.9051 36.5566 54.9051C36.9369 54.9051 37.2451 54.5969 37.2451 54.2166V51.2258H38.8114V62.3112C38.8114 62.6914 39.1197 62.9996 39.4999 62.9996C39.8801 62.9996 40.1884 62.6914 40.1884 62.3112V51.226H41.7548V54.2168C41.7548 54.597 42.063 54.9053 42.4433 54.9053C42.8235 54.9053 43.1317 54.597 43.1317 54.2168V51.226H44.6982V53.3023C44.6982 54.0759 44.9994 54.8032 45.5464 55.3502L50.076 59.8797C49.6758 60.6876 49.8099 61.6949 50.4819 62.3669C50.903 62.7881 51.4562 62.9986 52.0094 62.9986C52.5625 62.9986 53.1158 62.7881 53.5369 62.3669C54.3791 61.5247 54.3791 60.1542 53.5369 59.312ZM19.6318 34.3961C19.1999 34.3961 18.8486 34.0447 18.8486 33.6129C18.8486 33.181 19.2 32.8297 19.6318 32.8297C20.0636 32.8297 20.415 33.1811 20.415 33.6129C20.4151 34.0448 20.0637 34.3961 19.6318 34.3961ZM18.714 52.563C18.566 52.711 18.3694 52.7924 18.1602 52.7924C17.951 52.7924 17.7543 52.711 17.6063 52.563C17.4584 52.415 17.3769 52.2184 17.3769 52.0092C17.3769 51.8 17.4584 51.6034 17.6063 51.4554C17.7543 51.3074 17.951 51.226 18.1602 51.226C18.3694 51.226 18.566 51.3074 18.714 51.4554C18.8619 51.6034 18.9434 51.8 18.9434 52.0092C18.9434 52.2184 18.8619 52.4151 18.714 52.563ZM34.3963 59.3678C34.3963 59.7996 34.045 60.151 33.6131 60.151C33.1812 60.151 32.8299 59.7996 32.8299 59.3678C32.8299 58.936 33.1813 58.5846 33.6131 58.5846C34.0449 58.5846 34.3963 58.936 34.3963 59.3678ZM52.5633 61.3933C52.2579 61.6987 51.761 61.6986 51.4556 61.3933C51.1502 61.0879 51.1502 60.591 51.4556 60.2857C51.6083 60.133 51.8089 60.0567 52.0095 60.0567C52.2101 60.0567 52.4106 60.133 52.5633 60.2857C52.8686 60.591 52.8686 61.0879 52.5633 61.3933Z" fill="white"/>
<path d="M46.8115 37.6606C46.8115 36.1882 45.7346 34.941 44.2602 34.5357C44.3038 34.3557 44.3281 34.1705 44.3281 33.9814C44.3281 32.5873 43.0907 31.4532 41.57 31.4532C40.7463 31.4532 40.0063 31.7863 39.5005 32.3129C38.9947 31.7863 38.2546 31.4532 37.4309 31.4532C35.9102 31.4532 34.6729 32.5873 34.6729 33.9814C34.6729 34.1705 34.6972 34.3557 34.7408 34.5357C33.2664 34.9409 32.1895 36.1881 32.1895 37.6606C32.1895 38.3802 32.4441 39.0592 32.9146 39.6199C32.4546 40.2153 32.1895 40.9382 32.1895 41.7079C32.1893 42.8785 32.8148 43.9715 33.845 44.6495C33.845 44.65 33.845 44.6506 33.845 44.6511C33.845 46.248 35.2679 47.5472 37.017 47.5472C38.0222 47.5472 38.919 47.1177 39.5005 46.4496C40.082 47.1177 40.9788 47.5472 41.984 47.5472C43.6672 47.5472 45.0478 46.3438 45.1493 44.8299C46.1716 44.2367 46.8115 43.1976 46.8115 42.0757C46.8115 41.2504 46.4597 40.4632 45.8541 39.8682C46.4596 39.2731 46.8115 38.4858 46.8115 37.6606ZM44.3749 40.477C45.0383 40.8271 45.4343 41.4248 45.4343 42.0757C45.4343 42.561 45.2088 43.0239 44.8278 43.3701C44.4659 42.6999 43.8261 42.1664 43.0179 41.9125C42.6553 41.7986 42.2687 42.0002 42.1547 42.3629C42.0407 42.7257 42.2425 43.1122 42.6051 43.2261C43.307 43.4467 43.7787 44.0194 43.7787 44.6512C43.7787 45.4889 42.9734 46.1704 41.9836 46.1704C40.9938 46.1704 40.1886 45.4889 40.1886 44.6512V40.2361C40.1886 39.3984 40.9938 38.717 41.9836 38.717C42.3638 38.717 42.6721 38.4088 42.6721 38.0286C42.6721 37.6483 42.3638 37.3401 41.9836 37.3401C41.3177 37.3401 40.6994 37.5288 40.1886 37.8502V36.9708C40.1886 36.5906 39.8804 36.2823 39.5001 36.2823C39.1199 36.2823 38.8117 36.5906 38.8117 36.9708V40.7929C38.58 40.6475 38.3259 40.5272 38.051 40.4408C37.6881 40.3268 37.3018 40.5286 37.1879 40.8911C37.0739 41.2539 37.2755 41.6404 37.6382 41.7544C38.3401 41.975 38.8117 42.5477 38.8117 43.1795V44.6511C38.8117 45.4888 38.0064 46.1703 37.0167 46.1703C36.0268 46.1703 35.2216 45.4888 35.2216 44.6511C35.2216 44.2921 35.3738 43.9431 35.6501 43.6685C35.9198 43.4004 35.9211 42.9645 35.653 42.6948C35.385 42.4251 34.9491 42.4238 34.6794 42.6918C34.5145 42.8559 34.3725 43.0351 34.2544 43.2255C33.8197 42.8143 33.5659 42.2732 33.5659 41.7077C33.5659 40.6876 34.3664 39.7915 35.5127 39.5285C35.8833 39.4435 36.1148 39.0741 36.0298 38.7035C35.9448 38.3329 35.5753 38.1015 35.2048 38.1865C34.7433 38.2923 34.3185 38.469 33.9418 38.701C33.6975 38.3942 33.5659 38.0349 33.5659 37.6605C33.5662 36.6249 34.5479 35.7818 35.758 35.7739C35.7642 35.774 35.7703 35.7749 35.7764 35.7749C35.9336 35.7749 36.0915 35.7214 36.2209 35.6118C36.4848 35.3884 36.5378 35.0093 36.3606 34.7241C36.3554 34.7156 36.3506 34.707 36.3451 34.6988C36.3422 34.6947 36.3388 34.6908 36.3359 34.6866C36.3253 34.6717 36.3143 34.657 36.3025 34.6428C36.3021 34.6424 36.3018 34.6419 36.3015 34.6416C36.1866 34.5058 36.0496 34.2811 36.0496 33.9813C36.0496 33.3465 36.6692 32.83 37.4307 32.83C38.1921 32.83 38.8117 33.3465 38.8117 33.9813C38.8117 34.3615 39.12 34.6697 39.5002 34.6697C39.8804 34.6697 40.1887 34.3615 40.1887 33.9813C40.1887 33.3465 40.8083 32.83 41.5698 32.83C42.3312 32.83 42.9509 33.3465 42.9509 33.9813C42.9509 34.1509 42.9064 34.2956 42.8476 34.4145C42.456 34.4515 42.0772 34.5462 41.7177 34.6978C41.3673 34.8455 41.203 35.2493 41.3507 35.5997C41.4984 35.95 41.9023 36.1144 42.2526 35.9666C42.5503 35.8411 42.8704 35.7766 43.2044 35.774C43.211 35.7742 43.2175 35.7749 43.2241 35.7749C43.2303 35.7749 43.2363 35.774 43.2425 35.7739C44.4526 35.7818 45.4343 36.6249 45.4343 37.6605C45.4343 38.3114 45.0383 38.909 44.3749 39.2592C44.1491 39.3783 44.0077 39.6127 44.0077 39.8681C44.0077 40.1235 44.1491 40.3578 44.3749 40.477Z" fill="white"/>
</g>
<defs>
<clipPath id="clip0">
<rect width="47" height="47" fill="white" transform="translate(16 16)"/>
</clipPath>
</defs>
</svg>
