<svg width="651" height="651" viewBox="0 0 651 651" fill="none" xmlns="http://www.w3.org/2000/svg">
<path d="M353.775 456.279C318.101 456.279 279.956 445.649 246.425 424.059C205.478 397.69 178.291 359.537 171.782 319.489C167.004 289.741 174.007 262.218 192.049 239.804C235.714 185.665 331.036 180.144 404.608 227.608C445.554 253.978 472.742 292.131 479.25 332.179C484.029 361.927 477.026 389.45 458.983 411.864C435.256 441.199 396.287 456.279 353.775 456.279ZM297.258 196.377C255.158 196.377 216.518 211.292 193.038 240.463C175.16 262.63 168.239 289.906 173.018 319.242C179.444 358.96 206.467 396.784 247.166 422.988C320.244 470.041 414.906 464.685 458.159 411.04C476.037 388.873 482.958 361.597 478.179 332.261C471.753 292.543 444.73 254.719 404.031 228.515C370.582 207.007 332.684 196.377 297.258 196.377Z" fill="url(#paint0_linear)"/>
<path d="M342.076 462.872C317.195 462.872 291.408 457.763 266.609 447.05C222.862 428.015 189.33 394.312 174.665 354.511C163.049 323.115 164.284 290.153 178.125 261.724C210.668 194.894 303.189 169.266 384.505 204.535C428.252 223.571 461.784 257.274 476.449 297.075C488.065 328.471 486.83 361.432 472.989 389.862C450.332 436.255 398.758 462.872 342.076 462.872ZM178.62 261.971L179.197 262.218C165.52 290.318 164.284 322.95 175.819 354.016C190.401 393.488 223.686 426.944 267.103 445.814C347.843 480.836 439.704 455.538 471.918 389.285C485.594 361.185 486.83 328.553 475.295 297.487C460.713 258.015 427.429 224.559 384.011 205.689C303.354 170.667 211.41 196.048 179.197 262.218L178.62 261.971Z" fill="url(#paint1_linear)"/>
<path d="M332.356 472.266C318.679 472.266 304.756 470.7 290.75 467.322C246.426 456.691 208.116 429.416 185.624 392.499C165.934 360.196 159.837 323.115 168.488 288.011L169.147 288.175L168.488 288.011C187.684 209.974 273.696 163.416 360.202 184.264C404.527 194.894 442.837 222.17 465.328 259.087C485.019 291.389 491.115 328.471 482.465 363.575C466.482 428.921 403.373 472.266 332.356 472.266ZM318.679 180.556C248.238 180.556 185.707 223.488 169.806 288.34C161.238 323.115 167.334 359.867 186.778 391.922C209.022 428.509 247.085 455.538 291.08 466.168C376.927 486.851 462.28 440.705 481.229 363.328C489.797 328.553 483.701 291.801 464.257 259.746C442.013 223.159 403.95 196.13 359.955 185.5C346.114 182.121 332.191 180.556 318.679 180.556Z" fill="url(#paint2_linear)"/>
<path d="M326.507 484.132C323.788 484.132 321.152 484.05 318.433 483.967C229.455 479.682 160.25 405.271 164.204 318.006C166.099 276.309 184.224 237.827 215.284 209.48C247.25 180.309 288.938 165.476 332.603 167.536C421.581 171.821 490.787 246.232 486.832 333.498C484.937 375.194 466.812 413.677 435.752 442.024C405.763 469.382 367.206 484.132 326.507 484.132ZM324.53 168.69C284.16 168.69 245.932 183.357 216.191 210.468C185.378 238.568 167.417 276.804 165.523 318.088C161.65 404.612 230.279 478.364 318.515 482.649C361.851 484.709 403.209 469.958 434.928 441.035C465.741 412.935 483.701 374.699 485.596 333.415C489.468 246.891 420.84 173.139 332.603 168.854C329.885 168.772 327.248 168.69 324.53 168.69Z" fill="url(#paint3_linear)"/>
<path d="M324.857 497.893C292.067 497.893 260.019 487.263 232.831 466.992C196.004 439.551 172.112 398.349 165.685 350.967C152.833 257.109 214.129 169.431 302.283 155.505C343.229 149.077 384.34 159.378 418.202 184.511C455.029 211.952 478.921 253.154 485.347 300.536C498.117 394.394 436.821 482.072 348.667 495.998C340.758 497.234 332.766 497.893 324.857 497.893ZM326.175 155.011C318.348 155.011 310.439 155.587 302.53 156.906C215.118 170.667 154.316 257.686 167.004 350.802C173.43 397.855 197.075 438.727 233.572 465.921C267.104 490.889 307.885 501.107 348.42 494.68C435.832 480.918 496.634 393.9 483.946 300.783C477.52 253.73 453.875 212.858 417.295 185.665C390.437 165.558 358.718 155.011 326.175 155.011Z" fill="url(#paint4_linear)"/>
<path d="M328.895 512.479C307.639 512.479 286.383 507.617 266.281 498.058C223.027 477.375 189.166 436.502 173.348 385.824C142.865 288.34 186.365 182.121 270.235 148.995C307.392 134.327 348.008 135.893 384.753 153.445C428.006 174.128 461.867 215.001 477.686 265.679C508.169 363.163 464.668 469.382 380.798 502.508C363.992 509.183 346.443 512.479 328.895 512.479ZM322.139 140.507C304.755 140.507 287.372 143.804 270.729 150.396C187.519 183.275 144.513 288.67 174.749 385.412C190.484 435.678 224.098 476.304 266.94 496.822C303.272 514.209 343.56 515.775 380.304 501.272C463.433 468.393 506.521 362.916 476.285 266.173C460.549 215.907 426.935 175.282 384.094 154.763C364.239 145.287 343.148 140.507 322.139 140.507Z" fill="url(#paint5_linear)"/>
<path d="M337.38 527.064C326.093 527.064 314.724 525.664 303.437 522.697C255.652 510.419 213.47 473.419 187.518 421.34C139.075 323.691 161.402 201.322 237.445 148.665C270.07 126.004 309.204 118.918 347.596 128.806C395.381 141.084 437.563 178.084 463.515 230.163C511.958 327.812 489.631 450.181 413.588 502.838C390.52 518.824 364.321 527.064 337.38 527.064ZM188.919 420.681C214.624 472.431 256.476 509.1 303.849 521.296C341.747 531.02 380.386 524.098 412.764 501.684C488.148 449.357 510.311 327.894 462.197 230.905C436.492 179.155 394.639 142.485 347.267 130.289C309.369 120.566 270.729 127.488 238.433 149.901C162.967 202.228 140.805 323.691 188.919 420.681Z" fill="url(#paint6_linear)"/>
<path d="M349.821 540.743C347.267 540.743 344.796 540.661 342.242 540.496C292.727 537.612 243.871 506.875 208.28 456.279C142.123 362.174 140.723 227.032 205.232 155.011C232.749 124.274 269.576 108.617 308.792 110.924C358.307 113.809 407.162 144.545 442.754 195.141C508.91 289.247 510.311 424.389 445.802 496.41C420.015 525.169 386.154 540.743 349.821 540.743ZM301.213 112.325C265.292 112.325 231.843 127.735 206.385 156.082C142.371 227.608 143.771 361.844 209.516 455.373C244.86 505.557 293.221 536.046 342.242 538.931C380.963 541.238 417.296 525.746 444.484 495.339C508.499 423.895 507.098 289.576 441.353 196.048C406.009 145.864 357.648 115.374 308.628 112.49C306.238 112.408 303.684 112.325 301.213 112.325Z" fill="url(#paint7_linear)"/>
<path d="M364.815 552.692C320.821 552.692 274.437 530.196 235.303 489.323C152.422 402.634 125.316 258.839 174.831 168.607C196.334 129.465 230.113 105.074 269.823 99.7999C318.514 93.3723 371.736 116.116 415.73 162.097C498.612 248.869 525.717 392.664 476.203 482.896C454.699 522.038 420.921 546.429 381.21 551.703C375.773 552.362 370.335 552.692 364.815 552.692ZM286.218 100.459C280.781 100.459 275.425 100.789 270.07 101.53C230.854 106.639 197.57 130.784 176.314 169.431C127.046 259.004 154.069 402.058 236.539 488.17C280.204 533.739 332.849 556.318 381.046 549.973C420.262 544.864 453.546 520.719 474.802 482.072C524.069 392.499 497.046 249.445 414.577 163.333C375.773 122.791 329.801 100.459 286.218 100.459Z" fill="url(#paint8_linear)"/>
<path d="M381.375 562.333C344.795 562.333 305.167 547.418 268.093 518.906C170.217 443.672 116.171 295.839 147.643 189.373C161.814 141.496 191.556 107.958 231.513 95.0204C277.32 80.1053 332.52 93.7844 382.941 132.514C480.816 207.749 534.862 355.582 503.473 462.048C489.302 509.924 459.561 543.463 419.603 556.4C407.41 560.438 394.64 562.333 381.375 562.333ZM269.658 90.9002C256.641 90.9002 244.036 92.7955 232.09 96.6685C192.627 109.441 163.214 142.568 149.291 189.867C118.066 295.674 171.783 442.683 269.164 517.588C319.091 555.988 373.713 569.585 419.026 554.834C458.407 542.062 487.819 508.936 501.825 461.636C533.132 355.829 479.333 208.82 381.952 133.915C345.125 105.651 305.826 90.9002 269.658 90.9002Z" fill="url(#paint9_linear)"/>
<path d="M397.606 569.667C368.852 569.667 337.711 561.015 306.074 543.792C195.593 483.802 114.36 337.288 124.905 217.226C129.849 160.614 154.482 117.682 194.193 96.3389C236.21 73.6778 289.844 77.798 345.043 107.793C455.524 167.783 536.758 314.297 526.213 434.36C521.269 490.972 496.636 533.904 456.924 555.247C438.965 564.805 418.944 569.667 397.606 569.667ZM253.512 83.6487C232.42 83.6487 212.648 88.3457 194.934 97.9046C155.8 118.918 131.579 161.356 126.635 217.308C116.172 336.794 196.994 482.484 306.898 542.144C361.603 571.81 414.578 575.93 456.184 553.599C495.317 532.586 519.538 490.148 524.482 434.195C534.945 314.709 454.124 169.019 344.22 109.359C312.83 92.3011 281.935 83.6487 253.512 83.6487Z" fill="url(#paint10_linear)"/>
<path d="M412.601 573.952C392.251 573.952 370.501 570.079 347.927 562.333C228.054 521.296 120.292 381.869 107.769 251.506C101.507 186.736 119.303 134.327 157.86 103.92C194.687 74.8315 246.261 69.64 303.108 89.0873C422.981 130.207 530.744 269.717 543.266 399.997C549.528 464.767 531.732 517.176 493.175 547.583C471.013 565.053 443.413 573.952 412.601 573.952ZM238.517 79.4461C208.034 79.4461 180.846 88.1809 159.013 105.403C121.033 135.398 103.485 187.23 109.664 251.341C122.104 380.962 229.29 519.73 348.586 560.603C404.856 579.885 455.854 574.776 492.104 546.1C530.085 516.105 547.633 464.273 541.454 400.162C529.014 270.541 421.828 131.773 302.532 90.9002C280.122 83.2367 258.619 79.4461 238.517 79.4461Z" fill="url(#paint11_linear)"/>
<path d="M423.558 575.93C413.589 575.93 403.291 575.106 392.663 573.54C267.105 554.587 134.792 428.097 97.6351 291.719C78.5214 221.428 87.8311 158.307 123.175 118.506C153.988 83.8959 202.02 69.4752 258.455 78.0452C384.012 96.9981 516.326 223.488 553.483 359.867C572.596 430.157 563.287 493.279 527.943 533.08C502.897 561.18 466.482 575.93 423.558 575.93ZM227.559 77.5508C185.13 77.5508 149.292 92.0539 124.658 119.824C89.726 159.131 80.4986 221.593 99.53 291.224C136.522 426.944 268.176 552.774 392.993 571.645C448.769 580.05 496.141 565.877 526.542 531.761C561.474 492.455 570.701 429.993 551.67 360.361C514.596 224.559 382.941 98.811 258.125 79.9405C247.662 78.2924 237.364 77.5508 227.559 77.5508Z" fill="url(#paint12_linear)"/>
<path d="M428.747 576.424C303.849 576.424 156.046 471.03 95.1624 336.711C61.4661 262.465 59.8184 191.103 90.6311 140.837C114.935 101.118 158.188 77.8804 212.399 75.4083C339.275 69.64 493.339 177.095 555.871 314.957C589.567 389.203 591.215 460.564 560.402 510.831C536.098 550.55 492.845 573.787 438.634 576.26C435.421 576.342 432.125 576.424 428.747 576.424ZM438.552 574.117L438.634 575.106L438.552 574.117C492.021 571.645 534.697 548.819 558.672 509.677C589.073 460.07 587.342 389.367 553.976 315.698C491.773 178.496 338.616 71.6177 212.482 77.386C159.012 79.8581 116.336 102.684 92.3612 141.826C61.9604 191.433 63.6906 262.136 97.0573 335.805C159.259 473.007 312.499 579.885 438.552 574.117Z" fill="url(#paint13_linear)"/>
<path d="M427.183 576.507C312.171 576.507 176.232 499.542 101.425 385.082C52.6518 310.424 38.069 232.8 61.4673 171.986C78.8509 126.664 115.266 95.5973 166.675 82.083C290.174 49.5334 461.951 132.267 549.61 266.421C598.383 341.079 612.966 418.703 589.568 479.517C572.102 524.84 535.769 555.906 484.36 569.42C466.235 574.2 447.038 576.507 427.183 576.507ZM223.934 77.1388C204.244 77.1388 185.213 79.4461 167.17 84.1431C116.502 97.4926 80.581 128.147 63.4445 172.81C40.2938 232.965 54.7939 309.93 103.237 383.929C190.485 517.341 361.191 599.662 483.866 567.36C534.534 554.011 570.454 523.356 587.591 478.693C610.742 418.538 596.241 341.573 547.798 267.574C473.402 153.774 338.205 77.1388 223.934 77.1388Z" fill="url(#paint14_linear)"/>
<path d="M417.626 577.743C314.972 577.743 197.159 525.334 116.831 435.514C53.6405 364.811 24.7223 283.89 37.4922 213.435C46.6376 163.004 76.2146 123.285 123.01 98.7286C238.023 38.4089 422.486 90.9826 534.203 215.989C597.394 286.692 626.313 367.613 613.543 437.986C604.398 488.417 574.82 528.136 528.024 552.692L527.531 551.703L528.024 552.692C495.646 569.667 457.749 577.743 417.626 577.743ZM233.491 75.9851C193.616 75.9851 156.13 83.9783 124.081 100.789C77.8623 125.015 48.6973 164.157 39.6347 213.929C27.0291 283.561 55.7826 363.822 118.479 434.03C198.312 523.356 315.549 575.6 417.544 575.6C457.419 575.6 494.905 567.607 526.953 550.797C573.172 526.57 602.337 487.428 611.4 437.656C624.005 367.942 595.334 287.681 532.555 217.473C452.722 128.147 335.487 75.9851 233.491 75.9851Z" fill="url(#paint15_linear)"/>
<path d="M399.749 581.946C313.242 581.946 217.92 549.149 141.548 486.027C66.1636 423.812 22.3334 343.633 21.3447 265.926C20.6032 210.139 42.1066 161.603 83.4649 125.675C184.883 37.4201 376.021 55.2193 509.488 165.476C584.872 227.691 628.702 307.952 629.691 385.577C630.432 441.364 608.929 489.9 567.571 525.828C524.235 563.569 464.422 581.946 399.749 581.946ZM251.287 71.8649C187.19 71.8649 127.871 89.9938 84.8654 127.405C44.0839 162.921 22.9101 210.798 23.6516 265.926C24.6402 342.892 68.1409 422.494 143.031 484.297C275.674 593.812 465.494 611.693 566.17 524.098L566.912 525.004L566.17 524.098C606.952 488.582 628.208 440.705 627.466 385.577C626.478 308.612 582.977 229.009 508.088 167.206C432.044 104.497 337.299 71.8649 251.287 71.8649Z" fill="url(#paint16_linear)"/>
<path d="M376.516 590.845C309.865 590.845 239.177 572.551 175.409 534.893C91.2918 485.203 33.291 410.216 16.3193 329.295C3.71406 269.222 15.4954 209.974 49.604 162.509C132.403 47.3085 323.458 26.7075 475.627 116.61C559.744 166.382 617.745 241.287 634.717 322.208C647.322 382.281 635.54 441.529 601.432 488.994L600.444 488.334L601.432 488.994C553.401 555.906 468.789 590.845 376.516 590.845ZM274.438 62.9653C182.989 62.9653 99.1186 97.6573 51.5813 163.91C17.3903 211.54 6.0209 268.563 18.6261 328.8C35.5154 409.062 93.1043 483.473 176.645 532.833C240.083 570.326 310.359 588.538 376.598 588.538C468.048 588.538 551.918 553.846 599.455 487.593C633.646 439.963 645.015 383.022 632.327 322.703C615.52 242.441 557.932 168.03 474.391 118.67C410.953 81.1766 340.677 62.9653 274.438 62.9653Z" fill="url(#paint17_linear)"/>
<path d="M353.53 605.513C308.958 605.513 262.904 597.273 218.085 579.968C129.437 545.688 59.3256 480.671 25.8762 401.563C-1.14669 337.7 -2.05295 269.305 23.487 208.903C82.7235 68.7336 266.447 7.09541 433.033 71.5353C521.682 105.815 591.711 170.832 625.242 249.94C652.265 313.803 653.171 382.198 627.631 442.6C584.213 545.028 474.474 605.513 353.53 605.513ZM297.506 48.4622C177.551 48.4622 68.7177 108.37 25.7939 209.892C0.501046 269.634 1.32491 337.37 28.1831 400.657C61.3853 479.105 130.92 543.628 218.909 577.66C384.178 641.606 566.5 580.545 625.242 441.612C650.535 381.869 649.711 314.133 622.853 250.846C589.568 172.398 520.034 107.875 432.044 73.8426C387.556 56.6202 341.748 48.4622 297.506 48.4622Z" fill="url(#paint18_linear)"/>
<path d="M335.651 625.784C313.571 625.784 291.08 623.642 268.423 619.274C183.318 602.711 109.169 556.647 59.737 489.488C10.3046 422.329 -8.56199 342.15 6.67961 263.784C38.1515 101.942 206.715 -1.88663 382.529 32.2286C558.343 66.4263 675.745 225.878 644.355 387.719L643.12 387.472L644.355 387.719C616.92 528.795 485.348 625.784 335.651 625.784ZM315.384 28.3556C166.923 28.3556 36.4213 124.439 9.23361 264.278C-5.84322 341.985 12.8586 421.423 61.8791 487.922C110.899 554.505 184.471 600.239 269 616.637C291.409 621.005 313.736 623.065 335.734 623.065C484.195 623.065 614.696 526.982 641.884 387.142C672.944 226.867 556.448 68.7336 382.035 34.7831C359.626 30.4981 337.299 28.3556 315.384 28.3556Z" fill="url(#paint19_linear)"/>
<path d="M325.518 650.67C146.409 650.67 0.666016 504.898 0.666016 325.752C0.666016 146.605 146.409 0.832703 325.518 0.832703C504.627 0.832703 650.37 146.605 650.37 325.752C650.37 504.898 504.627 650.67 325.518 650.67ZM325.518 3.55203C147.892 3.55203 3.38479 148.089 3.38479 325.752C3.38479 503.414 147.892 647.951 325.518 647.951C503.144 647.951 647.651 503.414 647.651 325.752C647.651 148.089 503.144 3.55203 325.518 3.55203Z" fill="url(#paint20_linear)"/>
<defs>
<linearGradient id="paint0_linear" x1="325.516" y1="195.316" x2="325.516" y2="456.279" gradientUnits="userSpaceOnUse">
<stop stop-color="#3BBEAA"/>
<stop offset="1" stop-color="#BB6DF3"/>
</linearGradient>
<linearGradient id="paint1_linear" x1="325.557" y1="188.701" x2="325.557" y2="462.872" gradientUnits="userSpaceOnUse">
<stop stop-color="#3BBEAA"/>
<stop offset="1" stop-color="#BB6DF3"/>
</linearGradient>
<linearGradient id="paint2_linear" x1="325.476" y1="179.286" x2="325.476" y2="472.266" gradientUnits="userSpaceOnUse">
<stop stop-color="#3BBEAA"/>
<stop offset="1" stop-color="#BB6DF3"/>
</linearGradient>
<linearGradient id="paint3_linear" x1="325.518" y1="167.347" x2="325.518" y2="484.132" gradientUnits="userSpaceOnUse">
<stop stop-color="#3BBEAA"/>
<stop offset="1" stop-color="#BB6DF3"/>
</linearGradient>
<linearGradient id="paint4_linear" x1="325.506" y1="153.64" x2="325.506" y2="497.893" gradientUnits="userSpaceOnUse">
<stop stop-color="#3BBEAA"/>
<stop offset="1" stop-color="#BB6DF3"/>
</linearGradient>
<linearGradient id="paint5_linear" x1="325.517" y1="139.033" x2="325.517" y2="512.479" gradientUnits="userSpaceOnUse">
<stop stop-color="#3BBEAA"/>
<stop offset="1" stop-color="#BB6DF3"/>
</linearGradient>
<linearGradient id="paint6_linear" x1="325.516" y1="124.451" x2="325.516" y2="527.064" gradientUnits="userSpaceOnUse">
<stop stop-color="#3BBEAA"/>
<stop offset="1" stop-color="#BB6DF3"/>
</linearGradient>
<linearGradient id="paint7_linear" x1="325.517" y1="110.702" x2="325.517" y2="540.743" gradientUnits="userSpaceOnUse">
<stop stop-color="#3BBEAA"/>
<stop offset="1" stop-color="#BB6DF3"/>
</linearGradient>
<linearGradient id="paint8_linear" x1="325.517" y1="98.7303" x2="325.517" y2="552.692" gradientUnits="userSpaceOnUse">
<stop stop-color="#3BBEAA"/>
<stop offset="1" stop-color="#BB6DF3"/>
</linearGradient>
<linearGradient id="paint9_linear" x1="325.539" y1="89.1218" x2="325.539" y2="562.333" gradientUnits="userSpaceOnUse">
<stop stop-color="#3BBEAA"/>
<stop offset="1" stop-color="#BB6DF3"/>
</linearGradient>
<linearGradient id="paint10_linear" x1="325.559" y1="81.8892" x2="325.559" y2="569.667" gradientUnits="userSpaceOnUse">
<stop stop-color="#3BBEAA"/>
<stop offset="1" stop-color="#BB6DF3"/>
</linearGradient>
<linearGradient id="paint11_linear" x1="325.518" y1="77.5298" x2="325.518" y2="573.952" gradientUnits="userSpaceOnUse">
<stop stop-color="#3BBEAA"/>
<stop offset="1" stop-color="#BB6DF3"/>
</linearGradient>
<linearGradient id="paint12_linear" x1="325.559" y1="75.6316" x2="325.559" y2="575.93" gradientUnits="userSpaceOnUse">
<stop stop-color="#3BBEAA"/>
<stop offset="1" stop-color="#BB6DF3"/>
</linearGradient>
<linearGradient id="paint13_linear" x1="325.517" y1="75.1872" x2="325.517" y2="576.424" gradientUnits="userSpaceOnUse">
<stop stop-color="#3BBEAA"/>
<stop offset="1" stop-color="#BB6DF3"/>
</linearGradient>
<linearGradient id="paint14_linear" x1="325.518" y1="75" x2="325.518" y2="576.507" gradientUnits="userSpaceOnUse">
<stop stop-color="#3BBEAA"/>
<stop offset="1" stop-color="#BB6DF3"/>
</linearGradient>
<linearGradient id="paint15_linear" x1="325.517" y1="73.7246" x2="325.517" y2="577.743" gradientUnits="userSpaceOnUse">
<stop stop-color="#3BBEAA"/>
<stop offset="1" stop-color="#BB6DF3"/>
</linearGradient>
<linearGradient id="paint16_linear" x1="325.518" y1="69.5726" x2="325.518" y2="581.945" gradientUnits="userSpaceOnUse">
<stop stop-color="#3BBEAA"/>
<stop offset="1" stop-color="#BB6DF3"/>
</linearGradient>
<linearGradient id="paint17_linear" x1="325.518" y1="60.6338" x2="325.518" y2="590.845" gradientUnits="userSpaceOnUse">
<stop stop-color="#3BBEAA"/>
<stop offset="1" stop-color="#BB6DF3"/>
</linearGradient>
<linearGradient id="paint18_linear" x1="325.559" y1="45.977" x2="325.559" y2="605.513" gradientUnits="userSpaceOnUse">
<stop stop-color="#3BBEAA"/>
<stop offset="1" stop-color="#BB6DF3"/>
</linearGradient>
<linearGradient id="paint19_linear" x1="325.482" y1="25.7418" x2="325.482" y2="625.784" gradientUnits="userSpaceOnUse">
<stop stop-color="#3BBEAA"/>
<stop offset="1" stop-color="#BB6DF3"/>
</linearGradient>
<linearGradient id="paint20_linear" x1="325.518" y1="0.833676" x2="325.518" y2="650.67" gradientUnits="userSpaceOnUse">
<stop stop-color="#3BBEAA"/>
<stop offset="1" stop-color="#BB6DF3"/>
</linearGradient>
</defs>
</svg>
