<svg width="348" height="310" viewBox="0 0 348 310" fill="none" xmlns="http://www.w3.org/2000/svg">
<path d="M36.4187 80.4726C37.9306 80.4726 39.1562 79.2475 39.1562 77.7363C39.1562 76.2251 37.9306 75 36.4187 75C34.9068 75 33.6812 76.2251 33.6812 77.7363C33.6812 79.2475 34.9068 80.4726 36.4187 80.4726Z" fill="white"/>
<path d="M344.28 169.564C345.992 169.564 347.381 168.176 347.381 166.464C347.381 164.752 345.992 163.364 344.28 163.364H332.532V154.926H344.28C345.992 154.926 347.381 153.538 347.381 151.826C347.381 150.114 345.992 148.726 344.28 148.726H332.532V143.655C332.532 142.833 332.206 142.045 331.625 141.463L322.657 132.492C322.075 131.911 321.286 131.584 320.463 131.584H315.388V119.852C315.388 118.14 314 116.752 312.287 116.752C310.575 116.752 309.186 118.14 309.186 119.852V131.584H300.742V119.852C300.742 118.14 299.354 116.752 297.64 116.752C295.928 116.752 294.539 118.14 294.539 119.852V131.584H286.104V120.475C286.104 110.147 277.697 101.745 267.362 101.745C258.908 101.745 251.56 107.457 249.319 115.392C242.874 116.047 236.902 118.895 232.295 123.558C227.091 128.824 224.225 135.803 224.225 143.206C224.225 146.88 224.951 150.519 226.343 153.893C221.989 156.205 218.254 159.53 215.423 163.639C211.876 168.787 210.001 174.823 210.001 181.094C210.001 192.637 216.315 202.991 226.341 208.303C224.951 211.671 224.226 215.306 224.226 218.981C224.226 226.385 227.091 233.363 232.295 238.629C236.903 243.292 242.874 246.14 249.319 246.795C251.56 254.736 258.908 260.451 267.363 260.451C277.697 260.451 286.104 252.049 286.104 241.72V230.603H294.54V242.345C294.54 244.056 295.929 245.444 297.641 245.444C299.354 245.444 300.742 244.056 300.742 242.345V230.603H309.187V242.345C309.187 244.056 310.575 245.444 312.288 245.444C314 245.444 315.389 244.056 315.389 242.345V230.603H320.464C321.286 230.603 322.075 230.277 322.657 229.696L331.624 220.733C332.205 220.152 332.533 219.364 332.533 218.542V213.461H344.28C345.992 213.461 347.381 212.073 347.381 210.361C347.381 208.65 345.992 207.262 344.28 207.262H332.532V198.832H344.28C345.992 198.832 347.381 197.444 347.381 195.732C347.381 194.02 345.992 192.632 344.28 192.632H332.532V184.193H344.28C345.992 184.193 347.381 182.805 347.381 181.094C347.381 179.382 345.992 177.994 344.28 177.994H332.532V169.564H344.28ZM267.363 254.252C262.219 254.252 257.689 251.09 255.783 246.523C258.045 246.119 260.25 245.431 262.371 244.458C265.453 243.044 268.21 241.108 270.564 238.704C271.762 237.481 271.741 235.519 270.517 234.321C269.293 233.123 267.33 233.144 266.132 234.368C264.31 236.227 262.174 237.727 259.784 238.823C257.258 239.981 254.581 240.623 251.827 240.735C240.02 240.54 230.428 230.798 230.428 218.98C230.428 215.246 231.388 211.567 233.204 208.339C233.641 207.561 233.722 206.633 233.426 205.791C233.13 204.949 232.485 204.276 231.656 203.944C222.269 200.175 216.204 191.206 216.204 181.094C216.204 170.979 222.268 162.013 231.654 158.253C233.499 157.256 234.015 155.791 233.206 153.859C231.389 150.622 230.428 146.938 230.428 143.207C230.428 131.388 240.02 121.647 251.827 121.452C254.564 121.563 257.244 122.206 259.783 123.363C262.178 124.462 264.312 125.962 266.127 127.824C266.735 128.446 267.541 128.76 268.348 128.76C269.128 128.76 269.909 128.467 270.512 127.879C271.739 126.685 271.764 124.722 270.568 123.496C268.219 121.088 265.46 119.147 262.363 117.725C260.236 116.756 258.033 116.07 255.783 115.666C257.689 111.103 262.219 107.944 267.363 107.944C274.277 107.944 279.902 113.566 279.902 120.475V158.479H270.248L262.021 150.256C262.896 148.658 263.363 146.858 263.363 144.985C263.363 142.048 262.219 139.287 260.14 137.21C255.85 132.922 248.871 132.922 244.581 137.21C242.502 139.287 241.358 142.048 241.358 144.985C241.358 147.922 242.502 150.684 244.581 152.761C246.725 154.904 249.543 155.976 252.36 155.976C254.178 155.976 255.993 155.528 257.63 154.635L266.77 163.77C267.432 164.362 268.163 164.665 268.963 164.678H279.902V177.993H260.468C259.125 173.438 254.902 170.103 249.912 170.103C243.849 170.103 238.916 175.033 238.916 181.093C238.916 187.157 243.849 192.092 249.912 192.092C254.903 192.092 259.126 188.752 260.469 184.193H279.902V197.508H268.963C268.88 197.508 268.809 197.513 268.743 197.519C268.024 197.569 267.319 197.867 266.769 198.416L257.629 207.559C253.455 205.285 248.109 205.908 244.58 209.434C242.5 211.513 241.356 214.277 241.358 217.217C241.359 220.151 242.506 222.909 244.58 224.977C246.726 227.121 249.543 228.193 252.361 228.193C255.178 228.193 257.994 227.122 260.137 224.98C262.215 222.909 263.36 220.152 263.362 217.217C263.364 215.342 262.897 213.539 262.019 211.939L270.248 203.708H279.901V241.72C279.902 248.631 274.277 254.252 267.363 254.252ZM257.161 144.986C257.161 146.267 256.661 147.472 255.755 148.377C253.883 150.248 250.838 150.248 248.967 148.377C248.06 147.472 247.561 146.267 247.561 144.986C247.561 143.705 248.06 142.499 248.967 141.594C250.838 139.723 253.883 139.723 255.755 141.594C256.661 142.499 257.161 143.704 257.161 144.986ZM254.715 181.094C254.715 183.74 252.56 185.893 249.912 185.893C247.269 185.893 245.118 183.74 245.118 181.094C245.118 178.453 247.269 176.303 249.912 176.303C252.56 176.303 254.715 178.452 254.715 181.094ZM257.161 217.213C257.16 218.49 256.662 219.69 255.755 220.593C253.883 222.464 250.838 222.464 248.963 220.59C248.06 219.69 247.561 218.49 247.561 217.213C247.56 215.931 248.059 214.726 248.967 213.819C250.838 211.948 253.883 211.948 255.755 213.819L255.756 213.82C256.663 214.727 257.162 215.932 257.161 217.213ZM326.33 217.258L319.179 224.404H286.104V215.219H314.037C315.75 215.219 317.138 213.831 317.138 212.119V195.003C317.138 193.29 315.75 191.903 314.037 191.903C312.324 191.903 310.936 193.29 310.936 195.003V209.019H286.104V153.177H310.936V167.158C310.936 168.87 312.324 170.258 314.037 170.258C315.75 170.258 317.138 168.87 317.138 167.158V150.077C317.138 148.365 315.75 146.977 314.037 146.977H286.104V137.783H319.178L326.33 144.938V217.258Z" fill="white"/>
<path d="M36.5385 112.685H251.795" stroke="white" stroke-width="2"/>
<path d="M2.46912 184.664H212.305" stroke="white" stroke-width="2"/>
<path d="M36 78V113" stroke="white" stroke-width="2"/>
<path d="M2.88396 152.473C4.39586 152.473 5.62149 151.248 5.62149 149.736C5.62149 148.225 4.39586 147 2.88396 147C1.37206 147 0.146423 148.225 0.146423 149.736C0.146423 151.248 1.37206 152.473 2.88396 152.473Z" fill="white"/>
<path d="M3 150V185" stroke="white" stroke-width="2"/>
<path d="M48.1532 309H268.829" stroke="white" stroke-width="2"/>
<path d="M48.5681 221.473C50.08 221.473 51.3056 220.248 51.3056 218.736C51.3056 217.225 50.08 216 48.5681 216C47.0562 216 45.8306 217.225 45.8306 218.736C45.8306 220.248 47.0562 221.473 48.5681 221.473Z" fill="white"/>
<path d="M49 219V309" stroke="white" stroke-width="2"/>
<path d="M110.098 45.3506H268.83" stroke="white" stroke-width="2"/>
<path d="M110 10V46" stroke="white" stroke-width="2"/>
<path d="M267.951 44.4716V103.293" stroke="white" stroke-width="2"/>
<path d="M268 260V310" stroke="white" stroke-width="2"/>
<path d="M128.994 12.186H124.312L123.333 15H121.149L125.715 2.91406H127.599L132.173 15H129.981L128.994 12.186ZM124.901 10.4927H128.404L126.653 5.479L124.901 10.4927ZM140.822 10.6006C140.822 11.9896 140.507 13.0991 139.876 13.9292C139.245 14.7537 138.398 15.166 137.336 15.166C136.351 15.166 135.562 14.8423 134.97 14.1948V18.4531H132.953V6.01855H134.812L134.896 6.93164C135.488 6.21224 136.293 5.85254 137.311 5.85254C138.407 5.85254 139.264 6.26204 139.884 7.08105C140.51 7.89453 140.822 9.0262 140.822 10.4761V10.6006ZM138.813 10.4263C138.813 9.52979 138.634 8.81868 138.274 8.29297C137.92 7.76725 137.411 7.50439 136.747 7.50439C135.922 7.50439 135.33 7.84473 134.97 8.52539V12.5098C135.335 13.207 135.933 13.5557 136.763 13.5557C137.405 13.5557 137.906 13.2983 138.266 12.7837C138.631 12.2635 138.813 11.4777 138.813 10.4263ZM150.401 10.6006C150.401 11.9896 150.086 13.0991 149.455 13.9292C148.824 14.7537 147.978 15.166 146.915 15.166C145.93 15.166 145.141 14.8423 144.549 14.1948V18.4531H142.532V6.01855H144.392L144.475 6.93164C145.067 6.21224 145.872 5.85254 146.89 5.85254C147.986 5.85254 148.844 6.26204 149.463 7.08105C150.089 7.89453 150.401 9.0262 150.401 10.4761V10.6006ZM148.393 10.4263C148.393 9.52979 148.213 8.81868 147.853 8.29297C147.499 7.76725 146.99 7.50439 146.326 7.50439C145.501 7.50439 144.909 7.84473 144.549 8.52539V12.5098C144.915 13.207 145.512 13.5557 146.342 13.5557C146.984 13.5557 147.485 13.2983 147.845 12.7837C148.21 12.2635 148.393 11.4777 148.393 10.4263ZM156.818 7.86133C156.552 7.81706 156.278 7.79492 155.996 7.79492C155.072 7.79492 154.449 8.14909 154.128 8.85742V15H152.111V6.01855H154.037L154.087 7.02295C154.574 6.24268 155.249 5.85254 156.112 5.85254C156.4 5.85254 156.638 5.89128 156.826 5.96875L156.818 7.86133ZM161.881 15.166C160.603 15.166 159.565 14.7648 158.769 13.9624C157.977 13.1545 157.582 12.0809 157.582 10.7417V10.4927C157.582 9.59619 157.753 8.79655 158.096 8.09375C158.445 7.38542 158.932 6.8348 159.557 6.44189C160.182 6.04899 160.88 5.85254 161.649 5.85254C162.872 5.85254 163.815 6.24268 164.479 7.02295C165.149 7.80322 165.484 8.90723 165.484 10.335V11.1484H159.615C159.676 11.89 159.922 12.4766 160.354 12.9082C160.791 13.3398 161.339 13.5557 161.998 13.5557C162.922 13.5557 163.674 13.1821 164.255 12.4351L165.343 13.4727C164.983 14.0094 164.502 14.4272 163.898 14.7261C163.301 15.0194 162.628 15.166 161.881 15.166ZM161.641 7.47119C161.087 7.47119 160.639 7.66488 160.296 8.05225C159.958 8.43962 159.743 8.97917 159.648 9.6709H163.492V9.52148C163.447 8.84635 163.268 8.33724 162.952 7.99414C162.637 7.64551 162.2 7.47119 161.641 7.47119ZM168.929 6.01855L168.987 7.05615C169.651 6.25374 170.522 5.85254 171.602 5.85254C173.472 5.85254 174.424 6.92334 174.457 9.06494V15H172.44V9.18115C172.44 8.61117 172.315 8.19059 172.066 7.91943C171.823 7.64274 171.422 7.50439 170.863 7.50439C170.049 7.50439 169.443 7.8724 169.045 8.6084V15H167.028V6.01855H168.929ZM179.047 3.83545V6.01855H180.633V7.5127H179.047V12.5264C179.047 12.8695 179.114 13.1185 179.247 13.2734C179.385 13.4229 179.628 13.4976 179.977 13.4976C180.209 13.4976 180.445 13.4699 180.683 13.4146V14.9751C180.223 15.1024 179.781 15.166 179.354 15.166C177.805 15.166 177.03 14.311 177.03 12.6011V7.5127H175.553V6.01855H177.03V3.83545H179.047ZM184.327 15H182.31V6.01855H184.327V15ZM182.185 3.68604C182.185 3.37614 182.282 3.11882 182.476 2.91406C182.675 2.70931 182.957 2.60693 183.322 2.60693C183.688 2.60693 183.97 2.70931 184.169 2.91406C184.368 3.11882 184.468 3.37614 184.468 3.68604C184.468 3.9904 184.368 4.24495 184.169 4.44971C183.97 4.64893 183.688 4.74854 183.322 4.74854C182.957 4.74854 182.675 4.64893 182.476 4.44971C182.282 4.24495 182.185 3.9904 182.185 3.68604ZM191.565 12.5596C191.565 12.1999 191.416 11.9259 191.117 11.7378C190.823 11.5496 190.334 11.3836 189.647 11.2397C188.961 11.0959 188.389 10.9132 187.929 10.6919C186.922 10.2049 186.418 9.49935 186.418 8.5752C186.418 7.80046 186.745 7.15299 187.398 6.63281C188.051 6.11263 188.881 5.85254 189.888 5.85254C190.962 5.85254 191.828 6.11816 192.486 6.64941C193.15 7.18066 193.482 7.86963 193.482 8.71631H191.465C191.465 8.32894 191.321 8.00798 191.034 7.75342C190.746 7.49333 190.364 7.36328 189.888 7.36328C189.445 7.36328 189.083 7.46566 188.801 7.67041C188.524 7.87516 188.386 8.14909 188.386 8.49219C188.386 8.80208 188.516 9.04281 188.776 9.21436C189.036 9.3859 189.562 9.56022 190.353 9.7373C191.144 9.90885 191.764 10.1164 192.212 10.3599C192.666 10.5978 193.001 10.8856 193.217 11.2231C193.438 11.5607 193.549 11.9702 193.549 12.4517C193.549 13.2596 193.214 13.9154 192.544 14.4189C191.875 14.917 190.998 15.166 189.913 15.166C189.177 15.166 188.521 15.0332 187.946 14.7676C187.37 14.502 186.922 14.1367 186.601 13.6719C186.28 13.207 186.12 12.7062 186.12 12.1694H188.079C188.106 12.6453 188.286 13.0133 188.618 13.2734C188.95 13.528 189.39 13.6553 189.938 13.6553C190.469 13.6553 190.873 13.5557 191.15 13.3564C191.427 13.1517 191.565 12.8861 191.565 12.5596ZM200.347 12.5596C200.347 12.1999 200.198 11.9259 199.899 11.7378C199.606 11.5496 199.116 11.3836 198.43 11.2397C197.743 11.0959 197.171 10.9132 196.711 10.6919C195.704 10.2049 195.201 9.49935 195.201 8.5752C195.201 7.80046 195.527 7.15299 196.18 6.63281C196.833 6.11263 197.663 5.85254 198.67 5.85254C199.744 5.85254 200.61 6.11816 201.269 6.64941C201.933 7.18066 202.265 7.86963 202.265 8.71631H200.248C200.248 8.32894 200.104 8.00798 199.816 7.75342C199.528 7.49333 199.146 7.36328 198.67 7.36328C198.228 7.36328 197.865 7.46566 197.583 7.67041C197.306 7.87516 197.168 8.14909 197.168 8.49219C197.168 8.80208 197.298 9.04281 197.558 9.21436C197.818 9.3859 198.344 9.56022 199.135 9.7373C199.927 9.90885 200.546 10.1164 200.995 10.3599C201.448 10.5978 201.783 10.8856 201.999 11.2231C202.22 11.5607 202.331 11.9702 202.331 12.4517C202.331 13.2596 201.996 13.9154 201.327 14.4189C200.657 14.917 199.78 15.166 198.695 15.166C197.959 15.166 197.304 15.0332 196.728 14.7676C196.153 14.502 195.704 14.1367 195.383 13.6719C195.062 13.207 194.902 12.7062 194.902 12.1694H196.861C196.889 12.6453 197.068 13.0133 197.4 13.2734C197.732 13.528 198.172 13.6553 198.72 13.6553C199.251 13.6553 199.655 13.5557 199.932 13.3564C200.209 13.1517 200.347 12.8861 200.347 12.5596ZM209.461 15C209.373 14.8285 209.295 14.549 209.229 14.1616C208.587 14.8312 207.801 15.166 206.872 15.166C205.97 15.166 205.234 14.9087 204.664 14.394C204.094 13.8794 203.809 13.243 203.809 12.4849C203.809 11.5275 204.163 10.7943 204.871 10.2852C205.585 9.77051 206.603 9.51318 207.926 9.51318H209.163V8.92383C209.163 8.45898 209.033 8.08822 208.772 7.81152C208.512 7.5293 208.117 7.38818 207.585 7.38818C207.126 7.38818 206.75 7.50439 206.457 7.73682C206.163 7.9637 206.017 8.25423 206.017 8.6084H204C204 8.11589 204.163 7.65658 204.489 7.23047C204.816 6.79883 205.258 6.46126 205.817 6.21777C206.382 5.97428 207.01 5.85254 207.702 5.85254C208.753 5.85254 209.591 6.11816 210.217 6.64941C210.842 7.17513 211.163 7.91667 211.18 8.87402V12.9248C211.18 13.7327 211.293 14.3774 211.52 14.8589V15H209.461ZM207.245 13.5474C207.644 13.5474 208.017 13.4505 208.366 13.2568C208.72 13.0632 208.986 12.8031 209.163 12.4766V10.7832H208.075C207.328 10.7832 206.766 10.9132 206.39 11.1733C206.014 11.4334 205.826 11.8014 205.826 12.2773C205.826 12.6647 205.953 12.9746 206.208 13.207C206.468 13.4339 206.813 13.5474 207.245 13.5474ZM212.939 10.4429C212.939 9.04834 213.266 7.93604 213.919 7.10596C214.577 6.27035 215.449 5.85254 216.534 5.85254C217.557 5.85254 218.363 6.20947 218.949 6.92334L219.041 6.01855H220.858V14.7261C220.858 15.9048 220.49 16.8345 219.754 17.5151C219.024 18.1958 218.036 18.5361 216.791 18.5361C216.132 18.5361 215.488 18.3978 214.857 18.1211C214.232 17.8499 213.756 17.493 213.429 17.0503L214.384 15.8384C215.004 16.5744 215.767 16.9424 216.675 16.9424C217.344 16.9424 217.873 16.7598 218.26 16.3945C218.648 16.0348 218.841 15.5036 218.841 14.8008V14.1948C218.26 14.8423 217.486 15.166 216.517 15.166C215.466 15.166 214.605 14.7482 213.936 13.9126C213.271 13.077 212.939 11.9204 212.939 10.4429ZM214.948 10.6172C214.948 11.5192 215.131 12.2303 215.496 12.7505C215.867 13.2651 216.379 13.5225 217.032 13.5225C217.845 13.5225 218.448 13.1738 218.841 12.4766V8.52539C218.459 7.84473 217.862 7.50439 217.048 7.50439C216.384 7.50439 215.867 7.76725 215.496 8.29297C215.131 8.81868 214.948 9.59342 214.948 10.6172ZM226.893 15.166C225.615 15.166 224.577 14.7648 223.78 13.9624C222.989 13.1545 222.593 12.0809 222.593 10.7417V10.4927C222.593 9.59619 222.765 8.79655 223.108 8.09375C223.457 7.38542 223.944 6.8348 224.569 6.44189C225.194 6.04899 225.891 5.85254 226.661 5.85254C227.884 5.85254 228.827 6.24268 229.491 7.02295C230.161 7.80322 230.496 8.90723 230.496 10.335V11.1484H224.627C224.688 11.89 224.934 12.4766 225.366 12.9082C225.803 13.3398 226.351 13.5557 227.009 13.5557C227.933 13.5557 228.686 13.1821 229.267 12.4351L230.354 13.4727C229.995 14.0094 229.513 14.4272 228.91 14.7261C228.312 15.0194 227.64 15.166 226.893 15.166ZM226.652 7.47119C226.099 7.47119 225.651 7.66488 225.308 8.05225C224.97 8.43962 224.754 8.97917 224.66 9.6709H228.503V9.52148C228.459 8.84635 228.279 8.33724 227.964 7.99414C227.648 7.64551 227.211 7.47119 226.652 7.47119ZM127.4 33C127.311 32.8285 127.234 32.549 127.167 32.1616C126.526 32.8312 125.74 33.166 124.81 33.166C123.908 33.166 123.172 32.9087 122.602 32.394C122.032 31.8794 121.747 31.243 121.747 30.4849C121.747 29.5275 122.101 28.7943 122.81 28.2852C123.523 27.7705 124.542 27.5132 125.864 27.5132H127.101V26.9238C127.101 26.459 126.971 26.0882 126.711 25.8115C126.451 25.5293 126.055 25.3882 125.524 25.3882C125.065 25.3882 124.688 25.5044 124.395 25.7368C124.102 25.9637 123.955 26.2542 123.955 26.6084H121.938C121.938 26.1159 122.101 25.6566 122.428 25.2305C122.754 24.7988 123.197 24.4613 123.756 24.2178C124.32 23.9743 124.948 23.8525 125.64 23.8525C126.692 23.8525 127.53 24.1182 128.155 24.6494C128.781 25.1751 129.102 25.9167 129.118 26.874V30.9248C129.118 31.7327 129.232 32.3774 129.458 32.8589V33H127.4ZM125.184 31.5474C125.582 31.5474 125.956 31.4505 126.304 31.2568C126.658 31.0632 126.924 30.8031 127.101 30.4766V28.7832H126.014C125.267 28.7832 124.705 28.9132 124.329 29.1733C123.952 29.4334 123.764 29.8014 123.764 30.2773C123.764 30.6647 123.891 30.9746 124.146 31.207C124.406 31.4339 124.752 31.5474 125.184 31.5474ZM136.672 32.1201C136.08 32.8174 135.239 33.166 134.148 33.166C133.174 33.166 132.436 32.881 131.932 32.311C131.434 31.741 131.185 30.9165 131.185 29.8374V24.0186H133.202V29.8125C133.202 30.9525 133.675 31.5225 134.622 31.5225C135.601 31.5225 136.262 31.1711 136.605 30.4683V24.0186H138.623V33H136.722L136.672 32.1201ZM143.205 21.8354V24.0186H144.79V25.5127H143.205V30.5264C143.205 30.8695 143.271 31.1185 143.404 31.2734C143.542 31.4229 143.786 31.4976 144.134 31.4976C144.367 31.4976 144.602 31.4699 144.84 31.4146V32.9751C144.381 33.1024 143.938 33.166 143.512 33.166C141.962 33.166 141.188 32.311 141.188 30.6011V25.5127H139.71V24.0186H141.188V21.8354H143.205ZM145.711 28.4263C145.711 27.5464 145.886 26.755 146.234 26.0522C146.583 25.3439 147.073 24.8016 147.704 24.4253C148.334 24.0435 149.059 23.8525 149.878 23.8525C151.09 23.8525 152.073 24.2427 152.825 25.0229C153.583 25.8032 153.993 26.8381 154.054 28.1274L154.062 28.6006C154.062 29.486 153.89 30.2773 153.547 30.9746C153.21 31.6719 152.723 32.2114 152.086 32.5933C151.456 32.9751 150.725 33.166 149.895 33.166C148.628 33.166 147.612 32.7454 146.849 31.9043C146.09 31.0576 145.711 29.9315 145.711 28.5259V28.4263ZM147.729 28.6006C147.729 29.5247 147.919 30.2497 148.301 30.7754C148.683 31.2956 149.214 31.5557 149.895 31.5557C150.576 31.5557 151.104 31.29 151.48 30.7588C151.862 30.2275 152.053 29.45 152.053 28.4263C152.053 27.5187 151.857 26.7993 151.464 26.2681C151.076 25.7368 150.548 25.4712 149.878 25.4712C149.22 25.4712 148.697 25.734 148.31 26.2598C147.922 26.7799 147.729 27.5602 147.729 28.6006ZM157.665 24.0186L157.723 24.9565C158.354 24.2205 159.217 23.8525 160.312 23.8525C161.513 23.8525 162.335 24.3118 162.778 25.2305C163.431 24.3118 164.349 23.8525 165.534 23.8525C166.524 23.8525 167.26 24.1265 167.742 24.6743C168.229 25.2222 168.478 26.0301 168.489 27.0981V33H166.472V27.1562C166.472 26.5863 166.347 26.1685 166.098 25.9028C165.849 25.6372 165.437 25.5044 164.861 25.5044C164.402 25.5044 164.026 25.6289 163.732 25.8779C163.445 26.1214 163.243 26.4424 163.126 26.8408L163.135 33H161.118V27.0898C161.09 26.0329 160.55 25.5044 159.499 25.5044C158.691 25.5044 158.118 25.8337 157.781 26.4922V33H155.764V24.0186H157.665ZM175.926 33C175.838 32.8285 175.76 32.549 175.694 32.1616C175.052 32.8312 174.266 33.166 173.336 33.166C172.434 33.166 171.698 32.9087 171.128 32.394C170.558 31.8794 170.273 31.243 170.273 30.4849C170.273 29.5275 170.628 28.7943 171.336 28.2852C172.05 27.7705 173.068 27.5132 174.391 27.5132H175.627V26.9238C175.627 26.459 175.497 26.0882 175.237 25.8115C174.977 25.5293 174.582 25.3882 174.05 25.3882C173.591 25.3882 173.215 25.5044 172.921 25.7368C172.628 25.9637 172.481 26.2542 172.481 26.6084H170.464C170.464 26.1159 170.628 25.6566 170.954 25.2305C171.281 24.7988 171.723 24.4613 172.282 24.2178C172.847 23.9743 173.475 23.8525 174.167 23.8525C175.218 23.8525 176.056 24.1182 176.682 24.6494C177.307 25.1751 177.628 25.9167 177.645 26.874V30.9248C177.645 31.7327 177.758 32.3774 177.985 32.8589V33H175.926ZM173.71 31.5474C174.108 31.5474 174.482 31.4505 174.831 31.2568C175.185 31.0632 175.45 30.8031 175.627 30.4766V28.7832H174.54C173.793 28.7832 173.231 28.9132 172.855 29.1733C172.479 29.4334 172.291 29.8014 172.291 30.2773C172.291 30.6647 172.418 30.9746 172.672 31.207C172.932 31.4339 173.278 31.5474 173.71 31.5474ZM182.285 21.8354V24.0186H183.87V25.5127H182.285V30.5264C182.285 30.8695 182.351 31.1185 182.484 31.2734C182.622 31.4229 182.866 31.4976 183.214 31.4976C183.447 31.4976 183.682 31.4699 183.92 31.4146V32.9751C183.461 33.1024 183.018 33.166 182.592 33.166C181.042 33.166 180.268 32.311 180.268 30.6011V25.5127H178.79V24.0186H180.268V21.8354H182.285ZM187.564 33H185.547V24.0186H187.564V33ZM185.422 21.686C185.422 21.3761 185.519 21.1188 185.713 20.9141C185.912 20.7093 186.194 20.6069 186.56 20.6069C186.925 20.6069 187.207 20.7093 187.406 20.9141C187.605 21.1188 187.705 21.3761 187.705 21.686C187.705 21.9904 187.605 22.245 187.406 22.4497C187.207 22.6489 186.925 22.7485 186.56 22.7485C186.194 22.7485 185.912 22.6489 185.713 22.4497C185.519 22.245 185.422 21.9904 185.422 21.686ZM189.39 28.4346C189.39 27.029 189.711 25.9139 190.353 25.0894C190.995 24.2648 191.864 23.8525 192.959 23.8525C193.961 23.8525 194.755 24.2039 195.342 24.9067L195.458 24.0186H197.251V36.4531H195.234V32.2363C194.647 32.8561 193.884 33.166 192.943 33.166C191.869 33.166 191.009 32.7482 190.361 31.9126C189.714 31.0715 189.39 29.9121 189.39 28.4346ZM191.407 28.6089C191.407 29.5275 191.587 30.2497 191.947 30.7754C192.312 31.2956 192.816 31.5557 193.458 31.5557C194.254 31.5557 194.847 31.2153 195.234 30.5347V26.4507C194.847 25.7977 194.26 25.4712 193.474 25.4712C192.832 25.4712 192.326 25.7285 191.955 26.2432C191.59 26.7578 191.407 27.5464 191.407 28.6089ZM204.871 32.1201C204.279 32.8174 203.438 33.166 202.348 33.166C201.374 33.166 200.635 32.881 200.131 32.311C199.633 31.741 199.384 30.9165 199.384 29.8374V24.0186H201.401V29.8125C201.401 30.9525 201.875 31.5225 202.821 31.5225C203.8 31.5225 204.462 31.1711 204.805 30.4683V24.0186H206.822V33H204.921L204.871 32.1201ZM212.832 33.166C211.553 33.166 210.516 32.7648 209.719 31.9624C208.927 31.1545 208.532 30.0809 208.532 28.7417V28.4927C208.532 27.5962 208.703 26.7965 209.046 26.0938C209.395 25.3854 209.882 24.8348 210.507 24.4419C211.133 24.049 211.83 23.8525 212.599 23.8525C213.822 23.8525 214.766 24.2427 215.43 25.0229C216.099 25.8032 216.434 26.9072 216.434 28.335V29.1484H210.565C210.626 29.89 210.873 30.4766 211.304 30.9082C211.741 31.3398 212.289 31.5557 212.948 31.5557C213.872 31.5557 214.625 31.1821 215.206 30.4351L216.293 31.4727C215.933 32.0094 215.452 32.4272 214.849 32.7261C214.251 33.0194 213.579 33.166 212.832 33.166ZM212.591 25.4712C212.037 25.4712 211.589 25.6649 211.246 26.0522C210.909 26.4396 210.693 26.9792 210.599 27.6709H214.442V27.5215C214.398 26.8464 214.218 26.3372 213.902 25.9941C213.587 25.6455 213.15 25.4712 212.591 25.4712Z" fill="white"/>
<path d="M49.3286 82.3232H54.8154V84H47.2285V71.9141H49.3286V82.3232ZM55.0229 72.2876L54.8071 75.5332H53.4873V71.25H55.0229V72.2876ZM61.6636 84C61.575 83.8285 61.4976 83.549 61.4312 83.1616C60.7892 83.8312 60.0034 84.166 59.0737 84.166C58.1717 84.166 57.4357 83.9087 56.8657 83.394C56.2957 82.8794 56.0107 82.243 56.0107 81.4849C56.0107 80.5275 56.3649 79.7943 57.0732 79.2852C57.7871 78.7705 58.8053 78.5132 60.1279 78.5132H61.3647V77.9238C61.3647 77.459 61.2347 77.0882 60.9746 76.8115C60.7145 76.5293 60.3188 76.3882 59.7876 76.3882C59.3283 76.3882 58.952 76.5044 58.6587 76.7368C58.3654 76.9637 58.2188 77.2542 58.2188 77.6084H56.2017C56.2017 77.1159 56.3649 76.6566 56.6914 76.2305C57.0179 75.7988 57.4606 75.4613 58.0195 75.2178C58.584 74.9743 59.2121 74.8525 59.9038 74.8525C60.9552 74.8525 61.7936 75.1182 62.4189 75.6494C63.0443 76.1751 63.3652 76.9167 63.3818 77.874V81.9248C63.3818 82.7327 63.4953 83.3774 63.7222 83.8589V84H61.6636ZM59.4473 82.5474C59.8457 82.5474 60.2192 82.4505 60.5679 82.2568C60.922 82.0632 61.1877 81.8031 61.3647 81.4766V79.7832H60.2773C59.5303 79.7832 58.9686 79.9132 58.5923 80.1733C58.216 80.4334 58.0278 80.8014 58.0278 81.2773C58.0278 81.6647 58.1551 81.9746 58.4097 82.207C58.6698 82.4339 59.0156 82.5474 59.4473 82.5474ZM73.3594 79.6006C73.3594 80.9896 73.0439 82.0991 72.4131 82.9292C71.7822 83.7537 70.9355 84.166 69.873 84.166C68.888 84.166 68.0994 83.8423 67.5073 83.1948V87.4531H65.4902V75.0186H67.3496L67.4326 75.9316C68.0247 75.2122 68.8299 74.8525 69.8481 74.8525C70.9438 74.8525 71.8016 75.262 72.4214 76.0811C73.0467 76.8945 73.3594 78.0262 73.3594 79.4761V79.6006ZM71.3506 79.4263C71.3506 78.5298 71.1707 77.8187 70.811 77.293C70.4569 76.7673 69.9478 76.5044 69.2837 76.5044C68.4591 76.5044 67.867 76.8447 67.5073 77.5254V81.5098C67.8726 82.207 68.4702 82.5557 69.3003 82.5557C69.9422 82.5557 70.443 82.2983 70.8027 81.7837C71.168 81.2635 71.3506 80.4777 71.3506 79.4263ZM82.9385 79.6006C82.9385 80.9896 82.623 82.0991 81.9922 82.9292C81.3613 83.7537 80.5146 84.166 79.4521 84.166C78.4671 84.166 77.6785 83.8423 77.0864 83.1948V87.4531H75.0693V75.0186H76.9287L77.0117 75.9316C77.6038 75.2122 78.409 74.8525 79.4272 74.8525C80.5229 74.8525 81.3807 75.262 82.0005 76.0811C82.6258 76.8945 82.9385 78.0262 82.9385 79.4761V79.6006ZM80.9297 79.4263C80.9297 78.5298 80.7498 77.8187 80.3901 77.293C80.036 76.7673 79.5269 76.5044 78.8628 76.5044C78.0382 76.5044 77.4461 76.8447 77.0864 77.5254V81.5098C77.4517 82.207 78.0493 82.5557 78.8794 82.5557C79.5213 82.5557 80.0221 82.2983 80.3818 81.7837C80.7471 81.2635 80.9297 80.4777 80.9297 79.4263ZM89.355 76.8613C89.0894 76.8171 88.8154 76.7949 88.5332 76.7949C87.609 76.7949 86.9865 77.1491 86.6655 77.8574V84H84.6484V75.0186H86.5742L86.624 76.0229C87.111 75.2427 87.7861 74.8525 88.6494 74.8525C88.9372 74.8525 89.1751 74.8913 89.3633 74.9688L89.355 76.8613ZM94.4185 84.166C93.1401 84.166 92.1025 83.7648 91.3057 82.9624C90.5143 82.1545 90.1187 81.0809 90.1187 79.7417V79.4927C90.1187 78.5962 90.2902 77.7965 90.6333 77.0938C90.9819 76.3854 91.4689 75.8348 92.0942 75.4419C92.7196 75.049 93.4168 74.8525 94.186 74.8525C95.409 74.8525 96.3525 75.2427 97.0166 76.0229C97.6862 76.8032 98.021 77.9072 98.021 79.335V80.1484H92.1523C92.2132 80.89 92.4595 81.4766 92.8911 81.9082C93.3283 82.3398 93.8761 82.5557 94.5347 82.5557C95.4588 82.5557 96.2114 82.1821 96.7925 81.4351L97.8799 82.4727C97.5202 83.0094 97.0387 83.4272 96.4355 83.7261C95.8379 84.0194 95.1655 84.166 94.4185 84.166ZM94.1777 76.4712C93.6243 76.4712 93.1761 76.6649 92.833 77.0522C92.4954 77.4396 92.2796 77.9792 92.1855 78.6709H96.0288V78.5215C95.9845 77.8464 95.8047 77.3372 95.4893 76.9941C95.1738 76.6455 94.7367 76.4712 94.1777 76.4712ZM101.466 75.0186L101.524 76.0562C102.188 75.2537 103.06 74.8525 104.139 74.8525C106.009 74.8525 106.961 75.9233 106.994 78.0649V84H104.977V78.1812C104.977 77.6112 104.853 77.1906 104.604 76.9194C104.36 76.6427 103.959 76.5044 103.4 76.5044C102.586 76.5044 101.98 76.8724 101.582 77.6084V84H99.5649V75.0186H101.466ZM111.584 72.8354V75.0186H113.17V76.5127H111.584V81.5264C111.584 81.8695 111.651 82.1185 111.784 82.2734C111.922 82.4229 112.166 82.4976 112.514 82.4976C112.747 82.4976 112.982 82.4699 113.22 82.4146V83.9751C112.76 84.1024 112.318 84.166 111.892 84.166C110.342 84.166 109.567 83.311 109.567 81.6011V76.5127H108.09V75.0186H109.567V72.8354H111.584ZM116.864 84H114.847V75.0186H116.864V84ZM114.722 72.686C114.722 72.3761 114.819 72.1188 115.013 71.9141C115.212 71.7093 115.494 71.6069 115.859 71.6069C116.225 71.6069 116.507 71.7093 116.706 71.9141C116.905 72.1188 117.005 72.3761 117.005 72.686C117.005 72.9904 116.905 73.245 116.706 73.4497C116.507 73.6489 116.225 73.7485 115.859 73.7485C115.494 73.7485 115.212 73.6489 115.013 73.4497C114.819 73.245 114.722 72.9904 114.722 72.686ZM124.102 81.5596C124.102 81.1999 123.953 80.9259 123.654 80.7378C123.361 80.5496 122.871 80.3836 122.185 80.2397C121.498 80.0959 120.926 79.9132 120.466 79.6919C119.459 79.2049 118.956 78.4993 118.956 77.5752C118.956 76.8005 119.282 76.153 119.935 75.6328C120.588 75.1126 121.418 74.8525 122.425 74.8525C123.499 74.8525 124.365 75.1182 125.023 75.6494C125.688 76.1807 126.02 76.8696 126.02 77.7163H124.002C124.002 77.3289 123.859 77.008 123.571 76.7534C123.283 76.4933 122.901 76.3633 122.425 76.3633C121.983 76.3633 121.62 76.4657 121.338 76.6704C121.061 76.8752 120.923 77.1491 120.923 77.4922C120.923 77.8021 121.053 78.0428 121.313 78.2144C121.573 78.3859 122.099 78.5602 122.89 78.7373C123.681 78.9089 124.301 79.1164 124.75 79.3599C125.203 79.5978 125.538 79.8856 125.754 80.2231C125.975 80.5607 126.086 80.9702 126.086 81.4517C126.086 82.2596 125.751 82.9154 125.082 83.4189C124.412 83.917 123.535 84.166 122.45 84.166C121.714 84.166 121.058 84.0332 120.483 83.7676C119.907 83.502 119.459 83.1367 119.138 82.6719C118.817 82.207 118.657 81.7062 118.657 81.1694H120.616C120.643 81.6453 120.823 82.0133 121.155 82.2734C121.487 82.528 121.927 82.6553 122.475 82.6553C123.006 82.6553 123.41 82.5557 123.687 82.3564C123.964 82.1517 124.102 81.8861 124.102 81.5596ZM132.884 81.5596C132.884 81.1999 132.735 80.9259 132.436 80.7378C132.143 80.5496 131.653 80.3836 130.967 80.2397C130.281 80.0959 129.708 79.9132 129.249 79.6919C128.241 79.2049 127.738 78.4993 127.738 77.5752C127.738 76.8005 128.064 76.153 128.717 75.6328C129.37 75.1126 130.2 74.8525 131.208 74.8525C132.281 74.8525 133.147 75.1182 133.806 75.6494C134.47 76.1807 134.802 76.8696 134.802 77.7163H132.785C132.785 77.3289 132.641 77.008 132.353 76.7534C132.065 76.4933 131.683 76.3633 131.208 76.3633C130.765 76.3633 130.402 76.4657 130.12 76.6704C129.843 76.8752 129.705 77.1491 129.705 77.4922C129.705 77.8021 129.835 78.0428 130.095 78.2144C130.355 78.3859 130.881 78.5602 131.672 78.7373C132.464 78.9089 133.083 79.1164 133.532 79.3599C133.986 79.5978 134.32 79.8856 134.536 80.2231C134.757 80.5607 134.868 80.9702 134.868 81.4517C134.868 82.2596 134.533 82.9154 133.864 83.4189C133.194 83.917 132.317 84.166 131.232 84.166C130.496 84.166 129.841 84.0332 129.265 83.7676C128.69 83.502 128.241 83.1367 127.92 82.6719C127.599 82.207 127.439 81.7062 127.439 81.1694H129.398C129.426 81.6453 129.605 82.0133 129.938 82.2734C130.27 82.528 130.709 82.6553 131.257 82.6553C131.789 82.6553 132.193 82.5557 132.469 82.3564C132.746 82.1517 132.884 81.8861 132.884 81.5596ZM141.999 84C141.91 83.8285 141.833 83.549 141.766 83.1616C141.124 83.8312 140.338 84.166 139.409 84.166C138.507 84.166 137.771 83.9087 137.201 83.394C136.631 82.8794 136.346 82.243 136.346 81.4849C136.346 80.5275 136.7 79.7943 137.408 79.2852C138.122 78.7705 139.14 78.5132 140.463 78.5132H141.7V77.9238C141.7 77.459 141.57 77.0882 141.31 76.8115C141.049 76.5293 140.654 76.3882 140.123 76.3882C139.663 76.3882 139.287 76.5044 138.994 76.7368C138.7 76.9637 138.554 77.2542 138.554 77.6084H136.537C136.537 77.1159 136.7 76.6566 137.026 76.2305C137.353 75.7988 137.796 75.4613 138.354 75.2178C138.919 74.9743 139.547 74.8525 140.239 74.8525C141.29 74.8525 142.129 75.1182 142.754 75.6494C143.379 76.1751 143.7 76.9167 143.717 77.874V81.9248C143.717 82.7327 143.83 83.3774 144.057 83.8589V84H141.999ZM139.782 82.5474C140.181 82.5474 140.554 82.4505 140.903 82.2568C141.257 82.0632 141.523 81.8031 141.7 81.4766V79.7832H140.612C139.865 79.7832 139.304 79.9132 138.927 80.1733C138.551 80.4334 138.363 80.8014 138.363 81.2773C138.363 81.6647 138.49 81.9746 138.745 82.207C139.005 82.4339 139.351 82.5474 139.782 82.5474ZM145.477 79.4429C145.477 78.0483 145.803 76.936 146.456 76.106C147.115 75.2703 147.986 74.8525 149.071 74.8525C150.095 74.8525 150.9 75.2095 151.486 75.9233L151.578 75.0186H153.396V83.7261C153.396 84.9048 153.028 85.8345 152.292 86.5151C151.561 87.1958 150.573 87.5361 149.328 87.5361C148.67 87.5361 148.025 87.3978 147.394 87.1211C146.769 86.8499 146.293 86.493 145.966 86.0503L146.921 84.8384C147.541 85.5744 148.304 85.9424 149.212 85.9424C149.882 85.9424 150.41 85.7598 150.797 85.3945C151.185 85.0348 151.378 84.5036 151.378 83.8008V83.1948C150.797 83.8423 150.023 84.166 149.054 84.166C148.003 84.166 147.142 83.7482 146.473 82.9126C145.809 82.077 145.477 80.9204 145.477 79.4429ZM147.485 79.6172C147.485 80.5192 147.668 81.2303 148.033 81.7505C148.404 82.2651 148.916 82.5225 149.569 82.5225C150.382 82.5225 150.986 82.1738 151.378 81.4766V77.5254C150.997 76.8447 150.399 76.5044 149.585 76.5044C148.921 76.5044 148.404 76.7673 148.033 77.293C147.668 77.8187 147.485 78.5934 147.485 79.6172ZM159.43 84.166C158.152 84.166 157.114 83.7648 156.317 82.9624C155.526 82.1545 155.13 81.0809 155.13 79.7417V79.4927C155.13 78.5962 155.302 77.7965 155.645 77.0938C155.994 76.3854 156.481 75.8348 157.106 75.4419C157.731 75.049 158.429 74.8525 159.198 74.8525C160.421 74.8525 161.364 75.2427 162.028 76.0229C162.698 76.8032 163.033 77.9072 163.033 79.335V80.1484H157.164C157.225 80.89 157.471 81.4766 157.903 81.9082C158.34 82.3398 158.888 82.5557 159.546 82.5557C160.471 82.5557 161.223 82.1821 161.804 81.4351L162.892 82.4727C162.532 83.0094 162.05 83.4272 161.447 83.7261C160.85 84.0194 160.177 84.166 159.43 84.166ZM159.189 76.4712C158.636 76.4712 158.188 76.6649 157.845 77.0522C157.507 77.4396 157.291 77.9792 157.197 78.6709H161.041V78.5215C160.996 77.8464 160.816 77.3372 160.501 76.9941C160.186 76.6455 159.748 76.4712 159.189 76.4712ZM50.9888 102.166C49.7104 102.166 48.6729 101.765 47.876 100.962C47.0846 100.154 46.689 99.0809 46.689 97.7417V97.4927C46.689 96.5962 46.8605 95.7965 47.2036 95.0938C47.5522 94.3854 48.0392 93.8348 48.6646 93.4419C49.2899 93.049 49.9871 92.8525 50.7563 92.8525C51.9793 92.8525 52.9229 93.2427 53.5869 94.0229C54.2565 94.8032 54.5913 95.9072 54.5913 97.335V98.1484H48.7227C48.7835 98.89 49.0298 99.4766 49.4614 99.9082C49.8986 100.34 50.4465 100.556 51.105 100.556C52.0291 100.556 52.7817 100.182 53.3628 99.4351L54.4502 100.473C54.0905 101.009 53.609 101.427 53.0059 101.726C52.4082 102.019 51.7358 102.166 50.9888 102.166ZM50.748 94.4712C50.1947 94.4712 49.7464 94.6649 49.4033 95.0522C49.0658 95.4396 48.8499 95.9792 48.7559 96.6709H52.5991V96.5215C52.5549 95.8464 52.375 95.3372 52.0596 94.9941C51.7441 94.6455 51.307 94.4712 50.748 94.4712ZM58.0361 93.0186L58.0942 94.0562C58.7583 93.2537 59.6299 92.8525 60.709 92.8525C62.5794 92.8525 63.5312 93.9233 63.5645 96.0649V102H61.5474V96.1812C61.5474 95.6112 61.4229 95.1906 61.1738 94.9194C60.9303 94.6427 60.5291 94.5044 59.9702 94.5044C59.1567 94.5044 58.5508 94.8724 58.1523 95.6084V102H56.1353V93.0186H58.0361ZM77.7256 97.6006C77.7256 98.9896 77.4102 100.099 76.7793 100.929C76.1484 101.754 75.3018 102.166 74.2393 102.166C73.2542 102.166 72.4657 101.842 71.8735 101.195V105.453H69.8564V93.0186H71.7158L71.7988 93.9316C72.391 93.2122 73.1961 92.8525 74.2144 92.8525C75.3101 92.8525 76.1678 93.262 76.7876 94.0811C77.4129 94.8945 77.7256 96.0262 77.7256 97.4761V97.6006ZM75.7168 97.4263C75.7168 96.5298 75.5369 95.8187 75.1772 95.293C74.8231 94.7673 74.314 94.5044 73.6499 94.5044C72.8254 94.5044 72.2332 94.8447 71.8735 95.5254V99.5098C72.2388 100.207 72.8364 100.556 73.6665 100.556C74.3084 100.556 74.8092 100.298 75.1689 99.7837C75.5342 99.2635 75.7168 98.4777 75.7168 97.4263ZM84.1421 94.8613C83.8765 94.8171 83.6025 94.7949 83.3203 94.7949C82.3962 94.7949 81.7736 95.1491 81.4526 95.8574V102H79.4355V93.0186H81.3613L81.4111 94.0229C81.8981 93.2427 82.5732 92.8525 83.4365 92.8525C83.7243 92.8525 83.9622 92.8913 84.1504 92.9688L84.1421 94.8613ZM84.7397 97.4263C84.7397 96.5464 84.9141 95.755 85.2627 95.0522C85.6113 94.3439 86.1011 93.8016 86.7319 93.4253C87.3628 93.0435 88.0877 92.8525 88.9067 92.8525C90.1187 92.8525 91.1009 93.2427 91.8535 94.0229C92.6117 94.8032 93.0212 95.8381 93.082 97.1274L93.0903 97.6006C93.0903 98.486 92.9188 99.2773 92.5757 99.9746C92.2381 100.672 91.7511 101.211 91.1147 101.593C90.4839 101.975 89.7534 102.166 88.9233 102.166C87.6561 102.166 86.6406 101.745 85.877 100.904C85.1188 100.058 84.7397 98.9315 84.7397 97.5259V97.4263ZM86.7568 97.6006C86.7568 98.5247 86.9478 99.2497 87.3296 99.7754C87.7114 100.296 88.2427 100.556 88.9233 100.556C89.604 100.556 90.1325 100.29 90.5088 99.7588C90.8906 99.2275 91.0815 98.45 91.0815 97.4263C91.0815 96.5187 90.8851 95.7993 90.4922 95.2681C90.1048 94.7368 89.5763 94.4712 88.9067 94.4712C88.2482 94.4712 87.7253 94.734 87.3379 95.2598C86.9505 95.7799 86.7568 96.5602 86.7568 97.6006ZM95.5059 102V94.5127H94.1362V93.0186H95.5059V92.1968C95.5059 91.2007 95.7826 90.4315 96.3359 89.8892C96.8893 89.3468 97.6641 89.0757 98.6602 89.0757C99.0143 89.0757 99.3906 89.1255 99.7891 89.2251L99.7393 90.8022C99.5179 90.758 99.2606 90.7358 98.9673 90.7358C98.0044 90.7358 97.5229 91.2311 97.5229 92.2217V93.0186H99.3491V94.5127H97.5229V102H95.5059ZM100.445 97.4263C100.445 96.5464 100.619 95.755 100.968 95.0522C101.316 94.3439 101.806 93.8016 102.437 93.4253C103.068 93.0435 103.793 92.8525 104.612 92.8525C105.824 92.8525 106.806 93.2427 107.559 94.0229C108.317 94.8032 108.726 95.8381 108.787 97.1274L108.795 97.6006C108.795 98.486 108.624 99.2773 108.281 99.9746C107.943 100.672 107.456 101.211 106.82 101.593C106.189 101.975 105.458 102.166 104.628 102.166C103.361 102.166 102.346 101.745 101.582 100.904C100.824 100.058 100.445 98.9315 100.445 97.5259V97.4263ZM102.462 97.6006C102.462 98.5247 102.653 99.2497 103.035 99.7754C103.417 100.296 103.948 100.556 104.628 100.556C105.309 100.556 105.838 100.29 106.214 99.7588C106.596 99.2275 106.787 98.45 106.787 97.4263C106.787 96.5187 106.59 95.7993 106.197 95.2681C105.81 94.7368 105.281 94.4712 104.612 94.4712C103.953 94.4712 103.43 94.734 103.043 95.2598C102.656 95.7799 102.462 96.5602 102.462 97.6006ZM112.373 93.0186L112.431 94.0562C113.095 93.2537 113.967 92.8525 115.046 92.8525C116.916 92.8525 117.868 93.9233 117.901 96.0649V102H115.884V96.1812C115.884 95.6112 115.76 95.1906 115.511 94.9194C115.267 94.6427 114.866 94.5044 114.307 94.5044C113.494 94.5044 112.888 94.8724 112.489 95.6084V102H110.472V93.0186H112.373ZM119.586 97.4429C119.586 96.0594 119.907 94.9499 120.549 94.1143C121.191 93.2731 122.052 92.8525 123.131 92.8525C124.083 92.8525 124.852 93.1846 125.438 93.8486V89.25H127.456V102H125.629L125.53 101.07C124.927 101.801 124.121 102.166 123.114 102.166C122.063 102.166 121.211 101.743 120.558 100.896C119.91 100.049 119.586 98.8983 119.586 97.4429ZM121.604 97.6172C121.604 98.5303 121.778 99.2441 122.126 99.7588C122.481 100.268 122.981 100.522 123.629 100.522C124.453 100.522 125.057 100.154 125.438 99.4185V95.5835C125.068 94.8641 124.47 94.5044 123.646 94.5044C122.993 94.5044 122.489 94.7645 122.135 95.2847C121.781 95.7993 121.604 96.5768 121.604 97.6172ZM133.515 102.166C132.237 102.166 131.199 101.765 130.402 100.962C129.611 100.154 129.215 99.0809 129.215 97.7417V97.4927C129.215 96.5962 129.387 95.7965 129.73 95.0938C130.079 94.3854 130.566 93.8348 131.191 93.4419C131.816 93.049 132.514 92.8525 133.283 92.8525C134.506 92.8525 135.449 93.2427 136.113 94.0229C136.783 94.8032 137.118 95.9072 137.118 97.335V98.1484H131.249C131.31 98.89 131.556 99.4766 131.988 99.9082C132.425 100.34 132.973 100.556 133.631 100.556C134.556 100.556 135.308 100.182 135.889 99.4351L136.977 100.473C136.617 101.009 136.135 101.427 135.532 101.726C134.935 102.019 134.262 102.166 133.515 102.166ZM133.274 94.4712C132.721 94.4712 132.273 94.6649 131.93 95.0522C131.592 95.4396 131.376 95.9792 131.282 96.6709H135.125V96.5215C135.081 95.8464 134.901 95.3372 134.586 94.9941C134.271 94.6455 133.833 94.4712 133.274 94.4712ZM144.132 101.12C143.54 101.817 142.699 102.166 141.608 102.166C140.634 102.166 139.896 101.881 139.392 101.311C138.894 100.741 138.645 99.9165 138.645 98.8374V93.0186H140.662V98.8125C140.662 99.9525 141.135 100.522 142.082 100.522C143.061 100.522 143.722 100.171 144.065 99.4683V93.0186H146.083V102H144.182L144.132 101.12ZM152.839 94.8613C152.574 94.8171 152.3 94.7949 152.018 94.7949C151.093 94.7949 150.471 95.1491 150.15 95.8574V102H148.133V93.0186H150.059L150.108 94.0229C150.595 93.2427 151.271 92.8525 152.134 92.8525C152.422 92.8525 152.66 92.8913 152.848 92.9688L152.839 94.8613Z" fill="white"/>
<path d="M17.4448 155H15.353V142.914H17.4448V155ZM21.7031 146.019L21.7612 147.056C22.4253 146.254 23.2969 145.853 24.376 145.853C26.2464 145.853 27.1982 146.923 27.2314 149.065V155H25.2144V149.181C25.2144 148.611 25.0898 148.191 24.8408 147.919C24.5973 147.643 24.1961 147.504 23.6372 147.504C22.8237 147.504 22.2178 147.872 21.8193 148.608V155H19.8022V146.019H21.7031ZM31.8218 143.835V146.019H33.4072V147.513H31.8218V152.526C31.8218 152.869 31.8882 153.118 32.021 153.273C32.1593 153.423 32.4028 153.498 32.7515 153.498C32.9839 153.498 33.2191 153.47 33.457 153.415V154.975C32.9977 155.102 32.555 155.166 32.1289 155.166C30.5794 155.166 29.8047 154.311 29.8047 152.601V147.513H28.3271V146.019H29.8047V143.835H31.8218ZM38.9106 155.166C37.6323 155.166 36.5947 154.765 35.7979 153.962C35.0065 153.154 34.6108 152.081 34.6108 150.742V150.493C34.6108 149.596 34.7824 148.797 35.1255 148.094C35.4741 147.385 35.9611 146.835 36.5864 146.442C37.2118 146.049 37.909 145.853 38.6782 145.853C39.9012 145.853 40.8447 146.243 41.5088 147.023C42.1784 147.803 42.5132 148.907 42.5132 150.335V151.148H36.6445C36.7054 151.89 36.9517 152.477 37.3833 152.908C37.8205 153.34 38.3683 153.556 39.0269 153.556C39.951 153.556 40.7036 153.182 41.2847 152.435L42.3721 153.473C42.0124 154.009 41.5309 154.427 40.9277 154.726C40.3301 155.019 39.6577 155.166 38.9106 155.166ZM38.6699 147.471C38.1165 147.471 37.6683 147.665 37.3252 148.052C36.9876 148.44 36.7718 148.979 36.6777 149.671H40.521V149.521C40.4767 148.846 40.2969 148.337 39.9814 147.994C39.666 147.646 39.2288 147.471 38.6699 147.471ZM46.2319 155H44.2148V142.25H46.2319V155ZM50.5815 155H48.5645V142.25H50.5815V155ZM54.9312 155H52.9141V146.019H54.9312V155ZM52.7896 143.686C52.7896 143.376 52.8864 143.119 53.0801 142.914C53.2793 142.709 53.5615 142.607 53.9268 142.607C54.292 142.607 54.5742 142.709 54.7734 142.914C54.9727 143.119 55.0723 143.376 55.0723 143.686C55.0723 143.99 54.9727 144.245 54.7734 144.45C54.5742 144.649 54.292 144.749 53.9268 144.749C53.5615 144.749 53.2793 144.649 53.0801 144.45C52.8864 144.245 52.7896 143.99 52.7896 143.686ZM56.7822 150.443C56.7822 149.048 57.1087 147.936 57.7617 147.106C58.4202 146.27 59.2918 145.853 60.3765 145.853C61.4002 145.853 62.2054 146.209 62.792 146.923L62.8833 146.019H64.7012V154.726C64.7012 155.905 64.3332 156.834 63.5972 157.515C62.8667 158.196 61.8789 158.536 60.6338 158.536C59.9753 158.536 59.3306 158.398 58.6997 158.121C58.0744 157.85 57.5985 157.493 57.272 157.05L58.2266 155.838C58.8464 156.574 59.61 156.942 60.5176 156.942C61.1872 156.942 61.7157 156.76 62.103 156.395C62.4904 156.035 62.6841 155.504 62.6841 154.801V154.195C62.103 154.842 61.3283 155.166 60.3599 155.166C59.3084 155.166 58.4479 154.748 57.7783 153.913C57.1143 153.077 56.7822 151.92 56.7822 150.443ZM58.791 150.617C58.791 151.519 58.9736 152.23 59.3389 152.75C59.7096 153.265 60.2215 153.522 60.8745 153.522C61.688 153.522 62.2912 153.174 62.6841 152.477V148.525C62.3022 147.845 61.7046 147.504 60.8911 147.504C60.2271 147.504 59.7096 147.767 59.3389 148.293C58.9736 148.819 58.791 149.593 58.791 150.617ZM70.7358 155.166C69.4575 155.166 68.4199 154.765 67.623 153.962C66.8317 153.154 66.436 152.081 66.436 150.742V150.493C66.436 149.596 66.6076 148.797 66.9507 148.094C67.2993 147.385 67.7863 146.835 68.4116 146.442C69.0369 146.049 69.7342 145.853 70.5034 145.853C71.7264 145.853 72.6699 146.243 73.334 147.023C74.0036 147.803 74.3384 148.907 74.3384 150.335V151.148H68.4697C68.5306 151.89 68.7769 152.477 69.2085 152.908C69.6457 153.34 70.1935 153.556 70.8521 153.556C71.7762 153.556 72.5288 153.182 73.1099 152.435L74.1973 153.473C73.8376 154.009 73.3561 154.427 72.7529 154.726C72.1553 155.019 71.4829 155.166 70.7358 155.166ZM70.4951 147.471C69.9417 147.471 69.4935 147.665 69.1504 148.052C68.8128 148.44 68.597 148.979 68.5029 149.671H72.3462V149.521C72.3019 148.846 72.1221 148.337 71.8066 147.994C71.4912 147.646 71.054 147.471 70.4951 147.471ZM77.7832 146.019L77.8413 147.056C78.5054 146.254 79.377 145.853 80.4561 145.853C82.3265 145.853 83.2783 146.923 83.3115 149.065V155H81.2944V149.181C81.2944 148.611 81.1699 148.191 80.9209 147.919C80.6774 147.643 80.2762 147.504 79.7173 147.504C78.9038 147.504 78.2979 147.872 77.8994 148.608V155H75.8823V146.019H77.7832ZM89.064 153.556C89.5675 153.556 89.9854 153.409 90.3174 153.116C90.6494 152.822 90.8265 152.46 90.8486 152.028H92.7495C92.7274 152.587 92.5531 153.11 92.2266 153.597C91.9001 154.079 91.4574 154.46 90.8984 154.743C90.3395 155.025 89.7363 155.166 89.0889 155.166C87.8327 155.166 86.8366 154.759 86.1006 153.946C85.3646 153.132 84.9966 152.009 84.9966 150.576V150.368C84.9966 149.001 85.3618 147.908 86.0923 147.089C86.8228 146.265 87.8188 145.853 89.0806 145.853C90.1486 145.853 91.0174 146.165 91.687 146.791C92.3621 147.41 92.7163 148.227 92.7495 149.239H90.8486C90.8265 148.725 90.6494 148.301 90.3174 147.969C89.9909 147.637 89.5731 147.471 89.064 147.471C88.411 147.471 87.9074 147.709 87.5532 148.185C87.1991 148.655 87.0192 149.372 87.0137 150.335V150.659C87.0137 151.633 87.188 152.36 87.5366 152.842C87.8908 153.318 88.3999 153.556 89.064 153.556ZM98.228 155.166C96.9497 155.166 95.9121 154.765 95.1152 153.962C94.3239 153.154 93.9282 152.081 93.9282 150.742V150.493C93.9282 149.596 94.0998 148.797 94.4429 148.094C94.7915 147.385 95.2785 146.835 95.9038 146.442C96.5291 146.049 97.2264 145.853 97.9956 145.853C99.2186 145.853 100.162 146.243 100.826 147.023C101.496 147.803 101.831 148.907 101.831 150.335V151.148H95.9619C96.0228 151.89 96.269 152.477 96.7007 152.908C97.1379 153.34 97.6857 153.556 98.3442 153.556C99.2684 153.556 100.021 153.182 100.602 152.435L101.689 153.473C101.33 154.009 100.848 154.427 100.245 154.726C99.6475 155.019 98.9751 155.166 98.228 155.166ZM97.9873 147.471C97.4339 147.471 96.9857 147.665 96.6426 148.052C96.305 148.44 96.0892 148.979 95.9951 149.671H99.8384V149.521C99.7941 148.846 99.6143 148.337 99.2988 147.994C98.9834 147.646 98.5462 147.471 97.9873 147.471ZM113.003 155C112.915 154.828 112.837 154.549 112.771 154.162C112.129 154.831 111.343 155.166 110.414 155.166C109.512 155.166 108.776 154.909 108.206 154.394C107.636 153.879 107.351 153.243 107.351 152.485C107.351 151.528 107.705 150.794 108.413 150.285C109.127 149.771 110.145 149.513 111.468 149.513H112.705V148.924C112.705 148.459 112.575 148.088 112.314 147.812C112.054 147.529 111.659 147.388 111.127 147.388C110.668 147.388 110.292 147.504 109.999 147.737C109.705 147.964 109.559 148.254 109.559 148.608H107.542C107.542 148.116 107.705 147.657 108.031 147.23C108.358 146.799 108.8 146.461 109.359 146.218C109.924 145.974 110.552 145.853 111.244 145.853C112.295 145.853 113.133 146.118 113.759 146.649C114.384 147.175 114.705 147.917 114.722 148.874V152.925C114.722 153.733 114.835 154.377 115.062 154.859V155H113.003ZM110.787 153.547C111.186 153.547 111.559 153.451 111.908 153.257C112.262 153.063 112.528 152.803 112.705 152.477V150.783H111.617C110.87 150.783 110.308 150.913 109.932 151.173C109.556 151.433 109.368 151.801 109.368 152.277C109.368 152.665 109.495 152.975 109.75 153.207C110.01 153.434 110.355 153.547 110.787 153.547ZM121.537 147.861C121.271 147.817 120.997 147.795 120.715 147.795C119.791 147.795 119.168 148.149 118.847 148.857V155H116.83V146.019H118.756L118.806 147.023C119.293 146.243 119.968 145.853 120.831 145.853C121.119 145.853 121.357 145.891 121.545 145.969L121.537 147.861ZM125.753 143.835V146.019H127.339V147.513H125.753V152.526C125.753 152.869 125.82 153.118 125.953 153.273C126.091 153.423 126.334 153.498 126.683 153.498C126.916 153.498 127.151 153.47 127.389 153.415V154.975C126.929 155.102 126.487 155.166 126.061 155.166C124.511 155.166 123.736 154.311 123.736 152.601V147.513H122.259V146.019H123.736V143.835H125.753ZM131.033 155H129.016V146.019H131.033V155ZM128.891 143.686C128.891 143.376 128.988 143.119 129.182 142.914C129.381 142.709 129.663 142.607 130.028 142.607C130.394 142.607 130.676 142.709 130.875 142.914C131.074 143.119 131.174 143.376 131.174 143.686C131.174 143.99 131.074 144.245 130.875 144.45C130.676 144.649 130.394 144.749 130.028 144.749C129.663 144.749 129.381 144.649 129.182 144.45C128.988 144.245 128.891 143.99 128.891 143.686ZM133.772 155V147.513H132.402V146.019H133.772V145.404C133.778 144.701 133.927 144.098 134.22 143.595C134.514 143.091 134.929 142.712 135.465 142.458C136.002 142.203 136.647 142.076 137.399 142.076C137.842 142.076 138.265 142.123 138.669 142.217C139.079 142.311 139.502 142.43 139.939 142.574L139.632 144.242C138.869 143.977 138.171 143.844 137.541 143.844C136.926 143.844 136.481 143.979 136.204 144.25C135.927 144.516 135.789 144.917 135.789 145.454V146.019H137.557V147.513H135.789V155H133.772ZM140.894 155H138.877V146.019H140.894V155ZM146.821 153.556C147.324 153.556 147.742 153.409 148.074 153.116C148.406 152.822 148.583 152.46 148.605 152.028H150.506C150.484 152.587 150.31 153.11 149.983 153.597C149.657 154.079 149.214 154.46 148.655 154.743C148.096 155.025 147.493 155.166 146.846 155.166C145.59 155.166 144.593 154.759 143.857 153.946C143.121 153.132 142.753 152.009 142.753 150.576V150.368C142.753 149.001 143.119 147.908 143.849 147.089C144.58 146.265 145.576 145.853 146.837 145.853C147.905 145.853 148.774 146.165 149.444 146.791C150.119 147.41 150.473 148.227 150.506 149.239H148.605C148.583 148.725 148.406 148.301 148.074 147.969C147.748 147.637 147.33 147.471 146.821 147.471C146.168 147.471 145.664 147.709 145.31 148.185C144.956 148.655 144.776 149.372 144.771 150.335V150.659C144.771 151.633 144.945 152.36 145.293 152.842C145.648 153.318 146.157 153.556 146.821 153.556ZM154.175 155H152.158V146.019H154.175V155ZM152.034 143.686C152.034 143.376 152.131 143.119 152.324 142.914C152.523 142.709 152.806 142.607 153.171 142.607C153.536 142.607 153.818 142.709 154.018 142.914C154.217 143.119 154.316 143.376 154.316 143.686C154.316 143.99 154.217 144.245 154.018 144.45C153.818 144.649 153.536 144.749 153.171 144.749C152.806 144.749 152.523 144.649 152.324 144.45C152.131 144.245 152.034 143.99 152.034 143.686ZM160.334 155.166C159.056 155.166 158.019 154.765 157.222 153.962C156.43 153.154 156.035 152.081 156.035 150.742V150.493C156.035 149.596 156.206 148.797 156.549 148.094C156.898 147.385 157.385 146.835 158.01 146.442C158.636 146.049 159.333 145.853 160.102 145.853C161.325 145.853 162.269 146.243 162.933 147.023C163.602 147.803 163.937 148.907 163.937 150.335V151.148H158.068C158.129 151.89 158.375 152.477 158.807 152.908C159.244 153.34 159.792 153.556 160.451 153.556C161.375 153.556 162.127 153.182 162.708 152.435L163.796 153.473C163.436 154.009 162.955 154.427 162.352 154.726C161.754 155.019 161.082 155.166 160.334 155.166ZM160.094 147.471C159.54 147.471 159.092 147.665 158.749 148.052C158.411 148.44 158.196 148.979 158.102 149.671H161.945V149.521C161.901 148.846 161.721 148.337 161.405 147.994C161.09 147.646 160.653 147.471 160.094 147.471ZM167.656 155H165.639V142.25H167.656V155ZM172.005 155H169.988V142.25H172.005V155ZM178.165 155.166C176.886 155.166 175.849 154.765 175.052 153.962C174.26 153.154 173.865 152.081 173.865 150.742V150.493C173.865 149.596 174.036 148.797 174.379 148.094C174.728 147.385 175.215 146.835 175.84 146.442C176.466 146.049 177.163 145.853 177.932 145.853C179.155 145.853 180.099 146.243 180.763 147.023C181.432 147.803 181.767 148.907 181.767 150.335V151.148H175.898C175.959 151.89 176.206 152.477 176.637 152.908C177.074 153.34 177.622 153.556 178.281 153.556C179.205 153.556 179.958 153.182 180.539 152.435L181.626 153.473C181.266 154.009 180.785 154.427 180.182 154.726C179.584 155.019 178.912 155.166 178.165 155.166ZM177.924 147.471C177.37 147.471 176.922 147.665 176.579 148.052C176.242 148.44 176.026 148.979 175.932 149.671H179.775V149.521C179.731 148.846 179.551 148.337 179.235 147.994C178.92 147.646 178.483 147.471 177.924 147.471ZM18.9888 173.166C17.7104 173.166 16.6729 172.765 15.876 171.962C15.0846 171.154 14.689 170.081 14.689 168.742V168.493C14.689 167.596 14.8605 166.797 15.2036 166.094C15.5522 165.385 16.0392 164.835 16.6646 164.442C17.2899 164.049 17.9871 163.853 18.7563 163.853C19.9793 163.853 20.9229 164.243 21.5869 165.023C22.2565 165.803 22.5913 166.907 22.5913 168.335V169.148H16.7227C16.7835 169.89 17.0298 170.477 17.4614 170.908C17.8986 171.34 18.4465 171.556 19.105 171.556C20.0291 171.556 20.7817 171.182 21.3628 170.435L22.4502 171.473C22.0905 172.009 21.609 172.427 21.0059 172.726C20.4082 173.019 19.7358 173.166 18.9888 173.166ZM18.748 165.471C18.1947 165.471 17.7464 165.665 17.4033 166.052C17.0658 166.44 16.8499 166.979 16.7559 167.671H20.5991V167.521C20.5549 166.846 20.375 166.337 20.0596 165.994C19.7441 165.646 19.307 165.471 18.748 165.471ZM26.0361 164.019L26.0942 165.056C26.7583 164.254 27.6299 163.853 28.709 163.853C30.5794 163.853 31.5312 164.923 31.5645 167.065V173H29.5474V167.181C29.5474 166.611 29.4229 166.191 29.1738 165.919C28.9303 165.643 28.5291 165.504 27.9702 165.504C27.1567 165.504 26.5508 165.872 26.1523 166.608V173H24.1353V164.019H26.0361ZM45.7256 168.601C45.7256 169.99 45.4102 171.099 44.7793 171.929C44.1484 172.754 43.3018 173.166 42.2393 173.166C41.2542 173.166 40.4657 172.842 39.8735 172.195V176.453H37.8564V164.019H39.7158L39.7988 164.932C40.391 164.212 41.1961 163.853 42.2144 163.853C43.3101 163.853 44.1678 164.262 44.7876 165.081C45.4129 165.895 45.7256 167.026 45.7256 168.476V168.601ZM43.7168 168.426C43.7168 167.53 43.5369 166.819 43.1772 166.293C42.8231 165.767 42.314 165.504 41.6499 165.504C40.8254 165.504 40.2332 165.845 39.8735 166.525V170.51C40.2388 171.207 40.8364 171.556 41.6665 171.556C42.3084 171.556 42.8092 171.298 43.1689 170.784C43.5342 170.264 43.7168 169.478 43.7168 168.426ZM52.1421 165.861C51.8765 165.817 51.6025 165.795 51.3203 165.795C50.3962 165.795 49.7736 166.149 49.4526 166.857V173H47.4355V164.019H49.3613L49.4111 165.023C49.8981 164.243 50.5732 163.853 51.4365 163.853C51.7243 163.853 51.9622 163.891 52.1504 163.969L52.1421 165.861ZM52.7397 168.426C52.7397 167.546 52.9141 166.755 53.2627 166.052C53.6113 165.344 54.1011 164.802 54.7319 164.425C55.3628 164.043 56.0877 163.853 56.9067 163.853C58.1187 163.853 59.1009 164.243 59.8535 165.023C60.6117 165.803 61.0212 166.838 61.082 168.127L61.0903 168.601C61.0903 169.486 60.9188 170.277 60.5757 170.975C60.2381 171.672 59.7511 172.211 59.1147 172.593C58.4839 172.975 57.7534 173.166 56.9233 173.166C55.6561 173.166 54.6406 172.745 53.877 171.904C53.1188 171.058 52.7397 169.931 52.7397 168.526V168.426ZM54.7568 168.601C54.7568 169.525 54.9478 170.25 55.3296 170.775C55.7114 171.296 56.2427 171.556 56.9233 171.556C57.604 171.556 58.1325 171.29 58.5088 170.759C58.8906 170.228 59.0815 169.45 59.0815 168.426C59.0815 167.519 58.8851 166.799 58.4922 166.268C58.1048 165.737 57.5763 165.471 56.9067 165.471C56.2482 165.471 55.7253 165.734 55.3379 166.26C54.9505 166.78 54.7568 167.56 54.7568 168.601ZM63.5059 173V165.513H62.1362V164.019H63.5059V163.197C63.5059 162.201 63.7826 161.431 64.3359 160.889C64.8893 160.347 65.6641 160.076 66.6602 160.076C67.0143 160.076 67.3906 160.125 67.7891 160.225L67.7393 161.802C67.5179 161.758 67.2606 161.736 66.9673 161.736C66.0044 161.736 65.5229 162.231 65.5229 163.222V164.019H67.3491V165.513H65.5229V173H63.5059ZM68.4448 168.426C68.4448 167.546 68.6191 166.755 68.9678 166.052C69.3164 165.344 69.8062 164.802 70.437 164.425C71.0679 164.043 71.7928 163.853 72.6118 163.853C73.8237 163.853 74.806 164.243 75.5586 165.023C76.3167 165.803 76.7262 166.838 76.7871 168.127L76.7954 168.601C76.7954 169.486 76.6239 170.277 76.2808 170.975C75.9432 171.672 75.4562 172.211 74.8198 172.593C74.189 172.975 73.4585 173.166 72.6284 173.166C71.3612 173.166 70.3457 172.745 69.582 171.904C68.8239 171.058 68.4448 169.931 68.4448 168.526V168.426ZM70.4619 168.601C70.4619 169.525 70.6528 170.25 71.0347 170.775C71.4165 171.296 71.9478 171.556 72.6284 171.556C73.3091 171.556 73.8376 171.29 74.2139 170.759C74.5957 170.228 74.7866 169.45 74.7866 168.426C74.7866 167.519 74.5902 166.799 74.1973 166.268C73.8099 165.737 73.2814 165.471 72.6118 165.471C71.9533 165.471 71.4303 165.734 71.043 166.26C70.6556 166.78 70.4619 167.56 70.4619 168.601ZM80.373 164.019L80.4312 165.056C81.0952 164.254 81.9668 163.853 83.0459 163.853C84.9163 163.853 85.8682 164.923 85.9014 167.065V173H83.8843V167.181C83.8843 166.611 83.7598 166.191 83.5107 165.919C83.2673 165.643 82.866 165.504 82.3071 165.504C81.4937 165.504 80.8877 165.872 80.4893 166.608V173H78.4722V164.019H80.373ZM87.5864 168.443C87.5864 167.059 87.9074 165.95 88.5493 165.114C89.1912 164.273 90.0518 163.853 91.1309 163.853C92.0827 163.853 92.8519 164.185 93.4385 164.849V160.25H95.4556V173H93.6294L93.5298 172.07C92.9266 172.801 92.1214 173.166 91.1143 173.166C90.0628 173.166 89.2106 172.743 88.5576 171.896C87.9102 171.049 87.5864 169.898 87.5864 168.443ZM89.6035 168.617C89.6035 169.53 89.7778 170.244 90.1265 170.759C90.4806 171.268 90.9814 171.522 91.6289 171.522C92.4535 171.522 93.0566 171.154 93.4385 170.418V166.583C93.0677 165.864 92.4701 165.504 91.6455 165.504C90.9925 165.504 90.4889 165.764 90.1348 166.285C89.7806 166.799 89.6035 167.577 89.6035 168.617ZM101.515 173.166C100.237 173.166 99.1992 172.765 98.4023 171.962C97.611 171.154 97.2153 170.081 97.2153 168.742V168.493C97.2153 167.596 97.3869 166.797 97.73 166.094C98.0786 165.385 98.5656 164.835 99.1909 164.442C99.8162 164.049 100.514 163.853 101.283 163.853C102.506 163.853 103.449 164.243 104.113 165.023C104.783 165.803 105.118 166.907 105.118 168.335V169.148H99.249C99.3099 169.89 99.5562 170.477 99.9878 170.908C100.425 171.34 100.973 171.556 101.631 171.556C102.556 171.556 103.308 171.182 103.889 170.435L104.977 171.473C104.617 172.009 104.135 172.427 103.532 172.726C102.935 173.019 102.262 173.166 101.515 173.166ZM101.274 165.471C100.721 165.471 100.273 165.665 99.9297 166.052C99.5921 166.44 99.3763 166.979 99.2822 167.671H103.125V167.521C103.081 166.846 102.901 166.337 102.586 165.994C102.271 165.646 101.833 165.471 101.274 165.471ZM112.132 172.12C111.54 172.817 110.699 173.166 109.608 173.166C108.634 173.166 107.896 172.881 107.392 172.311C106.894 171.741 106.645 170.917 106.645 169.837V164.019H108.662V169.812C108.662 170.952 109.135 171.522 110.082 171.522C111.061 171.522 111.722 171.171 112.065 170.468V164.019H114.083V173H112.182L112.132 172.12ZM120.839 165.861C120.574 165.817 120.3 165.795 120.018 165.795C119.093 165.795 118.471 166.149 118.15 166.857V173H116.133V164.019H118.059L118.108 165.023C118.595 164.243 119.271 163.853 120.134 163.853C120.422 163.853 120.66 163.891 120.848 163.969L120.839 165.861Z" fill="white"/>
<path d="M60.2285 224V211.914H63.7979C64.8659 211.914 65.8122 212.152 66.6367 212.628C67.4668 213.104 68.1087 213.779 68.5625 214.653C69.0163 215.528 69.2432 216.529 69.2432 217.658V218.264C69.2432 219.41 69.0135 220.417 68.5542 221.286C68.1004 222.154 67.4502 222.824 66.6035 223.294C65.7624 223.765 64.7967 224 63.7065 224H60.2285ZM62.3286 213.607V222.323H63.6982C64.7995 222.323 65.6434 221.98 66.23 221.294C66.8221 220.602 67.1237 219.612 67.1348 218.322V217.65C67.1348 216.338 66.8498 215.337 66.2798 214.645C65.7098 213.953 64.8825 213.607 63.7979 213.607H62.3286ZM75.0952 224.166C73.8169 224.166 72.7793 223.765 71.9824 222.962C71.1911 222.154 70.7954 221.081 70.7954 219.742V219.493C70.7954 218.596 70.967 217.797 71.3101 217.094C71.6587 216.385 72.1457 215.835 72.771 215.442C73.3963 215.049 74.0936 214.853 74.8628 214.853C76.0858 214.853 77.0293 215.243 77.6934 216.023C78.363 216.803 78.6978 217.907 78.6978 219.335V220.148H72.8291C72.89 220.89 73.1362 221.477 73.5679 221.908C74.005 222.34 74.5529 222.556 75.2114 222.556C76.1356 222.556 76.8882 222.182 77.4692 221.435L78.5566 222.473C78.1969 223.009 77.7155 223.427 77.1123 223.726C76.5146 224.019 75.8423 224.166 75.0952 224.166ZM74.8545 216.471C74.3011 216.471 73.8529 216.665 73.5098 217.052C73.1722 217.44 72.9564 217.979 72.8623 218.671H76.7056V218.521C76.6613 217.846 76.4814 217.337 76.166 216.994C75.8506 216.646 75.4134 216.471 74.8545 216.471ZM75.311 211.25H77.6104L75.311 213.765H73.6924L75.311 211.25ZM83.3213 221.443L85.2222 215.019H87.3057L84.1929 224H82.4414L79.3037 215.019H81.3955L83.3213 221.443ZM92.4106 224.166C91.1323 224.166 90.0947 223.765 89.2979 222.962C88.5065 222.154 88.1108 221.081 88.1108 219.742V219.493C88.1108 218.596 88.2824 217.797 88.6255 217.094C88.9741 216.385 89.4611 215.835 90.0864 215.442C90.7118 215.049 91.409 214.853 92.1782 214.853C93.4012 214.853 94.3447 215.243 95.0088 216.023C95.6784 216.803 96.0132 217.907 96.0132 219.335V220.148H90.1445C90.2054 220.89 90.4517 221.477 90.8833 221.908C91.3205 222.34 91.8683 222.556 92.5269 222.556C93.451 222.556 94.2036 222.182 94.7847 221.435L95.8721 222.473C95.5124 223.009 95.0309 223.427 94.4277 223.726C93.8301 224.019 93.1577 224.166 92.4106 224.166ZM92.1699 216.471C91.6165 216.471 91.1683 216.665 90.8252 217.052C90.4876 217.44 90.2718 217.979 90.1777 218.671H94.021V218.521C93.9767 217.846 93.7969 217.337 93.4814 216.994C93.166 216.646 92.7288 216.471 92.1699 216.471ZM99.7319 224H97.7148V211.25H99.7319V224ZM101.558 219.426C101.558 218.546 101.732 217.755 102.081 217.052C102.43 216.344 102.919 215.802 103.55 215.425C104.181 215.043 104.906 214.853 105.725 214.853C106.937 214.853 107.919 215.243 108.672 216.023C109.43 216.803 109.84 217.838 109.9 219.127L109.909 219.601C109.909 220.486 109.737 221.277 109.394 221.975C109.056 222.672 108.569 223.211 107.933 223.593C107.302 223.975 106.572 224.166 105.742 224.166C104.474 224.166 103.459 223.745 102.695 222.904C101.937 222.058 101.558 220.931 101.558 219.526V219.426ZM103.575 219.601C103.575 220.525 103.766 221.25 104.148 221.775C104.53 222.296 105.061 222.556 105.742 222.556C106.422 222.556 106.951 222.29 107.327 221.759C107.709 221.228 107.9 220.45 107.9 219.426C107.9 218.519 107.703 217.799 107.311 217.268C106.923 216.737 106.395 216.471 105.725 216.471C105.067 216.471 104.544 216.734 104.156 217.26C103.769 217.78 103.575 218.56 103.575 219.601ZM119.479 219.601C119.479 220.99 119.164 222.099 118.533 222.929C117.902 223.754 117.056 224.166 115.993 224.166C115.008 224.166 114.22 223.842 113.627 223.195V227.453H111.61V215.019H113.47L113.553 215.932C114.145 215.212 114.95 214.853 115.968 214.853C117.064 214.853 117.922 215.262 118.542 216.081C119.167 216.895 119.479 218.026 119.479 219.476V219.601ZM117.471 219.426C117.471 218.53 117.291 217.819 116.931 217.293C116.577 216.767 116.068 216.504 115.404 216.504C114.579 216.504 113.987 216.845 113.627 217.525V221.51C113.993 222.207 114.59 222.556 115.42 222.556C116.062 222.556 116.563 222.298 116.923 221.784C117.288 221.264 117.471 220.478 117.471 219.426ZM129.059 219.601C129.059 220.99 128.743 222.099 128.112 222.929C127.481 223.754 126.635 224.166 125.572 224.166C124.587 224.166 123.799 223.842 123.207 223.195V227.453H121.189V215.019H123.049L123.132 215.932C123.724 215.212 124.529 214.853 125.547 214.853C126.643 214.853 127.501 215.262 128.121 216.081C128.746 216.895 129.059 218.026 129.059 219.476V219.601ZM127.05 219.426C127.05 218.53 126.87 217.819 126.51 217.293C126.156 216.767 125.647 216.504 124.983 216.504C124.158 216.504 123.566 216.845 123.207 217.525V221.51C123.572 222.207 124.169 222.556 125 222.556C125.641 222.556 126.142 222.298 126.502 221.784C126.867 221.264 127.05 220.478 127.05 219.426ZM134.728 224.166C133.45 224.166 132.412 223.765 131.615 222.962C130.824 222.154 130.428 221.081 130.428 219.742V219.493C130.428 218.596 130.6 217.797 130.943 217.094C131.292 216.385 131.778 215.835 132.404 215.442C133.029 215.049 133.726 214.853 134.496 214.853C135.719 214.853 136.662 215.243 137.326 216.023C137.996 216.803 138.331 217.907 138.331 219.335V220.148H132.462C132.523 220.89 132.769 221.477 133.201 221.908C133.638 222.34 134.186 222.556 134.844 222.556C135.768 222.556 136.521 222.182 137.102 221.435L138.189 222.473C137.83 223.009 137.348 223.427 136.745 223.726C136.147 224.019 135.475 224.166 134.728 224.166ZM134.487 216.471C133.934 216.471 133.486 216.665 133.143 217.052C132.805 217.44 132.589 217.979 132.495 218.671H136.338V218.521C136.294 217.846 136.114 217.337 135.799 216.994C135.483 216.646 135.046 216.471 134.487 216.471ZM141.8 215.019L141.858 215.957C142.489 215.221 143.353 214.853 144.448 214.853C145.649 214.853 146.471 215.312 146.914 216.23C147.567 215.312 148.485 214.853 149.669 214.853C150.66 214.853 151.396 215.126 151.877 215.674C152.364 216.222 152.613 217.03 152.625 218.098V224H150.607V218.156C150.607 217.586 150.483 217.168 150.234 216.903C149.985 216.637 149.573 216.504 148.997 216.504C148.538 216.504 148.161 216.629 147.868 216.878C147.58 217.121 147.378 217.442 147.262 217.841L147.271 224H145.253V218.09C145.226 217.033 144.686 216.504 143.635 216.504C142.827 216.504 142.254 216.834 141.917 217.492V224H139.899V215.019H141.8ZM158.651 224.166C157.373 224.166 156.335 223.765 155.538 222.962C154.747 222.154 154.351 221.081 154.351 219.742V219.493C154.351 218.596 154.523 217.797 154.866 217.094C155.214 216.385 155.701 215.835 156.327 215.442C156.952 215.049 157.649 214.853 158.418 214.853C159.641 214.853 160.585 215.243 161.249 216.023C161.919 216.803 162.253 217.907 162.253 219.335V220.148H156.385C156.446 220.89 156.692 221.477 157.124 221.908C157.561 222.34 158.109 222.556 158.767 222.556C159.691 222.556 160.444 222.182 161.025 221.435L162.112 222.473C161.753 223.009 161.271 223.427 160.668 223.726C160.07 224.019 159.398 224.166 158.651 224.166ZM158.41 216.471C157.857 216.471 157.409 216.665 157.065 217.052C156.728 217.44 156.512 217.979 156.418 218.671H160.261V218.521C160.217 217.846 160.037 217.337 159.722 216.994C159.406 216.646 158.969 216.471 158.41 216.471ZM165.698 215.019L165.756 216.056C166.42 215.254 167.292 214.853 168.371 214.853C170.242 214.853 171.193 215.923 171.227 218.065V224H169.209V218.181C169.209 217.611 169.085 217.191 168.836 216.919C168.592 216.643 168.191 216.504 167.632 216.504C166.819 216.504 166.213 216.872 165.814 217.608V224H163.797V215.019H165.698ZM175.817 212.835V215.019H177.402V216.513H175.817V221.526C175.817 221.869 175.883 222.118 176.016 222.273C176.154 222.423 176.398 222.498 176.747 222.498C176.979 222.498 177.214 222.47 177.452 222.415V223.975C176.993 224.102 176.55 224.166 176.124 224.166C174.575 224.166 173.8 223.311 173.8 221.601V216.513H172.322V215.019H173.8V212.835H175.817ZM59.6558 237.443C59.6558 236.059 59.9767 234.95 60.6187 234.114C61.2606 233.273 62.1211 232.853 63.2002 232.853C64.152 232.853 64.9212 233.185 65.5078 233.849V229.25H67.5249V242H65.6987L65.5991 241.07C64.9959 241.801 64.1908 242.166 63.1836 242.166C62.1322 242.166 61.2799 241.743 60.627 240.896C59.9795 240.049 59.6558 238.898 59.6558 237.443ZM61.6729 237.617C61.6729 238.53 61.8472 239.244 62.1958 239.759C62.55 240.268 63.0508 240.522 63.6982 240.522C64.5228 240.522 65.126 240.154 65.5078 239.418V235.583C65.137 234.864 64.5394 234.504 63.7148 234.504C63.0618 234.504 62.5583 234.764 62.2041 235.285C61.8499 235.799 61.6729 236.577 61.6729 237.617ZM73.5845 242.166C72.3062 242.166 71.2686 241.765 70.4717 240.962C69.6803 240.154 69.2847 239.081 69.2847 237.742V237.493C69.2847 236.596 69.4562 235.797 69.7993 235.094C70.1479 234.385 70.6349 233.835 71.2603 233.442C71.8856 233.049 72.5828 232.853 73.3521 232.853C74.575 232.853 75.5186 233.243 76.1826 234.023C76.8522 234.803 77.187 235.907 77.187 237.335V238.148H71.3184C71.3792 238.89 71.6255 239.477 72.0571 239.908C72.4943 240.34 73.0422 240.556 73.7007 240.556C74.6248 240.556 75.3774 240.182 75.9585 239.435L77.0459 240.473C76.6862 241.009 76.2048 241.427 75.6016 241.726C75.0039 242.019 74.3315 242.166 73.5845 242.166ZM73.3438 234.471C72.7904 234.471 72.3421 234.665 71.999 235.052C71.6615 235.44 71.4456 235.979 71.3516 236.671H75.1948V236.521C75.1506 235.846 74.9707 235.337 74.6553 234.994C74.3398 234.646 73.9027 234.471 73.3438 234.471ZM90.8584 237.601C90.8584 238.99 90.543 240.099 89.9121 240.929C89.2812 241.754 88.4346 242.166 87.3721 242.166C86.387 242.166 85.5985 241.842 85.0063 241.195V245.453H82.9893V233.019H84.8486L84.9316 233.932C85.5238 233.212 86.3289 232.853 87.3472 232.853C88.4429 232.853 89.3006 233.262 89.9204 234.081C90.5457 234.895 90.8584 236.026 90.8584 237.476V237.601ZM88.8496 237.426C88.8496 236.53 88.6698 235.819 88.3101 235.293C87.9559 234.767 87.4468 234.504 86.7827 234.504C85.9582 234.504 85.366 234.845 85.0063 235.525V239.51C85.3716 240.207 85.9692 240.556 86.7993 240.556C87.4412 240.556 87.9421 240.298 88.3018 239.784C88.667 239.264 88.8496 238.478 88.8496 237.426ZM94.7183 242H92.7012V233.019H94.7183V242ZM92.5767 230.686C92.5767 230.376 92.6735 230.119 92.8672 229.914C93.0664 229.709 93.3486 229.607 93.7139 229.607C94.0791 229.607 94.3613 229.709 94.5605 229.914C94.7598 230.119 94.8594 230.376 94.8594 230.686C94.8594 230.99 94.7598 231.245 94.5605 231.45C94.3613 231.649 94.0791 231.749 93.7139 231.749C93.3486 231.749 93.0664 231.649 92.8672 231.45C92.6735 231.245 92.5767 230.99 92.5767 230.686ZM104.787 237.601C104.787 238.99 104.472 240.099 103.841 240.929C103.21 241.754 102.363 242.166 101.301 242.166C100.316 242.166 99.5272 241.842 98.9351 241.195V245.453H96.918V233.019H98.7773L98.8604 233.932C99.4525 233.212 100.258 232.853 101.276 232.853C102.372 232.853 103.229 233.262 103.849 234.081C104.474 234.895 104.787 236.026 104.787 237.476V237.601ZM102.778 237.426C102.778 236.53 102.598 235.819 102.239 235.293C101.885 234.767 101.375 234.504 100.711 234.504C99.8869 234.504 99.2948 234.845 98.9351 235.525V239.51C99.3003 240.207 99.8979 240.556 100.728 240.556C101.37 240.556 101.871 240.298 102.23 239.784C102.596 239.264 102.778 238.478 102.778 237.426ZM110.457 242.166C109.178 242.166 108.141 241.765 107.344 240.962C106.552 240.154 106.157 239.081 106.157 237.742V237.493C106.157 236.596 106.328 235.797 106.671 235.094C107.02 234.385 107.507 233.835 108.132 233.442C108.758 233.049 109.455 232.853 110.224 232.853C111.447 232.853 112.391 233.243 113.055 234.023C113.724 234.803 114.059 235.907 114.059 237.335V238.148H108.19C108.251 238.89 108.498 239.477 108.929 239.908C109.366 240.34 109.914 240.556 110.573 240.556C111.497 240.556 112.25 240.182 112.831 239.435L113.918 240.473C113.558 241.009 113.077 241.427 112.474 241.726C111.876 242.019 111.204 242.166 110.457 242.166ZM110.216 234.471C109.662 234.471 109.214 234.665 108.871 235.052C108.534 235.44 108.318 235.979 108.224 236.671H112.067V236.521C112.023 235.846 111.843 235.337 111.527 234.994C111.212 234.646 110.775 234.471 110.216 234.471ZM117.778 242H115.761V229.25H117.778V242ZM122.127 242H120.11V233.019H122.127V242ZM119.986 230.686C119.986 230.376 120.083 230.119 120.276 229.914C120.476 229.709 120.758 229.607 121.123 229.607C121.488 229.607 121.771 229.709 121.97 229.914C122.169 230.119 122.269 230.376 122.269 230.686C122.269 230.99 122.169 231.245 121.97 231.45C121.771 231.649 121.488 231.749 121.123 231.749C120.758 231.749 120.476 231.649 120.276 231.45C120.083 231.245 119.986 230.99 119.986 230.686ZM126.203 233.019L126.261 234.056C126.925 233.254 127.797 232.853 128.876 232.853C130.746 232.853 131.698 233.923 131.731 236.065V242H129.714V236.181C129.714 235.611 129.59 235.191 129.341 234.919C129.097 234.643 128.696 234.504 128.137 234.504C127.324 234.504 126.718 234.872 126.319 235.608V242H124.302V233.019H126.203ZM137.75 242.166C136.471 242.166 135.434 241.765 134.637 240.962C133.845 240.154 133.45 239.081 133.45 237.742V237.493C133.45 236.596 133.621 235.797 133.964 235.094C134.313 234.385 134.8 233.835 135.425 233.442C136.051 233.049 136.748 232.853 137.517 232.853C138.74 232.853 139.684 233.243 140.348 234.023C141.017 234.803 141.352 235.907 141.352 237.335V238.148H135.483C135.544 238.89 135.791 239.477 136.222 239.908C136.659 240.34 137.207 240.556 137.866 240.556C138.79 240.556 139.542 240.182 140.124 239.435L141.211 240.473C140.851 241.009 140.37 241.427 139.767 241.726C139.169 242.019 138.497 242.166 137.75 242.166ZM137.509 234.471C136.955 234.471 136.507 234.665 136.164 235.052C135.826 235.44 135.611 235.979 135.517 236.671H139.36V236.521C139.316 235.846 139.136 235.337 138.82 234.994C138.505 234.646 138.068 234.471 137.509 234.471ZM147.959 239.56C147.959 239.2 147.81 238.926 147.511 238.738C147.218 238.55 146.728 238.384 146.042 238.24C145.356 238.096 144.783 237.913 144.324 237.692C143.317 237.205 142.813 236.499 142.813 235.575C142.813 234.8 143.139 234.153 143.792 233.633C144.445 233.113 145.276 232.853 146.283 232.853C147.356 232.853 148.222 233.118 148.881 233.649C149.545 234.181 149.877 234.87 149.877 235.716H147.86C147.86 235.329 147.716 235.008 147.428 234.753C147.14 234.493 146.759 234.363 146.283 234.363C145.84 234.363 145.478 234.466 145.195 234.67C144.919 234.875 144.78 235.149 144.78 235.492C144.78 235.802 144.91 236.043 145.17 236.214C145.431 236.386 145.956 236.56 146.748 236.737C147.539 236.909 148.159 237.116 148.607 237.36C149.061 237.598 149.396 237.886 149.611 238.223C149.833 238.561 149.943 238.97 149.943 239.452C149.943 240.26 149.609 240.915 148.939 241.419C148.269 241.917 147.392 242.166 146.308 242.166C145.572 242.166 144.916 242.033 144.34 241.768C143.765 241.502 143.317 241.137 142.996 240.672C142.675 240.207 142.514 239.706 142.514 239.169H144.473C144.501 239.645 144.681 240.013 145.013 240.273C145.345 240.528 145.785 240.655 146.333 240.655C146.864 240.655 147.268 240.556 147.544 240.356C147.821 240.152 147.959 239.886 147.959 239.56ZM59.6558 255.443C59.6558 254.059 59.9767 252.95 60.6187 252.114C61.2606 251.273 62.1211 250.853 63.2002 250.853C64.152 250.853 64.9212 251.185 65.5078 251.849V247.25H67.5249V260H65.6987L65.5991 259.07C64.9959 259.801 64.1908 260.166 63.1836 260.166C62.1322 260.166 61.2799 259.743 60.627 258.896C59.9795 258.049 59.6558 256.898 59.6558 255.443ZM61.6729 255.617C61.6729 256.53 61.8472 257.244 62.1958 257.759C62.55 258.268 63.0508 258.522 63.6982 258.522C64.5228 258.522 65.126 258.154 65.5078 257.418V253.583C65.137 252.864 64.5394 252.504 63.7148 252.504C63.0618 252.504 62.5583 252.764 62.2041 253.285C61.8499 253.799 61.6729 254.577 61.6729 255.617ZM70.812 248.288L70.5962 251.533H69.2764V247.25H70.812V248.288ZM77.4526 260C77.3641 259.828 77.2866 259.549 77.2202 259.162C76.5783 259.831 75.7925 260.166 74.8628 260.166C73.9608 260.166 73.2248 259.909 72.6548 259.394C72.0848 258.879 71.7998 258.243 71.7998 257.485C71.7998 256.528 72.154 255.794 72.8623 255.285C73.5762 254.771 74.5944 254.513 75.917 254.513H77.1538V253.924C77.1538 253.459 77.0238 253.088 76.7637 252.812C76.5036 252.529 76.1079 252.388 75.5767 252.388C75.1174 252.388 74.741 252.504 74.4478 252.737C74.1545 252.964 74.0078 253.254 74.0078 253.608H71.9907C71.9907 253.116 72.154 252.657 72.4805 252.23C72.807 251.799 73.2497 251.461 73.8086 251.218C74.373 250.974 75.0011 250.853 75.6929 250.853C76.7443 250.853 77.5827 251.118 78.208 251.649C78.8333 252.175 79.1543 252.917 79.1709 253.874V257.925C79.1709 258.733 79.2843 259.377 79.5112 259.859V260H77.4526ZM75.2363 258.547C75.6348 258.547 76.0083 258.451 76.3569 258.257C76.7111 258.063 76.9767 257.803 77.1538 257.477V255.783H76.0664C75.3193 255.783 74.7576 255.913 74.3813 256.173C74.005 256.433 73.8169 256.801 73.8169 257.277C73.8169 257.665 73.9442 257.975 74.1987 258.207C74.4588 258.434 74.8047 258.547 75.2363 258.547ZM89.1484 255.601C89.1484 256.99 88.833 258.099 88.2021 258.929C87.5713 259.754 86.7246 260.166 85.6621 260.166C84.6771 260.166 83.8885 259.842 83.2964 259.195V263.453H81.2793V251.019H83.1387L83.2217 251.932C83.8138 251.212 84.619 250.853 85.6372 250.853C86.7329 250.853 87.5907 251.262 88.2104 252.081C88.8358 252.895 89.1484 254.026 89.1484 255.476V255.601ZM87.1396 255.426C87.1396 254.53 86.9598 253.819 86.6001 253.293C86.2459 252.767 85.7368 252.504 85.0728 252.504C84.2482 252.504 83.6561 252.845 83.2964 253.525V257.51C83.6616 258.207 84.2593 258.556 85.0894 258.556C85.7313 258.556 86.2321 258.298 86.5918 257.784C86.957 257.264 87.1396 256.478 87.1396 255.426ZM98.7275 255.601C98.7275 256.99 98.4121 258.099 97.7812 258.929C97.1504 259.754 96.3037 260.166 95.2412 260.166C94.2562 260.166 93.4676 259.842 92.8755 259.195V263.453H90.8584V251.019H92.7178L92.8008 251.932C93.3929 251.212 94.1981 250.853 95.2163 250.853C96.312 250.853 97.1698 251.262 97.7896 252.081C98.4149 252.895 98.7275 254.026 98.7275 255.476V255.601ZM96.7188 255.426C96.7188 254.53 96.5389 253.819 96.1792 253.293C95.825 252.767 95.3159 252.504 94.6519 252.504C93.8273 252.504 93.2352 252.845 92.8755 253.525V257.51C93.2407 258.207 93.8384 258.556 94.6685 258.556C95.3104 258.556 95.8112 258.298 96.1709 257.784C96.5361 257.264 96.7188 256.478 96.7188 255.426ZM105.144 252.861C104.878 252.817 104.604 252.795 104.322 252.795C103.398 252.795 102.776 253.149 102.455 253.857V260H100.438V251.019H102.363L102.413 252.023C102.9 251.243 103.575 250.853 104.438 250.853C104.726 250.853 104.964 250.891 105.152 250.969L105.144 252.861ZM110.208 260.166C108.929 260.166 107.892 259.765 107.095 258.962C106.303 258.154 105.908 257.081 105.908 255.742V255.493C105.908 254.596 106.079 253.797 106.422 253.094C106.771 252.385 107.258 251.835 107.883 251.442C108.509 251.049 109.206 250.853 109.975 250.853C111.198 250.853 112.142 251.243 112.806 252.023C113.475 252.803 113.81 253.907 113.81 255.335V256.148H107.941C108.002 256.89 108.249 257.477 108.68 257.908C109.117 258.34 109.665 258.556 110.324 258.556C111.248 258.556 112 258.182 112.582 257.435L113.669 258.473C113.309 259.009 112.828 259.427 112.225 259.726C111.627 260.019 110.955 260.166 110.208 260.166ZM109.967 252.471C109.413 252.471 108.965 252.665 108.622 253.052C108.285 253.44 108.069 253.979 107.975 254.671H111.818V254.521C111.774 253.846 111.594 253.337 111.278 252.994C110.963 252.646 110.526 252.471 109.967 252.471ZM117.255 251.019L117.313 252.056C117.977 251.254 118.849 250.853 119.928 250.853C121.798 250.853 122.75 251.923 122.783 254.065V260H120.766V254.181C120.766 253.611 120.642 253.191 120.393 252.919C120.149 252.643 119.748 252.504 119.189 252.504C118.375 252.504 117.77 252.872 117.371 253.608V260H115.354V251.019H117.255ZM127.374 248.835V251.019H128.959V252.513H127.374V257.526C127.374 257.869 127.44 258.118 127.573 258.273C127.711 258.423 127.955 258.498 128.303 258.498C128.536 258.498 128.771 258.47 129.009 258.415V259.975C128.549 260.102 128.107 260.166 127.681 260.166C126.131 260.166 125.356 259.311 125.356 257.601V252.513H123.879V251.019H125.356V248.835H127.374ZM132.653 260H130.636V251.019H132.653V260ZM130.511 248.686C130.511 248.376 130.608 248.119 130.802 247.914C131.001 247.709 131.283 247.607 131.648 247.607C132.014 247.607 132.296 247.709 132.495 247.914C132.694 248.119 132.794 248.376 132.794 248.686C132.794 248.99 132.694 249.245 132.495 249.45C132.296 249.649 132.014 249.749 131.648 249.749C131.283 249.749 131.001 249.649 130.802 249.45C130.608 249.245 130.511 248.99 130.511 248.686ZM139.891 257.56C139.891 257.2 139.742 256.926 139.443 256.738C139.15 256.55 138.66 256.384 137.974 256.24C137.287 256.096 136.715 255.913 136.255 255.692C135.248 255.205 134.745 254.499 134.745 253.575C134.745 252.8 135.071 252.153 135.724 251.633C136.377 251.113 137.207 250.853 138.214 250.853C139.288 250.853 140.154 251.118 140.812 251.649C141.477 252.181 141.809 252.87 141.809 253.716H139.792C139.792 253.329 139.648 253.008 139.36 252.753C139.072 252.493 138.69 252.363 138.214 252.363C137.772 252.363 137.409 252.466 137.127 252.67C136.85 252.875 136.712 253.149 136.712 253.492C136.712 253.802 136.842 254.043 137.102 254.214C137.362 254.386 137.888 254.56 138.679 254.737C139.471 254.909 140.09 255.116 140.539 255.36C140.992 255.598 141.327 255.886 141.543 256.223C141.764 256.561 141.875 256.97 141.875 257.452C141.875 258.26 141.54 258.915 140.871 259.419C140.201 259.917 139.324 260.166 138.239 260.166C137.503 260.166 136.847 260.033 136.272 259.768C135.696 259.502 135.248 259.137 134.927 258.672C134.606 258.207 134.446 257.706 134.446 257.169H136.405C136.432 257.645 136.612 258.013 136.944 258.273C137.276 258.528 137.716 258.655 138.264 258.655C138.795 258.655 139.199 258.556 139.476 258.356C139.753 258.152 139.891 257.886 139.891 257.56ZM148.673 257.56C148.673 257.2 148.524 256.926 148.225 256.738C147.932 256.55 147.442 256.384 146.756 256.24C146.07 256.096 145.497 255.913 145.038 255.692C144.03 255.205 143.527 254.499 143.527 253.575C143.527 252.8 143.853 252.153 144.506 251.633C145.159 251.113 145.989 250.853 146.997 250.853C148.07 250.853 148.936 251.118 149.595 251.649C150.259 252.181 150.591 252.87 150.591 253.716H148.574C148.574 253.329 148.43 253.008 148.142 252.753C147.854 252.493 147.472 252.363 146.997 252.363C146.554 252.363 146.191 252.466 145.909 252.67C145.632 252.875 145.494 253.149 145.494 253.492C145.494 253.802 145.624 254.043 145.884 254.214C146.144 254.386 146.67 254.56 147.461 254.737C148.253 254.909 148.873 255.116 149.321 255.36C149.775 255.598 150.109 255.886 150.325 256.223C150.547 256.561 150.657 256.97 150.657 257.452C150.657 258.26 150.322 258.915 149.653 259.419C148.983 259.917 148.106 260.166 147.021 260.166C146.285 260.166 145.63 260.033 145.054 259.768C144.479 259.502 144.03 259.137 143.709 258.672C143.389 258.207 143.228 257.706 143.228 257.169H145.187C145.215 257.645 145.395 258.013 145.727 258.273C146.059 258.528 146.499 258.655 147.046 258.655C147.578 258.655 147.982 258.556 148.258 258.356C148.535 258.152 148.673 257.886 148.673 257.56ZM157.788 260C157.699 259.828 157.622 259.549 157.555 259.162C156.913 259.831 156.127 260.166 155.198 260.166C154.296 260.166 153.56 259.909 152.99 259.394C152.42 258.879 152.135 258.243 152.135 257.485C152.135 256.528 152.489 255.794 153.197 255.285C153.911 254.771 154.929 254.513 156.252 254.513H157.489V253.924C157.489 253.459 157.359 253.088 157.099 252.812C156.839 252.529 156.443 252.388 155.912 252.388C155.452 252.388 155.076 252.504 154.783 252.737C154.489 252.964 154.343 253.254 154.343 253.608H152.326C152.326 253.116 152.489 252.657 152.815 252.23C153.142 251.799 153.585 251.461 154.144 251.218C154.708 250.974 155.336 250.853 156.028 250.853C157.079 250.853 157.918 251.118 158.543 251.649C159.168 252.175 159.489 252.917 159.506 253.874V257.925C159.506 258.733 159.619 259.377 159.846 259.859V260H157.788ZM155.571 258.547C155.97 258.547 156.343 258.451 156.692 258.257C157.046 258.063 157.312 257.803 157.489 257.477V255.783H156.401C155.654 255.783 155.093 255.913 154.716 256.173C154.34 256.433 154.152 256.801 154.152 257.277C154.152 257.665 154.279 257.975 154.534 258.207C154.794 258.434 155.14 258.547 155.571 258.547ZM161.266 255.443C161.266 254.048 161.592 252.936 162.245 252.106C162.904 251.27 163.775 250.853 164.86 250.853C165.884 250.853 166.689 251.209 167.275 251.923L167.367 251.019H169.185V259.726C169.185 260.905 168.817 261.834 168.081 262.515C167.35 263.196 166.362 263.536 165.117 263.536C164.459 263.536 163.814 263.398 163.183 263.121C162.558 262.85 162.082 262.493 161.755 262.05L162.71 260.838C163.33 261.574 164.093 261.942 165.001 261.942C165.671 261.942 166.199 261.76 166.586 261.395C166.974 261.035 167.167 260.504 167.167 259.801V259.195C166.586 259.842 165.812 260.166 164.843 260.166C163.792 260.166 162.931 259.748 162.262 258.913C161.598 258.077 161.266 256.92 161.266 255.443ZM163.274 255.617C163.274 256.519 163.457 257.23 163.822 257.75C164.193 258.265 164.705 258.522 165.358 258.522C166.171 258.522 166.775 258.174 167.167 257.477V253.525C166.786 252.845 166.188 252.504 165.375 252.504C164.71 252.504 164.193 252.767 163.822 253.293C163.457 253.819 163.274 254.593 163.274 255.617ZM175.219 260.166C173.941 260.166 172.903 259.765 172.106 258.962C171.315 258.154 170.919 257.081 170.919 255.742V255.493C170.919 254.596 171.091 253.797 171.434 253.094C171.783 252.385 172.27 251.835 172.895 251.442C173.52 251.049 174.218 250.853 174.987 250.853C176.21 250.853 177.153 251.243 177.817 252.023C178.487 252.803 178.822 253.907 178.822 255.335V256.148H172.953C173.014 256.89 173.26 257.477 173.692 257.908C174.129 258.34 174.677 258.556 175.335 258.556C176.26 258.556 177.012 258.182 177.593 257.435L178.681 258.473C178.321 259.009 177.84 259.427 177.236 259.726C176.639 260.019 175.966 260.166 175.219 260.166ZM174.979 252.471C174.425 252.471 173.977 252.665 173.634 253.052C173.296 253.44 173.08 253.979 172.986 254.671H176.83V254.521C176.785 253.846 176.605 253.337 176.29 252.994C175.975 252.646 175.537 252.471 174.979 252.471ZM65.3999 278C65.3114 277.828 65.2339 277.549 65.1675 277.162C64.5256 277.831 63.7397 278.166 62.8101 278.166C61.908 278.166 61.172 277.909 60.6021 277.394C60.0321 276.879 59.7471 276.243 59.7471 275.485C59.7471 274.528 60.1012 273.794 60.8096 273.285C61.5234 272.771 62.5417 272.513 63.8643 272.513H65.1011V271.924C65.1011 271.459 64.971 271.088 64.7109 270.812C64.4508 270.529 64.0552 270.388 63.5239 270.388C63.0646 270.388 62.6883 270.504 62.395 270.737C62.1017 270.964 61.9551 271.254 61.9551 271.608H59.938C59.938 271.116 60.1012 270.657 60.4277 270.23C60.7542 269.799 61.1969 269.461 61.7559 269.218C62.3203 268.974 62.9484 268.853 63.6401 268.853C64.6916 268.853 65.5299 269.118 66.1553 269.649C66.7806 270.175 67.1016 270.917 67.1182 271.874V275.925C67.1182 276.733 67.2316 277.377 67.4585 277.859V278H65.3999ZM63.1836 276.547C63.582 276.547 63.9556 276.451 64.3042 276.257C64.6584 276.063 64.924 275.803 65.1011 275.477V273.783H64.0137C63.2666 273.783 62.7049 273.913 62.3286 274.173C61.9523 274.433 61.7642 274.801 61.7642 275.277C61.7642 275.665 61.8914 275.975 62.146 276.207C62.4061 276.434 62.752 276.547 63.1836 276.547ZM74.6719 277.12C74.0798 277.817 73.2386 278.166 72.1484 278.166C71.1745 278.166 70.4357 277.881 69.9321 277.311C69.4341 276.741 69.1851 275.917 69.1851 274.837V269.019H71.2021V274.812C71.2021 275.952 71.6753 276.522 72.6216 276.522C73.6011 276.522 74.2624 276.171 74.6055 275.468V269.019H76.6226V278H74.7217L74.6719 277.12ZM81.2046 266.835V269.019H82.79V270.513H81.2046V275.526C81.2046 275.869 81.271 276.118 81.4038 276.273C81.5422 276.423 81.7856 276.498 82.1343 276.498C82.3667 276.498 82.6019 276.47 82.8398 276.415V277.975C82.3805 278.102 81.9378 278.166 81.5117 278.166C79.9622 278.166 79.1875 277.311 79.1875 275.601V270.513H77.71V269.019H79.1875V266.835H81.2046ZM83.7114 273.426C83.7114 272.546 83.8857 271.755 84.2344 271.052C84.583 270.344 85.0728 269.802 85.7036 269.425C86.3345 269.043 87.0594 268.853 87.8784 268.853C89.0903 268.853 90.0726 269.243 90.8252 270.023C91.5833 270.803 91.9928 271.838 92.0537 273.127L92.062 273.601C92.062 274.486 91.8905 275.277 91.5474 275.975C91.2098 276.672 90.7228 277.211 90.0864 277.593C89.4556 277.975 88.7251 278.166 87.895 278.166C86.6278 278.166 85.6123 277.745 84.8486 276.904C84.0905 276.058 83.7114 274.931 83.7114 273.526V273.426ZM85.7285 273.601C85.7285 274.525 85.9194 275.25 86.3013 275.775C86.6831 276.296 87.2144 276.556 87.895 276.556C88.5757 276.556 89.1042 276.29 89.4805 275.759C89.8623 275.228 90.0532 274.45 90.0532 273.426C90.0532 272.519 89.8568 271.799 89.4639 271.268C89.0765 270.737 88.548 270.471 87.8784 270.471C87.2199 270.471 86.6969 270.734 86.3096 271.26C85.9222 271.78 85.7285 272.56 85.7285 273.601ZM95.6646 269.019L95.7227 269.957C96.3535 269.221 97.2168 268.853 98.3125 268.853C99.5133 268.853 100.335 269.312 100.778 270.23C101.431 269.312 102.349 268.853 103.534 268.853C104.524 268.853 105.26 269.126 105.742 269.674C106.229 270.222 106.478 271.03 106.489 272.098V278H104.472V272.156C104.472 271.586 104.347 271.168 104.098 270.903C103.849 270.637 103.437 270.504 102.861 270.504C102.402 270.504 102.026 270.629 101.732 270.878C101.445 271.121 101.243 271.442 101.126 271.841L101.135 278H99.1177V272.09C99.09 271.033 98.5505 270.504 97.499 270.504C96.6911 270.504 96.1183 270.834 95.7808 271.492V278H93.7637V269.019H95.6646ZM113.926 278C113.838 277.828 113.76 277.549 113.694 277.162C113.052 277.831 112.266 278.166 111.336 278.166C110.434 278.166 109.698 277.909 109.128 277.394C108.558 276.879 108.273 276.243 108.273 275.485C108.273 274.528 108.628 273.794 109.336 273.285C110.05 272.771 111.068 272.513 112.391 272.513H113.627V271.924C113.627 271.459 113.497 271.088 113.237 270.812C112.977 270.529 112.582 270.388 112.05 270.388C111.591 270.388 111.215 270.504 110.921 270.737C110.628 270.964 110.481 271.254 110.481 271.608H108.464C108.464 271.116 108.628 270.657 108.954 270.23C109.281 269.799 109.723 269.461 110.282 269.218C110.847 268.974 111.475 268.853 112.167 268.853C113.218 268.853 114.056 269.118 114.682 269.649C115.307 270.175 115.628 270.917 115.645 271.874V275.925C115.645 276.733 115.758 277.377 115.985 277.859V278H113.926ZM111.71 276.547C112.108 276.547 112.482 276.451 112.831 276.257C113.185 276.063 113.45 275.803 113.627 275.477V273.783H112.54C111.793 273.783 111.231 273.913 110.855 274.173C110.479 274.433 110.291 274.801 110.291 275.277C110.291 275.665 110.418 275.975 110.672 276.207C110.932 276.434 111.278 276.547 111.71 276.547ZM120.285 266.835V269.019H121.87V270.513H120.285V275.526C120.285 275.869 120.351 276.118 120.484 276.273C120.622 276.423 120.866 276.498 121.214 276.498C121.447 276.498 121.682 276.47 121.92 276.415V277.975C121.461 278.102 121.018 278.166 120.592 278.166C119.042 278.166 118.268 277.311 118.268 275.601V270.513H116.79V269.019H118.268V266.835H120.285ZM125.564 278H123.547V269.019H125.564V278ZM123.422 266.686C123.422 266.376 123.519 266.119 123.713 265.914C123.912 265.709 124.194 265.607 124.56 265.607C124.925 265.607 125.207 265.709 125.406 265.914C125.605 266.119 125.705 266.376 125.705 266.686C125.705 266.99 125.605 267.245 125.406 267.45C125.207 267.649 124.925 267.749 124.56 267.749C124.194 267.749 123.912 267.649 123.713 267.45C123.519 267.245 123.422 266.99 123.422 266.686ZM127.39 273.435C127.39 272.029 127.711 270.914 128.353 270.089C128.995 269.265 129.864 268.853 130.959 268.853C131.961 268.853 132.755 269.204 133.342 269.907L133.458 269.019H135.251V281.453H133.234V277.236C132.647 277.856 131.884 278.166 130.943 278.166C129.869 278.166 129.009 277.748 128.361 276.913C127.714 276.071 127.39 274.912 127.39 273.435ZM129.407 273.609C129.407 274.528 129.587 275.25 129.947 275.775C130.312 276.296 130.816 276.556 131.458 276.556C132.254 276.556 132.847 276.215 133.234 275.535V271.451C132.847 270.798 132.26 270.471 131.474 270.471C130.832 270.471 130.326 270.729 129.955 271.243C129.59 271.758 129.407 272.546 129.407 273.609ZM142.871 277.12C142.279 277.817 141.438 278.166 140.348 278.166C139.374 278.166 138.635 277.881 138.131 277.311C137.633 276.741 137.384 275.917 137.384 274.837V269.019H139.401V274.812C139.401 275.952 139.875 276.522 140.821 276.522C141.8 276.522 142.462 276.171 142.805 275.468V269.019H144.822V278H142.921L142.871 277.12ZM150.832 278.166C149.553 278.166 148.516 277.765 147.719 276.962C146.927 276.154 146.532 275.081 146.532 273.742V273.493C146.532 272.596 146.703 271.797 147.046 271.094C147.395 270.385 147.882 269.835 148.507 269.442C149.133 269.049 149.83 268.853 150.599 268.853C151.822 268.853 152.766 269.243 153.43 270.023C154.099 270.803 154.434 271.907 154.434 273.335V274.148H148.565C148.626 274.89 148.873 275.477 149.304 275.908C149.741 276.34 150.289 276.556 150.948 276.556C151.872 276.556 152.625 276.182 153.206 275.435L154.293 276.473C153.933 277.009 153.452 277.427 152.849 277.726C152.251 278.019 151.579 278.166 150.832 278.166ZM150.591 270.471C150.037 270.471 149.589 270.665 149.246 271.052C148.909 271.44 148.693 271.979 148.599 272.671H152.442V272.521C152.398 271.846 152.218 271.337 151.902 270.994C151.587 270.646 151.15 270.471 150.591 270.471ZM63.9888 296.166C62.7104 296.166 61.6729 295.765 60.876 294.962C60.0846 294.154 59.689 293.081 59.689 291.742V291.493C59.689 290.596 59.8605 289.797 60.2036 289.094C60.5522 288.385 61.0392 287.835 61.6646 287.442C62.2899 287.049 62.9871 286.853 63.7563 286.853C64.9793 286.853 65.9229 287.243 66.5869 288.023C67.2565 288.803 67.5913 289.907 67.5913 291.335V292.148H61.7227C61.7835 292.89 62.0298 293.477 62.4614 293.908C62.8986 294.34 63.4465 294.556 64.105 294.556C65.0291 294.556 65.7817 294.182 66.3628 293.435L67.4502 294.473C67.0905 295.009 66.609 295.427 66.0059 295.726C65.4082 296.019 64.7358 296.166 63.9888 296.166ZM63.748 288.471C63.1947 288.471 62.7464 288.665 62.4033 289.052C62.0658 289.44 61.8499 289.979 61.7559 290.671H65.5991V290.521C65.5549 289.846 65.375 289.337 65.0596 288.994C64.7441 288.646 64.307 288.471 63.748 288.471ZM71.0361 287.019L71.0942 288.056C71.7583 287.254 72.6299 286.853 73.709 286.853C75.5794 286.853 76.5312 287.923 76.5645 290.065V296H74.5474V290.181C74.5474 289.611 74.4229 289.191 74.1738 288.919C73.9303 288.643 73.5291 288.504 72.9702 288.504C72.1567 288.504 71.5508 288.872 71.1523 289.608V296H69.1353V287.019H71.0361ZM90.7256 291.601C90.7256 292.99 90.4102 294.099 89.7793 294.929C89.1484 295.754 88.3018 296.166 87.2393 296.166C86.2542 296.166 85.4657 295.842 84.8735 295.195V299.453H82.8564V287.019H84.7158L84.7988 287.932C85.391 287.212 86.1961 286.853 87.2144 286.853C88.3101 286.853 89.1678 287.262 89.7876 288.081C90.4129 288.895 90.7256 290.026 90.7256 291.476V291.601ZM88.7168 291.426C88.7168 290.53 88.5369 289.819 88.1772 289.293C87.8231 288.767 87.314 288.504 86.6499 288.504C85.8254 288.504 85.2332 288.845 84.8735 289.525V293.51C85.2388 294.207 85.8364 294.556 86.6665 294.556C87.3084 294.556 87.8092 294.298 88.1689 293.784C88.5342 293.264 88.7168 292.478 88.7168 291.426ZM97.1421 288.861C96.8765 288.817 96.6025 288.795 96.3203 288.795C95.3962 288.795 94.7736 289.149 94.4526 289.857V296H92.4355V287.019H94.3613L94.4111 288.023C94.8981 287.243 95.5732 286.853 96.4365 286.853C96.7243 286.853 96.9622 286.891 97.1504 286.969L97.1421 288.861ZM97.7397 291.426C97.7397 290.546 97.9141 289.755 98.2627 289.052C98.6113 288.344 99.1011 287.802 99.7319 287.425C100.363 287.043 101.088 286.853 101.907 286.853C103.119 286.853 104.101 287.243 104.854 288.023C105.612 288.803 106.021 289.838 106.082 291.127L106.09 291.601C106.09 292.486 105.919 293.277 105.576 293.975C105.238 294.672 104.751 295.211 104.115 295.593C103.484 295.975 102.753 296.166 101.923 296.166C100.656 296.166 99.6406 295.745 98.877 294.904C98.1188 294.058 97.7397 292.931 97.7397 291.526V291.426ZM99.7568 291.601C99.7568 292.525 99.9478 293.25 100.33 293.775C100.711 294.296 101.243 294.556 101.923 294.556C102.604 294.556 103.132 294.29 103.509 293.759C103.891 293.228 104.082 292.45 104.082 291.426C104.082 290.519 103.885 289.799 103.492 289.268C103.105 288.737 102.576 288.471 101.907 288.471C101.248 288.471 100.725 288.734 100.338 289.26C99.9505 289.78 99.7568 290.56 99.7568 291.601ZM108.506 296V288.513H107.136V287.019H108.506V286.197C108.506 285.201 108.783 284.431 109.336 283.889C109.889 283.347 110.664 283.076 111.66 283.076C112.014 283.076 112.391 283.125 112.789 283.225L112.739 284.802C112.518 284.758 112.261 284.736 111.967 284.736C111.004 284.736 110.523 285.231 110.523 286.222V287.019H112.349V288.513H110.523V296H108.506ZM113.445 291.426C113.445 290.546 113.619 289.755 113.968 289.052C114.316 288.344 114.806 287.802 115.437 287.425C116.068 287.043 116.793 286.853 117.612 286.853C118.824 286.853 119.806 287.243 120.559 288.023C121.317 288.803 121.726 289.838 121.787 291.127L121.795 291.601C121.795 292.486 121.624 293.277 121.281 293.975C120.943 294.672 120.456 295.211 119.82 295.593C119.189 295.975 118.458 296.166 117.628 296.166C116.361 296.166 115.346 295.745 114.582 294.904C113.824 294.058 113.445 292.931 113.445 291.526V291.426ZM115.462 291.601C115.462 292.525 115.653 293.25 116.035 293.775C116.417 294.296 116.948 294.556 117.628 294.556C118.309 294.556 118.838 294.29 119.214 293.759C119.596 293.228 119.787 292.45 119.787 291.426C119.787 290.519 119.59 289.799 119.197 289.268C118.81 288.737 118.281 288.471 117.612 288.471C116.953 288.471 116.43 288.734 116.043 289.26C115.656 289.78 115.462 290.56 115.462 291.601ZM125.373 287.019L125.431 288.056C126.095 287.254 126.967 286.853 128.046 286.853C129.916 286.853 130.868 287.923 130.901 290.065V296H128.884V290.181C128.884 289.611 128.76 289.191 128.511 288.919C128.267 288.643 127.866 288.504 127.307 288.504C126.494 288.504 125.888 288.872 125.489 289.608V296H123.472V287.019H125.373ZM132.586 291.443C132.586 290.059 132.907 288.95 133.549 288.114C134.191 287.273 135.052 286.853 136.131 286.853C137.083 286.853 137.852 287.185 138.438 287.849V283.25H140.456V296H138.629L138.53 295.07C137.927 295.801 137.121 296.166 136.114 296.166C135.063 296.166 134.211 295.743 133.558 294.896C132.91 294.049 132.586 292.898 132.586 291.443ZM134.604 291.617C134.604 292.53 134.778 293.244 135.126 293.759C135.481 294.268 135.981 294.522 136.629 294.522C137.453 294.522 138.057 294.154 138.438 293.418V289.583C138.068 288.864 137.47 288.504 136.646 288.504C135.993 288.504 135.489 288.764 135.135 289.285C134.781 289.799 134.604 290.577 134.604 291.617ZM146.515 296.166C145.237 296.166 144.199 295.765 143.402 294.962C142.611 294.154 142.215 293.081 142.215 291.742V291.493C142.215 290.596 142.387 289.797 142.73 289.094C143.079 288.385 143.566 287.835 144.191 287.442C144.816 287.049 145.514 286.853 146.283 286.853C147.506 286.853 148.449 287.243 149.113 288.023C149.783 288.803 150.118 289.907 150.118 291.335V292.148H144.249C144.31 292.89 144.556 293.477 144.988 293.908C145.425 294.34 145.973 294.556 146.631 294.556C147.556 294.556 148.308 294.182 148.889 293.435L149.977 294.473C149.617 295.009 149.135 295.427 148.532 295.726C147.935 296.019 147.262 296.166 146.515 296.166ZM146.274 288.471C145.721 288.471 145.273 288.665 144.93 289.052C144.592 289.44 144.376 289.979 144.282 290.671H148.125V290.521C148.081 289.846 147.901 289.337 147.586 288.994C147.271 288.646 146.833 288.471 146.274 288.471ZM157.132 295.12C156.54 295.817 155.699 296.166 154.608 296.166C153.634 296.166 152.896 295.881 152.392 295.311C151.894 294.741 151.645 293.917 151.645 292.837V287.019H153.662V292.812C153.662 293.952 154.135 294.522 155.082 294.522C156.061 294.522 156.722 294.171 157.065 293.468V287.019H159.083V296H157.182L157.132 295.12ZM165.839 288.861C165.574 288.817 165.3 288.795 165.018 288.795C164.093 288.795 163.471 289.149 163.15 289.857V296H161.133V287.019H163.059L163.108 288.023C163.595 287.243 164.271 286.853 165.134 286.853C165.422 286.853 165.66 286.891 165.848 286.969L165.839 288.861Z" fill="white"/>
</svg>
