<svg width="348" height="295" viewBox="0 0 348 295" fill="none" xmlns="http://www.w3.org/2000/svg">
<path d="M126.359 5.85643L129.781 15.002H129.831L133.261 5.85643H135.835V17.7457H133.849V13.6955L134.046 8.54295L133.997 8.53479L130.468 17.7457H129.136L125.623 8.55928L125.574 8.56744L125.771 13.6955V17.7457H123.785V5.85643H126.359ZM143.506 17.7457C143.435 17.5225 143.375 17.3047 143.326 17.0925C143.282 16.8801 143.253 16.6678 143.236 16.4555C142.964 16.8692 142.604 17.2176 142.158 17.5007C141.717 17.7783 141.221 17.9172 140.671 17.9172C139.751 17.9172 139.043 17.6804 138.547 17.2068C138.057 16.7331 137.812 16.0826 137.812 15.2552C137.812 14.4005 138.149 13.7364 138.825 13.2628C139.5 12.7837 140.451 12.5441 141.676 12.5441H143.22V11.7684C143.22 11.3057 143.084 10.9437 142.811 10.6823C142.539 10.4211 142.15 10.2904 141.643 10.2904C141.191 10.2904 140.832 10.3993 140.565 10.6171C140.298 10.8348 140.164 11.1151 140.164 11.4581H138.253L138.245 11.4091C138.207 10.7123 138.517 10.0944 139.176 9.55552C139.84 9.01656 140.704 8.74711 141.766 8.74711C142.795 8.74711 143.626 9.0084 144.257 9.53097C144.889 10.0536 145.205 10.8048 145.205 11.7847V15.7125C145.205 16.0772 145.23 16.4283 145.279 16.7658C145.327 17.0979 145.406 17.4245 145.515 17.7457H143.506ZM141.071 16.3249C141.572 16.3249 142.021 16.1996 142.42 15.9493C142.823 15.6988 143.09 15.413 143.22 15.0918V13.7853H141.643C141.066 13.7853 140.614 13.9296 140.287 14.2181C139.96 14.5012 139.797 14.836 139.797 15.2225C139.797 15.56 139.906 15.8295 140.124 16.0309C140.347 16.2269 140.663 16.3249 141.071 16.3249ZM150.94 16.333C151.425 16.333 151.833 16.1915 152.166 15.9084C152.498 15.6199 152.664 15.2606 152.664 14.8305H154.461L154.477 14.8796C154.505 15.707 154.167 16.4201 153.464 17.019C152.767 17.6178 151.925 17.9172 150.94 17.9172C149.638 17.9172 148.639 17.498 147.941 16.6597C147.25 15.8213 146.904 14.7598 146.904 13.475V13.1892C146.904 11.91 147.25 10.8511 147.941 10.0128C148.639 9.16901 149.638 8.74711 150.94 8.74711C152.002 8.74711 152.862 9.05736 153.522 9.678C154.186 10.2932 154.507 11.077 154.485 12.0297L154.469 12.0787H152.664C152.664 11.5942 152.503 11.1832 152.182 10.8457C151.866 10.5081 151.452 10.3394 150.94 10.3394C150.194 10.3394 149.665 10.6116 149.355 11.1559C149.044 11.6949 148.89 12.3727 148.89 13.1892V13.475C148.89 14.308 149.044 14.9939 149.355 15.5328C149.665 16.0663 150.194 16.333 150.94 16.333ZM158.039 10.0536C158.333 9.63987 158.69 9.31872 159.11 9.09008C159.534 8.86143 160.002 8.74711 160.514 8.74711C161.451 8.74711 162.181 9.04379 162.704 9.63713C163.232 10.2251 163.496 11.1342 163.496 12.3645V17.7457H161.511V12.3482C161.511 11.6514 161.372 11.1478 161.095 10.8375C160.817 10.5272 160.4 10.3721 159.844 10.3721C159.458 10.3721 159.11 10.4537 158.799 10.6171C158.494 10.7749 158.24 10.9954 158.039 11.2785V17.7457H156.054V5.0072H158.039V10.0536ZM167.67 17.7457H165.685V8.9104H167.67V17.7457ZM167.67 6.74646H165.685V5.0072H167.67V6.74646ZM171.698 8.9104L171.812 10.1843C172.101 9.73245 172.463 9.38133 172.899 9.13088C173.34 8.87501 173.836 8.74711 174.386 8.74711C175.306 8.74711 176.022 9.02746 176.534 9.58816C177.052 10.1434 177.311 11.0117 177.311 12.193V17.7457H175.325V12.2094C175.325 11.5452 175.187 11.0743 174.909 10.7967C174.636 10.5136 174.219 10.3721 173.659 10.3721C173.272 10.3721 172.927 10.4592 172.621 10.6334C172.316 10.8021 172.066 11.0362 171.87 11.3356V17.7457H169.885V8.9104H171.698ZM183.168 17.9172C181.915 17.9172 180.916 17.5089 180.17 16.6923C179.429 15.8703 179.059 14.817 179.059 13.5322V13.2056C179.059 11.9208 179.426 10.8566 180.162 10.0128C180.902 9.16352 181.828 8.74163 182.939 8.74711C184.132 8.74711 185.044 9.10914 185.676 9.83313C186.313 10.5517 186.632 11.518 186.632 12.732V13.8996H181.117L181.101 13.9405C181.134 14.6427 181.338 15.217 181.714 15.6634C182.095 16.1098 182.62 16.333 183.29 16.333C183.824 16.333 184.281 16.2677 184.663 16.137C185.044 16.0064 185.412 15.8186 185.766 15.5736L186.403 16.872C186.071 17.1659 185.63 17.4136 185.08 17.615C184.53 17.8165 183.893 17.9172 183.168 17.9172ZM182.939 10.3394C182.449 10.3394 182.046 10.5354 181.73 10.9273C181.414 11.3138 181.218 11.8065 181.142 12.4053L181.158 12.4462H184.663V12.242C184.663 11.6813 184.518 11.224 184.23 10.8702C183.947 10.5163 183.516 10.3394 182.939 10.3394ZM194.515 17.7457H192.53V5.0072H194.515V17.7457ZM200.536 17.9172C199.284 17.9172 198.284 17.5089 197.537 16.6923C196.797 15.8703 196.427 14.817 196.427 13.5322V13.2056C196.427 11.9208 196.795 10.8566 197.529 10.0128C198.27 9.16352 199.196 8.74163 200.307 8.74711C201.5 8.74711 202.412 9.10914 203.044 9.83313C203.681 10.5517 204 11.518 204 12.732V13.8996H198.485L198.469 13.9405C198.502 14.6427 198.706 15.217 199.082 15.6634C199.463 16.1098 199.988 16.333 200.658 16.333C201.192 16.333 201.65 16.2677 202.031 16.137C202.412 16.0064 202.78 15.8186 203.134 15.5736L203.771 16.872C203.439 17.1659 202.998 17.4136 202.448 17.615C201.898 17.8165 201.26 17.9172 200.536 17.9172ZM200.307 10.3394C199.817 10.3394 199.414 10.5354 199.098 10.9273C198.782 11.3138 198.586 11.8065 198.51 12.4053L198.526 12.4462H202.031V12.242C202.031 11.6813 201.887 11.224 201.598 10.8702C201.315 10.5163 200.884 10.3394 200.307 10.3394ZM210.919 17.7457C210.848 17.5225 210.788 17.3047 210.739 17.0925C210.696 16.8801 210.666 16.6678 210.65 16.4555C210.377 16.8692 210.018 17.2176 209.571 17.5007C209.13 17.7783 208.635 17.9172 208.085 17.9172C207.164 17.9172 206.456 17.6804 205.96 17.2068C205.47 16.7331 205.225 16.0826 205.225 15.2552C205.225 14.4005 205.563 13.7364 206.238 13.2628C206.913 12.7837 207.864 12.5441 209.089 12.5441H210.633V11.7684C210.633 11.3057 210.497 10.9437 210.225 10.6823C209.952 10.4211 209.563 10.2904 209.056 10.2904C208.605 10.2904 208.245 10.3993 207.978 10.6171C207.711 10.8348 207.578 11.1151 207.578 11.4581H205.666L205.658 11.4091C205.62 10.7123 205.93 10.0944 206.589 9.55552C207.254 9.01656 208.117 8.74711 209.179 8.74711C210.208 8.74711 211.039 9.0084 211.671 9.53097C212.303 10.0536 212.619 10.8048 212.619 11.7847V15.7125C212.619 16.0772 212.643 16.4283 212.692 16.7658C212.741 17.0979 212.82 17.4245 212.928 17.7457H210.919ZM208.485 16.3249C208.986 16.3249 209.435 16.1996 209.833 15.9493C210.235 15.6988 210.502 15.413 210.633 15.0918V13.7853H209.056C208.479 13.7853 208.027 13.9296 207.7 14.2181C207.374 14.5012 207.211 14.836 207.211 15.2225C207.211 15.56 207.319 15.8295 207.537 16.0309C207.76 16.2269 208.076 16.3249 208.485 16.3249ZM219.105 10.6987L218.255 10.666C217.869 10.666 217.544 10.7477 217.283 10.911C217.027 11.0743 216.828 11.3057 216.687 11.6051V17.7457H214.701V8.9104H216.515L216.646 10.1924C216.869 9.74061 217.155 9.38675 217.503 9.13088C217.857 8.87501 218.264 8.74711 218.721 8.74711C218.84 8.74711 218.952 8.75795 219.056 8.77976C219.159 8.79608 219.255 8.81789 219.342 8.84511L219.105 10.6987ZM222.299 8.9104L222.413 10.1843C222.702 9.73245 223.064 9.38133 223.5 9.13088C223.941 8.87501 224.437 8.74711 224.987 8.74711C225.907 8.74711 226.623 9.02746 227.135 9.58816C227.653 10.1434 227.911 11.0117 227.911 12.193V17.7457H225.926V12.2094C225.926 11.5452 225.787 11.0743 225.509 10.7967C225.237 10.5136 224.821 10.3721 224.26 10.3721C223.873 10.3721 223.527 10.4592 223.222 10.6334C222.917 10.8021 222.666 11.0362 222.47 11.3356V17.7457H220.485V8.9104H222.299ZM232.094 17.7457H230.109V8.9104H232.094V17.7457ZM232.094 6.74646H230.109V5.0072H232.094V6.74646ZM236.121 8.9104L236.236 10.1843C236.524 9.73245 236.887 9.38133 237.323 9.13088C237.764 8.87501 238.259 8.74711 238.809 8.74711C239.73 8.74711 240.446 9.02746 240.958 9.58816C241.475 10.1434 241.733 11.0117 241.733 12.193V17.7457H239.749V12.2094C239.749 11.5452 239.61 11.0743 239.332 10.7967C239.06 10.5136 238.643 10.3721 238.082 10.3721C237.695 10.3721 237.349 10.4592 237.045 10.6334C236.74 10.8021 236.489 11.0362 236.293 11.3356V17.7457H234.308V8.9104H236.121ZM243.441 13.4505C243.441 12.046 243.749 10.911 244.364 10.0454C244.98 9.17985 245.835 8.74711 246.929 8.74711C247.457 8.74711 247.921 8.86143 248.318 9.09008C248.722 9.31323 249.062 9.63713 249.339 10.0618L249.535 8.9104H251.186V17.7457C251.186 18.8835 250.834 19.7627 250.132 20.3832C249.429 21.0038 248.432 21.3141 247.142 21.3141C246.712 21.3141 246.246 21.2515 245.745 21.1263C245.25 21.0065 244.8 20.8459 244.397 20.6445L244.822 19.0849C245.149 19.2537 245.508 19.3843 245.9 19.4768C246.298 19.5748 246.706 19.6238 247.125 19.6238C247.844 19.6238 248.37 19.4687 248.702 19.1583C249.034 18.8535 249.201 18.3826 249.201 17.7457V16.8393C248.923 17.1931 248.593 17.4626 248.212 17.6477C247.836 17.8274 247.403 17.9172 246.913 17.9172C245.829 17.9172 244.98 17.5225 244.364 16.7331C243.749 15.9438 243.441 14.9067 243.441 13.622V13.4505ZM245.426 13.622C245.426 14.4331 245.587 15.0837 245.908 15.5736C246.235 16.0581 246.739 16.3004 247.42 16.3004C247.844 16.3004 248.201 16.2133 248.49 16.0391C248.784 15.8594 249.021 15.6036 249.201 15.2715V11.401C249.015 11.0798 248.776 10.8294 248.481 10.6497C248.193 10.4646 247.844 10.3721 247.436 10.3721C246.755 10.3721 246.249 10.6579 245.916 11.2295C245.59 11.8011 245.426 12.5414 245.426 13.4505V13.622Z" fill="white"/>
<path d="M47.9033 86.6457V74.7568H51.7592C53.2678 74.7568 54.4932 75.2277 55.4354 76.1696C56.3831 77.1114 56.8569 78.3222 56.8569 79.8032V81.608C56.8569 83.0937 56.3831 84.3051 55.4354 85.2416C54.4932 86.1775 53.2678 86.6457 51.7592 86.6457H47.9033ZM49.8885 76.3488V85.0617H51.7021C52.6878 85.0617 53.4612 84.7406 54.0222 84.0984C54.5885 83.4556 54.8718 82.6254 54.8718 81.608V79.7865C54.8718 78.7797 54.5885 77.9549 54.0222 77.3128C53.4612 76.6699 52.6878 76.3488 51.7021 76.3488H49.8885ZM62.4365 86.8177C61.1839 86.8177 60.1845 86.4089 59.4384 85.5928C58.6977 84.7707 58.3274 83.7171 58.3274 82.4321V82.1057C58.3274 80.8213 58.695 79.7571 59.4302 78.9129C60.1709 78.064 61.0967 77.6419 62.2078 77.6472C63.4005 77.6472 64.3127 78.0091 64.9445 78.7336C65.5817 79.452 65.9003 80.418 65.9003 81.6321V82.8H60.386L60.3697 82.8408C60.4023 83.5432 60.6066 84.1172 60.9824 84.564C61.3636 85.0102 61.8892 85.2336 62.5591 85.2336C63.0928 85.2336 63.5503 85.1681 63.9315 85.0376C64.3127 84.9065 64.6804 84.7185 65.0344 84.4737L65.6716 85.7721C65.3394 86.0664 64.8982 86.3139 64.3481 86.5153C63.7981 86.7166 63.1609 86.8177 62.4365 86.8177ZM62.2078 79.24C61.7177 79.24 61.3146 79.436 60.9988 79.8273C60.6829 80.2139 60.4868 80.7069 60.4106 81.3056L60.4269 81.3464H63.9315V81.1424C63.9315 80.5819 63.7872 80.1243 63.4985 79.7704C63.2153 79.4166 62.7851 79.24 62.2078 79.24ZM71.2919 86.8177C70.0397 86.8177 69.0399 86.4089 68.2937 85.5928C67.5535 84.7707 67.1828 83.7171 67.1828 82.4321V82.1057C67.1828 80.8213 67.5509 79.7571 68.2857 78.9129C69.0265 78.064 69.9521 77.6419 71.0637 77.6472C72.2562 77.6472 73.1684 78.0091 73.8001 78.7336C74.4373 79.452 74.7558 80.418 74.7558 81.6321V82.8H69.2413L69.2253 82.8408C69.2581 83.5432 69.4622 84.1172 69.8376 84.564C70.2191 85.0102 70.7444 85.2336 71.4143 85.2336C71.9484 85.2336 72.4061 85.1681 72.7869 85.0376C73.1684 84.9065 73.5358 84.7185 73.8898 84.4737L74.5269 85.7721C74.195 86.0664 73.754 86.3139 73.2039 86.5153C72.6538 86.7166 72.0166 86.8177 71.2919 86.8177ZM71.0637 79.24C70.5731 79.24 70.1702 79.436 69.8544 79.8273C69.5385 80.2139 69.3424 80.7069 69.2661 81.3056L69.2822 81.3464H72.7869V81.1424C72.7869 80.5819 72.643 80.1243 72.3539 79.7704C72.0709 79.4166 71.6405 79.24 71.0637 79.24ZM84.1016 82.5224C84.1016 83.8068 83.7991 84.8443 83.1948 85.6336C82.5905 86.423 81.7486 86.8177 80.6705 86.8177C80.1692 86.8177 79.7255 86.7273 79.3387 86.5481C78.9519 86.3681 78.6199 86.1046 78.3422 85.7561V90.0426H76.3573V77.8105H78.0317L78.2278 78.9209C78.5109 78.5075 78.8515 78.1917 79.249 77.9737C79.6519 77.7563 80.1177 77.6472 80.6457 77.6472C81.7352 77.6472 82.5818 78.08 83.1868 78.9456C83.7964 79.8059 84.1016 80.9411 84.1016 82.3505V82.5224ZM82.1247 82.3505C82.1247 81.4475 81.9527 80.7096 81.6101 80.1377C81.2721 79.5611 80.7655 79.2721 80.0902 79.2721C79.6767 79.2721 79.3253 79.3624 79.0369 79.5417C78.7478 79.7162 78.5162 79.9611 78.3422 80.2768V84.2697C78.5162 84.5801 78.7478 84.8195 79.0369 84.9881C79.3253 85.1513 79.682 85.2336 80.107 85.2336C80.7822 85.2336 81.2862 84.9854 81.6181 84.4904C81.9561 83.9894 82.1247 83.3332 82.1247 82.5224V82.3505ZM92.1157 86.6457H90.1307V73.9072H92.1157V86.6457ZM98.1367 86.8177C96.8839 86.8177 95.8848 86.4089 95.1386 85.5928C94.3977 84.7707 94.027 83.7171 94.027 82.4321V82.1057C94.027 80.8213 94.395 79.7571 95.1299 78.9129C95.8707 78.064 96.7969 77.6419 97.9078 77.6472C99.1004 77.6472 100.013 78.0091 100.644 78.7336C101.281 79.452 101.6 80.418 101.6 81.6321V82.8H96.0862L96.0695 82.8408C96.1023 83.5432 96.3064 84.1172 96.6825 84.564C97.0633 85.0102 97.5893 85.2336 98.2592 85.2336C98.7926 85.2336 99.2503 85.1681 99.6318 85.0376C100.013 84.9065 100.38 84.7185 100.734 84.4737L101.372 85.7721C101.039 86.0664 100.598 86.3139 100.048 86.5153C99.4979 86.7166 98.8608 86.8177 98.1367 86.8177ZM97.9078 79.24C97.4173 79.24 97.0144 79.436 96.6985 79.8273C96.3827 80.2139 96.1866 80.7069 96.1103 81.3056L96.127 81.3464H99.6318V81.1424C99.6318 80.5819 99.4872 80.1243 99.1988 79.7704C98.915 79.4166 98.4847 79.24 97.9078 79.24ZM108.52 86.6457C108.449 86.423 108.389 86.2049 108.34 85.9929C108.296 85.7801 108.266 85.5681 108.25 85.356C107.978 85.7694 107.618 86.1179 107.172 86.4009C106.73 86.6785 106.235 86.8177 105.685 86.8177C104.765 86.8177 104.057 86.5809 103.561 86.1072C103.071 85.6336 102.825 84.9828 102.825 84.1553C102.825 83.3011 103.163 82.6368 103.839 82.1632C104.514 81.6843 105.464 81.4441 106.689 81.4441H108.234V80.6688C108.234 80.2059 108.098 79.844 107.825 79.5825C107.553 79.3216 107.163 79.1905 106.657 79.1905C106.205 79.1905 105.846 79.2995 105.579 79.5176C105.312 79.735 105.178 80.0153 105.178 80.3584H103.267L103.258 80.3096C103.22 79.6126 103.531 78.9945 104.19 78.456C104.854 77.9168 105.718 77.6472 106.78 77.6472C107.809 77.6472 108.64 77.9088 109.271 78.4312C109.903 78.9537 110.219 79.7049 110.219 80.6849V84.6128C110.219 84.9774 110.243 85.3286 110.293 85.6657C110.341 85.9982 110.42 86.3246 110.53 86.6457H108.52ZM106.085 85.2249C106.586 85.2249 107.035 85.0998 107.433 84.8496C107.836 84.5988 108.103 84.3132 108.234 83.9921V82.6856H106.657C106.08 82.6856 105.627 82.8301 105.301 83.1184C104.974 83.4014 104.811 83.7365 104.811 84.1225C104.811 84.4603 104.92 84.7299 105.138 84.9313C105.361 85.1273 105.677 85.2249 106.085 85.2249ZM116.705 79.5992L115.856 79.5664C115.469 79.5664 115.145 79.648 114.884 79.8112C114.628 79.9745 114.429 80.2059 114.287 80.5056V86.6457H112.302V77.8105H114.116L114.246 79.0928C114.47 78.6406 114.756 78.2867 115.104 78.0312C115.458 77.775 115.864 77.6472 116.321 77.6472C116.442 77.6472 116.553 77.6579 116.656 77.68C116.76 77.6961 116.855 77.7181 116.942 77.7456L116.705 79.5992ZM119.899 77.8105L120.014 79.0848C120.302 78.6326 120.665 78.2814 121.101 78.0312C121.542 77.775 122.037 77.6472 122.587 77.6472C123.508 77.6472 124.224 77.9275 124.736 78.4881C125.253 79.044 125.512 79.9122 125.512 81.0936V86.6457H123.527V81.1096C123.527 80.4454 123.388 79.9745 123.11 79.6968C122.838 79.4139 122.421 79.2721 121.86 79.2721C121.473 79.2721 121.127 79.3597 120.823 79.5336C120.518 79.7022 120.267 79.9363 120.071 80.236V86.6457H118.086V77.8105H119.899ZM129.694 86.6457H127.709V77.8105H129.694V86.6457ZM129.694 75.6465H127.709V73.9072H129.694V75.6465ZM133.722 77.8105L133.836 79.0848C134.125 78.6326 134.487 78.2814 134.923 78.0312C135.364 77.775 135.86 77.6472 136.41 77.6472C137.33 77.6472 138.046 77.9275 138.558 78.4881C139.076 79.044 139.335 79.9122 139.335 81.0936V86.6457H137.349V81.1096C137.349 80.4454 137.21 79.9745 136.933 79.6968C136.66 79.4139 136.243 79.2721 135.683 79.2721C135.296 79.2721 134.95 79.3597 134.645 79.5336C134.34 79.7022 134.09 79.9363 133.894 80.236V86.6457H131.908V77.8105H133.722ZM141.042 82.3505C141.042 80.9464 141.35 79.8112 141.965 78.9456C142.58 78.08 143.436 77.6472 144.53 77.6472C145.058 77.6472 145.521 77.7616 145.919 77.9904C146.322 78.2138 146.662 78.5376 146.94 78.9624L147.136 77.8105H148.786V86.6457C148.786 87.7836 148.435 88.6626 147.733 89.2833C147.03 89.9041 146.033 90.2145 144.743 90.2145C144.312 90.2145 143.847 90.1516 143.345 90.0265C142.85 89.9068 142.4 89.7462 141.997 89.5449L142.422 87.9849C142.749 88.1542 143.108 88.2846 143.501 88.3769C143.898 88.4753 144.307 88.5241 144.726 88.5241C145.445 88.5241 145.971 88.3689 146.303 88.0585C146.635 87.7535 146.801 87.2826 146.801 86.6457V85.7393C146.523 86.0932 146.194 86.3628 145.813 86.5481C145.437 86.7273 145.004 86.8177 144.514 86.8177C143.43 86.8177 142.58 86.423 141.965 85.6336C141.35 84.8443 141.042 83.8068 141.042 82.5224V82.3505ZM143.027 82.5224C143.027 83.3332 143.187 83.984 143.509 84.4737C143.836 84.9587 144.34 85.2008 145.02 85.2008C145.445 85.2008 145.802 85.1132 146.09 84.9393C146.384 84.7593 146.621 84.5038 146.801 84.172V80.3009C146.616 79.9798 146.376 79.7296 146.082 79.5497C145.793 79.3651 145.445 79.2721 145.036 79.2721C144.356 79.2721 143.849 79.5584 143.517 80.1297C143.19 80.7016 143.027 81.4414 143.027 82.3505V82.5224Z" fill="white"/>
<path d="M60.7066 225.115V213.226H64.2194C65.2705 213.226 66.2018 213.46 67.0135 213.929C67.8299 214.397 68.4617 215.06 68.9087 215.921C69.3551 216.781 69.5786 217.766 69.5786 218.877V219.473C69.5786 220.6 69.3524 221.591 68.9007 222.445C68.4537 223.3 67.8139 223.959 66.9807 224.421C66.1528 224.884 65.2025 225.115 64.1296 225.115H60.7066ZM62.7734 214.892V223.466H64.1214C65.2051 223.466 66.0357 223.128 66.613 222.453C67.1955 221.773 67.4926 220.798 67.5033 219.53V218.869C67.5033 217.578 67.2229 216.593 66.6621 215.913C66.101 215.232 65.2869 214.892 64.2194 214.892H62.7734ZM75.338 225.278C74.0799 225.278 73.0586 224.884 72.2743 224.094C71.4953 223.3 71.1058 222.244 71.1058 220.926V220.681C71.1058 219.8 71.2751 219.013 71.6124 218.321C71.9557 217.624 72.4349 217.083 73.0506 216.697C73.6656 216.31 74.3523 216.117 75.1092 216.117C76.3124 216.117 77.2413 216.501 77.8952 217.268C78.5537 218.036 78.8836 219.121 78.8836 220.526V221.326H73.1075C73.1677 222.056 73.41 222.633 73.8349 223.057C74.2653 223.482 74.804 223.694 75.4525 223.694C76.362 223.694 77.1021 223.327 77.6743 222.592L78.7444 223.613C78.3904 224.141 77.9166 224.552 77.323 224.846C76.7347 225.135 76.0728 225.278 75.338 225.278ZM75.1011 217.709C74.5564 217.709 74.1153 217.899 73.7774 218.281C73.4454 218.662 73.2326 219.192 73.1403 219.873H76.9228V219.726C76.8793 219.062 76.7019 218.561 76.3914 218.224C76.0815 217.881 75.6512 217.709 75.1011 217.709ZM83.4337 222.601L85.3042 216.28H87.3547L84.2917 225.115H82.5677L79.4799 216.28H81.5385L83.4337 222.601ZM92.3793 225.278C91.1212 225.278 90.0999 224.884 89.3156 224.094C88.5366 223.3 88.1471 222.244 88.1471 220.926V220.681C88.1471 219.8 88.3164 219.013 88.6537 218.321C88.997 217.624 89.4762 217.083 90.0919 216.697C90.7069 216.31 91.3935 216.117 92.1504 216.117C93.3537 216.117 94.2826 216.501 94.9358 217.268C95.595 218.036 95.9242 219.121 95.9242 220.526V221.326H90.1488C90.209 222.056 90.4513 222.633 90.8762 223.057C91.3059 223.482 91.8453 223.694 92.4931 223.694C93.4032 223.694 94.1434 223.327 94.7156 222.592L95.7857 223.613C95.4317 224.141 94.9579 224.552 94.3643 224.846C93.776 225.135 93.1141 225.278 92.3793 225.278ZM92.1424 217.709C91.5977 217.709 91.1566 217.899 90.8187 218.281C90.4867 218.662 90.2739 219.192 90.1816 219.873H93.9641V219.726C93.9206 219.062 93.7432 218.561 93.4327 218.224C93.1222 217.881 92.6925 217.709 92.1424 217.709ZM99.5843 225.115H97.5993V212.573H99.5843V225.115ZM101.382 220.616C101.382 219.75 101.553 218.972 101.896 218.281C102.239 217.584 102.722 217.05 103.342 216.68C103.963 216.305 104.676 216.117 105.483 216.117C106.675 216.117 107.642 216.501 108.383 217.268C109.129 218.036 109.532 219.054 109.592 220.322L109.6 220.788C109.6 221.659 109.431 222.437 109.093 223.123C108.761 223.809 108.282 224.34 107.656 224.715C107.035 225.091 106.316 225.278 105.499 225.278C104.251 225.278 103.252 224.865 102.501 224.037C101.755 223.205 101.382 222.097 101.382 220.714V220.616ZM103.367 220.788C103.367 221.697 103.555 222.41 103.93 222.927C104.306 223.439 104.829 223.694 105.499 223.694C106.169 223.694 106.689 223.433 107.06 222.91C107.435 222.388 107.623 221.623 107.623 220.616C107.623 219.724 107.43 219.016 107.043 218.493C106.662 217.97 106.141 217.709 105.483 217.709C104.834 217.709 104.32 217.968 103.939 218.485C103.557 218.996 103.367 219.764 103.367 220.788ZM119.019 220.788C119.019 222.154 118.709 223.245 118.088 224.062C117.467 224.873 116.634 225.278 115.588 225.278C114.619 225.278 113.843 224.96 113.26 224.323V228.512H111.274V216.28H113.105L113.186 217.178C113.769 216.47 114.562 216.117 115.563 216.117C116.642 216.117 117.486 216.519 118.096 217.325C118.712 218.125 119.019 219.239 119.019 220.665V220.788ZM117.042 220.616C117.042 219.734 116.865 219.035 116.511 218.517C116.162 218 115.662 217.741 115.008 217.741C114.197 217.741 113.614 218.077 113.26 218.746V222.665C113.619 223.352 114.208 223.694 115.024 223.694C115.656 223.694 116.149 223.441 116.503 222.935C116.862 222.423 117.042 221.65 117.042 220.616ZM122.573 216.28L122.63 217.203C123.251 216.479 124.101 216.117 125.179 216.117C126.361 216.117 127.169 216.569 127.605 217.473C128.248 216.569 129.152 216.117 130.317 216.117C131.292 216.117 132.017 216.386 132.49 216.925C132.97 217.464 133.214 218.259 133.226 219.309V225.115H131.24V219.367C131.24 218.806 131.118 218.395 130.873 218.133C130.628 217.873 130.222 217.741 129.655 217.741C129.204 217.741 128.833 217.864 128.545 218.109C128.261 218.349 128.063 218.665 127.948 219.057L127.956 225.115H125.971V219.301C125.944 218.262 125.413 217.741 124.379 217.741C123.583 217.741 123.019 218.066 122.687 218.713V225.115H120.702V216.28H122.573ZM139.157 225.278C137.898 225.278 136.877 224.884 136.093 224.094C135.314 223.3 134.925 222.244 134.925 220.926V220.681C134.925 219.8 135.094 219.013 135.432 218.321C135.774 217.624 136.253 217.083 136.869 216.697C137.485 216.31 138.171 216.117 138.928 216.117C140.132 216.117 141.06 216.501 141.714 217.268C142.373 218.036 142.702 219.121 142.702 220.526V221.326H136.927C136.986 222.056 137.228 222.633 137.653 223.057C138.084 223.482 138.623 223.694 139.271 223.694C140.18 223.694 140.921 223.327 141.493 222.592L142.563 223.613C142.209 224.141 141.735 224.552 141.141 224.846C140.553 225.135 139.892 225.278 139.157 225.278ZM138.92 217.709C138.375 217.709 137.934 217.899 137.597 218.281C137.264 218.662 137.052 219.192 136.959 219.873H140.741V219.726C140.698 219.062 140.521 218.561 140.211 218.224C139.9 217.881 139.47 217.709 138.92 217.709ZM146.092 216.28L146.149 217.301C146.803 216.511 147.661 216.117 148.723 216.117C150.564 216.117 151.501 217.17 151.533 219.277V225.115H149.548V219.391C149.548 218.831 149.425 218.416 149.18 218.15C148.941 217.878 148.546 217.741 147.996 217.741C147.195 217.741 146.599 218.104 146.207 218.828V225.115H144.221V216.28H146.092ZM156.051 214.133V216.28H157.611V217.75H156.051V222.682C156.051 223.019 156.116 223.264 156.247 223.417C156.383 223.564 156.623 223.637 156.965 223.637C157.194 223.637 157.426 223.61 157.66 223.556V225.091C157.208 225.216 156.772 225.278 156.353 225.278C154.828 225.278 154.066 224.438 154.066 222.755V217.75H152.611V216.28H154.066V214.133H156.051ZM60.1429 240.015C60.1429 239.149 60.3145 238.371 60.6576 237.68C61.0007 236.983 61.4827 236.45 62.1035 236.079C62.7244 235.704 63.4379 235.516 64.2439 235.516C65.4366 235.516 66.4033 235.9 67.144 236.667C67.8902 237.435 68.293 238.453 68.3533 239.721L68.3613 240.187C68.3613 241.058 68.1927 241.836 67.8547 242.522C67.5228 243.208 67.0436 243.739 66.417 244.114C65.7961 244.49 65.0772 244.677 64.2603 244.677C63.0131 244.677 62.0137 244.264 61.2621 243.437C60.516 242.604 60.1429 241.496 60.1429 240.113V240.015ZM62.1281 240.187C62.1281 241.096 62.3159 241.809 62.6917 242.326C63.0676 242.838 63.5904 243.093 64.2603 243.093C64.9302 243.093 65.4503 242.833 65.8206 242.309C66.1964 241.787 66.3843 241.022 66.3843 240.015C66.3843 239.123 66.1909 238.415 65.8042 237.892C65.423 237.369 64.9029 237.108 64.2439 237.108C63.5958 237.108 63.0811 237.367 62.6999 237.884C62.3187 238.395 62.1281 239.163 62.1281 240.187ZM70.7384 244.514V237.149H69.3906V235.679H70.7384V234.871C70.7384 233.891 71.0108 233.134 71.5555 232.6C72.1003 232.067 72.8625 231.8 73.843 231.8C74.1916 231.8 74.5617 231.849 74.9539 231.948L74.905 233.499C74.6869 233.455 74.4339 233.433 74.1455 233.433C73.1972 233.433 72.7233 233.921 72.7233 234.895V235.679H74.5209V237.149H72.7233V244.514H70.7384ZM82.0042 235.679L82.0611 236.602C82.6822 235.878 83.5314 235.516 84.6102 235.516C85.7921 235.516 86.6005 235.968 87.0362 236.872C87.6786 235.968 88.5828 235.516 89.7486 235.516C90.7236 235.516 91.4478 235.785 91.9216 236.324C92.4007 236.863 92.6457 237.658 92.6571 238.709V244.514H90.6714V238.766C90.6714 238.205 90.549 237.794 90.304 237.533C90.0591 237.272 89.6535 237.141 89.0867 237.141C88.635 237.141 88.2642 237.263 87.9758 237.508C87.6927 237.748 87.4939 238.064 87.3795 238.456L87.3875 244.514H85.4026V238.701C85.3752 237.661 84.8445 237.141 83.8092 237.141C83.0141 237.141 82.4506 237.465 82.1187 238.113V244.514H80.1331V235.679H82.0042ZM99.9764 244.514C99.8894 244.346 99.8131 244.071 99.7476 243.689C99.1158 244.348 98.3428 244.677 97.428 244.677C96.5399 244.677 95.8158 244.425 95.2543 243.918C94.6935 243.412 94.4131 242.786 94.4131 242.04C94.4131 241.099 94.7618 240.377 95.4591 239.877C96.1611 239.37 97.1637 239.117 98.4653 239.117H99.6826V238.537C99.6826 238.08 99.5541 237.715 99.2985 237.443C99.0422 237.165 98.6534 237.026 98.13 237.026C97.6783 237.026 97.3082 237.141 97.0191 237.369C96.7307 237.593 96.5861 237.878 96.5861 238.227H94.6012C94.6012 237.743 94.7618 237.29 95.083 236.872C95.4043 236.447 95.8399 236.114 96.39 235.875C96.9455 235.635 97.5639 235.516 98.2445 235.516C99.2791 235.516 100.104 235.777 100.72 236.3C101.336 236.817 101.652 237.547 101.668 238.488V242.473C101.668 243.268 101.779 243.902 102.002 244.376V244.514H99.9764ZM97.7954 243.085C98.1876 243.085 98.555 242.99 98.8983 242.8C99.247 242.609 99.508 242.354 99.6826 242.032V240.366H98.6125C97.8771 240.366 97.3243 240.494 96.9542 240.75C96.5834 241.006 96.3981 241.368 96.3981 241.836C96.3981 242.217 96.5239 242.522 96.7742 242.751C97.0298 242.974 97.3704 243.085 97.7954 243.085ZM107.378 243.093C107.873 243.093 108.285 242.95 108.612 242.661C108.938 242.372 109.113 242.016 109.134 241.591H111.005C110.983 242.141 110.812 242.655 110.491 243.134C110.169 243.608 109.733 243.984 109.183 244.261C108.634 244.539 108.039 244.677 107.402 244.677C106.166 244.677 105.186 244.277 104.462 243.477C103.737 242.677 103.375 241.572 103.375 240.162V239.958C103.375 238.614 103.734 237.538 104.454 236.733C105.172 235.921 106.153 235.516 107.394 235.516C108.446 235.516 109.3 235.823 109.959 236.439C110.624 237.048 110.973 237.851 111.005 238.848H109.134C109.113 238.341 108.938 237.925 108.612 237.598C108.29 237.272 107.879 237.108 107.378 237.108C106.735 237.108 106.24 237.342 105.891 237.81C105.542 238.273 105.366 238.978 105.36 239.925V240.244C105.36 241.202 105.532 241.917 105.875 242.391C106.223 242.859 106.724 243.093 107.378 243.093ZM114.461 236.643C115.109 235.892 115.928 235.516 116.92 235.516C118.804 235.516 119.76 236.591 119.787 238.741V244.514H117.802V238.815C117.802 238.205 117.668 237.775 117.402 237.525C117.14 237.269 116.753 237.141 116.241 237.141C115.446 237.141 114.853 237.494 114.461 238.202V244.514H112.476V231.972H114.461V236.643ZM123.913 244.514H121.927V235.679H123.913V244.514ZM121.805 233.385C121.805 233.079 121.9 232.827 122.091 232.625C122.287 232.424 122.565 232.323 122.924 232.323C123.284 232.323 123.561 232.424 123.758 232.625C123.954 232.827 124.051 233.079 124.051 233.385C124.051 233.684 123.954 233.934 123.758 234.136C123.561 234.332 123.284 234.43 122.924 234.43C122.565 234.43 122.287 234.332 122.091 234.136C121.9 233.934 121.805 233.684 121.805 233.385ZM127.924 235.679L127.981 236.7C128.634 235.91 129.492 235.516 130.554 235.516C132.395 235.516 133.332 236.569 133.364 238.676V244.514H131.379V238.79C131.379 238.23 131.257 237.816 131.012 237.549C130.772 237.277 130.378 237.141 129.827 237.141C129.026 237.141 128.43 237.503 128.038 238.227V244.514H126.053V235.679H127.924ZM139.287 244.677C138.029 244.677 137.008 244.283 136.224 243.493C135.445 242.699 135.056 241.643 135.056 240.325V240.081C135.056 239.199 135.224 238.412 135.562 237.721C135.905 237.024 136.385 236.482 137 236.096C137.615 235.709 138.301 235.516 139.059 235.516C140.262 235.516 141.191 235.9 141.844 236.667C142.503 237.435 142.833 238.521 142.833 239.925V240.725H137.057C137.117 241.455 137.36 242.032 137.784 242.457C138.214 242.881 138.754 243.093 139.401 243.093C140.311 243.093 141.052 242.726 141.624 241.991L142.694 243.012C142.34 243.54 141.866 243.951 141.273 244.245C140.684 244.534 140.023 244.677 139.287 244.677ZM139.05 237.108C138.506 237.108 138.064 237.298 137.727 237.68C137.394 238.061 137.182 238.591 137.09 239.272H140.872V239.125C140.828 238.461 140.652 237.96 140.341 237.623C140.031 237.28 139.6 237.108 139.05 237.108ZM62.6264 263.913H60.6413V251.371H62.6264V263.913ZM68.6879 264.077C67.4297 264.077 66.4088 263.682 65.6245 262.893C64.8457 262.098 64.4563 261.042 64.4563 259.724V259.48C64.4563 258.598 64.6251 257.811 64.9628 257.12C65.3059 256.423 65.7852 255.881 66.4006 255.495C67.0161 255.108 67.7021 254.915 68.459 254.915C69.663 254.915 70.5912 255.299 71.245 256.066C71.9042 256.834 72.2335 257.92 72.2335 259.324V260.124H66.4578C66.5177 260.854 66.76 261.431 67.1848 261.856C67.6151 262.28 68.1545 262.492 68.8023 262.492C69.7118 262.492 70.4526 262.125 71.0242 261.39L72.0949 262.411C71.7409 262.939 71.2671 263.35 70.6735 263.644C70.0852 263.933 69.4234 264.077 68.6879 264.077ZM68.451 256.508C67.9062 256.508 67.4652 256.698 67.1279 257.079C66.7954 257.46 66.5831 257.991 66.4905 258.671H70.2726V258.524C70.2291 257.86 70.0524 257.359 69.7419 257.022C69.4314 256.679 69.0011 256.508 68.451 256.508ZM79.063 263.913C78.976 263.745 78.8997 263.47 78.8341 263.089C78.2023 263.747 77.4294 264.077 76.5145 264.077C75.6265 264.077 74.9024 263.824 74.3409 263.317C73.7801 262.811 73.4997 262.185 73.4997 261.44C73.4997 260.498 73.8483 259.776 74.5457 259.276C75.2477 258.769 76.2502 258.516 77.5518 258.516H78.7692V257.936C78.7692 257.479 78.6407 257.114 78.385 256.842C78.1287 256.564 77.7399 256.425 77.2166 256.425C76.7648 256.425 76.3947 256.54 76.1056 256.768C75.8172 256.992 75.6726 257.277 75.6726 257.626H73.6877C73.6877 257.142 73.8483 256.689 74.1696 256.271C74.4908 255.846 74.9265 255.514 75.4766 255.274C76.032 255.035 76.6504 254.915 77.331 254.915C78.3656 254.915 79.1908 255.176 79.8065 255.699C80.4222 256.216 80.7381 256.946 80.7541 257.888V261.872C80.7541 262.667 80.8659 263.301 81.0887 263.775V263.913H79.063ZM76.8819 262.484C77.2741 262.484 77.6415 262.389 77.9848 262.199C78.3335 262.008 78.5945 261.753 78.7692 261.431V259.765H77.6991C76.9636 259.765 76.4108 259.893 76.0407 260.149C75.67 260.405 75.4846 260.767 75.4846 261.235C75.4846 261.616 75.6104 261.921 75.8607 262.15C76.1164 262.373 76.457 262.484 76.8819 262.484ZM87.4611 256.891C87.1995 256.847 86.9304 256.826 86.652 256.826C85.7426 256.826 85.1302 257.174 84.8143 257.871V263.913H82.8294V255.078H84.7247L84.7735 256.066C85.2527 255.299 85.9172 254.915 86.7665 254.915C87.0502 254.915 87.2838 254.953 87.4692 255.029L87.4611 256.891ZM90.557 255.078L90.6146 256.099C91.2677 255.309 92.1257 254.915 93.1878 254.915C95.0288 254.915 95.9651 255.968 95.9979 258.075V263.913H94.0129V258.189C94.0129 257.629 93.8904 257.215 93.6455 256.948C93.4059 256.676 93.0111 256.54 92.461 256.54C91.6599 256.54 91.0636 256.902 90.6714 257.626V263.913H88.6865V255.078H90.557ZM100.14 263.913H98.1548V255.078H100.14V263.913ZM98.0323 252.784C98.0323 252.479 98.1273 252.226 98.3181 252.024C98.5142 251.823 98.7919 251.722 99.1513 251.722C99.5106 251.722 99.7884 251.823 99.9845 252.024C100.181 252.226 100.279 252.479 100.279 252.784C100.279 253.083 100.181 253.333 99.9845 253.535C99.7884 253.731 99.5106 253.829 99.1513 253.829C98.7919 253.829 98.5142 253.731 98.3181 253.535C98.1273 253.333 98.0323 253.083 98.0323 252.784ZM104.151 255.078L104.208 256.099C104.862 255.309 105.72 254.915 106.782 254.915C108.622 254.915 109.559 255.968 109.592 258.075V263.913H107.607V258.189C107.607 257.629 107.484 257.215 107.239 256.948C106.999 256.676 106.604 256.54 106.054 256.54C105.254 256.54 104.658 256.902 104.266 257.626V263.913H102.281V255.078H104.151ZM111.274 259.431C111.274 258.059 111.596 256.964 112.239 256.148C112.887 255.326 113.745 254.915 114.812 254.915C115.82 254.915 116.612 255.266 117.189 255.968L117.279 255.078H119.068V263.644C119.068 264.804 118.706 265.718 117.981 266.388C117.263 267.057 116.291 267.392 115.066 267.392C114.417 267.392 113.783 267.256 113.162 266.984C112.547 266.717 112.078 266.366 111.757 265.93L112.696 264.738C113.306 265.463 114.058 265.824 114.951 265.824C115.61 265.824 116.13 265.645 116.511 265.285C116.893 264.931 117.083 264.409 117.083 263.717V263.121C116.511 263.758 115.749 264.077 114.796 264.077C113.761 264.077 112.914 263.666 112.255 262.844C111.602 262.022 111.274 260.884 111.274 259.431ZM113.252 259.602C113.252 260.49 113.431 261.189 113.791 261.7C114.155 262.207 114.659 262.46 115.302 262.46C116.103 262.46 116.696 262.117 117.083 261.431V257.544C116.707 256.875 116.119 256.54 115.319 256.54C114.665 256.54 114.155 256.799 113.791 257.316C113.431 257.833 113.252 258.595 113.252 259.602ZM133.022 259.586C133.022 260.952 132.711 262.044 132.09 262.86C131.469 263.671 130.636 264.077 129.591 264.077C128.621 264.077 127.845 263.758 127.262 263.121V267.31H125.277V255.078H127.107L127.189 255.976C127.772 255.269 128.564 254.915 129.566 254.915C130.644 254.915 131.489 255.318 132.098 256.124C132.714 256.924 133.022 258.037 133.022 259.463V259.586ZM131.044 259.414C131.044 258.532 130.867 257.833 130.513 257.316C130.165 256.799 129.664 256.54 129.01 256.54C128.199 256.54 127.616 256.875 127.262 257.544V261.464C127.622 262.15 128.21 262.492 129.026 262.492C129.658 262.492 130.151 262.24 130.505 261.733C130.865 261.222 131.044 260.448 131.044 259.414ZM136.82 263.913H134.835V255.078H136.82V263.913ZM134.712 252.784C134.712 252.479 134.808 252.226 134.999 252.024C135.195 251.823 135.472 251.722 135.832 251.722C136.191 251.722 136.469 251.823 136.665 252.024C136.861 252.226 136.959 252.479 136.959 252.784C136.959 253.083 136.861 253.333 136.665 253.535C136.469 253.731 136.191 253.829 135.832 253.829C135.472 253.829 135.195 253.731 134.999 253.535C134.808 253.333 134.712 253.083 134.712 252.784ZM146.73 259.586C146.73 260.952 146.419 262.044 145.798 262.86C145.178 263.671 144.344 264.077 143.298 264.077C142.329 264.077 141.553 263.758 140.97 263.121V267.31H138.985V255.078H140.815L140.897 255.976C141.479 255.269 142.272 254.915 143.274 254.915C144.352 254.915 145.196 255.318 145.807 256.124C146.422 256.924 146.73 258.037 146.73 259.463V259.586ZM144.753 259.414C144.753 258.532 144.575 257.833 144.221 257.316C143.873 256.799 143.372 256.54 142.718 256.54C141.907 256.54 141.324 256.875 140.97 257.544V261.464C141.33 262.15 141.918 262.492 142.735 262.492C143.367 262.492 143.859 262.24 144.213 261.733C144.573 261.222 144.753 260.448 144.753 259.414ZM152.309 264.077C151.051 264.077 150.03 263.682 149.246 262.893C148.467 262.098 148.077 261.042 148.077 259.724V259.48C148.077 258.598 148.246 257.811 148.584 257.12C148.927 256.423 149.406 255.881 150.022 255.495C150.637 255.108 151.323 254.915 152.081 254.915C153.284 254.915 154.213 255.299 154.866 256.066C155.525 256.834 155.855 257.92 155.855 259.324V260.124H150.079C150.139 260.854 150.382 261.431 150.806 261.856C151.236 262.28 151.776 262.492 152.423 262.492C153.333 262.492 154.074 262.125 154.646 261.39L155.716 262.411C155.362 262.939 154.888 263.35 154.295 263.644C153.706 263.933 153.044 264.077 152.309 264.077ZM152.072 256.508C151.528 256.508 151.086 256.698 150.749 257.079C150.416 257.46 150.204 257.991 150.112 258.671H153.894V258.524C153.85 257.86 153.674 257.359 153.363 257.022C153.052 256.679 152.622 256.508 152.072 256.508ZM159.515 263.913H157.53V251.371H159.515V263.913ZM163.795 263.913H161.81V255.078H163.795V263.913ZM161.688 252.784C161.688 252.479 161.783 252.226 161.973 252.024C162.169 251.823 162.447 251.722 162.807 251.722C163.167 251.722 163.444 251.823 163.64 252.024C163.836 252.226 163.934 252.479 163.934 252.784C163.934 253.083 163.836 253.333 163.64 253.535C163.444 253.731 163.167 253.829 162.807 253.829C162.447 253.829 162.169 253.731 161.973 253.535C161.783 253.333 161.688 253.083 161.688 252.784ZM167.806 255.078L167.864 256.099C168.517 255.309 169.375 254.915 170.437 254.915C172.277 254.915 173.214 255.968 173.247 258.075V263.913H171.262V258.189C171.262 257.629 171.14 257.215 170.894 256.948C170.655 256.676 170.26 256.54 169.71 256.54C168.909 256.54 168.313 256.902 167.921 257.626V263.913H165.936V255.078H167.806ZM179.17 264.077C177.912 264.077 176.89 263.682 176.106 262.893C175.328 262.098 174.938 261.042 174.938 259.724V259.48C174.938 258.598 175.107 257.811 175.445 257.12C175.788 256.423 176.267 255.881 176.882 255.495C177.498 255.108 178.184 254.915 178.941 254.915C180.145 254.915 181.073 255.299 181.727 256.066C182.386 256.834 182.715 257.92 182.715 259.324V260.124H176.94C177 260.854 177.242 261.431 177.667 261.856C178.097 262.28 178.636 262.492 179.284 262.492C180.194 262.492 180.935 262.125 181.506 261.39L182.576 262.411C182.222 262.939 181.748 263.35 181.155 263.644C180.567 263.933 179.905 264.077 179.17 264.077ZM178.933 256.508C178.388 256.508 177.947 256.698 177.61 257.079C177.277 257.46 177.065 257.991 176.972 258.671H180.755V258.524C180.711 257.86 180.534 257.359 180.224 257.022C179.913 256.679 179.483 256.508 178.933 256.508ZM189.218 261.513C189.218 261.159 189.071 260.89 188.777 260.704C188.488 260.519 188.006 260.356 187.331 260.215C186.656 260.073 186.092 259.893 185.64 259.676C184.649 259.197 184.153 258.502 184.153 257.593C184.153 256.831 184.475 256.194 185.117 255.683C185.76 255.171 186.577 254.915 187.568 254.915C188.625 254.915 189.477 255.176 190.125 255.699C190.778 256.221 191.106 256.899 191.106 257.732H189.12C189.12 257.351 188.979 257.035 188.695 256.785C188.412 256.529 188.036 256.401 187.568 256.401C187.132 256.401 186.776 256.502 186.498 256.704C186.226 256.905 186.089 257.174 186.089 257.512C186.089 257.817 186.218 258.053 186.473 258.222C186.729 258.391 187.247 258.563 188.026 258.736C188.804 258.905 189.414 259.11 189.855 259.349C190.302 259.583 190.632 259.866 190.844 260.198C191.061 260.531 191.171 260.933 191.171 261.407C191.171 262.202 190.841 262.846 190.182 263.342C189.523 263.832 188.66 264.077 187.593 264.077C186.868 264.077 186.223 263.946 185.656 263.685C185.09 263.424 184.649 263.064 184.333 262.607C184.017 262.15 183.859 261.657 183.859 261.129H185.787C185.814 261.597 185.991 261.959 186.318 262.215C186.645 262.466 187.078 262.591 187.617 262.591C188.14 262.591 188.537 262.492 188.809 262.296C189.082 262.095 189.218 261.834 189.218 261.513Z" fill="white"/>
<path d="M16.3804 153.439H11.7239L10.7762 156.215H8.7666L13.1372 144.326H15.0161L19.3377 156.215H17.3199L16.3804 153.439ZM12.2957 151.781H15.8167L14.093 146.702H14.044L12.2957 151.781ZM24.8684 149.168L24.0187 149.136C23.632 149.136 23.308 149.217 23.0466 149.38C22.7906 149.544 22.5918 149.775 22.4502 150.075V156.215H20.4651V147.38H22.2786L22.4094 148.662C22.6327 148.21 22.9186 147.856 23.2672 147.6C23.6212 147.344 24.0269 147.216 24.4844 147.216C24.6042 147.216 24.7158 147.227 24.8193 147.249C24.9228 147.265 25.0181 147.287 25.1053 147.315L24.8684 149.168ZM28.9121 145.232V147.38H30.497V148.85H28.9121V153.733C28.9121 154.098 28.9911 154.359 29.1491 154.517C29.307 154.669 29.5167 154.745 29.7781 154.745C29.8871 154.745 29.9932 154.737 30.0967 154.721C30.2002 154.699 30.2982 154.672 30.3908 154.639L30.6032 156.093C30.4344 156.186 30.2328 156.256 29.9987 156.305C29.7645 156.359 29.5221 156.387 29.2716 156.387C28.5418 156.387 27.97 156.174 27.5561 155.75C27.1421 155.32 26.9351 154.648 26.9351 153.733V148.85H25.5872V147.38H26.9351V145.232H28.9121ZM34.3775 156.215H32.3923V147.38H34.3775V156.215ZM34.3775 145.216H32.3923V143.476H34.3775V145.216ZM37.253 156.215V148.85H35.9051V147.38H37.253V146.351C37.253 145.377 37.5172 144.625 38.0454 144.097C38.5792 143.569 39.3253 143.305 40.2838 143.305C40.4745 143.305 40.6678 143.321 40.8638 143.354C41.0599 143.381 41.2805 143.422 41.5256 143.476L41.3213 145.012C41.2124 144.99 41.0899 144.971 40.9537 144.955C40.823 144.938 40.6814 144.93 40.5289 144.93C40.0986 144.93 39.7746 145.052 39.5568 145.298C39.3444 145.543 39.2382 145.894 39.2382 146.351V147.38H41.0354V148.85H39.2382V156.215H37.253ZM44.6054 156.215H42.6202V147.38H44.6054V156.215ZM44.6054 145.216H42.6202V143.476H44.6054V145.216ZM50.4873 154.803C50.972 154.803 51.3805 154.661 51.7127 154.378C52.045 154.089 52.2111 153.73 52.2111 153.3H54.0083L54.0247 153.349C54.0519 154.177 53.7142 154.89 53.0117 155.488C52.3145 156.087 51.4731 156.387 50.4873 156.387C49.1857 156.387 48.1863 155.967 47.4892 155.129C46.7975 154.291 46.4517 153.229 46.4517 151.944V151.659C46.4517 150.379 46.7975 149.321 47.4892 148.482C48.1863 147.639 49.1857 147.216 50.4873 147.216C51.5493 147.216 52.4098 147.527 53.0688 148.148C53.7333 148.762 54.0546 149.546 54.0328 150.499L54.0165 150.548H52.2111C52.2111 150.063 52.0504 149.653 51.7291 149.315C51.4132 148.978 50.9993 148.809 50.4873 148.809C49.7412 148.809 49.2129 149.081 48.9025 149.625C48.5921 150.164 48.4369 150.842 48.4369 151.659V151.944C48.4369 152.777 48.5921 153.464 48.9025 154.002C49.2129 154.536 49.7412 154.803 50.4873 154.803ZM57.7417 156.215H55.7566V147.38H57.7417V156.215ZM57.7417 145.216H55.7566V143.476H57.7417V145.216ZM65.2902 156.215C65.2194 155.992 65.1594 155.774 65.1104 155.562C65.0668 155.349 65.0369 155.137 65.0205 154.925C64.7482 155.339 64.3888 155.687 63.9422 155.97C63.501 156.248 63.0055 156.387 62.4554 156.387C61.535 156.387 60.827 156.15 60.3314 155.676C59.8412 155.203 59.5961 154.552 59.5961 153.724C59.5961 152.87 59.9338 152.206 60.6091 151.732C61.2844 151.253 62.2348 151.013 63.4602 151.013H65.0042V150.238C65.0042 149.775 64.8681 149.413 64.5958 149.152C64.3235 148.891 63.934 148.76 63.4276 148.76C62.9755 148.76 62.6161 148.869 62.3492 149.087C62.0823 149.304 61.9489 149.584 61.9489 149.928H60.0372L60.0291 149.879C59.991 149.182 60.3014 148.564 60.9604 148.025C61.6249 147.486 62.488 147.216 63.5501 147.216C64.5794 147.216 65.41 147.478 66.0417 148C66.6735 148.523 66.9893 149.274 66.9893 150.254V154.182C66.9893 154.547 67.014 154.898 67.0629 155.235C67.1117 155.567 67.1907 155.894 67.2998 156.215H65.2902ZM62.8557 154.794C63.3568 154.794 63.806 154.669 64.2036 154.419C64.6066 154.168 64.8735 153.882 65.0042 153.561V152.255H63.4276C62.8502 152.255 62.3982 152.399 62.0714 152.688C61.7446 152.971 61.5813 153.306 61.5813 153.692C61.5813 154.03 61.6902 154.299 61.908 154.5C62.1313 154.696 62.4472 154.794 62.8557 154.794ZM71.1887 156.215H69.2031V143.476H71.1887V156.215ZM79.7006 156.215H77.7157V147.38H79.7006V156.215ZM79.7006 145.216H77.7157V143.476H79.7006V145.216ZM83.7281 147.38L83.8425 148.654C84.1316 148.202 84.4937 147.851 84.9293 147.6C85.3704 147.344 85.8663 147.216 86.4157 147.216C87.3366 147.216 88.0526 147.497 88.5646 148.057C89.0819 148.613 89.3409 149.481 89.3409 150.663V156.215H87.3553V150.679C87.3553 150.015 87.2168 149.544 86.939 149.266C86.6667 148.983 86.2497 148.841 85.6889 148.841C85.3021 148.841 84.9561 148.929 84.6516 149.103C84.3464 149.271 84.0961 149.506 83.9001 149.805V156.215H81.9145V147.38H83.7281ZM93.8743 145.232V147.38H95.4597V148.85H93.8743V153.733C93.8743 154.098 93.9533 154.359 94.1112 154.517C94.2691 154.669 94.4793 154.745 94.7403 154.745C94.8493 154.745 94.9558 154.737 95.0588 154.721C95.1626 154.699 95.2609 154.672 95.3533 154.639L95.5654 156.093C95.3968 156.186 95.1953 156.256 94.9611 156.305C94.7269 156.359 94.4846 156.387 94.2343 156.387C93.5042 156.387 92.9327 156.174 92.5184 155.75C92.1048 155.32 91.8974 154.648 91.8974 153.733V148.85H90.5495V147.38H91.8974V145.232H93.8743ZM101.014 156.387C99.7622 156.387 98.7623 155.978 98.0162 155.162C97.276 154.34 96.9052 153.286 96.9052 152.001V151.675C96.9052 150.391 97.2733 149.326 98.0081 148.482C98.749 147.633 99.6745 147.211 100.786 147.216C101.979 147.216 102.891 147.578 103.523 148.303C104.16 149.021 104.478 149.987 104.478 151.201V152.369H98.9638L98.9477 152.41C98.9805 153.112 99.1846 153.686 99.5607 154.133C99.9415 154.579 100.468 154.803 101.137 154.803C101.671 154.803 102.129 154.737 102.509 154.607C102.891 154.476 103.258 154.288 103.612 154.043L104.249 155.341C103.917 155.636 103.476 155.883 102.926 156.084C102.376 156.286 101.739 156.387 101.014 156.387ZM100.786 148.809C100.296 148.809 99.8927 149.005 99.5768 149.396C99.2609 149.783 99.0648 150.276 98.9885 150.875L99.0046 150.916H102.509V150.712C102.509 150.151 102.365 149.693 102.076 149.34C101.793 148.986 101.363 148.809 100.786 148.809ZM108.195 156.215H106.21V143.476H108.195V156.215ZM112.542 156.215H110.556V143.476H112.542V156.215ZM116.888 156.215H114.902V147.38H116.888V156.215ZM116.888 145.216H114.902V143.476H116.888V145.216ZM118.758 151.92C118.758 150.516 119.066 149.38 119.681 148.515C120.297 147.649 121.152 147.216 122.246 147.216C122.775 147.216 123.238 147.331 123.636 147.56C124.039 147.783 124.379 148.107 124.657 148.532L124.853 147.38H126.503V156.215C126.503 157.353 126.151 158.232 125.449 158.853C124.747 159.473 123.75 159.784 122.459 159.784C122.029 159.784 121.563 159.721 121.062 159.596C120.567 159.476 120.118 159.315 119.714 159.114L120.139 157.554C120.466 157.723 120.825 157.854 121.217 157.946C121.615 158.044 122.023 158.093 122.442 158.093C123.162 158.093 123.687 157.938 124.019 157.628C124.352 157.323 124.518 156.852 124.518 156.215V155.309C124.24 155.662 123.911 155.932 123.529 156.117C123.153 156.297 122.72 156.387 122.23 156.387C121.147 156.387 120.297 155.992 119.681 155.203C119.066 154.413 118.758 153.376 118.758 152.092V151.92ZM120.743 152.092C120.743 152.902 120.904 153.553 121.226 154.043C121.552 154.528 122.056 154.77 122.737 154.77C123.162 154.77 123.519 154.682 123.807 154.508C124.101 154.329 124.338 154.073 124.518 153.741V149.87C124.332 149.549 124.093 149.299 123.799 149.119C123.511 148.934 123.162 148.841 122.753 148.841C122.072 148.841 121.566 149.128 121.234 149.699C120.907 150.271 120.743 151.011 120.743 151.92V152.092ZM132.384 156.387C131.132 156.387 130.133 155.978 129.386 155.162C128.646 154.34 128.275 153.286 128.275 152.001V151.675C128.275 150.391 128.644 149.326 129.378 148.482C130.119 147.633 131.045 147.211 132.156 147.216C133.349 147.216 134.261 147.578 134.893 148.303C135.53 149.021 135.848 149.987 135.848 151.201V152.369H130.334L130.318 152.41C130.351 153.112 130.555 153.686 130.931 154.133C131.312 154.579 131.838 154.803 132.508 154.803C133.041 154.803 133.499 154.737 133.88 154.607C134.261 154.476 134.628 154.288 134.982 154.043L135.62 155.341C135.288 155.636 134.847 155.883 134.296 156.084C133.746 156.286 133.109 156.387 132.384 156.387ZM132.156 148.809C131.666 148.809 131.263 149.005 130.947 149.396C130.631 149.783 130.435 150.276 130.359 150.875L130.375 150.916H133.88V150.712C133.88 150.151 133.736 149.693 133.447 149.34C133.163 148.986 132.733 148.809 132.156 148.809ZM139.247 147.38L139.361 148.654C139.65 148.202 140.012 147.851 140.448 147.6C140.889 147.344 141.384 147.216 141.934 147.216C142.855 147.216 143.571 147.497 144.083 148.057C144.601 148.613 144.86 149.481 144.86 150.663V156.215H142.874V150.679C142.874 150.015 142.735 149.544 142.458 149.266C142.185 148.983 141.768 148.841 141.208 148.841C140.821 148.841 140.475 148.929 140.17 149.103C139.865 149.271 139.615 149.506 139.419 149.805V156.215H137.433V147.38H139.247ZM150.578 154.803C151.063 154.803 151.471 154.661 151.804 154.378C152.135 154.089 152.301 153.73 152.301 153.3H154.099L154.115 153.349C154.143 154.177 153.805 154.89 153.102 155.488C152.405 156.087 151.563 156.387 150.578 156.387C149.276 156.387 148.277 155.967 147.579 155.129C146.888 154.291 146.542 153.229 146.542 151.944V151.659C146.542 150.379 146.888 149.321 147.579 148.482C148.277 147.639 149.276 147.216 150.578 147.216C151.64 147.216 152.5 147.527 153.159 148.148C153.824 148.762 154.145 149.546 154.123 150.499L154.107 150.548H152.301C152.301 150.063 152.141 149.653 151.82 149.315C151.504 148.978 151.09 148.809 150.578 148.809C149.832 148.809 149.303 149.081 148.993 149.625C148.682 150.164 148.528 150.842 148.528 151.659V151.944C148.528 152.777 148.682 153.464 148.993 154.002C149.303 154.536 149.832 154.803 150.578 154.803ZM159.507 156.387C158.254 156.387 157.255 155.978 156.509 155.162C155.768 154.34 155.398 153.286 155.398 152.001V151.675C155.398 150.391 155.765 149.326 156.501 148.482C157.241 147.633 158.167 147.211 159.278 147.216C160.471 147.216 161.383 147.578 162.015 148.303C162.652 149.021 162.971 149.987 162.971 151.201V152.369H157.457L157.44 152.41C157.473 153.112 157.677 153.686 158.053 154.133C158.434 154.579 158.96 154.803 159.63 154.803C160.163 154.803 160.621 154.737 161.002 154.607C161.383 154.476 161.751 154.288 162.105 154.043L162.742 155.341C162.41 155.636 161.969 155.883 161.418 156.084C160.868 156.286 160.231 156.387 159.507 156.387ZM159.278 148.809C158.788 148.809 158.385 149.005 158.069 149.396C157.753 149.783 157.557 150.276 157.481 150.875L157.497 150.916H161.002V150.712C161.002 150.151 160.858 149.693 160.569 149.34C160.285 148.986 159.856 148.809 159.278 148.809Z" fill="white"/>
<path d="M36.4187 83.6426C37.9306 83.6426 39.1562 82.4175 39.1562 80.9062C39.1562 79.395 37.9306 78.1699 36.4187 78.1699C34.9068 78.1699 33.6812 79.395 33.6812 80.9062C33.6812 82.4175 34.9068 83.6426 36.4187 83.6426Z" fill="white"/>
<path d="M344.28 164.564C345.992 164.564 347.381 163.176 347.381 161.464C347.381 159.752 345.992 158.364 344.28 158.364H332.532V149.926H344.28C345.992 149.926 347.381 148.538 347.381 146.826C347.381 145.114 345.992 143.726 344.28 143.726H332.532V138.655C332.532 137.833 332.205 137.045 331.625 136.463L322.657 127.492C322.075 126.911 321.286 126.584 320.463 126.584H315.388V114.852C315.388 113.14 314 111.752 312.287 111.752C310.575 111.752 309.186 113.14 309.186 114.852V126.584H300.742V114.852C300.742 113.14 299.354 111.752 297.64 111.752C295.928 111.752 294.539 113.14 294.539 114.852V126.584H286.103V115.475C286.103 105.147 277.697 96.7446 267.362 96.7446C258.908 96.7446 251.56 102.457 249.319 110.392C242.874 111.047 236.902 113.895 232.295 118.558C227.091 123.824 224.225 130.803 224.225 138.206C224.225 141.88 224.95 145.519 226.342 148.893C221.989 151.205 218.254 154.53 215.423 158.639C211.876 163.787 210.001 169.823 210.001 176.094C210.001 187.637 216.315 197.991 226.34 203.303C224.95 206.671 224.226 210.306 224.226 213.981C224.226 221.385 227.091 228.363 232.295 233.629C236.903 238.292 242.874 241.14 249.319 241.795C251.56 249.736 258.908 255.451 267.363 255.451C277.697 255.451 286.104 247.049 286.104 236.72V225.603H294.54V237.345C294.54 239.056 295.928 240.444 297.641 240.444C299.354 240.444 300.742 239.056 300.742 237.345V225.603H309.187V237.345C309.187 239.056 310.575 240.444 312.288 240.444C314 240.444 315.389 239.056 315.389 237.345V225.603H320.464C321.286 225.603 322.075 225.277 322.657 224.696L331.624 215.733C332.205 215.152 332.533 214.364 332.533 213.542V208.461H344.28C345.992 208.461 347.381 207.073 347.381 205.361C347.381 203.65 345.992 202.262 344.28 202.262H332.532V193.832H344.28C345.992 193.832 347.381 192.444 347.381 190.732C347.381 189.02 345.992 187.632 344.28 187.632H332.532V179.193H344.28C345.992 179.193 347.381 177.805 347.381 176.094C347.381 174.382 345.992 172.994 344.28 172.994H332.532V164.564H344.28ZM267.363 249.252C262.219 249.252 257.689 246.09 255.783 241.523C258.045 241.119 260.25 240.431 262.371 239.458C265.453 238.044 268.21 236.108 270.564 233.704C271.762 232.481 271.741 230.519 270.517 229.321C269.293 228.123 267.33 228.144 266.132 229.368C264.31 231.227 262.174 232.727 259.784 233.823C257.258 234.981 254.581 235.623 251.827 235.735C240.02 235.54 230.428 225.798 230.428 213.98C230.428 210.246 231.388 206.567 233.203 203.339C233.641 202.561 233.722 201.633 233.426 200.791C233.13 199.949 232.485 199.276 231.656 198.944C222.269 195.175 216.204 186.206 216.204 176.094C216.204 165.979 222.268 157.013 231.654 153.253C233.499 152.256 234.015 150.791 233.205 148.859C231.388 145.622 230.428 141.938 230.428 138.207C230.428 126.388 240.02 116.647 251.827 116.452C254.564 116.563 257.244 117.206 259.783 118.363C262.178 119.462 264.312 120.962 266.127 122.824C266.735 123.446 267.541 123.76 268.348 123.76C269.128 123.76 269.909 123.467 270.512 122.879C271.739 121.685 271.764 119.722 270.568 118.496C268.219 116.088 265.46 114.147 262.363 112.725C260.236 111.756 258.033 111.07 255.783 110.666C257.689 106.103 262.219 102.944 267.363 102.944C274.277 102.944 279.902 108.566 279.902 115.475V153.479H270.248L262.021 145.256C262.896 143.658 263.363 141.858 263.363 139.985C263.363 137.048 262.219 134.287 260.14 132.21C255.85 127.922 248.871 127.922 244.581 132.21C242.502 134.287 241.358 137.048 241.358 139.985C241.358 142.922 242.502 145.684 244.581 147.761C246.725 149.904 249.543 150.976 252.36 150.976C254.178 150.976 255.993 150.528 257.63 149.635L266.77 158.77C267.432 159.362 268.163 159.665 268.963 159.678H279.902V172.993H260.468C259.125 168.438 254.902 165.103 249.912 165.103C243.849 165.103 238.916 170.033 238.916 176.093C238.916 182.157 243.849 187.092 249.912 187.092C254.903 187.092 259.126 183.752 260.469 179.193H279.902V192.508H268.963C268.88 192.508 268.809 192.513 268.743 192.519C268.024 192.569 267.319 192.867 266.769 193.416L257.629 202.559C253.455 200.285 248.109 200.908 244.58 204.434C242.5 206.513 241.356 209.277 241.358 212.217C241.359 215.151 242.506 217.909 244.58 219.977C246.726 222.121 249.543 223.193 252.361 223.193C255.178 223.193 257.994 222.122 260.137 219.98C262.215 217.909 263.36 215.152 263.362 212.217C263.364 210.342 262.897 208.539 262.019 206.939L270.248 198.708H279.901V236.72C279.902 243.631 274.277 249.252 267.363 249.252ZM257.161 139.986C257.161 141.267 256.661 142.472 255.755 143.377C253.883 145.248 250.838 145.248 248.967 143.377C248.06 142.472 247.56 141.267 247.56 139.986C247.56 138.705 248.06 137.499 248.967 136.594C250.838 134.723 253.883 134.723 255.755 136.594C256.661 137.499 257.161 138.704 257.161 139.986ZM254.715 176.094C254.715 178.74 252.56 180.893 249.912 180.893C247.269 180.893 245.118 178.74 245.118 176.094C245.118 173.453 247.269 171.303 249.912 171.303C252.56 171.303 254.715 173.452 254.715 176.094ZM257.161 212.213C257.16 213.49 256.662 214.69 255.755 215.593C253.883 217.464 250.838 217.464 248.963 215.59C248.06 214.69 247.561 213.49 247.56 212.213C247.56 210.931 248.059 209.726 248.967 208.819C250.838 206.948 253.883 206.948 255.755 208.819L255.755 208.819L255.756 208.82C256.663 209.727 257.162 210.932 257.161 212.213ZM326.33 212.258L319.179 219.404H286.104V210.219H314.036C315.75 210.219 317.138 208.831 317.138 207.119V190.003C317.138 188.29 315.75 186.903 314.036 186.903C312.324 186.903 310.936 188.29 310.936 190.003V204.019H286.104V148.177H310.936V162.158C310.936 163.87 312.324 165.258 314.036 165.258C315.75 165.258 317.138 163.87 317.138 162.158V145.077C317.138 143.365 315.75 141.977 314.036 141.977H286.104V132.783H319.178L326.33 139.938V212.258Z" fill="white"/>
<path d="M36.5385 107.685H251.795" stroke="white" stroke-width="2"/>
<path d="M2.46912 179.664H212.305" stroke="white" stroke-width="2"/>
<path d="M36.4038 80.9055V108.269" stroke="white" stroke-width="2"/>
<path d="M2.8839 153.299C4.3958 153.299 5.62143 152.074 5.62143 150.562C5.62143 149.051 4.3958 147.826 2.8839 147.826C1.372 147.826 0.146362 149.051 0.146362 150.562C0.146362 152.074 1.372 153.299 2.8839 153.299Z" fill="white"/>
<path d="M2.86902 152.615V179.977" stroke="white" stroke-width="2"/>
<path d="M48.1532 293.744H268.829" stroke="white" stroke-width="2"/>
<path d="M48.5681 221.892C50.08 221.892 51.3056 220.667 51.3056 219.155C51.3056 217.644 50.08 216.419 48.5681 216.419C47.0562 216.419 45.8306 217.644 45.8306 219.155C45.8306 220.667 47.0562 221.892 48.5681 221.892Z" fill="white"/>
<path d="M48.7898 219.095V294.684" stroke="white" stroke-width="2"/>
<path d="M110.098 40.3506H268.83" stroke="white" stroke-width="2"/>
<path d="M110.512 13.9857C112.024 13.9857 113.25 12.7606 113.25 11.2494C113.25 9.73816 112.024 8.51306 110.512 8.51306C109 8.51306 107.775 9.73816 107.775 11.2494C107.775 12.7606 109 13.9857 110.512 13.9857Z" fill="white"/>
<path d="M110.497 13.3016V40.6649" stroke="white" stroke-width="2"/>
<path d="M267.951 39.4716V98.2926" stroke="white" stroke-width="2"/>
<path d="M267.951 255.4L268.292 294.01" stroke="white" stroke-width="2"/>
</svg>
