<svg width="483" height="421" viewBox="0 0 483 421" fill="none" xmlns="http://www.w3.org/2000/svg">
<path d="M361.472 275.49C361.472 355.162 296.872 419.749 217.182 419.749C137.492 419.749 72.8916 355.162 72.8916 275.49C72.8916 195.818 137.492 131.231 217.182 131.231C296.872 131.231 361.472 195.818 361.472 275.49Z" fill="white" stroke="#70F1C9" stroke-width="2"/>
<path d="M216.461 187.387C216.461 246.733 168.341 294.843 108.981 294.843C49.6214 294.843 1.50124 246.733 1.50124 187.387C1.50124 128.041 49.6214 79.9306 108.981 79.9306C168.341 79.9306 216.461 128.041 216.461 187.387Z" fill="white" stroke="#70F1C9" stroke-width="2"/>
<path d="M481.944 145.566C481.944 225.238 417.343 289.825 337.653 289.825C257.964 289.825 193.363 225.238 193.363 145.566C193.363 65.8939 257.964 1.30676 337.653 1.30676C417.343 1.30676 481.944 65.8939 481.944 145.566Z" fill="white" stroke="#70F1C9" stroke-width="2"/>
<path d="M407.765 179.023C407.765 233.749 363.39 278.115 308.651 278.115C253.912 278.115 209.537 233.749 209.537 179.023C209.537 124.296 253.912 79.9306 308.651 79.9306C363.39 79.9306 407.765 124.296 407.765 179.023Z" fill="white" stroke="#70F1C9" stroke-width="2"/>
<path d="M355.385 204.116C356.036 240.664 326.929 270.82 290.373 271.47C253.816 272.121 223.654 243.02 223.004 206.472C222.353 169.924 251.46 139.768 288.016 139.118C324.572 138.467 354.734 167.568 355.385 204.116Z" fill="white" stroke="#70F1C9" stroke-width="2"/>
<path d="M69.877 129.338C69.877 128.713 69.6556 128.231 69.2129 127.893C68.7767 127.554 67.9857 127.212 66.8398 126.867C65.694 126.522 64.7826 126.138 64.1055 125.715C62.8099 124.901 62.1621 123.84 62.1621 122.531C62.1621 121.385 62.6276 120.441 63.5586 119.699C64.4961 118.957 65.7103 118.586 67.2012 118.586C68.1908 118.586 69.0729 118.768 69.8477 119.133C70.6224 119.497 71.2311 120.018 71.6738 120.695C72.1165 121.366 72.3379 122.111 72.3379 122.932H69.877C69.877 122.189 69.6426 121.61 69.1738 121.193C68.7116 120.77 68.0475 120.559 67.1816 120.559C66.3743 120.559 65.7461 120.731 65.2969 121.076C64.8542 121.421 64.6328 121.903 64.6328 122.521C64.6328 123.042 64.8737 123.479 65.3555 123.83C65.8372 124.175 66.6315 124.514 67.7383 124.846C68.8451 125.171 69.7337 125.546 70.4043 125.969C71.0749 126.385 71.5664 126.867 71.8789 127.414C72.1914 127.954 72.3477 128.589 72.3477 129.318C72.3477 130.503 71.8919 131.447 70.9805 132.15C70.0755 132.847 68.8451 133.195 67.2891 133.195C66.2604 133.195 65.3132 133.007 64.4473 132.629C63.5879 132.245 62.9173 131.717 62.4355 131.047C61.9603 130.376 61.7227 129.595 61.7227 128.703H64.1934C64.1934 129.51 64.4603 130.135 64.9941 130.578C65.528 131.021 66.293 131.242 67.2891 131.242C68.1484 131.242 68.793 131.07 69.2227 130.725C69.6589 130.373 69.877 129.911 69.877 129.338ZM78.627 131.301C79.2194 131.301 79.7109 131.128 80.1016 130.783C80.4922 130.438 80.7005 130.012 80.7266 129.504H82.9629C82.9368 130.161 82.7318 130.777 82.3477 131.35C81.9635 131.916 81.4427 132.365 80.7852 132.697C80.1276 133.029 79.418 133.195 78.6562 133.195C77.1784 133.195 76.0065 132.717 75.1406 131.76C74.2747 130.803 73.8418 129.481 73.8418 127.795V127.551C73.8418 125.943 74.2715 124.657 75.1309 123.693C75.9902 122.723 77.1621 122.238 78.6465 122.238C79.903 122.238 80.9251 122.606 81.7129 123.342C82.5072 124.071 82.9238 125.031 82.9629 126.223H80.7266C80.7005 125.617 80.4922 125.119 80.1016 124.729C79.7174 124.338 79.2259 124.143 78.627 124.143C77.8587 124.143 77.2663 124.423 76.8496 124.982C76.4329 125.536 76.2214 126.379 76.2148 127.512V127.893C76.2148 129.038 76.4199 129.895 76.8301 130.461C77.2467 131.021 77.8457 131.301 78.627 131.301ZM87.2793 133H84.9062V122.434H87.2793V133ZM84.7598 119.689C84.7598 119.325 84.8737 119.022 85.1016 118.781C85.3359 118.54 85.668 118.42 86.0977 118.42C86.5273 118.42 86.8594 118.54 87.0938 118.781C87.3281 119.022 87.4453 119.325 87.4453 119.689C87.4453 120.048 87.3281 120.347 87.0938 120.588C86.8594 120.822 86.5273 120.939 86.0977 120.939C85.668 120.939 85.3359 120.822 85.1016 120.588C84.8737 120.347 84.7598 120.048 84.7598 119.689ZM94.5254 133.195C93.0215 133.195 91.8008 132.723 90.8633 131.779C89.9323 130.829 89.4668 129.566 89.4668 127.99V127.697C89.4668 126.643 89.6686 125.702 90.0723 124.875C90.4824 124.042 91.0553 123.394 91.791 122.932C92.5267 122.469 93.347 122.238 94.252 122.238C95.6908 122.238 96.8008 122.697 97.582 123.615C98.3698 124.533 98.7637 125.832 98.7637 127.512V128.469H91.8594C91.931 129.341 92.2207 130.031 92.7285 130.539C93.2428 131.047 93.8874 131.301 94.6621 131.301C95.7493 131.301 96.6348 130.861 97.3184 129.982L98.5977 131.203C98.1745 131.835 97.6081 132.326 96.8984 132.678C96.1953 133.023 95.4043 133.195 94.5254 133.195ZM94.2422 124.143C93.5911 124.143 93.0638 124.37 92.6602 124.826C92.263 125.282 92.0091 125.917 91.8984 126.73H96.4199V126.555C96.3678 125.76 96.1562 125.161 95.7852 124.758C95.4141 124.348 94.8997 124.143 94.2422 124.143ZM102.816 122.434L102.885 123.654C103.666 122.71 104.691 122.238 105.961 122.238C108.161 122.238 109.281 123.498 109.32 126.018V133H106.947V126.154C106.947 125.484 106.801 124.989 106.508 124.67C106.221 124.344 105.749 124.182 105.092 124.182C104.135 124.182 103.422 124.615 102.953 125.48V133H100.58V122.434H102.816ZM116.088 131.301C116.68 131.301 117.172 131.128 117.562 130.783C117.953 130.438 118.161 130.012 118.188 129.504H120.424C120.398 130.161 120.193 130.777 119.809 131.35C119.424 131.916 118.904 132.365 118.246 132.697C117.589 133.029 116.879 133.195 116.117 133.195C114.639 133.195 113.467 132.717 112.602 131.76C111.736 130.803 111.303 129.481 111.303 127.795V127.551C111.303 125.943 111.732 124.657 112.592 123.693C113.451 122.723 114.623 122.238 116.107 122.238C117.364 122.238 118.386 122.606 119.174 123.342C119.968 124.071 120.385 125.031 120.424 126.223H118.188C118.161 125.617 117.953 125.119 117.562 124.729C117.178 124.338 116.687 124.143 116.088 124.143C115.32 124.143 114.727 124.423 114.311 124.982C113.894 125.536 113.682 126.379 113.676 127.512V127.893C113.676 129.038 113.881 129.895 114.291 130.461C114.708 131.021 115.307 131.301 116.088 131.301ZM126.869 133.195C125.365 133.195 124.145 132.723 123.207 131.779C122.276 130.829 121.811 129.566 121.811 127.99V127.697C121.811 126.643 122.012 125.702 122.416 124.875C122.826 124.042 123.399 123.394 124.135 122.932C124.87 122.469 125.691 122.238 126.596 122.238C128.035 122.238 129.145 122.697 129.926 123.615C130.714 124.533 131.107 125.832 131.107 127.512V128.469H124.203C124.275 129.341 124.564 130.031 125.072 130.539C125.587 131.047 126.231 131.301 127.006 131.301C128.093 131.301 128.979 130.861 129.662 129.982L130.941 131.203C130.518 131.835 129.952 132.326 129.242 132.678C128.539 133.023 127.748 133.195 126.869 133.195ZM126.586 124.143C125.935 124.143 125.408 124.37 125.004 124.826C124.607 125.282 124.353 125.917 124.242 126.73H128.764V126.555C128.712 125.76 128.5 125.161 128.129 124.758C127.758 124.348 127.243 124.143 126.586 124.143ZM61.7715 148.639C61.7715 147.011 62.1491 145.706 62.9043 144.723C63.6595 143.733 64.6719 143.238 65.9414 143.238C67.0612 143.238 67.9661 143.629 68.6562 144.41V139H71.0293V154H68.8809L68.7637 152.906C68.054 153.766 67.1068 154.195 65.9219 154.195C64.6849 154.195 63.6823 153.697 62.9141 152.701C62.1523 151.705 61.7715 150.351 61.7715 148.639ZM64.1445 148.844C64.1445 149.918 64.3496 150.758 64.7598 151.363C65.1764 151.962 65.7656 152.262 66.5273 152.262C67.4974 152.262 68.207 151.829 68.6562 150.963V146.451C68.2201 145.605 67.5169 145.182 66.5469 145.182C65.7786 145.182 65.1862 145.488 64.7695 146.1C64.3529 146.705 64.1445 147.62 64.1445 148.844ZM78.1582 154.195C76.6543 154.195 75.4336 153.723 74.4961 152.779C73.5651 151.829 73.0996 150.566 73.0996 148.99V148.697C73.0996 147.643 73.3014 146.702 73.7051 145.875C74.1152 145.042 74.6882 144.394 75.4238 143.932C76.1595 143.469 76.9798 143.238 77.8848 143.238C79.3236 143.238 80.4336 143.697 81.2148 144.615C82.0026 145.533 82.3965 146.832 82.3965 148.512V149.469H75.4922C75.5638 150.341 75.8535 151.031 76.3613 151.539C76.8757 152.047 77.5202 152.301 78.2949 152.301C79.3822 152.301 80.2676 151.861 80.9512 150.982L82.2305 152.203C81.8073 152.835 81.2409 153.326 80.5312 153.678C79.8281 154.023 79.0371 154.195 78.1582 154.195ZM77.875 145.143C77.224 145.143 76.6966 145.37 76.293 145.826C75.8958 146.282 75.6419 146.917 75.5312 147.73H80.0527V147.555C80.0007 146.76 79.7891 146.161 79.418 145.758C79.0469 145.348 78.5326 145.143 77.875 145.143ZM90.1699 151.129C90.1699 150.706 89.9941 150.383 89.6426 150.162C89.2975 149.941 88.7214 149.745 87.9141 149.576C87.1068 149.407 86.4329 149.192 85.8926 148.932C84.7077 148.359 84.1152 147.529 84.1152 146.441C84.1152 145.53 84.4993 144.768 85.2676 144.156C86.0358 143.544 87.0124 143.238 88.1973 143.238C89.4603 143.238 90.4792 143.551 91.2539 144.176C92.0352 144.801 92.4258 145.611 92.4258 146.607H90.0527C90.0527 146.152 89.8835 145.774 89.5449 145.475C89.2064 145.169 88.7572 145.016 88.1973 145.016C87.6764 145.016 87.25 145.136 86.918 145.377C86.5924 145.618 86.4297 145.94 86.4297 146.344C86.4297 146.708 86.5827 146.992 86.8887 147.193C87.1947 147.395 87.8132 147.6 88.7441 147.809C89.6751 148.01 90.4043 148.255 90.9316 148.541C91.4655 148.821 91.8594 149.16 92.1133 149.557C92.3737 149.954 92.5039 150.436 92.5039 151.002C92.5039 151.952 92.11 152.724 91.3223 153.316C90.5345 153.902 89.5026 154.195 88.2266 154.195C87.3607 154.195 86.5892 154.039 85.9121 153.727C85.235 153.414 84.7077 152.984 84.3301 152.438C83.9525 151.891 83.7637 151.301 83.7637 150.67H86.0684C86.1009 151.23 86.3125 151.663 86.7031 151.969C87.0938 152.268 87.6113 152.418 88.2559 152.418C88.8809 152.418 89.3561 152.301 89.6816 152.066C90.0072 151.826 90.1699 151.513 90.1699 151.129ZM99.1152 148.639C99.1152 147.011 99.4928 145.706 100.248 144.723C101.003 143.733 102.016 143.238 103.285 143.238C104.405 143.238 105.31 143.629 106 144.41V139H108.373V154H106.225L106.107 152.906C105.398 153.766 104.451 154.195 103.266 154.195C102.029 154.195 101.026 153.697 100.258 152.701C99.4961 151.705 99.1152 150.351 99.1152 148.639ZM101.488 148.844C101.488 149.918 101.693 150.758 102.104 151.363C102.52 151.962 103.109 152.262 103.871 152.262C104.841 152.262 105.551 151.829 106 150.963V146.451C105.564 145.605 104.861 145.182 103.891 145.182C103.122 145.182 102.53 145.488 102.113 146.1C101.697 146.705 101.488 147.62 101.488 148.844ZM110.404 148.619C110.404 147.584 110.609 146.653 111.02 145.826C111.43 144.993 112.006 144.355 112.748 143.912C113.49 143.463 114.343 143.238 115.307 143.238C116.732 143.238 117.888 143.697 118.773 144.615C119.665 145.533 120.147 146.751 120.219 148.268L120.229 148.824C120.229 149.866 120.027 150.797 119.623 151.617C119.226 152.438 118.653 153.072 117.904 153.521C117.162 153.971 116.303 154.195 115.326 154.195C113.835 154.195 112.641 153.701 111.742 152.711C110.85 151.715 110.404 150.39 110.404 148.736V148.619ZM112.777 148.824C112.777 149.911 113.002 150.764 113.451 151.383C113.9 151.995 114.525 152.301 115.326 152.301C116.127 152.301 116.749 151.988 117.191 151.363C117.641 150.738 117.865 149.824 117.865 148.619C117.865 147.551 117.634 146.705 117.172 146.08C116.716 145.455 116.094 145.143 115.307 145.143C114.532 145.143 113.917 145.452 113.461 146.07C113.005 146.682 112.777 147.6 112.777 148.824ZM124.438 143.434L124.506 144.654C125.287 143.71 126.312 143.238 127.582 143.238C129.783 143.238 130.902 144.498 130.941 147.018V154H128.568V147.154C128.568 146.484 128.422 145.989 128.129 145.67C127.842 145.344 127.37 145.182 126.713 145.182C125.756 145.182 125.043 145.615 124.574 146.48V154H122.201V143.434H124.438ZM135.57 143.434L135.639 144.654C136.42 143.71 137.445 143.238 138.715 143.238C140.915 143.238 142.035 144.498 142.074 147.018V154H139.701V147.154C139.701 146.484 139.555 145.989 139.262 145.67C138.975 145.344 138.503 145.182 137.846 145.182C136.889 145.182 136.176 145.615 135.707 146.48V154H133.334V143.434H135.57ZM149.154 154.195C147.65 154.195 146.43 153.723 145.492 152.779C144.561 151.829 144.096 150.566 144.096 148.99V148.697C144.096 147.643 144.298 146.702 144.701 145.875C145.111 145.042 145.684 144.394 146.42 143.932C147.156 143.469 147.976 143.238 148.881 143.238C150.32 143.238 151.43 143.697 152.211 144.615C152.999 145.533 153.393 146.832 153.393 148.512V149.469H146.488C146.56 150.341 146.85 151.031 147.357 151.539C147.872 152.047 148.516 152.301 149.291 152.301C150.378 152.301 151.264 151.861 151.947 150.982L153.227 152.203C152.803 152.835 152.237 153.326 151.527 153.678C150.824 154.023 150.033 154.195 149.154 154.195ZM148.871 145.143C148.22 145.143 147.693 145.37 147.289 145.826C146.892 146.282 146.638 146.917 146.527 147.73H151.049V147.555C150.997 146.76 150.785 146.161 150.414 145.758C150.043 145.348 149.529 145.143 148.871 145.143ZM149.408 139H152.113L149.408 141.959H147.504L149.408 139ZM159.896 154.195C158.393 154.195 157.172 153.723 156.234 152.779C155.303 151.829 154.838 150.566 154.838 148.99V148.697C154.838 147.643 155.04 146.702 155.443 145.875C155.854 145.042 156.426 144.394 157.162 143.932C157.898 143.469 158.718 143.238 159.623 143.238C161.062 143.238 162.172 143.697 162.953 144.615C163.741 145.533 164.135 146.832 164.135 148.512V149.469H157.23C157.302 150.341 157.592 151.031 158.1 151.539C158.614 152.047 159.258 152.301 160.033 152.301C161.12 152.301 162.006 151.861 162.689 150.982L163.969 152.203C163.546 152.835 162.979 153.326 162.27 153.678C161.566 154.023 160.775 154.195 159.896 154.195ZM159.613 145.143C158.962 145.143 158.435 145.37 158.031 145.826C157.634 146.282 157.38 146.917 157.27 147.73H161.791V147.555C161.739 146.76 161.527 146.161 161.156 145.758C160.785 145.348 160.271 145.143 159.613 145.143ZM171.908 151.129C171.908 150.706 171.732 150.383 171.381 150.162C171.036 149.941 170.46 149.745 169.652 149.576C168.845 149.407 168.171 149.192 167.631 148.932C166.446 148.359 165.854 147.529 165.854 146.441C165.854 145.53 166.238 144.768 167.006 144.156C167.774 143.544 168.751 143.238 169.936 143.238C171.199 143.238 172.217 143.551 172.992 144.176C173.773 144.801 174.164 145.611 174.164 146.607H171.791C171.791 146.152 171.622 145.774 171.283 145.475C170.945 145.169 170.495 145.016 169.936 145.016C169.415 145.016 168.988 145.136 168.656 145.377C168.331 145.618 168.168 145.94 168.168 146.344C168.168 146.708 168.321 146.992 168.627 147.193C168.933 147.395 169.551 147.6 170.482 147.809C171.413 148.01 172.143 148.255 172.67 148.541C173.204 148.821 173.598 149.16 173.852 149.557C174.112 149.954 174.242 150.436 174.242 151.002C174.242 151.952 173.848 152.724 173.061 153.316C172.273 153.902 171.241 154.195 169.965 154.195C169.099 154.195 168.327 154.039 167.65 153.727C166.973 153.414 166.446 152.984 166.068 152.438C165.691 151.891 165.502 151.301 165.502 150.67H167.807C167.839 151.23 168.051 151.663 168.441 151.969C168.832 152.268 169.35 152.418 169.994 152.418C170.619 152.418 171.094 152.301 171.42 152.066C171.745 151.826 171.908 151.513 171.908 151.129Z" fill="#00516B"/>
<path d="M290.26 40H288.168V27.9141H290.26V40ZM294.518 31.0186L294.576 32.0562C295.24 31.2537 296.112 30.8525 297.191 30.8525C299.061 30.8525 300.013 31.9233 300.046 34.0649V40H298.029V34.1812C298.029 33.6112 297.905 33.1906 297.656 32.9194C297.412 32.6427 297.011 32.5044 296.452 32.5044C295.639 32.5044 295.033 32.8724 294.634 33.6084V40H292.617V31.0186H294.518ZM304.637 28.8354V31.0186H306.222V32.5127H304.637V37.5264C304.637 37.8695 304.703 38.1185 304.836 38.2734C304.974 38.4229 305.218 38.4976 305.566 38.4976C305.799 38.4976 306.034 38.4699 306.272 38.4146V39.9751C305.813 40.1024 305.37 40.166 304.944 40.166C303.394 40.166 302.62 39.311 302.62 37.6011V32.5127H301.142V31.0186H302.62V28.8354H304.637ZM311.726 40.166C310.447 40.166 309.41 39.7648 308.613 38.9624C307.821 38.1545 307.426 37.0809 307.426 35.7417V35.4927C307.426 34.5962 307.597 33.7965 307.94 33.0938C308.289 32.3854 308.776 31.8348 309.401 31.4419C310.027 31.049 310.724 30.8525 311.493 30.8525C312.716 30.8525 313.66 31.2427 314.324 32.0229C314.993 32.8032 315.328 33.9072 315.328 35.335V36.1484H309.459C309.52 36.89 309.767 37.4766 310.198 37.9082C310.635 38.3398 311.183 38.5557 311.842 38.5557C312.766 38.5557 313.519 38.1821 314.1 37.4351L315.187 38.4727C314.827 39.0094 314.346 39.4272 313.743 39.7261C313.145 40.0194 312.473 40.166 311.726 40.166ZM311.485 32.4712C310.931 32.4712 310.483 32.6649 310.14 33.0522C309.803 33.4396 309.587 33.9792 309.493 34.6709H313.336V34.5215C313.292 33.8464 313.112 33.3372 312.796 32.9941C312.481 32.6455 312.044 32.4712 311.485 32.4712ZM319.047 40H317.03V27.25H319.047V40ZM323.396 40H321.379V27.25H323.396V40ZM327.746 40H325.729V31.0186H327.746V40ZM325.604 28.686C325.604 28.3761 325.701 28.1188 325.895 27.9141C326.094 27.7093 326.376 27.6069 326.742 27.6069C327.107 27.6069 327.389 27.7093 327.588 27.9141C327.788 28.1188 327.887 28.3761 327.887 28.686C327.887 28.9904 327.788 29.245 327.588 29.4497C327.389 29.6489 327.107 29.7485 326.742 29.7485C326.376 29.7485 326.094 29.6489 325.895 29.4497C325.701 29.245 325.604 28.9904 325.604 28.686ZM329.597 35.4429C329.597 34.0483 329.924 32.936 330.577 32.106C331.235 31.2703 332.107 30.8525 333.191 30.8525C334.215 30.8525 335.02 31.2095 335.607 31.9233L335.698 31.0186H337.516V39.7261C337.516 40.9048 337.148 41.8345 336.412 42.5151C335.682 43.1958 334.694 43.5361 333.449 43.5361C332.79 43.5361 332.146 43.3978 331.515 43.1211C330.889 42.8499 330.413 42.493 330.087 42.0503L331.042 40.8384C331.661 41.5744 332.425 41.9424 333.333 41.9424C334.002 41.9424 334.531 41.7598 334.918 41.3945C335.305 41.0348 335.499 40.5036 335.499 39.8008V39.1948C334.918 39.8423 334.143 40.166 333.175 40.166C332.123 40.166 331.263 39.7482 330.593 38.9126C329.929 38.077 329.597 36.9204 329.597 35.4429ZM331.606 35.6172C331.606 36.5192 331.789 37.2303 332.154 37.7505C332.525 38.2651 333.036 38.5225 333.689 38.5225C334.503 38.5225 335.106 38.1738 335.499 37.4766V33.5254C335.117 32.8447 334.52 32.5044 333.706 32.5044C333.042 32.5044 332.525 32.7673 332.154 33.293C331.789 33.8187 331.606 34.5934 331.606 35.6172ZM343.551 40.166C342.272 40.166 341.235 39.7648 340.438 38.9624C339.647 38.1545 339.251 37.0809 339.251 35.7417V35.4927C339.251 34.5962 339.423 33.7965 339.766 33.0938C340.114 32.3854 340.601 31.8348 341.227 31.4419C341.852 31.049 342.549 30.8525 343.318 30.8525C344.541 30.8525 345.485 31.2427 346.149 32.0229C346.819 32.8032 347.153 33.9072 347.153 35.335V36.1484H341.285C341.346 36.89 341.592 37.4766 342.023 37.9082C342.461 38.3398 343.008 38.5557 343.667 38.5557C344.591 38.5557 345.344 38.1821 345.925 37.4351L347.012 38.4727C346.653 39.0094 346.171 39.4272 345.568 39.7261C344.97 40.0194 344.298 40.166 343.551 40.166ZM343.31 32.4712C342.757 32.4712 342.308 32.6649 341.965 33.0522C341.628 33.4396 341.412 33.9792 341.318 34.6709H345.161V34.5215C345.117 33.8464 344.937 33.3372 344.622 32.9941C344.306 32.6455 343.869 32.4712 343.31 32.4712ZM350.598 31.0186L350.656 32.0562C351.32 31.2537 352.192 30.8525 353.271 30.8525C355.141 30.8525 356.093 31.9233 356.126 34.0649V40H354.109V34.1812C354.109 33.6112 353.985 33.1906 353.736 32.9194C353.492 32.6427 353.091 32.5044 352.532 32.5044C351.719 32.5044 351.113 32.8724 350.714 33.6084V40H348.697V31.0186H350.598ZM361.879 38.5557C362.382 38.5557 362.8 38.409 363.132 38.1157C363.464 37.8224 363.641 37.46 363.664 37.0283H365.564C365.542 37.5872 365.368 38.1102 365.042 38.5972C364.715 39.0786 364.272 39.4604 363.713 39.7427C363.154 40.0249 362.551 40.166 361.904 40.166C360.648 40.166 359.652 39.7593 358.916 38.9458C358.18 38.1323 357.812 37.009 357.812 35.5757V35.3682C357.812 34.0013 358.177 32.9084 358.907 32.0894C359.638 31.2648 360.634 30.8525 361.896 30.8525C362.964 30.8525 363.832 31.1652 364.502 31.7905C365.177 32.4103 365.531 33.2266 365.564 34.2393H363.664C363.641 33.7246 363.464 33.3013 363.132 32.9692C362.806 32.6372 362.388 32.4712 361.879 32.4712C361.226 32.4712 360.722 32.7091 360.368 33.1851C360.014 33.6554 359.834 34.3721 359.829 35.335V35.6587C359.829 36.6326 360.003 37.3604 360.352 37.8418C360.706 38.3177 361.215 38.5557 361.879 38.5557ZM371.043 40.166C369.765 40.166 368.727 39.7648 367.93 38.9624C367.139 38.1545 366.743 37.0809 366.743 35.7417V35.4927C366.743 34.5962 366.915 33.7965 367.258 33.0938C367.606 32.3854 368.093 31.8348 368.719 31.4419C369.344 31.049 370.041 30.8525 370.811 30.8525C372.034 30.8525 372.977 31.2427 373.641 32.0229C374.311 32.8032 374.646 33.9072 374.646 35.335V36.1484H368.777C368.838 36.89 369.084 37.4766 369.516 37.9082C369.953 38.3398 370.501 38.5557 371.159 38.5557C372.083 38.5557 372.836 38.1821 373.417 37.4351L374.504 38.4727C374.145 39.0094 373.663 39.4272 373.06 39.7261C372.462 40.0194 371.79 40.166 371.043 40.166ZM370.802 32.4712C370.249 32.4712 369.801 32.6649 369.458 33.0522C369.12 33.4396 368.904 33.9792 368.81 34.6709H372.653V34.5215C372.609 33.8464 372.429 33.3372 372.114 32.9941C371.798 32.6455 371.361 32.4712 370.802 32.4712ZM300.08 55.186H295.398L294.418 58H292.235L296.801 45.9141H298.685L303.259 58H301.067L300.08 55.186ZM295.987 53.4927H299.49L297.739 48.479L295.987 53.4927ZM309.144 50.8613C308.878 50.8171 308.604 50.7949 308.322 50.7949C307.398 50.7949 306.776 51.1491 306.455 51.8574V58H304.438V49.0186H306.363L306.413 50.0229C306.9 49.2427 307.575 48.8525 308.438 48.8525C308.726 48.8525 308.964 48.8913 309.152 48.9688L309.144 50.8613ZM313.361 46.8354V49.0186H314.946V50.5127H313.361V55.5264C313.361 55.8695 313.427 56.1185 313.56 56.2734C313.698 56.4229 313.942 56.4976 314.291 56.4976C314.523 56.4976 314.758 56.4699 314.996 56.4146V57.9751C314.537 58.1024 314.094 58.166 313.668 58.166C312.118 58.166 311.344 57.311 311.344 55.6011V50.5127H309.866V49.0186H311.344V46.8354H313.361ZM318.64 58H316.623V49.0186H318.64V58ZM316.499 46.686C316.499 46.3761 316.595 46.1188 316.789 45.9141C316.988 45.7093 317.271 45.6069 317.636 45.6069C318.001 45.6069 318.283 45.7093 318.482 45.9141C318.682 46.1188 318.781 46.3761 318.781 46.686C318.781 46.9904 318.682 47.245 318.482 47.4497C318.283 47.6489 318.001 47.7485 317.636 47.7485C317.271 47.7485 316.988 47.6489 316.789 47.4497C316.595 47.245 316.499 46.9904 316.499 46.686ZM321.379 58V50.5127H320.01V49.0186H321.379V48.4043C321.385 47.7015 321.534 47.0983 321.828 46.5947C322.121 46.0911 322.536 45.7121 323.073 45.4575C323.61 45.203 324.254 45.0757 325.007 45.0757C325.45 45.0757 325.873 45.1227 326.277 45.2168C326.686 45.3109 327.11 45.4299 327.547 45.5737L327.24 47.2422C326.476 46.9766 325.779 46.8438 325.148 46.8438C324.534 46.8438 324.088 46.9793 323.812 47.2505C323.535 47.5161 323.396 47.9173 323.396 48.4541V49.0186H325.165V50.5127H323.396V58H321.379ZM328.501 58H326.484V49.0186H328.501V58ZM334.428 56.5557C334.932 56.5557 335.35 56.409 335.682 56.1157C336.014 55.8224 336.191 55.46 336.213 55.0283H338.114C338.092 55.5872 337.917 56.1102 337.591 56.5972C337.264 57.0786 336.822 57.4604 336.263 57.7427C335.704 58.0249 335.101 58.166 334.453 58.166C333.197 58.166 332.201 57.7593 331.465 56.9458C330.729 56.1323 330.361 55.009 330.361 53.5757V53.3682C330.361 52.0013 330.726 50.9084 331.457 50.0894C332.187 49.2648 333.183 48.8525 334.445 48.8525C335.513 48.8525 336.382 49.1652 337.051 49.7905C337.726 50.4103 338.081 51.2266 338.114 52.2393H336.213C336.191 51.7246 336.014 51.3013 335.682 50.9692C335.355 50.6372 334.937 50.4712 334.428 50.4712C333.775 50.4712 333.272 50.7091 332.917 51.1851C332.563 51.6554 332.383 52.3721 332.378 53.335V53.6587C332.378 54.6326 332.552 55.3604 332.901 55.8418C333.255 56.3177 333.764 56.5557 334.428 56.5557ZM341.783 58H339.766V49.0186H341.783V58ZM339.641 46.686C339.641 46.3761 339.738 46.1188 339.932 45.9141C340.131 45.7093 340.413 45.6069 340.778 45.6069C341.144 45.6069 341.426 45.7093 341.625 45.9141C341.824 46.1188 341.924 46.3761 341.924 46.686C341.924 46.9904 341.824 47.245 341.625 47.4497C341.426 47.6489 341.144 47.7485 340.778 47.7485C340.413 47.7485 340.131 47.6489 339.932 47.4497C339.738 47.245 339.641 46.9904 339.641 46.686ZM347.942 58.166C346.664 58.166 345.626 57.7648 344.829 56.9624C344.038 56.1545 343.642 55.0809 343.642 53.7417V53.4927C343.642 52.5962 343.814 51.7965 344.157 51.0938C344.505 50.3854 344.992 49.8348 345.618 49.4419C346.243 49.049 346.94 48.8525 347.709 48.8525C348.932 48.8525 349.876 49.2427 350.54 50.0229C351.21 50.8032 351.544 51.9072 351.544 53.335V54.1484H345.676C345.737 54.89 345.983 55.4766 346.415 55.9082C346.852 56.3398 347.4 56.5557 348.058 56.5557C348.982 56.5557 349.735 56.1821 350.316 55.4351L351.403 56.4727C351.044 57.0094 350.562 57.4272 349.959 57.7261C349.361 58.0194 348.689 58.166 347.942 58.166ZM347.701 50.4712C347.148 50.4712 346.7 50.6649 346.356 51.0522C346.019 51.4396 345.803 51.9792 345.709 52.6709H349.552V52.5215C349.508 51.8464 349.328 51.3372 349.013 50.9941C348.697 50.6455 348.26 50.4712 347.701 50.4712ZM355.263 58H353.246V45.25H355.263V58ZM359.613 58H357.596V45.25H359.613V58ZM365.772 58.166C364.494 58.166 363.456 57.7648 362.659 56.9624C361.868 56.1545 361.472 55.0809 361.472 53.7417V53.4927C361.472 52.5962 361.644 51.7965 361.987 51.0938C362.335 50.3854 362.822 49.8348 363.448 49.4419C364.073 49.049 364.77 48.8525 365.54 48.8525C366.763 48.8525 367.706 49.2427 368.37 50.0229C369.04 50.8032 369.375 51.9072 369.375 53.335V54.1484H363.506C363.567 54.89 363.813 55.4766 364.245 55.9082C364.682 56.3398 365.23 56.5557 365.888 56.5557C366.812 56.5557 367.565 56.1821 368.146 55.4351L369.233 56.4727C368.874 57.0094 368.392 57.4272 367.789 57.7261C367.191 58.0194 366.519 58.166 365.772 58.166ZM365.531 50.4712C364.978 50.4712 364.53 50.6649 364.187 51.0522C363.849 51.4396 363.633 51.9792 363.539 52.6709H367.382V52.5215C367.338 51.8464 367.158 51.3372 366.843 50.9941C366.527 50.6455 366.09 50.4712 365.531 50.4712Z" fill="#00516B"/>
<path d="M268.476 109.186H263.794L262.815 112H260.632L265.197 99.9141H267.082L271.655 112H269.464L268.476 109.186ZM264.384 107.493H267.887L266.135 102.479L264.384 107.493ZM280.305 107.601C280.305 108.99 279.989 110.099 279.358 110.929C278.728 111.754 277.881 112.166 276.818 112.166C275.833 112.166 275.045 111.842 274.453 111.195V115.453H272.436V103.019H274.295L274.378 103.932C274.97 103.212 275.775 102.853 276.793 102.853C277.889 102.853 278.747 103.262 279.367 104.081C279.992 104.895 280.305 106.026 280.305 107.476V107.601ZM278.296 107.426C278.296 106.53 278.116 105.819 277.756 105.293C277.402 104.767 276.893 104.504 276.229 104.504C275.404 104.504 274.812 104.845 274.453 105.525V109.51C274.818 110.207 275.416 110.556 276.246 110.556C276.888 110.556 277.388 110.298 277.748 109.784C278.113 109.264 278.296 108.478 278.296 107.426ZM289.884 107.601C289.884 108.99 289.568 110.099 288.938 110.929C288.307 111.754 287.46 112.166 286.397 112.166C285.412 112.166 284.624 111.842 284.032 111.195V115.453H282.015V103.019H283.874L283.957 103.932C284.549 103.212 285.354 102.853 286.373 102.853C287.468 102.853 288.326 103.262 288.946 104.081C289.571 104.895 289.884 106.026 289.884 107.476V107.601ZM287.875 107.426C287.875 106.53 287.695 105.819 287.335 105.293C286.981 104.767 286.472 104.504 285.808 104.504C284.984 104.504 284.391 104.845 284.032 105.525V109.51C284.397 110.207 284.995 110.556 285.825 110.556C286.467 110.556 286.967 110.298 287.327 109.784C287.692 109.264 287.875 108.478 287.875 107.426ZM296.3 104.861C296.035 104.817 295.761 104.795 295.479 104.795C294.554 104.795 293.932 105.149 293.611 105.857V112H291.594V103.019H293.52L293.569 104.023C294.056 103.243 294.731 102.853 295.595 102.853C295.882 102.853 296.12 102.891 296.309 102.969L296.3 104.861ZM301.364 112.166C300.085 112.166 299.048 111.765 298.251 110.962C297.46 110.154 297.064 109.081 297.064 107.742V107.493C297.064 106.596 297.236 105.797 297.579 105.094C297.927 104.385 298.414 103.835 299.04 103.442C299.665 103.049 300.362 102.853 301.131 102.853C302.354 102.853 303.298 103.243 303.962 104.023C304.632 104.803 304.966 105.907 304.966 107.335V108.148H299.098C299.159 108.89 299.405 109.477 299.836 109.908C300.274 110.34 300.821 110.556 301.48 110.556C302.404 110.556 303.157 110.182 303.738 109.435L304.825 110.473C304.465 111.009 303.984 111.427 303.381 111.726C302.783 112.019 302.111 112.166 301.364 112.166ZM301.123 104.471C300.57 104.471 300.121 104.665 299.778 105.052C299.441 105.44 299.225 105.979 299.131 106.671H302.974V106.521C302.93 105.846 302.75 105.337 302.435 104.994C302.119 104.646 301.682 104.471 301.123 104.471ZM308.411 103.019L308.469 104.056C309.133 103.254 310.005 102.853 311.084 102.853C312.954 102.853 313.906 103.923 313.939 106.065V112H311.922V106.181C311.922 105.611 311.798 105.191 311.549 104.919C311.305 104.643 310.904 104.504 310.345 104.504C309.532 104.504 308.926 104.872 308.527 105.608V112H306.51V103.019H308.411ZM318.53 100.835V103.019H320.115V104.513H318.53V109.526C318.53 109.869 318.596 110.118 318.729 110.273C318.867 110.423 319.111 110.498 319.459 110.498C319.692 110.498 319.927 110.47 320.165 110.415V111.975C319.706 112.102 319.263 112.166 318.837 112.166C317.287 112.166 316.513 111.311 316.513 109.601V104.513H315.035V103.019H316.513V100.835H318.53ZM323.809 112H321.792V103.019H323.809V112ZM321.667 100.686C321.667 100.376 321.764 100.119 321.958 99.9141C322.157 99.7093 322.439 99.6069 322.805 99.6069C323.17 99.6069 323.452 99.7093 323.651 99.9141C323.851 100.119 323.95 100.376 323.95 100.686C323.95 100.99 323.851 101.245 323.651 101.45C323.452 101.649 323.17 101.749 322.805 101.749C322.439 101.749 322.157 101.649 321.958 101.45C321.764 101.245 321.667 100.99 321.667 100.686ZM331.047 109.56C331.047 109.2 330.898 108.926 330.599 108.738C330.306 108.55 329.816 108.384 329.13 108.24C328.444 108.096 327.871 107.913 327.412 107.692C326.404 107.205 325.901 106.499 325.901 105.575C325.901 104.8 326.227 104.153 326.88 103.633C327.533 103.113 328.363 102.853 329.371 102.853C330.444 102.853 331.31 103.118 331.969 103.649C332.633 104.181 332.965 104.87 332.965 105.716H330.948C330.948 105.329 330.804 105.008 330.516 104.753C330.228 104.493 329.847 104.363 329.371 104.363C328.928 104.363 328.565 104.466 328.283 104.67C328.007 104.875 327.868 105.149 327.868 105.492C327.868 105.802 327.998 106.043 328.258 106.214C328.518 106.386 329.044 106.56 329.835 106.737C330.627 106.909 331.247 107.116 331.695 107.36C332.149 107.598 332.483 107.886 332.699 108.223C332.921 108.561 333.031 108.97 333.031 109.452C333.031 110.26 332.696 110.915 332.027 111.419C331.357 111.917 330.48 112.166 329.396 112.166C328.66 112.166 328.004 112.033 327.428 111.768C326.853 111.502 326.404 111.137 326.083 110.672C325.763 110.207 325.602 109.706 325.602 109.169H327.561C327.589 109.645 327.769 110.013 328.101 110.273C328.433 110.528 328.873 110.655 329.42 110.655C329.952 110.655 330.356 110.556 330.632 110.356C330.909 110.152 331.047 109.886 331.047 109.56ZM339.83 109.56C339.83 109.2 339.68 108.926 339.381 108.738C339.088 108.55 338.598 108.384 337.912 108.24C337.226 108.096 336.653 107.913 336.194 107.692C335.187 107.205 334.683 106.499 334.683 105.575C334.683 104.8 335.01 104.153 335.663 103.633C336.316 103.113 337.146 102.853 338.153 102.853C339.226 102.853 340.092 103.118 340.751 103.649C341.415 104.181 341.747 104.87 341.747 105.716H339.73C339.73 105.329 339.586 105.008 339.298 104.753C339.011 104.493 338.629 104.363 338.153 104.363C337.71 104.363 337.348 104.466 337.065 104.67C336.789 104.875 336.65 105.149 336.65 105.492C336.65 105.802 336.78 106.043 337.041 106.214C337.301 106.386 337.826 106.56 338.618 106.737C339.409 106.909 340.029 107.116 340.477 107.36C340.931 107.598 341.266 107.886 341.481 108.223C341.703 108.561 341.813 108.97 341.813 109.452C341.813 110.26 341.479 110.915 340.809 111.419C340.139 111.917 339.262 112.166 338.178 112.166C337.442 112.166 336.786 112.033 336.21 111.768C335.635 111.502 335.187 111.137 334.866 110.672C334.545 110.207 334.384 109.706 334.384 109.169H336.343C336.371 109.645 336.551 110.013 336.883 110.273C337.215 110.528 337.655 110.655 338.203 110.655C338.734 110.655 339.138 110.556 339.415 110.356C339.691 110.152 339.83 109.886 339.83 109.56ZM348.944 112C348.855 111.828 348.778 111.549 348.711 111.162C348.069 111.831 347.284 112.166 346.354 112.166C345.452 112.166 344.716 111.909 344.146 111.394C343.576 110.879 343.291 110.243 343.291 109.485C343.291 108.528 343.645 107.794 344.354 107.285C345.067 106.771 346.086 106.513 347.408 106.513H348.645V105.924C348.645 105.459 348.515 105.088 348.255 104.812C347.995 104.529 347.599 104.388 347.068 104.388C346.609 104.388 346.232 104.504 345.939 104.737C345.646 104.964 345.499 105.254 345.499 105.608H343.482C343.482 105.116 343.645 104.657 343.972 104.23C344.298 103.799 344.741 103.461 345.3 103.218C345.864 102.974 346.492 102.853 347.184 102.853C348.236 102.853 349.074 103.118 349.699 103.649C350.325 104.175 350.646 104.917 350.662 105.874V109.925C350.662 110.733 350.776 111.377 351.002 111.859V112H348.944ZM346.728 110.547C347.126 110.547 347.5 110.451 347.848 110.257C348.202 110.063 348.468 109.803 348.645 109.477V107.783H347.558C346.811 107.783 346.249 107.913 345.873 108.173C345.496 108.433 345.308 108.801 345.308 109.277C345.308 109.665 345.435 109.975 345.69 110.207C345.95 110.434 346.296 110.547 346.728 110.547ZM352.422 107.443C352.422 106.048 352.748 104.936 353.401 104.106C354.06 103.27 354.931 102.853 356.016 102.853C357.04 102.853 357.845 103.209 358.432 103.923L358.523 103.019H360.341V111.726C360.341 112.905 359.973 113.834 359.237 114.515C358.506 115.196 357.519 115.536 356.273 115.536C355.615 115.536 354.97 115.398 354.339 115.121C353.714 114.85 353.238 114.493 352.912 114.05L353.866 112.838C354.486 113.574 355.25 113.942 356.157 113.942C356.827 113.942 357.355 113.76 357.743 113.395C358.13 113.035 358.324 112.504 358.324 111.801V111.195C357.743 111.842 356.968 112.166 356 112.166C354.948 112.166 354.088 111.748 353.418 110.913C352.754 110.077 352.422 108.92 352.422 107.443ZM354.431 107.617C354.431 108.519 354.613 109.23 354.979 109.75C355.349 110.265 355.861 110.522 356.514 110.522C357.328 110.522 357.931 110.174 358.324 109.477V105.525C357.942 104.845 357.344 104.504 356.531 104.504C355.867 104.504 355.349 104.767 354.979 105.293C354.613 105.819 354.431 106.593 354.431 107.617ZM366.375 112.166C365.097 112.166 364.06 111.765 363.263 110.962C362.471 110.154 362.076 109.081 362.076 107.742V107.493C362.076 106.596 362.247 105.797 362.59 105.094C362.939 104.385 363.426 103.835 364.051 103.442C364.677 103.049 365.374 102.853 366.143 102.853C367.366 102.853 368.31 103.243 368.974 104.023C369.643 104.803 369.978 105.907 369.978 107.335V108.148H364.109C364.17 108.89 364.417 109.477 364.848 109.908C365.285 110.34 365.833 110.556 366.492 110.556C367.416 110.556 368.168 110.182 368.75 109.435L369.837 110.473C369.477 111.009 368.996 111.427 368.393 111.726C367.795 112.019 367.123 112.166 366.375 112.166ZM366.135 104.471C365.581 104.471 365.133 104.665 364.79 105.052C364.452 105.44 364.237 105.979 364.143 106.671H367.986V106.521C367.942 105.846 367.762 105.337 367.446 104.994C367.131 104.646 366.694 104.471 366.135 104.471ZM273.913 130C273.825 129.828 273.747 129.549 273.681 129.162C273.039 129.831 272.253 130.166 271.323 130.166C270.421 130.166 269.685 129.909 269.115 129.394C268.545 128.879 268.26 128.243 268.26 127.485C268.26 126.528 268.614 125.794 269.323 125.285C270.037 124.771 271.055 124.513 272.377 124.513H273.614V123.924C273.614 123.459 273.484 123.088 273.224 122.812C272.964 122.529 272.568 122.388 272.037 122.388C271.578 122.388 271.201 122.504 270.908 122.737C270.615 122.964 270.468 123.254 270.468 123.608H268.451C268.451 123.116 268.614 122.657 268.941 122.23C269.267 121.799 269.71 121.461 270.269 121.218C270.833 120.974 271.462 120.853 272.153 120.853C273.205 120.853 274.043 121.118 274.668 121.649C275.294 122.175 275.615 122.917 275.631 123.874V127.925C275.631 128.733 275.745 129.377 275.972 129.859V130H273.913ZM271.697 128.547C272.095 128.547 272.469 128.451 272.817 128.257C273.172 128.063 273.437 127.803 273.614 127.477V125.783H272.527C271.78 125.783 271.218 125.913 270.842 126.173C270.465 126.433 270.277 126.801 270.277 127.277C270.277 127.665 270.405 127.975 270.659 128.207C270.919 128.434 271.265 128.547 271.697 128.547ZM283.185 129.12C282.593 129.817 281.752 130.166 280.662 130.166C279.688 130.166 278.949 129.881 278.445 129.311C277.947 128.741 277.698 127.917 277.698 126.837V121.019H279.715V126.812C279.715 127.952 280.188 128.522 281.135 128.522C282.114 128.522 282.776 128.171 283.119 127.468V121.019H285.136V130H283.235L283.185 129.12ZM289.718 118.835V121.019H291.303V122.513H289.718V127.526C289.718 127.869 289.784 128.118 289.917 128.273C290.055 128.423 290.299 128.498 290.647 128.498C290.88 128.498 291.115 128.47 291.353 128.415V129.975C290.894 130.102 290.451 130.166 290.025 130.166C288.475 130.166 287.701 129.311 287.701 127.601V122.513H286.223V121.019H287.701V118.835H289.718ZM292.225 125.426C292.225 124.546 292.399 123.755 292.748 123.052C293.096 122.344 293.586 121.802 294.217 121.425C294.848 121.043 295.573 120.853 296.392 120.853C297.604 120.853 298.586 121.243 299.338 122.023C300.097 122.803 300.506 123.838 300.567 125.127L300.575 125.601C300.575 126.486 300.404 127.277 300.061 127.975C299.723 128.672 299.236 129.211 298.6 129.593C297.969 129.975 297.238 130.166 296.408 130.166C295.141 130.166 294.125 129.745 293.362 128.904C292.604 128.058 292.225 126.931 292.225 125.526V125.426ZM294.242 125.601C294.242 126.525 294.433 127.25 294.814 127.775C295.196 128.296 295.728 128.556 296.408 128.556C297.089 128.556 297.617 128.29 297.994 127.759C298.375 127.228 298.566 126.45 298.566 125.426C298.566 124.519 298.37 123.799 297.977 123.268C297.59 122.737 297.061 122.471 296.392 122.471C295.733 122.471 295.21 122.734 294.823 123.26C294.435 123.78 294.242 124.56 294.242 125.601ZM304.178 121.019L304.236 121.957C304.867 121.221 305.73 120.853 306.826 120.853C308.027 120.853 308.848 121.312 309.291 122.23C309.944 121.312 310.863 120.853 312.047 120.853C313.037 120.853 313.773 121.126 314.255 121.674C314.742 122.222 314.991 123.03 315.002 124.098V130H312.985V124.156C312.985 123.586 312.86 123.168 312.611 122.903C312.362 122.637 311.95 122.504 311.375 122.504C310.915 122.504 310.539 122.629 310.246 122.878C309.958 123.121 309.756 123.442 309.64 123.841L309.648 130H307.631V124.09C307.603 123.033 307.064 122.504 306.012 122.504C305.204 122.504 304.632 122.834 304.294 123.492V130H302.277V121.019H304.178ZM322.439 130C322.351 129.828 322.273 129.549 322.207 129.162C321.565 129.831 320.779 130.166 319.85 130.166C318.948 130.166 318.212 129.909 317.642 129.394C317.072 128.879 316.787 128.243 316.787 127.485C316.787 126.528 317.141 125.794 317.849 125.285C318.563 124.771 319.581 124.513 320.904 124.513H322.141V123.924C322.141 123.459 322.011 123.088 321.75 122.812C321.49 122.529 321.095 122.388 320.563 122.388C320.104 122.388 319.728 122.504 319.435 122.737C319.141 122.964 318.995 123.254 318.995 123.608H316.978C316.978 123.116 317.141 122.657 317.467 122.23C317.794 121.799 318.236 121.461 318.795 121.218C319.36 120.974 319.988 120.853 320.68 120.853C321.731 120.853 322.569 121.118 323.195 121.649C323.82 122.175 324.141 122.917 324.158 123.874V127.925C324.158 128.733 324.271 129.377 324.498 129.859V130H322.439ZM320.223 128.547C320.622 128.547 320.995 128.451 321.344 128.257C321.698 128.063 321.964 127.803 322.141 127.477V125.783H321.053C320.306 125.783 319.744 125.913 319.368 126.173C318.992 126.433 318.804 126.801 318.804 127.277C318.804 127.665 318.931 127.975 319.186 128.207C319.446 128.434 319.792 128.547 320.223 128.547ZM328.798 118.835V121.019H330.383V122.513H328.798V127.526C328.798 127.869 328.864 128.118 328.997 128.273C329.135 128.423 329.379 128.498 329.728 128.498C329.96 128.498 330.195 128.47 330.433 128.415V129.975C329.974 130.102 329.531 130.166 329.105 130.166C327.556 130.166 326.781 129.311 326.781 127.601V122.513H325.303V121.019H326.781V118.835H328.798ZM334.077 130H332.06V121.019H334.077V130ZM331.936 118.686C331.936 118.376 332.032 118.119 332.226 117.914C332.425 117.709 332.708 117.607 333.073 117.607C333.438 117.607 333.72 117.709 333.919 117.914C334.119 118.119 334.218 118.376 334.218 118.686C334.218 118.99 334.119 119.245 333.919 119.45C333.72 119.649 333.438 119.749 333.073 119.749C332.708 119.749 332.425 119.649 332.226 119.45C332.032 119.245 331.936 118.99 331.936 118.686ZM335.903 125.435C335.903 124.029 336.224 122.914 336.866 122.089C337.508 121.265 338.377 120.853 339.473 120.853C340.474 120.853 341.268 121.204 341.855 121.907L341.971 121.019H343.764V133.453H341.747V129.236C341.16 129.856 340.397 130.166 339.456 130.166C338.382 130.166 337.522 129.748 336.875 128.913C336.227 128.071 335.903 126.912 335.903 125.435ZM337.92 125.609C337.92 126.528 338.1 127.25 338.46 127.775C338.825 128.296 339.329 128.556 339.971 128.556C340.768 128.556 341.36 128.215 341.747 127.535V123.451C341.36 122.798 340.773 122.471 339.987 122.471C339.345 122.471 338.839 122.729 338.468 123.243C338.103 123.758 337.92 124.546 337.92 125.609ZM351.384 129.12C350.792 129.817 349.951 130.166 348.861 130.166C347.887 130.166 347.148 129.881 346.645 129.311C346.146 128.741 345.897 127.917 345.897 126.837V121.019H347.915V126.812C347.915 127.952 348.388 128.522 349.334 128.522C350.313 128.522 350.975 128.171 351.318 127.468V121.019H353.335V130H351.434L351.384 129.12ZM359.345 130.166C358.066 130.166 357.029 129.765 356.232 128.962C355.441 128.154 355.045 127.081 355.045 125.742V125.493C355.045 124.596 355.216 123.797 355.56 123.094C355.908 122.385 356.395 121.835 357.021 121.442C357.646 121.049 358.343 120.853 359.112 120.853C360.335 120.853 361.279 121.243 361.943 122.023C362.612 122.803 362.947 123.907 362.947 125.335V126.148H357.079C357.139 126.89 357.386 127.477 357.817 127.908C358.255 128.34 358.802 128.556 359.461 128.556C360.385 128.556 361.138 128.182 361.719 127.435L362.806 128.473C362.446 129.009 361.965 129.427 361.362 129.726C360.764 130.019 360.092 130.166 359.345 130.166ZM359.104 122.471C358.551 122.471 358.102 122.665 357.759 123.052C357.422 123.44 357.206 123.979 357.112 124.671H360.955V124.521C360.911 123.846 360.731 123.337 360.416 122.994C360.1 122.646 359.663 122.471 359.104 122.471Z" fill="#00516B"/>
<path d="M232.542 205.323H238.029V207H230.442V194.914H232.542V205.323ZM238.237 195.288L238.021 198.533H236.701V194.25H238.237V195.288ZM244.877 207C244.789 206.828 244.711 206.549 244.645 206.162C244.003 206.831 243.217 207.166 242.288 207.166C241.386 207.166 240.65 206.909 240.08 206.394C239.51 205.879 239.225 205.243 239.225 204.485C239.225 203.528 239.579 202.794 240.287 202.285C241.001 201.771 242.019 201.513 243.342 201.513H244.579V200.924C244.579 200.459 244.449 200.088 244.188 199.812C243.928 199.529 243.533 199.388 243.001 199.388C242.542 199.388 242.166 199.504 241.873 199.737C241.579 199.964 241.433 200.254 241.433 200.608H239.416C239.416 200.116 239.579 199.657 239.905 199.23C240.232 198.799 240.674 198.461 241.233 198.218C241.798 197.974 242.426 197.853 243.118 197.853C244.169 197.853 245.007 198.118 245.633 198.649C246.258 199.175 246.579 199.917 246.596 200.874V204.925C246.596 205.733 246.709 206.377 246.936 206.859V207H244.877ZM242.661 205.547C243.06 205.547 243.433 205.451 243.782 205.257C244.136 205.063 244.402 204.803 244.579 204.477V202.783H243.491C242.744 202.783 242.182 202.913 241.806 203.173C241.43 203.433 241.242 203.801 241.242 204.277C241.242 204.665 241.369 204.975 241.624 205.207C241.884 205.434 242.229 205.547 242.661 205.547ZM256.573 202.601C256.573 203.99 256.258 205.099 255.627 205.929C254.996 206.754 254.149 207.166 253.087 207.166C252.102 207.166 251.313 206.842 250.721 206.195V210.453H248.704V198.019H250.563L250.646 198.932C251.239 198.212 252.044 197.853 253.062 197.853C254.158 197.853 255.015 198.262 255.635 199.081C256.261 199.895 256.573 201.026 256.573 202.476V202.601ZM254.564 202.426C254.564 201.53 254.385 200.819 254.025 200.293C253.671 199.767 253.162 199.504 252.498 199.504C251.673 199.504 251.081 199.845 250.721 200.525V204.51C251.086 205.207 251.684 205.556 252.514 205.556C253.156 205.556 253.657 205.298 254.017 204.784C254.382 204.264 254.564 203.478 254.564 202.426ZM266.152 202.601C266.152 203.99 265.837 205.099 265.206 205.929C264.575 206.754 263.729 207.166 262.666 207.166C261.681 207.166 260.892 206.842 260.3 206.195V210.453H258.283V198.019H260.143L260.226 198.932C260.818 198.212 261.623 197.853 262.641 197.853C263.737 197.853 264.595 198.262 265.214 199.081C265.84 199.895 266.152 201.026 266.152 202.476V202.601ZM264.144 202.426C264.144 201.53 263.964 200.819 263.604 200.293C263.25 199.767 262.741 199.504 262.077 199.504C261.252 199.504 260.66 199.845 260.3 200.525V204.51C260.666 205.207 261.263 205.556 262.093 205.556C262.735 205.556 263.236 205.298 263.596 204.784C263.961 204.264 264.144 203.478 264.144 202.426ZM272.569 199.861C272.303 199.817 272.029 199.795 271.747 199.795C270.823 199.795 270.2 200.149 269.879 200.857V207H267.862V198.019H269.788L269.838 199.023C270.325 198.243 271 197.853 271.863 197.853C272.151 197.853 272.389 197.891 272.577 197.969L272.569 199.861ZM277.632 207.166C276.354 207.166 275.316 206.765 274.52 205.962C273.728 205.154 273.333 204.081 273.333 202.742V202.493C273.333 201.596 273.504 200.797 273.847 200.094C274.196 199.385 274.683 198.835 275.308 198.442C275.933 198.049 276.631 197.853 277.4 197.853C278.623 197.853 279.566 198.243 280.23 199.023C280.9 199.803 281.235 200.907 281.235 202.335V203.148H275.366C275.427 203.89 275.673 204.477 276.105 204.908C276.542 205.34 277.09 205.556 277.749 205.556C278.673 205.556 279.425 205.182 280.006 204.435L281.094 205.473C280.734 206.009 280.253 206.427 279.649 206.726C279.052 207.019 278.379 207.166 277.632 207.166ZM277.392 199.471C276.838 199.471 276.39 199.665 276.047 200.052C275.709 200.44 275.493 200.979 275.399 201.671H279.243V201.521C279.198 200.846 279.019 200.337 278.703 199.994C278.388 199.646 277.951 199.471 277.392 199.471ZM284.68 198.019L284.738 199.056C285.402 198.254 286.273 197.853 287.353 197.853C289.223 197.853 290.175 198.923 290.208 201.065V207H288.191V201.181C288.191 200.611 288.066 200.191 287.817 199.919C287.574 199.643 287.173 199.504 286.614 199.504C285.8 199.504 285.194 199.872 284.796 200.608V207H282.779V198.019H284.68ZM294.798 195.835V198.019H296.384V199.513H294.798V204.526C294.798 204.869 294.865 205.118 294.998 205.273C295.136 205.423 295.379 205.498 295.728 205.498C295.96 205.498 296.196 205.47 296.434 205.415V206.975C295.974 207.102 295.532 207.166 295.105 207.166C293.556 207.166 292.781 206.311 292.781 204.601V199.513H291.304V198.019H292.781V195.835H294.798ZM300.078 207H298.061V198.019H300.078V207ZM297.936 195.686C297.936 195.376 298.033 195.119 298.227 194.914C298.426 194.709 298.708 194.607 299.073 194.607C299.438 194.607 299.721 194.709 299.92 194.914C300.119 195.119 300.219 195.376 300.219 195.686C300.219 195.99 300.119 196.245 299.92 196.45C299.721 196.649 299.438 196.749 299.073 196.749C298.708 196.749 298.426 196.649 298.227 196.45C298.033 196.245 297.936 195.99 297.936 195.686ZM307.316 204.56C307.316 204.2 307.167 203.926 306.868 203.738C306.574 203.55 306.085 203.384 305.398 203.24C304.712 203.096 304.139 202.913 303.68 202.692C302.673 202.205 302.169 201.499 302.169 200.575C302.169 199.8 302.496 199.153 303.149 198.633C303.802 198.113 304.632 197.853 305.639 197.853C306.713 197.853 307.579 198.118 308.237 198.649C308.901 199.181 309.233 199.87 309.233 200.716H307.216C307.216 200.329 307.072 200.008 306.785 199.753C306.497 199.493 306.115 199.363 305.639 199.363C305.196 199.363 304.834 199.466 304.552 199.67C304.275 199.875 304.137 200.149 304.137 200.492C304.137 200.802 304.267 201.043 304.527 201.214C304.787 201.386 305.313 201.56 306.104 201.737C306.895 201.909 307.515 202.116 307.963 202.36C308.417 202.598 308.752 202.886 308.968 203.223C309.189 203.561 309.3 203.97 309.3 204.452C309.3 205.26 308.965 205.915 308.295 206.419C307.626 206.917 306.749 207.166 305.664 207.166C304.928 207.166 304.272 207.033 303.697 206.768C303.121 206.502 302.673 206.137 302.352 205.672C302.031 205.207 301.871 204.706 301.871 204.169H303.83C303.857 204.645 304.037 205.013 304.369 205.273C304.701 205.528 305.141 205.655 305.689 205.655C306.22 205.655 306.624 205.556 306.901 205.356C307.178 205.152 307.316 204.886 307.316 204.56ZM316.098 204.56C316.098 204.2 315.949 203.926 315.65 203.738C315.357 203.55 314.867 203.384 314.181 203.24C313.494 203.096 312.922 202.913 312.462 202.692C311.455 202.205 310.952 201.499 310.952 200.575C310.952 199.8 311.278 199.153 311.931 198.633C312.584 198.113 313.414 197.853 314.421 197.853C315.495 197.853 316.361 198.118 317.02 198.649C317.684 199.181 318.016 199.87 318.016 200.716H315.999C315.999 200.329 315.855 200.008 315.567 199.753C315.279 199.493 314.897 199.363 314.421 199.363C313.979 199.363 313.616 199.466 313.334 199.67C313.057 199.875 312.919 200.149 312.919 200.492C312.919 200.802 313.049 201.043 313.309 201.214C313.569 201.386 314.095 201.56 314.886 201.737C315.678 201.909 316.297 202.116 316.746 202.36C317.199 202.598 317.534 202.886 317.75 203.223C317.971 203.561 318.082 203.97 318.082 204.452C318.082 205.26 317.747 205.915 317.078 206.419C316.408 206.917 315.531 207.166 314.446 207.166C313.71 207.166 313.055 207.033 312.479 206.768C311.903 206.502 311.455 206.137 311.134 205.672C310.813 205.207 310.653 204.706 310.653 204.169H312.612C312.639 204.645 312.819 205.013 313.151 205.273C313.483 205.528 313.923 205.655 314.471 205.655C315.002 205.655 315.406 205.556 315.683 205.356C315.96 205.152 316.098 204.886 316.098 204.56ZM325.212 207C325.124 206.828 325.046 206.549 324.98 206.162C324.338 206.831 323.552 207.166 322.623 207.166C321.721 207.166 320.985 206.909 320.415 206.394C319.845 205.879 319.56 205.243 319.56 204.485C319.56 203.528 319.914 202.794 320.622 202.285C321.336 201.771 322.354 201.513 323.677 201.513H324.914V200.924C324.914 200.459 324.784 200.088 324.523 199.812C324.263 199.529 323.868 199.388 323.336 199.388C322.877 199.388 322.501 199.504 322.208 199.737C321.914 199.964 321.768 200.254 321.768 200.608H319.75C319.75 200.116 319.914 199.657 320.24 199.23C320.567 198.799 321.009 198.461 321.568 198.218C322.133 197.974 322.761 197.853 323.453 197.853C324.504 197.853 325.342 198.118 325.968 198.649C326.593 199.175 326.914 199.917 326.931 200.874V204.925C326.931 205.733 327.044 206.377 327.271 206.859V207H325.212ZM322.996 205.547C323.395 205.547 323.768 205.451 324.117 205.257C324.471 205.063 324.736 204.803 324.914 204.477V202.783H323.826C323.079 202.783 322.517 202.913 322.141 203.173C321.765 203.433 321.577 203.801 321.577 204.277C321.577 204.665 321.704 204.975 321.958 205.207C322.219 205.434 322.564 205.547 322.996 205.547ZM328.69 202.443C328.69 201.048 329.017 199.936 329.67 199.106C330.328 198.27 331.2 197.853 332.285 197.853C333.308 197.853 334.114 198.209 334.7 198.923L334.792 198.019H336.609V206.726C336.609 207.905 336.241 208.834 335.505 209.515C334.775 210.196 333.787 210.536 332.542 210.536C331.883 210.536 331.239 210.398 330.608 210.121C329.983 209.85 329.507 209.493 329.18 209.05L330.135 207.838C330.755 208.574 331.518 208.942 332.426 208.942C333.095 208.942 333.624 208.76 334.011 208.395C334.399 208.035 334.592 207.504 334.592 206.801V206.195C334.011 206.842 333.236 207.166 332.268 207.166C331.217 207.166 330.356 206.748 329.687 205.913C329.022 205.077 328.69 203.92 328.69 202.443ZM330.699 202.617C330.699 203.519 330.882 204.23 331.247 204.75C331.618 205.265 332.13 205.522 332.783 205.522C333.596 205.522 334.199 205.174 334.592 204.477V200.525C334.21 199.845 333.613 199.504 332.799 199.504C332.135 199.504 331.618 199.767 331.247 200.293C330.882 200.819 330.699 201.593 330.699 202.617ZM342.644 207.166C341.366 207.166 340.328 206.765 339.531 205.962C338.74 205.154 338.344 204.081 338.344 202.742V202.493C338.344 201.596 338.516 200.797 338.859 200.094C339.208 199.385 339.694 198.835 340.32 198.442C340.945 198.049 341.642 197.853 342.412 197.853C343.635 197.853 344.578 198.243 345.242 199.023C345.912 199.803 346.247 200.907 346.247 202.335V203.148H340.378C340.439 203.89 340.685 204.477 341.117 204.908C341.554 205.34 342.102 205.556 342.76 205.556C343.684 205.556 344.437 205.182 345.018 204.435L346.105 205.473C345.746 206.009 345.264 206.427 344.661 206.726C344.063 207.019 343.391 207.166 342.644 207.166ZM342.403 199.471C341.85 199.471 341.402 199.665 341.059 200.052C340.721 200.44 340.505 200.979 340.411 201.671H344.254V201.521C344.21 200.846 344.03 200.337 343.715 199.994C343.399 199.646 342.962 199.471 342.403 199.471ZM239.449 225.166C238.17 225.166 237.133 224.765 236.336 223.962C235.545 223.154 235.149 222.081 235.149 220.742V220.493C235.149 219.596 235.32 218.797 235.664 218.094C236.012 217.385 236.499 216.835 237.125 216.442C237.75 216.049 238.447 215.853 239.216 215.853C240.439 215.853 241.383 216.243 242.047 217.023C242.716 217.803 243.051 218.907 243.051 220.335V221.148H237.183C237.243 221.89 237.49 222.477 237.921 222.908C238.359 223.34 238.906 223.556 239.565 223.556C240.489 223.556 241.242 223.182 241.823 222.435L242.91 223.473C242.55 224.009 242.069 224.427 241.466 224.726C240.868 225.019 240.196 225.166 239.449 225.166ZM239.208 217.471C238.655 217.471 238.206 217.665 237.863 218.052C237.526 218.44 237.31 218.979 237.216 219.671H241.059V219.521C241.015 218.846 240.835 218.337 240.52 217.994C240.204 217.646 239.767 217.471 239.208 217.471ZM246.496 216.019L246.554 217.056C247.218 216.254 248.09 215.853 249.169 215.853C251.039 215.853 251.991 216.923 252.024 219.065V225H250.007V219.181C250.007 218.611 249.883 218.191 249.634 217.919C249.39 217.643 248.989 217.504 248.43 217.504C247.617 217.504 247.011 217.872 246.612 218.608V225H244.595V216.019H246.496ZM266.186 220.601C266.186 221.99 265.87 223.099 265.239 223.929C264.608 224.754 263.762 225.166 262.699 225.166C261.714 225.166 260.926 224.842 260.333 224.195V228.453H258.316V216.019H260.176L260.259 216.932C260.851 216.212 261.656 215.853 262.674 215.853C263.77 215.853 264.628 216.262 265.248 217.081C265.873 217.895 266.186 219.026 266.186 220.476V220.601ZM264.177 220.426C264.177 219.53 263.997 218.819 263.637 218.293C263.283 217.767 262.774 217.504 262.11 217.504C261.285 217.504 260.693 217.845 260.333 218.525V222.51C260.699 223.207 261.296 223.556 262.126 223.556C262.768 223.556 263.269 223.298 263.629 222.784C263.994 222.264 264.177 221.478 264.177 220.426ZM272.602 217.861C272.336 217.817 272.062 217.795 271.78 217.795C270.856 217.795 270.234 218.149 269.913 218.857V225H267.896V216.019H269.821L269.871 217.023C270.358 216.243 271.033 215.853 271.896 215.853C272.184 215.853 272.422 215.891 272.61 215.969L272.602 217.861ZM273.2 220.426C273.2 219.546 273.374 218.755 273.723 218.052C274.071 217.344 274.561 216.802 275.192 216.425C275.823 216.043 276.548 215.853 277.367 215.853C278.579 215.853 279.561 216.243 280.313 217.023C281.072 217.803 281.481 218.838 281.542 220.127L281.55 220.601C281.55 221.486 281.379 222.277 281.036 222.975C280.698 223.672 280.211 224.211 279.575 224.593C278.944 224.975 278.213 225.166 277.383 225.166C276.116 225.166 275.101 224.745 274.337 223.904C273.579 223.058 273.2 221.931 273.2 220.526V220.426ZM275.217 220.601C275.217 221.525 275.408 222.25 275.79 222.775C276.171 223.296 276.703 223.556 277.383 223.556C278.064 223.556 278.592 223.29 278.969 222.759C279.351 222.228 279.542 221.45 279.542 220.426C279.542 219.519 279.345 218.799 278.952 218.268C278.565 217.737 278.036 217.471 277.367 217.471C276.708 217.471 276.185 217.734 275.798 218.26C275.41 218.78 275.217 219.56 275.217 220.601ZM283.966 225V217.513H282.596V216.019H283.966V215.197C283.966 214.201 284.243 213.431 284.796 212.889C285.349 212.347 286.124 212.076 287.12 212.076C287.474 212.076 287.851 212.125 288.249 212.225L288.199 213.802C287.978 213.758 287.721 213.736 287.427 213.736C286.464 213.736 285.983 214.231 285.983 215.222V216.019H287.809V217.513H285.983V225H283.966ZM288.905 220.426C288.905 219.546 289.079 218.755 289.428 218.052C289.776 217.344 290.266 216.802 290.897 216.425C291.528 216.043 292.253 215.853 293.072 215.853C294.284 215.853 295.266 216.243 296.019 217.023C296.777 217.803 297.186 218.838 297.247 220.127L297.255 220.601C297.255 221.486 297.084 222.277 296.741 222.975C296.403 223.672 295.916 224.211 295.28 224.593C294.649 224.975 293.918 225.166 293.088 225.166C291.821 225.166 290.806 224.745 290.042 223.904C289.284 223.058 288.905 221.931 288.905 220.526V220.426ZM290.922 220.601C290.922 221.525 291.113 222.25 291.495 222.775C291.876 223.296 292.408 223.556 293.088 223.556C293.769 223.556 294.298 223.29 294.674 222.759C295.056 222.228 295.247 221.45 295.247 220.426C295.247 219.519 295.05 218.799 294.657 218.268C294.27 217.737 293.741 217.471 293.072 217.471C292.413 217.471 291.89 217.734 291.503 218.26C291.116 218.78 290.922 219.56 290.922 220.601ZM300.833 216.019L300.891 217.056C301.555 216.254 302.427 215.853 303.506 215.853C305.376 215.853 306.328 216.923 306.361 219.065V225H304.344V219.181C304.344 218.611 304.22 218.191 303.971 217.919C303.727 217.643 303.326 217.504 302.767 217.504C301.954 217.504 301.348 217.872 300.949 218.608V225H298.932V216.019H300.833ZM308.046 220.443C308.046 219.059 308.367 217.95 309.009 217.114C309.651 216.273 310.512 215.853 311.591 215.853C312.543 215.853 313.312 216.185 313.898 216.849V212.25H315.916V225H314.089L313.99 224.07C313.387 224.801 312.581 225.166 311.574 225.166C310.523 225.166 309.671 224.743 309.018 223.896C308.37 223.049 308.046 221.898 308.046 220.443ZM310.063 220.617C310.063 221.53 310.238 222.244 310.586 222.759C310.941 223.268 311.441 223.522 312.089 223.522C312.913 223.522 313.517 223.154 313.898 222.418V218.583C313.528 217.864 312.93 217.504 312.105 217.504C311.452 217.504 310.949 217.764 310.595 218.285C310.241 218.799 310.063 219.577 310.063 220.617ZM321.975 225.166C320.697 225.166 319.659 224.765 318.862 223.962C318.071 223.154 317.675 222.081 317.675 220.742V220.493C317.675 219.596 317.847 218.797 318.19 218.094C318.539 217.385 319.026 216.835 319.651 216.442C320.276 216.049 320.973 215.853 321.743 215.853C322.966 215.853 323.909 216.243 324.573 217.023C325.243 217.803 325.578 218.907 325.578 220.335V221.148H319.709C319.77 221.89 320.016 222.477 320.448 222.908C320.885 223.34 321.433 223.556 322.091 223.556C323.015 223.556 323.768 223.182 324.349 222.435L325.437 223.473C325.077 224.009 324.595 224.427 323.992 224.726C323.395 225.019 322.722 225.166 321.975 225.166ZM321.734 217.471C321.181 217.471 320.733 217.665 320.39 218.052C320.052 218.44 319.836 218.979 319.742 219.671H323.585V219.521C323.541 218.846 323.361 218.337 323.046 217.994C322.73 217.646 322.293 217.471 321.734 217.471ZM332.592 224.12C332 224.817 331.159 225.166 330.068 225.166C329.094 225.166 328.356 224.881 327.852 224.311C327.354 223.741 327.105 222.917 327.105 221.837V216.019H329.122V221.812C329.122 222.952 329.595 223.522 330.542 223.522C331.521 223.522 332.182 223.171 332.525 222.468V216.019H334.542V225H332.642L332.592 224.12ZM341.299 217.861C341.034 217.817 340.76 217.795 340.478 217.795C339.553 217.795 338.931 218.149 338.61 218.857V225H336.593V216.019H338.519L338.568 217.023C339.055 216.243 339.73 215.853 340.594 215.853C340.882 215.853 341.119 215.891 341.308 215.969L341.299 217.861Z" fill="#00516B"/>
<path d="M41.7559 215.652H35.916V220.027H42.7422V222H33.4453V207.781H42.6738V209.773H35.916V213.699H41.7559V215.652ZM48.3184 214.91L50.3301 211.434H52.9668L49.7344 216.639L53.0742 222H50.457L48.3477 218.387L46.248 222H43.6113L46.9512 216.639L43.7285 211.434H46.3457L48.3184 214.91ZM63.8359 216.824C63.8359 218.458 63.4648 219.764 62.7227 220.74C61.9805 221.71 60.9844 222.195 59.7344 222.195C58.5755 222.195 57.6478 221.814 56.9512 221.053V226.062H54.5781V211.434H56.7656L56.8633 212.508C57.5599 211.661 58.5072 211.238 59.7051 211.238C60.9941 211.238 62.0033 211.72 62.7324 212.684C63.4681 213.641 63.8359 214.972 63.8359 216.678V216.824ZM61.4727 216.619C61.4727 215.564 61.2611 214.728 60.8379 214.109C60.4212 213.491 59.8223 213.182 59.041 213.182C58.071 213.182 57.3743 213.582 56.9512 214.383V219.07C57.3809 219.891 58.084 220.301 59.0605 220.301C59.8158 220.301 60.4049 219.998 60.8281 219.393C61.2578 218.781 61.4727 217.856 61.4727 216.619ZM68.377 222H66.0039V207H68.377V222ZM70.5254 216.619C70.5254 215.584 70.7305 214.653 71.1406 213.826C71.5508 212.993 72.127 212.355 72.8691 211.912C73.6113 211.463 74.4642 211.238 75.4277 211.238C76.8535 211.238 78.0091 211.697 78.8945 212.615C79.7865 213.533 80.2682 214.751 80.3398 216.268L80.3496 216.824C80.3496 217.866 80.1478 218.797 79.7441 219.617C79.347 220.438 78.7741 221.072 78.0254 221.521C77.2832 221.971 76.4238 222.195 75.4473 222.195C73.9564 222.195 72.7617 221.701 71.8633 220.711C70.9714 219.715 70.5254 218.39 70.5254 216.736V216.619ZM72.8984 216.824C72.8984 217.911 73.123 218.764 73.5723 219.383C74.0215 219.995 74.6465 220.301 75.4473 220.301C76.248 220.301 76.8698 219.988 77.3125 219.363C77.7617 218.738 77.9863 217.824 77.9863 216.619C77.9863 215.551 77.7552 214.705 77.293 214.08C76.8372 213.455 76.2155 213.143 75.4277 213.143C74.653 213.143 74.0378 213.452 73.582 214.07C73.1263 214.682 72.8984 215.6 72.8984 216.824ZM87.8887 213.602C87.5762 213.549 87.2539 213.523 86.9219 213.523C85.8346 213.523 85.1022 213.94 84.7246 214.773V222H82.3516V211.434H84.6172L84.6758 212.615C85.2487 211.697 86.043 211.238 87.0586 211.238C87.3971 211.238 87.6771 211.284 87.8984 211.375L87.8887 213.602ZM95.4082 222C95.304 221.798 95.2129 221.469 95.1348 221.014C94.3796 221.801 93.4551 222.195 92.3613 222.195C91.3001 222.195 90.4342 221.893 89.7637 221.287C89.0931 220.682 88.7578 219.933 88.7578 219.041C88.7578 217.915 89.1745 217.052 90.0078 216.453C90.8477 215.848 92.0456 215.545 93.6016 215.545H95.0566V214.852C95.0566 214.305 94.9036 213.868 94.5977 213.543C94.2917 213.211 93.8262 213.045 93.2012 213.045C92.6608 213.045 92.2181 213.182 91.873 213.455C91.528 213.722 91.3555 214.064 91.3555 214.48H88.9824C88.9824 213.901 89.1745 213.361 89.5586 212.859C89.9427 212.352 90.4635 211.954 91.1211 211.668C91.7852 211.382 92.5241 211.238 93.3379 211.238C94.5749 211.238 95.5612 211.551 96.2969 212.176C97.0326 212.794 97.4102 213.667 97.4297 214.793V219.559C97.4297 220.509 97.5632 221.268 97.8301 221.834V222H95.4082ZM92.8008 220.291C93.2695 220.291 93.709 220.177 94.1191 219.949C94.5358 219.721 94.8483 219.415 95.0566 219.031V217.039H93.7773C92.8984 217.039 92.2376 217.192 91.7949 217.498C91.3522 217.804 91.1309 218.237 91.1309 218.797C91.1309 219.253 91.2806 219.617 91.5801 219.891C91.8861 220.158 92.293 220.291 92.8008 220.291ZM102.889 208.865V211.434H104.754V213.191H102.889V219.09C102.889 219.493 102.967 219.786 103.123 219.969C103.286 220.145 103.572 220.232 103.982 220.232C104.256 220.232 104.533 220.2 104.812 220.135V221.971C104.272 222.12 103.751 222.195 103.25 222.195C101.427 222.195 100.516 221.189 100.516 219.178V213.191H98.7773V211.434H100.516V208.865H102.889ZM109.1 222H106.727V211.434H109.1V222ZM106.58 208.689C106.58 208.325 106.694 208.022 106.922 207.781C107.156 207.54 107.488 207.42 107.918 207.42C108.348 207.42 108.68 207.54 108.914 207.781C109.148 208.022 109.266 208.325 109.266 208.689C109.266 209.048 109.148 209.347 108.914 209.588C108.68 209.822 108.348 209.939 107.918 209.939C107.488 209.939 107.156 209.822 106.922 209.588C106.694 209.347 106.58 209.048 106.58 208.689ZM111.248 216.619C111.248 215.584 111.453 214.653 111.863 213.826C112.273 212.993 112.85 212.355 113.592 211.912C114.334 211.463 115.187 211.238 116.15 211.238C117.576 211.238 118.732 211.697 119.617 212.615C120.509 213.533 120.991 214.751 121.062 216.268L121.072 216.824C121.072 217.866 120.87 218.797 120.467 219.617C120.07 220.438 119.497 221.072 118.748 221.521C118.006 221.971 117.146 222.195 116.17 222.195C114.679 222.195 113.484 221.701 112.586 220.711C111.694 219.715 111.248 218.39 111.248 216.736V216.619ZM113.621 216.824C113.621 217.911 113.846 218.764 114.295 219.383C114.744 219.995 115.369 220.301 116.17 220.301C116.971 220.301 117.592 219.988 118.035 219.363C118.484 218.738 118.709 217.824 118.709 216.619C118.709 215.551 118.478 214.705 118.016 214.08C117.56 213.455 116.938 213.143 116.15 213.143C115.376 213.143 114.76 213.452 114.305 214.07C113.849 214.682 113.621 215.6 113.621 216.824ZM125.281 211.434L125.35 212.654C126.131 211.71 127.156 211.238 128.426 211.238C130.626 211.238 131.746 212.498 131.785 215.018V222H129.412V215.154C129.412 214.484 129.266 213.989 128.973 213.67C128.686 213.344 128.214 213.182 127.557 213.182C126.6 213.182 125.887 213.615 125.418 214.48V222H123.045V211.434H125.281ZM32.7715 237.639C32.7715 236.011 33.1491 234.706 33.9043 233.723C34.6595 232.733 35.6719 232.238 36.9414 232.238C38.0612 232.238 38.9661 232.629 39.6562 233.41V228H42.0293V243H39.8809L39.7637 241.906C39.054 242.766 38.1068 243.195 36.9219 243.195C35.6849 243.195 34.6823 242.697 33.9141 241.701C33.1523 240.705 32.7715 239.351 32.7715 237.639ZM35.1445 237.844C35.1445 238.918 35.3496 239.758 35.7598 240.363C36.1764 240.962 36.7656 241.262 37.5273 241.262C38.4974 241.262 39.207 240.829 39.6562 239.963V235.451C39.2201 234.605 38.5169 234.182 37.5469 234.182C36.7786 234.182 36.1862 234.488 35.7695 235.1C35.3529 235.705 35.1445 236.62 35.1445 237.844ZM49.1582 243.195C47.6543 243.195 46.4336 242.723 45.4961 241.779C44.5651 240.829 44.0996 239.566 44.0996 237.99V237.697C44.0996 236.643 44.3014 235.702 44.7051 234.875C45.1152 234.042 45.6882 233.394 46.4238 232.932C47.1595 232.469 47.9798 232.238 48.8848 232.238C50.3236 232.238 51.4336 232.697 52.2148 233.615C53.0026 234.533 53.3965 235.832 53.3965 237.512V238.469H46.4922C46.5638 239.341 46.8535 240.031 47.3613 240.539C47.8757 241.047 48.5202 241.301 49.2949 241.301C50.3822 241.301 51.2676 240.861 51.9512 239.982L53.2305 241.203C52.8073 241.835 52.2409 242.326 51.5312 242.678C50.8281 243.023 50.0371 243.195 49.1582 243.195ZM48.875 234.143C48.224 234.143 47.6966 234.37 47.293 234.826C46.8958 235.282 46.6419 235.917 46.5312 236.73H51.0527V236.555C51.0007 235.76 50.7891 235.161 50.418 234.758C50.0469 234.348 49.5326 234.143 48.875 234.143ZM59.7832 237.639C59.7832 236.011 60.1608 234.706 60.916 233.723C61.6712 232.733 62.6836 232.238 63.9531 232.238C65.0729 232.238 65.9779 232.629 66.668 233.41V228H69.041V243H66.8926L66.7754 241.906C66.0658 242.766 65.1185 243.195 63.9336 243.195C62.6966 243.195 61.694 242.697 60.9258 241.701C60.1641 240.705 59.7832 239.351 59.7832 237.639ZM62.1562 237.844C62.1562 238.918 62.3613 239.758 62.7715 240.363C63.1882 240.962 63.7773 241.262 64.5391 241.262C65.5091 241.262 66.2188 240.829 66.668 239.963V235.451C66.2318 234.605 65.5286 234.182 64.5586 234.182C63.7904 234.182 63.1979 234.488 62.7812 235.1C62.3646 235.705 62.1562 236.62 62.1562 237.844ZM71.0723 237.619C71.0723 236.584 71.2773 235.653 71.6875 234.826C72.0977 233.993 72.6738 233.355 73.416 232.912C74.1582 232.463 75.0111 232.238 75.9746 232.238C77.4004 232.238 78.556 232.697 79.4414 233.615C80.3333 234.533 80.8151 235.751 80.8867 237.268L80.8965 237.824C80.8965 238.866 80.6947 239.797 80.291 240.617C79.8939 241.438 79.321 242.072 78.5723 242.521C77.8301 242.971 76.9707 243.195 75.9941 243.195C74.5033 243.195 73.3086 242.701 72.4102 241.711C71.5182 240.715 71.0723 239.39 71.0723 237.736V237.619ZM73.4453 237.824C73.4453 238.911 73.6699 239.764 74.1191 240.383C74.5684 240.995 75.1934 241.301 75.9941 241.301C76.7949 241.301 77.4167 240.988 77.8594 240.363C78.3086 239.738 78.5332 238.824 78.5332 237.619C78.5332 236.551 78.3021 235.705 77.8398 235.08C77.3841 234.455 76.7624 234.143 75.9746 234.143C75.1999 234.143 74.5846 234.452 74.1289 235.07C73.6732 235.682 73.4453 236.6 73.4453 237.824ZM85.1055 232.434L85.1738 233.654C85.9551 232.71 86.9805 232.238 88.25 232.238C90.4505 232.238 91.5703 233.498 91.6094 236.018V243H89.2363V236.154C89.2363 235.484 89.0898 234.989 88.7969 234.67C88.5104 234.344 88.0384 234.182 87.3809 234.182C86.4238 234.182 85.7109 234.615 85.2422 235.48V243H82.8691V232.434H85.1055ZM96.2383 232.434L96.3066 233.654C97.0879 232.71 98.1133 232.238 99.3828 232.238C101.583 232.238 102.703 233.498 102.742 236.018V243H100.369V236.154C100.369 235.484 100.223 234.989 99.9297 234.67C99.6432 234.344 99.1712 234.182 98.5137 234.182C97.5566 234.182 96.8438 234.615 96.375 235.48V243H94.002V232.434H96.2383ZM109.822 243.195C108.318 243.195 107.098 242.723 106.16 241.779C105.229 240.829 104.764 239.566 104.764 237.99V237.697C104.764 236.643 104.965 235.702 105.369 234.875C105.779 234.042 106.352 233.394 107.088 232.932C107.824 232.469 108.644 232.238 109.549 232.238C110.988 232.238 112.098 232.697 112.879 233.615C113.667 234.533 114.061 235.832 114.061 237.512V238.469H107.156C107.228 239.341 107.518 240.031 108.025 240.539C108.54 241.047 109.184 241.301 109.959 241.301C111.046 241.301 111.932 240.861 112.615 239.982L113.895 241.203C113.471 241.835 112.905 242.326 112.195 242.678C111.492 243.023 110.701 243.195 109.822 243.195ZM109.539 234.143C108.888 234.143 108.361 234.37 107.957 234.826C107.56 235.282 107.306 235.917 107.195 236.73H111.717V236.555C111.665 235.76 111.453 235.161 111.082 234.758C110.711 234.348 110.197 234.143 109.539 234.143ZM110.076 228H112.781L110.076 230.959H108.172L110.076 228ZM120.564 243.195C119.061 243.195 117.84 242.723 116.902 241.779C115.971 240.829 115.506 239.566 115.506 237.99V237.697C115.506 236.643 115.708 235.702 116.111 234.875C116.521 234.042 117.094 233.394 117.83 232.932C118.566 232.469 119.386 232.238 120.291 232.238C121.73 232.238 122.84 232.697 123.621 233.615C124.409 234.533 124.803 235.832 124.803 237.512V238.469H117.898C117.97 239.341 118.26 240.031 118.768 240.539C119.282 241.047 119.926 241.301 120.701 241.301C121.788 241.301 122.674 240.861 123.357 239.982L124.637 241.203C124.214 241.835 123.647 242.326 122.938 242.678C122.234 243.023 121.443 243.195 120.564 243.195ZM120.281 234.143C119.63 234.143 119.103 234.37 118.699 234.826C118.302 235.282 118.048 235.917 117.938 236.73H122.459V236.555C122.407 235.76 122.195 235.161 121.824 234.758C121.453 234.348 120.939 234.143 120.281 234.143ZM132.576 240.129C132.576 239.706 132.4 239.383 132.049 239.162C131.704 238.941 131.128 238.745 130.32 238.576C129.513 238.407 128.839 238.192 128.299 237.932C127.114 237.359 126.521 236.529 126.521 235.441C126.521 234.53 126.906 233.768 127.674 233.156C128.442 232.544 129.419 232.238 130.604 232.238C131.867 232.238 132.885 232.551 133.66 233.176C134.441 233.801 134.832 234.611 134.832 235.607H132.459C132.459 235.152 132.29 234.774 131.951 234.475C131.613 234.169 131.163 234.016 130.604 234.016C130.083 234.016 129.656 234.136 129.324 234.377C128.999 234.618 128.836 234.94 128.836 235.344C128.836 235.708 128.989 235.992 129.295 236.193C129.601 236.395 130.219 236.6 131.15 236.809C132.081 237.01 132.811 237.255 133.338 237.541C133.872 237.821 134.266 238.16 134.52 238.557C134.78 238.954 134.91 239.436 134.91 240.002C134.91 240.952 134.516 241.724 133.729 242.316C132.941 242.902 131.909 243.195 130.633 243.195C129.767 243.195 128.995 243.039 128.318 242.727C127.641 242.414 127.114 241.984 126.736 241.438C126.359 240.891 126.17 240.301 126.17 239.67H128.475C128.507 240.23 128.719 240.663 129.109 240.969C129.5 241.268 130.018 241.418 130.662 241.418C131.287 241.418 131.762 241.301 132.088 241.066C132.413 240.826 132.576 240.513 132.576 240.129Z" fill="#00516B"/>
<path d="M135.958 357.738V326.024H146.503C150.017 326.024 152.763 326.75 154.737 328.202C156.713 329.64 157.701 331.796 157.701 334.671C157.701 336.109 157.287 337.394 156.459 338.527C155.631 339.659 154.484 340.501 153.017 341.053C154.905 341.474 156.357 342.382 157.374 343.776C158.391 345.17 158.899 346.789 158.899 348.634C158.899 351.61 157.926 353.876 155.98 355.429C154.033 356.969 151.346 357.738 147.919 357.738H135.958ZM141.252 343.318V353.513H147.919C149.749 353.513 151.157 353.098 152.145 352.271C153.133 351.429 153.626 350.216 153.626 348.634C153.626 346.949 153.213 345.642 152.385 344.712C151.557 343.783 150.264 343.318 148.507 343.318H141.252ZM141.252 339.376H147.091C148.732 339.376 150.025 338.991 150.969 338.222C151.927 337.438 152.407 336.334 152.407 334.911C152.407 333.343 151.905 332.181 150.903 331.426C149.901 330.656 148.434 330.271 146.503 330.271H141.252V339.376ZM169.509 357.738H164.215V334.17H169.509V357.738ZM169.509 328.398H164.215V323.758H169.509V328.398ZM174.498 346.281C174.498 342.534 175.319 339.507 176.96 337.198C178.601 334.889 180.881 333.735 183.801 333.735C185.21 333.735 186.444 334.04 187.505 334.65C188.58 335.245 189.487 336.109 190.228 337.242L190.751 334.17H195.152V357.738C195.152 360.773 194.215 363.118 192.341 364.774C190.468 366.429 187.81 367.257 184.367 367.257C183.22 367.257 181.978 367.09 180.642 366.756C179.32 366.437 178.122 366.008 177.047 365.471L178.18 361.31C179.051 361.76 180.01 362.109 181.056 362.356C182.116 362.618 183.205 362.748 184.324 362.748C186.241 362.748 187.643 362.334 188.529 361.507C189.415 360.693 189.858 359.437 189.858 357.738V355.321C189.117 356.265 188.239 356.983 187.222 357.477C186.219 357.956 185.064 358.196 183.758 358.196C180.867 358.196 178.601 357.143 176.96 355.037C175.319 352.932 174.498 350.165 174.498 346.738V346.281ZM179.792 346.738C179.792 348.902 180.221 350.637 181.078 351.944C181.949 353.237 183.292 353.883 185.108 353.883C186.241 353.883 187.193 353.65 187.962 353.186C188.747 352.706 189.379 352.024 189.858 351.138V340.814C189.364 339.957 188.725 339.289 187.941 338.81C187.171 338.316 186.241 338.069 185.152 338.069C183.337 338.069 181.986 338.832 181.099 340.356C180.228 341.881 179.792 343.856 179.792 346.281V346.738ZM212.516 357.738V326.024H222.799C226.822 326.024 230.091 327.28 232.603 329.792C235.13 332.304 236.394 335.535 236.394 339.485V344.299C236.394 348.263 235.13 351.494 232.603 353.992C230.091 356.489 226.822 357.738 222.799 357.738H212.516ZM217.81 330.271V353.513H222.646C225.276 353.513 227.338 352.656 228.834 350.942C230.344 349.229 231.1 347.014 231.1 344.299V339.441C231.1 336.755 230.344 334.555 228.834 332.841C227.338 331.128 225.276 330.271 222.646 330.271H217.81ZM255.348 357.738C255.16 357.143 255 356.562 254.869 355.996C254.753 355.429 254.673 354.863 254.629 354.297C253.903 355.4 252.944 356.33 251.754 357.085C250.577 357.825 249.255 358.196 247.788 358.196C245.333 358.196 243.446 357.564 242.124 356.301C240.816 355.037 240.163 353.302 240.163 351.095C240.163 348.815 241.063 347.043 242.864 345.78C244.665 344.502 247.2 343.863 250.468 343.863H254.586V341.794C254.586 340.56 254.223 339.594 253.496 338.897C252.77 338.2 251.732 337.852 250.381 337.852C249.175 337.852 248.217 338.142 247.505 338.723C246.794 339.304 246.438 340.051 246.438 340.966H241.34L241.318 340.835C241.216 338.977 242.044 337.329 243.801 335.891C245.573 334.453 247.876 333.735 250.708 333.735C253.453 333.735 255.668 334.432 257.353 335.826C259.038 337.22 259.88 339.224 259.88 341.837V352.314C259.88 353.287 259.945 354.224 260.076 355.124C260.207 356.01 260.417 356.881 260.707 357.738H255.348ZM248.856 353.948C250.192 353.948 251.39 353.614 252.451 352.946C253.525 352.278 254.237 351.516 254.586 350.659V347.174H250.381C248.841 347.174 247.636 347.559 246.764 348.329C245.893 349.084 245.457 349.977 245.457 351.007C245.457 351.908 245.748 352.627 246.328 353.164C246.924 353.687 247.766 353.948 248.856 353.948ZM272.015 328.442V334.17H276.242V338.091H272.015V351.117C272.015 352.09 272.226 352.787 272.647 353.208C273.068 353.614 273.627 353.818 274.325 353.818C274.615 353.818 274.898 353.795 275.174 353.752C275.45 353.694 275.712 353.621 275.958 353.535L276.525 357.412C276.075 357.659 275.537 357.847 274.912 357.978C274.288 358.123 273.642 358.196 272.974 358.196C271.027 358.196 269.502 357.629 268.399 356.497C267.294 355.35 266.743 353.556 266.743 351.117V338.091H263.148V334.17H266.743V328.442H272.015ZM295.13 357.738C294.942 357.143 294.782 356.562 294.651 355.996C294.535 355.429 294.455 354.863 294.411 354.297C293.685 355.4 292.727 356.33 291.536 357.085C290.36 357.825 289.038 358.196 287.571 358.196C285.116 358.196 283.228 357.564 281.906 356.301C280.599 355.037 279.945 353.302 279.945 351.095C279.945 348.815 280.846 347.043 282.647 345.78C284.448 344.502 286.982 343.863 290.25 343.863H294.368V341.794C294.368 340.56 294.005 339.594 293.279 338.897C292.553 338.2 291.514 337.852 290.163 337.852C288.958 337.852 287.999 338.142 287.288 338.723C286.576 339.304 286.22 340.051 286.22 340.966H281.122L281.1 340.835C280.998 338.977 281.826 337.329 283.584 335.891C285.356 334.453 287.658 333.735 290.49 333.735C293.235 333.735 295.45 334.432 297.135 335.826C298.82 337.22 299.662 339.224 299.662 341.837V352.314C299.662 353.287 299.727 354.224 299.858 355.124C299.989 356.01 300.2 356.881 300.49 357.738H295.13ZM288.638 353.948C289.974 353.948 291.173 353.614 292.233 352.946C293.308 352.278 294.019 351.516 294.368 350.659V347.174H290.163C288.624 347.174 287.418 347.559 286.547 348.329C285.675 349.084 285.24 349.977 285.24 351.007C285.24 351.908 285.53 352.627 286.111 353.164C286.706 353.687 287.549 353.948 288.638 353.948Z" fill="#00516B"/>
</svg>
