<svg width="313" height="345" viewBox="0 0 313 345" fill="none" xmlns="http://www.w3.org/2000/svg">
<g clip-path="url(#clip0)">
<path opacity="0.5" d="M307.416 218.235L266.564 194.706L225.713 218.235L266.564 241.765L307.416 218.235Z" fill="#46EDB9"/>
<path d="M278.32 186.765V40L313 20V166.765L278.32 186.765Z" fill="url(#paint0_linear)"/>
<path d="M278.32 40L243.64 20V166.765L278.32 186.765V40Z" fill="#B45EF4"/>
<path d="M313 20L278.32 0L243.64 20L278.32 40L313 20Z" fill="#8A2AE3"/>
<path d="M313 193.529L278.32 173.529V186.765L313 206.765V193.529Z" fill="#95D359"/>
<path d="M243.64 206.765V100L278.32 80V186.765L243.64 206.765Z" fill="#C13D1A"/>
<path d="M243.64 100L209.254 80V186.765L243.64 206.765V100Z" fill="#DB5126"/>
<path d="M278.32 80L243.64 60L209.254 80L243.64 100L278.32 80Z" fill="#EF602E"/>
<path d="M243.64 206.765V100L278.32 80V186.765L243.64 206.765Z" fill="#D3008D"/>
<path d="M243.64 100L209.254 80V186.765L243.64 206.765V100Z" fill="url(#paint1_linear)"/>
<path d="M278.32 80L243.64 60L209.254 80L243.64 100L278.32 80Z" fill="#FF2C9C"/>
<path d="M278.32 226.765V166.765L313 146.765V206.765L278.32 226.765Z" fill="url(#paint2_linear)"/>
<path d="M278.32 166.765L243.64 146.765V206.765L278.32 226.765V166.765Z" fill="#F9BF30"/>
<path d="M313 146.765L278.32 126.765L243.64 146.765L278.32 166.765L313 146.765Z" fill="#FDD762"/>
<path opacity="0.5" d="M77.8829 343.824L19.3974 310C15.8707 307.941 16.1646 304.412 20.2791 301.765L76.7073 269.118C80.8218 266.765 86.9937 266.471 90.8143 268.53L149.3 302.353C152.827 304.412 152.533 307.941 148.418 310.588L91.9899 343.235C87.8753 345.588 81.7035 345.882 77.8829 343.824Z" fill="#46EDB9"/>
<path d="M168.991 276.47V251.176H112.269L92.5777 239.706C88.1693 237.059 80.234 237.353 74.9439 240.294L56.7223 250.882L0.000244141 251.176V277.059C0.000244141 278.823 0.881934 280.588 2.93921 281.765L76.4134 324.412C80.8218 327.059 88.757 326.765 94.0472 323.823L164.582 282.647C167.521 280.882 168.991 278.823 168.991 276.47Z" fill="white"/>
<path d="M84.3486 238.235C81.1157 238.235 77.589 239.118 74.9439 240.588L56.7223 251.176H0.000244141V277.059C0.000244141 278.823 0.881934 280.588 2.93921 281.765L76.4134 324.412C78.4707 325.588 81.4096 326.176 84.6425 326.176V238.235H84.3486Z" fill="white"/>
<path d="M6.46597 251.177H0.000244141V277.059C0.000244141 278.824 0.881934 280.588 2.93921 281.765L6.46597 283.824V251.177Z" fill="#3CD6A6"/>
<path d="M77.5889 324.706C81.4095 326.471 86.9936 326.176 91.6959 324.412V295H77.5889V324.706Z" fill="#3CD6A6"/>
<path d="M76.4133 298.235L2.93914 255.882C-1.46931 253.235 -0.881515 248.823 4.11473 245.882L74.9438 205C80.234 202.059 87.8753 201.765 92.5776 204.412L165.758 246.765C170.166 249.412 169.579 253.823 164.582 256.765L93.7532 297.647C88.757 300.588 80.8218 300.882 76.4133 298.235Z" fill="#46EDB9"/>
<path d="M77.589 290.588L16.1646 255.294C12.3439 253.235 12.9317 249.412 17.3401 246.765L76.7073 212.353C81.1157 209.706 87.5815 209.706 91.4021 211.765L152.827 247.353C156.647 249.412 156.059 253.235 151.651 255.882L92.2838 290C87.8753 292.647 81.4096 292.941 77.589 290.588Z" fill="#3CD6A6"/>
<path d="M141.952 283.235C141.952 285 140.483 287.353 139.013 288.235C137.25 289.117 136.074 288.529 136.074 286.47C136.074 284.706 137.544 282.353 139.013 281.47C140.777 280.588 141.952 281.47 141.952 283.235Z" fill="#46EDB9"/>
<path d="M151.357 277.647C151.357 279.412 149.887 281.764 148.418 282.647C146.655 283.529 145.479 282.941 145.479 280.882C145.479 279.117 146.948 276.765 148.418 275.882C150.181 275 151.357 275.882 151.357 277.647Z" fill="#46EDB9"/>
<path d="M161.056 272.353C161.056 274.118 159.586 276.47 158.117 277.353C156.353 278.235 155.178 277.647 155.178 275.588C155.178 273.823 156.647 271.47 158.117 270.588C159.586 269.706 161.056 270.294 161.056 272.353Z" fill="#46EDB9"/>
<path d="M168.991 236.176V210.882H112.269L92.5777 199.412C88.1693 196.765 80.234 197.059 74.9439 200L56.7223 210.588L0.000244141 210.882V236.764C0.000244141 238.529 0.881934 240.294 2.93921 241.47L76.4134 283.823C80.8218 286.47 88.757 286.176 94.0472 283.235L164.582 242.353C167.521 240.588 168.991 238.235 168.991 236.176Z" fill="white"/>
<path d="M84.3486 197.647C81.1157 197.647 77.589 198.529 74.9439 200L56.7223 210.588L0.000244141 210.882V236.765C0.000244141 238.529 0.881934 240.294 2.93921 241.47L76.4134 283.823C78.4707 285 81.4096 285.588 84.6425 285.588V197.647H84.3486Z" fill="white"/>
<path d="M6.46597 210.882H0.000244141V236.765C0.000244141 238.529 0.881934 240.294 2.93921 241.47L6.46597 243.529V210.882Z" fill="#3CD6A6"/>
<path d="M77.5889 284.412C81.4095 286.176 86.9936 285.882 91.6959 284.118V254.706H77.5889V284.412Z" fill="#3CD6A6"/>
<path d="M76.4133 257.941L2.93914 215.588C-1.46931 212.941 -0.881515 208.529 4.11473 205.588L74.9438 164.706C80.234 161.765 87.8753 161.47 92.5776 164.117L165.758 206.47C170.166 209.117 169.579 213.529 164.582 216.47L93.7532 257.059C88.757 260.294 80.8218 260.588 76.4133 257.941Z" fill="#46EDB9"/>
<path d="M77.589 250.294L16.1646 214.706C12.3439 212.647 12.9317 208.823 17.3401 206.176L76.7073 171.764C81.1157 169.117 87.5815 169.117 91.4021 171.176L152.827 206.764C156.647 208.823 156.059 212.647 151.651 215.294L92.2838 249.706C87.8753 252.059 81.4096 252.353 77.589 250.294Z" fill="#3CD6A6"/>
<path d="M141.952 242.941C141.952 244.706 140.483 247.059 139.013 247.941C137.25 248.823 136.074 248.235 136.074 246.176C136.074 244.412 137.544 242.059 139.013 241.176C140.777 240.294 141.952 240.882 141.952 242.941Z" fill="#46EDB9"/>
<path d="M151.357 237.353C151.357 239.117 149.887 241.47 148.418 242.353C146.655 243.235 145.479 242.647 145.479 240.588C145.479 238.823 146.948 236.47 148.418 235.588C150.181 234.706 151.357 235.588 151.357 237.353Z" fill="#46EDB9"/>
<path d="M161.056 231.765C161.056 233.529 159.586 235.882 158.117 236.765C156.353 237.647 155.178 237.059 155.178 235C155.178 233.235 156.647 230.882 158.117 230C159.586 229.117 161.056 230 161.056 231.765Z" fill="#46EDB9"/>
<path d="M168.991 195.588V170.294H112.269L92.5777 158.823C88.1693 156.176 80.234 156.47 74.9439 159.412L56.7223 170L0.000244141 170.294V196.176C0.000244141 197.941 0.881934 199.706 2.93921 200.882L76.4134 243.529C80.8218 246.176 88.757 245.882 94.0472 242.941L164.582 201.765C167.521 200 168.991 197.941 168.991 195.588Z" fill="white"/>
<path d="M84.3486 157.353C81.1157 157.353 77.589 158.235 74.9439 159.706L56.7223 170.294H0.000244141V196.176C0.000244141 197.941 0.881934 199.706 2.93921 200.882L76.4134 243.529C78.4707 244.706 81.4096 245.294 84.6425 245.294V157.353H84.3486Z" fill="white"/>
<path d="M6.46597 170.294H0.000244141V196.176C0.000244141 197.941 0.881934 199.706 2.93921 200.882L6.46597 202.941V170.294Z" fill="#3CD6A6"/>
<path d="M77.5889 243.824C81.4095 245.588 86.9936 245.294 91.6959 243.529V214.118H77.5889V243.824Z" fill="#3CD6A6"/>
<path d="M76.4133 217.353L2.93914 175C-1.46931 172.353 -0.881515 167.941 4.11473 165L74.9438 124.118C80.234 121.176 87.8753 120.882 92.5776 123.529L165.758 165.882C170.166 168.529 169.579 172.941 164.582 175.882L93.7532 216.765C88.757 219.706 80.8218 220 76.4133 217.353Z" fill="#46EDB9"/>
<path d="M77.589 209.706L16.1646 174.412C12.3439 172.353 12.9317 168.529 17.3401 165.882L76.7073 131.471C81.1157 128.824 87.5815 128.824 91.4021 130.882L152.827 166.471C156.647 168.529 156.059 172.353 151.651 175L92.2838 209.118C87.8753 211.765 81.4096 212.059 77.589 209.706Z" fill="#3CD6A6"/>
<path d="M141.952 202.353C141.952 204.118 140.483 206.47 139.013 207.353C137.25 208.235 136.074 207.647 136.074 205.588C136.074 203.823 137.544 201.47 139.013 200.588C140.777 199.706 141.952 200.588 141.952 202.353Z" fill="#46EDB9"/>
<path d="M151.357 196.765C151.357 198.529 149.887 200.882 148.418 201.765C146.655 202.647 145.479 202.059 145.479 200C145.479 198.235 146.948 195.882 148.418 195C150.181 194.117 151.357 195 151.357 196.765Z" fill="#46EDB9"/>
<path d="M161.056 191.47C161.056 193.235 159.586 195.588 158.117 196.471C156.353 197.353 155.178 196.765 155.178 194.706C155.178 192.941 156.647 190.588 158.117 189.706C159.586 188.823 161.056 189.412 161.056 191.47Z" fill="#46EDB9"/>
<path d="M168.991 155.294V130H112.269L92.5777 118.529C88.1693 115.882 80.234 116.176 74.9439 119.118L56.7223 129.706L0.000244141 130V155.882C0.000244141 157.647 0.881934 159.412 2.93921 160.588L76.4134 202.941C80.8218 205.588 88.757 205.294 94.0472 202.353L164.582 161.471C167.521 159.706 168.991 157.353 168.991 155.294Z" fill="white"/>
<path d="M84.3486 116.765C81.1157 116.765 77.589 117.647 74.9439 119.118L56.7223 129.706L0.000244141 130V155.882C0.000244141 157.647 0.881934 159.412 2.93921 160.588L76.4134 202.941C78.4707 204.118 81.4096 204.706 84.6425 204.706V116.765H84.3486Z" fill="white"/>
<path d="M6.46597 130H0.000244141V155.882C0.000244141 157.647 0.881934 159.412 2.93921 160.588L6.46597 162.647V130Z" fill="#3CD6A6"/>
<path d="M77.5889 203.529C81.4095 205.294 86.9936 205 91.6959 203.235V173.823H77.5889V203.529Z" fill="#3CD6A6"/>
<path d="M76.4133 177.059L2.93914 134.706C-1.46931 132.059 -0.881515 127.647 4.11473 124.706L74.9438 83.8234C80.234 80.8822 87.8753 80.5881 92.5776 83.2352L165.758 125.588C170.46 127.941 169.872 132.353 164.582 135.294L93.7532 176.176C88.757 179.412 80.8218 179.706 76.4133 177.059Z" fill="#46EDB9"/>
<path d="M77.589 169.412L16.1646 133.824C12.3439 131.765 12.9317 127.941 17.3401 125.294L76.7073 91.1765C81.1157 88.5294 87.5815 88.5294 91.4021 90.5882L152.827 125.882C156.647 127.941 156.059 131.765 151.651 134.412L92.2838 168.824C87.8753 171.176 81.4096 171.471 77.589 169.412Z" fill="#3CD6A6"/>
<path d="M141.952 162.059C141.952 163.824 140.483 166.177 139.013 167.059C137.25 167.941 136.074 167.353 136.074 165.294C136.074 163.529 137.544 161.177 139.013 160.294C140.777 159.412 141.952 160 141.952 162.059Z" fill="#46EDB9"/>
<path d="M151.357 156.471C151.357 158.235 149.887 160.588 148.418 161.471C146.655 162.353 145.479 161.765 145.479 159.706C145.479 157.941 146.948 155.588 148.418 154.706C150.181 153.824 151.357 154.706 151.357 156.471Z" fill="#46EDB9"/>
<path d="M161.056 150.882C161.056 152.647 159.586 155 158.117 155.882C156.353 156.765 155.178 156.176 155.178 154.118C155.178 152.353 156.647 150 158.117 149.118C159.586 148.235 161.056 149.118 161.056 150.882Z" fill="#46EDB9"/>
<path d="M168.991 114.706V89.4118H112.269L92.5777 77.9412C88.1693 75.2942 80.234 75.5883 74.9439 78.5295L56.7223 89.1177L0.000244141 89.4118V115.294C0.000244141 117.059 0.881934 118.824 2.93921 120L76.4134 162.647C80.8218 165.294 88.757 165 94.0472 162.059L164.582 120.882C167.521 119.118 168.991 117.059 168.991 114.706Z" fill="white"/>
<path d="M84.3486 76.4706C81.1157 76.4706 77.589 77.3529 74.9439 78.8235L56.7223 89.4118H0.000244141V115.294C0.000244141 117.059 0.881934 118.824 2.93921 120L76.4134 162.647C78.4707 163.824 81.4096 164.412 84.6425 164.412V76.4706H84.3486Z" fill="white"/>
<path d="M6.46597 89.4117H0.000244141V115.294C0.000244141 117.059 0.881934 118.824 2.93921 120L6.46597 122.059V89.4117Z" fill="#3CD6A6"/>
<path d="M77.5889 162.941C81.4095 164.706 86.9936 164.412 91.6959 162.647V133.235H77.5889V162.941Z" fill="#3CD6A6"/>
<path d="M76.4133 136.471L2.93914 94.1176C-1.46931 91.4706 -0.881515 87.0588 4.11473 84.1176L74.9438 43.2353C80.234 40.2941 87.8753 40 92.5776 42.647L165.758 85C170.166 87.647 169.579 92.0588 164.582 95L93.7532 135.882C88.757 138.824 80.8218 139.118 76.4133 136.471Z" fill="#46EDB9"/>
<path d="M77.589 128.824L16.1646 93.5295C12.3439 91.4707 12.9317 87.6471 17.3401 85.0001L76.7073 50.5883C81.1157 47.9413 87.5815 47.9413 91.4021 50.0001L152.827 85.5883C156.647 87.6471 156.059 91.4707 151.651 94.1177L92.2838 128.235C87.8753 130.882 81.4096 131.177 77.589 128.824Z" fill="#3CD6A6"/>
<path d="M139.083 122.971L109.563 140.037L110.151 141.056L139.671 123.99L139.083 122.971Z" fill="white"/>
<path d="M141.952 121.47C141.952 123.235 140.483 125.588 139.013 126.47C137.25 127.353 136.074 126.765 136.074 124.706C136.074 122.647 137.544 120.588 139.013 119.706C140.777 118.823 141.952 119.706 141.952 121.47Z" fill="#46EDB9"/>
<path d="M151.357 115.882C151.357 117.647 149.887 120 148.418 120.882C146.655 121.765 145.479 121.176 145.479 119.118C145.479 117.353 146.948 115 148.418 114.118C150.181 113.235 151.357 114.118 151.357 115.882Z" fill="#46EDB9"/>
<path d="M161.055 110.588C161.055 112.353 159.586 114.706 158.116 115.588C156.353 116.471 155.177 115.882 155.177 113.823C155.177 111.765 156.647 109.706 158.116 108.823C159.586 107.941 161.055 108.529 161.055 110.588Z" fill="#46EDB9"/>
<path d="M168.991 74.1176V48.8234H112.269L92.5775 37.3528C88.169 34.7058 80.2338 34.9999 74.9437 37.9411L56.7221 48.5293L0 48.8234V74.7058C0 76.4705 0.88169 78.2352 2.93897 79.4117L76.4131 121.765C80.8216 124.412 88.7568 124.118 94.0469 121.176L164.582 80.294C167.521 78.5293 168.991 76.1764 168.991 74.1176Z" fill="white"/>
<path d="M84.3484 35.5883C81.1155 35.5883 77.5887 36.4706 74.9437 37.9412L56.7221 48.5294L0 48.8235V74.7059C0 76.4706 0.88169 78.2353 2.93897 79.4118L76.4131 121.765C78.4704 122.941 81.4094 123.529 84.6423 123.529V35.5883H84.3484Z" fill="white"/>
<path d="M6.46573 48.8235H0V74.7058C0 76.4705 0.88169 78.2352 2.93897 79.4117L6.46573 81.4705V48.8235Z" fill="#3CD6A6"/>
<path d="M77.5889 122.353C81.4095 124.118 86.9936 123.824 91.6959 122.059V92.6471H77.5889V122.353Z" fill="#3CD6A6"/>
<path d="M76.4136 95.8828L2.93939 53.5299C-1.46906 50.8828 -0.881271 46.4711 4.11497 43.5299L74.9441 2.35343C80.2342 -0.587744 87.8755 -0.881861 92.5779 1.7652L165.758 44.1181C170.167 46.7652 169.579 51.177 164.583 54.1181L93.7535 95.0005C88.7572 98.2358 80.822 98.5299 76.4136 95.8828Z" fill="#46EDB9"/>
<path d="M164.582 49.1176L93.7532 90.2941C88.4631 93.2353 80.8218 93.5294 76.1194 90.8823L2.93913 48.5294C2.05744 47.9411 1.17575 47.3529 0.587956 46.4706C-0.881528 49.1176 0.00016208 51.7647 2.93913 53.5294L76.4133 95.8823C80.8218 98.5294 88.757 98.2353 94.0471 95.2941L164.582 54.1176C168.697 51.7647 169.872 48.5294 168.109 45.8823C167.521 47.3529 166.346 48.2353 164.582 49.1176Z" fill="white"/>
<path d="M141.952 80.8823C141.952 82.6471 140.483 85 139.013 85.8823C137.25 86.7647 136.074 86.1765 136.074 84.1176C136.074 82.3529 137.544 80 139.013 79.1176C140.777 78.2353 141.952 78.8235 141.952 80.8823Z" fill="#46EDB9"/>
<path d="M112.856 96.7645C112.856 98.5292 111.387 100.882 109.917 101.765C108.154 102.647 106.979 102.059 106.979 99.9998C106.979 98.2351 108.448 95.8822 109.917 94.9998C111.387 94.1175 112.856 94.9998 112.856 96.7645Z" fill="#46EDB9"/>
<path d="M112.856 138.824C112.856 140.588 111.387 142.941 109.917 143.824C108.154 144.706 106.979 144.118 106.979 142.059C106.979 140 108.448 137.941 109.917 137.059C111.387 136.176 112.856 137.059 112.856 138.824Z" fill="white"/>
<path d="M151.357 75.2941C151.357 77.0588 149.887 79.4117 148.418 80.2941C146.655 81.1764 145.479 80.5882 145.479 78.5294C145.479 76.7647 146.948 74.4117 148.418 73.5294C150.181 72.647 151.357 73.5294 151.357 75.2941Z" fill="#46EDB9"/>
<path d="M161.055 69.7058C161.055 71.4705 159.586 73.8235 158.116 74.7058C156.353 75.5882 155.177 74.9999 155.177 72.9411C155.177 71.1764 156.647 68.8235 158.116 67.9411C159.586 67.0588 161.055 67.9411 161.055 69.7058Z" fill="#46EDB9"/>
<path d="M80.5278 69.7049L46.1419 49.999C44.0846 48.8225 44.3785 46.7637 46.7297 45.2931L79.94 26.1755C82.2912 24.7049 86.1118 24.7049 88.1691 25.8814L122.555 45.5873C124.612 46.7637 124.318 48.8225 121.967 50.2931L88.7569 69.4108C86.4057 70.5872 82.879 70.8814 80.5278 69.7049Z" fill="#3CD6A6"/>
<path d="M84.0546 52.9411L79.3523 50.294C79.0584 49.9999 79.0584 49.7058 79.3523 49.7058L84.0546 47.0587C84.3485 46.7646 84.9363 46.7646 85.2302 47.0587L89.9325 49.7058C90.2264 49.9999 90.2264 50.294 89.9325 50.294L84.9363 52.9411C84.6424 53.2352 84.3485 53.2352 84.0546 52.9411Z" fill="#46EDB9"/>
<path d="M46.4351 49.7058C46.729 49.7058 46.729 49.4117 47.0229 49.4117L80.2332 30.294C82.5844 28.8235 86.4051 28.8235 88.4624 29.9999L122.554 49.7058C124.612 48.2352 124.612 46.4705 122.554 45.294L88.1685 25.5882C86.1112 24.4117 82.2905 24.4117 79.9394 25.8823L47.0229 44.9999C44.3779 46.4705 44.3779 48.5293 46.4351 49.7058Z" fill="white"/>
<path d="M73.4745 101.765C73.4745 103.823 72.005 104.706 70.2417 103.529C68.4783 102.647 67.0088 100 67.0088 98.2353C67.0088 96.1764 68.4783 95.2941 70.2417 96.4705C72.005 97.3529 73.4745 100 73.4745 101.765Z" fill="#46EDB9"/>
<path d="M63.7758 96.1764C63.7758 98.2352 62.3063 99.1176 60.5429 97.9411C58.7795 97.0588 57.3101 94.4117 57.3101 92.647C57.3101 90.5882 58.7795 89.7058 60.5429 90.8823C62.3063 91.7646 63.7758 94.4117 63.7758 96.1764Z" fill="#3CD6A6"/>
<path d="M73.4745 113.529C73.4745 115.588 72.005 116.471 70.2417 115.294C68.4783 114.412 67.0088 111.765 67.0088 110C67.0088 107.941 68.4783 107.059 70.2417 108.235C72.005 109.118 73.4745 111.471 73.4745 113.529Z" fill="#46EDB9"/>
<path d="M63.7758 107.941C63.7758 110 62.3063 110.882 60.5429 109.706C58.7795 108.823 57.3101 106.176 57.3101 104.412C57.3101 102.647 58.7795 101.471 60.5429 102.647C62.3063 103.529 63.7758 105.882 63.7758 107.941Z" fill="#46EDB9"/>
<path d="M73.4745 142.059C73.4745 144.118 72.005 145 70.2417 143.823C68.4783 142.941 67.0088 140.294 67.0088 138.529C67.0088 136.765 68.4783 135.588 70.2417 136.765C72.005 137.647 73.4745 140 73.4745 142.059Z" fill="#46EDB9"/>
<path d="M63.7758 136.47C63.7758 138.529 62.3063 139.412 60.5429 138.235C58.7795 137.353 57.3101 134.706 57.3101 132.941C57.3101 130.882 58.7795 130 60.5429 131.176C62.3063 132.059 63.7758 134.412 63.7758 136.47Z" fill="#46EDB9"/>
<path d="M73.4745 153.824C73.4745 155.882 72.005 156.765 70.2417 155.588C68.4783 154.706 67.0088 152.059 67.0088 150.294C67.0088 148.235 68.4783 147.353 70.2417 148.529C72.005 149.412 73.4745 151.765 73.4745 153.824Z" fill="#3CD6A6"/>
<path d="M63.7758 148.235C63.7758 150.294 62.3063 151.176 60.5429 150C58.7795 149.118 57.3101 146.471 57.3101 144.706C57.3101 142.941 58.7795 141.765 60.5429 142.941C62.3063 143.823 63.7758 146.176 63.7758 148.235Z" fill="#46EDB9"/>
<path d="M73.4745 182.353C73.4745 184.412 72.005 185.294 70.2417 184.118C68.4783 183.235 67.0088 180.588 67.0088 178.824C67.0088 176.765 68.4783 175.882 70.2417 177.059C72.005 177.941 73.4745 180.294 73.4745 182.353Z" fill="#46EDB9"/>
<path d="M63.7758 176.765C63.7758 178.823 62.3063 179.706 60.5429 178.529C58.7795 177.647 57.3101 175 57.3101 173.235C57.3101 171.176 58.7795 170.294 60.5429 171.471C62.3063 172.353 63.7758 174.706 63.7758 176.765Z" fill="#3CD6A6"/>
<path d="M73.4745 193.823C73.4745 195.882 72.005 196.765 70.2417 195.588C68.4783 194.706 67.0088 192.059 67.0088 190.294C67.0088 188.235 68.4783 187.353 70.2417 188.529C72.005 189.412 73.4745 192.059 73.4745 193.823Z" fill="#46EDB9"/>
<path d="M63.7758 188.529C63.7758 190.588 62.3063 191.471 60.5429 190.294C58.7795 189.412 57.3101 186.765 57.3101 185C57.3101 183.235 58.7795 182.059 60.5429 183.235C62.3063 184.118 63.7758 186.471 63.7758 188.529Z" fill="#3CD6A6"/>
<path d="M73.4745 222.941C73.4745 225 72.005 225.882 70.2417 224.706C68.4783 223.823 67.0088 221.176 67.0088 219.412C67.0088 217.353 68.4783 216.47 70.2417 217.647C72.005 218.529 73.4745 220.882 73.4745 222.941Z" fill="#3CD6A6"/>
<path d="M63.7758 217.353C63.7758 219.412 62.3063 220.294 60.5429 219.117C58.7795 218.235 57.3101 215.588 57.3101 213.823C57.3101 211.765 58.7795 210.882 60.5429 212.059C62.3063 212.941 63.7758 215.294 63.7758 217.353Z" fill="#46EDB9"/>
<path d="M73.4745 234.412C73.4745 236.47 72.005 237.353 70.2417 236.176C68.4783 235.294 67.0088 232.647 67.0088 230.882C67.0088 228.823 68.4783 227.941 70.2417 229.118C72.005 230 73.4745 232.647 73.4745 234.412Z" fill="#46EDB9"/>
<path d="M63.7758 229.117C63.7758 231.176 62.3063 232.059 60.5429 230.882C58.7795 230 57.3101 227.353 57.3101 225.588C57.3101 223.529 58.7795 222.647 60.5429 223.823C62.3063 224.706 63.7758 227.059 63.7758 229.117Z" fill="#3CD6A6"/>
<path d="M73.4745 263.235C73.4745 265.294 72.005 266.176 70.2417 265C68.4783 264.118 67.0088 261.471 67.0088 259.706C67.0088 257.647 68.4783 256.765 70.2417 257.941C72.005 258.823 73.4745 261.176 73.4745 263.235Z" fill="#3CD6A6"/>
<path d="M63.7758 257.647C63.7758 259.706 62.3063 260.588 60.5429 259.412C58.7795 258.529 57.3101 255.882 57.3101 254.118C57.3101 252.059 58.7795 251.176 60.5429 252.353C62.3063 253.235 63.7758 255.588 63.7758 257.647Z" fill="#46EDB9"/>
<path d="M73.4745 274.706C73.4745 276.765 72.005 277.647 70.2417 276.471C68.4783 275.588 67.0088 272.941 67.0088 271.176C67.0088 269.118 68.4783 268.235 70.2417 269.412C72.005 270.294 73.4745 272.647 73.4745 274.706Z" fill="#3CD6A6"/>
<path d="M63.7758 269.118C63.7758 271.177 62.3063 272.059 60.5429 270.882C58.7795 270 57.3101 267.353 57.3101 265.588C57.3101 263.529 58.7795 262.647 60.5429 263.824C62.3063 264.706 63.7758 267.353 63.7758 269.118Z" fill="#46EDB9"/>
<path d="M73.4745 303.823C73.4745 305.882 72.005 306.765 70.2417 305.588C68.4783 304.706 67.0088 302.059 67.0088 300.294C67.0088 298.235 68.4783 297.353 70.2417 298.529C72.005 299.412 73.4745 301.765 73.4745 303.823Z" fill="#46EDB9"/>
<path d="M63.7758 298.235C63.7758 300.294 62.3063 301.176 60.5429 300C58.7795 299.117 57.3101 296.47 57.3101 294.706C57.3101 292.647 58.7795 291.765 60.5429 292.941C62.3063 293.823 63.7758 296.176 63.7758 298.235Z" fill="#3CD6A6"/>
<path d="M73.4745 315.588C73.4745 317.647 72.005 318.529 70.2417 317.353C68.4783 316.471 67.0088 313.823 67.0088 312.059C67.0088 310 68.4783 309.118 70.2417 310.294C72.005 311.176 73.4745 313.529 73.4745 315.588Z" fill="#46EDB9"/>
<path d="M63.7758 310C63.7758 312.059 62.3063 312.941 60.5429 311.764C58.7795 310.882 57.3101 308.235 57.3101 306.47C57.3101 304.412 58.7795 303.529 60.5429 304.706C62.3063 305.588 63.7758 307.941 63.7758 310Z" fill="#46EDB9"/>
</g>
<defs>
<linearGradient id="paint0_linear" x1="295.66" y1="20" x2="295.66" y2="186.765" gradientUnits="userSpaceOnUse">
<stop stop-color="#721BD5"/>
<stop offset="1" stop-color="#721BD5" stop-opacity="0"/>
</linearGradient>
<linearGradient id="paint1_linear" x1="226.447" y1="80" x2="226.447" y2="206.765" gradientUnits="userSpaceOnUse">
<stop stop-color="#D3008D"/>
<stop offset="1" stop-color="#D3008D" stop-opacity="0"/>
</linearGradient>
<linearGradient id="paint2_linear" x1="295.66" y1="146.765" x2="295.66" y2="226.765" gradientUnits="userSpaceOnUse">
<stop stop-color="#E8A200"/>
<stop offset="1" stop-color="#CA8D00"/>
</linearGradient>
<clipPath id="clip0">
<rect width="313" height="345" fill="white"/>
</clipPath>
</defs>
</svg>
