<svg width="483" height="421" viewBox="0 0 483 421" fill="none" xmlns="http://www.w3.org/2000/svg">
<path d="M361.472 275.49C361.472 355.162 296.872 419.749 217.182 419.749C137.492 419.749 72.8916 355.162 72.8916 275.49C72.8916 195.818 137.492 131.231 217.182 131.231C296.872 131.231 361.472 195.818 361.472 275.49Z" fill="white" stroke="#70F1C9" stroke-width="2"/>
<path d="M216.461 187.387C216.461 246.733 168.341 294.843 108.981 294.843C49.6213 294.843 1.50122 246.733 1.50122 187.387C1.50122 128.041 49.6213 79.9307 108.981 79.9307C168.341 79.9307 216.461 128.041 216.461 187.387Z" fill="white" stroke="#70F1C9" stroke-width="2"/>
<path d="M481.944 145.566C481.944 225.237 417.343 289.825 337.653 289.825C257.964 289.825 193.363 225.237 193.363 145.566C193.363 65.8938 257.964 1.30664 337.653 1.30664C417.343 1.30664 481.944 65.8938 481.944 145.566Z" fill="white" stroke="#70F1C9" stroke-width="2"/>
<path d="M407.765 179.023C407.765 233.75 363.39 278.115 308.651 278.115C253.912 278.115 209.537 233.75 209.537 179.023C209.537 124.296 253.912 79.9307 308.651 79.9307C363.39 79.9307 407.765 124.296 407.765 179.023Z" fill="white" stroke="#70F1C9" stroke-width="2"/>
<path d="M355.385 204.116C356.036 240.664 326.929 270.82 290.373 271.47C253.816 272.121 223.654 243.02 223.004 206.472C222.353 169.924 251.46 139.769 288.016 139.118C324.572 138.467 354.734 167.568 355.385 204.116Z" fill="white" stroke="#70F1C9" stroke-width="2"/>
<path d="M135.958 357.738V326.024H146.503C150.017 326.024 152.763 326.75 154.738 328.202C156.713 329.639 157.701 331.796 157.701 334.671C157.701 336.109 157.287 337.394 156.459 338.527C155.631 339.659 154.484 340.501 153.017 341.053C154.905 341.474 156.357 342.382 157.374 343.776C158.391 345.17 158.899 346.789 158.899 348.634C158.899 351.61 157.926 353.876 155.98 355.429C154.033 356.969 151.347 357.738 147.919 357.738H135.958ZM141.252 343.318V353.513H147.919C149.749 353.513 151.157 353.098 152.145 352.271C153.133 351.429 153.627 350.216 153.627 348.634C153.627 346.949 153.213 345.642 152.385 344.712C151.557 343.783 150.265 343.318 148.507 343.318H141.252ZM141.252 339.376H147.091C148.732 339.376 150.025 338.991 150.969 338.222C151.927 337.438 152.407 336.334 152.407 334.911C152.407 333.343 151.905 332.181 150.903 331.426C149.901 330.656 148.434 330.271 146.503 330.271H141.252V339.376ZM169.509 357.738H164.215V334.17H169.509V357.738ZM169.509 328.398H164.215V323.758H169.509V328.398ZM174.498 346.281C174.498 342.534 175.319 339.506 176.96 337.198C178.601 334.889 180.881 333.735 183.801 333.735C185.21 333.735 186.444 334.04 187.505 334.65C188.58 335.245 189.487 336.109 190.228 337.241L190.751 334.17H195.152V357.738C195.152 360.773 194.215 363.118 192.341 364.774C190.468 366.429 187.81 367.257 184.367 367.257C183.22 367.257 181.979 367.09 180.642 366.756C179.32 366.437 178.122 366.008 177.047 365.471L178.18 361.31C179.052 361.76 180.01 362.109 181.056 362.356C182.116 362.617 183.206 362.748 184.324 362.748C186.241 362.748 187.643 362.334 188.529 361.507C189.415 360.693 189.858 359.437 189.858 357.738V355.32C189.117 356.265 188.239 356.983 187.222 357.477C186.22 357.956 185.064 358.196 183.758 358.196C180.867 358.196 178.601 357.143 176.96 355.037C175.319 352.932 174.498 350.165 174.498 346.738V346.281ZM179.792 346.738C179.792 348.902 180.221 350.637 181.078 351.944C181.95 353.237 183.293 353.883 185.109 353.883C186.241 353.883 187.193 353.65 187.963 353.186C188.747 352.706 189.379 352.024 189.858 351.138V340.814C189.364 339.957 188.725 339.289 187.941 338.809C187.171 338.316 186.241 338.069 185.152 338.069C183.337 338.069 181.986 338.832 181.1 340.356C180.228 341.881 179.792 343.856 179.792 346.281V346.738ZM212.516 357.738V326.024H222.799C226.822 326.024 230.091 327.28 232.603 329.792C235.13 332.304 236.394 335.535 236.394 339.485V344.299C236.394 348.263 235.13 351.494 232.603 353.992C230.091 356.489 226.822 357.738 222.799 357.738H212.516ZM217.81 330.271V353.513H222.646C225.276 353.513 227.338 352.656 228.834 350.942C230.344 349.229 231.1 347.014 231.1 344.299V339.441C231.1 336.755 230.344 334.555 228.834 332.841C227.338 331.128 225.276 330.271 222.646 330.271H217.81ZM255.348 357.738C255.16 357.143 255 356.562 254.869 355.996C254.753 355.429 254.673 354.863 254.629 354.297C253.903 355.4 252.944 356.33 251.754 357.085C250.577 357.825 249.256 358.196 247.788 358.196C245.334 358.196 243.446 357.564 242.124 356.301C240.816 355.037 240.163 353.302 240.163 351.095C240.163 348.815 241.064 347.043 242.864 345.78C244.665 344.502 247.2 343.863 250.468 343.863H254.586V341.794C254.586 340.56 254.223 339.594 253.497 338.897C252.77 338.2 251.732 337.851 250.381 337.851C249.175 337.851 248.217 338.142 247.505 338.722C246.794 339.304 246.438 340.051 246.438 340.966H241.34L241.318 340.835C241.216 338.977 242.044 337.328 243.801 335.891C245.573 334.453 247.876 333.735 250.708 333.735C253.453 333.735 255.668 334.432 257.353 335.826C259.038 337.22 259.88 339.224 259.88 341.837V352.314C259.88 353.287 259.945 354.224 260.076 355.124C260.207 356.01 260.418 356.881 260.708 357.738H255.348ZM248.856 353.948C250.192 353.948 251.391 353.614 252.451 352.946C253.526 352.278 254.237 351.516 254.586 350.659V347.174H250.381C248.841 347.174 247.636 347.559 246.764 348.329C245.893 349.084 245.457 349.977 245.457 351.007C245.457 351.908 245.748 352.627 246.329 353.164C246.924 353.687 247.766 353.948 248.856 353.948ZM272.015 328.442V334.17H276.242V338.091H272.015V351.117C272.015 352.09 272.226 352.787 272.647 353.208C273.068 353.614 273.628 353.818 274.325 353.818C274.615 353.818 274.898 353.795 275.174 353.752C275.45 353.694 275.712 353.621 275.958 353.534L276.525 357.412C276.075 357.659 275.537 357.847 274.913 357.978C274.288 358.123 273.642 358.196 272.974 358.196C271.027 358.196 269.503 357.629 268.399 356.497C267.294 355.349 266.743 353.556 266.743 351.117V338.091H263.148V334.17H266.743V328.442H272.015ZM295.13 357.738C294.942 357.143 294.782 356.562 294.651 355.996C294.535 355.429 294.455 354.863 294.412 354.297C293.685 355.4 292.727 356.33 291.536 357.085C290.36 357.825 289.038 358.196 287.571 358.196C285.116 358.196 283.228 357.564 281.906 356.301C280.599 355.037 279.946 353.302 279.946 351.095C279.946 348.815 280.846 347.043 282.647 345.78C284.448 344.502 286.983 343.863 290.25 343.863H294.368V341.794C294.368 340.56 294.005 339.594 293.279 338.897C292.553 338.2 291.514 337.851 290.163 337.851C288.958 337.851 287.999 338.142 287.288 338.722C286.576 339.304 286.22 340.051 286.22 340.966H281.122L281.1 340.835C280.999 338.977 281.826 337.328 283.584 335.891C285.356 334.453 287.658 333.735 290.49 333.735C293.235 333.735 295.45 334.432 297.135 335.826C298.82 337.22 299.662 339.224 299.662 341.837V352.314C299.662 353.287 299.727 354.224 299.858 355.124C299.989 356.01 300.2 356.881 300.49 357.738H295.13ZM288.638 353.948C289.974 353.948 291.173 353.614 292.233 352.946C293.308 352.278 294.019 351.516 294.368 350.659V347.174H290.163C288.624 347.174 287.418 347.559 286.547 348.329C285.675 349.084 285.24 349.977 285.24 351.007C285.24 351.908 285.53 352.627 286.111 353.164C286.706 353.687 287.549 353.948 288.638 353.948Z" fill="#00516B"/>
<path d="M408.678 69.1047H402.534L401.249 72.7967H398.384L404.375 56.9392H406.848L412.85 72.7967H409.974L408.678 69.1047ZM403.307 66.8826H407.904L405.606 60.3044L403.307 66.8826ZM417.567 72.7967H414.822V56.9392H417.567V72.7967Z" fill="#00516B"/>
<path d="M347.111 123.853L351.686 136.007L356.25 123.853H359.813V139.711H357.067V134.483L357.34 127.491L352.656 139.711H350.684L346.011 127.502L346.283 134.483V139.711H343.538V123.853H347.111ZM365.837 137.51H373.037V139.711H363.08V123.853H365.837V137.51Z" fill="#00516B"/>
<path d="M247.08 201.606V185.749H252.222C254.233 185.749 255.867 186.377 257.124 187.633C258.387 188.889 259.019 190.504 259.019 192.48V194.886C259.019 196.869 258.387 198.484 257.124 199.732C255.867 200.981 254.233 201.606 252.222 201.606H247.08ZM249.727 187.872V199.493H252.145C253.46 199.493 254.491 199.065 255.239 198.208C255.994 197.351 256.372 196.244 256.372 194.886V192.458C256.372 191.114 255.994 190.014 255.239 189.158C254.491 188.301 253.46 187.872 252.145 187.872H249.727ZM266.459 201.835C264.789 201.835 263.456 201.29 262.461 200.201C261.474 199.105 260.98 197.7 260.98 195.986V195.55C260.98 193.837 261.47 192.418 262.45 191.292C263.438 190.159 264.673 189.597 266.154 189.604C267.745 189.604 268.961 190.087 269.803 191.053C270.653 192.011 271.078 193.3 271.078 194.919V196.477H263.725L263.703 196.531C263.747 197.467 264.019 198.234 264.52 198.829C265.029 199.424 265.729 199.722 266.623 199.722C267.334 199.722 267.944 199.635 268.453 199.46C268.961 199.286 269.451 199.035 269.923 198.709L270.773 200.441C270.33 200.833 269.741 201.163 269.008 201.431C268.275 201.7 267.425 201.835 266.459 201.835ZM266.154 191.728C265.5 191.728 264.963 191.989 264.542 192.512C264.121 193.028 263.86 193.685 263.758 194.483L263.779 194.538H268.453V194.266C268.453 193.518 268.26 192.908 267.875 192.435C267.498 191.964 266.924 191.728 266.154 191.728ZM278.268 201.835C276.597 201.835 275.265 201.29 274.27 200.201C273.282 199.105 272.788 197.7 272.788 195.986V195.55C272.788 193.837 273.279 192.418 274.259 191.292C275.246 190.159 276.481 189.597 277.963 189.604C279.553 189.604 280.77 190.087 281.612 191.053C282.461 192.011 282.886 193.3 282.886 194.919V196.477H275.534L275.511 196.531C275.555 197.467 275.828 198.234 276.328 198.829C276.837 199.424 277.538 199.722 278.431 199.722C279.143 199.722 279.753 199.635 280.261 199.46C280.77 199.286 281.259 199.035 281.732 198.709L282.581 200.441C282.138 200.833 281.55 201.163 280.816 201.431C280.083 201.7 279.234 201.835 278.268 201.835ZM277.963 191.728C277.309 191.728 276.772 191.989 276.35 192.512C275.929 193.028 275.667 193.685 275.566 194.483L275.588 194.538H280.261V194.266C280.261 193.518 280.069 192.908 279.684 192.435C279.306 191.964 278.732 191.728 277.963 191.728ZM295.348 196.106C295.348 197.819 294.945 199.203 294.139 200.255C293.333 201.308 292.211 201.835 290.773 201.835C290.105 201.835 289.513 201.715 288.997 201.475C288.482 201.236 288.039 200.883 287.668 200.419V206.137H285.021V189.822H287.254L287.516 191.303C287.894 190.751 288.348 190.33 288.877 190.04C289.415 189.749 290.036 189.604 290.74 189.604C292.193 189.604 293.322 190.182 294.128 191.336C294.942 192.483 295.348 193.997 295.348 195.877V196.106ZM292.712 195.877C292.712 194.672 292.483 193.688 292.026 192.926C291.576 192.156 290.9 191.771 290 191.771C289.447 191.771 288.979 191.891 288.594 192.131C288.209 192.363 287.901 192.69 287.668 193.111V198.437C287.901 198.85 288.209 199.17 288.594 199.395C288.979 199.613 289.455 199.722 290.021 199.722C290.922 199.722 291.594 199.391 292.036 198.731C292.487 198.063 292.712 197.188 292.712 196.106V195.877ZM249.727 225.144H257.014V227.256H247.08V211.399H249.727V225.144ZM263.867 227.485C262.196 227.485 260.863 226.94 259.869 225.851C258.881 224.755 258.387 223.35 258.387 221.637V221.201C258.387 219.488 258.877 218.068 259.858 216.943C260.846 215.81 262.08 215.247 263.562 215.254C265.152 215.254 266.368 215.737 267.211 216.703C268.06 217.661 268.485 218.95 268.485 220.569V222.127H261.132L261.111 222.181C261.154 223.118 261.427 223.884 261.928 224.479C262.436 225.074 263.137 225.372 264.03 225.372C264.742 225.372 265.352 225.285 265.86 225.111C266.368 224.937 266.859 224.686 267.33 224.359L268.18 226.091C267.738 226.483 267.149 226.814 266.416 227.082C265.682 227.351 264.832 227.485 263.867 227.485ZM263.562 217.378C262.908 217.378 262.37 217.64 261.949 218.162C261.528 218.678 261.267 219.335 261.165 220.133L261.187 220.188H265.86V219.916C265.86 219.168 265.668 218.558 265.283 218.086C264.905 217.614 264.331 217.378 263.562 217.378ZM277.712 227.256C277.617 226.959 277.538 226.668 277.472 226.385C277.414 226.102 277.374 225.819 277.352 225.536C276.989 226.087 276.51 226.552 275.915 226.93C275.326 227.3 274.666 227.485 273.932 227.485C272.705 227.485 271.76 227.169 271.1 226.538C270.446 225.906 270.119 225.038 270.119 223.935C270.119 222.795 270.57 221.909 271.47 221.277C272.371 220.638 273.638 220.318 275.272 220.318H277.331V219.284C277.331 218.667 277.149 218.184 276.786 217.835C276.423 217.487 275.904 217.313 275.228 217.313C274.626 217.313 274.146 217.458 273.791 217.748C273.434 218.039 273.256 218.413 273.256 218.87H270.707L270.697 218.805C270.646 217.876 271.06 217.051 271.938 216.333C272.825 215.614 273.976 215.254 275.392 215.254C276.764 215.254 277.872 215.603 278.714 216.3C279.557 216.997 279.978 217.999 279.978 219.306V224.545C279.978 225.031 280.011 225.499 280.076 225.949C280.141 226.392 280.246 226.828 280.391 227.256H277.712ZM274.465 225.361C275.134 225.361 275.733 225.194 276.263 224.86C276.801 224.526 277.157 224.145 277.331 223.717V221.974H275.228C274.458 221.974 273.856 222.166 273.42 222.551C272.984 222.929 272.767 223.375 272.767 223.891C272.767 224.341 272.912 224.7 273.202 224.969C273.5 225.231 273.921 225.361 274.465 225.361ZM288.627 217.857L287.494 217.814C286.978 217.814 286.547 217.923 286.198 218.14C285.857 218.358 285.591 218.667 285.403 219.066V227.256H282.756V215.472H285.174L285.348 217.182C285.646 216.58 286.027 216.107 286.492 215.766C286.964 215.425 287.505 215.254 288.115 215.254C288.275 215.254 288.423 215.269 288.562 215.298C288.7 215.32 288.827 215.349 288.943 215.385L288.627 217.857ZM292.886 215.472L293.039 217.171C293.424 216.569 293.907 216.1 294.488 215.766C295.076 215.425 295.736 215.254 296.47 215.254C297.697 215.254 298.652 215.628 299.335 216.376C300.025 217.117 300.37 218.275 300.37 219.851V227.256H297.723V219.872C297.723 218.986 297.538 218.358 297.168 217.988C296.805 217.611 296.248 217.422 295.501 217.422C294.985 217.422 294.524 217.538 294.117 217.77C293.711 217.995 293.377 218.308 293.115 218.707V227.256H290.468V215.472H292.886ZM305.948 227.256H303.301V215.472H305.948V227.256ZM305.948 212.586H303.301V210.266H305.948V212.586ZM311.318 215.472L311.47 217.171C311.855 216.569 312.338 216.1 312.919 215.766C313.507 215.425 314.168 215.254 314.901 215.254C316.129 215.254 317.084 215.628 317.766 216.376C318.456 217.117 318.802 218.275 318.802 219.851V227.256H316.155V219.872C316.155 218.986 315.969 218.358 315.599 217.988C315.236 217.611 314.68 217.422 313.932 217.422C313.417 217.422 312.955 217.538 312.549 217.77C312.142 217.995 311.808 218.308 311.547 218.707V227.256H308.9V215.472H311.318ZM321.078 221.527C321.078 219.654 321.488 218.14 322.309 216.986C323.13 215.832 324.27 215.254 325.73 215.254C326.434 215.254 327.051 215.407 327.582 215.712C328.119 216.01 328.573 216.441 328.943 217.008L329.205 215.472H331.405V227.256C331.405 228.774 330.936 229.946 330 230.774C329.063 231.602 327.734 232.016 326.013 232.016C325.439 232.016 324.818 231.932 324.15 231.765C323.489 231.605 322.89 231.391 322.353 231.122L322.919 229.042C323.355 229.268 323.834 229.442 324.357 229.565C324.887 229.696 325.432 229.761 325.991 229.761C326.95 229.761 327.651 229.554 328.094 229.141C328.536 228.734 328.758 228.106 328.758 227.256V226.047C328.387 226.519 327.948 226.879 327.44 227.125C326.938 227.365 326.361 227.485 325.708 227.485C324.262 227.485 323.13 226.959 322.309 225.906C321.488 224.853 321.078 223.47 321.078 221.757V221.527ZM323.725 221.757C323.725 222.838 323.94 223.706 324.368 224.359C324.803 225.005 325.476 225.329 326.383 225.329C326.95 225.329 327.425 225.212 327.81 224.98C328.202 224.74 328.519 224.399 328.758 223.956V218.794C328.511 218.366 328.192 218.032 327.799 217.792C327.414 217.545 326.95 217.422 326.405 217.422C325.497 217.422 324.822 217.803 324.379 218.565C323.943 219.328 323.725 220.315 323.725 221.527V221.757Z" fill="#00516B"/>
<path d="M31.7937 205.509V189.652H36.9353C38.947 189.652 40.581 190.28 41.8373 191.536C43.1009 192.792 43.7327 194.408 43.7327 196.383V198.79C43.7327 200.772 43.1009 202.387 41.8373 203.636C40.581 204.885 38.947 205.509 36.9353 205.509H31.7937ZM34.4408 191.776V203.397H36.8591C38.1735 203.397 39.2047 202.968 39.9528 202.111C40.7081 201.255 41.0856 200.147 41.0856 198.79V196.361C41.0856 195.018 40.7081 193.918 39.9528 193.061C39.2047 192.204 38.1735 191.776 36.8591 191.776H34.4408ZM53.2099 205.509C53.1155 205.212 53.0356 204.921 52.9702 204.638C52.9122 204.355 52.8722 204.072 52.8504 203.789C52.4873 204.34 52.008 204.805 51.4125 205.183C50.8243 205.553 50.1634 205.738 49.4299 205.738C48.2026 205.738 47.2585 205.422 46.5977 204.791C45.9441 204.159 45.6173 203.291 45.6173 202.188C45.6173 201.048 46.0675 200.162 46.968 199.53C47.8686 198.891 49.1358 198.571 50.7698 198.571H52.8286V197.537C52.8286 196.92 52.6471 196.437 52.284 196.088C51.9209 195.74 51.4016 195.566 50.7262 195.566C50.1235 195.566 49.6442 195.711 49.2883 196.001C48.9324 196.292 48.7545 196.666 48.7545 197.123H46.2055L46.1946 197.058C46.1438 196.129 46.5577 195.304 47.4365 194.586C48.3225 193.867 49.4735 193.507 50.8897 193.507C52.2622 193.507 53.3697 193.856 54.2121 194.553C55.0545 195.25 55.4757 196.252 55.4757 197.559V202.798C55.4757 203.284 55.5084 203.752 55.5738 204.202C55.6391 204.645 55.7444 205.081 55.8897 205.509H53.2099ZM49.9637 203.614C50.6318 203.614 51.2309 203.447 51.7611 203.113C52.2985 202.779 52.6543 202.398 52.8286 201.97V200.227H50.7262C49.9565 200.227 49.3537 200.419 48.9179 200.804C48.4822 201.182 48.2643 201.628 48.2643 202.144C48.2643 202.594 48.4096 202.953 48.7001 203.222C48.9978 203.484 49.419 203.614 49.9637 203.614ZM61.5434 190.861V193.725H63.6567V195.686H61.5434V202.198C61.5434 202.685 61.6488 203.034 61.8591 203.244C62.0699 203.447 62.3494 203.549 62.6979 203.549C62.843 203.549 62.9846 203.538 63.1229 203.516C63.2607 203.487 63.3918 203.451 63.515 203.407L63.7984 205.346C63.573 205.469 63.3042 205.563 62.9919 205.629C62.6795 205.702 62.3566 205.738 62.0225 205.738C61.0493 205.738 60.2868 205.455 59.7352 204.889C59.1831 204.315 58.907 203.418 58.907 202.198V195.686H57.11V193.725H58.907V190.861H61.5434ZM73.1009 205.509C73.0066 205.212 72.9268 204.921 72.8616 204.638C72.8036 204.355 72.7634 204.072 72.7417 203.789C72.3786 204.34 71.8989 204.805 71.3038 205.183C70.7154 205.553 70.0545 205.738 69.3211 205.738C68.094 205.738 67.1498 205.422 66.4889 204.791C65.8352 204.159 65.5084 203.291 65.5084 202.188C65.5084 201.048 65.9585 200.162 66.8592 199.53C67.76 198.891 69.0271 198.571 70.6608 198.571H72.7199V197.537C72.7199 196.92 72.5381 196.437 72.175 196.088C71.8119 195.74 71.2927 195.566 70.6173 195.566C70.0149 195.566 69.5352 195.711 69.1794 196.001C68.8236 196.292 68.6456 196.666 68.6456 197.123H66.0968L66.0856 197.058C66.0349 196.129 66.4487 195.304 67.3277 194.586C68.2134 193.867 69.3646 193.507 70.7807 193.507C72.1533 193.507 73.2609 193.856 74.1031 194.553C74.9458 195.25 75.3669 196.252 75.3669 197.559V202.798C75.3669 203.284 75.3993 203.752 75.4651 204.202C75.5304 204.645 75.6358 205.081 75.7808 205.509H73.1009ZM69.8548 203.614C70.523 203.614 71.122 203.447 71.6524 203.113C72.1895 202.779 72.5453 202.398 72.7199 201.97V200.227H70.6173C69.8476 200.227 69.2447 200.419 68.8091 200.804C68.3735 201.182 68.1554 201.628 68.1554 202.144C68.1554 202.594 68.301 202.953 68.591 203.222C68.8888 203.484 69.3105 203.614 69.8548 203.614ZM35.2251 215.302L39.7894 227.5H39.8547L44.4299 215.302H47.8613V231.16H45.2142V225.757L45.4757 218.885L45.4103 218.875L40.7044 231.16H38.9288L34.2447 218.907L34.1793 218.918L34.4408 225.757V231.16H31.7937V215.302H35.2251ZM53.82 231.16H51.1729V219.376H53.82V231.16ZM53.82 216.489H51.1729V214.17H53.82V216.489ZM59.1903 219.376L59.3426 221.075C59.728 220.472 60.2104 220.003 60.7916 219.669C61.38 219.328 62.0409 219.158 62.7744 219.158C64.0014 219.158 64.9568 219.532 65.6389 220.279C66.3288 221.02 66.674 222.178 66.674 223.754V231.16H64.027V223.776C64.027 222.89 63.8419 222.262 63.4715 221.892C63.1084 221.514 62.5529 221.325 61.8045 221.325C61.2891 221.325 60.8279 221.441 60.4213 221.674C60.0147 221.899 59.6806 222.211 59.419 222.61V231.16H56.772V219.376H59.1903ZM72.2514 231.16H69.6044V219.376H72.2514V231.16ZM72.2514 216.489H69.6044V214.17H72.2514V216.489ZM77.6219 219.376L77.7741 221.075C78.159 220.472 78.642 220.003 79.2231 219.669C79.8115 219.328 80.4725 219.158 81.2059 219.158C82.4329 219.158 83.3877 219.532 84.0704 220.279C84.7603 221.02 85.1056 222.178 85.1056 223.754V231.16H82.4586V223.776C82.4586 222.89 82.2734 222.262 81.9031 221.892C81.54 221.514 80.9839 221.325 80.236 221.325C79.7206 221.325 79.2594 221.441 78.8528 221.674C78.4462 221.899 78.1121 222.211 77.8505 222.61V231.16H75.2035V219.376H77.6219ZM87.3823 225.431C87.3823 223.558 87.7928 222.044 88.6132 220.89C89.4336 219.735 90.5742 219.158 92.0338 219.158C92.7382 219.158 93.3551 219.31 93.8855 219.615C94.4231 219.913 94.8766 220.345 95.2469 220.911L95.5085 219.376H97.7088V231.16C97.7088 232.677 97.2408 233.85 96.3038 234.677C95.3668 235.505 94.0377 235.919 92.3171 235.919C91.7432 235.919 91.1224 235.835 90.4543 235.669C89.7934 235.509 89.1943 235.294 88.6567 235.026L89.2233 232.946C89.6589 233.171 90.138 233.345 90.6612 233.468C91.191 233.599 91.736 233.664 92.2948 233.664C93.2536 233.664 93.9546 233.458 94.3975 233.044C94.8403 232.637 95.0617 232.009 95.0617 231.16V229.951C94.6914 230.423 94.2525 230.782 93.7438 231.029C93.243 231.268 92.6657 231.388 92.012 231.388C90.5664 231.388 89.4336 230.862 88.6132 229.809C87.7928 228.756 87.3823 227.373 87.3823 225.66V225.431ZM90.0293 225.66C90.0293 226.742 90.2434 227.609 90.6718 228.262C91.1079 228.909 91.7795 229.232 92.6875 229.232C93.2536 229.232 93.7293 229.115 94.1141 228.883C94.5062 228.644 94.8225 228.302 95.0617 227.86V222.697C94.8152 222.269 94.4956 221.935 94.1035 221.695C93.7187 221.448 93.2536 221.325 92.7092 221.325C91.8012 221.325 91.1258 221.706 90.6829 222.469C90.2474 223.231 90.0293 224.218 90.0293 225.431V225.66Z" fill="#00516B"/>
<path d="M80.3168 126.328V110.47H85.4585C87.4697 110.47 89.1039 111.099 90.3605 112.354C91.6238 113.611 92.2557 115.226 92.2557 117.201V119.608C92.2557 121.59 91.6238 123.206 90.3605 124.454C89.1039 125.703 87.4697 126.328 85.4585 126.328H80.3168ZM82.9638 112.594V124.215H85.3821C86.6967 124.215 87.728 123.787 88.4759 122.93C89.2311 122.073 89.6087 120.966 89.6087 119.608V117.179C89.6087 115.836 89.2311 114.736 88.4759 113.879C87.728 113.022 86.6967 112.594 85.3821 112.594H82.9638ZM101.733 126.328C101.638 126.03 101.559 125.739 101.493 125.456C101.435 125.173 101.395 124.89 101.374 124.607C101.01 125.158 100.531 125.623 99.9357 126.001C99.3473 126.371 98.6864 126.556 97.953 126.556C96.7254 126.556 95.7817 126.241 95.1208 125.609C94.4671 124.977 94.1403 124.109 94.1403 123.006C94.1403 121.866 94.5904 120.98 95.4911 120.348C96.3913 119.709 97.659 119.39 99.2926 119.39H101.352V118.355C101.352 117.738 101.17 117.255 100.807 116.907C100.444 116.558 99.9246 116.384 99.2491 116.384C98.6462 116.384 98.1671 116.529 97.8113 116.82C97.4555 117.11 97.2775 117.484 97.2775 117.942H94.7287L94.7175 117.876C94.6668 116.947 95.0806 116.123 95.9596 115.404C96.8453 114.685 97.9965 114.326 99.4126 114.326C100.785 114.326 101.893 114.674 102.735 115.371C103.578 116.068 103.999 117.07 103.999 118.377V123.616C103.999 124.102 104.031 124.571 104.097 125.021C104.162 125.463 104.268 125.899 104.413 126.328H101.733ZM98.4867 124.432C99.1549 124.432 99.7539 124.266 100.284 123.932C100.821 123.598 101.177 123.216 101.352 122.788V121.045H99.2491C98.4795 121.045 97.8765 121.238 97.441 121.623C97.0054 122 96.7873 122.447 96.7873 122.962C96.7873 123.412 96.9329 123.772 97.2229 124.04C97.5207 124.302 97.9418 124.432 98.4867 124.432ZM110.066 111.679V114.544H112.18V116.504H110.066V123.017C110.066 123.503 110.172 123.852 110.382 124.062C110.593 124.266 110.872 124.367 111.221 124.367C111.366 124.367 111.508 124.357 111.646 124.335C111.784 124.306 111.915 124.269 112.038 124.225L112.321 126.164C112.096 126.288 111.827 126.382 111.515 126.448C111.203 126.52 110.88 126.556 110.546 126.556C109.572 126.556 108.81 126.273 108.258 125.707C107.706 125.133 107.43 124.237 107.43 123.017V116.504H105.633V114.544H107.43V111.679H110.066ZM121.624 126.328C121.53 126.03 121.45 125.739 121.385 125.456C121.327 125.173 121.286 124.89 121.265 124.607C120.902 125.158 120.422 125.623 119.827 126.001C119.238 126.371 118.577 126.556 117.844 126.556C116.617 126.556 115.673 126.241 115.012 125.609C114.358 124.977 114.031 124.109 114.031 123.006C114.031 121.866 114.481 120.98 115.382 120.348C116.283 119.709 117.55 119.39 119.184 119.39H121.243V118.355C121.243 117.738 121.061 117.255 120.698 116.907C120.335 116.558 119.816 116.384 119.14 116.384C118.538 116.384 118.058 116.529 117.702 116.82C117.347 117.11 117.169 117.484 117.169 117.942H114.62L114.609 117.876C114.558 116.947 114.972 116.123 115.851 115.404C116.736 114.685 117.888 114.326 119.304 114.326C120.676 114.326 121.784 114.674 122.626 115.371C123.469 116.068 123.89 117.07 123.89 118.377V123.616C123.89 124.102 123.922 124.571 123.988 125.021C124.053 125.463 124.159 125.899 124.304 126.328H121.624ZM118.378 124.432C119.046 124.432 119.645 124.266 120.175 123.932C120.713 123.598 121.068 123.216 121.243 122.788V121.045H119.14C118.371 121.045 117.768 121.238 117.332 121.623C116.896 122 116.678 122.447 116.678 122.962C116.678 123.412 116.824 123.772 117.114 124.04C117.412 124.302 117.833 124.432 118.378 124.432ZM88.9115 147.905C88.9115 147.244 88.6644 146.703 88.1708 146.282C87.6845 145.861 86.82 145.483 85.5779 145.149C83.806 144.684 82.4406 144.071 81.4824 143.309C80.5309 142.539 80.0552 141.533 80.0552 140.292C80.0552 139.014 80.5817 137.961 81.6347 137.134C82.695 136.306 84.0603 135.892 85.7307 135.892C87.4736 135.892 88.8713 136.36 89.9243 137.297C90.9846 138.233 91.4966 139.359 91.4603 140.673L91.4386 140.739H88.9009C88.9009 139.925 88.6248 139.268 88.0727 138.767C87.521 138.259 86.733 138.005 85.709 138.005C84.743 138.005 83.9984 138.215 83.4758 138.636C82.9599 139.057 82.7022 139.602 82.7022 140.27C82.7022 140.873 82.9822 141.374 83.541 141.773C84.1077 142.172 85.0408 142.55 86.3409 142.906C88.0476 143.363 89.3437 143.995 90.2294 144.801C91.1157 145.607 91.5585 146.634 91.5585 147.883C91.5585 149.204 91.0287 150.257 89.9684 151.041C88.9154 151.818 87.5283 152.207 85.8071 152.207C84.1512 152.207 82.6989 151.771 81.4495 150.9C80.2008 150.021 79.5939 148.82 79.6302 147.295L79.6519 147.229H82.2014C82.2014 148.195 82.5354 148.918 83.2036 149.397C83.8718 149.869 84.7396 150.104 85.8071 150.104C86.7871 150.104 87.5501 149.909 88.0944 149.517C88.6393 149.117 88.9115 148.58 88.9115 147.905ZM98.8788 150.094C99.5252 150.094 100.07 149.905 100.513 149.527C100.956 149.143 101.177 148.664 101.177 148.09H103.574L103.596 148.155C103.632 149.259 103.182 150.21 102.245 151.009C101.316 151.807 100.193 152.207 98.8788 152.207C97.1431 152.207 95.8107 151.647 94.8809 150.529C93.959 149.411 93.4978 147.996 93.4978 146.282V145.901C93.4978 144.194 93.959 142.782 94.8809 141.664C95.8107 140.539 97.1431 139.976 98.8788 139.976C100.295 139.976 101.442 140.39 102.321 141.218C103.207 142.038 103.636 143.083 103.607 144.354L103.585 144.42H101.177C101.177 143.773 100.963 143.225 100.535 142.775C100.114 142.325 99.5615 142.1 98.8788 142.1C97.8838 142.1 97.1794 142.463 96.7655 143.189C96.3517 143.908 96.1448 144.812 96.1448 145.901V146.282C96.1448 147.393 96.3517 148.308 96.7655 149.027C97.1794 149.738 97.8838 150.094 98.8788 150.094ZM108.552 151.978H105.905V140.194H108.552V151.978ZM108.552 137.308H105.905V134.988H108.552V137.308ZM116.58 152.207C114.91 152.207 113.577 151.662 112.582 150.573C111.595 149.477 111.101 148.072 111.101 146.358V145.922C111.101 144.209 111.591 142.79 112.572 141.664C113.56 140.531 114.794 139.969 116.276 139.976C117.866 139.976 119.082 140.459 119.925 141.425C120.774 142.383 121.199 143.672 121.199 145.291V146.849H113.846L113.824 146.903C113.868 147.839 114.14 148.606 114.642 149.201C115.15 149.796 115.851 150.094 116.744 150.094C117.455 150.094 118.066 150.007 118.574 149.832C119.082 149.658 119.573 149.407 120.044 149.081L120.894 150.813C120.451 151.205 119.863 151.535 119.13 151.803C118.396 152.072 117.546 152.207 116.58 152.207ZM116.276 142.1C115.622 142.1 115.084 142.361 114.663 142.884C114.242 143.4 113.981 144.057 113.879 144.855L113.901 144.91H118.574V144.638C118.574 143.89 118.382 143.28 117.996 142.807C117.619 142.336 117.045 142.1 116.276 142.1ZM125.731 140.194L125.883 141.893C126.268 141.29 126.751 140.822 127.332 140.488C127.92 140.147 128.581 139.976 129.314 139.976C130.542 139.976 131.497 140.35 132.18 141.098C132.87 141.838 133.215 142.997 133.215 144.572V151.978H130.568V144.594C130.568 143.708 130.383 143.08 130.012 142.71C129.649 142.332 129.093 142.143 128.345 142.143C127.83 142.143 127.369 142.259 126.962 142.492C126.555 142.717 126.221 143.029 125.96 143.429V151.978H123.313V140.194H125.731ZM140.84 150.094C141.486 150.094 142.031 149.905 142.474 149.527C142.917 149.143 143.139 148.664 143.139 148.09H145.535L145.557 148.155C145.593 149.259 145.143 150.21 144.206 151.009C143.276 151.807 142.154 152.207 140.84 152.207C139.104 152.207 137.771 151.647 136.842 150.529C135.92 149.411 135.459 147.996 135.459 146.282V145.901C135.459 144.194 135.92 142.782 136.842 141.664C137.771 140.539 139.104 139.976 140.84 139.976C142.256 139.976 143.403 140.39 144.282 141.218C145.168 142.038 145.597 143.083 145.568 144.354L145.546 144.42H143.139C143.139 143.773 142.924 143.225 142.495 142.775C142.074 142.325 141.522 142.1 140.84 142.1C139.845 142.1 139.141 142.463 138.726 143.189C138.312 143.908 138.106 144.812 138.106 145.901V146.282C138.106 147.393 138.312 148.308 138.726 149.027C139.141 149.738 139.845 150.094 140.84 150.094ZM152.746 152.207C151.076 152.207 149.743 151.662 148.748 150.573C147.761 149.477 147.267 148.072 147.267 146.358V145.922C147.267 144.209 147.757 142.79 148.738 141.664C149.725 140.531 150.96 139.969 152.441 139.976C154.032 139.976 155.248 140.459 156.09 141.425C156.94 142.383 157.365 143.672 157.365 145.291V146.849H150.012L149.99 146.903C150.034 147.839 150.306 148.606 150.807 149.201C151.316 149.796 152.017 150.094 152.91 150.094C153.621 150.094 154.231 150.007 154.739 149.832C155.248 149.658 155.738 149.407 156.21 149.081L157.06 150.813C156.617 151.205 156.029 151.535 155.295 151.803C154.562 152.072 153.712 152.207 152.746 152.207ZM152.441 142.1C151.787 142.1 151.25 142.361 150.829 142.884C150.408 143.4 150.147 144.057 150.044 144.855L150.066 144.91H154.739V144.638C154.739 143.89 154.547 143.28 154.162 142.807C153.785 142.336 153.211 142.1 152.441 142.1Z" fill="#00516B"/>
</svg>
