<svg width="483" height="205" viewBox="0 0 483 205" fill="none" xmlns="http://www.w3.org/2000/svg">
<path d="M173.294 83.5358C176.639 83.5358 179.35 80.8275 179.35 77.4866C179.35 74.1458 176.639 71.4375 173.294 71.4375C169.95 71.4375 167.239 74.1458 167.239 77.4866C167.239 80.8275 169.95 83.5358 173.294 83.5358Z" fill="white"/>
<path d="M175.404 86.4199C173.895 86.1141 172.255 86.1274 170.773 86.4766C160.706 87.6549 157.437 99.2957 158.36 108.172C158.76 112.008 164.816 112.049 164.411 108.172C164.075 104.937 164.219 100.055 165.94 96.5857C165.94 100.802 165.94 105.02 165.94 109.236C165.94 109.384 165.955 109.524 165.962 109.667C165.958 109.736 165.942 109.794 165.942 109.863C165.942 119.902 165.924 129.936 165.509 139.966C165.325 144.424 172.246 144.407 172.429 139.966C172.753 132.105 172.836 124.24 172.854 116.373C173.182 116.395 173.51 116.395 173.838 116.376C173.858 124.242 173.937 132.107 174.26 139.966C174.443 144.407 181.364 144.424 181.178 139.966C180.764 129.936 180.749 119.902 180.749 109.863C180.749 109.552 180.707 109.269 180.644 108.997C180.635 104.638 180.468 100.277 180.519 95.9216C182.58 99.4066 182.768 104.723 182.411 108.168C182.005 112.043 188.062 112.004 188.462 108.168C189.407 99.1091 185.981 87.1666 175.404 86.4199Z" fill="white"/>
<path d="M213.623 83.5358C216.967 83.5358 219.678 80.8275 219.678 77.4866C219.678 74.1458 216.967 71.4375 213.623 71.4375C210.279 71.4375 207.568 74.1458 207.568 77.4866C207.568 80.8275 210.279 83.5358 213.623 83.5358Z" fill="white"/>
<path d="M215.732 86.4199C214.223 86.1141 212.583 86.1274 211.101 86.4766C201.034 87.6549 197.765 99.2957 198.688 108.172C199.089 112.008 205.144 112.049 204.739 108.172C204.403 104.937 204.548 100.055 206.269 96.5857C206.269 100.802 206.269 105.02 206.269 109.236C206.269 109.384 206.283 109.524 206.29 109.667C206.286 109.736 206.269 109.794 206.269 109.863C206.269 119.902 206.252 129.936 205.837 139.966C205.653 144.424 212.573 144.407 212.756 139.966C213.081 132.105 213.163 124.24 213.182 116.373C213.51 116.395 213.838 116.395 214.166 116.376C214.186 124.242 214.265 132.107 214.588 139.966C214.772 144.407 221.692 144.424 221.507 139.966C221.092 129.936 221.077 119.902 221.077 109.863C221.077 109.552 221.035 109.269 220.972 108.997C220.963 104.638 220.796 100.277 220.847 95.9216C222.908 99.4066 223.097 104.723 222.739 108.168C222.334 112.043 228.39 112.004 228.79 108.168C229.734 99.1091 226.308 87.1666 215.732 86.4199Z" fill="white"/>
<path d="M15.0841 83.5358C18.4284 83.5358 21.1396 80.8275 21.1396 77.4866C21.1396 74.1458 18.4284 71.4375 15.0841 71.4375C11.7398 71.4375 9.02869 74.1458 9.02869 77.4866C9.02869 80.8275 11.7398 83.5358 15.0841 83.5358Z" fill="white"/>
<path d="M17.1935 86.4199C15.6847 86.1141 14.0442 86.1274 12.5623 86.4766C2.49497 87.6549 -0.773903 99.2957 0.149121 108.172C0.5495 112.008 6.60491 112.049 6.2005 108.172C5.86461 104.937 6.00837 100.055 7.72947 96.5857C7.72947 100.802 7.72947 105.02 7.72947 109.236C7.72947 109.384 7.74425 109.524 7.75097 109.667C7.74694 109.736 7.73081 109.794 7.73081 109.863C7.73081 119.902 7.71334 129.936 7.29819 139.966C7.11412 144.424 14.0348 144.407 14.2175 139.966C14.5426 132.105 14.6246 124.24 14.6434 116.373C14.9712 116.395 15.2991 116.395 15.6269 116.376C15.647 124.242 15.7263 132.107 16.0488 139.966C16.2328 144.407 23.1535 144.424 22.9681 139.966C22.5529 129.936 22.5382 119.902 22.5382 109.863C22.5382 109.552 22.4965 109.269 22.4334 108.997C22.424 104.638 22.2574 100.277 22.3084 95.9216C24.3694 99.4066 24.5575 104.723 24.2001 108.168C23.7944 112.043 29.8511 112.004 30.2515 108.168C31.196 99.1091 27.77 87.1666 17.1935 86.4199Z" fill="white"/>
<path d="M104.92 86.4234C105.715 84.9159 108.847 81.8764 108.847 76.1248C108.847 64.4039 97.8956 62.2002 97.3133 61.7884C97.2733 61.3625 97.169 60.2666 97.1373 59.9325C96.2797 50.9443 88.8103 44.1667 79.7645 44.1667C70.8153 44.1667 63.3685 50.9477 62.4425 59.9387L62.2523 61.7827C61.6707 62.192 50.4877 64.3582 50.4877 76.1248C50.4877 81.8697 53.6228 84.9201 54.4156 86.4234C53.8575 87.0084 44.6711 91.6792 44.6711 102.466C44.6711 112.078 52.6924 119.704 62.3147 119.704H97.214C106.836 119.704 114.664 111.884 114.664 102.273C114.664 91.4217 105.582 87.1184 104.92 86.4234Z" fill="white"/>
<path d="M134.197 86.4234C134.992 84.9159 138.124 81.8764 138.124 76.1248C138.124 64.4039 126.979 62.2002 126.397 61.7884C126.356 61.3625 126.253 60.2666 126.221 59.9325C125.363 50.9443 117.893 44.1667 108.848 44.1667C104.92 44.1667 101.326 45.5286 98.4012 47.7544C100.538 50.6302 102.086 53.9856 102.71 57.7172C113.051 62.6226 114.664 71.1823 114.664 76.1248C114.664 79.8528 113.695 82.8063 112.611 85.0134C117.893 89.7801 120.481 95.5284 120.481 102.273C120.481 109.247 117.326 115.44 112.44 119.704H126.298C135.919 119.704 143.941 111.884 143.941 102.273C143.941 91.4217 134.859 87.1184 134.197 86.4234Z" fill="white"/>
<path d="M120.481 137.522V125.514H108.847V137.522H85.5812V125.514H73.9479V137.522H62.3148V143.333H132.114V137.522H120.481Z" fill="white"/>
<path d="M429.242 79.4011C425.79 79.4011 422.995 82.1926 422.995 85.641C422.995 89.0893 425.79 91.881 429.242 91.881C432.694 91.881 435.488 89.0893 435.488 85.641C435.488 82.1926 432.694 79.4011 429.242 79.4011Z" fill="white"/>
<path d="M431.674 92.6033H426.809C421.91 92.6033 417.933 96.5766 417.933 101.47V105.082C417.933 105.641 418.36 106.067 418.919 106.067H439.564C440.123 106.067 440.55 105.641 440.55 105.082V101.47C440.55 96.5766 436.573 92.6033 431.674 92.6033Z" fill="white"/>
<path d="M419.917 48.4305C419.917 50.031 419.54 51.3229 418.787 52.3062C418.034 53.2896 416.984 53.7812 415.64 53.7812C415.016 53.7812 414.462 53.6693 413.98 53.4456C413.498 53.2217 413.084 52.8928 412.738 52.4588V57.7994H410.264V42.5609H412.351L412.595 43.9444C412.948 43.429 413.373 43.0357 413.868 42.7644C414.371 42.4932 414.951 42.3575 415.609 42.3575C416.968 42.3575 418.023 42.8967 418.777 43.9749C419.537 45.0464 419.917 46.4604 419.917 48.2169V48.4305ZM417.453 48.2169C417.453 47.0911 417.239 46.1722 416.812 45.4601C416.39 44.7412 415.759 44.3818 414.917 44.3818C414.402 44.3818 413.964 44.4937 413.604 44.7175C413.244 44.9345 412.955 45.2397 412.738 45.6331V50.6074C412.955 50.994 413.244 51.2923 413.604 51.5026C413.964 51.7061 414.408 51.8077 414.938 51.8077C415.78 51.8077 416.408 51.4992 416.822 50.8821C417.243 50.2582 417.453 49.441 417.453 48.4305V48.2169ZM428.706 53.5676C428.617 53.2896 428.542 53.0183 428.481 52.7538C428.427 52.4893 428.389 52.2248 428.369 51.9603C428.03 52.4757 427.582 52.9098 427.025 53.2624C426.475 53.6083 425.858 53.7812 425.172 53.7812C424.024 53.7812 423.141 53.4862 422.524 52.8962C421.913 52.3062 421.607 51.4958 421.607 50.465C421.607 49.4002 422.029 48.5729 422.87 47.9829C423.712 47.3861 424.897 47.0877 426.424 47.0877H428.349V46.1213C428.349 45.5449 428.179 45.0939 427.84 44.7684C427.5 44.4428 427.015 44.2801 426.383 44.2801C425.82 44.2801 425.372 44.4157 425.039 44.687C424.706 44.9582 424.54 45.3075 424.54 45.7347H422.157L422.147 45.6737C422.1 44.8057 422.487 44.036 423.308 43.3646C424.137 42.6932 425.213 42.3575 426.536 42.3575C427.82 42.3575 428.855 42.683 429.642 43.3341C430.43 43.9851 430.824 44.921 430.824 46.1417V51.0347C430.824 51.489 430.854 51.9264 430.915 52.3469C430.976 52.7606 431.075 53.1675 431.211 53.5676H428.706ZM425.671 51.7976C426.296 51.7976 426.855 51.6417 427.351 51.3297C427.853 51.0177 428.186 50.6617 428.349 50.2616V48.6339H426.383C425.664 48.6339 425.1 48.8137 424.693 49.1731C424.286 49.5257 424.082 49.9428 424.082 50.4243C424.082 50.8447 424.218 51.1805 424.489 51.4314C424.768 51.6755 425.162 51.7976 425.671 51.7976ZM438.909 44.7887L437.849 44.7481C437.368 44.7481 436.963 44.8497 436.638 45.0532C436.318 45.2567 436.071 45.5449 435.895 45.9179V53.5676H433.42V42.5609H435.68L435.844 44.158C436.122 43.5952 436.479 43.1543 436.912 42.8356C437.354 42.5168 437.86 42.3575 438.43 42.3575C438.579 42.3575 438.718 42.3711 438.848 42.3982C438.976 42.4185 439.096 42.4457 439.204 42.4796L438.909 44.7887ZM444.234 48.756H443.125V53.5676H440.66V37.6985H443.125V46.7724H444.153L446.933 42.5609H449.845L446.21 47.5658L450.385 53.5676H447.513L444.234 48.756Z" fill="white"/>
<path d="M425.476 127.543H427.197C427.999 127.543 428.575 127.347 428.929 126.953C429.282 126.553 429.458 125.99 429.458 125.264C429.458 124.552 429.269 124.003 428.888 123.617C428.508 123.223 427.948 123.027 427.208 123.027C426.536 123.027 425.986 123.22 425.558 123.607C425.138 123.986 424.927 124.488 424.927 125.112H422.544L422.523 125.051C422.483 123.918 422.904 122.969 423.786 122.202C424.675 121.429 425.806 121.042 427.177 121.042C428.623 121.042 429.777 121.409 430.639 122.142C431.502 122.874 431.933 123.915 431.933 125.264C431.933 125.895 431.739 126.506 431.352 127.096C430.965 127.686 430.416 128.143 429.702 128.469C430.544 128.767 431.162 129.222 431.556 129.832C431.956 130.442 432.157 131.137 432.157 131.917C432.157 133.273 431.689 134.342 430.752 135.122C429.822 135.895 428.63 136.282 427.177 136.282C425.806 136.282 424.652 135.918 423.715 135.192C422.785 134.461 422.341 133.45 422.381 132.162L422.401 132.101H424.784C424.784 132.758 425.005 133.291 425.446 133.697C425.888 134.104 426.475 134.307 427.208 134.307C427.975 134.307 428.58 134.101 429.021 133.687C429.461 133.273 429.682 132.687 429.682 131.927C429.682 131.093 429.479 130.48 429.072 130.087C428.67 129.686 428.046 129.486 427.197 129.486H425.476V127.543ZM408.628 153.625C408.628 154.905 408.326 155.938 407.724 156.725C407.121 157.512 406.281 157.905 405.206 157.905C404.706 157.905 404.264 157.816 403.878 157.637C403.493 157.457 403.162 157.194 402.885 156.847V161.12H400.905V148.929H402.575L402.77 150.036C403.053 149.623 403.393 149.309 403.789 149.092C404.191 148.875 404.655 148.767 405.182 148.767C406.268 148.767 407.112 149.197 407.715 150.06C408.324 150.917 408.628 152.048 408.628 153.454V153.625ZM406.656 153.454C406.656 152.553 406.485 151.818 406.143 151.248C405.807 150.673 405.301 150.386 404.628 150.386C404.215 150.386 403.865 150.475 403.577 150.654C403.289 150.827 403.058 151.072 402.885 151.387V155.366C403.058 155.676 403.289 155.914 403.577 156.082C403.865 156.245 404.22 156.327 404.644 156.327C405.318 156.327 405.82 156.08 406.151 155.586C406.488 155.087 406.656 154.433 406.656 153.625V153.454ZM414.135 157.905C412.886 157.905 411.889 157.498 411.145 156.684C410.407 155.865 410.037 154.816 410.037 153.535V153.21C410.037 151.929 410.404 150.868 411.137 150.027C411.876 149.182 412.799 148.761 413.907 148.767C415.096 148.767 416.006 149.127 416.635 149.848C417.271 150.565 417.589 151.527 417.589 152.737V153.902H412.09L412.074 153.942C412.107 154.642 412.31 155.214 412.685 155.659C413.065 156.104 413.589 156.327 414.257 156.327C414.789 156.327 415.246 156.262 415.625 156.131C416.006 156.001 416.373 155.814 416.726 155.57L417.36 156.863C417.029 157.157 416.59 157.403 416.041 157.604C415.493 157.805 414.857 157.905 414.135 157.905ZM413.907 150.353C413.418 150.353 413.016 150.548 412.701 150.939C412.386 151.324 412.191 151.815 412.114 152.412L412.131 152.452H415.625V152.249C415.625 151.691 415.482 151.235 415.194 150.882C414.911 150.529 414.482 150.353 413.907 150.353ZM423.577 150.712L422.729 150.678C422.344 150.678 422.02 150.76 421.76 150.922C421.505 151.086 421.306 151.316 421.165 151.615V157.734H419.186V148.929H420.994L421.124 150.207C421.347 149.757 421.632 149.404 421.98 149.149C422.333 148.894 422.738 148.767 423.194 148.767C423.313 148.767 423.424 148.777 423.528 148.799C423.631 148.815 423.726 148.837 423.813 148.864L423.577 150.712ZM429.923 155.342C429.923 155.038 429.792 154.786 429.531 154.585C429.271 154.384 428.785 154.207 428.073 154.056C427.02 153.833 426.221 153.519 425.678 153.112C425.141 152.7 424.871 152.141 424.871 151.436C424.871 150.697 425.184 150.068 425.808 149.547C426.433 149.027 427.256 148.767 428.277 148.767C429.352 148.767 430.205 149.032 430.835 149.564C431.471 150.09 431.774 150.744 431.748 151.525L431.731 151.574H429.833C429.833 151.21 429.695 150.898 429.418 150.638C429.141 150.377 428.761 150.247 428.277 150.247C427.799 150.247 427.435 150.356 427.186 150.573C426.935 150.784 426.811 151.045 426.811 151.354C426.811 151.663 426.928 151.91 427.161 152.095C427.4 152.274 427.88 152.434 428.603 152.575C429.711 152.802 430.531 153.126 431.063 153.543C431.601 153.956 431.87 154.52 431.87 155.236C431.87 156.028 431.541 156.671 430.884 157.165C430.232 157.658 429.371 157.905 428.302 157.905C427.156 157.905 426.251 157.612 425.589 157.027C424.926 156.441 424.611 155.767 424.644 155.008L424.66 154.959H426.501C426.523 155.469 426.708 155.841 427.055 156.074C427.402 156.307 427.826 156.424 428.326 156.424C428.836 156.424 429.23 156.327 429.507 156.131C429.784 155.936 429.923 155.672 429.923 155.342ZM433.287 153.25C433.287 151.942 433.646 150.868 434.362 150.027C435.09 149.187 436.076 148.767 437.319 148.767C438.585 148.767 439.576 149.187 440.293 150.027C441.016 150.863 441.377 151.937 441.377 153.25V153.421C441.377 154.745 441.016 155.825 440.293 156.66C439.576 157.49 438.591 157.905 437.336 157.905C436.076 157.905 435.085 157.487 434.362 156.652C433.646 155.817 433.287 154.74 433.287 153.421V153.25ZM435.266 153.421C435.266 154.278 435.435 154.978 435.772 155.521C436.103 156.058 436.625 156.327 437.336 156.327C438.026 156.327 438.541 156.058 438.884 155.521C439.231 154.978 439.405 154.278 439.405 153.421V153.25C439.405 152.409 439.231 151.717 438.884 151.175C438.541 150.627 438.02 150.353 437.319 150.353C436.63 150.353 436.114 150.627 435.772 151.175C435.435 151.723 435.266 152.415 435.266 153.25V153.421ZM444.896 148.929L445.01 150.198C445.298 149.748 445.659 149.398 446.093 149.149C446.533 148.894 447.028 148.767 447.576 148.767C448.493 148.767 449.208 149.046 449.719 149.604C450.234 150.157 450.492 151.023 450.492 152.201V157.734H448.513V152.217C448.513 151.555 448.374 151.086 448.097 150.809C447.826 150.527 447.411 150.386 446.851 150.386C446.466 150.386 446.12 150.472 445.817 150.646C445.512 150.814 445.263 151.047 445.067 151.346V157.734H443.087V148.929H444.896ZM457.506 155.342C457.506 155.038 457.376 154.786 457.116 154.585C456.855 154.384 456.369 154.207 455.658 154.056C454.604 153.833 453.806 153.519 453.263 153.112C452.725 152.7 452.456 152.141 452.456 151.436C452.456 150.697 452.768 150.068 453.393 149.547C454.018 149.027 454.84 148.767 455.861 148.767C456.936 148.767 457.789 149.032 458.419 149.564C459.054 150.09 459.359 150.744 459.331 151.525L459.315 151.574H457.417C457.417 151.21 457.278 150.898 457.001 150.638C456.724 150.377 456.344 150.247 455.861 150.247C455.383 150.247 455.019 150.356 454.769 150.573C454.52 150.784 454.395 151.045 454.395 151.354C454.395 151.663 454.511 151.91 454.745 152.095C454.984 152.274 455.465 152.434 456.186 152.575C457.295 152.802 458.115 153.126 458.647 153.543C459.185 153.956 459.453 154.52 459.453 155.236C459.453 156.028 459.125 156.671 458.468 157.165C457.816 157.658 456.956 157.905 455.885 157.905C454.739 157.905 453.835 157.612 453.172 157.027C452.51 156.441 452.195 155.767 452.227 155.008L452.244 154.959H454.085C454.107 155.469 454.291 155.841 454.639 156.074C454.987 156.307 455.41 156.424 455.909 156.424C456.42 156.424 456.814 156.327 457.091 156.131C457.368 155.936 457.506 155.672 457.506 155.342Z" fill="white"/>
<path d="M467.02 0H392.568C388.455 0.00461378 384.513 1.63857 381.605 4.54342C378.697 7.44825 377.062 11.3868 377.057 15.4948V176.641C377.062 180.748 378.697 184.688 381.605 187.592C384.513 190.497 388.455 192.131 392.568 192.135H467.02C471.132 192.131 475.075 190.497 477.982 187.592C480.89 184.688 482.526 180.748 482.531 176.641V15.4948C482.526 11.3868 480.89 7.44825 477.982 4.54342C475.075 1.63857 471.132 0.00461378 467.02 0ZM450.827 6.19792L448.966 15.4948H410.622L408.761 6.19792H450.827ZM476.326 176.641C476.324 179.106 475.342 181.468 473.598 183.212C471.852 184.954 469.488 185.935 467.02 185.938H392.568C390.1 185.935 387.735 184.954 385.99 183.212C384.245 181.468 383.264 179.106 383.262 176.641V15.4948C383.264 13.0299 384.245 10.6668 385.99 8.924C387.735 7.18107 390.1 6.20068 392.568 6.19792H402.433L405.037 19.2015C405.177 19.9041 405.557 20.5362 406.112 20.9903C406.667 21.4446 407.362 21.6928 408.079 21.6927H451.509C452.226 21.6928 452.921 21.4446 453.476 20.9903C454.031 20.5362 454.41 19.9041 454.551 19.2015L457.155 6.19792H467.02C469.488 6.20068 471.852 7.18107 473.598 8.924C475.342 10.6668 476.324 13.0299 476.326 15.4948V176.641Z" fill="white"/>
<path d="M352.621 103.089C352.947 102.764 352.947 102.236 352.621 101.911L347.312 96.6074C346.987 96.2816 346.458 96.2816 346.132 96.6074C345.806 96.9324 345.806 97.4607 346.132 97.7857L350.851 102.5L346.132 107.214C345.806 107.539 345.806 108.067 346.132 108.392C346.458 108.718 346.987 108.718 347.312 108.392L352.621 103.089ZM254.43 103.333H352.031V101.667H254.43V103.333Z" fill="white"/>
</svg>
