<svg width="447" height="436" viewBox="0 0 447 436" fill="none" xmlns="http://www.w3.org/2000/svg">
<path d="M223.5 361.9C275.506 361.9 317.666 337.58 317.666 307.579C317.666 277.579 275.506 253.259 223.5 253.259C171.494 253.259 129.334 277.579 129.334 307.579C129.334 337.58 171.494 361.9 223.5 361.9Z" stroke="#69B9F0" stroke-width="1.1749" stroke-miterlimit="10" stroke-linecap="round" stroke-linejoin="round"/>
<path d="M256.085 362.76C254.075 362.76 252.352 361.327 251.922 359.32C251.491 357.027 252.927 354.734 255.223 354.16C271.731 350.577 286.086 344.558 296.564 336.388C298.43 334.955 301.158 335.241 302.593 337.105C304.029 338.968 303.742 341.691 301.876 343.124C290.392 352.01 274.889 358.747 257.089 362.473C256.659 362.76 256.372 362.76 256.085 362.76Z" fill="#F9F9F9"/>
<path d="M223.5 370.213C283.513 370.213 332.164 342.171 332.164 307.579C332.164 272.988 283.513 244.946 223.5 244.946C163.487 244.946 114.836 272.988 114.836 307.579C114.836 342.171 163.487 370.213 223.5 370.213Z" stroke="#69B9F0" stroke-width="1.1749" stroke-miterlimit="10" stroke-linecap="round" stroke-linejoin="round"/>
<path d="M161.919 363.477C161.345 363.477 160.914 363.333 160.34 363.19C142.253 356.024 128.186 345.991 119.573 334.095C118.138 332.231 118.568 329.508 120.578 328.075C122.444 326.642 125.171 327.072 126.607 329.078C134.215 339.541 146.99 348.571 163.498 355.164C165.651 356.024 166.799 358.604 165.938 360.753C165.22 362.473 163.641 363.477 161.919 363.477Z" fill="#F9F9F9"/>
<path d="M223.5 378.526C291.52 378.526 346.662 346.762 346.662 307.579C346.662 268.397 291.52 236.633 223.5 236.633C155.48 236.633 100.338 268.397 100.338 307.579C100.338 346.762 155.48 378.526 223.5 378.526Z" stroke="#69B9F0" stroke-width="1.1749" stroke-miterlimit="10" stroke-linecap="round" stroke-linejoin="round"/>
<path d="M315.943 358.747C314.508 358.747 313.216 358.03 312.354 356.741C311.062 354.734 311.637 352.154 313.646 350.864C327.283 341.978 336.47 331.372 340.346 320.049C341.063 317.756 343.504 316.609 345.8 317.326C348.097 318.042 349.246 320.479 348.528 322.772C343.934 335.958 333.599 348.141 318.383 358.03C317.522 358.604 316.661 358.747 315.943 358.747Z" fill="#F9F9F9"/>
<path d="M100.625 317.039C98.472 317.039 96.6059 315.462 96.3188 313.312C96.0317 311.449 95.8882 309.443 95.8882 307.579C95.8882 294.25 101.774 281.064 112.97 269.741C114.693 268.021 117.42 268.021 118.999 269.741C120.722 271.461 120.722 274.184 118.999 275.761C109.381 285.507 104.357 296.543 104.357 307.579C104.357 309.156 104.501 310.733 104.644 312.309C104.932 314.602 103.209 316.752 100.912 317.039C100.912 317.039 100.769 317.039 100.625 317.039Z" fill="#F9F9F9"/>
<path d="M111.104 197.934C143.976 186.611 182.446 180.162 223.5 180.162C265.702 180.162 305.177 187.041 338.623 198.937" stroke="#69B9F0" stroke-width="1.1749" stroke-miterlimit="10" stroke-linecap="round" stroke-linejoin="round"/>
<path d="M357.571 406.475C320.537 422.957 274.028 432.847 223.5 432.847C172.972 432.847 126.463 422.957 89.4287 406.475" stroke="#69B9F0" stroke-width="1.1749" stroke-miterlimit="10" stroke-linecap="round" stroke-linejoin="round"/>
<path d="M413.41 243.369C432.071 262.001 442.694 283.5 442.694 306.576C442.694 323.058 437.239 338.824 427.334 353.157" stroke="#69B9F0" stroke-width="1.1749" stroke-miterlimit="10" stroke-linecap="round" stroke-linejoin="round"/>
<path d="M18.2303 351.15C9.18693 337.248 4.16284 322.198 4.16284 306.432C4.16284 283.357 14.7852 261.858 33.4461 243.225" stroke="#69B9F0" stroke-width="1.1749" stroke-miterlimit="10" stroke-linecap="round" stroke-linejoin="round"/>
<path d="M379.247 245.232C353.552 245.232 333.312 233.193 333.312 217.713C333.312 202.234 353.552 190.195 379.247 190.195C404.941 190.195 425.181 202.234 425.181 217.713C425.181 233.193 405.085 245.232 379.247 245.232Z" fill="#5878D2"/>
<path d="M335.752 157.086V226.743C341.925 237.636 358.719 245.232 379.246 245.232C399.63 245.232 416.568 237.636 422.741 226.743V157.086H335.752Z" fill="url(#paint0_linear)"/>
<path d="M379.246 182.168C403.268 182.168 422.741 170.939 422.741 157.086C422.741 143.234 403.268 132.004 379.246 132.004C355.225 132.004 335.752 143.234 335.752 157.086C335.752 170.939 355.225 182.168 379.246 182.168Z" fill="url(#paint1_linear)"/>
<path opacity="0.5" d="M416.568 75.6765C416.568 66.7902 401.209 56.7573 379.247 56.7573C357.284 56.7573 341.925 66.7902 341.925 75.6765V157.086C341.925 165.972 357.284 176.005 379.247 176.005C401.209 176.005 416.568 165.972 416.568 157.086V75.6765Z" fill="white"/>
<path d="M379.247 172.422C358.72 172.422 345.657 163.392 345.657 157.229C345.657 151.066 358.72 142.037 379.247 142.037C399.774 142.037 412.836 151.066 412.836 157.229C412.98 163.392 399.774 172.422 379.247 172.422Z" stroke="#69B9F0" stroke-width="1.1749" stroke-miterlimit="10" stroke-linecap="round" stroke-linejoin="round"/>
<path d="M363.026 128.707V133.437L395.611 152.213V147.483L363.026 128.707Z" fill="#A0B4F0"/>
<path d="M363.026 109.931V114.518L395.611 133.437V128.707L363.026 109.931Z" fill="#A0B4F0"/>
<path d="M363.026 100.472V105.202L395.611 123.978V119.248L363.026 100.472Z" fill="#A0B4F0"/>
<path d="M363.026 81.696V86.4258L395.611 105.202V100.472L363.026 81.696Z" fill="#5878D2"/>
<path d="M380.395 101.045L363.026 91.0122V95.742L380.395 105.775V101.045Z" fill="#5878D2"/>
<path d="M386.567 132.864L363.026 119.248V123.977L386.567 137.593V132.864Z" fill="#A0B4F0"/>
<path d="M390.156 153.789L363.026 138.023V142.753L390.156 158.519V153.789Z" fill="#5878D2"/>
<path d="M401.065 408.195C375.371 408.195 355.131 396.155 355.131 380.676C355.131 365.197 375.371 353.157 401.065 353.157C426.76 353.157 447 365.197 447 380.676C447 396.155 426.76 408.195 401.065 408.195Z" fill="#5878D2"/>
<path d="M357.571 320.049V389.705C363.743 400.598 380.538 408.195 401.065 408.195C421.449 408.195 438.387 400.598 444.559 389.705V320.049H357.571Z" fill="url(#paint2_linear)"/>
<path d="M401.065 345.131C425.086 345.131 444.559 333.901 444.559 320.049C444.559 306.196 425.086 294.967 401.065 294.967C377.044 294.967 357.571 306.196 357.571 320.049C357.571 333.901 377.044 345.131 401.065 345.131Z" fill="url(#paint3_linear)"/>
<path opacity="0.5" d="M438.387 238.639C438.387 229.753 423.028 219.72 401.065 219.72C379.103 219.72 363.744 229.753 363.744 238.639V320.049C363.744 328.935 379.103 338.968 401.065 338.968C423.028 338.968 438.387 328.935 438.387 320.049V238.639Z" fill="white"/>
<path d="M401.065 335.385C380.538 335.385 367.476 326.355 367.476 320.192C367.476 314.029 380.538 305 401.065 305C421.592 305 434.655 314.029 434.655 320.192C434.655 326.355 421.592 335.385 401.065 335.385Z" stroke="#69B9F0" stroke-width="1.1749" stroke-miterlimit="10" stroke-linecap="round" stroke-linejoin="round"/>
<path d="M386.567 289.807C386.567 289.807 416.425 279.057 416.712 277.337C416.999 275.474 411.257 249.245 411.257 249.245L386.567 253.259L397.477 276.191L386.567 289.807ZM386.567 289.807L413.697 313.886L392.022 321.195" stroke="#5878D2" stroke-miterlimit="10" stroke-linecap="round" stroke-linejoin="round"/>
<path d="M390.73 289.807C390.73 287.514 388.864 285.65 386.567 285.65C384.271 285.65 382.405 287.514 382.405 289.807C382.405 292.1 384.271 293.963 386.567 293.963C388.864 293.963 390.73 292.1 390.73 289.807Z" fill="#5878D2"/>
<path d="M420.875 277.194C420.875 274.901 419.009 273.038 416.712 273.038C414.415 273.038 412.549 274.901 412.549 277.194C412.549 279.487 414.415 281.351 416.712 281.351C419.009 281.494 420.875 279.631 420.875 277.194Z" fill="#5878D2"/>
<path d="M415.42 249.245C415.42 246.952 413.554 245.089 411.257 245.089C408.96 245.089 407.094 246.952 407.094 249.245C407.094 251.539 408.96 253.402 411.257 253.402C413.554 253.402 415.42 251.539 415.42 249.245Z" fill="#5878D2"/>
<path d="M386.567 255.695C387.915 255.695 389.007 254.604 389.007 253.259C389.007 251.913 387.915 250.822 386.567 250.822C385.219 250.822 384.127 251.913 384.127 253.259C384.127 254.604 385.219 255.695 386.567 255.695Z" fill="#5878D2"/>
<path d="M413.697 316.322C415.045 316.322 416.138 315.231 416.138 313.886C416.138 312.54 415.045 311.449 413.697 311.449C412.35 311.449 411.257 312.54 411.257 313.886C411.257 315.231 412.35 316.322 413.697 316.322Z" fill="#5878D2"/>
<path d="M392.022 323.632C393.37 323.632 394.462 322.541 394.462 321.195C394.462 319.85 393.37 318.759 392.022 318.759C390.674 318.759 389.582 319.85 389.582 321.195C389.582 322.541 390.674 323.632 392.022 323.632Z" fill="#5878D2"/>
<path d="M399.917 276.191C399.917 274.757 398.769 273.754 397.477 273.754C396.041 273.754 395.037 274.901 395.037 276.191C395.037 277.481 396.185 278.627 397.477 278.627C398.769 278.627 399.917 277.624 399.917 276.191Z" fill="#5878D2"/>
<path d="M67.6098 245.232C41.9152 245.232 21.6753 233.193 21.6753 217.713C21.6753 202.234 41.9152 190.195 67.6098 190.195C93.3044 190.195 113.544 202.234 113.544 217.713C113.544 233.193 93.4479 245.232 67.6098 245.232Z" fill="#5878D2"/>
<path d="M24.259 157.086V226.743C30.4315 237.636 47.2263 245.232 67.7533 245.232C88.2802 245.232 105.075 237.636 111.247 226.743V157.086H24.259Z" fill="url(#paint4_linear)"/>
<path d="M67.6097 182.168C91.6309 182.168 111.104 170.939 111.104 157.086C111.104 143.234 91.6309 132.004 67.6097 132.004C43.5885 132.004 24.1155 143.234 24.1155 157.086C24.1155 170.939 43.5885 182.168 67.6097 182.168Z" fill="url(#paint5_linear)"/>
<path opacity="0.5" d="M105.075 75.6765C105.075 66.7902 89.7159 56.7573 67.7534 56.7573C45.791 56.7573 30.4316 66.7902 30.4316 75.6765V157.086C30.4316 165.972 45.791 176.005 67.7534 176.005C89.7159 176.005 105.075 165.972 105.075 157.086V75.6765Z" fill="white"/>
<path d="M67.6099 172.422C47.0829 172.422 34.0203 163.392 34.0203 157.229C34.0203 151.066 47.0829 142.037 67.6099 142.037C88.1368 142.037 101.199 151.066 101.199 157.229C101.343 163.392 88.2804 172.422 67.6099 172.422Z" stroke="#69B9F0" stroke-width="1.1749" stroke-miterlimit="10" stroke-linecap="round" stroke-linejoin="round"/>
<path d="M87.5626 78.113L65.1695 89.8658L44.6425 101.475L69.4759 119.534L44.0684 139.17L79.8111 154.076L82.682 132.147L69.4759 119.534" stroke="#5878D2" stroke-miterlimit="10" stroke-linecap="round" stroke-linejoin="round"/>
<path d="M86.8449 132.147C86.8449 129.854 84.9788 127.991 82.6821 127.991C80.3854 127.991 78.5193 129.854 78.5193 132.147C78.5193 134.44 80.3854 136.304 82.6821 136.304C84.9788 136.304 86.8449 134.44 86.8449 132.147Z" fill="#5878D2"/>
<path d="M48.8054 101.475C48.8054 99.1821 46.9393 97.3188 44.6425 97.3188C42.3458 97.3188 40.4797 99.1821 40.4797 101.475C40.4797 103.769 42.3458 105.632 44.6425 105.632C46.9393 105.775 48.8054 103.912 48.8054 101.475Z" fill="#5878D2"/>
<path d="M48.3747 139.17C48.3747 136.877 46.5086 135.014 44.2119 135.014C41.9152 135.014 40.0491 136.877 40.0491 139.17C40.0491 141.463 41.9152 143.327 44.2119 143.327C46.3651 143.327 48.3747 141.463 48.3747 139.17Z" fill="#5878D2"/>
<path d="M83.9741 154.076C83.9741 151.783 82.108 149.92 79.8112 149.92C77.5145 149.92 75.6484 151.783 75.6484 154.076C75.6484 156.369 77.5145 158.233 79.8112 158.233C82.108 158.233 83.9741 156.369 83.9741 154.076Z" fill="#5878D2"/>
<path d="M69.4759 121.971C70.8236 121.971 71.9162 120.88 71.9162 119.534C71.9162 118.189 70.8236 117.098 69.4759 117.098C68.1282 117.098 67.0356 118.189 67.0356 119.534C67.0356 120.88 68.1282 121.971 69.4759 121.971Z" fill="#5878D2"/>
<path d="M65.1695 92.3023C66.5172 92.3023 67.6098 91.2114 67.6098 89.8658C67.6098 88.5201 66.5172 87.4292 65.1695 87.4292C63.8218 87.4292 62.7292 88.5201 62.7292 89.8658C62.7292 91.2114 63.8218 92.3023 65.1695 92.3023Z" fill="#5878D2"/>
<path d="M90.1464 78.1131C90.1464 76.6798 88.998 75.6765 87.7061 75.6765C86.2707 75.6765 85.2659 76.8231 85.2659 78.1131C85.2659 79.5463 86.4142 80.5496 87.7061 80.5496C88.998 80.6929 90.1464 79.5463 90.1464 78.1131Z" fill="#5878D2"/>
<path d="M45.9345 408.195C20.2399 408.195 0 396.155 0 380.676C0 365.197 20.2399 353.157 45.9345 353.157C71.6291 353.157 91.869 365.197 91.869 380.676C91.869 396.155 71.6291 408.195 45.9345 408.195Z" fill="#5878D2"/>
<path d="M2.44019 320.049V389.705C8.61263 400.598 25.4074 408.195 45.9344 408.195C66.3178 408.195 83.2562 400.598 89.4286 389.705V320.049H2.44019Z" fill="url(#paint6_linear)"/>
<path d="M45.9344 345.131C69.9556 345.131 89.4286 333.901 89.4286 320.049C89.4286 306.196 69.9556 294.967 45.9344 294.967C21.9132 294.967 2.44019 306.196 2.44019 320.049C2.44019 333.901 21.9132 345.131 45.9344 345.131Z" fill="url(#paint7_linear)"/>
<path opacity="0.5" d="M83.2563 238.639C83.2563 229.753 67.897 219.72 45.9346 219.72C23.9721 219.72 8.61279 229.753 8.61279 238.639V320.049C8.61279 328.935 23.9721 338.968 45.9346 338.968C67.897 338.968 83.2563 328.935 83.2563 320.049V238.639Z" fill="white"/>
<path d="M45.9346 335.385C25.4076 335.385 12.345 326.355 12.345 320.192C12.345 314.029 25.4076 305 45.9346 305C66.4615 305 79.5242 314.029 79.5242 320.192C79.5242 326.355 66.4615 335.385 45.9346 335.385Z" stroke="#69B9F0" stroke-width="1.1749" stroke-miterlimit="10" stroke-linecap="round" stroke-linejoin="round"/>
<path d="M29.5703 272.751V277.481L62.2986 296.257V291.67L29.5703 272.751Z" fill="#A0B4F0"/>
<path d="M29.5703 263.435V268.164L62.2986 286.94V282.21L29.5703 263.435Z" fill="#A0B4F0"/>
<path d="M54.9778 268.594L29.5703 253.975V258.705L54.9778 273.324V268.594Z" fill="#A0B4F0"/>
<path d="M53.1117 295.826L29.5703 282.21V286.94L53.1117 300.556V295.826Z" fill="#A0B4F0"/>
<path d="M56.8439 316.752L29.5703 300.986V305.716L56.8439 321.339V316.752Z" fill="#5878D2"/>
<path d="M41.341 251.395L29.5703 244.659V249.388L41.341 256.125V251.395Z" fill="#5878D2"/>
<path d="M223.5 356.024C178.14 356.024 141.392 334.238 141.392 307.579C141.392 280.92 178.283 259.135 223.5 259.135C268.86 259.135 305.608 280.92 305.608 307.579C305.608 334.238 268.86 356.024 223.5 356.024Z" fill="#5878D2"/>
<path d="M143.832 186.325V319.189C152.732 340.258 185.173 355.88 223.5 355.88C261.97 355.88 294.268 340.258 303.168 319.189V186.325H143.832Z" fill="url(#paint8_linear)"/>
<path d="M223.5 232.333C267.499 232.333 303.168 211.734 303.168 186.325C303.168 160.915 267.499 140.317 223.5 140.317C179.501 140.317 143.832 160.915 143.832 186.325C143.832 211.734 179.501 232.333 223.5 232.333Z" fill="url(#paint9_linear)"/>
<path d="M223.5 225.023C184.312 225.023 151.153 207.394 151.153 186.468C151.153 165.542 184.312 147.913 223.5 147.913C262.688 147.913 295.847 165.542 295.847 186.468C295.847 207.25 262.688 225.023 223.5 225.023Z" stroke="white" stroke-width="1.1749" stroke-miterlimit="10" stroke-linecap="round" stroke-linejoin="round"/>
<path d="M223.5 174.715C246.57 174.715 265.272 156.042 265.272 133.007C265.272 109.972 246.57 91.2991 223.5 91.2991C200.43 91.2991 181.728 109.972 181.728 133.007C181.728 156.042 200.43 174.715 223.5 174.715Z" fill="url(#paint10_radial)"/>
<path d="M181.585 130.427C181.585 143.757 200.389 154.506 223.356 154.506C246.467 154.506 265.128 143.757 265.128 130.427" stroke="#69B9F0" stroke-width="1.1749" stroke-miterlimit="10" stroke-linecap="round" stroke-linejoin="round"/>
<path d="M223.5 148.63C211.442 148.63 200.102 145.763 191.489 140.46C188.188 138.453 187.039 134.01 189.193 130.571C191.202 127.274 195.652 126.127 199.097 128.277C205.27 132.147 214.169 134.297 223.5 134.297C227.519 134.297 230.677 137.45 230.677 141.463C230.677 145.476 227.376 148.63 223.5 148.63Z" fill="#A0B4F0"/>
<path d="M201.825 135.73C201.825 133.437 199.959 131.717 197.805 131.717C195.509 131.717 193.786 133.581 193.786 135.73C193.786 138.024 195.652 139.744 197.805 139.744C199.959 139.887 201.825 138.024 201.825 135.73Z" fill="#5878D2"/>
<path d="M197.088 132.577C197.088 131.86 196.514 131.287 195.796 131.287C195.078 131.287 194.504 131.86 194.504 132.577C194.504 133.294 195.078 133.867 195.796 133.867C196.514 133.867 197.088 133.294 197.088 132.577Z" fill="#F9F9F9"/>
<path d="M225.223 141.607C225.223 139.314 223.357 137.594 221.203 137.594C218.907 137.594 217.184 139.457 217.184 141.607C217.184 143.9 219.05 145.62 221.203 145.62C223.357 145.763 225.223 143.9 225.223 141.607Z" fill="#5878D2"/>
<path d="M220.629 138.597C220.629 137.88 220.055 137.307 219.337 137.307C218.619 137.307 218.045 137.88 218.045 138.597C218.045 139.313 218.619 139.887 219.337 139.887C220.055 139.887 220.629 139.313 220.629 138.597Z" fill="#F9F9F9"/>
<path d="M105.075 0V54.3208L170.245 91.8724L177.566 104.485V41.7081L105.075 0Z" fill="url(#paint11_linear)"/>
<path d="M113.975 13.4727V21.7856L171.967 55.1807V46.8678L113.975 13.4727Z" fill="#F9F9F9"/>
<path d="M113.975 25.9421V34.2551L171.967 67.7935V59.3373L113.975 25.9421Z" fill="#F9F9F9"/>
<path d="M143.115 55.3242V63.6372L171.967 80.2631V71.9501L143.115 55.3242Z" fill="#27C5B2"/>
<path d="M275.32 27.6621V94.4524L283.215 86.4261L347.81 123.691V69.3702L275.32 27.6621Z" fill="url(#paint12_linear)"/>
<path d="M278.909 50.5945V58.9074L336.901 92.4459V83.9896L278.909 50.5945Z" fill="#27C5B2"/>
<path d="M278.909 38.125V46.438L336.901 79.8331V71.5201L278.909 38.125Z" fill="#F9F9F9"/>
<path d="M305.034 78.1133L278.909 63.2073V71.5202L305.034 86.5695V78.1133Z" fill="#F9F9F9"/>
<path d="M221.634 192.774V257.845L229.529 262.431L294.124 299.696V245.375L230.534 208.684L221.634 192.774Z" fill="url(#paint13_linear)"/>
<path d="M225.223 226.6V234.913L283.215 268.308V259.995L225.223 226.6Z" fill="#27C5B2"/>
<path d="M225.223 213.987V222.443L283.215 255.838V247.382L225.223 213.987Z" fill="#27C5B2"/>
<path d="M251.348 254.118L225.223 239.069V247.382L251.348 262.431V254.118Z" fill="#F9F9F9"/>
<defs>
<linearGradient id="paint0_linear" x1="335.807" y1="201.188" x2="422.768" y2="201.188" gradientUnits="userSpaceOnUse">
<stop stop-color="white"/>
<stop offset="0.3664" stop-color="#E7E8FC"/>
<stop offset="0.6497" stop-color="#BEC9D5"/>
<stop offset="1" stop-color="#F4F2FB"/>
</linearGradient>
<linearGradient id="paint1_linear" x1="379.246" y1="132.004" x2="379.246" y2="182.168" gradientUnits="userSpaceOnUse">
<stop stop-color="#34EAC4"/>
<stop offset="1" stop-color="#11E2D9"/>
</linearGradient>
<linearGradient id="paint2_linear" x1="357.547" y1="364.127" x2="444.508" y2="364.127" gradientUnits="userSpaceOnUse">
<stop stop-color="white"/>
<stop offset="0.3664" stop-color="#E7E8FC"/>
<stop offset="0.6497" stop-color="#BEC9D5"/>
<stop offset="1" stop-color="#F4F2FB"/>
</linearGradient>
<linearGradient id="paint3_linear" x1="401.065" y1="294.967" x2="401.065" y2="345.131" gradientUnits="userSpaceOnUse">
<stop stop-color="#34EAC4"/>
<stop offset="1" stop-color="#11E2D9"/>
</linearGradient>
<linearGradient id="paint4_linear" x1="24.1959" y1="201.188" x2="111.157" y2="201.188" gradientUnits="userSpaceOnUse">
<stop stop-color="white"/>
<stop offset="0.3664" stop-color="#E7E8FC"/>
<stop offset="0.6497" stop-color="#BEC9D5"/>
<stop offset="1" stop-color="#F4F2FB"/>
</linearGradient>
<linearGradient id="paint5_linear" x1="67.6097" y1="132.004" x2="67.6097" y2="182.168" gradientUnits="userSpaceOnUse">
<stop stop-color="#34EAC4"/>
<stop offset="1" stop-color="#11E2D9"/>
</linearGradient>
<linearGradient id="paint6_linear" x1="2.45569" y1="364.127" x2="89.4167" y2="364.127" gradientUnits="userSpaceOnUse">
<stop stop-color="white"/>
<stop offset="0.3664" stop-color="#E7E8FC"/>
<stop offset="0.6497" stop-color="#BEC9D5"/>
<stop offset="1" stop-color="#F4F2FB"/>
</linearGradient>
<linearGradient id="paint7_linear" x1="45.9344" y1="294.967" x2="45.9344" y2="345.131" gradientUnits="userSpaceOnUse">
<stop stop-color="#34EAC4"/>
<stop offset="1" stop-color="#11E2D9"/>
</linearGradient>
<linearGradient id="paint8_linear" x1="143.768" y1="271.175" x2="303.196" y2="271.175" gradientUnits="userSpaceOnUse">
<stop stop-color="white"/>
<stop offset="0.3664" stop-color="#E7E8FC"/>
<stop offset="0.6497" stop-color="#BEC9D5"/>
<stop offset="1" stop-color="#F4F2FB"/>
</linearGradient>
<linearGradient id="paint9_linear" x1="223.5" y1="140.317" x2="223.5" y2="232.333" gradientUnits="userSpaceOnUse">
<stop stop-color="#33EAC4"/>
<stop offset="1" stop-color="#11E2D8"/>
</linearGradient>
<radialGradient id="paint10_radial" cx="0" cy="0" r="1" gradientUnits="userSpaceOnUse" gradientTransform="translate(252.624 156.906) scale(75.3663 75.2516)">
<stop offset="0.3503" stop-color="#BEC9D5"/>
<stop offset="0.6336" stop-color="#E7E8FC"/>
<stop offset="1" stop-color="white"/>
</radialGradient>
<linearGradient id="paint11_linear" x1="141.32" y1="0" x2="141.32" y2="104.485" gradientUnits="userSpaceOnUse">
<stop stop-color="#35EAC3"/>
<stop offset="1" stop-color="#0DE1DB"/>
</linearGradient>
<linearGradient id="paint12_linear" x1="311.565" y1="27.6621" x2="311.565" y2="123.691" gradientUnits="userSpaceOnUse">
<stop stop-color="#35EAC3"/>
<stop offset="1" stop-color="#0DE1DB"/>
</linearGradient>
<linearGradient id="paint13_linear" x1="257.879" y1="192.774" x2="257.879" y2="299.696" gradientUnits="userSpaceOnUse">
<stop stop-color="#35EAC3"/>
<stop offset="1" stop-color="#0DE1DB"/>
</linearGradient>
</defs>
</svg>
