<svg width="454" height="347" viewBox="0 0 454 347" fill="none" xmlns="http://www.w3.org/2000/svg">
<g clip-path="url(#clip0)">
<path d="M185.136 156.807C181.531 147.055 179.754 130.741 179.316 123.802L186.45 119.864L194.334 116.864L206.348 113.114L218.738 110.676L238.824 109.55L251.214 110.676L263.041 113.301L272.051 115.552L281.062 118.927L293.452 125.491L292.138 133.554L290.073 146.494L285.943 159.995L277.308 178.748L265.857 194.5L251.59 208.752L236.76 219.816L220.239 208.189L210.478 198.812L201.655 188.498C197.651 181.998 188.74 166.558 185.136 156.807Z" fill="url(#paint0_linear)"/>
<path d="M174.998 236.565C240.244 236.565 293.136 183.729 293.136 118.551C293.136 53.3746 240.244 0.538086 174.998 0.538086C109.752 0.538086 56.8596 53.3746 56.8596 118.551C56.8596 183.729 109.752 236.565 174.998 236.565Z" stroke="#15E3D6" stroke-width="2"/>
<path d="M297.395 236.565C362.64 236.565 415.533 183.729 415.533 118.551C415.533 53.3746 362.64 0.538086 297.395 0.538086C232.149 0.538086 179.256 53.3746 179.256 118.551C179.256 183.729 232.149 236.565 297.395 236.565Z" stroke="#15E3D6" stroke-width="2"/>
<path d="M234.695 345.706C299.941 345.706 352.833 292.869 352.833 227.692C352.833 162.515 299.941 109.679 234.695 109.679C169.449 109.679 116.556 162.515 116.556 227.692C116.556 292.869 169.449 345.706 234.695 345.706Z" stroke="#15E3D6" stroke-width="2"/>
<path d="M144.211 81.7969H0.415039V139.93H144.211V81.7969Z" fill="white"/>
<path d="M436.506 81.9365H330.376V139.719H436.506V81.9365Z" fill="white"/>
<path d="M222.667 145.166V164.842H232.516C236.223 164.842 239.183 162.825 239.183 158.983C239.183 156.247 237.633 154.755 235.586 154.175C237.191 153.456 238.27 152.019 238.27 150.112C238.27 146.63 235.448 145.166 231.99 145.166H222.667ZM226.872 148.51H230.801C232.461 148.51 234.065 148.841 234.065 150.831C234.065 152.821 232.378 153.125 230.801 153.125H226.872V148.51ZM226.872 156.054H230.995C232.931 156.054 234.867 156.357 234.867 158.734C234.867 161.056 233.069 161.415 231.216 161.415H226.872V156.054ZM249.698 145.166H245.355V164.842H249.698V145.166Z" fill="#00516B"/>
<path d="M404.193 104.306H393.871V118.616H404.313V116.465H396.366V112.244H403.63V110.215H396.366V106.416H404.193V104.306ZM419.159 104.306H407.51V106.477H412.077V118.616H414.593V106.477H419.159V104.306ZM432.917 116.445H425.633V104.306H423.098V118.616H432.917V116.445Z" fill="#00516B"/>
<path d="M4.43201 100.775C4.43201 99.1427 4.78227 97.8281 5.48281 96.8315C6.18336 95.8292 7.1679 95.3281 8.43647 95.3281C8.99186 95.3281 9.48722 95.4419 9.92272 95.6687C10.3645 95.889 10.7463 96.2077 11.0682 96.6241V90.9971H13.3686V105.749H11.4374L11.2102 104.482C10.882 104.962 10.4876 105.327 10.0268 105.579C9.56614 105.825 9.02966 105.948 8.41749 105.948C7.16158 105.948 6.18336 105.491 5.48281 104.577C4.78227 103.663 4.43201 102.462 4.43201 100.974V100.775ZM6.73242 100.974C6.73242 101.919 6.91229 102.673 7.27203 103.234C7.63808 103.795 8.21553 104.076 9.00446 104.076C9.49037 104.076 9.90066 103.972 10.2351 103.763C10.5759 103.555 10.8536 103.259 11.0682 102.875V98.4108C10.8536 98.0331 10.5759 97.7394 10.2351 97.532C9.89428 97.3173 9.49037 97.21 9.02336 97.21C8.24082 97.21 7.66332 97.5408 7.29096 98.2034C6.9186 98.8586 6.73242 99.7165 6.73242 100.775V100.974ZM20.7167 105.948C19.2651 105.948 18.1071 105.475 17.2424 104.529C16.3841 103.578 15.9549 102.358 15.9549 100.87V100.492C15.9549 99.0039 16.3809 97.7708 17.2329 96.7944C18.0912 95.8107 19.1641 95.3217 20.4516 95.3281C21.8338 95.3281 22.8909 95.7477 23.623 96.5862C24.3614 97.4182 24.7306 98.5375 24.7306 99.9432V101.296H18.3405L18.3216 101.343C18.3595 102.156 18.5961 102.821 19.0316 103.338C19.4734 103.855 20.0825 104.114 20.8587 104.114C21.4772 104.114 22.0074 104.038 22.4492 103.887C22.8909 103.735 23.3169 103.518 23.7271 103.234L24.4655 104.737C24.0806 105.078 23.5694 105.365 22.9319 105.599C22.2945 105.832 21.5561 105.948 20.7167 105.948ZM20.4516 97.1721C19.8837 97.1721 19.4166 97.3996 19.0505 97.8531C18.6845 98.301 18.4573 98.8715 18.369 99.5647L18.3879 99.6124H22.4492V99.3759C22.4492 98.7263 22.2819 98.1969 21.9474 97.787C21.6192 97.377 21.1206 97.1721 20.4516 97.1721ZM31.3024 104.114C31.8641 104.114 32.3375 103.95 32.7224 103.621C33.1074 103.287 33.2999 102.872 33.2999 102.374H35.3826L35.4015 102.43C35.4331 103.388 35.0418 104.215 34.2276 104.908C33.4198 105.602 32.4447 105.948 31.3024 105.948C29.794 105.948 28.6359 105.463 27.8281 104.492C27.0266 103.521 26.6259 102.292 26.6259 100.803V100.473C26.6259 98.991 27.0266 97.7652 27.8281 96.7944C28.6359 95.8171 29.794 95.3281 31.3024 95.3281C32.5331 95.3281 33.5302 95.6872 34.294 96.4062C35.0639 97.1188 35.4362 98.0266 35.411 99.1298L35.392 99.1863H33.2999C33.2999 98.6254 33.1137 98.1493 32.7414 97.7587C32.3754 97.3673 31.8957 97.1721 31.3024 97.1721C30.4378 97.1721 29.8256 97.4876 29.4659 98.1178C29.1062 98.7424 28.9263 99.5268 28.9263 100.473V100.803C28.9263 101.769 29.1062 102.563 29.4659 103.186C29.8256 103.805 30.4378 104.114 31.3024 104.114ZM40.1936 105.749H37.8932V95.5169H40.1936V105.749ZM40.1936 93.0113H37.8932V90.9971H40.1936V93.0113ZM49.0185 102.969C49.0185 102.616 48.867 102.323 48.5641 102.09C48.2612 101.857 47.6963 101.652 46.8695 101.475C45.6452 101.217 44.7175 100.851 44.0863 100.378C43.4615 99.8988 43.1491 99.2492 43.1491 98.4301C43.1491 97.5723 43.512 96.8412 44.2378 96.236C44.9636 95.6307 45.9197 95.3281 47.1062 95.3281C48.3558 95.3281 49.3466 95.6372 50.0788 96.2553C50.8172 96.8662 51.1706 97.6264 51.1391 98.5342L51.1201 98.5907H48.9144C48.9144 98.1687 48.7535 97.8055 48.4315 97.5029C48.1097 97.2003 47.6679 97.0494 47.1062 97.0494C46.5508 97.0494 46.128 97.1753 45.8377 97.4279C45.5473 97.6732 45.4022 97.9758 45.4022 98.3357C45.4022 98.6948 45.5379 98.9813 45.8092 99.196C46.087 99.4042 46.6455 99.5898 47.4849 99.7536C48.7724 100.019 49.7254 100.394 50.3438 100.879C50.9687 101.359 51.2811 102.014 51.2811 102.847C51.2811 103.767 50.8992 104.514 50.1356 105.088C49.3782 105.661 48.3779 105.948 47.1346 105.948C45.8029 105.948 44.7521 105.607 43.9822 104.927C43.2122 104.246 42.8462 103.464 42.884 102.581L42.903 102.525H45.0424C45.0677 103.117 45.2823 103.55 45.6862 103.821C46.0901 104.091 46.5824 104.227 47.163 104.227C47.7563 104.227 48.2138 104.114 48.5357 103.887C48.8576 103.659 49.0185 103.353 49.0185 102.969ZM56.2908 105.749H53.9904V95.5169H56.2908V105.749ZM56.2908 93.0113H53.9904V90.9971H56.2908V93.0113ZM58.934 100.539C58.934 99.0192 59.3505 97.7708 60.1836 96.7944C61.0293 95.8171 62.1747 95.3281 63.62 95.3281C65.0905 95.3281 66.2423 95.8171 67.0753 96.7944C67.9148 97.7652 68.3344 99.0136 68.3344 100.539V100.737C68.3344 102.275 67.9148 103.53 67.0753 104.501C66.2423 105.466 65.0968 105.948 63.6389 105.948C62.1747 105.948 61.023 105.463 60.1836 104.492C59.3505 103.521 58.934 102.27 58.934 100.737V100.539ZM61.2344 100.737C61.2344 101.734 61.4301 102.547 61.8213 103.178C62.2063 103.801 62.8122 104.114 63.6389 104.114C64.4404 104.114 65.04 103.801 65.4376 103.178C65.8415 102.547 66.0435 101.734 66.0435 100.737V100.539C66.0435 99.5615 65.8415 98.7578 65.4376 98.1275C65.04 97.4908 64.4341 97.1721 63.62 97.1721C62.8185 97.1721 62.2189 97.4908 61.8213 98.1275C61.4301 98.7642 61.2344 99.568 61.2344 100.539V100.737ZM72.9088 95.5169L73.0413 96.9929C73.3758 96.4692 73.7955 96.0625 74.3004 95.7728C74.8116 95.4766 75.3859 95.3281 76.0233 95.3281C77.0899 95.3281 77.9199 95.6525 78.5131 96.3021C79.1126 96.9453 79.4124 97.9508 79.4124 99.3186V105.749H77.1121V99.338C77.1121 98.5689 76.9511 98.0234 76.6292 97.7022C76.3137 97.3738 75.8308 97.21 75.1808 97.21C74.7327 97.21 74.332 97.3109 73.9786 97.5126C73.6251 97.7079 73.3348 97.979 73.1076 98.326V105.749H70.8072V95.5169H72.9088ZM86.7229 100.823H81.7523V98.9692H86.7229V100.823ZM6.95962 118.919L7.0827 120.253C7.41719 119.767 7.83688 119.392 8.34179 119.127C8.84669 118.863 9.43043 118.73 10.0931 118.73C10.7621 118.73 11.3364 118.882 11.8161 119.185C12.2957 119.487 12.6554 119.941 12.8953 120.546C13.2108 119.979 13.6273 119.534 14.1449 119.213C14.6624 118.891 15.2683 118.73 15.9625 118.73C16.9912 118.73 17.8022 119.084 18.3955 119.79C18.995 120.49 19.2948 121.555 19.2948 122.986V129.152H16.9944V122.977C16.9944 122.107 16.8429 121.495 16.54 121.142C16.2433 120.789 15.7952 120.612 15.1957 120.612C14.7034 120.612 14.2869 120.745 13.9461 121.009C13.6053 121.274 13.3591 121.631 13.2077 122.079C13.2077 122.173 13.2108 122.254 13.2171 122.324C13.2234 122.393 13.2266 122.459 13.2266 122.522V129.152H10.9262V122.977C10.9262 122.138 10.7716 121.536 10.4623 121.171C10.1594 120.799 9.71131 120.612 9.11804 120.612C8.65103 120.612 8.25342 120.703 7.92524 120.887C7.60337 121.063 7.34776 121.315 7.15843 121.643V129.152H4.85801V118.919H6.95962ZM28.3753 129.152C28.2932 128.894 28.2238 128.641 28.1671 128.396C28.1166 128.149 28.0818 127.903 28.0629 127.658C27.7473 128.137 27.3308 128.54 26.8133 128.868C26.3021 129.19 25.7277 129.35 25.0904 129.35C24.0238 129.35 23.2033 129.076 22.629 128.528C22.061 127.979 21.777 127.225 21.777 126.268C21.777 125.277 22.1683 124.508 22.9508 123.96C23.7334 123.405 24.8348 123.128 26.2548 123.128H28.0439V122.229C28.0439 121.694 27.8862 121.274 27.5706 120.971C27.2551 120.669 26.8038 120.518 26.2169 120.518C25.6931 120.518 25.2766 120.644 24.9672 120.896C24.658 121.148 24.5034 121.473 24.5034 121.87H22.2882L22.2787 121.813C22.2345 121.006 22.5942 120.291 23.358 119.667C24.1279 119.043 25.1282 118.73 26.3589 118.73C27.5517 118.73 28.5142 119.033 29.2462 119.638C29.9784 120.244 30.3444 121.113 30.3444 122.248V126.797C30.3444 127.22 30.3727 127.627 30.4296 128.017C30.4864 128.401 30.5779 128.78 30.7041 129.152H28.3753ZM25.5542 127.506C26.1349 127.506 26.6555 127.361 27.1162 127.071C27.5832 126.782 27.8925 126.451 28.0439 126.079V124.566H26.2169C25.5479 124.566 25.0241 124.733 24.6454 125.067C24.2668 125.394 24.0774 125.782 24.0774 126.23C24.0774 126.62 24.2036 126.933 24.456 127.166C24.7148 127.393 25.0809 127.506 25.5542 127.506ZM36.5754 124.679H35.5435V129.152H33.2526V114.399H35.5435V122.835H36.4996L39.0841 118.919H41.7916L38.4119 123.572L42.2933 129.152H39.6237L36.5754 124.679ZM46.328 129.152H44.0276V118.919H46.328V129.152ZM46.328 116.414H44.0276V114.399H46.328V116.414ZM51.4799 118.919L51.6124 120.395C51.9469 119.871 52.3666 119.465 52.8714 119.175C53.3826 118.879 53.957 118.73 54.5944 118.73C55.661 118.73 56.4909 119.055 57.0842 119.704C57.6838 120.348 57.9835 121.353 57.9835 122.721V129.152H55.6831V122.74C55.6831 121.971 55.5222 121.426 55.2002 121.105C54.8847 120.776 54.402 120.612 53.7519 120.612C53.3038 120.612 52.903 120.713 52.5496 120.915C52.1962 121.11 51.9058 121.381 51.6787 121.728V129.152H49.3782V118.919H51.4799ZM60.4468 124.178C60.4468 122.551 60.8034 121.237 61.5165 120.234C62.2297 119.232 63.2205 118.73 64.4891 118.73C65.1012 118.73 65.6377 118.863 66.0984 119.127C66.5654 119.387 66.9599 119.761 67.2817 120.253L67.509 118.919H69.4212V129.152C69.4212 130.47 69.0141 131.488 68.2 132.206C67.3859 132.925 66.2309 133.284 64.7352 133.284C64.2366 133.284 63.697 133.212 63.1164 133.067C62.542 132.928 62.0214 132.742 61.5544 132.509L62.0466 130.703C62.4253 130.898 62.8418 131.05 63.2962 131.157C63.7569 131.27 64.2303 131.327 64.7162 131.327C65.5494 131.327 66.1584 131.147 66.5433 130.788C66.9283 130.435 67.1208 129.889 67.1208 129.152V128.102C66.799 128.512 66.4171 128.824 65.9753 129.039C65.5399 129.246 65.0382 129.35 64.4701 129.35C63.2142 129.35 62.2297 128.894 61.5165 127.979C60.8034 127.065 60.4468 125.864 60.4468 124.376V124.178ZM62.7472 124.376C62.7472 125.315 62.9334 126.069 63.3057 126.636C63.6844 127.197 64.2681 127.478 65.0571 127.478C65.5494 127.478 65.9627 127.377 66.2972 127.175C66.638 126.967 66.9126 126.671 67.1208 126.286V121.804C66.9063 121.432 66.6285 121.142 66.2877 120.934C65.9533 120.72 65.5494 120.612 65.076 120.612C64.2871 120.612 63.7001 120.943 63.3152 121.606C62.9365 122.267 62.7472 123.124 62.7472 124.178V124.376ZM80.5011 116.432V118.919H82.338V120.622H80.5011V126.277C80.5011 126.699 80.5927 127.002 80.7756 127.185C80.959 127.361 81.2014 127.45 81.5043 127.45C81.6311 127.45 81.7539 127.44 81.8735 127.422C81.9938 127.396 82.1069 127.364 82.2144 127.326L82.4608 129.01C82.2653 129.117 82.0318 129.199 81.7604 129.256C81.489 129.319 81.2078 129.35 80.9178 129.35C80.0719 129.35 79.4093 129.105 78.9297 128.613C78.45 128.115 78.2101 127.336 78.2101 126.277V120.622H76.6481V118.919H78.2101V116.432H80.5011ZM84.4416 123.941C84.4416 122.422 84.8576 121.173 85.6905 120.197C86.5363 119.219 87.6818 118.73 89.127 118.73C90.598 118.73 91.7492 119.219 92.5829 120.197C93.4222 121.168 93.8415 122.416 93.8415 123.941V124.14C93.8415 125.678 93.4222 126.933 92.5829 127.903C91.7492 128.868 90.6037 129.35 89.1464 129.35C87.6818 129.35 86.5298 128.865 85.6905 127.894C84.8576 126.923 84.4416 125.672 84.4416 124.14V123.941ZM86.7415 124.14C86.7415 125.136 86.937 125.949 87.3288 126.58C87.7133 127.204 88.3191 127.516 89.1464 127.516C89.9477 127.516 90.5471 127.204 90.9446 126.58C91.3485 125.949 91.5505 125.136 91.5505 124.14V123.941C91.5505 122.964 91.3485 122.16 90.9446 121.53C90.5471 120.893 89.9413 120.574 89.127 120.574C88.3256 120.574 87.7262 120.893 87.3288 121.53C86.937 122.167 86.7415 122.97 86.7415 123.941V124.14ZM95.9071 123.941C95.9071 122.422 96.3239 121.173 97.1568 120.197C98.0026 119.219 99.1481 118.73 100.593 118.73C102.064 118.73 103.216 119.219 104.048 120.197C104.888 121.168 105.308 122.416 105.308 123.941V124.14C105.308 125.678 104.888 126.933 104.048 127.903C103.216 128.868 102.07 129.35 100.612 129.35C99.1481 129.35 97.9961 128.865 97.1568 127.894C96.3239 126.923 95.9071 125.672 95.9071 124.14V123.941ZM98.2078 124.14C98.2078 125.136 98.4033 125.949 98.7943 126.58C99.1796 127.204 99.7855 127.516 100.612 127.516C101.414 127.516 102.013 127.204 102.411 126.58C102.815 125.949 103.017 125.136 103.017 124.14V123.941C103.017 122.964 102.815 122.16 102.411 121.53C102.013 120.893 101.408 120.574 100.593 120.574C99.7919 120.574 99.1925 120.893 98.7943 121.53C98.4033 122.167 98.2078 122.97 98.2078 123.941V124.14ZM110.252 129.152H107.951V114.399H110.252V129.152ZM119.076 126.372C119.076 126.018 118.925 125.725 118.622 125.492C118.319 125.259 117.754 125.054 116.928 124.877C115.703 124.619 114.776 124.253 114.144 123.78C113.519 123.301 113.207 122.652 113.207 121.832C113.207 120.975 113.569 120.244 114.296 119.638C115.021 119.033 115.978 118.73 117.164 118.73C118.413 118.73 119.404 119.04 120.136 119.658C120.875 120.269 121.228 121.029 121.197 121.937L121.178 121.993H118.972C118.972 121.571 118.811 121.208 118.489 120.905C118.168 120.603 117.726 120.452 117.164 120.452C116.609 120.452 116.186 120.578 115.895 120.83C115.605 121.076 115.46 121.378 115.46 121.738C115.46 122.097 115.595 122.384 115.867 122.598C116.145 122.806 116.703 122.992 117.542 123.156C118.83 123.421 119.783 123.796 120.401 124.282C121.027 124.761 121.339 125.416 121.339 126.249C121.339 127.169 120.957 127.916 120.194 128.49C119.436 129.064 118.436 129.35 117.193 129.35C115.86 129.35 114.809 129.01 114.04 128.329C113.27 127.648 112.904 126.866 112.942 125.984L112.96 125.927H115.1C115.125 126.519 115.34 126.952 115.744 127.223C116.148 127.493 116.64 127.629 117.221 127.629C117.814 127.629 118.272 127.516 118.593 127.289C118.916 127.062 119.076 126.756 119.076 126.372Z" fill="#00516B"/>
<path d="M208.085 256.72C208.085 258.208 207.734 259.409 207.034 260.323C206.333 261.238 205.358 261.694 204.108 261.694C203.528 261.694 203.013 261.59 202.565 261.383C202.117 261.175 201.732 260.869 201.41 260.465V265.43H199.11V251.263H201.051L201.278 252.55C201.606 252.07 202.001 251.705 202.461 251.453C202.928 251.201 203.468 251.075 204.08 251.075C205.342 251.075 206.323 251.576 207.024 252.578C207.731 253.575 208.085 254.889 208.085 256.522V256.72ZM205.794 256.522C205.794 255.475 205.595 254.621 205.197 253.959C204.806 253.291 204.219 252.957 203.436 252.957C202.956 252.957 202.549 253.061 202.215 253.269C201.88 253.471 201.612 253.754 201.41 254.12V258.744C201.612 259.103 201.88 259.381 202.215 259.576C202.549 259.766 202.963 259.86 203.455 259.86C204.238 259.86 204.822 259.573 205.206 258.999C205.598 258.42 205.794 257.66 205.794 256.72V256.522ZM214.969 261.694C213.517 261.694 212.359 261.222 211.494 260.276C210.636 259.324 210.207 258.104 210.207 256.616V256.238C210.207 254.75 210.632 253.517 211.485 252.541C212.343 251.557 213.416 251.068 214.704 251.075C216.085 251.075 217.143 251.494 217.875 252.333C218.613 253.165 218.982 254.284 218.982 255.69V257.042H212.592L212.574 257.089C212.612 257.902 212.848 258.567 213.284 259.085C213.726 259.602 214.334 259.86 215.11 259.86C215.729 259.86 216.259 259.784 216.701 259.633C217.143 259.482 217.568 259.265 217.979 258.981L218.717 260.484C218.333 260.825 217.821 261.112 217.184 261.345C216.547 261.578 215.808 261.694 214.969 261.694ZM214.704 252.919C214.135 252.919 213.668 253.146 213.302 253.6C212.936 254.048 212.709 254.618 212.621 255.311L212.64 255.359H216.701V255.122C216.701 254.473 216.534 253.943 216.199 253.533C215.871 253.124 215.373 252.919 214.704 252.919ZM223.405 251.263L223.538 252.739C223.873 252.216 224.292 251.809 224.797 251.519C225.308 251.223 225.883 251.075 226.52 251.075C227.586 251.075 228.417 251.399 229.01 252.049C229.609 252.692 229.909 253.697 229.909 255.065V261.496H227.609V255.084C227.609 254.315 227.447 253.77 227.126 253.449C226.81 253.12 226.328 252.957 225.677 252.957C225.229 252.957 224.828 253.057 224.475 253.259C224.122 253.454 223.832 253.726 223.604 254.073V261.496H221.304V251.263H223.405ZM235.648 248.776V251.263H237.485V252.966H235.648V258.621C235.648 259.044 235.739 259.346 235.922 259.529C236.105 259.705 236.348 259.794 236.651 259.794C236.778 259.794 236.901 259.784 237.02 259.766C237.141 259.74 237.254 259.708 237.361 259.671L237.608 261.354C237.412 261.461 237.179 261.544 236.907 261.6C236.636 261.663 236.355 261.694 236.065 261.694C235.219 261.694 234.556 261.449 234.076 260.957C233.597 260.459 233.357 259.68 233.357 258.621V252.966H231.795V251.263H233.357V248.776H235.648ZM246.177 261.496C246.095 261.238 246.025 260.985 245.969 260.74C245.918 260.494 245.883 260.248 245.864 260.002C245.548 260.481 245.132 260.884 244.615 261.213C244.103 261.534 243.529 261.694 242.892 261.694C241.825 261.694 241.004 261.42 240.43 260.872C239.862 260.323 239.579 259.57 239.579 258.612C239.579 257.622 239.97 256.853 240.752 256.305C241.535 255.749 242.636 255.472 244.056 255.472H245.846V254.574C245.846 254.038 245.687 253.618 245.372 253.316C245.057 253.013 244.605 252.862 244.018 252.862C243.494 252.862 243.078 252.988 242.769 253.241C242.459 253.492 242.305 253.818 242.305 254.215H240.09L240.08 254.157C240.036 253.35 240.395 252.635 241.16 252.011C241.929 251.387 242.929 251.075 244.161 251.075C245.353 251.075 246.316 251.377 247.048 251.982C247.78 252.588 248.146 253.458 248.146 254.592V259.141C248.146 259.564 248.174 259.971 248.231 260.361C248.288 260.745 248.379 261.124 248.505 261.496H246.177ZM243.355 259.851C243.936 259.851 244.457 259.705 244.918 259.416C245.384 259.126 245.694 258.795 245.846 258.423V256.91H244.018C243.35 256.91 242.825 257.077 242.446 257.411C242.068 257.739 241.878 258.126 241.878 258.574C241.878 258.964 242.005 259.277 242.257 259.51C242.516 259.737 242.883 259.851 243.355 259.851ZM253.128 251.263L253.26 252.739C253.594 252.216 254.014 251.809 254.519 251.519C255.03 251.223 255.604 251.075 256.242 251.075C257.308 251.075 258.138 251.399 258.731 252.049C259.331 252.692 259.631 253.697 259.631 255.065V261.496H257.331V255.084C257.331 254.315 257.169 253.77 256.848 253.449C256.532 253.12 256.049 252.957 255.399 252.957C254.951 252.957 254.55 253.057 254.197 253.259C253.843 253.454 253.553 253.726 253.326 254.073V261.496H251.026V251.263H253.128ZM262.085 256.285C262.085 254.766 262.501 253.517 263.334 252.541C264.18 251.564 265.326 251.075 266.771 251.075C268.241 251.075 269.393 251.564 270.226 252.541C271.065 253.512 271.485 254.76 271.485 256.285V256.484C271.485 258.022 271.065 259.277 270.226 260.248C269.393 261.213 268.248 261.694 266.79 261.694C265.326 261.694 264.174 261.209 263.334 260.239C262.501 259.267 262.085 258.016 262.085 256.484V256.285ZM264.385 256.484C264.385 257.48 264.581 258.293 264.972 258.924C265.357 259.548 265.963 259.86 266.79 259.86C267.591 259.86 268.19 259.548 268.589 258.924C268.992 258.293 269.194 257.48 269.194 256.484V256.285C269.194 255.308 268.992 254.504 268.589 253.874C268.19 253.237 267.584 252.919 266.771 252.919C265.969 252.919 265.369 253.237 264.972 253.874C264.581 254.511 264.385 255.314 264.385 256.285V256.484ZM159.033 274.666L159.157 276C159.491 275.514 159.91 275.139 160.415 274.874C160.92 274.609 161.504 274.477 162.167 274.477C162.836 274.477 163.41 274.629 163.89 274.931C164.37 275.234 164.729 275.687 164.969 276.293C165.285 275.725 165.701 275.281 166.219 274.96C166.736 274.638 167.342 274.477 168.036 274.477C169.065 274.477 169.876 274.83 170.469 275.537C171.069 276.236 171.369 277.301 171.369 278.733V284.898H169.068V278.723C169.068 277.853 168.917 277.242 168.614 276.888C168.317 276.536 167.869 276.359 167.27 276.359C166.777 276.359 166.361 276.491 166.02 276.756C165.679 277.021 165.433 277.377 165.282 277.825C165.282 277.92 165.285 278.001 165.291 278.07C165.297 278.14 165.3 278.206 165.3 278.269V284.898H163V278.723C163 277.885 162.845 277.283 162.536 276.917C162.233 276.545 161.785 276.359 161.192 276.359C160.725 276.359 160.327 276.45 159.999 276.633C159.677 276.81 159.422 277.062 159.232 277.389V284.898H156.932V274.666H159.033ZM180.667 283.405C180.345 283.946 179.938 284.366 179.445 284.662C178.953 284.952 178.386 285.097 177.742 285.097C176.643 285.097 175.785 284.747 175.166 284.047C174.548 283.347 174.239 282.26 174.239 280.785V274.666H176.53V280.804C176.53 281.699 176.675 282.326 176.965 282.686C177.255 283.045 177.694 283.225 178.281 283.225C178.836 283.225 179.301 283.127 179.672 282.932C180.051 282.73 180.348 282.439 180.563 282.062V274.666H182.863V284.898H180.856L180.667 283.405ZM188.204 284.898H185.904V270.146H188.204V284.898ZM194.133 272.179V274.666H195.969V276.369H194.133V282.024C194.133 282.446 194.224 282.748 194.407 282.932C194.59 283.108 194.833 283.196 195.136 283.196C195.262 283.196 195.385 283.187 195.505 283.168C195.625 283.142 195.739 283.111 195.846 283.073L196.092 284.756C195.896 284.864 195.663 284.946 195.391 285.002C195.12 285.065 194.839 285.097 194.549 285.097C193.703 285.097 193.04 284.851 192.561 284.359C192.081 283.861 191.842 283.083 191.842 282.024V276.369H190.279V274.666H191.842V272.179H194.133ZM200.951 284.898H198.65V274.666H200.951V284.898ZM200.951 272.16H198.65V270.146H200.951V272.16ZM203.593 279.924C203.593 278.292 203.944 276.977 204.644 275.98C205.344 274.978 206.329 274.477 207.597 274.477C208.153 274.477 208.648 274.591 209.084 274.818C209.526 275.038 209.908 275.357 210.229 275.773V270.146H212.53V284.898H210.599L210.372 283.631C210.044 284.111 209.649 284.476 209.188 284.728C208.728 284.974 208.191 285.097 207.579 285.097C206.323 285.097 205.344 284.64 204.644 283.726C203.944 282.811 203.593 281.611 203.593 280.123V279.924ZM205.894 280.123C205.894 281.068 206.074 281.822 206.433 282.383C206.799 282.944 207.377 283.225 208.166 283.225C208.652 283.225 209.062 283.121 209.396 282.912C209.737 282.704 210.015 282.408 210.229 282.024V277.56C210.015 277.182 209.737 276.888 209.396 276.681C209.056 276.466 208.652 276.359 208.185 276.359C207.402 276.359 206.824 276.69 206.452 277.352C206.08 278.007 205.894 278.865 205.894 279.924V280.123ZM217.938 284.898H215.637V274.666H217.938V284.898ZM217.938 272.16H215.637V270.146H217.938V272.16ZM223.108 274.666L223.231 276C223.566 275.514 223.985 275.139 224.49 274.874C224.995 274.609 225.579 274.477 226.241 274.477C226.91 274.477 227.485 274.629 227.964 274.931C228.444 275.234 228.804 275.687 229.044 276.293C229.36 275.725 229.776 275.281 230.293 274.96C230.811 274.638 231.417 274.477 232.111 274.477C233.139 274.477 233.95 274.83 234.544 275.537C235.144 276.236 235.443 277.301 235.443 278.733V284.898H233.143V278.723C233.143 277.853 232.992 277.242 232.689 276.888C232.392 276.536 231.944 276.359 231.344 276.359C230.852 276.359 230.436 276.491 230.095 276.756C229.754 277.021 229.507 277.377 229.356 277.825C229.356 277.92 229.36 278.001 229.366 278.07C229.372 278.14 229.375 278.206 229.375 278.269V284.898H227.075V278.723C227.075 277.885 226.92 277.283 226.611 276.917C226.308 276.545 225.86 276.359 225.266 276.359C224.799 276.359 224.402 276.45 224.074 276.633C223.752 276.81 223.496 277.062 223.307 277.389V284.898H221.007V274.666H223.108ZM242.753 285.097C241.302 285.097 240.144 284.624 239.279 283.678C238.421 282.727 237.992 281.507 237.992 280.018V279.641C237.992 278.153 238.418 276.92 239.27 275.943C240.128 274.96 241.201 274.471 242.488 274.477C243.871 274.477 244.928 274.897 245.66 275.735C246.398 276.567 246.767 277.686 246.767 279.092V280.445H240.378L240.358 280.491C240.396 281.305 240.633 281.97 241.068 282.487C241.51 283.004 242.119 283.263 242.896 283.263C243.514 283.263 244.044 283.187 244.486 283.036C244.928 282.884 245.354 282.667 245.764 282.383L246.503 283.886C246.117 284.227 245.606 284.514 244.968 284.747C244.331 284.981 243.593 285.097 242.753 285.097ZM242.488 276.321C241.921 276.321 241.454 276.548 241.088 277.002C240.722 277.45 240.494 278.02 240.406 278.714L240.424 278.761H244.486V278.525C244.486 277.875 244.319 277.346 243.984 276.936C243.656 276.526 243.157 276.321 242.488 276.321ZM251.19 274.666L251.323 276.142C251.657 275.618 252.077 275.211 252.582 274.922C253.093 274.625 253.667 274.477 254.305 274.477C255.372 274.477 256.201 274.801 256.794 275.451C257.394 276.094 257.694 277.1 257.694 278.467V284.898H255.393V278.487C255.393 277.718 255.233 277.172 254.91 276.851C254.595 276.523 254.112 276.359 253.462 276.359C253.014 276.359 252.614 276.46 252.26 276.661C251.907 276.857 251.616 277.128 251.389 277.475V284.898H249.088V274.666H251.19ZM266.33 282.118C266.33 281.765 266.178 281.472 265.875 281.239C265.572 281.005 265.007 280.8 264.18 280.624C262.956 280.365 262.028 280 261.397 279.527C260.773 279.048 260.46 278.398 260.46 277.579C260.46 276.721 260.823 275.99 261.549 275.385C262.275 274.78 263.231 274.477 264.417 274.477C265.667 274.477 266.658 274.786 267.39 275.404C268.128 276.015 268.482 276.775 268.45 277.683L268.431 277.74H266.226C266.226 277.318 266.064 276.954 265.743 276.652C265.421 276.349 264.979 276.198 264.417 276.198C263.862 276.198 263.439 276.324 263.149 276.577C262.859 276.822 262.713 277.125 262.713 277.485C262.713 277.844 262.849 278.13 263.12 278.345C263.398 278.553 263.956 278.739 264.796 278.902C266.083 279.168 267.037 279.542 267.655 280.028C268.28 280.508 268.592 281.163 268.592 281.996C268.592 282.916 268.21 283.663 267.446 284.237C266.689 284.81 265.689 285.097 264.446 285.097C263.114 285.097 262.063 284.756 261.293 284.076C260.523 283.395 260.157 282.613 260.195 281.73L260.214 281.674H262.354C262.379 282.266 262.594 282.698 262.998 282.97C263.401 283.24 263.893 283.376 264.474 283.376C265.067 283.376 265.524 283.263 265.847 283.036C266.168 282.808 266.33 282.502 266.33 282.118ZM273.602 284.898H271.301V274.666H273.602V284.898ZM273.602 272.16H271.301V270.146H273.602V272.16ZM276.245 279.688C276.245 278.168 276.661 276.92 277.495 275.943C278.341 274.966 279.485 274.477 280.931 274.477C282.402 274.477 283.554 274.966 284.386 275.943C285.226 276.914 285.645 278.162 285.645 279.688V279.886C285.645 281.424 285.226 282.679 284.386 283.65C283.554 284.615 282.408 285.097 280.95 285.097C279.485 285.097 278.334 284.612 277.495 283.641C276.661 282.669 276.245 281.419 276.245 279.886V279.688ZM278.545 279.886C278.545 280.883 278.741 281.695 279.132 282.326C279.518 282.95 280.124 283.263 280.95 283.263C281.751 283.263 282.351 282.95 282.749 282.326C283.153 281.695 283.355 280.883 283.355 279.886V279.688C283.355 278.71 283.153 277.907 282.749 277.276C282.351 276.64 281.745 276.321 280.931 276.321C280.129 276.321 279.53 276.64 279.132 277.276C278.741 277.913 278.545 278.717 278.545 279.688V279.886ZM290.22 274.666L290.352 276.142C290.687 275.618 291.107 275.211 291.612 274.922C292.122 274.625 292.697 274.477 293.334 274.477C294.401 274.477 295.231 274.801 295.824 275.451C296.424 276.094 296.724 277.1 296.724 278.467V284.898H294.423V278.487C294.423 277.718 294.262 277.172 293.94 276.851C293.625 276.523 293.142 276.359 292.491 276.359C292.044 276.359 291.643 276.46 291.289 276.661C290.936 276.857 290.646 277.128 290.419 277.475V284.898H288.118V274.666H290.22ZM305.766 284.898C305.684 284.64 305.615 284.387 305.558 284.142C305.507 283.896 305.472 283.65 305.454 283.405C305.138 283.883 304.722 284.287 304.204 284.615C303.693 284.936 303.118 285.097 302.481 285.097C301.415 285.097 300.594 284.822 300.02 284.274C299.452 283.726 299.168 282.972 299.168 282.014C299.168 281.024 299.559 280.255 300.342 279.707C301.124 279.152 302.226 278.874 303.646 278.874H305.434V277.976C305.434 277.44 305.277 277.021 304.961 276.718C304.646 276.415 304.194 276.264 303.608 276.264C303.084 276.264 302.668 276.39 302.358 276.643C302.049 276.895 301.895 277.22 301.895 277.617H299.679L299.67 277.56C299.625 276.753 299.985 276.038 300.749 275.413C301.519 274.789 302.519 274.477 303.749 274.477C304.942 274.477 305.905 274.78 306.637 275.385C307.369 275.99 307.735 276.86 307.735 277.995V282.544C307.735 282.966 307.763 283.373 307.82 283.764C307.877 284.148 307.969 284.526 308.095 284.898H305.766ZM302.945 283.253C303.526 283.253 304.047 283.108 304.507 282.818C304.974 282.528 305.283 282.197 305.434 281.825V280.312H303.608C302.939 280.312 302.415 280.479 302.036 280.813C301.658 281.141 301.468 281.528 301.468 281.976C301.468 282.367 301.594 282.679 301.847 282.912C302.105 283.139 302.471 283.253 302.945 283.253ZM313.085 284.898H310.786V270.146H313.085V284.898ZM204.689 308.301C204.608 308.042 204.538 307.79 204.482 307.544C204.431 307.298 204.396 307.052 204.377 306.807C204.062 307.285 203.645 307.689 203.128 308.017C202.616 308.339 202.042 308.499 201.405 308.499C200.338 308.499 199.518 308.225 198.943 307.677C198.375 307.128 198.091 306.374 198.091 305.416C198.091 304.426 198.483 303.657 199.265 303.109C200.047 302.554 201.149 302.277 202.569 302.277H204.358V301.378C204.358 300.843 204.201 300.423 203.885 300.12C203.57 299.818 203.118 299.667 202.532 299.667C202.007 299.667 201.59 299.793 201.282 300.045C200.972 300.297 200.817 300.622 200.817 301.019H198.602L198.593 300.962C198.549 300.155 198.908 299.44 199.672 298.815C200.443 298.192 201.443 297.879 202.673 297.879C203.866 297.879 204.828 298.182 205.561 298.787C206.293 299.392 206.659 300.262 206.659 301.397V305.946C206.659 306.369 206.687 306.775 206.744 307.166C206.801 307.55 206.892 307.929 207.018 308.301H204.689ZM201.868 306.655C202.449 306.655 202.97 306.51 203.431 306.22C203.898 305.931 204.207 305.6 204.358 305.228V303.715H202.532C201.862 303.715 201.338 303.882 200.96 304.216C200.581 304.543 200.392 304.931 200.392 305.379C200.392 305.769 200.518 306.081 200.77 306.315C201.029 306.541 201.395 306.655 201.868 306.655ZM211.64 298.068L211.772 299.544C212.107 299.02 212.527 298.614 213.032 298.324C213.543 298.028 214.117 297.879 214.755 297.879C215.821 297.879 216.651 298.204 217.245 298.853C217.844 299.496 218.144 300.502 218.144 301.87V308.301H215.843V301.889C215.843 301.12 215.682 300.575 215.361 300.253C215.045 299.925 214.563 299.761 213.912 299.761C213.464 299.761 213.063 299.862 212.71 300.064C212.356 300.259 212.066 300.53 211.839 300.877V308.301H209.539V298.068H211.64ZM227.186 308.301C227.104 308.042 227.035 307.79 226.978 307.544C226.928 307.298 226.893 307.052 226.874 306.807C226.559 307.285 226.142 307.689 225.624 308.017C225.113 308.339 224.539 308.499 223.901 308.499C222.835 308.499 222.015 308.225 221.44 307.677C220.872 307.128 220.588 306.374 220.588 305.416C220.588 304.426 220.979 303.657 221.762 303.109C222.545 302.554 223.646 302.277 225.066 302.277H226.855V301.378C226.855 300.843 226.697 300.423 226.382 300.12C226.066 299.818 225.615 299.667 225.028 299.667C224.504 299.667 224.088 299.793 223.778 300.045C223.469 300.297 223.315 300.622 223.315 301.019H221.1L221.09 300.962C221.045 300.155 221.406 299.44 222.169 298.815C222.939 298.192 223.939 297.879 225.17 297.879C226.363 297.879 227.325 298.182 228.057 298.787C228.789 299.392 229.155 300.262 229.155 301.397V305.946C229.155 306.369 229.184 306.775 229.241 307.166C229.297 307.55 229.389 307.929 229.515 308.301H227.186ZM224.366 306.655C224.946 306.655 225.467 306.51 225.927 306.22C226.394 305.931 226.703 305.6 226.855 305.228V303.715H225.028C224.359 303.715 223.835 303.882 223.457 304.216C223.078 304.543 222.889 304.931 222.889 305.379C222.889 305.769 223.015 306.081 223.267 306.315C223.526 306.541 223.892 306.655 224.366 306.655ZM234.506 308.301H232.206V293.548H234.506V308.301ZM240.974 304.196L241.201 305.218H241.258L243.501 298.068H246.019L241.778 309.852C241.507 310.564 241.126 311.173 240.633 311.677C240.141 312.181 239.444 312.433 238.541 312.433C238.352 312.433 238.146 312.415 237.926 312.377C237.711 312.339 237.502 312.294 237.301 312.244L237.557 310.467C237.638 310.473 237.755 310.482 237.906 310.495C238.058 310.508 238.171 310.513 238.247 310.513C238.664 310.513 238.995 310.372 239.242 310.088C239.494 309.804 239.699 309.476 239.856 309.104L240.235 308.178L236.515 298.068H239.024L240.974 304.196ZM253.642 305.521C253.642 305.167 253.491 304.874 253.188 304.641C252.885 304.408 252.32 304.203 251.493 304.026C250.269 303.768 249.341 303.402 248.71 302.929C248.085 302.45 247.772 301.8 247.772 300.981C247.772 300.124 248.136 299.392 248.861 298.787C249.588 298.182 250.543 297.879 251.73 297.879C252.98 297.879 253.97 298.188 254.703 298.807C255.441 299.417 255.794 300.178 255.763 301.085L255.744 301.142H253.538C253.538 300.72 253.377 300.357 253.056 300.054C252.733 299.752 252.291 299.601 251.73 299.601C251.174 299.601 250.752 299.726 250.462 299.979C250.171 300.224 250.026 300.527 250.026 300.887C250.026 301.246 250.161 301.532 250.433 301.747C250.71 301.955 251.27 302.141 252.109 302.305C253.396 302.57 254.349 302.945 254.968 303.431C255.592 303.91 255.905 304.565 255.905 305.398C255.905 306.318 255.523 307.065 254.759 307.639C254.002 308.213 253.002 308.499 251.758 308.499C250.427 308.499 249.376 308.159 248.606 307.478C247.836 306.797 247.469 306.015 247.507 305.132L247.527 305.076H249.666C249.691 305.668 249.906 306.101 250.31 306.372C250.714 306.642 251.206 306.778 251.787 306.778C252.38 306.778 252.837 306.665 253.159 306.438C253.481 306.211 253.642 305.905 253.642 305.521ZM260.914 308.301H258.614V298.068H260.914V308.301ZM260.914 295.562H258.614V293.548H260.914V295.562ZM269.74 305.521C269.74 305.167 269.588 304.874 269.285 304.641C268.982 304.408 268.417 304.203 267.59 304.026C266.366 303.768 265.438 303.402 264.807 302.929C264.183 302.45 263.87 301.8 263.87 300.981C263.87 300.124 264.233 299.392 264.959 298.787C265.684 298.182 266.641 297.879 267.827 297.879C269.076 297.879 270.068 298.188 270.8 298.807C271.538 299.417 271.892 300.178 271.86 301.085L271.841 301.142H269.636C269.636 300.72 269.475 300.357 269.152 300.054C268.831 299.752 268.389 299.601 267.827 299.601C267.272 299.601 266.849 299.726 266.558 299.979C266.268 300.224 266.123 300.527 266.123 300.887C266.123 301.246 266.259 301.532 266.53 301.747C266.808 301.955 267.366 302.141 268.206 302.305C269.493 302.57 270.447 302.945 271.065 303.431C271.69 303.91 272.002 304.565 272.002 305.398C272.002 306.318 271.62 307.065 270.856 307.639C270.099 308.213 269.099 308.499 267.856 308.499C266.524 308.499 265.473 308.159 264.703 307.478C263.933 306.797 263.567 306.015 263.605 305.132L263.624 305.076H265.764C265.789 305.668 266.004 306.101 266.407 306.372C266.811 306.642 267.303 306.778 267.884 306.778C268.477 306.778 268.935 306.665 269.257 306.438C269.578 306.211 269.74 305.905 269.74 305.521Z" fill="white"/>
</g>
<defs>
<linearGradient id="paint0_linear" x1="236.384" y1="109.55" x2="236.384" y2="219.816" gradientUnits="userSpaceOnUse">
<stop stop-color="#35EAC2"/>
<stop offset="1" stop-color="#08E0DE"/>
</linearGradient>
<clipPath id="clip0">
<rect width="454" height="347" fill="white"/>
</clipPath>
</defs>
</svg>
