<svg width="166" height="41" viewBox="0 0 166 41" fill="none" xmlns="http://www.w3.org/2000/svg">
<mask id="path-1-inside-1" fill="white">
<path fill-rule="evenodd" clip-rule="evenodd" d="M103.761 27.768C104.673 27.7882 105.587 27.7825 106.499 27.7703C106.704 27.7676 106.746 27.8272 106.745 28.0221C106.739 31.8458 106.74 35.6695 106.744 39.4931C106.744 39.6648 106.72 39.7391 106.519 39.7357C105.729 39.7226 104.94 39.724 104.151 39.7352C103.967 39.7378 103.923 39.6793 103.935 39.5103C103.949 39.3122 103.939 39.1122 103.939 38.8528C103.329 39.2715 102.72 39.5926 102.066 39.8186C100.839 40.2427 99.6221 40.1837 98.4578 39.6278C97.4347 39.1393 96.795 38.2983 96.4666 37.2164C96.2889 36.631 96.1879 36.0338 96.1866 35.424C96.1814 32.9667 96.1871 30.5093 96.1797 28.052C96.1791 27.8384 96.2206 27.7656 96.4531 27.7694C97.3848 27.7845 98.3171 27.7819 99.2489 27.7706C99.4481 27.7682 99.4994 27.8176 99.499 28.0186C99.4931 30.2861 99.4834 32.5538 99.5107 34.8211C99.5172 35.3555 99.5213 35.9102 99.747 36.4202C99.9606 36.9029 100.363 37.1534 100.863 37.2156C101.768 37.3283 102.583 37.0396 103.349 36.5826C103.477 36.5067 103.429 36.3808 103.43 36.2743C103.432 33.5513 103.436 30.8282 103.424 28.1052C103.423 27.832 103.484 27.7619 103.761 27.768ZM136.959 27.8729C137.953 28.2796 138.68 28.9826 139.195 29.9056C139.692 30.7974 139.926 31.7683 140.016 32.7821C140.071 33.4128 140.085 34.0383 140.022 34.6695C140.002 34.8763 139.893 34.8339 139.779 34.834C138.543 34.835 137.308 34.8347 136.072 34.8347C134.836 34.8347 133.6 34.8406 132.364 34.829C132.146 34.827 132.112 34.9035 132.136 35.0895C132.298 36.3724 133.359 37.2864 134.525 37.4567C135.678 37.6252 136.758 37.4166 137.792 36.9028C138.287 36.6572 138.285 36.669 138.547 37.1516C138.81 37.6346 139.076 38.1172 139.366 38.584C139.467 38.7462 139.426 38.7984 139.293 38.8853C138.557 39.3659 137.731 39.6174 136.893 39.8475C136.017 40.0883 135.119 40.1368 134.229 40.0617C132.045 39.8775 130.201 38.6612 129.387 36.457C129.006 35.4262 128.865 34.3618 128.946 33.2803C129.071 31.6114 129.632 30.103 130.859 28.9151C131.723 28.0783 132.778 27.6185 133.985 27.4814C135.015 27.3642 136.001 27.481 136.959 27.8729ZM141.61 27.7698C142.532 27.7841 143.455 27.7833 144.377 27.77C144.593 27.7668 144.641 27.8244 144.641 28.0354C144.632 30.1792 144.622 32.3231 144.645 34.4667C144.651 35.0245 144.669 35.5903 144.799 36.1427C144.95 36.7831 145.438 37.1592 146.048 37.2195C146.879 37.3017 147.644 37.076 148.362 36.6619C148.521 36.5702 148.572 36.4656 148.571 36.2822C148.565 33.5692 148.567 30.8562 148.567 28.1433L148.567 28.1126C148.567 27.7756 148.578 27.7756 148.943 27.7756C149.847 27.7756 150.75 27.7814 151.653 27.7709C151.843 27.7688 151.886 27.8252 151.886 28.0077C151.881 31.84 151.881 35.6724 151.887 39.5047C151.887 39.698 151.827 39.7364 151.648 39.7343C150.868 39.7252 150.088 39.7239 149.309 39.735C149.12 39.7378 149.061 39.6837 149.077 39.4993C149.093 39.311 149.08 39.1203 149.08 38.8842C148.825 39.0312 148.592 39.1628 148.362 39.2977C147.375 39.8756 146.317 40.1811 145.169 40.0682C143.278 39.8821 141.871 38.672 141.488 36.7353C141.355 36.0585 141.316 35.3773 141.318 34.6893C141.324 32.4792 141.324 30.2689 141.314 28.0587C141.312 27.8161 141.378 27.7661 141.61 27.7698ZM92.778 28.4331C93.723 29.1426 94.2695 30.1127 94.5864 31.2273C94.863 32.2007 94.9534 33.1968 94.927 34.2048C94.9224 34.3818 94.8913 34.5583 94.8714 34.7349C94.8511 34.9154 94.7095 34.8302 94.6273 34.8305C93.3912 34.8364 92.155 34.8347 90.9187 34.8347H87.2957C86.9758 34.8347 86.9444 34.8685 87.0037 35.1939C87.1656 36.0815 87.6606 36.7284 88.4511 37.1532C89.1877 37.5491 89.9747 37.5398 90.7834 37.4747C91.5319 37.4145 92.1841 37.1023 92.8469 36.8097C93.0687 36.7118 93.1665 36.7077 93.2899 36.9519C93.5543 37.4748 93.864 37.9754 94.165 38.4793C94.291 38.6901 94.307 38.8077 94.0463 38.9581C93.2365 39.4251 92.3672 39.7136 91.4615 39.9028C90.0955 40.1881 88.742 40.1761 87.4154 39.6838C86.2437 39.249 85.347 38.489 84.7015 37.4255C84.215 36.6239 83.9617 35.7495 83.8524 34.8238C83.6783 33.3492 83.8467 31.9239 84.5053 30.5853C85.3431 28.8825 86.695 27.799 88.5865 27.5058C90.0846 27.2737 91.5229 27.4907 92.778 28.4331ZM66.1989 23.2892C67.9433 23.426 69.5066 24.0357 70.8043 25.2431C71.1088 25.5264 71.1153 25.5376 70.8033 25.8023C70.1364 26.3684 69.4559 26.9186 68.7915 27.4877C68.6638 27.5971 68.6112 27.5825 68.5135 27.4652C67.8801 26.7043 67.0598 26.3068 66.0801 26.1749C65.2156 26.0585 64.3926 26.1666 63.6204 26.5486C62.3694 27.1675 61.6821 28.2302 61.3167 29.5435C61.0414 30.5326 61.042 31.5425 61.1074 32.5437C61.183 33.6988 61.4828 34.8029 62.2338 35.738C62.7405 36.369 63.3961 36.7597 64.1689 36.9563C65.1262 37.1998 66.0841 37.1883 67.0288 36.8835C67.7233 36.6595 68.2956 36.2509 68.767 35.6888C69.5744 36.3709 70.3797 37.0512 71.2063 37.7495C70.7069 38.2428 70.1921 38.6848 69.595 39.0179C68.5451 39.6032 67.4243 39.9373 66.2158 40.0295C64.5572 40.1561 62.989 39.8966 61.5162 39.1148C59.996 38.3079 58.9588 37.0653 58.2999 35.5005C57.8576 34.4501 57.6592 33.3472 57.5952 32.2056C57.4975 30.4616 57.777 28.7946 58.5914 27.2551C59.6753 25.2064 61.3864 23.9431 63.6643 23.4411C64.5052 23.2559 65.3551 23.223 66.1989 23.2892ZM129.227 27.7091C129.397 27.7878 129.388 27.8646 129.338 28.0014C129.087 28.6914 128.84 29.3827 128.594 30.0745C128.543 30.2158 128.451 30.2372 128.311 30.2271C127.472 30.1668 126.661 30.2655 125.91 30.6818C125.41 30.9588 124.973 31.3046 124.634 31.7686C124.551 31.8824 124.542 32.0068 124.542 32.1412C124.545 34.56 124.54 36.9788 124.549 39.3976C124.55 39.6505 124.499 39.7433 124.222 39.7374C123.329 39.7186 122.435 39.7247 121.541 39.7349C121.349 39.7372 121.286 39.6999 121.286 39.4922C121.293 35.6885 121.294 31.8849 121.286 28.0812C121.285 27.8614 121.347 27.8182 121.554 27.8214C122.343 27.834 123.132 27.8328 123.921 27.8219C124.111 27.8192 124.162 27.8757 124.155 28.059C124.141 28.4183 124.151 28.7785 124.151 29.2213C124.66 28.6775 125.189 28.2801 125.8 28.0002C126.424 27.7146 127.063 27.5044 127.763 27.4759C128.275 27.455 128.757 27.4911 129.227 27.7091ZM81.3992 9.17752C82.4583 10.1624 83.1643 11.3822 83.3835 12.8014C83.6644 14.6199 83.4064 16.3936 82.4231 17.9853C81.7102 19.1392 80.6164 19.8289 79.3192 20.2057C78.265 20.512 77.2232 20.5574 76.1964 20.0951C75.9525 19.9852 75.7385 19.8243 75.485 19.6733V28.2923C75.9645 28.0117 76.4584 27.7867 76.987 27.6413C78.4054 27.2512 79.7433 27.3846 80.9862 28.2172C81.7029 28.6973 82.0242 29.4053 82.2069 30.2102C82.4326 31.2049 82.5004 32.2116 82.4975 33.228C82.4916 35.3053 82.4917 37.3828 82.5015 39.4602C82.5026 39.6896 82.436 39.7388 82.2184 39.7356C81.3818 39.7229 80.5449 39.7223 79.7083 39.7356C79.4715 39.7393 79.4023 39.6713 79.4033 39.4328C79.412 37.2795 79.4087 35.1262 79.4081 32.9729C79.408 32.3449 79.3962 31.7159 79.1771 31.1173C78.9963 30.6235 78.6056 30.3722 78.1042 30.2816C77.2053 30.1192 76.4138 30.4209 75.6488 30.8491C75.4858 30.9403 75.4689 31.0609 75.4691 31.2205C75.472 33.9429 75.4672 36.6654 75.4772 39.3878C75.4782 39.6617 75.4055 39.7427 75.1287 39.7372C74.2828 39.7191 73.4363 39.7251 72.5902 39.7342C72.3901 39.7364 72.3256 39.6736 72.3289 39.4738C72.3394 38.8383 72.3328 38.2028 72.3328 37.5672L72.3328 8.46497C72.3335 8.13569 72.3487 8.13564 72.6963 8.13564C73.4379 8.13558 74.1798 8.14568 74.9211 8.1296C75.1506 8.12458 75.2241 8.19369 75.1942 8.41123C75.1806 8.51023 75.1919 8.61264 75.1919 8.75081C75.7074 8.46324 76.2002 8.21194 76.7445 8.06641C78.5016 7.59654 80.0641 7.93589 81.3992 9.17752ZM156.82 27.7714C157.016 27.7699 157.098 27.8765 157.191 28.015C157.897 29.0708 158.608 30.1234 159.319 31.1761C159.35 31.2224 159.396 31.2593 159.45 31.3165C159.892 30.6714 160.332 30.0342 160.768 29.3937C161.098 28.9078 161.424 28.4183 161.749 27.9289C161.823 27.818 161.913 27.7715 162.053 27.7723C163.071 27.7785 164.088 27.7753 165.105 27.7766C165.159 27.7766 165.233 27.7703 165.263 27.801C165.318 27.8565 165.241 27.8964 165.211 27.9394C164.517 28.9578 163.822 29.976 163.128 30.9943C162.565 31.8199 162.005 32.6476 161.437 33.4696C161.328 33.6272 161.333 33.731 161.454 33.894C162.456 35.247 163.443 36.6106 164.435 37.9711C164.816 38.4926 165.197 39.014 165.576 39.5362C165.613 39.5868 165.643 39.6421 165.698 39.7304H163.964C163.394 39.7304 162.823 39.7217 162.253 39.7356C162.075 39.7399 161.965 39.6713 161.875 39.5408C161.03 38.3198 160.186 37.0981 159.327 35.8546C158.956 36.3828 158.592 36.8954 158.235 37.4121C157.745 38.1193 157.263 38.8312 156.77 39.5364C156.704 39.6306 156.636 39.7342 156.481 39.7334C155.37 39.7278 154.259 39.7304 153.105 39.7304C153.263 39.3872 153.496 39.1328 153.694 38.8589C154.74 37.4109 155.794 35.9686 156.846 34.525C157.017 34.2904 157.182 34.0501 157.372 33.8313C157.468 33.7214 157.46 33.6426 157.388 33.5423C156.621 32.4698 155.853 31.3978 155.086 30.3249C154.51 29.519 153.935 28.7123 153.361 27.9048C153.342 27.8768 153.337 27.8379 153.316 27.7756C154.5 27.7756 155.66 27.78 156.82 27.7714ZM111.541 27.9842C112.39 30.5996 113.249 33.2121 114.105 35.8251C114.128 35.896 114.154 35.9662 114.193 36.0811C114.38 35.5583 114.555 35.069 114.728 34.5785C115.506 32.371 116.286 30.1642 117.053 27.9529C117.108 27.7954 117.18 27.7739 117.314 27.7742C118.303 27.7768 119.292 27.7756 120.319 27.7756C120.002 28.6082 119.696 29.415 119.386 30.2201C118.672 32.0754 117.954 33.9296 117.241 35.7851C116.761 37.0313 116.286 38.279 115.809 39.5264C115.753 39.6736 115.667 39.7378 115.492 39.7356C114.599 39.7243 113.705 39.7273 112.812 39.733C112.633 39.7342 112.556 39.6701 112.491 39.4963C111.384 36.5688 110.266 33.6457 109.154 30.7206C108.785 29.7508 108.425 28.7778 108.049 27.7756H109.423C110.032 27.7756 110.64 27.7814 111.248 27.7718C111.416 27.7693 111.487 27.8172 111.541 27.9842ZM88.2791 30.1781C87.5095 30.6259 87.2267 31.3927 86.9931 32.1915C86.9174 32.4502 87.0351 32.4487 87.2276 32.4467C87.9395 32.4392 88.6517 32.4437 89.3638 32.4437C90.0854 32.4437 90.807 32.4416 91.5286 32.445C91.7239 32.446 91.8414 32.4853 91.8077 32.166C91.7022 31.1699 90.9795 30.021 89.7982 29.9102C89.2573 29.8595 88.746 29.9063 88.2791 30.1781ZM132.999 30.498C132.492 31.027 132.212 31.691 132.109 32.4437L136.628 32.4436C136.974 32.443 136.973 32.4279 136.926 32.0569C136.796 31.0275 136.144 30.0516 134.918 29.8987C134.2 29.8092 133.512 29.9631 132.999 30.498ZM68.8311 8.69526C69.8261 9.3829 70.3871 10.3668 70.7345 11.4935C71.057 12.5393 71.1106 13.6136 71.0793 14.6983C71.063 15.2647 71.146 15.1926 70.5747 15.1938C69.4149 15.1963 68.255 15.1946 67.0952 15.1946C65.8784 15.1946 64.6615 15.1988 63.4447 15.1909C63.2076 15.1894 63.1224 15.2091 63.1789 15.4987C63.2801 16.0183 63.4571 16.4784 63.8198 16.8731C64.2925 17.3875 64.8675 17.7031 65.5533 17.8114C66.7052 17.9933 67.789 17.7714 68.8248 17.2527L68.8728 17.2287C69.2897 17.0217 69.3121 17.0456 69.5653 17.475C69.8443 17.9479 70.1023 18.4333 70.3795 18.9073C70.4737 19.0682 70.4595 19.1559 70.2915 19.2606C69.4741 19.7701 68.5702 20.0432 67.6438 20.2621C66.9119 20.435 66.1665 20.473 65.423 20.4255C64.1861 20.3464 63.05 19.9749 62.0754 19.1729C60.8878 18.1958 60.2939 16.9116 60.0587 15.4239C59.7996 13.7848 60.0119 12.2201 60.7826 10.7469C61.5717 9.23846 62.793 8.2499 64.4752 7.91729C66.0149 7.61284 67.4988 7.77444 68.8311 8.69526ZM97.3029 8.14988C98.3618 8.54449 99.1563 9.26253 99.6973 10.2478C100.197 11.1585 100.446 12.1429 100.53 13.1777C100.578 13.7802 100.599 14.3767 100.536 14.9796C100.515 15.1788 100.444 15.1982 100.28 15.1974C99.0441 15.1922 97.8083 15.1946 96.5725 15.1946C95.3463 15.1946 94.1199 15.2025 92.8939 15.1877C92.6578 15.1848 92.622 15.2688 92.6487 15.4621C92.8291 16.767 93.8689 17.6316 95.0534 17.8146C96.2474 17.9989 97.3543 17.7262 98.4189 17.2054C98.7945 17.0217 98.7933 17.0279 99.001 17.4006C99.2912 17.9215 99.5769 18.4454 99.8865 18.9548C99.978 19.1052 99.941 19.151 99.8184 19.2322C99.198 19.6437 98.5033 19.8766 97.7996 20.0923C96.873 20.3763 95.9239 20.4788 94.9599 20.4298C92.7912 20.3198 90.8424 19.1728 89.9553 16.9698C89.5111 15.8665 89.3676 14.7197 89.4624 13.5559C89.5962 11.9113 90.1614 10.4273 91.3824 9.2574C92.2231 8.45194 93.2316 7.99119 94.3935 7.8443C95.3915 7.7181 96.3637 7.79993 97.3029 8.14988ZM51.3455 4.18155C51.3373 6.65763 51.3402 9.13376 51.3402 11.6099C51.3583 11.6207 51.3763 11.6316 51.3944 11.6424C51.6776 11.2309 51.9622 10.8202 52.2439 10.4076C53.6759 8.30977 55.1064 6.21079 56.5416 4.11512C56.6012 4.0281 56.6626 3.92169 56.803 3.92198C58.0175 3.92409 59.2319 3.92318 60.5019 3.92318C60.2053 4.33705 59.9395 4.71329 59.6682 5.0856C58.7758 6.3099 57.8813 7.53271 56.9877 8.7562C56.2924 9.70815 55.6007 10.6628 54.8984 11.6097C54.7873 11.7596 54.7801 11.852 54.8967 12.0094C56.1006 13.6342 57.2941 15.2667 58.4902 16.8972C59.2154 17.8859 59.941 18.8744 60.6629 19.8655C60.7029 19.9205 60.7596 19.9819 60.7329 20.0903H59.3484C58.5211 20.0903 57.6938 20.0881 56.8664 20.0925C56.7247 20.0933 56.6401 20.0629 56.5496 19.9289C55.3313 18.1245 54.1007 16.3284 52.8744 14.5295C52.4066 13.8433 51.942 13.1549 51.4743 12.4687C51.4501 12.4332 51.411 12.4079 51.3402 12.3417V12.6875C51.3402 15.0593 51.3364 17.4311 51.3461 19.8029C51.3471 20.0398 51.2894 20.1002 51.0516 20.0967C50.0818 20.0817 49.1117 20.0855 48.1418 20.0946C47.9577 20.0964 47.906 20.0503 47.9063 19.8622C47.9116 14.6253 47.9116 9.38842 47.9063 4.15156C47.9061 3.96429 47.9564 3.9169 48.1413 3.91862C49.1207 3.92785 50.1004 3.92991 51.0797 3.91738C51.2929 3.91474 51.3462 3.96788 51.3455 4.18155ZM88.0288 2.40383C88.0228 5.3069 88.0246 8.20991 88.0246 11.1129C88.0246 13.997 88.0209 16.8811 88.0308 19.7651C88.0318 20.0321 87.9573 20.1011 87.6952 20.0965C86.8017 20.0805 85.9075 20.0834 85.0138 20.0956C84.8092 20.0984 84.7674 20.0394 84.7677 19.8441C84.7732 14.1803 84.7728 8.51658 84.7693 2.85283C84.7692 2.68621 84.7937 2.62862 84.9891 2.60159C85.9236 2.47237 86.8539 2.31259 87.7849 2.1588C87.9958 2.12396 88.0292 2.21257 88.0288 2.40383ZM108.687 7.79726C109.094 7.79664 109.477 7.92197 109.845 8.08649C109.922 8.12053 109.946 8.17219 109.911 8.26908C109.64 9.00109 109.381 9.73726 109.112 10.4703C109.031 10.6934 108.831 10.5849 108.696 10.5755C107.358 10.483 106.251 10.9265 105.349 11.9253C105.127 12.1711 105.082 12.4163 105.083 12.7183C105.089 15.0807 105.082 17.4432 105.092 19.8057C105.093 20.0455 105.032 20.1004 104.797 20.0964C103.903 20.0814 103.009 20.0825 102.115 20.0958C101.883 20.0992 101.829 20.0253 101.829 19.8032C101.835 16.008 101.836 12.2129 101.829 8.41779C101.828 8.18776 101.896 8.12703 102.12 8.13068C102.91 8.14334 103.699 8.1414 104.488 8.13159C104.691 8.12903 104.754 8.1974 104.747 8.39458C104.734 8.75058 104.744 9.10732 104.744 9.53386C105.272 8.94925 105.865 8.56708 106.516 8.26828C107.206 7.9518 107.932 7.79835 108.687 7.79726ZM75.6312 10.8979C75.5049 10.9607 75.469 11.0106 75.4692 11.1369C75.472 13.0699 75.4728 15.0029 75.4679 16.9359C75.4675 17.0812 75.521 17.1527 75.6457 17.215C76.056 17.42 76.4828 17.5635 76.9337 17.6562C77.9346 17.8624 79.081 17.368 79.6061 16.5089C80.0547 15.775 80.2562 14.9881 80.2016 14.11C80.2326 13.6993 80.1954 13.2705 80.0924 12.848C79.8467 11.8407 79.2867 11.0829 78.2945 10.7156C77.3891 10.3804 76.4977 10.4673 75.6312 10.8979ZM64.203 10.7022C63.5878 11.1892 63.3308 11.8901 63.1497 12.6232C63.1104 12.7821 63.1945 12.8075 63.3352 12.8064C64.0762 12.8005 64.8174 12.8036 65.5585 12.8036C66.2901 12.8036 67.0219 12.7914 67.753 12.8106C67.9945 12.8169 68.0251 12.7181 67.9915 12.5325C67.9183 12.1275 67.8179 11.7344 67.6141 11.3675C66.8857 10.0565 65.1657 9.94025 64.203 10.7022ZM94.8975 10.2449C94.3318 10.2937 93.8083 10.4718 93.4347 10.9239C92.9878 11.4647 92.7081 12.0871 92.6212 12.8036L97.1675 12.8036C97.4752 12.8029 97.4785 12.7874 97.4389 12.4487C97.291 11.1822 96.3937 10.1157 94.8975 10.2449Z"/>
</mask>
<path fill-rule="evenodd" clip-rule="evenodd" d="M103.761 27.768C104.673 27.7882 105.587 27.7825 106.499 27.7703C106.704 27.7676 106.746 27.8272 106.745 28.0221C106.739 31.8458 106.74 35.6695 106.744 39.4931C106.744 39.6648 106.72 39.7391 106.519 39.7357C105.729 39.7226 104.94 39.724 104.151 39.7352C103.967 39.7378 103.923 39.6793 103.935 39.5103C103.949 39.3122 103.939 39.1122 103.939 38.8528C103.329 39.2715 102.72 39.5926 102.066 39.8186C100.839 40.2427 99.6221 40.1837 98.4578 39.6278C97.4347 39.1393 96.795 38.2983 96.4666 37.2164C96.2889 36.631 96.1879 36.0338 96.1866 35.424C96.1814 32.9667 96.1871 30.5093 96.1797 28.052C96.1791 27.8384 96.2206 27.7656 96.4531 27.7694C97.3848 27.7845 98.3171 27.7819 99.2489 27.7706C99.4481 27.7682 99.4994 27.8176 99.499 28.0186C99.4931 30.2861 99.4834 32.5538 99.5107 34.8211C99.5172 35.3555 99.5213 35.9102 99.747 36.4202C99.9606 36.9029 100.363 37.1534 100.863 37.2156C101.768 37.3283 102.583 37.0396 103.349 36.5826C103.477 36.5067 103.429 36.3808 103.43 36.2743C103.432 33.5513 103.436 30.8282 103.424 28.1052C103.423 27.832 103.484 27.7619 103.761 27.768ZM136.959 27.8729C137.953 28.2796 138.68 28.9826 139.195 29.9056C139.692 30.7974 139.926 31.7683 140.016 32.7821C140.071 33.4128 140.085 34.0383 140.022 34.6695C140.002 34.8763 139.893 34.8339 139.779 34.834C138.543 34.835 137.308 34.8347 136.072 34.8347C134.836 34.8347 133.6 34.8406 132.364 34.829C132.146 34.827 132.112 34.9035 132.136 35.0895C132.298 36.3724 133.359 37.2864 134.525 37.4567C135.678 37.6252 136.758 37.4166 137.792 36.9028C138.287 36.6572 138.285 36.669 138.547 37.1516C138.81 37.6346 139.076 38.1172 139.366 38.584C139.467 38.7462 139.426 38.7984 139.293 38.8853C138.557 39.3659 137.731 39.6174 136.893 39.8475C136.017 40.0883 135.119 40.1368 134.229 40.0617C132.045 39.8775 130.201 38.6612 129.387 36.457C129.006 35.4262 128.865 34.3618 128.946 33.2803C129.071 31.6114 129.632 30.103 130.859 28.9151C131.723 28.0783 132.778 27.6185 133.985 27.4814C135.015 27.3642 136.001 27.481 136.959 27.8729ZM141.61 27.7698C142.532 27.7841 143.455 27.7833 144.377 27.77C144.593 27.7668 144.641 27.8244 144.641 28.0354C144.632 30.1792 144.622 32.3231 144.645 34.4667C144.651 35.0245 144.669 35.5903 144.799 36.1427C144.95 36.7831 145.438 37.1592 146.048 37.2195C146.879 37.3017 147.644 37.076 148.362 36.6619C148.521 36.5702 148.572 36.4656 148.571 36.2822C148.565 33.5692 148.567 30.8562 148.567 28.1433L148.567 28.1126C148.567 27.7756 148.578 27.7756 148.943 27.7756C149.847 27.7756 150.75 27.7814 151.653 27.7709C151.843 27.7688 151.886 27.8252 151.886 28.0077C151.881 31.84 151.881 35.6724 151.887 39.5047C151.887 39.698 151.827 39.7364 151.648 39.7343C150.868 39.7252 150.088 39.7239 149.309 39.735C149.12 39.7378 149.061 39.6837 149.077 39.4993C149.093 39.311 149.08 39.1203 149.08 38.8842C148.825 39.0312 148.592 39.1628 148.362 39.2977C147.375 39.8756 146.317 40.1811 145.169 40.0682C143.278 39.8821 141.871 38.672 141.488 36.7353C141.355 36.0585 141.316 35.3773 141.318 34.6893C141.324 32.4792 141.324 30.2689 141.314 28.0587C141.312 27.8161 141.378 27.7661 141.61 27.7698ZM92.778 28.4331C93.723 29.1426 94.2695 30.1127 94.5864 31.2273C94.863 32.2007 94.9534 33.1968 94.927 34.2048C94.9224 34.3818 94.8913 34.5583 94.8714 34.7349C94.8511 34.9154 94.7095 34.8302 94.6273 34.8305C93.3912 34.8364 92.155 34.8347 90.9187 34.8347H87.2957C86.9758 34.8347 86.9444 34.8685 87.0037 35.1939C87.1656 36.0815 87.6606 36.7284 88.4511 37.1532C89.1877 37.5491 89.9747 37.5398 90.7834 37.4747C91.5319 37.4145 92.1841 37.1023 92.8469 36.8097C93.0687 36.7118 93.1665 36.7077 93.2899 36.9519C93.5543 37.4748 93.864 37.9754 94.165 38.4793C94.291 38.6901 94.307 38.8077 94.0463 38.9581C93.2365 39.4251 92.3672 39.7136 91.4615 39.9028C90.0955 40.1881 88.742 40.1761 87.4154 39.6838C86.2437 39.249 85.347 38.489 84.7015 37.4255C84.215 36.6239 83.9617 35.7495 83.8524 34.8238C83.6783 33.3492 83.8467 31.9239 84.5053 30.5853C85.3431 28.8825 86.695 27.799 88.5865 27.5058C90.0846 27.2737 91.5229 27.4907 92.778 28.4331ZM66.1989 23.2892C67.9433 23.426 69.5066 24.0357 70.8043 25.2431C71.1088 25.5264 71.1153 25.5376 70.8033 25.8023C70.1364 26.3684 69.4559 26.9186 68.7915 27.4877C68.6638 27.5971 68.6112 27.5825 68.5135 27.4652C67.8801 26.7043 67.0598 26.3068 66.0801 26.1749C65.2156 26.0585 64.3926 26.1666 63.6204 26.5486C62.3694 27.1675 61.6821 28.2302 61.3167 29.5435C61.0414 30.5326 61.042 31.5425 61.1074 32.5437C61.183 33.6988 61.4828 34.8029 62.2338 35.738C62.7405 36.369 63.3961 36.7597 64.1689 36.9563C65.1262 37.1998 66.0841 37.1883 67.0288 36.8835C67.7233 36.6595 68.2956 36.2509 68.767 35.6888C69.5744 36.3709 70.3797 37.0512 71.2063 37.7495C70.7069 38.2428 70.1921 38.6848 69.595 39.0179C68.5451 39.6032 67.4243 39.9373 66.2158 40.0295C64.5572 40.1561 62.989 39.8966 61.5162 39.1148C59.996 38.3079 58.9588 37.0653 58.2999 35.5005C57.8576 34.4501 57.6592 33.3472 57.5952 32.2056C57.4975 30.4616 57.777 28.7946 58.5914 27.2551C59.6753 25.2064 61.3864 23.9431 63.6643 23.4411C64.5052 23.2559 65.3551 23.223 66.1989 23.2892ZM129.227 27.7091C129.397 27.7878 129.388 27.8646 129.338 28.0014C129.087 28.6914 128.84 29.3827 128.594 30.0745C128.543 30.2158 128.451 30.2372 128.311 30.2271C127.472 30.1668 126.661 30.2655 125.91 30.6818C125.41 30.9588 124.973 31.3046 124.634 31.7686C124.551 31.8824 124.542 32.0068 124.542 32.1412C124.545 34.56 124.54 36.9788 124.549 39.3976C124.55 39.6505 124.499 39.7433 124.222 39.7374C123.329 39.7186 122.435 39.7247 121.541 39.7349C121.349 39.7372 121.286 39.6999 121.286 39.4922C121.293 35.6885 121.294 31.8849 121.286 28.0812C121.285 27.8614 121.347 27.8182 121.554 27.8214C122.343 27.834 123.132 27.8328 123.921 27.8219C124.111 27.8192 124.162 27.8757 124.155 28.059C124.141 28.4183 124.151 28.7785 124.151 29.2213C124.66 28.6775 125.189 28.2801 125.8 28.0002C126.424 27.7146 127.063 27.5044 127.763 27.4759C128.275 27.455 128.757 27.4911 129.227 27.7091ZM81.3992 9.17752C82.4583 10.1624 83.1643 11.3822 83.3835 12.8014C83.6644 14.6199 83.4064 16.3936 82.4231 17.9853C81.7102 19.1392 80.6164 19.8289 79.3192 20.2057C78.265 20.512 77.2232 20.5574 76.1964 20.0951C75.9525 19.9852 75.7385 19.8243 75.485 19.6733V28.2923C75.9645 28.0117 76.4584 27.7867 76.987 27.6413C78.4054 27.2512 79.7433 27.3846 80.9862 28.2172C81.7029 28.6973 82.0242 29.4053 82.2069 30.2102C82.4326 31.2049 82.5004 32.2116 82.4975 33.228C82.4916 35.3053 82.4917 37.3828 82.5015 39.4602C82.5026 39.6896 82.436 39.7388 82.2184 39.7356C81.3818 39.7229 80.5449 39.7223 79.7083 39.7356C79.4715 39.7393 79.4023 39.6713 79.4033 39.4328C79.412 37.2795 79.4087 35.1262 79.4081 32.9729C79.408 32.3449 79.3962 31.7159 79.1771 31.1173C78.9963 30.6235 78.6056 30.3722 78.1042 30.2816C77.2053 30.1192 76.4138 30.4209 75.6488 30.8491C75.4858 30.9403 75.4689 31.0609 75.4691 31.2205C75.472 33.9429 75.4672 36.6654 75.4772 39.3878C75.4782 39.6617 75.4055 39.7427 75.1287 39.7372C74.2828 39.7191 73.4363 39.7251 72.5902 39.7342C72.3901 39.7364 72.3256 39.6736 72.3289 39.4738C72.3394 38.8383 72.3328 38.2028 72.3328 37.5672L72.3328 8.46497C72.3335 8.13569 72.3487 8.13564 72.6963 8.13564C73.4379 8.13558 74.1798 8.14568 74.9211 8.1296C75.1506 8.12458 75.2241 8.19369 75.1942 8.41123C75.1806 8.51023 75.1919 8.61264 75.1919 8.75081C75.7074 8.46324 76.2002 8.21194 76.7445 8.06641C78.5016 7.59654 80.0641 7.93589 81.3992 9.17752ZM156.82 27.7714C157.016 27.7699 157.098 27.8765 157.191 28.015C157.897 29.0708 158.608 30.1234 159.319 31.1761C159.35 31.2224 159.396 31.2593 159.45 31.3165C159.892 30.6714 160.332 30.0342 160.768 29.3937C161.098 28.9078 161.424 28.4183 161.749 27.9289C161.823 27.818 161.913 27.7715 162.053 27.7723C163.071 27.7785 164.088 27.7753 165.105 27.7766C165.159 27.7766 165.233 27.7703 165.263 27.801C165.318 27.8565 165.241 27.8964 165.211 27.9394C164.517 28.9578 163.822 29.976 163.128 30.9943C162.565 31.8199 162.005 32.6476 161.437 33.4696C161.328 33.6272 161.333 33.731 161.454 33.894C162.456 35.247 163.443 36.6106 164.435 37.9711C164.816 38.4926 165.197 39.014 165.576 39.5362C165.613 39.5868 165.643 39.6421 165.698 39.7304H163.964C163.394 39.7304 162.823 39.7217 162.253 39.7356C162.075 39.7399 161.965 39.6713 161.875 39.5408C161.03 38.3198 160.186 37.0981 159.327 35.8546C158.956 36.3828 158.592 36.8954 158.235 37.4121C157.745 38.1193 157.263 38.8312 156.77 39.5364C156.704 39.6306 156.636 39.7342 156.481 39.7334C155.37 39.7278 154.259 39.7304 153.105 39.7304C153.263 39.3872 153.496 39.1328 153.694 38.8589C154.74 37.4109 155.794 35.9686 156.846 34.525C157.017 34.2904 157.182 34.0501 157.372 33.8313C157.468 33.7214 157.46 33.6426 157.388 33.5423C156.621 32.4698 155.853 31.3978 155.086 30.3249C154.51 29.519 153.935 28.7123 153.361 27.9048C153.342 27.8768 153.337 27.8379 153.316 27.7756C154.5 27.7756 155.66 27.78 156.82 27.7714ZM111.541 27.9842C112.39 30.5996 113.249 33.2121 114.105 35.8251C114.128 35.896 114.154 35.9662 114.193 36.0811C114.38 35.5583 114.555 35.069 114.728 34.5785C115.506 32.371 116.286 30.1642 117.053 27.9529C117.108 27.7954 117.18 27.7739 117.314 27.7742C118.303 27.7768 119.292 27.7756 120.319 27.7756C120.002 28.6082 119.696 29.415 119.386 30.2201C118.672 32.0754 117.954 33.9296 117.241 35.7851C116.761 37.0313 116.286 38.279 115.809 39.5264C115.753 39.6736 115.667 39.7378 115.492 39.7356C114.599 39.7243 113.705 39.7273 112.812 39.733C112.633 39.7342 112.556 39.6701 112.491 39.4963C111.384 36.5688 110.266 33.6457 109.154 30.7206C108.785 29.7508 108.425 28.7778 108.049 27.7756H109.423C110.032 27.7756 110.64 27.7814 111.248 27.7718C111.416 27.7693 111.487 27.8172 111.541 27.9842ZM88.2791 30.1781C87.5095 30.6259 87.2267 31.3927 86.9931 32.1915C86.9174 32.4502 87.0351 32.4487 87.2276 32.4467C87.9395 32.4392 88.6517 32.4437 89.3638 32.4437C90.0854 32.4437 90.807 32.4416 91.5286 32.445C91.7239 32.446 91.8414 32.4853 91.8077 32.166C91.7022 31.1699 90.9795 30.021 89.7982 29.9102C89.2573 29.8595 88.746 29.9063 88.2791 30.1781ZM132.999 30.498C132.492 31.027 132.212 31.691 132.109 32.4437L136.628 32.4436C136.974 32.443 136.973 32.4279 136.926 32.0569C136.796 31.0275 136.144 30.0516 134.918 29.8987C134.2 29.8092 133.512 29.9631 132.999 30.498ZM68.8311 8.69526C69.8261 9.3829 70.3871 10.3668 70.7345 11.4935C71.057 12.5393 71.1106 13.6136 71.0793 14.6983C71.063 15.2647 71.146 15.1926 70.5747 15.1938C69.4149 15.1963 68.255 15.1946 67.0952 15.1946C65.8784 15.1946 64.6615 15.1988 63.4447 15.1909C63.2076 15.1894 63.1224 15.2091 63.1789 15.4987C63.2801 16.0183 63.4571 16.4784 63.8198 16.8731C64.2925 17.3875 64.8675 17.7031 65.5533 17.8114C66.7052 17.9933 67.789 17.7714 68.8248 17.2527L68.8728 17.2287C69.2897 17.0217 69.3121 17.0456 69.5653 17.475C69.8443 17.9479 70.1023 18.4333 70.3795 18.9073C70.4737 19.0682 70.4595 19.1559 70.2915 19.2606C69.4741 19.7701 68.5702 20.0432 67.6438 20.2621C66.9119 20.435 66.1665 20.473 65.423 20.4255C64.1861 20.3464 63.05 19.9749 62.0754 19.1729C60.8878 18.1958 60.2939 16.9116 60.0587 15.4239C59.7996 13.7848 60.0119 12.2201 60.7826 10.7469C61.5717 9.23846 62.793 8.2499 64.4752 7.91729C66.0149 7.61284 67.4988 7.77444 68.8311 8.69526ZM97.3029 8.14988C98.3618 8.54449 99.1563 9.26253 99.6973 10.2478C100.197 11.1585 100.446 12.1429 100.53 13.1777C100.578 13.7802 100.599 14.3767 100.536 14.9796C100.515 15.1788 100.444 15.1982 100.28 15.1974C99.0441 15.1922 97.8083 15.1946 96.5725 15.1946C95.3463 15.1946 94.1199 15.2025 92.8939 15.1877C92.6578 15.1848 92.622 15.2688 92.6487 15.4621C92.8291 16.767 93.8689 17.6316 95.0534 17.8146C96.2474 17.9989 97.3543 17.7262 98.4189 17.2054C98.7945 17.0217 98.7933 17.0279 99.001 17.4006C99.2912 17.9215 99.5769 18.4454 99.8865 18.9548C99.978 19.1052 99.941 19.151 99.8184 19.2322C99.198 19.6437 98.5033 19.8766 97.7996 20.0923C96.873 20.3763 95.9239 20.4788 94.9599 20.4298C92.7912 20.3198 90.8424 19.1728 89.9553 16.9698C89.5111 15.8665 89.3676 14.7197 89.4624 13.5559C89.5962 11.9113 90.1614 10.4273 91.3824 9.2574C92.2231 8.45194 93.2316 7.99119 94.3935 7.8443C95.3915 7.7181 96.3637 7.79993 97.3029 8.14988ZM51.3455 4.18155C51.3373 6.65763 51.3402 9.13376 51.3402 11.6099C51.3583 11.6207 51.3763 11.6316 51.3944 11.6424C51.6776 11.2309 51.9622 10.8202 52.2439 10.4076C53.6759 8.30977 55.1064 6.21079 56.5416 4.11512C56.6012 4.0281 56.6626 3.92169 56.803 3.92198C58.0175 3.92409 59.2319 3.92318 60.5019 3.92318C60.2053 4.33705 59.9395 4.71329 59.6682 5.0856C58.7758 6.3099 57.8813 7.53271 56.9877 8.7562C56.2924 9.70815 55.6007 10.6628 54.8984 11.6097C54.7873 11.7596 54.7801 11.852 54.8967 12.0094C56.1006 13.6342 57.2941 15.2667 58.4902 16.8972C59.2154 17.8859 59.941 18.8744 60.6629 19.8655C60.7029 19.9205 60.7596 19.9819 60.7329 20.0903H59.3484C58.5211 20.0903 57.6938 20.0881 56.8664 20.0925C56.7247 20.0933 56.6401 20.0629 56.5496 19.9289C55.3313 18.1245 54.1007 16.3284 52.8744 14.5295C52.4066 13.8433 51.942 13.1549 51.4743 12.4687C51.4501 12.4332 51.411 12.4079 51.3402 12.3417V12.6875C51.3402 15.0593 51.3364 17.4311 51.3461 19.8029C51.3471 20.0398 51.2894 20.1002 51.0516 20.0967C50.0818 20.0817 49.1117 20.0855 48.1418 20.0946C47.9577 20.0964 47.906 20.0503 47.9063 19.8622C47.9116 14.6253 47.9116 9.38842 47.9063 4.15156C47.9061 3.96429 47.9564 3.9169 48.1413 3.91862C49.1207 3.92785 50.1004 3.92991 51.0797 3.91738C51.2929 3.91474 51.3462 3.96788 51.3455 4.18155ZM88.0288 2.40383C88.0228 5.3069 88.0246 8.20991 88.0246 11.1129C88.0246 13.997 88.0209 16.8811 88.0308 19.7651C88.0318 20.0321 87.9573 20.1011 87.6952 20.0965C86.8017 20.0805 85.9075 20.0834 85.0138 20.0956C84.8092 20.0984 84.7674 20.0394 84.7677 19.8441C84.7732 14.1803 84.7728 8.51658 84.7693 2.85283C84.7692 2.68621 84.7937 2.62862 84.9891 2.60159C85.9236 2.47237 86.8539 2.31259 87.7849 2.1588C87.9958 2.12396 88.0292 2.21257 88.0288 2.40383ZM108.687 7.79726C109.094 7.79664 109.477 7.92197 109.845 8.08649C109.922 8.12053 109.946 8.17219 109.911 8.26908C109.64 9.00109 109.381 9.73726 109.112 10.4703C109.031 10.6934 108.831 10.5849 108.696 10.5755C107.358 10.483 106.251 10.9265 105.349 11.9253C105.127 12.1711 105.082 12.4163 105.083 12.7183C105.089 15.0807 105.082 17.4432 105.092 19.8057C105.093 20.0455 105.032 20.1004 104.797 20.0964C103.903 20.0814 103.009 20.0825 102.115 20.0958C101.883 20.0992 101.829 20.0253 101.829 19.8032C101.835 16.008 101.836 12.2129 101.829 8.41779C101.828 8.18776 101.896 8.12703 102.12 8.13068C102.91 8.14334 103.699 8.1414 104.488 8.13159C104.691 8.12903 104.754 8.1974 104.747 8.39458C104.734 8.75058 104.744 9.10732 104.744 9.53386C105.272 8.94925 105.865 8.56708 106.516 8.26828C107.206 7.9518 107.932 7.79835 108.687 7.79726ZM75.6312 10.8979C75.5049 10.9607 75.469 11.0106 75.4692 11.1369C75.472 13.0699 75.4728 15.0029 75.4679 16.9359C75.4675 17.0812 75.521 17.1527 75.6457 17.215C76.056 17.42 76.4828 17.5635 76.9337 17.6562C77.9346 17.8624 79.081 17.368 79.6061 16.5089C80.0547 15.775 80.2562 14.9881 80.2016 14.11C80.2326 13.6993 80.1954 13.2705 80.0924 12.848C79.8467 11.8407 79.2867 11.0829 78.2945 10.7156C77.3891 10.3804 76.4977 10.4673 75.6312 10.8979ZM64.203 10.7022C63.5878 11.1892 63.3308 11.8901 63.1497 12.6232C63.1104 12.7821 63.1945 12.8075 63.3352 12.8064C64.0762 12.8005 64.8174 12.8036 65.5585 12.8036C66.2901 12.8036 67.0219 12.7914 67.753 12.8106C67.9945 12.8169 68.0251 12.7181 67.9915 12.5325C67.9183 12.1275 67.8179 11.7344 67.6141 11.3675C66.8857 10.0565 65.1657 9.94025 64.203 10.7022ZM94.8975 10.2449C94.3318 10.2937 93.8083 10.4718 93.4347 10.9239C92.9878 11.4647 92.7081 12.0871 92.6212 12.8036L97.1675 12.8036C97.4752 12.8029 97.4785 12.7874 97.4389 12.4487C97.291 11.1822 96.3937 10.1157 94.8975 10.2449Z" fill="#003369"/>
<path fill-rule="evenodd" clip-rule="evenodd" d="M103.761 27.768C104.673 27.7882 105.587 27.7825 106.499 27.7703C106.704 27.7676 106.746 27.8272 106.745 28.0221C106.739 31.8458 106.74 35.6695 106.744 39.4931C106.744 39.6648 106.72 39.7391 106.519 39.7357C105.729 39.7226 104.94 39.724 104.151 39.7352C103.967 39.7378 103.923 39.6793 103.935 39.5103C103.949 39.3122 103.939 39.1122 103.939 38.8528C103.329 39.2715 102.72 39.5926 102.066 39.8186C100.839 40.2427 99.6221 40.1837 98.4578 39.6278C97.4347 39.1393 96.795 38.2983 96.4666 37.2164C96.2889 36.631 96.1879 36.0338 96.1866 35.424C96.1814 32.9667 96.1871 30.5093 96.1797 28.052C96.1791 27.8384 96.2206 27.7656 96.4531 27.7694C97.3848 27.7845 98.3171 27.7819 99.2489 27.7706C99.4481 27.7682 99.4994 27.8176 99.499 28.0186C99.4931 30.2861 99.4834 32.5538 99.5107 34.8211C99.5172 35.3555 99.5213 35.9102 99.747 36.4202C99.9606 36.9029 100.363 37.1534 100.863 37.2156C101.768 37.3283 102.583 37.0396 103.349 36.5826C103.477 36.5067 103.429 36.3808 103.43 36.2743C103.432 33.5513 103.436 30.8282 103.424 28.1052C103.423 27.832 103.484 27.7619 103.761 27.768ZM136.959 27.8729C137.953 28.2796 138.68 28.9826 139.195 29.9056C139.692 30.7974 139.926 31.7683 140.016 32.7821C140.071 33.4128 140.085 34.0383 140.022 34.6695C140.002 34.8763 139.893 34.8339 139.779 34.834C138.543 34.835 137.308 34.8347 136.072 34.8347C134.836 34.8347 133.6 34.8406 132.364 34.829C132.146 34.827 132.112 34.9035 132.136 35.0895C132.298 36.3724 133.359 37.2864 134.525 37.4567C135.678 37.6252 136.758 37.4166 137.792 36.9028C138.287 36.6572 138.285 36.669 138.547 37.1516C138.81 37.6346 139.076 38.1172 139.366 38.584C139.467 38.7462 139.426 38.7984 139.293 38.8853C138.557 39.3659 137.731 39.6174 136.893 39.8475C136.017 40.0883 135.119 40.1368 134.229 40.0617C132.045 39.8775 130.201 38.6612 129.387 36.457C129.006 35.4262 128.865 34.3618 128.946 33.2803C129.071 31.6114 129.632 30.103 130.859 28.9151C131.723 28.0783 132.778 27.6185 133.985 27.4814C135.015 27.3642 136.001 27.481 136.959 27.8729ZM141.61 27.7698C142.532 27.7841 143.455 27.7833 144.377 27.77C144.593 27.7668 144.641 27.8244 144.641 28.0354C144.632 30.1792 144.622 32.3231 144.645 34.4667C144.651 35.0245 144.669 35.5903 144.799 36.1427C144.95 36.7831 145.438 37.1592 146.048 37.2195C146.879 37.3017 147.644 37.076 148.362 36.6619C148.521 36.5702 148.572 36.4656 148.571 36.2822C148.565 33.5692 148.567 30.8562 148.567 28.1433L148.567 28.1126C148.567 27.7756 148.578 27.7756 148.943 27.7756C149.847 27.7756 150.75 27.7814 151.653 27.7709C151.843 27.7688 151.886 27.8252 151.886 28.0077C151.881 31.84 151.881 35.6724 151.887 39.5047C151.887 39.698 151.827 39.7364 151.648 39.7343C150.868 39.7252 150.088 39.7239 149.309 39.735C149.12 39.7378 149.061 39.6837 149.077 39.4993C149.093 39.311 149.08 39.1203 149.08 38.8842C148.825 39.0312 148.592 39.1628 148.362 39.2977C147.375 39.8756 146.317 40.1811 145.169 40.0682C143.278 39.8821 141.871 38.672 141.488 36.7353C141.355 36.0585 141.316 35.3773 141.318 34.6893C141.324 32.4792 141.324 30.2689 141.314 28.0587C141.312 27.8161 141.378 27.7661 141.61 27.7698ZM92.778 28.4331C93.723 29.1426 94.2695 30.1127 94.5864 31.2273C94.863 32.2007 94.9534 33.1968 94.927 34.2048C94.9224 34.3818 94.8913 34.5583 94.8714 34.7349C94.8511 34.9154 94.7095 34.8302 94.6273 34.8305C93.3912 34.8364 92.155 34.8347 90.9187 34.8347H87.2957C86.9758 34.8347 86.9444 34.8685 87.0037 35.1939C87.1656 36.0815 87.6606 36.7284 88.4511 37.1532C89.1877 37.5491 89.9747 37.5398 90.7834 37.4747C91.5319 37.4145 92.1841 37.1023 92.8469 36.8097C93.0687 36.7118 93.1665 36.7077 93.2899 36.9519C93.5543 37.4748 93.864 37.9754 94.165 38.4793C94.291 38.6901 94.307 38.8077 94.0463 38.9581C93.2365 39.4251 92.3672 39.7136 91.4615 39.9028C90.0955 40.1881 88.742 40.1761 87.4154 39.6838C86.2437 39.249 85.347 38.489 84.7015 37.4255C84.215 36.6239 83.9617 35.7495 83.8524 34.8238C83.6783 33.3492 83.8467 31.9239 84.5053 30.5853C85.3431 28.8825 86.695 27.799 88.5865 27.5058C90.0846 27.2737 91.5229 27.4907 92.778 28.4331ZM66.1989 23.2892C67.9433 23.426 69.5066 24.0357 70.8043 25.2431C71.1088 25.5264 71.1153 25.5376 70.8033 25.8023C70.1364 26.3684 69.4559 26.9186 68.7915 27.4877C68.6638 27.5971 68.6112 27.5825 68.5135 27.4652C67.8801 26.7043 67.0598 26.3068 66.0801 26.1749C65.2156 26.0585 64.3926 26.1666 63.6204 26.5486C62.3694 27.1675 61.6821 28.2302 61.3167 29.5435C61.0414 30.5326 61.042 31.5425 61.1074 32.5437C61.183 33.6988 61.4828 34.8029 62.2338 35.738C62.7405 36.369 63.3961 36.7597 64.1689 36.9563C65.1262 37.1998 66.0841 37.1883 67.0288 36.8835C67.7233 36.6595 68.2956 36.2509 68.767 35.6888C69.5744 36.3709 70.3797 37.0512 71.2063 37.7495C70.7069 38.2428 70.1921 38.6848 69.595 39.0179C68.5451 39.6032 67.4243 39.9373 66.2158 40.0295C64.5572 40.1561 62.989 39.8966 61.5162 39.1148C59.996 38.3079 58.9588 37.0653 58.2999 35.5005C57.8576 34.4501 57.6592 33.3472 57.5952 32.2056C57.4975 30.4616 57.777 28.7946 58.5914 27.2551C59.6753 25.2064 61.3864 23.9431 63.6643 23.4411C64.5052 23.2559 65.3551 23.223 66.1989 23.2892ZM129.227 27.7091C129.397 27.7878 129.388 27.8646 129.338 28.0014C129.087 28.6914 128.84 29.3827 128.594 30.0745C128.543 30.2158 128.451 30.2372 128.311 30.2271C127.472 30.1668 126.661 30.2655 125.91 30.6818C125.41 30.9588 124.973 31.3046 124.634 31.7686C124.551 31.8824 124.542 32.0068 124.542 32.1412C124.545 34.56 124.54 36.9788 124.549 39.3976C124.55 39.6505 124.499 39.7433 124.222 39.7374C123.329 39.7186 122.435 39.7247 121.541 39.7349C121.349 39.7372 121.286 39.6999 121.286 39.4922C121.293 35.6885 121.294 31.8849 121.286 28.0812C121.285 27.8614 121.347 27.8182 121.554 27.8214C122.343 27.834 123.132 27.8328 123.921 27.8219C124.111 27.8192 124.162 27.8757 124.155 28.059C124.141 28.4183 124.151 28.7785 124.151 29.2213C124.66 28.6775 125.189 28.2801 125.8 28.0002C126.424 27.7146 127.063 27.5044 127.763 27.4759C128.275 27.455 128.757 27.4911 129.227 27.7091ZM81.3992 9.17752C82.4583 10.1624 83.1643 11.3822 83.3835 12.8014C83.6644 14.6199 83.4064 16.3936 82.4231 17.9853C81.7102 19.1392 80.6164 19.8289 79.3192 20.2057C78.265 20.512 77.2232 20.5574 76.1964 20.0951C75.9525 19.9852 75.7385 19.8243 75.485 19.6733V28.2923C75.9645 28.0117 76.4584 27.7867 76.987 27.6413C78.4054 27.2512 79.7433 27.3846 80.9862 28.2172C81.7029 28.6973 82.0242 29.4053 82.2069 30.2102C82.4326 31.2049 82.5004 32.2116 82.4975 33.228C82.4916 35.3053 82.4917 37.3828 82.5015 39.4602C82.5026 39.6896 82.436 39.7388 82.2184 39.7356C81.3818 39.7229 80.5449 39.7223 79.7083 39.7356C79.4715 39.7393 79.4023 39.6713 79.4033 39.4328C79.412 37.2795 79.4087 35.1262 79.4081 32.9729C79.408 32.3449 79.3962 31.7159 79.1771 31.1173C78.9963 30.6235 78.6056 30.3722 78.1042 30.2816C77.2053 30.1192 76.4138 30.4209 75.6488 30.8491C75.4858 30.9403 75.4689 31.0609 75.4691 31.2205C75.472 33.9429 75.4672 36.6654 75.4772 39.3878C75.4782 39.6617 75.4055 39.7427 75.1287 39.7372C74.2828 39.7191 73.4363 39.7251 72.5902 39.7342C72.3901 39.7364 72.3256 39.6736 72.3289 39.4738C72.3394 38.8383 72.3328 38.2028 72.3328 37.5672L72.3328 8.46497C72.3335 8.13569 72.3487 8.13564 72.6963 8.13564C73.4379 8.13558 74.1798 8.14568 74.9211 8.1296C75.1506 8.12458 75.2241 8.19369 75.1942 8.41123C75.1806 8.51023 75.1919 8.61264 75.1919 8.75081C75.7074 8.46324 76.2002 8.21194 76.7445 8.06641C78.5016 7.59654 80.0641 7.93589 81.3992 9.17752ZM156.82 27.7714C157.016 27.7699 157.098 27.8765 157.191 28.015C157.897 29.0708 158.608 30.1234 159.319 31.1761C159.35 31.2224 159.396 31.2593 159.45 31.3165C159.892 30.6714 160.332 30.0342 160.768 29.3937C161.098 28.9078 161.424 28.4183 161.749 27.9289C161.823 27.818 161.913 27.7715 162.053 27.7723C163.071 27.7785 164.088 27.7753 165.105 27.7766C165.159 27.7766 165.233 27.7703 165.263 27.801C165.318 27.8565 165.241 27.8964 165.211 27.9394C164.517 28.9578 163.822 29.976 163.128 30.9943C162.565 31.8199 162.005 32.6476 161.437 33.4696C161.328 33.6272 161.333 33.731 161.454 33.894C162.456 35.247 163.443 36.6106 164.435 37.9711C164.816 38.4926 165.197 39.014 165.576 39.5362C165.613 39.5868 165.643 39.6421 165.698 39.7304H163.964C163.394 39.7304 162.823 39.7217 162.253 39.7356C162.075 39.7399 161.965 39.6713 161.875 39.5408C161.03 38.3198 160.186 37.0981 159.327 35.8546C158.956 36.3828 158.592 36.8954 158.235 37.4121C157.745 38.1193 157.263 38.8312 156.77 39.5364C156.704 39.6306 156.636 39.7342 156.481 39.7334C155.37 39.7278 154.259 39.7304 153.105 39.7304C153.263 39.3872 153.496 39.1328 153.694 38.8589C154.74 37.4109 155.794 35.9686 156.846 34.525C157.017 34.2904 157.182 34.0501 157.372 33.8313C157.468 33.7214 157.46 33.6426 157.388 33.5423C156.621 32.4698 155.853 31.3978 155.086 30.3249C154.51 29.519 153.935 28.7123 153.361 27.9048C153.342 27.8768 153.337 27.8379 153.316 27.7756C154.5 27.7756 155.66 27.78 156.82 27.7714ZM111.541 27.9842C112.39 30.5996 113.249 33.2121 114.105 35.8251C114.128 35.896 114.154 35.9662 114.193 36.0811C114.38 35.5583 114.555 35.069 114.728 34.5785C115.506 32.371 116.286 30.1642 117.053 27.9529C117.108 27.7954 117.18 27.7739 117.314 27.7742C118.303 27.7768 119.292 27.7756 120.319 27.7756C120.002 28.6082 119.696 29.415 119.386 30.2201C118.672 32.0754 117.954 33.9296 117.241 35.7851C116.761 37.0313 116.286 38.279 115.809 39.5264C115.753 39.6736 115.667 39.7378 115.492 39.7356C114.599 39.7243 113.705 39.7273 112.812 39.733C112.633 39.7342 112.556 39.6701 112.491 39.4963C111.384 36.5688 110.266 33.6457 109.154 30.7206C108.785 29.7508 108.425 28.7778 108.049 27.7756H109.423C110.032 27.7756 110.64 27.7814 111.248 27.7718C111.416 27.7693 111.487 27.8172 111.541 27.9842ZM88.2791 30.1781C87.5095 30.6259 87.2267 31.3927 86.9931 32.1915C86.9174 32.4502 87.0351 32.4487 87.2276 32.4467C87.9395 32.4392 88.6517 32.4437 89.3638 32.4437C90.0854 32.4437 90.807 32.4416 91.5286 32.445C91.7239 32.446 91.8414 32.4853 91.8077 32.166C91.7022 31.1699 90.9795 30.021 89.7982 29.9102C89.2573 29.8595 88.746 29.9063 88.2791 30.1781ZM132.999 30.498C132.492 31.027 132.212 31.691 132.109 32.4437L136.628 32.4436C136.974 32.443 136.973 32.4279 136.926 32.0569C136.796 31.0275 136.144 30.0516 134.918 29.8987C134.2 29.8092 133.512 29.9631 132.999 30.498ZM68.8311 8.69526C69.8261 9.3829 70.3871 10.3668 70.7345 11.4935C71.057 12.5393 71.1106 13.6136 71.0793 14.6983C71.063 15.2647 71.146 15.1926 70.5747 15.1938C69.4149 15.1963 68.255 15.1946 67.0952 15.1946C65.8784 15.1946 64.6615 15.1988 63.4447 15.1909C63.2076 15.1894 63.1224 15.2091 63.1789 15.4987C63.2801 16.0183 63.4571 16.4784 63.8198 16.8731C64.2925 17.3875 64.8675 17.7031 65.5533 17.8114C66.7052 17.9933 67.789 17.7714 68.8248 17.2527L68.8728 17.2287C69.2897 17.0217 69.3121 17.0456 69.5653 17.475C69.8443 17.9479 70.1023 18.4333 70.3795 18.9073C70.4737 19.0682 70.4595 19.1559 70.2915 19.2606C69.4741 19.7701 68.5702 20.0432 67.6438 20.2621C66.9119 20.435 66.1665 20.473 65.423 20.4255C64.1861 20.3464 63.05 19.9749 62.0754 19.1729C60.8878 18.1958 60.2939 16.9116 60.0587 15.4239C59.7996 13.7848 60.0119 12.2201 60.7826 10.7469C61.5717 9.23846 62.793 8.2499 64.4752 7.91729C66.0149 7.61284 67.4988 7.77444 68.8311 8.69526ZM97.3029 8.14988C98.3618 8.54449 99.1563 9.26253 99.6973 10.2478C100.197 11.1585 100.446 12.1429 100.53 13.1777C100.578 13.7802 100.599 14.3767 100.536 14.9796C100.515 15.1788 100.444 15.1982 100.28 15.1974C99.0441 15.1922 97.8083 15.1946 96.5725 15.1946C95.3463 15.1946 94.1199 15.2025 92.8939 15.1877C92.6578 15.1848 92.622 15.2688 92.6487 15.4621C92.8291 16.767 93.8689 17.6316 95.0534 17.8146C96.2474 17.9989 97.3543 17.7262 98.4189 17.2054C98.7945 17.0217 98.7933 17.0279 99.001 17.4006C99.2912 17.9215 99.5769 18.4454 99.8865 18.9548C99.978 19.1052 99.941 19.151 99.8184 19.2322C99.198 19.6437 98.5033 19.8766 97.7996 20.0923C96.873 20.3763 95.9239 20.4788 94.9599 20.4298C92.7912 20.3198 90.8424 19.1728 89.9553 16.9698C89.5111 15.8665 89.3676 14.7197 89.4624 13.5559C89.5962 11.9113 90.1614 10.4273 91.3824 9.2574C92.2231 8.45194 93.2316 7.99119 94.3935 7.8443C95.3915 7.7181 96.3637 7.79993 97.3029 8.14988ZM51.3455 4.18155C51.3373 6.65763 51.3402 9.13376 51.3402 11.6099C51.3583 11.6207 51.3763 11.6316 51.3944 11.6424C51.6776 11.2309 51.9622 10.8202 52.2439 10.4076C53.6759 8.30977 55.1064 6.21079 56.5416 4.11512C56.6012 4.0281 56.6626 3.92169 56.803 3.92198C58.0175 3.92409 59.2319 3.92318 60.5019 3.92318C60.2053 4.33705 59.9395 4.71329 59.6682 5.0856C58.7758 6.3099 57.8813 7.53271 56.9877 8.7562C56.2924 9.70815 55.6007 10.6628 54.8984 11.6097C54.7873 11.7596 54.7801 11.852 54.8967 12.0094C56.1006 13.6342 57.2941 15.2667 58.4902 16.8972C59.2154 17.8859 59.941 18.8744 60.6629 19.8655C60.7029 19.9205 60.7596 19.9819 60.7329 20.0903H59.3484C58.5211 20.0903 57.6938 20.0881 56.8664 20.0925C56.7247 20.0933 56.6401 20.0629 56.5496 19.9289C55.3313 18.1245 54.1007 16.3284 52.8744 14.5295C52.4066 13.8433 51.942 13.1549 51.4743 12.4687C51.4501 12.4332 51.411 12.4079 51.3402 12.3417V12.6875C51.3402 15.0593 51.3364 17.4311 51.3461 19.8029C51.3471 20.0398 51.2894 20.1002 51.0516 20.0967C50.0818 20.0817 49.1117 20.0855 48.1418 20.0946C47.9577 20.0964 47.906 20.0503 47.9063 19.8622C47.9116 14.6253 47.9116 9.38842 47.9063 4.15156C47.9061 3.96429 47.9564 3.9169 48.1413 3.91862C49.1207 3.92785 50.1004 3.92991 51.0797 3.91738C51.2929 3.91474 51.3462 3.96788 51.3455 4.18155ZM88.0288 2.40383C88.0228 5.3069 88.0246 8.20991 88.0246 11.1129C88.0246 13.997 88.0209 16.8811 88.0308 19.7651C88.0318 20.0321 87.9573 20.1011 87.6952 20.0965C86.8017 20.0805 85.9075 20.0834 85.0138 20.0956C84.8092 20.0984 84.7674 20.0394 84.7677 19.8441C84.7732 14.1803 84.7728 8.51658 84.7693 2.85283C84.7692 2.68621 84.7937 2.62862 84.9891 2.60159C85.9236 2.47237 86.8539 2.31259 87.7849 2.1588C87.9958 2.12396 88.0292 2.21257 88.0288 2.40383ZM108.687 7.79726C109.094 7.79664 109.477 7.92197 109.845 8.08649C109.922 8.12053 109.946 8.17219 109.911 8.26908C109.64 9.00109 109.381 9.73726 109.112 10.4703C109.031 10.6934 108.831 10.5849 108.696 10.5755C107.358 10.483 106.251 10.9265 105.349 11.9253C105.127 12.1711 105.082 12.4163 105.083 12.7183C105.089 15.0807 105.082 17.4432 105.092 19.8057C105.093 20.0455 105.032 20.1004 104.797 20.0964C103.903 20.0814 103.009 20.0825 102.115 20.0958C101.883 20.0992 101.829 20.0253 101.829 19.8032C101.835 16.008 101.836 12.2129 101.829 8.41779C101.828 8.18776 101.896 8.12703 102.12 8.13068C102.91 8.14334 103.699 8.1414 104.488 8.13159C104.691 8.12903 104.754 8.1974 104.747 8.39458C104.734 8.75058 104.744 9.10732 104.744 9.53386C105.272 8.94925 105.865 8.56708 106.516 8.26828C107.206 7.9518 107.932 7.79835 108.687 7.79726ZM75.6312 10.8979C75.5049 10.9607 75.469 11.0106 75.4692 11.1369C75.472 13.0699 75.4728 15.0029 75.4679 16.9359C75.4675 17.0812 75.521 17.1527 75.6457 17.215C76.056 17.42 76.4828 17.5635 76.9337 17.6562C77.9346 17.8624 79.081 17.368 79.6061 16.5089C80.0547 15.775 80.2562 14.9881 80.2016 14.11C80.2326 13.6993 80.1954 13.2705 80.0924 12.848C79.8467 11.8407 79.2867 11.0829 78.2945 10.7156C77.3891 10.3804 76.4977 10.4673 75.6312 10.8979ZM64.203 10.7022C63.5878 11.1892 63.3308 11.8901 63.1497 12.6232C63.1104 12.7821 63.1945 12.8075 63.3352 12.8064C64.0762 12.8005 64.8174 12.8036 65.5585 12.8036C66.2901 12.8036 67.0219 12.7914 67.753 12.8106C67.9945 12.8169 68.0251 12.7181 67.9915 12.5325C67.9183 12.1275 67.8179 11.7344 67.6141 11.3675C66.8857 10.0565 65.1657 9.94025 64.203 10.7022ZM94.8975 10.2449C94.3318 10.2937 93.8083 10.4718 93.4347 10.9239C92.9878 11.4647 92.7081 12.0871 92.6212 12.8036L97.1675 12.8036C97.4752 12.8029 97.4785 12.7874 97.4389 12.4487C97.291 11.1822 96.3937 10.1157 94.8975 10.2449Z" stroke="black" stroke-width="2" mask="url(#path-1-inside-1)"/>
<path fill-rule="evenodd" clip-rule="evenodd" d="M103.761 27.768C104.673 27.7882 105.587 27.7825 106.499 27.7703C106.704 27.7676 106.746 27.8272 106.745 28.0221C106.739 31.8458 106.74 35.6695 106.744 39.4931C106.744 39.6648 106.72 39.7391 106.519 39.7357C105.729 39.7226 104.94 39.724 104.151 39.7352C103.967 39.7378 103.923 39.6793 103.935 39.5103C103.949 39.3122 103.939 39.1122 103.939 38.8528C103.329 39.2715 102.72 39.5926 102.066 39.8186C100.839 40.2427 99.6221 40.1837 98.4578 39.6278C97.4347 39.1393 96.795 38.2983 96.4666 37.2164C96.2889 36.631 96.1879 36.0338 96.1866 35.424C96.1814 32.9667 96.1871 30.5093 96.1797 28.052C96.1791 27.8384 96.2206 27.7656 96.4531 27.7694C97.3848 27.7845 98.3171 27.7819 99.2489 27.7706C99.4481 27.7682 99.4994 27.8176 99.499 28.0186C99.4931 30.2861 99.4834 32.5538 99.5107 34.8211C99.5172 35.3555 99.5213 35.9102 99.747 36.4202C99.9606 36.9029 100.363 37.1534 100.863 37.2156C101.768 37.3283 102.583 37.0396 103.349 36.5826C103.477 36.5067 103.429 36.3808 103.43 36.2743C103.432 33.5513 103.436 30.8282 103.424 28.1052C103.423 27.832 103.484 27.7619 103.761 27.768ZM136.959 27.8729C137.953 28.2796 138.68 28.9826 139.195 29.9056C139.692 30.7974 139.926 31.7683 140.016 32.7821C140.071 33.4128 140.085 34.0383 140.022 34.6695C140.002 34.8763 139.893 34.8339 139.779 34.834C138.543 34.835 137.308 34.8347 136.072 34.8347C134.836 34.8347 133.6 34.8406 132.364 34.829C132.146 34.827 132.112 34.9035 132.136 35.0895C132.298 36.3724 133.359 37.2864 134.525 37.4567C135.678 37.6252 136.758 37.4166 137.792 36.9028C138.287 36.6572 138.285 36.669 138.547 37.1516C138.81 37.6346 139.076 38.1172 139.366 38.584C139.467 38.7462 139.426 38.7984 139.293 38.8853C138.557 39.3659 137.731 39.6174 136.893 39.8475C136.017 40.0883 135.119 40.1368 134.229 40.0617C132.045 39.8775 130.201 38.6612 129.387 36.457C129.006 35.4262 128.865 34.3618 128.946 33.2803C129.071 31.6114 129.632 30.103 130.859 28.9151C131.723 28.0783 132.778 27.6185 133.985 27.4814C135.015 27.3642 136.001 27.481 136.959 27.8729ZM141.61 27.7698C142.532 27.7841 143.455 27.7833 144.377 27.77C144.593 27.7668 144.641 27.8244 144.641 28.0354C144.632 30.1792 144.622 32.3231 144.645 34.4667C144.651 35.0245 144.669 35.5903 144.799 36.1427C144.95 36.7831 145.438 37.1592 146.048 37.2195C146.879 37.3017 147.644 37.076 148.362 36.6619C148.521 36.5702 148.572 36.4656 148.571 36.2822C148.565 33.5692 148.567 30.8562 148.567 28.1433L148.567 28.1126C148.567 27.7756 148.578 27.7756 148.943 27.7756C149.847 27.7756 150.75 27.7814 151.653 27.7709C151.843 27.7688 151.886 27.8252 151.886 28.0077C151.881 31.84 151.881 35.6724 151.887 39.5047C151.887 39.698 151.827 39.7364 151.648 39.7343C150.868 39.7252 150.088 39.7239 149.309 39.735C149.12 39.7378 149.061 39.6837 149.077 39.4993C149.093 39.311 149.08 39.1203 149.08 38.8842C148.825 39.0312 148.592 39.1628 148.362 39.2977C147.375 39.8756 146.317 40.1811 145.169 40.0682C143.278 39.8821 141.871 38.672 141.488 36.7353C141.355 36.0585 141.316 35.3773 141.318 34.6893C141.324 32.4792 141.324 30.2689 141.314 28.0587C141.312 27.8161 141.378 27.7661 141.61 27.7698ZM92.778 28.4331C93.723 29.1426 94.2695 30.1127 94.5864 31.2273C94.863 32.2007 94.9534 33.1968 94.927 34.2048C94.9224 34.3818 94.8913 34.5583 94.8714 34.7349C94.8511 34.9154 94.7095 34.8302 94.6273 34.8305C93.3912 34.8364 92.155 34.8347 90.9187 34.8347H87.2957C86.9758 34.8347 86.9444 34.8685 87.0037 35.1939C87.1656 36.0815 87.6606 36.7284 88.4511 37.1532C89.1877 37.5491 89.9747 37.5398 90.7834 37.4747C91.5319 37.4145 92.1841 37.1023 92.8469 36.8097C93.0687 36.7118 93.1665 36.7077 93.2899 36.9519C93.5543 37.4748 93.864 37.9754 94.165 38.4793C94.291 38.6901 94.307 38.8077 94.0463 38.9581C93.2365 39.4251 92.3672 39.7136 91.4615 39.9028C90.0955 40.1881 88.742 40.1761 87.4154 39.6838C86.2437 39.249 85.347 38.489 84.7015 37.4255C84.215 36.6239 83.9617 35.7495 83.8524 34.8238C83.6783 33.3492 83.8467 31.9239 84.5053 30.5853C85.3431 28.8825 86.695 27.799 88.5865 27.5058C90.0846 27.2737 91.5229 27.4907 92.778 28.4331ZM66.1989 23.2892C67.9433 23.426 69.5066 24.0357 70.8043 25.2431C71.1088 25.5264 71.1153 25.5376 70.8033 25.8023C70.1364 26.3684 69.4559 26.9186 68.7915 27.4877C68.6638 27.5971 68.6112 27.5825 68.5135 27.4652C67.8801 26.7043 67.0598 26.3068 66.0801 26.1749C65.2156 26.0585 64.3926 26.1666 63.6204 26.5486C62.3694 27.1675 61.6821 28.2302 61.3167 29.5435C61.0414 30.5326 61.042 31.5425 61.1074 32.5437C61.183 33.6988 61.4828 34.8029 62.2338 35.738C62.7405 36.369 63.3961 36.7597 64.1689 36.9563C65.1262 37.1998 66.0841 37.1883 67.0288 36.8835C67.7233 36.6595 68.2956 36.2509 68.767 35.6888C69.5744 36.3709 70.3797 37.0512 71.2063 37.7495C70.7069 38.2428 70.1921 38.6848 69.595 39.0179C68.5451 39.6032 67.4243 39.9373 66.2158 40.0295C64.5572 40.1561 62.989 39.8966 61.5162 39.1148C59.996 38.3079 58.9588 37.0653 58.2999 35.5005C57.8576 34.4501 57.6592 33.3472 57.5952 32.2056C57.4975 30.4616 57.777 28.7946 58.5914 27.2551C59.6753 25.2064 61.3864 23.9431 63.6643 23.4411C64.5052 23.2559 65.3551 23.223 66.1989 23.2892ZM129.227 27.7091C129.397 27.7878 129.388 27.8646 129.338 28.0014C129.087 28.6914 128.84 29.3827 128.594 30.0745C128.543 30.2158 128.451 30.2372 128.311 30.2271C127.472 30.1668 126.661 30.2655 125.91 30.6818C125.41 30.9588 124.973 31.3046 124.634 31.7686C124.551 31.8824 124.542 32.0068 124.542 32.1412C124.545 34.56 124.54 36.9788 124.549 39.3976C124.55 39.6505 124.499 39.7433 124.222 39.7374C123.329 39.7186 122.435 39.7247 121.541 39.7349C121.349 39.7372 121.286 39.6999 121.286 39.4922C121.293 35.6885 121.294 31.8849 121.286 28.0812C121.285 27.8614 121.347 27.8182 121.554 27.8214C122.343 27.834 123.132 27.8328 123.921 27.8219C124.111 27.8192 124.162 27.8757 124.155 28.059C124.141 28.4183 124.151 28.7785 124.151 29.2213C124.66 28.6775 125.189 28.2801 125.8 28.0002C126.424 27.7146 127.063 27.5044 127.763 27.4759C128.275 27.455 128.757 27.4911 129.227 27.7091ZM81.3992 9.17752C82.4583 10.1624 83.1643 11.3822 83.3835 12.8014C83.6644 14.6199 83.4064 16.3936 82.4231 17.9853C81.7102 19.1392 80.6164 19.8289 79.3192 20.2057C78.265 20.512 77.2232 20.5574 76.1964 20.0951C75.9525 19.9852 75.7385 19.8243 75.485 19.6733V28.2923C75.9645 28.0117 76.4584 27.7867 76.987 27.6413C78.4054 27.2512 79.7433 27.3846 80.9862 28.2172C81.7029 28.6973 82.0242 29.4053 82.2069 30.2102C82.4326 31.2049 82.5004 32.2116 82.4975 33.228C82.4916 35.3053 82.4917 37.3828 82.5015 39.4602C82.5026 39.6896 82.436 39.7388 82.2184 39.7356C81.3818 39.7229 80.5449 39.7223 79.7083 39.7356C79.4715 39.7393 79.4023 39.6713 79.4033 39.4328C79.412 37.2795 79.4087 35.1262 79.4081 32.9729C79.408 32.3449 79.3962 31.7159 79.1771 31.1173C78.9963 30.6235 78.6056 30.3722 78.1042 30.2816C77.2053 30.1192 76.4138 30.4209 75.6488 30.8491C75.4858 30.9403 75.4689 31.0609 75.4691 31.2205C75.472 33.9429 75.4672 36.6654 75.4772 39.3878C75.4782 39.6617 75.4055 39.7427 75.1287 39.7372C74.2828 39.7191 73.4363 39.7251 72.5902 39.7342C72.3901 39.7364 72.3256 39.6736 72.3289 39.4738C72.3394 38.8383 72.3328 38.2028 72.3328 37.5672L72.3328 8.46497C72.3335 8.13569 72.3487 8.13564 72.6963 8.13564C73.4379 8.13558 74.1798 8.14568 74.9211 8.1296C75.1506 8.12458 75.2241 8.19369 75.1942 8.41123C75.1806 8.51023 75.1919 8.61264 75.1919 8.75081C75.7074 8.46324 76.2002 8.21194 76.7445 8.06641C78.5016 7.59654 80.0641 7.93589 81.3992 9.17752ZM156.82 27.7714C157.016 27.7699 157.098 27.8765 157.191 28.015C157.897 29.0708 158.608 30.1234 159.319 31.1761C159.35 31.2224 159.396 31.2593 159.45 31.3165C159.892 30.6714 160.332 30.0342 160.768 29.3937C161.098 28.9078 161.424 28.4183 161.749 27.9289C161.823 27.818 161.913 27.7715 162.053 27.7723C163.071 27.7785 164.088 27.7753 165.105 27.7766C165.159 27.7766 165.233 27.7703 165.263 27.801C165.318 27.8565 165.241 27.8964 165.211 27.9394C164.517 28.9578 163.822 29.976 163.128 30.9943C162.565 31.8199 162.005 32.6476 161.437 33.4696C161.328 33.6272 161.333 33.731 161.454 33.894C162.456 35.247 163.443 36.6106 164.435 37.9711C164.816 38.4926 165.197 39.014 165.576 39.5362C165.613 39.5868 165.643 39.6421 165.698 39.7304H163.964C163.394 39.7304 162.823 39.7217 162.253 39.7356C162.075 39.7399 161.965 39.6713 161.875 39.5408C161.03 38.3198 160.186 37.0981 159.327 35.8546C158.956 36.3828 158.592 36.8954 158.235 37.4121C157.745 38.1193 157.263 38.8312 156.77 39.5364C156.704 39.6306 156.636 39.7342 156.481 39.7334C155.37 39.7278 154.259 39.7304 153.105 39.7304C153.263 39.3872 153.496 39.1328 153.694 38.8589C154.74 37.4109 155.794 35.9686 156.846 34.525C157.017 34.2904 157.182 34.0501 157.372 33.8313C157.468 33.7214 157.46 33.6426 157.388 33.5423C156.621 32.4698 155.853 31.3978 155.086 30.3249C154.51 29.519 153.935 28.7123 153.361 27.9048C153.342 27.8768 153.337 27.8379 153.316 27.7756C154.5 27.7756 155.66 27.78 156.82 27.7714ZM111.541 27.9842C112.39 30.5996 113.249 33.2121 114.105 35.8251C114.128 35.896 114.154 35.9662 114.193 36.0811C114.38 35.5583 114.555 35.069 114.728 34.5785C115.506 32.371 116.286 30.1642 117.053 27.9529C117.108 27.7954 117.18 27.7739 117.314 27.7742C118.303 27.7768 119.292 27.7756 120.319 27.7756C120.002 28.6082 119.696 29.415 119.386 30.2201C118.672 32.0754 117.954 33.9296 117.241 35.7851C116.761 37.0313 116.286 38.279 115.809 39.5264C115.753 39.6736 115.667 39.7378 115.492 39.7356C114.599 39.7243 113.705 39.7273 112.812 39.733C112.633 39.7342 112.556 39.6701 112.491 39.4963C111.384 36.5688 110.266 33.6457 109.154 30.7206C108.785 29.7508 108.425 28.7778 108.049 27.7756H109.423C110.032 27.7756 110.64 27.7814 111.248 27.7718C111.416 27.7693 111.487 27.8172 111.541 27.9842ZM88.2791 30.1781C87.5095 30.6259 87.2267 31.3927 86.9931 32.1915C86.9174 32.4502 87.0351 32.4487 87.2276 32.4467C87.9395 32.4392 88.6517 32.4437 89.3638 32.4437C90.0854 32.4437 90.807 32.4416 91.5286 32.445C91.7239 32.446 91.8414 32.4853 91.8077 32.166C91.7022 31.1699 90.9795 30.021 89.7982 29.9102C89.2573 29.8595 88.746 29.9063 88.2791 30.1781ZM132.999 30.498C132.492 31.027 132.212 31.691 132.109 32.4437L136.628 32.4436C136.974 32.443 136.973 32.4279 136.926 32.0569C136.796 31.0275 136.144 30.0516 134.918 29.8987C134.2 29.8092 133.512 29.9631 132.999 30.498ZM68.8311 8.69526C69.8261 9.3829 70.3871 10.3668 70.7345 11.4935C71.057 12.5393 71.1106 13.6136 71.0793 14.6983C71.063 15.2647 71.146 15.1926 70.5747 15.1938C69.4149 15.1963 68.255 15.1946 67.0952 15.1946C65.8784 15.1946 64.6615 15.1988 63.4447 15.1909C63.2076 15.1894 63.1224 15.2091 63.1789 15.4987C63.2801 16.0183 63.4571 16.4784 63.8198 16.8731C64.2925 17.3875 64.8675 17.7031 65.5533 17.8114C66.7052 17.9933 67.789 17.7714 68.8248 17.2527L68.8728 17.2287C69.2897 17.0217 69.3121 17.0456 69.5653 17.475C69.8443 17.9479 70.1023 18.4333 70.3795 18.9073C70.4737 19.0682 70.4595 19.1559 70.2915 19.2606C69.4741 19.7701 68.5702 20.0432 67.6438 20.2621C66.9119 20.435 66.1665 20.473 65.423 20.4255C64.1861 20.3464 63.05 19.9749 62.0754 19.1729C60.8878 18.1958 60.2939 16.9116 60.0587 15.4239C59.7996 13.7848 60.0119 12.2201 60.7826 10.7469C61.5717 9.23846 62.793 8.2499 64.4752 7.91729C66.0149 7.61284 67.4988 7.77444 68.8311 8.69526ZM97.3029 8.14988C98.3618 8.54449 99.1563 9.26253 99.6973 10.2478C100.197 11.1585 100.446 12.1429 100.53 13.1777C100.578 13.7802 100.599 14.3767 100.536 14.9796C100.515 15.1788 100.444 15.1982 100.28 15.1974C99.0441 15.1922 97.8083 15.1946 96.5725 15.1946C95.3463 15.1946 94.1199 15.2025 92.8939 15.1877C92.6578 15.1848 92.622 15.2688 92.6487 15.4621C92.8291 16.767 93.8689 17.6316 95.0534 17.8146C96.2474 17.9989 97.3543 17.7262 98.4189 17.2054C98.7945 17.0217 98.7933 17.0279 99.001 17.4006C99.2912 17.9215 99.5769 18.4454 99.8865 18.9548C99.978 19.1052 99.941 19.151 99.8184 19.2322C99.198 19.6437 98.5033 19.8766 97.7996 20.0923C96.873 20.3763 95.9239 20.4788 94.9599 20.4298C92.7912 20.3198 90.8424 19.1728 89.9553 16.9698C89.5111 15.8665 89.3676 14.7197 89.4624 13.5559C89.5962 11.9113 90.1614 10.4273 91.3824 9.2574C92.2231 8.45194 93.2316 7.99119 94.3935 7.8443C95.3915 7.7181 96.3637 7.79993 97.3029 8.14988ZM51.3455 4.18155C51.3373 6.65763 51.3402 9.13376 51.3402 11.6099C51.3583 11.6207 51.3763 11.6316 51.3944 11.6424C51.6776 11.2309 51.9622 10.8202 52.2439 10.4076C53.6759 8.30977 55.1064 6.21079 56.5416 4.11512C56.6012 4.0281 56.6626 3.92169 56.803 3.92198C58.0175 3.92409 59.2319 3.92318 60.5019 3.92318C60.2053 4.33705 59.9395 4.71329 59.6682 5.0856C58.7758 6.3099 57.8813 7.53271 56.9877 8.7562C56.2924 9.70815 55.6007 10.6628 54.8984 11.6097C54.7873 11.7596 54.7801 11.852 54.8967 12.0094C56.1006 13.6342 57.2941 15.2667 58.4902 16.8972C59.2154 17.8859 59.941 18.8744 60.6629 19.8655C60.7029 19.9205 60.7596 19.9819 60.7329 20.0903H59.3484C58.5211 20.0903 57.6938 20.0881 56.8664 20.0925C56.7247 20.0933 56.6401 20.0629 56.5496 19.9289C55.3313 18.1245 54.1007 16.3284 52.8744 14.5295C52.4066 13.8433 51.942 13.1549 51.4743 12.4687C51.4501 12.4332 51.411 12.4079 51.3402 12.3417V12.6875C51.3402 15.0593 51.3364 17.4311 51.3461 19.8029C51.3471 20.0398 51.2894 20.1002 51.0516 20.0967C50.0818 20.0817 49.1117 20.0855 48.1418 20.0946C47.9577 20.0964 47.906 20.0503 47.9063 19.8622C47.9116 14.6253 47.9116 9.38842 47.9063 4.15156C47.9061 3.96429 47.9564 3.9169 48.1413 3.91862C49.1207 3.92785 50.1004 3.92991 51.0797 3.91738C51.2929 3.91474 51.3462 3.96788 51.3455 4.18155ZM88.0288 2.40383C88.0228 5.3069 88.0246 8.20991 88.0246 11.1129C88.0246 13.997 88.0209 16.8811 88.0308 19.7651C88.0318 20.0321 87.9573 20.1011 87.6952 20.0965C86.8017 20.0805 85.9075 20.0834 85.0138 20.0956C84.8092 20.0984 84.7674 20.0394 84.7677 19.8441C84.7732 14.1803 84.7728 8.51658 84.7693 2.85283C84.7692 2.68621 84.7937 2.62862 84.9891 2.60159C85.9236 2.47237 86.8539 2.31259 87.7849 2.1588C87.9958 2.12396 88.0292 2.21257 88.0288 2.40383ZM108.687 7.79726C109.094 7.79664 109.477 7.92197 109.845 8.08649C109.922 8.12053 109.946 8.17219 109.911 8.26908C109.64 9.00109 109.381 9.73726 109.112 10.4703C109.031 10.6934 108.831 10.5849 108.696 10.5755C107.358 10.483 106.251 10.9265 105.349 11.9253C105.127 12.1711 105.082 12.4163 105.083 12.7183C105.089 15.0807 105.082 17.4432 105.092 19.8057C105.093 20.0455 105.032 20.1004 104.797 20.0964C103.903 20.0814 103.009 20.0825 102.115 20.0958C101.883 20.0992 101.829 20.0253 101.829 19.8032C101.835 16.008 101.836 12.2129 101.829 8.41779C101.828 8.18776 101.896 8.12703 102.12 8.13068C102.91 8.14334 103.699 8.1414 104.488 8.13159C104.691 8.12903 104.754 8.1974 104.747 8.39458C104.734 8.75058 104.744 9.10732 104.744 9.53386C105.272 8.94925 105.865 8.56708 106.516 8.26828C107.206 7.9518 107.932 7.79835 108.687 7.79726ZM75.6312 10.8979C75.5049 10.9607 75.469 11.0106 75.4692 11.1369C75.472 13.0699 75.4728 15.0029 75.4679 16.9359C75.4675 17.0812 75.521 17.1527 75.6457 17.215C76.056 17.42 76.4828 17.5635 76.9337 17.6562C77.9346 17.8624 79.081 17.368 79.6061 16.5089C80.0547 15.775 80.2562 14.9881 80.2016 14.11C80.2326 13.6993 80.1954 13.2705 80.0924 12.848C79.8467 11.8407 79.2867 11.0829 78.2945 10.7156C77.3891 10.3804 76.4977 10.4673 75.6312 10.8979ZM64.203 10.7022C63.5878 11.1892 63.3308 11.8901 63.1497 12.6232C63.1104 12.7821 63.1945 12.8075 63.3352 12.8064C64.0762 12.8005 64.8174 12.8036 65.5585 12.8036C66.2901 12.8036 67.0219 12.7914 67.753 12.8106C67.9945 12.8169 68.0251 12.7181 67.9915 12.5325C67.9183 12.1275 67.8179 11.7344 67.6141 11.3675C66.8857 10.0565 65.1657 9.94025 64.203 10.7022ZM94.8975 10.2449C94.3318 10.2937 93.8083 10.4718 93.4347 10.9239C92.9878 11.4647 92.7081 12.0871 92.6212 12.8036L97.1675 12.8036C97.4752 12.8029 97.4785 12.7874 97.4389 12.4487C97.291 11.1822 96.3937 10.1157 94.8975 10.2449Z" stroke="url(#paint0_linear)" stroke-width="2" mask="url(#path-1-inside-1)"/>
<path d="M22.7886 20.0311C25.6136 17.2244 28.4324 14.4117 31.2462 11.5941C33.5108 13.8614 35.7795 16.1247 38.0479 18.3876C38.5979 18.9363 39.1479 19.485 39.6978 20.0337C39.4016 20.3304 39.1048 20.6263 38.8074 20.9227C38.6954 21.0344 38.5833 21.1462 38.4711 21.2581L38.8074 21.5952L38.4711 21.2581C37.9866 21.7415 37.5019 22.2248 37.0173 22.7082C35.0928 24.6274 33.1678 26.5472 31.2483 28.4723C28.4337 25.6532 25.6131 22.84 22.7886 20.0311Z" fill="#259BE1"/>
<path d="M22.7886 20.0311C25.6136 17.2244 28.4324 14.4117 31.2462 11.5941C33.5108 13.8614 35.7795 16.1247 38.0479 18.3876C38.5979 18.9363 39.1479 19.485 39.6978 20.0337C39.4016 20.3304 39.1048 20.6263 38.8074 20.9227C38.6954 21.0344 38.5833 21.1462 38.4711 21.2581L38.8074 21.5952L38.4711 21.2581C37.9866 21.7415 37.5019 22.2248 37.0173 22.7082C35.0928 24.6274 33.1678 26.5472 31.2483 28.4723C28.4337 25.6532 25.6131 22.84 22.7886 20.0311Z" stroke="black"/>
<path d="M22.7886 20.0311C25.6136 17.2244 28.4324 14.4117 31.2462 11.5941C33.5108 13.8614 35.7795 16.1247 38.0479 18.3876C38.5979 18.9363 39.1479 19.485 39.6978 20.0337C39.4016 20.3304 39.1048 20.6263 38.8074 20.9227C38.6954 21.0344 38.5833 21.1462 38.4711 21.2581L38.8074 21.5952L38.4711 21.2581C37.9866 21.7415 37.5019 22.2248 37.0173 22.7082C35.0928 24.6274 33.1678 26.5472 31.2483 28.4723C28.4337 25.6532 25.6131 22.84 22.7886 20.0311Z" stroke="url(#paint1_linear)"/>
<path d="M16.4553 35.0876V35.0876C16.4549 32.8486 16.4549 30.6097 16.4549 28.3707L16.4549 27.0338C16.4549 26.126 16.455 25.2182 16.455 24.3105C16.455 23.2735 16.455 22.2366 16.455 21.1997C16.6749 21.4186 16.8944 21.6389 17.1147 21.86L17.1819 21.9275C17.6242 22.3713 18.07 22.818 18.524 23.2575C20.3222 24.9985 22.0841 26.7624 23.8494 28.5297C25.0594 29.7411 26.2709 30.954 27.4969 32.1623C25.4722 34.1723 23.4531 36.1879 21.4346 38.2029C21.1226 38.5143 20.8107 38.8256 20.4988 39.1369C20.3279 38.9667 20.1571 38.7965 19.9864 38.6266C18.806 37.4506 17.6325 36.2816 16.4552 35.1168L16.4552 35.113L16.4553 35.0876ZM16.4549 18.8057C16.4548 14.2154 16.454 9.625 16.4512 5.03463L16.4512 5.03452C16.4511 4.97404 16.4586 4.95296 16.4606 4.94776L16.4607 4.94755C16.462 4.94429 16.4679 4.92867 16.5013 4.89573L16.1628 4.55318L16.5013 4.89573C17.8383 3.57448 19.17 2.24757 20.4944 0.913166C22.808 3.23025 25.1258 5.54359 27.4494 7.8511C25.6164 9.67526 23.7871 11.499 21.958 13.3226C20.1246 15.1504 18.2915 16.978 16.4549 18.8057Z" fill="#003369"/>
<path d="M16.4553 35.0876V35.0876C16.4549 32.8486 16.4549 30.6097 16.4549 28.3707L16.4549 27.0338C16.4549 26.126 16.455 25.2182 16.455 24.3105C16.455 23.2735 16.455 22.2366 16.455 21.1997C16.6749 21.4186 16.8944 21.6389 17.1147 21.86L17.1819 21.9275C17.6242 22.3713 18.07 22.818 18.524 23.2575C20.3222 24.9985 22.0841 26.7624 23.8494 28.5297C25.0594 29.7411 26.2709 30.954 27.4969 32.1623C25.4722 34.1723 23.4531 36.1879 21.4346 38.2029C21.1226 38.5143 20.8107 38.8256 20.4988 39.1369C20.3279 38.9667 20.1571 38.7965 19.9864 38.6266C18.806 37.4506 17.6325 36.2816 16.4552 35.1168L16.4552 35.113L16.4553 35.0876ZM16.4549 18.8057C16.4548 14.2154 16.454 9.625 16.4512 5.03463L16.4512 5.03452C16.4511 4.97404 16.4586 4.95296 16.4606 4.94776L16.4607 4.94755C16.462 4.94429 16.4679 4.92867 16.5013 4.89573L16.1628 4.55318L16.5013 4.89573C17.8383 3.57448 19.17 2.24757 20.4944 0.913166C22.808 3.23025 25.1258 5.54359 27.4494 7.8511C25.6164 9.67526 23.7871 11.499 21.958 13.3226C20.1246 15.1504 18.2915 16.978 16.4549 18.8057Z" stroke="black"/>
<path d="M16.4553 35.0876V35.0876C16.4549 32.8486 16.4549 30.6097 16.4549 28.3707L16.4549 27.0338C16.4549 26.126 16.455 25.2182 16.455 24.3105C16.455 23.2735 16.455 22.2366 16.455 21.1997C16.6749 21.4186 16.8944 21.6389 17.1147 21.86L17.1819 21.9275C17.6242 22.3713 18.07 22.818 18.524 23.2575C20.3222 24.9985 22.0841 26.7624 23.8494 28.5297C25.0594 29.7411 26.2709 30.954 27.4969 32.1623C25.4722 34.1723 23.4531 36.1879 21.4346 38.2029C21.1226 38.5143 20.8107 38.8256 20.4988 39.1369C20.3279 38.9667 20.1571 38.7965 19.9864 38.6266C18.806 37.4506 17.6325 36.2816 16.4552 35.1168L16.4552 35.113L16.4553 35.0876ZM16.4549 18.8057C16.4548 14.2154 16.454 9.625 16.4512 5.03463L16.4512 5.03452C16.4511 4.97404 16.4586 4.95296 16.4606 4.94776L16.4607 4.94755C16.462 4.94429 16.4679 4.92867 16.5013 4.89573L16.1628 4.55318L16.5013 4.89573C17.8383 3.57448 19.17 2.24757 20.4944 0.913166C22.808 3.23025 25.1258 5.54359 27.4494 7.8511C25.6164 9.67526 23.7871 11.499 21.958 13.3226C20.1246 15.1504 18.2915 16.978 16.4549 18.8057Z" stroke="url(#paint2_linear)"/>
<path d="M9.34403 12.0494C9.72412 11.6702 10.1042 11.291 10.4843 10.9118V29.1586C7.43599 26.1149 4.38657 23.0721 1.33366 20.0327C4.00697 17.3745 6.67566 14.7118 9.34403 12.0494ZM0.808446 19.8584L0.804137 19.8541L0.808446 19.8584Z" fill="#003369"/>
<path d="M9.34403 12.0494C9.72412 11.6702 10.1042 11.291 10.4843 10.9118V29.1586C7.43599 26.1149 4.38657 23.0721 1.33366 20.0327C4.00697 17.3745 6.67566 14.7118 9.34403 12.0494ZM0.808446 19.8584L0.804137 19.8541L0.808446 19.8584Z" stroke="black"/>
<path d="M9.34403 12.0494C9.72412 11.6702 10.1042 11.291 10.4843 10.9118V29.1586C7.43599 26.1149 4.38657 23.0721 1.33366 20.0327C4.00697 17.3745 6.67566 14.7118 9.34403 12.0494ZM0.808446 19.8584L0.804137 19.8541L0.808446 19.8584Z" stroke="url(#paint3_linear)"/>
<defs>
<linearGradient id="paint0_linear" x1="106.802" y1="2.15137" x2="106.802" y2="40.0967" gradientUnits="userSpaceOnUse">
<stop stop-color="white"/>
<stop offset="1" stop-color="white" stop-opacity="0"/>
</linearGradient>
<linearGradient id="paint1_linear" x1="31.2685" y1="10.97" x2="31.2685" y2="29.0938" gradientUnits="userSpaceOnUse">
<stop stop-color="white"/>
<stop offset="1" stop-color="white" stop-opacity="0"/>
</linearGradient>
<linearGradient id="paint2_linear" x1="22.0365" y1="0.280518" x2="22.0365" y2="39.8525" gradientUnits="userSpaceOnUse">
<stop stop-color="white"/>
<stop offset="1" stop-color="white" stop-opacity="0"/>
</linearGradient>
<linearGradient id="paint3_linear" x1="5.84078" y1="9.71484" x2="5.84078" y2="30.364" gradientUnits="userSpaceOnUse">
<stop stop-color="white"/>
<stop offset="1" stop-color="white" stop-opacity="0"/>
</linearGradient>
</defs>
</svg>
