<?xml version="1.0" encoding="utf-8"?>
<!-- Generator: Adobe Illustrator 25.0.0, SVG Export Plug-In . SVG Version: 6.00 Build 0)  -->
<svg version="1.1" id="Слой_1" xmlns="http://www.w3.org/2000/svg" xmlns:xlink="http://www.w3.org/1999/xlink" x="0px" y="0px"
	 viewBox="0 0 481.9 56.7" style="enable-background:new 0 0 481.9 56.7;" xml:space="preserve">
<path d="M394.7,13.2c1.8-1.9,3.8-2.8,6.1-2.8h13.5c0.1,0,0.2,0,0.2,0.1c0.1,0.1,0.1,0.1,0.1,0.2v5.7c0,0.1,0,0.1-0.1,0.2
	c-0.1,0.1-0.1,0.1-0.2,0.1h-6.2c-0.1,0-0.3,0-0.3,0h-5.6c-0.8,0-1.4,0.3-2,0.9L373,47c-0.1,0-0.1,0.1-0.2,0.1h-8.6
	c-0.1,0-0.2-0.1-0.3-0.2c0-0.1,0-0.2,0.1-0.3L394.7,13.2z"/>
<path d="M384.1,32.7L364,10.9c-0.1-0.1-0.1-0.2-0.1-0.3c0-0.1,0.1-0.2,0.3-0.2h8.6c0.1,0,0.1,0,0.2,0.1l14.8,16"/>
<g>
	<path d="M52.2,10.7c0-0.1,0-0.2,0.1-0.2c0.1-0.1,0.1-0.1,0.2-0.1h6.2c0.1,0,0.1,0,0.2,0.1c0.1,0.1,0.1,0.1,0.1,0.2v36.1
		c0,0.1,0,0.1-0.1,0.2c-0.1,0.1-0.1,0.1-0.2,0.1H46.2h-0.1c-2.6-0.1-4.6-1.3-6.1-3.6L24.3,18.1c-0.7-0.9-1.5-1.4-2.4-1.4h-4.3v30.1
		c0,0.1,0,0.1-0.1,0.2c-0.1,0.1-0.1,0.1-0.2,0.1H11c-0.1,0-0.1,0-0.2-0.1c-0.1-0.1-0.1-0.1-0.1-0.2V10.7c0-0.1,0-0.2,0.1-0.2
		c0.1-0.1,0.1-0.1,0.2-0.1h12.6h0.1c2.6,0.1,4.6,1.3,6.1,3.6l15.7,25.4c0.6,1,1.4,1.4,2.4,1.4h4.3V10.7z"/>
	<path d="M107.7,10.4c2.7,0,5,1,6.8,3.1s2.8,4.5,2.8,7.4v15.7c0,2.9-0.9,5.4-2.8,7.4s-4.2,3.1-6.8,3.1H78.8c-2.7,0-4.9-1-6.8-3.1
		s-2.8-4.5-2.8-7.4V20.9c0-2.9,0.9-5.4,2.8-7.4s4.2-3.1,6.8-3.1H107.7z M110.6,19.8c0-0.9-0.3-1.6-0.8-2.2s-1.2-0.9-2.1-0.9H78.8
		c-0.8,0-1.5,0.3-2,0.9s-0.9,1.4-0.9,2.2v17.8c0,0.9,0.3,1.6,0.9,2.2s1.3,0.9,2,0.9h28.9c0.8,0,1.5-0.3,2.1-0.9s0.8-1.4,0.8-2.2
		V19.8z"/>
	<path d="M175.7,24.6c0,2.1-0.5,4-1.6,5.7c-1,1.7-2.4,3-4.1,3.8l0.1,0.3l5.4,12.3c0,0.1,0,0.2,0,0.3c0,0.1-0.1,0.1-0.2,0.1h-6.9
		c-0.1,0-0.2-0.1-0.3-0.2l-5.2-11.9h-28.7v11.7c0,0.1,0,0.1-0.1,0.2c-0.1,0.1-0.1,0.1-0.2,0.1h-6.2c-0.1,0-0.1,0-0.2-0.1
		c-0.1-0.1-0.1-0.1-0.1-0.2V10.7c0-0.1,0-0.2,0.1-0.2c0.1-0.1,0.1-0.1,0.2-0.1h38.3c2.7,0,4.9,1,6.8,3.1s2.8,4.5,2.8,7.4V24.6z
		 M134.2,28.8h31.8c0.8,0,1.5-0.3,2-0.9c0.6-0.6,0.8-1.4,0.8-2.2v-5.8c0-0.9-0.3-1.6-0.8-2.2c-0.6-0.6-1.2-0.9-2-0.9h-31.8V28.8z"/>
	<path d="M236,46.8c0,0.1,0,0.2-0.1,0.2c-0.1,0.1-0.1,0.1-0.2,0.1h-6.2c-0.1,0-0.1,0-0.2-0.1c-0.1-0.1-0.1-0.1-0.1-0.2V16.7h-3.7
		c-1.2,0-2.1,0.7-2.7,2.1l-9.1,28.1c0,0.1-0.1,0.2-0.3,0.2h-5c-0.1,0-0.2-0.1-0.3-0.2L199,18.8c-0.6-1.4-1.5-2.1-2.7-2.1h-3.7v30.1
		c0,0.1,0,0.2-0.1,0.2c-0.1,0.1-0.1,0.1-0.2,0.1h-6.2c-0.1,0-0.1,0-0.2-0.1c-0.1-0.1-0.1-0.1-0.1-0.2v-36c0-0.1,0-0.2,0.1-0.2
		c0.1-0.1,0.1-0.1,0.2-0.1h12.4c0.2,0,0.5,0,0.7,0c1.3,0.2,2.4,0.7,3.4,1.6s1.6,2,2.1,3.3l6.3,19.5l6.2-19.5
		c0.5-1.3,1.2-2.5,2.1-3.4c1-0.9,2.1-1.4,3.4-1.6c0.2,0,0.4,0,0.6,0h12.4c0.1,0,0.2,0,0.2,0.1c0.1,0.1,0.1,0.1,0.1,0.2V46.8z"/>
	<path d="M275.9,13.2c1.8-1.9,3.8-2.8,6.1-2.8h13.5c0.1,0,0.2,0,0.2,0.1c0.1,0.1,0.1,0.1,0.1,0.2v36.1c0,0.1,0,0.1-0.1,0.2
		c-0.1,0.1-0.1,0.1-0.2,0.1h-6.2c-0.1,0-0.1,0-0.2-0.1c-0.1-0.1-0.1-0.1-0.1-0.2V16.7h-5.6c-0.8,0-1.4,0.3-2,0.9L254.2,47
		c-0.1,0-0.1,0.1-0.2,0.1h-8.6c-0.1,0-0.2-0.1-0.3-0.2c0-0.1,0-0.2,0.1-0.3L275.9,13.2z"/>
	<path d="M312.7,22.5c0,0.9,0.3,1.6,0.8,2.2c0.6,0.6,1.2,0.9,2,0.9h29c2.7,0,4.9,1,6.8,3.1s2.8,4.5,2.8,7.4v0.5
		c0,2.9-0.9,5.4-2.8,7.4c-1.9,2.1-4.1,3.1-6.8,3.1h-36.4c-0.1,0-0.1,0-0.2-0.1c-0.1-0.1-0.1-0.1-0.1-0.2v-5.7c0-0.1,0-0.2,0.1-0.2
		c0.1-0.1,0.1-0.1,0.2-0.1h36.4c0.8,0,1.5-0.3,2-0.9c0.6-0.6,0.8-1.3,0.8-2.2V35c0-0.9-0.3-1.6-0.8-2.2s-1.2-0.9-2-0.9h-29
		c-2.7,0-4.9-1-6.8-3.1s-2.8-4.5-2.8-7.4v-0.5c0-2.9,0.9-5.4,2.8-7.4s4.1-3.1,6.8-3.1H352c0.1,0,0.1,0,0.2,0.1
		c0.1,0.1,0.1,0.1,0.1,0.2v5.7c0,0.1,0,0.1-0.1,0.2c-0.1,0.1-0.1,0.1-0.2,0.1h-36.4c-0.8,0-1.5,0.3-2,0.9s-0.8,1.4-0.8,2.2V22.5z"/>
	<path d="M429.6,22.5c0,0.9,0.3,1.6,0.8,2.2c0.6,0.6,1.2,0.9,2,0.9h29c2.7,0,4.9,1,6.8,3.1s2.8,4.5,2.8,7.4v0.5
		c0,2.9-0.9,5.4-2.8,7.4c-1.9,2.1-4.1,3.1-6.8,3.1H419c-0.1,0-0.1,0-0.2-0.1c-0.1-0.1-0.1-0.1-0.1-0.2v-5.7c0-0.1,0-0.2,0.1-0.2
		c0.1-0.1,0.1-0.1,0.2-0.1h42.4c0.8,0,1.5-0.3,2-0.9c0.6-0.6,0.8-1.3,0.8-2.2V35c0-0.9-0.3-1.6-0.8-2.2s-1.2-0.9-2-0.9h-29
		c-2.7,0-4.9-1-6.8-3.1s-2.8-4.5-2.8-7.4v-0.5c0-2.9,0.9-5.4,2.8-7.4s4.1-3.1,6.8-3.1h36.4c0.1,0,0.1,0,0.2,0.1
		c0.1,0.1,0.1,0.1,0.1,0.2v5.7c0,0.1,0,0.1-0.1,0.2c-0.1,0.1-0.1,0.1-0.2,0.1h-36.4c-0.8,0-1.5,0.3-2,0.9s-0.8,1.4-0.8,2.2V22.5z"/>
</g>
<path d="M9.8,48.3"/>
<path d="M146.5,52.9"/>
</svg>
